G04 #@! TF.GenerationSoftware,KiCad,Pcbnew,(5.1.6-0-10_14)*
G04 #@! TF.CreationDate,2020-08-03T23:57:46+09:00*
G04 #@! TF.ProjectId,teabiscuits_power,74656162-6973-4637-9569-74735f706f77,rev?*
G04 #@! TF.SameCoordinates,Original*
G04 #@! TF.FileFunction,Copper,L2,Bot*
G04 #@! TF.FilePolarity,Positive*
%FSLAX46Y46*%
G04 Gerber Fmt 4.6, Leading zero omitted, Abs format (unit mm)*
G04 Created by KiCad (PCBNEW (5.1.6-0-10_14)) date 2020-08-03 23:57:46*
%MOMM*%
%LPD*%
G01*
G04 APERTURE LIST*
G04 #@! TA.AperFunction,ComponentPad*
%ADD10O,1.905000X2.000000*%
G04 #@! TD*
G04 #@! TA.AperFunction,ComponentPad*
%ADD11R,1.905000X2.000000*%
G04 #@! TD*
G04 #@! TA.AperFunction,ComponentPad*
%ADD12O,1.200000X1.200000*%
G04 #@! TD*
G04 #@! TA.AperFunction,ComponentPad*
%ADD13C,1.950000*%
G04 #@! TD*
G04 #@! TA.AperFunction,ViaPad*
%ADD14C,3.110000*%
G04 #@! TD*
G04 #@! TA.AperFunction,ViaPad*
%ADD15C,1.000000*%
G04 #@! TD*
G04 #@! TA.AperFunction,Conductor*
%ADD16C,1.000000*%
G04 #@! TD*
G04 APERTURE END LIST*
D10*
X130790000Y-75500000D03*
X128250000Y-75500000D03*
D11*
X125710000Y-75500000D03*
D10*
X176330000Y-75500000D03*
X173790000Y-75500000D03*
D11*
X171250000Y-75500000D03*
G04 #@! TA.AperFunction,ComponentPad*
G36*
G01*
X103673600Y-92350000D02*
X102826400Y-92350000D01*
G75*
G02*
X102650000Y-92173600I0J176400D01*
G01*
X102650000Y-91326400D01*
G75*
G02*
X102826400Y-91150000I176400J0D01*
G01*
X103673600Y-91150000D01*
G75*
G02*
X103850000Y-91326400I0J-176400D01*
G01*
X103850000Y-92173600D01*
G75*
G02*
X103673600Y-92350000I-176400J0D01*
G01*
G37*
G04 #@! TD.AperFunction*
D12*
X103250000Y-90250000D03*
X103250000Y-88750000D03*
G04 #@! TA.AperFunction,ComponentPad*
G36*
G01*
X103673600Y-85850000D02*
X102826400Y-85850000D01*
G75*
G02*
X102650000Y-85673600I0J176400D01*
G01*
X102650000Y-84826400D01*
G75*
G02*
X102826400Y-84650000I176400J0D01*
G01*
X103673600Y-84650000D01*
G75*
G02*
X103850000Y-84826400I0J-176400D01*
G01*
X103850000Y-85673600D01*
G75*
G02*
X103673600Y-85850000I-176400J0D01*
G01*
G37*
G04 #@! TD.AperFunction*
X103250000Y-83750000D03*
X103250000Y-82250000D03*
G04 #@! TA.AperFunction,ComponentPad*
G36*
G01*
X103673600Y-79350000D02*
X102826400Y-79350000D01*
G75*
G02*
X102650000Y-79173600I0J176400D01*
G01*
X102650000Y-78326400D01*
G75*
G02*
X102826400Y-78150000I176400J0D01*
G01*
X103673600Y-78150000D01*
G75*
G02*
X103850000Y-78326400I0J-176400D01*
G01*
X103850000Y-79173600D01*
G75*
G02*
X103673600Y-79350000I-176400J0D01*
G01*
G37*
G04 #@! TD.AperFunction*
X103250000Y-77250000D03*
X103250000Y-75750000D03*
G04 #@! TA.AperFunction,ComponentPad*
G36*
G01*
X103673600Y-72850000D02*
X102826400Y-72850000D01*
G75*
G02*
X102650000Y-72673600I0J176400D01*
G01*
X102650000Y-71826400D01*
G75*
G02*
X102826400Y-71650000I176400J0D01*
G01*
X103673600Y-71650000D01*
G75*
G02*
X103850000Y-71826400I0J-176400D01*
G01*
X103850000Y-72673600D01*
G75*
G02*
X103673600Y-72850000I-176400J0D01*
G01*
G37*
G04 #@! TD.AperFunction*
X103250000Y-70750000D03*
X103250000Y-69250000D03*
G04 #@! TA.AperFunction,ComponentPad*
G36*
G01*
X198326400Y-68650000D02*
X199173600Y-68650000D01*
G75*
G02*
X199350000Y-68826400I0J-176400D01*
G01*
X199350000Y-69673600D01*
G75*
G02*
X199173600Y-69850000I-176400J0D01*
G01*
X198326400Y-69850000D01*
G75*
G02*
X198150000Y-69673600I0J176400D01*
G01*
X198150000Y-68826400D01*
G75*
G02*
X198326400Y-68650000I176400J0D01*
G01*
G37*
G04 #@! TD.AperFunction*
X198750000Y-70750000D03*
X198750000Y-72250000D03*
G04 #@! TA.AperFunction,ComponentPad*
G36*
G01*
X198326400Y-75150000D02*
X199173600Y-75150000D01*
G75*
G02*
X199350000Y-75326400I0J-176400D01*
G01*
X199350000Y-76173600D01*
G75*
G02*
X199173600Y-76350000I-176400J0D01*
G01*
X198326400Y-76350000D01*
G75*
G02*
X198150000Y-76173600I0J176400D01*
G01*
X198150000Y-75326400D01*
G75*
G02*
X198326400Y-75150000I176400J0D01*
G01*
G37*
G04 #@! TD.AperFunction*
X198750000Y-77250000D03*
X198750000Y-78750000D03*
G04 #@! TA.AperFunction,ComponentPad*
G36*
G01*
X198326400Y-81650000D02*
X199173600Y-81650000D01*
G75*
G02*
X199350000Y-81826400I0J-176400D01*
G01*
X199350000Y-82673600D01*
G75*
G02*
X199173600Y-82850000I-176400J0D01*
G01*
X198326400Y-82850000D01*
G75*
G02*
X198150000Y-82673600I0J176400D01*
G01*
X198150000Y-81826400D01*
G75*
G02*
X198326400Y-81650000I176400J0D01*
G01*
G37*
G04 #@! TD.AperFunction*
X198750000Y-83750000D03*
X198750000Y-85250000D03*
G04 #@! TA.AperFunction,ComponentPad*
G36*
G01*
X198326400Y-88150000D02*
X199173600Y-88150000D01*
G75*
G02*
X199350000Y-88326400I0J-176400D01*
G01*
X199350000Y-89173600D01*
G75*
G02*
X199173600Y-89350000I-176400J0D01*
G01*
X198326400Y-89350000D01*
G75*
G02*
X198150000Y-89173600I0J176400D01*
G01*
X198150000Y-88326400D01*
G75*
G02*
X198326400Y-88150000I176400J0D01*
G01*
G37*
G04 #@! TD.AperFunction*
X198750000Y-90250000D03*
X198750000Y-91750000D03*
G04 #@! TA.AperFunction,ComponentPad*
G36*
G01*
X201850000Y-112326400D02*
X201850000Y-113173600D01*
G75*
G02*
X201673600Y-113350000I-176400J0D01*
G01*
X200826400Y-113350000D01*
G75*
G02*
X200650000Y-113173600I0J176400D01*
G01*
X200650000Y-112326400D01*
G75*
G02*
X200826400Y-112150000I176400J0D01*
G01*
X201673600Y-112150000D01*
G75*
G02*
X201850000Y-112326400I0J-176400D01*
G01*
G37*
G04 #@! TD.AperFunction*
X199750000Y-112750000D03*
X198250000Y-112750000D03*
G04 #@! TA.AperFunction,ComponentPad*
G36*
G01*
X195350000Y-112326400D02*
X195350000Y-113173600D01*
G75*
G02*
X195173600Y-113350000I-176400J0D01*
G01*
X194326400Y-113350000D01*
G75*
G02*
X194150000Y-113173600I0J176400D01*
G01*
X194150000Y-112326400D01*
G75*
G02*
X194326400Y-112150000I176400J0D01*
G01*
X195173600Y-112150000D01*
G75*
G02*
X195350000Y-112326400I0J-176400D01*
G01*
G37*
G04 #@! TD.AperFunction*
X193250000Y-112750000D03*
X191750000Y-112750000D03*
G04 #@! TA.AperFunction,ComponentPad*
G36*
G01*
X188850000Y-112326400D02*
X188850000Y-113173600D01*
G75*
G02*
X188673600Y-113350000I-176400J0D01*
G01*
X187826400Y-113350000D01*
G75*
G02*
X187650000Y-113173600I0J176400D01*
G01*
X187650000Y-112326400D01*
G75*
G02*
X187826400Y-112150000I176400J0D01*
G01*
X188673600Y-112150000D01*
G75*
G02*
X188850000Y-112326400I0J-176400D01*
G01*
G37*
G04 #@! TD.AperFunction*
X186750000Y-112750000D03*
X185250000Y-112750000D03*
G04 #@! TA.AperFunction,ComponentPad*
G36*
G01*
X182350000Y-112326400D02*
X182350000Y-113173600D01*
G75*
G02*
X182173600Y-113350000I-176400J0D01*
G01*
X181326400Y-113350000D01*
G75*
G02*
X181150000Y-113173600I0J176400D01*
G01*
X181150000Y-112326400D01*
G75*
G02*
X181326400Y-112150000I176400J0D01*
G01*
X182173600Y-112150000D01*
G75*
G02*
X182350000Y-112326400I0J-176400D01*
G01*
G37*
G04 #@! TD.AperFunction*
X180250000Y-112750000D03*
X178750000Y-112750000D03*
G04 #@! TA.AperFunction,ComponentPad*
G36*
G01*
X175850000Y-112326400D02*
X175850000Y-113173600D01*
G75*
G02*
X175673600Y-113350000I-176400J0D01*
G01*
X174826400Y-113350000D01*
G75*
G02*
X174650000Y-113173600I0J176400D01*
G01*
X174650000Y-112326400D01*
G75*
G02*
X174826400Y-112150000I176400J0D01*
G01*
X175673600Y-112150000D01*
G75*
G02*
X175850000Y-112326400I0J-176400D01*
G01*
G37*
G04 #@! TD.AperFunction*
X173750000Y-112750000D03*
X172250000Y-112750000D03*
G04 #@! TA.AperFunction,ComponentPad*
G36*
G01*
X169350000Y-112326400D02*
X169350000Y-113173600D01*
G75*
G02*
X169173600Y-113350000I-176400J0D01*
G01*
X168326400Y-113350000D01*
G75*
G02*
X168150000Y-113173600I0J176400D01*
G01*
X168150000Y-112326400D01*
G75*
G02*
X168326400Y-112150000I176400J0D01*
G01*
X169173600Y-112150000D01*
G75*
G02*
X169350000Y-112326400I0J-176400D01*
G01*
G37*
G04 #@! TD.AperFunction*
X167250000Y-112750000D03*
X165750000Y-112750000D03*
G04 #@! TA.AperFunction,ComponentPad*
G36*
G01*
X162850000Y-112326400D02*
X162850000Y-113173600D01*
G75*
G02*
X162673600Y-113350000I-176400J0D01*
G01*
X161826400Y-113350000D01*
G75*
G02*
X161650000Y-113173600I0J176400D01*
G01*
X161650000Y-112326400D01*
G75*
G02*
X161826400Y-112150000I176400J0D01*
G01*
X162673600Y-112150000D01*
G75*
G02*
X162850000Y-112326400I0J-176400D01*
G01*
G37*
G04 #@! TD.AperFunction*
X160750000Y-112750000D03*
X159250000Y-112750000D03*
G04 #@! TA.AperFunction,ComponentPad*
G36*
G01*
X156350000Y-112326400D02*
X156350000Y-113173600D01*
G75*
G02*
X156173600Y-113350000I-176400J0D01*
G01*
X155326400Y-113350000D01*
G75*
G02*
X155150000Y-113173600I0J176400D01*
G01*
X155150000Y-112326400D01*
G75*
G02*
X155326400Y-112150000I176400J0D01*
G01*
X156173600Y-112150000D01*
G75*
G02*
X156350000Y-112326400I0J-176400D01*
G01*
G37*
G04 #@! TD.AperFunction*
X154250000Y-112750000D03*
X152750000Y-112750000D03*
G04 #@! TA.AperFunction,ComponentPad*
G36*
G01*
X149850000Y-112326400D02*
X149850000Y-113173600D01*
G75*
G02*
X149673600Y-113350000I-176400J0D01*
G01*
X148826400Y-113350000D01*
G75*
G02*
X148650000Y-113173600I0J176400D01*
G01*
X148650000Y-112326400D01*
G75*
G02*
X148826400Y-112150000I176400J0D01*
G01*
X149673600Y-112150000D01*
G75*
G02*
X149850000Y-112326400I0J-176400D01*
G01*
G37*
G04 #@! TD.AperFunction*
X147750000Y-112750000D03*
X146250000Y-112750000D03*
G04 #@! TA.AperFunction,ComponentPad*
G36*
G01*
X143350000Y-112326400D02*
X143350000Y-113173600D01*
G75*
G02*
X143173600Y-113350000I-176400J0D01*
G01*
X142326400Y-113350000D01*
G75*
G02*
X142150000Y-113173600I0J176400D01*
G01*
X142150000Y-112326400D01*
G75*
G02*
X142326400Y-112150000I176400J0D01*
G01*
X143173600Y-112150000D01*
G75*
G02*
X143350000Y-112326400I0J-176400D01*
G01*
G37*
G04 #@! TD.AperFunction*
X141250000Y-112750000D03*
X139750000Y-112750000D03*
G04 #@! TA.AperFunction,ComponentPad*
G36*
G01*
X136850000Y-112326400D02*
X136850000Y-113173600D01*
G75*
G02*
X136673600Y-113350000I-176400J0D01*
G01*
X135826400Y-113350000D01*
G75*
G02*
X135650000Y-113173600I0J176400D01*
G01*
X135650000Y-112326400D01*
G75*
G02*
X135826400Y-112150000I176400J0D01*
G01*
X136673600Y-112150000D01*
G75*
G02*
X136850000Y-112326400I0J-176400D01*
G01*
G37*
G04 #@! TD.AperFunction*
X134750000Y-112750000D03*
X133250000Y-112750000D03*
G04 #@! TA.AperFunction,ComponentPad*
G36*
G01*
X130350000Y-112326400D02*
X130350000Y-113173600D01*
G75*
G02*
X130173600Y-113350000I-176400J0D01*
G01*
X129326400Y-113350000D01*
G75*
G02*
X129150000Y-113173600I0J176400D01*
G01*
X129150000Y-112326400D01*
G75*
G02*
X129326400Y-112150000I176400J0D01*
G01*
X130173600Y-112150000D01*
G75*
G02*
X130350000Y-112326400I0J-176400D01*
G01*
G37*
G04 #@! TD.AperFunction*
X128250000Y-112750000D03*
X126750000Y-112750000D03*
G04 #@! TA.AperFunction,ComponentPad*
G36*
G01*
X123850000Y-112326400D02*
X123850000Y-113173600D01*
G75*
G02*
X123673600Y-113350000I-176400J0D01*
G01*
X122826400Y-113350000D01*
G75*
G02*
X122650000Y-113173600I0J176400D01*
G01*
X122650000Y-112326400D01*
G75*
G02*
X122826400Y-112150000I176400J0D01*
G01*
X123673600Y-112150000D01*
G75*
G02*
X123850000Y-112326400I0J-176400D01*
G01*
G37*
G04 #@! TD.AperFunction*
X121750000Y-112750000D03*
X120250000Y-112750000D03*
G04 #@! TA.AperFunction,ComponentPad*
G36*
G01*
X117350000Y-112326400D02*
X117350000Y-113173600D01*
G75*
G02*
X117173600Y-113350000I-176400J0D01*
G01*
X116326400Y-113350000D01*
G75*
G02*
X116150000Y-113173600I0J176400D01*
G01*
X116150000Y-112326400D01*
G75*
G02*
X116326400Y-112150000I176400J0D01*
G01*
X117173600Y-112150000D01*
G75*
G02*
X117350000Y-112326400I0J-176400D01*
G01*
G37*
G04 #@! TD.AperFunction*
X115250000Y-112750000D03*
X113750000Y-112750000D03*
G04 #@! TA.AperFunction,ComponentPad*
G36*
G01*
X110850000Y-112326400D02*
X110850000Y-113173600D01*
G75*
G02*
X110673600Y-113350000I-176400J0D01*
G01*
X109826400Y-113350000D01*
G75*
G02*
X109650000Y-113173600I0J176400D01*
G01*
X109650000Y-112326400D01*
G75*
G02*
X109826400Y-112150000I176400J0D01*
G01*
X110673600Y-112150000D01*
G75*
G02*
X110850000Y-112326400I0J-176400D01*
G01*
G37*
G04 #@! TD.AperFunction*
X108750000Y-112750000D03*
X107250000Y-112750000D03*
G04 #@! TA.AperFunction,ComponentPad*
G36*
G01*
X104350000Y-112326400D02*
X104350000Y-113173600D01*
G75*
G02*
X104173600Y-113350000I-176400J0D01*
G01*
X103326400Y-113350000D01*
G75*
G02*
X103150000Y-113173600I0J176400D01*
G01*
X103150000Y-112326400D01*
G75*
G02*
X103326400Y-112150000I176400J0D01*
G01*
X104173600Y-112150000D01*
G75*
G02*
X104350000Y-112326400I0J-176400D01*
G01*
G37*
G04 #@! TD.AperFunction*
X102250000Y-112750000D03*
X100750000Y-112750000D03*
D13*
X148550000Y-69350000D03*
X153550000Y-69350000D03*
X158550000Y-79350000D03*
X156050000Y-81850000D03*
X143550000Y-79350000D03*
X146050000Y-81850000D03*
X151050000Y-79350000D03*
D14*
X184750000Y-75250000D03*
X199750000Y-100250000D03*
X102000000Y-100250000D03*
X117000000Y-75250000D03*
D15*
X192500000Y-88750000D03*
X144400000Y-87000000D03*
X119750000Y-90750000D03*
X106250000Y-90000000D03*
X124875000Y-81375000D03*
X133950000Y-79750000D03*
X110750000Y-87500000D03*
X188000000Y-88750000D03*
X188000000Y-88750000D03*
X156000000Y-88750000D03*
X171050000Y-78750000D03*
X176250000Y-81250000D03*
X176250000Y-103250000D03*
X198250000Y-108250000D03*
X122000000Y-93000000D03*
X123250000Y-106500000D03*
D16*
X198750000Y-69250000D02*
X192500000Y-69250000D01*
X192500000Y-69250000D02*
X191250000Y-70500000D01*
X192500000Y-88750000D02*
X198750000Y-88750000D01*
X191250000Y-87500000D02*
X192500000Y-88750000D01*
X191500000Y-82250000D02*
X198750000Y-82250000D01*
X191250000Y-82000000D02*
X191500000Y-82250000D01*
X191250000Y-75750000D02*
X198750000Y-75750000D01*
X191250000Y-75750000D02*
X191250000Y-82000000D01*
X191250000Y-70500000D02*
X191250000Y-75750000D01*
X191250000Y-86750000D02*
X191250000Y-87500000D01*
X191250000Y-82000000D02*
X191250000Y-86750000D01*
X105650000Y-94750000D02*
X136650000Y-94750000D01*
X103250000Y-92350000D02*
X105650000Y-94750000D01*
X103250000Y-91750000D02*
X103250000Y-92350000D01*
X136650000Y-94750000D02*
X144400000Y-87000000D01*
X119750000Y-90750000D02*
X107000000Y-90750000D01*
X107000000Y-90750000D02*
X106250000Y-90000000D01*
X124875000Y-81375000D02*
X123875000Y-81375000D01*
X119750000Y-85500000D02*
X119750000Y-90750000D01*
X123875000Y-81375000D02*
X119750000Y-85500000D01*
X133950000Y-79750000D02*
X137900000Y-79750000D01*
X137900000Y-79750000D02*
X140400000Y-77250000D01*
X148950000Y-77250000D02*
X151050000Y-79350000D01*
X140400000Y-77250000D02*
X148950000Y-77250000D01*
X151050000Y-79350000D02*
X143550000Y-79350000D01*
X109500000Y-69250000D02*
X110750000Y-70500000D01*
X110750000Y-70500000D02*
X110750000Y-75750000D01*
X109500000Y-88750000D02*
X103250000Y-88750000D01*
X103250000Y-69250000D02*
X109500000Y-69250000D01*
X110500000Y-82250000D02*
X103250000Y-82250000D01*
X110750000Y-87500000D02*
X109500000Y-88750000D01*
X110750000Y-75750000D02*
X103250000Y-75750000D01*
X110750000Y-82000000D02*
X110750000Y-87500000D01*
X110750000Y-75750000D02*
X110750000Y-82000000D01*
X191000000Y-91750000D02*
X198750000Y-91750000D01*
X188000000Y-88750000D02*
X191000000Y-91750000D01*
X149100000Y-81850000D02*
X146050000Y-81850000D01*
X156000000Y-88750000D02*
X149100000Y-81850000D01*
X166000000Y-78750000D02*
X171050000Y-78750000D01*
X156000000Y-88750000D02*
X166000000Y-78750000D01*
X176250000Y-81250000D02*
X176250000Y-81957106D01*
X176250000Y-81957106D02*
X176250000Y-103250000D01*
X198250000Y-112750000D02*
X198250000Y-108250000D01*
X103750000Y-107750000D02*
X103750000Y-112750000D01*
X201250000Y-112750000D02*
X201250000Y-107250000D01*
X105000000Y-106500000D02*
X103750000Y-107750000D01*
X201250000Y-107250000D02*
X200500000Y-106500000D01*
X110250000Y-106500000D02*
X105000000Y-106500000D01*
X110250000Y-106500000D02*
X110250000Y-112750000D01*
X116750000Y-106750000D02*
X116750000Y-112750000D01*
X116500000Y-106500000D02*
X110250000Y-106500000D01*
X116500000Y-106500000D02*
X116750000Y-106750000D01*
X123250000Y-106500000D02*
X116500000Y-106500000D01*
X123250000Y-106500000D02*
X123250000Y-112750000D01*
X129750000Y-106500000D02*
X129750000Y-112750000D01*
X129750000Y-106500000D02*
X123250000Y-106500000D01*
X136250000Y-106500000D02*
X136250000Y-112750000D01*
X136250000Y-106500000D02*
X129750000Y-106500000D01*
X142750000Y-106500000D02*
X142750000Y-112750000D01*
X142750000Y-106500000D02*
X136250000Y-106500000D01*
X149250000Y-106500000D02*
X149250000Y-112750000D01*
X149250000Y-106500000D02*
X142750000Y-106500000D01*
X155750000Y-106500000D02*
X155750000Y-112750000D01*
X155750000Y-106500000D02*
X149250000Y-106500000D01*
X162250000Y-106750000D02*
X162250000Y-112750000D01*
X162500000Y-106500000D02*
X162250000Y-106750000D01*
X162500000Y-106500000D02*
X155750000Y-106500000D01*
X168750000Y-106750000D02*
X168750000Y-112750000D01*
X168500000Y-106500000D02*
X168750000Y-106750000D01*
X168500000Y-106500000D02*
X162500000Y-106500000D01*
X175250000Y-106500000D02*
X175250000Y-112750000D01*
X175250000Y-106500000D02*
X168500000Y-106500000D01*
X181750000Y-106500000D02*
X181750000Y-112750000D01*
X181750000Y-106500000D02*
X175250000Y-106500000D01*
X188250000Y-106500000D02*
X181750000Y-106500000D01*
X188250000Y-106500000D02*
X188250000Y-112750000D01*
X194750000Y-107000000D02*
X194750000Y-112750000D01*
X200500000Y-106500000D02*
X194250000Y-106500000D01*
X194250000Y-106500000D02*
X189750000Y-106500000D01*
X189750000Y-106500000D02*
X188250000Y-106500000D01*
X122000000Y-89052930D02*
X122000000Y-93000000D01*
X128250000Y-75500000D02*
X128250000Y-82802930D01*
X128250000Y-82802930D02*
X122000000Y-89052930D01*
M02*
