G04 #@! TF.GenerationSoftware,KiCad,Pcbnew,(5.1.6-0-10_14)*
G04 #@! TF.CreationDate,2020-08-03T23:57:46+09:00*
G04 #@! TF.ProjectId,teabiscuits_power,74656162-6973-4637-9569-74735f706f77,rev?*
G04 #@! TF.SameCoordinates,Original*
G04 #@! TF.FileFunction,Paste,Top*
G04 #@! TF.FilePolarity,Positive*
%FSLAX46Y46*%
G04 Gerber Fmt 4.6, Leading zero omitted, Abs format (unit mm)*
G04 Created by KiCad (PCBNEW (5.1.6-0-10_14)) date 2020-08-03 23:57:46*
%MOMM*%
%LPD*%
G01*
G04 APERTURE LIST*
G04 APERTURE END LIST*
G36*
G01*
X124300000Y-70043750D02*
X124300000Y-70956250D01*
G75*
G02*
X124056250Y-71200000I-243750J0D01*
G01*
X123568750Y-71200000D01*
G75*
G02*
X123325000Y-70956250I0J243750D01*
G01*
X123325000Y-70043750D01*
G75*
G02*
X123568750Y-69800000I243750J0D01*
G01*
X124056250Y-69800000D01*
G75*
G02*
X124300000Y-70043750I0J-243750D01*
G01*
G37*
G36*
G01*
X126175000Y-70043750D02*
X126175000Y-70956250D01*
G75*
G02*
X125931250Y-71200000I-243750J0D01*
G01*
X125443750Y-71200000D01*
G75*
G02*
X125200000Y-70956250I0J243750D01*
G01*
X125200000Y-70043750D01*
G75*
G02*
X125443750Y-69800000I243750J0D01*
G01*
X125931250Y-69800000D01*
G75*
G02*
X126175000Y-70043750I0J-243750D01*
G01*
G37*
G36*
G01*
X127737500Y-70043750D02*
X127737500Y-70956250D01*
G75*
G02*
X127493750Y-71200000I-243750J0D01*
G01*
X127006250Y-71200000D01*
G75*
G02*
X126762500Y-70956250I0J243750D01*
G01*
X126762500Y-70043750D01*
G75*
G02*
X127006250Y-69800000I243750J0D01*
G01*
X127493750Y-69800000D01*
G75*
G02*
X127737500Y-70043750I0J-243750D01*
G01*
G37*
G36*
G01*
X129612500Y-70043750D02*
X129612500Y-70956250D01*
G75*
G02*
X129368750Y-71200000I-243750J0D01*
G01*
X128881250Y-71200000D01*
G75*
G02*
X128637500Y-70956250I0J243750D01*
G01*
X128637500Y-70043750D01*
G75*
G02*
X128881250Y-69800000I243750J0D01*
G01*
X129368750Y-69800000D01*
G75*
G02*
X129612500Y-70043750I0J-243750D01*
G01*
G37*
G36*
G01*
X174387500Y-70956250D02*
X174387500Y-70043750D01*
G75*
G02*
X174631250Y-69800000I243750J0D01*
G01*
X175118750Y-69800000D01*
G75*
G02*
X175362500Y-70043750I0J-243750D01*
G01*
X175362500Y-70956250D01*
G75*
G02*
X175118750Y-71200000I-243750J0D01*
G01*
X174631250Y-71200000D01*
G75*
G02*
X174387500Y-70956250I0J243750D01*
G01*
G37*
G36*
G01*
X172512500Y-70956250D02*
X172512500Y-70043750D01*
G75*
G02*
X172756250Y-69800000I243750J0D01*
G01*
X173243750Y-69800000D01*
G75*
G02*
X173487500Y-70043750I0J-243750D01*
G01*
X173487500Y-70956250D01*
G75*
G02*
X173243750Y-71200000I-243750J0D01*
G01*
X172756250Y-71200000D01*
G75*
G02*
X172512500Y-70956250I0J243750D01*
G01*
G37*
G36*
G01*
X170887500Y-70956250D02*
X170887500Y-70043750D01*
G75*
G02*
X171131250Y-69800000I243750J0D01*
G01*
X171618750Y-69800000D01*
G75*
G02*
X171862500Y-70043750I0J-243750D01*
G01*
X171862500Y-70956250D01*
G75*
G02*
X171618750Y-71200000I-243750J0D01*
G01*
X171131250Y-71200000D01*
G75*
G02*
X170887500Y-70956250I0J243750D01*
G01*
G37*
G36*
G01*
X169012500Y-70956250D02*
X169012500Y-70043750D01*
G75*
G02*
X169256250Y-69800000I243750J0D01*
G01*
X169743750Y-69800000D01*
G75*
G02*
X169987500Y-70043750I0J-243750D01*
G01*
X169987500Y-70956250D01*
G75*
G02*
X169743750Y-71200000I-243750J0D01*
G01*
X169256250Y-71200000D01*
G75*
G02*
X169012500Y-70956250I0J243750D01*
G01*
G37*
G36*
G01*
X127793750Y-80887500D02*
X128706250Y-80887500D01*
G75*
G02*
X128950000Y-81131250I0J-243750D01*
G01*
X128950000Y-81618750D01*
G75*
G02*
X128706250Y-81862500I-243750J0D01*
G01*
X127793750Y-81862500D01*
G75*
G02*
X127550000Y-81618750I0J243750D01*
G01*
X127550000Y-81131250D01*
G75*
G02*
X127793750Y-80887500I243750J0D01*
G01*
G37*
G36*
G01*
X127793750Y-79012500D02*
X128706250Y-79012500D01*
G75*
G02*
X128950000Y-79256250I0J-243750D01*
G01*
X128950000Y-79743750D01*
G75*
G02*
X128706250Y-79987500I-243750J0D01*
G01*
X127793750Y-79987500D01*
G75*
G02*
X127550000Y-79743750I0J243750D01*
G01*
X127550000Y-79256250D01*
G75*
G02*
X127793750Y-79012500I243750J0D01*
G01*
G37*
G36*
G01*
X132262500Y-80206250D02*
X132262500Y-79293750D01*
G75*
G02*
X132506250Y-79050000I243750J0D01*
G01*
X132993750Y-79050000D01*
G75*
G02*
X133237500Y-79293750I0J-243750D01*
G01*
X133237500Y-80206250D01*
G75*
G02*
X132993750Y-80450000I-243750J0D01*
G01*
X132506250Y-80450000D01*
G75*
G02*
X132262500Y-80206250I0J243750D01*
G01*
G37*
G36*
G01*
X130387500Y-80206250D02*
X130387500Y-79293750D01*
G75*
G02*
X130631250Y-79050000I243750J0D01*
G01*
X131118750Y-79050000D01*
G75*
G02*
X131362500Y-79293750I0J-243750D01*
G01*
X131362500Y-80206250D01*
G75*
G02*
X131118750Y-80450000I-243750J0D01*
G01*
X130631250Y-80450000D01*
G75*
G02*
X130387500Y-80206250I0J243750D01*
G01*
G37*
G36*
G01*
X177700000Y-79706250D02*
X177700000Y-78793750D01*
G75*
G02*
X177943750Y-78550000I243750J0D01*
G01*
X178431250Y-78550000D01*
G75*
G02*
X178675000Y-78793750I0J-243750D01*
G01*
X178675000Y-79706250D01*
G75*
G02*
X178431250Y-79950000I-243750J0D01*
G01*
X177943750Y-79950000D01*
G75*
G02*
X177700000Y-79706250I0J243750D01*
G01*
G37*
G36*
G01*
X175825000Y-79706250D02*
X175825000Y-78793750D01*
G75*
G02*
X176068750Y-78550000I243750J0D01*
G01*
X176556250Y-78550000D01*
G75*
G02*
X176800000Y-78793750I0J-243750D01*
G01*
X176800000Y-79706250D01*
G75*
G02*
X176556250Y-79950000I-243750J0D01*
G01*
X176068750Y-79950000D01*
G75*
G02*
X175825000Y-79706250I0J243750D01*
G01*
G37*
G36*
G01*
X173293750Y-80637500D02*
X174206250Y-80637500D01*
G75*
G02*
X174450000Y-80881250I0J-243750D01*
G01*
X174450000Y-81368750D01*
G75*
G02*
X174206250Y-81612500I-243750J0D01*
G01*
X173293750Y-81612500D01*
G75*
G02*
X173050000Y-81368750I0J243750D01*
G01*
X173050000Y-80881250D01*
G75*
G02*
X173293750Y-80637500I243750J0D01*
G01*
G37*
G36*
G01*
X173293750Y-78762500D02*
X174206250Y-78762500D01*
G75*
G02*
X174450000Y-79006250I0J-243750D01*
G01*
X174450000Y-79493750D01*
G75*
G02*
X174206250Y-79737500I-243750J0D01*
G01*
X173293750Y-79737500D01*
G75*
G02*
X173050000Y-79493750I0J243750D01*
G01*
X173050000Y-79006250D01*
G75*
G02*
X173293750Y-78762500I243750J0D01*
G01*
G37*
M02*
