G04 #@! TF.GenerationSoftware,KiCad,Pcbnew,(5.1.6-0-10_14)*
G04 #@! TF.CreationDate,2020-08-03T23:57:47+09:00*
G04 #@! TF.ProjectId,teabiscuits_power,74656162-6973-4637-9569-74735f706f77,rev?*
G04 #@! TF.SameCoordinates,Original*
G04 #@! TF.FileFunction,Legend,Top*
G04 #@! TF.FilePolarity,Positive*
%FSLAX46Y46*%
G04 Gerber Fmt 4.6, Leading zero omitted, Abs format (unit mm)*
G04 Created by KiCad (PCBNEW (5.1.6-0-10_14)) date 2020-08-03 23:57:47*
%MOMM*%
%LPD*%
G01*
G04 APERTURE LIST*
%ADD10C,0.300000*%
%ADD11C,0.120000*%
%ADD12C,0.127000*%
%ADD13C,0.200000*%
%ADD14C,0.150000*%
%ADD15C,0.015000*%
G04 APERTURE END LIST*
D10*
X141821428Y-92428571D02*
X142678571Y-92428571D01*
X142250000Y-93928571D02*
X142250000Y-92428571D01*
X143750000Y-93857142D02*
X143607142Y-93928571D01*
X143321428Y-93928571D01*
X143178571Y-93857142D01*
X143107142Y-93714285D01*
X143107142Y-93142857D01*
X143178571Y-93000000D01*
X143321428Y-92928571D01*
X143607142Y-92928571D01*
X143750000Y-93000000D01*
X143821428Y-93142857D01*
X143821428Y-93285714D01*
X143107142Y-93428571D01*
X145107142Y-93928571D02*
X145107142Y-93142857D01*
X145035714Y-93000000D01*
X144892857Y-92928571D01*
X144607142Y-92928571D01*
X144464285Y-93000000D01*
X145107142Y-93857142D02*
X144964285Y-93928571D01*
X144607142Y-93928571D01*
X144464285Y-93857142D01*
X144392857Y-93714285D01*
X144392857Y-93571428D01*
X144464285Y-93428571D01*
X144607142Y-93357142D01*
X144964285Y-93357142D01*
X145107142Y-93285714D01*
X145821428Y-93928571D02*
X145821428Y-92428571D01*
X145821428Y-93000000D02*
X145964285Y-92928571D01*
X146250000Y-92928571D01*
X146392857Y-93000000D01*
X146464285Y-93071428D01*
X146535714Y-93214285D01*
X146535714Y-93642857D01*
X146464285Y-93785714D01*
X146392857Y-93857142D01*
X146250000Y-93928571D01*
X145964285Y-93928571D01*
X145821428Y-93857142D01*
X147178571Y-93928571D02*
X147178571Y-92928571D01*
X147178571Y-92428571D02*
X147107142Y-92500000D01*
X147178571Y-92571428D01*
X147250000Y-92500000D01*
X147178571Y-92428571D01*
X147178571Y-92571428D01*
X147821428Y-93857142D02*
X147964285Y-93928571D01*
X148250000Y-93928571D01*
X148392857Y-93857142D01*
X148464285Y-93714285D01*
X148464285Y-93642857D01*
X148392857Y-93500000D01*
X148250000Y-93428571D01*
X148035714Y-93428571D01*
X147892857Y-93357142D01*
X147821428Y-93214285D01*
X147821428Y-93142857D01*
X147892857Y-93000000D01*
X148035714Y-92928571D01*
X148250000Y-92928571D01*
X148392857Y-93000000D01*
X149750000Y-93857142D02*
X149607142Y-93928571D01*
X149321428Y-93928571D01*
X149178571Y-93857142D01*
X149107142Y-93785714D01*
X149035714Y-93642857D01*
X149035714Y-93214285D01*
X149107142Y-93071428D01*
X149178571Y-93000000D01*
X149321428Y-92928571D01*
X149607142Y-92928571D01*
X149750000Y-93000000D01*
X151035714Y-92928571D02*
X151035714Y-93928571D01*
X150392857Y-92928571D02*
X150392857Y-93714285D01*
X150464285Y-93857142D01*
X150607142Y-93928571D01*
X150821428Y-93928571D01*
X150964285Y-93857142D01*
X151035714Y-93785714D01*
X151750000Y-93928571D02*
X151750000Y-92928571D01*
X151750000Y-92428571D02*
X151678571Y-92500000D01*
X151750000Y-92571428D01*
X151821428Y-92500000D01*
X151750000Y-92428571D01*
X151750000Y-92571428D01*
X152250000Y-92928571D02*
X152821428Y-92928571D01*
X152464285Y-92428571D02*
X152464285Y-93714285D01*
X152535714Y-93857142D01*
X152678571Y-93928571D01*
X152821428Y-93928571D01*
X153250000Y-93857142D02*
X153392857Y-93928571D01*
X153678571Y-93928571D01*
X153821428Y-93857142D01*
X153892857Y-93714285D01*
X153892857Y-93642857D01*
X153821428Y-93500000D01*
X153678571Y-93428571D01*
X153464285Y-93428571D01*
X153321428Y-93357142D01*
X153250000Y-93214285D01*
X153250000Y-93142857D01*
X153321428Y-93000000D01*
X153464285Y-92928571D01*
X153678571Y-92928571D01*
X153821428Y-93000000D01*
X155678571Y-93928571D02*
X155678571Y-92428571D01*
X156250000Y-92428571D01*
X156392857Y-92500000D01*
X156464285Y-92571428D01*
X156535714Y-92714285D01*
X156535714Y-92928571D01*
X156464285Y-93071428D01*
X156392857Y-93142857D01*
X156250000Y-93214285D01*
X155678571Y-93214285D01*
X157035714Y-92928571D02*
X157321428Y-93928571D01*
X157607142Y-93214285D01*
X157892857Y-93928571D01*
X158178571Y-92928571D01*
X158750000Y-93928571D02*
X158750000Y-92928571D01*
X158750000Y-93214285D02*
X158821428Y-93071428D01*
X158892857Y-93000000D01*
X159035714Y-92928571D01*
X159178571Y-92928571D01*
X160821428Y-93928571D02*
X160821428Y-92928571D01*
X160821428Y-93214285D02*
X160892857Y-93071428D01*
X160964285Y-93000000D01*
X161107142Y-92928571D01*
X161250000Y-92928571D01*
X161678571Y-92571428D02*
X161750000Y-92500000D01*
X161892857Y-92428571D01*
X162250000Y-92428571D01*
X162392857Y-92500000D01*
X162464285Y-92571428D01*
X162535714Y-92714285D01*
X162535714Y-92857142D01*
X162464285Y-93071428D01*
X161607142Y-93928571D01*
X162535714Y-93928571D01*
D11*
X123130000Y-72230000D02*
X133370000Y-72230000D01*
X123130000Y-76871000D02*
X133370000Y-76871000D01*
X123130000Y-72230000D02*
X123130000Y-76871000D01*
X133370000Y-72230000D02*
X133370000Y-76871000D01*
X123130000Y-73740000D02*
X133370000Y-73740000D01*
X126400000Y-72230000D02*
X126400000Y-73740000D01*
X130101000Y-72230000D02*
X130101000Y-73740000D01*
X168670000Y-72230000D02*
X178910000Y-72230000D01*
X168670000Y-76871000D02*
X178910000Y-76871000D01*
X168670000Y-72230000D02*
X168670000Y-76871000D01*
X178910000Y-72230000D02*
X178910000Y-76871000D01*
X168670000Y-73740000D02*
X178910000Y-73740000D01*
X171940000Y-72230000D02*
X171940000Y-73740000D01*
X175641000Y-72230000D02*
X175641000Y-73740000D01*
X125008578Y-71210000D02*
X124491422Y-71210000D01*
X125008578Y-69790000D02*
X124491422Y-69790000D01*
X128446078Y-71210000D02*
X127928922Y-71210000D01*
X128446078Y-69790000D02*
X127928922Y-69790000D01*
X173678922Y-69790000D02*
X174196078Y-69790000D01*
X173678922Y-71210000D02*
X174196078Y-71210000D01*
X170178922Y-69790000D02*
X170696078Y-69790000D01*
X170178922Y-71210000D02*
X170696078Y-71210000D01*
X128960000Y-80178922D02*
X128960000Y-80696078D01*
X127540000Y-80178922D02*
X127540000Y-80696078D01*
X131553922Y-79040000D02*
X132071078Y-79040000D01*
X131553922Y-80460000D02*
X132071078Y-80460000D01*
X176991422Y-78540000D02*
X177508578Y-78540000D01*
X176991422Y-79960000D02*
X177508578Y-79960000D01*
X174460000Y-79928922D02*
X174460000Y-80446078D01*
X173040000Y-79928922D02*
X173040000Y-80446078D01*
X105350000Y-91450000D02*
X104750000Y-91750000D01*
X105350000Y-92050000D02*
X105350000Y-91450000D01*
X104750000Y-91750000D02*
X105350000Y-92050000D01*
X104250000Y-93250000D02*
X104250000Y-87250000D01*
X104250000Y-87250000D02*
X99250000Y-87250000D01*
X99250000Y-87250000D02*
X99250000Y-93250000D01*
X99250000Y-93250000D02*
X104250000Y-93250000D01*
X105350000Y-84950000D02*
X104750000Y-85250000D01*
X105350000Y-85550000D02*
X105350000Y-84950000D01*
X104750000Y-85250000D02*
X105350000Y-85550000D01*
X104250000Y-86750000D02*
X104250000Y-80750000D01*
X104250000Y-80750000D02*
X99250000Y-80750000D01*
X99250000Y-80750000D02*
X99250000Y-86750000D01*
X99250000Y-86750000D02*
X104250000Y-86750000D01*
X105350000Y-78450000D02*
X104750000Y-78750000D01*
X105350000Y-79050000D02*
X105350000Y-78450000D01*
X104750000Y-78750000D02*
X105350000Y-79050000D01*
X104250000Y-80250000D02*
X104250000Y-74250000D01*
X104250000Y-74250000D02*
X99250000Y-74250000D01*
X99250000Y-74250000D02*
X99250000Y-80250000D01*
X99250000Y-80250000D02*
X104250000Y-80250000D01*
X105350000Y-71950000D02*
X104750000Y-72250000D01*
X105350000Y-72550000D02*
X105350000Y-71950000D01*
X104750000Y-72250000D02*
X105350000Y-72550000D01*
X104250000Y-73750000D02*
X104250000Y-67750000D01*
X104250000Y-67750000D02*
X99250000Y-67750000D01*
X99250000Y-67750000D02*
X99250000Y-73750000D01*
X99250000Y-73750000D02*
X104250000Y-73750000D01*
X196650000Y-69550000D02*
X197250000Y-69250000D01*
X196650000Y-68950000D02*
X196650000Y-69550000D01*
X197250000Y-69250000D02*
X196650000Y-68950000D01*
X197750000Y-67750000D02*
X197750000Y-73750000D01*
X197750000Y-73750000D02*
X202750000Y-73750000D01*
X202750000Y-73750000D02*
X202750000Y-67750000D01*
X202750000Y-67750000D02*
X197750000Y-67750000D01*
X196650000Y-76050000D02*
X197250000Y-75750000D01*
X196650000Y-75450000D02*
X196650000Y-76050000D01*
X197250000Y-75750000D02*
X196650000Y-75450000D01*
X197750000Y-74250000D02*
X197750000Y-80250000D01*
X197750000Y-80250000D02*
X202750000Y-80250000D01*
X202750000Y-80250000D02*
X202750000Y-74250000D01*
X202750000Y-74250000D02*
X197750000Y-74250000D01*
X196650000Y-82550000D02*
X197250000Y-82250000D01*
X196650000Y-81950000D02*
X196650000Y-82550000D01*
X197250000Y-82250000D02*
X196650000Y-81950000D01*
X197750000Y-80750000D02*
X197750000Y-86750000D01*
X197750000Y-86750000D02*
X202750000Y-86750000D01*
X202750000Y-86750000D02*
X202750000Y-80750000D01*
X202750000Y-80750000D02*
X197750000Y-80750000D01*
X196650000Y-89050000D02*
X197250000Y-88750000D01*
X196650000Y-88450000D02*
X196650000Y-89050000D01*
X197250000Y-88750000D02*
X196650000Y-88450000D01*
X197750000Y-87250000D02*
X197750000Y-93250000D01*
X197750000Y-93250000D02*
X202750000Y-93250000D01*
X202750000Y-93250000D02*
X202750000Y-87250000D01*
X202750000Y-87250000D02*
X197750000Y-87250000D01*
X200950000Y-110650000D02*
X201250000Y-111250000D01*
X201550000Y-110650000D02*
X200950000Y-110650000D01*
X201250000Y-111250000D02*
X201550000Y-110650000D01*
X202750000Y-111750000D02*
X196750000Y-111750000D01*
X196750000Y-111750000D02*
X196750000Y-116750000D01*
X196750000Y-116750000D02*
X202750000Y-116750000D01*
X202750000Y-116750000D02*
X202750000Y-111750000D01*
X194450000Y-110650000D02*
X194750000Y-111250000D01*
X195050000Y-110650000D02*
X194450000Y-110650000D01*
X194750000Y-111250000D02*
X195050000Y-110650000D01*
X196250000Y-111750000D02*
X190250000Y-111750000D01*
X190250000Y-111750000D02*
X190250000Y-116750000D01*
X190250000Y-116750000D02*
X196250000Y-116750000D01*
X196250000Y-116750000D02*
X196250000Y-111750000D01*
X187950000Y-110650000D02*
X188250000Y-111250000D01*
X188550000Y-110650000D02*
X187950000Y-110650000D01*
X188250000Y-111250000D02*
X188550000Y-110650000D01*
X189750000Y-111750000D02*
X183750000Y-111750000D01*
X183750000Y-111750000D02*
X183750000Y-116750000D01*
X183750000Y-116750000D02*
X189750000Y-116750000D01*
X189750000Y-116750000D02*
X189750000Y-111750000D01*
X181450000Y-110650000D02*
X181750000Y-111250000D01*
X182050000Y-110650000D02*
X181450000Y-110650000D01*
X181750000Y-111250000D02*
X182050000Y-110650000D01*
X183250000Y-111750000D02*
X177250000Y-111750000D01*
X177250000Y-111750000D02*
X177250000Y-116750000D01*
X177250000Y-116750000D02*
X183250000Y-116750000D01*
X183250000Y-116750000D02*
X183250000Y-111750000D01*
X174950000Y-110650000D02*
X175250000Y-111250000D01*
X175550000Y-110650000D02*
X174950000Y-110650000D01*
X175250000Y-111250000D02*
X175550000Y-110650000D01*
X176750000Y-111750000D02*
X170750000Y-111750000D01*
X170750000Y-111750000D02*
X170750000Y-116750000D01*
X170750000Y-116750000D02*
X176750000Y-116750000D01*
X176750000Y-116750000D02*
X176750000Y-111750000D01*
X168450000Y-110650000D02*
X168750000Y-111250000D01*
X169050000Y-110650000D02*
X168450000Y-110650000D01*
X168750000Y-111250000D02*
X169050000Y-110650000D01*
X170250000Y-111750000D02*
X164250000Y-111750000D01*
X164250000Y-111750000D02*
X164250000Y-116750000D01*
X164250000Y-116750000D02*
X170250000Y-116750000D01*
X170250000Y-116750000D02*
X170250000Y-111750000D01*
X161950000Y-110650000D02*
X162250000Y-111250000D01*
X162550000Y-110650000D02*
X161950000Y-110650000D01*
X162250000Y-111250000D02*
X162550000Y-110650000D01*
X163750000Y-111750000D02*
X157750000Y-111750000D01*
X157750000Y-111750000D02*
X157750000Y-116750000D01*
X157750000Y-116750000D02*
X163750000Y-116750000D01*
X163750000Y-116750000D02*
X163750000Y-111750000D01*
X155450000Y-110650000D02*
X155750000Y-111250000D01*
X156050000Y-110650000D02*
X155450000Y-110650000D01*
X155750000Y-111250000D02*
X156050000Y-110650000D01*
X157250000Y-111750000D02*
X151250000Y-111750000D01*
X151250000Y-111750000D02*
X151250000Y-116750000D01*
X151250000Y-116750000D02*
X157250000Y-116750000D01*
X157250000Y-116750000D02*
X157250000Y-111750000D01*
X148950000Y-110650000D02*
X149250000Y-111250000D01*
X149550000Y-110650000D02*
X148950000Y-110650000D01*
X149250000Y-111250000D02*
X149550000Y-110650000D01*
X150750000Y-111750000D02*
X144750000Y-111750000D01*
X144750000Y-111750000D02*
X144750000Y-116750000D01*
X144750000Y-116750000D02*
X150750000Y-116750000D01*
X150750000Y-116750000D02*
X150750000Y-111750000D01*
X142450000Y-110650000D02*
X142750000Y-111250000D01*
X143050000Y-110650000D02*
X142450000Y-110650000D01*
X142750000Y-111250000D02*
X143050000Y-110650000D01*
X144250000Y-111750000D02*
X138250000Y-111750000D01*
X138250000Y-111750000D02*
X138250000Y-116750000D01*
X138250000Y-116750000D02*
X144250000Y-116750000D01*
X144250000Y-116750000D02*
X144250000Y-111750000D01*
X135950000Y-110650000D02*
X136250000Y-111250000D01*
X136550000Y-110650000D02*
X135950000Y-110650000D01*
X136250000Y-111250000D02*
X136550000Y-110650000D01*
X137750000Y-111750000D02*
X131750000Y-111750000D01*
X131750000Y-111750000D02*
X131750000Y-116750000D01*
X131750000Y-116750000D02*
X137750000Y-116750000D01*
X137750000Y-116750000D02*
X137750000Y-111750000D01*
X129450000Y-110650000D02*
X129750000Y-111250000D01*
X130050000Y-110650000D02*
X129450000Y-110650000D01*
X129750000Y-111250000D02*
X130050000Y-110650000D01*
X131250000Y-111750000D02*
X125250000Y-111750000D01*
X125250000Y-111750000D02*
X125250000Y-116750000D01*
X125250000Y-116750000D02*
X131250000Y-116750000D01*
X131250000Y-116750000D02*
X131250000Y-111750000D01*
X122950000Y-110650000D02*
X123250000Y-111250000D01*
X123550000Y-110650000D02*
X122950000Y-110650000D01*
X123250000Y-111250000D02*
X123550000Y-110650000D01*
X124750000Y-111750000D02*
X118750000Y-111750000D01*
X118750000Y-111750000D02*
X118750000Y-116750000D01*
X118750000Y-116750000D02*
X124750000Y-116750000D01*
X124750000Y-116750000D02*
X124750000Y-111750000D01*
X116450000Y-110650000D02*
X116750000Y-111250000D01*
X117050000Y-110650000D02*
X116450000Y-110650000D01*
X116750000Y-111250000D02*
X117050000Y-110650000D01*
X118250000Y-111750000D02*
X112250000Y-111750000D01*
X112250000Y-111750000D02*
X112250000Y-116750000D01*
X112250000Y-116750000D02*
X118250000Y-116750000D01*
X118250000Y-116750000D02*
X118250000Y-111750000D01*
X109950000Y-110650000D02*
X110250000Y-111250000D01*
X110550000Y-110650000D02*
X109950000Y-110650000D01*
X110250000Y-111250000D02*
X110550000Y-110650000D01*
X111750000Y-111750000D02*
X105750000Y-111750000D01*
X105750000Y-111750000D02*
X105750000Y-116750000D01*
X105750000Y-116750000D02*
X111750000Y-116750000D01*
X111750000Y-116750000D02*
X111750000Y-111750000D01*
X103450000Y-110650000D02*
X103750000Y-111250000D01*
X104050000Y-110650000D02*
X103450000Y-110650000D01*
X103750000Y-111250000D02*
X104050000Y-110650000D01*
X105250000Y-111750000D02*
X99250000Y-111750000D01*
X99250000Y-111750000D02*
X99250000Y-116750000D01*
X99250000Y-116750000D02*
X105250000Y-116750000D01*
X105250000Y-116750000D02*
X105250000Y-111750000D01*
D12*
X161050000Y-79350000D02*
X161050000Y-66850000D01*
X161050000Y-66850000D02*
X141050000Y-66850000D01*
X141050000Y-66850000D02*
X141050000Y-79350000D01*
D13*
X140250000Y-79750000D02*
G75*
G03*
X140250000Y-79750000I-100000J0D01*
G01*
D12*
X161050000Y-79350000D02*
X159750000Y-79350000D01*
X157350000Y-79350000D02*
X152250000Y-79350000D01*
X149850000Y-79350000D02*
X144750000Y-79350000D01*
X141050000Y-79350000D02*
X142350000Y-79350000D01*
D14*
X127488095Y-70682380D02*
X127488095Y-71491904D01*
X127535714Y-71587142D01*
X127583333Y-71634761D01*
X127678571Y-71682380D01*
X127869047Y-71682380D01*
X127964285Y-71634761D01*
X128011904Y-71587142D01*
X128059523Y-71491904D01*
X128059523Y-70682380D01*
X128488095Y-70777619D02*
X128535714Y-70730000D01*
X128630952Y-70682380D01*
X128869047Y-70682380D01*
X128964285Y-70730000D01*
X129011904Y-70777619D01*
X129059523Y-70872857D01*
X129059523Y-70968095D01*
X129011904Y-71110952D01*
X128440476Y-71682380D01*
X129059523Y-71682380D01*
X173028095Y-70682380D02*
X173028095Y-71491904D01*
X173075714Y-71587142D01*
X173123333Y-71634761D01*
X173218571Y-71682380D01*
X173409047Y-71682380D01*
X173504285Y-71634761D01*
X173551904Y-71587142D01*
X173599523Y-71491904D01*
X173599523Y-70682380D01*
X174599523Y-71682380D02*
X174028095Y-71682380D01*
X174313809Y-71682380D02*
X174313809Y-70682380D01*
X174218571Y-70825238D01*
X174123333Y-70920476D01*
X174028095Y-70968095D01*
X124833333Y-68952380D02*
X124500000Y-68476190D01*
X124261904Y-68952380D02*
X124261904Y-67952380D01*
X124642857Y-67952380D01*
X124738095Y-68000000D01*
X124785714Y-68047619D01*
X124833333Y-68142857D01*
X124833333Y-68285714D01*
X124785714Y-68380952D01*
X124738095Y-68428571D01*
X124642857Y-68476190D01*
X124261904Y-68476190D01*
X125690476Y-68285714D02*
X125690476Y-68952380D01*
X125452380Y-67904761D02*
X125214285Y-68619047D01*
X125833333Y-68619047D01*
X128083333Y-68952380D02*
X127750000Y-68476190D01*
X127511904Y-68952380D02*
X127511904Y-67952380D01*
X127892857Y-67952380D01*
X127988095Y-68000000D01*
X128035714Y-68047619D01*
X128083333Y-68142857D01*
X128083333Y-68285714D01*
X128035714Y-68380952D01*
X127988095Y-68428571D01*
X127892857Y-68476190D01*
X127511904Y-68476190D01*
X128416666Y-67952380D02*
X129035714Y-67952380D01*
X128702380Y-68333333D01*
X128845238Y-68333333D01*
X128940476Y-68380952D01*
X128988095Y-68428571D01*
X129035714Y-68523809D01*
X129035714Y-68761904D01*
X128988095Y-68857142D01*
X128940476Y-68904761D01*
X128845238Y-68952380D01*
X128559523Y-68952380D01*
X128464285Y-68904761D01*
X128416666Y-68857142D01*
X173770833Y-69302380D02*
X173437500Y-68826190D01*
X173199404Y-69302380D02*
X173199404Y-68302380D01*
X173580357Y-68302380D01*
X173675595Y-68350000D01*
X173723214Y-68397619D01*
X173770833Y-68492857D01*
X173770833Y-68635714D01*
X173723214Y-68730952D01*
X173675595Y-68778571D01*
X173580357Y-68826190D01*
X173199404Y-68826190D01*
X174151785Y-68397619D02*
X174199404Y-68350000D01*
X174294642Y-68302380D01*
X174532738Y-68302380D01*
X174627976Y-68350000D01*
X174675595Y-68397619D01*
X174723214Y-68492857D01*
X174723214Y-68588095D01*
X174675595Y-68730952D01*
X174104166Y-69302380D01*
X174723214Y-69302380D01*
X170270833Y-69302380D02*
X169937500Y-68826190D01*
X169699404Y-69302380D02*
X169699404Y-68302380D01*
X170080357Y-68302380D01*
X170175595Y-68350000D01*
X170223214Y-68397619D01*
X170270833Y-68492857D01*
X170270833Y-68635714D01*
X170223214Y-68730952D01*
X170175595Y-68778571D01*
X170080357Y-68826190D01*
X169699404Y-68826190D01*
X171223214Y-69302380D02*
X170651785Y-69302380D01*
X170937500Y-69302380D02*
X170937500Y-68302380D01*
X170842261Y-68445238D01*
X170747023Y-68540476D01*
X170651785Y-68588095D01*
X125833333Y-80107142D02*
X125785714Y-80154761D01*
X125642857Y-80202380D01*
X125547619Y-80202380D01*
X125404761Y-80154761D01*
X125309523Y-80059523D01*
X125261904Y-79964285D01*
X125214285Y-79773809D01*
X125214285Y-79630952D01*
X125261904Y-79440476D01*
X125309523Y-79345238D01*
X125404761Y-79250000D01*
X125547619Y-79202380D01*
X125642857Y-79202380D01*
X125785714Y-79250000D01*
X125833333Y-79297619D01*
X126690476Y-79535714D02*
X126690476Y-80202380D01*
X126452380Y-79154761D02*
X126214285Y-79869047D01*
X126833333Y-79869047D01*
X134583333Y-80107142D02*
X134535714Y-80154761D01*
X134392857Y-80202380D01*
X134297619Y-80202380D01*
X134154761Y-80154761D01*
X134059523Y-80059523D01*
X134011904Y-79964285D01*
X133964285Y-79773809D01*
X133964285Y-79630952D01*
X134011904Y-79440476D01*
X134059523Y-79345238D01*
X134154761Y-79250000D01*
X134297619Y-79202380D01*
X134392857Y-79202380D01*
X134535714Y-79250000D01*
X134583333Y-79297619D01*
X134916666Y-79202380D02*
X135535714Y-79202380D01*
X135202380Y-79583333D01*
X135345238Y-79583333D01*
X135440476Y-79630952D01*
X135488095Y-79678571D01*
X135535714Y-79773809D01*
X135535714Y-80011904D01*
X135488095Y-80107142D01*
X135440476Y-80154761D01*
X135345238Y-80202380D01*
X135059523Y-80202380D01*
X134964285Y-80154761D01*
X134916666Y-80107142D01*
X180083333Y-79607142D02*
X180035714Y-79654761D01*
X179892857Y-79702380D01*
X179797619Y-79702380D01*
X179654761Y-79654761D01*
X179559523Y-79559523D01*
X179511904Y-79464285D01*
X179464285Y-79273809D01*
X179464285Y-79130952D01*
X179511904Y-78940476D01*
X179559523Y-78845238D01*
X179654761Y-78750000D01*
X179797619Y-78702380D01*
X179892857Y-78702380D01*
X180035714Y-78750000D01*
X180083333Y-78797619D01*
X180464285Y-78797619D02*
X180511904Y-78750000D01*
X180607142Y-78702380D01*
X180845238Y-78702380D01*
X180940476Y-78750000D01*
X180988095Y-78797619D01*
X181035714Y-78892857D01*
X181035714Y-78988095D01*
X180988095Y-79130952D01*
X180416666Y-79702380D01*
X181035714Y-79702380D01*
X171333333Y-79607142D02*
X171285714Y-79654761D01*
X171142857Y-79702380D01*
X171047619Y-79702380D01*
X170904761Y-79654761D01*
X170809523Y-79559523D01*
X170761904Y-79464285D01*
X170714285Y-79273809D01*
X170714285Y-79130952D01*
X170761904Y-78940476D01*
X170809523Y-78845238D01*
X170904761Y-78750000D01*
X171047619Y-78702380D01*
X171142857Y-78702380D01*
X171285714Y-78750000D01*
X171333333Y-78797619D01*
X172285714Y-79702380D02*
X171714285Y-79702380D01*
X172000000Y-79702380D02*
X172000000Y-78702380D01*
X171904761Y-78845238D01*
X171809523Y-78940476D01*
X171714285Y-78988095D01*
X105190476Y-87452380D02*
X105190476Y-88166666D01*
X105142857Y-88309523D01*
X105047619Y-88404761D01*
X104904761Y-88452380D01*
X104809523Y-88452380D01*
X105619047Y-87547619D02*
X105666666Y-87500000D01*
X105761904Y-87452380D01*
X106000000Y-87452380D01*
X106095238Y-87500000D01*
X106142857Y-87547619D01*
X106190476Y-87642857D01*
X106190476Y-87738095D01*
X106142857Y-87880952D01*
X105571428Y-88452380D01*
X106190476Y-88452380D01*
X107095238Y-87452380D02*
X106619047Y-87452380D01*
X106571428Y-87928571D01*
X106619047Y-87880952D01*
X106714285Y-87833333D01*
X106952380Y-87833333D01*
X107047619Y-87880952D01*
X107095238Y-87928571D01*
X107142857Y-88023809D01*
X107142857Y-88261904D01*
X107095238Y-88357142D01*
X107047619Y-88404761D01*
X106952380Y-88452380D01*
X106714285Y-88452380D01*
X106619047Y-88404761D01*
X106571428Y-88357142D01*
X105190476Y-80702380D02*
X105190476Y-81416666D01*
X105142857Y-81559523D01*
X105047619Y-81654761D01*
X104904761Y-81702380D01*
X104809523Y-81702380D01*
X105619047Y-80797619D02*
X105666666Y-80750000D01*
X105761904Y-80702380D01*
X106000000Y-80702380D01*
X106095238Y-80750000D01*
X106142857Y-80797619D01*
X106190476Y-80892857D01*
X106190476Y-80988095D01*
X106142857Y-81130952D01*
X105571428Y-81702380D01*
X106190476Y-81702380D01*
X107047619Y-81035714D02*
X107047619Y-81702380D01*
X106809523Y-80654761D02*
X106571428Y-81369047D01*
X107190476Y-81369047D01*
X105190476Y-74452380D02*
X105190476Y-75166666D01*
X105142857Y-75309523D01*
X105047619Y-75404761D01*
X104904761Y-75452380D01*
X104809523Y-75452380D01*
X105619047Y-74547619D02*
X105666666Y-74500000D01*
X105761904Y-74452380D01*
X106000000Y-74452380D01*
X106095238Y-74500000D01*
X106142857Y-74547619D01*
X106190476Y-74642857D01*
X106190476Y-74738095D01*
X106142857Y-74880952D01*
X105571428Y-75452380D01*
X106190476Y-75452380D01*
X106523809Y-74452380D02*
X107142857Y-74452380D01*
X106809523Y-74833333D01*
X106952380Y-74833333D01*
X107047619Y-74880952D01*
X107095238Y-74928571D01*
X107142857Y-75023809D01*
X107142857Y-75261904D01*
X107095238Y-75357142D01*
X107047619Y-75404761D01*
X106952380Y-75452380D01*
X106666666Y-75452380D01*
X106571428Y-75404761D01*
X106523809Y-75357142D01*
X105190476Y-67702380D02*
X105190476Y-68416666D01*
X105142857Y-68559523D01*
X105047619Y-68654761D01*
X104904761Y-68702380D01*
X104809523Y-68702380D01*
X105619047Y-67797619D02*
X105666666Y-67750000D01*
X105761904Y-67702380D01*
X106000000Y-67702380D01*
X106095238Y-67750000D01*
X106142857Y-67797619D01*
X106190476Y-67892857D01*
X106190476Y-67988095D01*
X106142857Y-68130952D01*
X105571428Y-68702380D01*
X106190476Y-68702380D01*
X106571428Y-67797619D02*
X106619047Y-67750000D01*
X106714285Y-67702380D01*
X106952380Y-67702380D01*
X107047619Y-67750000D01*
X107095238Y-67797619D01*
X107142857Y-67892857D01*
X107142857Y-67988095D01*
X107095238Y-68130952D01*
X106523809Y-68702380D01*
X107142857Y-68702380D01*
X195190476Y-67702380D02*
X195190476Y-68416666D01*
X195142857Y-68559523D01*
X195047619Y-68654761D01*
X194904761Y-68702380D01*
X194809523Y-68702380D01*
X195619047Y-67797619D02*
X195666666Y-67750000D01*
X195761904Y-67702380D01*
X196000000Y-67702380D01*
X196095238Y-67750000D01*
X196142857Y-67797619D01*
X196190476Y-67892857D01*
X196190476Y-67988095D01*
X196142857Y-68130952D01*
X195571428Y-68702380D01*
X196190476Y-68702380D01*
X197142857Y-68702380D02*
X196571428Y-68702380D01*
X196857142Y-68702380D02*
X196857142Y-67702380D01*
X196761904Y-67845238D01*
X196666666Y-67940476D01*
X196571428Y-67988095D01*
X195190476Y-74202380D02*
X195190476Y-74916666D01*
X195142857Y-75059523D01*
X195047619Y-75154761D01*
X194904761Y-75202380D01*
X194809523Y-75202380D01*
X195619047Y-74297619D02*
X195666666Y-74250000D01*
X195761904Y-74202380D01*
X196000000Y-74202380D01*
X196095238Y-74250000D01*
X196142857Y-74297619D01*
X196190476Y-74392857D01*
X196190476Y-74488095D01*
X196142857Y-74630952D01*
X195571428Y-75202380D01*
X196190476Y-75202380D01*
X196809523Y-74202380D02*
X196904761Y-74202380D01*
X197000000Y-74250000D01*
X197047619Y-74297619D01*
X197095238Y-74392857D01*
X197142857Y-74583333D01*
X197142857Y-74821428D01*
X197095238Y-75011904D01*
X197047619Y-75107142D01*
X197000000Y-75154761D01*
X196904761Y-75202380D01*
X196809523Y-75202380D01*
X196714285Y-75154761D01*
X196666666Y-75107142D01*
X196619047Y-75011904D01*
X196571428Y-74821428D01*
X196571428Y-74583333D01*
X196619047Y-74392857D01*
X196666666Y-74297619D01*
X196714285Y-74250000D01*
X196809523Y-74202380D01*
X195190476Y-80702380D02*
X195190476Y-81416666D01*
X195142857Y-81559523D01*
X195047619Y-81654761D01*
X194904761Y-81702380D01*
X194809523Y-81702380D01*
X196190476Y-81702380D02*
X195619047Y-81702380D01*
X195904761Y-81702380D02*
X195904761Y-80702380D01*
X195809523Y-80845238D01*
X195714285Y-80940476D01*
X195619047Y-80988095D01*
X196666666Y-81702380D02*
X196857142Y-81702380D01*
X196952380Y-81654761D01*
X197000000Y-81607142D01*
X197095238Y-81464285D01*
X197142857Y-81273809D01*
X197142857Y-80892857D01*
X197095238Y-80797619D01*
X197047619Y-80750000D01*
X196952380Y-80702380D01*
X196761904Y-80702380D01*
X196666666Y-80750000D01*
X196619047Y-80797619D01*
X196571428Y-80892857D01*
X196571428Y-81130952D01*
X196619047Y-81226190D01*
X196666666Y-81273809D01*
X196761904Y-81321428D01*
X196952380Y-81321428D01*
X197047619Y-81273809D01*
X197095238Y-81226190D01*
X197142857Y-81130952D01*
X195190476Y-87202380D02*
X195190476Y-87916666D01*
X195142857Y-88059523D01*
X195047619Y-88154761D01*
X194904761Y-88202380D01*
X194809523Y-88202380D01*
X196190476Y-88202380D02*
X195619047Y-88202380D01*
X195904761Y-88202380D02*
X195904761Y-87202380D01*
X195809523Y-87345238D01*
X195714285Y-87440476D01*
X195619047Y-87488095D01*
X196761904Y-87630952D02*
X196666666Y-87583333D01*
X196619047Y-87535714D01*
X196571428Y-87440476D01*
X196571428Y-87392857D01*
X196619047Y-87297619D01*
X196666666Y-87250000D01*
X196761904Y-87202380D01*
X196952380Y-87202380D01*
X197047619Y-87250000D01*
X197095238Y-87297619D01*
X197142857Y-87392857D01*
X197142857Y-87440476D01*
X197095238Y-87535714D01*
X197047619Y-87583333D01*
X196952380Y-87630952D01*
X196761904Y-87630952D01*
X196666666Y-87678571D01*
X196619047Y-87726190D01*
X196571428Y-87821428D01*
X196571428Y-88011904D01*
X196619047Y-88107142D01*
X196666666Y-88154761D01*
X196761904Y-88202380D01*
X196952380Y-88202380D01*
X197047619Y-88154761D01*
X197095238Y-88107142D01*
X197142857Y-88011904D01*
X197142857Y-87821428D01*
X197095238Y-87726190D01*
X197047619Y-87678571D01*
X196952380Y-87630952D01*
X190690476Y-110202380D02*
X190690476Y-110916666D01*
X190642857Y-111059523D01*
X190547619Y-111154761D01*
X190404761Y-111202380D01*
X190309523Y-111202380D01*
X191690476Y-111202380D02*
X191119047Y-111202380D01*
X191404761Y-111202380D02*
X191404761Y-110202380D01*
X191309523Y-110345238D01*
X191214285Y-110440476D01*
X191119047Y-110488095D01*
X192547619Y-110202380D02*
X192357142Y-110202380D01*
X192261904Y-110250000D01*
X192214285Y-110297619D01*
X192119047Y-110440476D01*
X192071428Y-110630952D01*
X192071428Y-111011904D01*
X192119047Y-111107142D01*
X192166666Y-111154761D01*
X192261904Y-111202380D01*
X192452380Y-111202380D01*
X192547619Y-111154761D01*
X192595238Y-111107142D01*
X192642857Y-111011904D01*
X192642857Y-110773809D01*
X192595238Y-110678571D01*
X192547619Y-110630952D01*
X192452380Y-110583333D01*
X192261904Y-110583333D01*
X192166666Y-110630952D01*
X192119047Y-110678571D01*
X192071428Y-110773809D01*
X184190476Y-110202380D02*
X184190476Y-110916666D01*
X184142857Y-111059523D01*
X184047619Y-111154761D01*
X183904761Y-111202380D01*
X183809523Y-111202380D01*
X185190476Y-111202380D02*
X184619047Y-111202380D01*
X184904761Y-111202380D02*
X184904761Y-110202380D01*
X184809523Y-110345238D01*
X184714285Y-110440476D01*
X184619047Y-110488095D01*
X186095238Y-110202380D02*
X185619047Y-110202380D01*
X185571428Y-110678571D01*
X185619047Y-110630952D01*
X185714285Y-110583333D01*
X185952380Y-110583333D01*
X186047619Y-110630952D01*
X186095238Y-110678571D01*
X186142857Y-110773809D01*
X186142857Y-111011904D01*
X186095238Y-111107142D01*
X186047619Y-111154761D01*
X185952380Y-111202380D01*
X185714285Y-111202380D01*
X185619047Y-111154761D01*
X185571428Y-111107142D01*
X177690476Y-110202380D02*
X177690476Y-110916666D01*
X177642857Y-111059523D01*
X177547619Y-111154761D01*
X177404761Y-111202380D01*
X177309523Y-111202380D01*
X178690476Y-111202380D02*
X178119047Y-111202380D01*
X178404761Y-111202380D02*
X178404761Y-110202380D01*
X178309523Y-110345238D01*
X178214285Y-110440476D01*
X178119047Y-110488095D01*
X179547619Y-110535714D02*
X179547619Y-111202380D01*
X179309523Y-110154761D02*
X179071428Y-110869047D01*
X179690476Y-110869047D01*
X170940476Y-110202380D02*
X170940476Y-110916666D01*
X170892857Y-111059523D01*
X170797619Y-111154761D01*
X170654761Y-111202380D01*
X170559523Y-111202380D01*
X171940476Y-111202380D02*
X171369047Y-111202380D01*
X171654761Y-111202380D02*
X171654761Y-110202380D01*
X171559523Y-110345238D01*
X171464285Y-110440476D01*
X171369047Y-110488095D01*
X172273809Y-110202380D02*
X172892857Y-110202380D01*
X172559523Y-110583333D01*
X172702380Y-110583333D01*
X172797619Y-110630952D01*
X172845238Y-110678571D01*
X172892857Y-110773809D01*
X172892857Y-111011904D01*
X172845238Y-111107142D01*
X172797619Y-111154761D01*
X172702380Y-111202380D01*
X172416666Y-111202380D01*
X172321428Y-111154761D01*
X172273809Y-111107142D01*
X164690476Y-110202380D02*
X164690476Y-110916666D01*
X164642857Y-111059523D01*
X164547619Y-111154761D01*
X164404761Y-111202380D01*
X164309523Y-111202380D01*
X165690476Y-111202380D02*
X165119047Y-111202380D01*
X165404761Y-111202380D02*
X165404761Y-110202380D01*
X165309523Y-110345238D01*
X165214285Y-110440476D01*
X165119047Y-110488095D01*
X166071428Y-110297619D02*
X166119047Y-110250000D01*
X166214285Y-110202380D01*
X166452380Y-110202380D01*
X166547619Y-110250000D01*
X166595238Y-110297619D01*
X166642857Y-110392857D01*
X166642857Y-110488095D01*
X166595238Y-110630952D01*
X166023809Y-111202380D01*
X166642857Y-111202380D01*
X158190476Y-110202380D02*
X158190476Y-110916666D01*
X158142857Y-111059523D01*
X158047619Y-111154761D01*
X157904761Y-111202380D01*
X157809523Y-111202380D01*
X159190476Y-111202380D02*
X158619047Y-111202380D01*
X158904761Y-111202380D02*
X158904761Y-110202380D01*
X158809523Y-110345238D01*
X158714285Y-110440476D01*
X158619047Y-110488095D01*
X160142857Y-111202380D02*
X159571428Y-111202380D01*
X159857142Y-111202380D02*
X159857142Y-110202380D01*
X159761904Y-110345238D01*
X159666666Y-110440476D01*
X159571428Y-110488095D01*
X151440476Y-110202380D02*
X151440476Y-110916666D01*
X151392857Y-111059523D01*
X151297619Y-111154761D01*
X151154761Y-111202380D01*
X151059523Y-111202380D01*
X152440476Y-111202380D02*
X151869047Y-111202380D01*
X152154761Y-111202380D02*
X152154761Y-110202380D01*
X152059523Y-110345238D01*
X151964285Y-110440476D01*
X151869047Y-110488095D01*
X153059523Y-110202380D02*
X153154761Y-110202380D01*
X153250000Y-110250000D01*
X153297619Y-110297619D01*
X153345238Y-110392857D01*
X153392857Y-110583333D01*
X153392857Y-110821428D01*
X153345238Y-111011904D01*
X153297619Y-111107142D01*
X153250000Y-111154761D01*
X153154761Y-111202380D01*
X153059523Y-111202380D01*
X152964285Y-111154761D01*
X152916666Y-111107142D01*
X152869047Y-111011904D01*
X152821428Y-110821428D01*
X152821428Y-110583333D01*
X152869047Y-110392857D01*
X152916666Y-110297619D01*
X152964285Y-110250000D01*
X153059523Y-110202380D01*
X145166666Y-110202380D02*
X145166666Y-110916666D01*
X145119047Y-111059523D01*
X145023809Y-111154761D01*
X144880952Y-111202380D01*
X144785714Y-111202380D01*
X145690476Y-111202380D02*
X145880952Y-111202380D01*
X145976190Y-111154761D01*
X146023809Y-111107142D01*
X146119047Y-110964285D01*
X146166666Y-110773809D01*
X146166666Y-110392857D01*
X146119047Y-110297619D01*
X146071428Y-110250000D01*
X145976190Y-110202380D01*
X145785714Y-110202380D01*
X145690476Y-110250000D01*
X145642857Y-110297619D01*
X145595238Y-110392857D01*
X145595238Y-110630952D01*
X145642857Y-110726190D01*
X145690476Y-110773809D01*
X145785714Y-110821428D01*
X145976190Y-110821428D01*
X146071428Y-110773809D01*
X146119047Y-110726190D01*
X146166666Y-110630952D01*
X138666666Y-110202380D02*
X138666666Y-110916666D01*
X138619047Y-111059523D01*
X138523809Y-111154761D01*
X138380952Y-111202380D01*
X138285714Y-111202380D01*
X139285714Y-110630952D02*
X139190476Y-110583333D01*
X139142857Y-110535714D01*
X139095238Y-110440476D01*
X139095238Y-110392857D01*
X139142857Y-110297619D01*
X139190476Y-110250000D01*
X139285714Y-110202380D01*
X139476190Y-110202380D01*
X139571428Y-110250000D01*
X139619047Y-110297619D01*
X139666666Y-110392857D01*
X139666666Y-110440476D01*
X139619047Y-110535714D01*
X139571428Y-110583333D01*
X139476190Y-110630952D01*
X139285714Y-110630952D01*
X139190476Y-110678571D01*
X139142857Y-110726190D01*
X139095238Y-110821428D01*
X139095238Y-111011904D01*
X139142857Y-111107142D01*
X139190476Y-111154761D01*
X139285714Y-111202380D01*
X139476190Y-111202380D01*
X139571428Y-111154761D01*
X139619047Y-111107142D01*
X139666666Y-111011904D01*
X139666666Y-110821428D01*
X139619047Y-110726190D01*
X139571428Y-110678571D01*
X139476190Y-110630952D01*
X132166666Y-110202380D02*
X132166666Y-110916666D01*
X132119047Y-111059523D01*
X132023809Y-111154761D01*
X131880952Y-111202380D01*
X131785714Y-111202380D01*
X132547619Y-110202380D02*
X133214285Y-110202380D01*
X132785714Y-111202380D01*
X125666666Y-110202380D02*
X125666666Y-110916666D01*
X125619047Y-111059523D01*
X125523809Y-111154761D01*
X125380952Y-111202380D01*
X125285714Y-111202380D01*
X126571428Y-110202380D02*
X126380952Y-110202380D01*
X126285714Y-110250000D01*
X126238095Y-110297619D01*
X126142857Y-110440476D01*
X126095238Y-110630952D01*
X126095238Y-111011904D01*
X126142857Y-111107142D01*
X126190476Y-111154761D01*
X126285714Y-111202380D01*
X126476190Y-111202380D01*
X126571428Y-111154761D01*
X126619047Y-111107142D01*
X126666666Y-111011904D01*
X126666666Y-110773809D01*
X126619047Y-110678571D01*
X126571428Y-110630952D01*
X126476190Y-110583333D01*
X126285714Y-110583333D01*
X126190476Y-110630952D01*
X126142857Y-110678571D01*
X126095238Y-110773809D01*
X119166666Y-110202380D02*
X119166666Y-110916666D01*
X119119047Y-111059523D01*
X119023809Y-111154761D01*
X118880952Y-111202380D01*
X118785714Y-111202380D01*
X120119047Y-110202380D02*
X119642857Y-110202380D01*
X119595238Y-110678571D01*
X119642857Y-110630952D01*
X119738095Y-110583333D01*
X119976190Y-110583333D01*
X120071428Y-110630952D01*
X120119047Y-110678571D01*
X120166666Y-110773809D01*
X120166666Y-111011904D01*
X120119047Y-111107142D01*
X120071428Y-111154761D01*
X119976190Y-111202380D01*
X119738095Y-111202380D01*
X119642857Y-111154761D01*
X119595238Y-111107142D01*
X112666666Y-110202380D02*
X112666666Y-110916666D01*
X112619047Y-111059523D01*
X112523809Y-111154761D01*
X112380952Y-111202380D01*
X112285714Y-111202380D01*
X113571428Y-110535714D02*
X113571428Y-111202380D01*
X113333333Y-110154761D02*
X113095238Y-110869047D01*
X113714285Y-110869047D01*
X106166666Y-110202380D02*
X106166666Y-110916666D01*
X106119047Y-111059523D01*
X106023809Y-111154761D01*
X105880952Y-111202380D01*
X105785714Y-111202380D01*
X106547619Y-110202380D02*
X107166666Y-110202380D01*
X106833333Y-110583333D01*
X106976190Y-110583333D01*
X107071428Y-110630952D01*
X107119047Y-110678571D01*
X107166666Y-110773809D01*
X107166666Y-111011904D01*
X107119047Y-111107142D01*
X107071428Y-111154761D01*
X106976190Y-111202380D01*
X106690476Y-111202380D01*
X106595238Y-111154761D01*
X106547619Y-111107142D01*
X99666666Y-110202380D02*
X99666666Y-110916666D01*
X99619047Y-111059523D01*
X99523809Y-111154761D01*
X99380952Y-111202380D01*
X99285714Y-111202380D01*
X100095238Y-110297619D02*
X100142857Y-110250000D01*
X100238095Y-110202380D01*
X100476190Y-110202380D01*
X100571428Y-110250000D01*
X100619047Y-110297619D01*
X100666666Y-110392857D01*
X100666666Y-110488095D01*
X100619047Y-110630952D01*
X100047619Y-111202380D01*
X100666666Y-111202380D01*
D15*
X162716433Y-81551997D02*
X162716433Y-82266783D01*
X162668780Y-82409740D01*
X162573475Y-82505045D01*
X162430518Y-82552698D01*
X162335213Y-82552698D01*
X163717134Y-82552698D02*
X163145304Y-82552698D01*
X163431219Y-82552698D02*
X163431219Y-81551997D01*
X163335914Y-81694954D01*
X163240609Y-81790259D01*
X163145304Y-81837911D01*
M02*
