M48
; DRILL file {KiCad (5.1.6-0-10_14)} date Monday, August 03, 2020 at 11:57:49 PM
; FORMAT={-:-/ absolute / inch / decimal}
; #@! TF.CreationDate,2020-08-03T23:57:49+09:00
; #@! TF.GenerationSoftware,Kicad,Pcbnew,(5.1.6-0-10_14)
FMAT,2
INCH
T1C0.0157
T2C0.0276
T3C0.0433
T4C0.0512
T5C0.1220
T6C0.0945
%
G90
G05
T1
X4.1831Y-3.5433
X4.3602Y-3.4449
X4.7146Y-3.5728
X4.8031Y-3.6614
X4.8524Y-4.1929
X4.9163Y-3.2037
X5.2736Y-3.1398
X5.685Y-3.4252
X6.1417Y-3.4941
X6.7343Y-3.1004
X6.939Y-3.1988
X6.939Y-4.065
X7.4016Y-3.4941
X7.4016Y-3.4941
X7.5787Y-3.4941
X7.8051Y-4.2618
T2
X6.2697Y-4.439
X6.3287Y-4.439
X6.3878Y-4.439
X7.8248Y-2.9823
X7.8248Y-3.0413
X7.8248Y-3.1004
X7.5492Y-4.439
X7.6083Y-4.439
X7.6673Y-4.439
X5.7579Y-4.439
X5.8169Y-4.439
X5.876Y-4.439
X6.5256Y-4.439
X6.5846Y-4.439
X6.6437Y-4.439
X6.0138Y-4.439
X6.0728Y-4.439
X6.1319Y-4.439
X4.7343Y-4.439
X4.7933Y-4.439
X4.8524Y-4.439
X5.502Y-4.439
X5.561Y-4.439
X5.6201Y-4.439
X7.8248Y-3.4941
X7.8248Y-3.5531
X7.8248Y-3.6122
X4.2224Y-4.439
X4.2815Y-4.439
X4.3406Y-4.439
X4.065Y-3.4941
X4.065Y-3.5531
X4.065Y-3.6122
X4.9902Y-4.439
X5.0492Y-4.439
X5.1083Y-4.439
X7.8051Y-4.439
X7.8642Y-4.439
X7.9232Y-4.439
X7.0374Y-4.439
X7.0965Y-4.439
X7.1555Y-4.439
X7.8248Y-3.2382
X7.8248Y-3.2972
X7.8248Y-3.3563
X4.065Y-2.9823
X4.065Y-3.0413
X4.065Y-3.1004
X4.065Y-2.7264
X4.065Y-2.7854
X4.065Y-2.8445
X5.2461Y-4.439
X5.3051Y-4.439
X5.3642Y-4.439
X7.2933Y-4.439
X7.3524Y-4.439
X7.4114Y-4.439
X7.8248Y-2.7264
X7.8248Y-2.7854
X7.8248Y-2.8445
X6.7815Y-4.439
X6.8406Y-4.439
X6.8996Y-4.439
X4.065Y-3.2382
X4.065Y-3.2972
X4.065Y-3.3563
X3.9665Y-4.439
X4.0256Y-4.439
X4.0846Y-4.439
X4.4783Y-4.439
X4.5374Y-4.439
X4.5965Y-4.439
T3
X4.9492Y-2.9724
X5.0492Y-2.9724
X5.1492Y-2.9724
X6.7421Y-2.9724
X6.8421Y-2.9724
X6.9421Y-2.9724
T4
X5.6516Y-3.124
X5.75Y-3.2224
X5.8484Y-2.7303
X5.9469Y-3.124
X6.0453Y-2.7303
X6.1437Y-3.2224
X6.2421Y-3.124
T5
X4.0157Y-3.9469
X4.6063Y-2.9626
X7.2736Y-2.9626
X7.8642Y-3.9469
T6
X5.6516Y-2.9272
X6.2421Y-2.9272
T0
M30
