G04 #@! TF.GenerationSoftware,KiCad,Pcbnew,(5.1.6-0-10_14)*
G04 #@! TF.CreationDate,2020-08-03T23:57:46+09:00*
G04 #@! TF.ProjectId,teabiscuits_power,74656162-6973-4637-9569-74735f706f77,rev?*
G04 #@! TF.SameCoordinates,Original*
G04 #@! TF.FileFunction,Copper,L1,Top*
G04 #@! TF.FilePolarity,Positive*
%FSLAX46Y46*%
G04 Gerber Fmt 4.6, Leading zero omitted, Abs format (unit mm)*
G04 Created by KiCad (PCBNEW (5.1.6-0-10_14)) date 2020-08-03 23:57:46*
%MOMM*%
%LPD*%
G01*
G04 APERTURE LIST*
G04 #@! TA.AperFunction,ComponentPad*
%ADD10O,1.905000X2.000000*%
G04 #@! TD*
G04 #@! TA.AperFunction,ComponentPad*
%ADD11R,1.905000X2.000000*%
G04 #@! TD*
G04 #@! TA.AperFunction,ComponentPad*
%ADD12O,1.200000X1.200000*%
G04 #@! TD*
G04 #@! TA.AperFunction,ComponentPad*
%ADD13C,1.950000*%
G04 #@! TD*
G04 #@! TA.AperFunction,ViaPad*
%ADD14C,3.110000*%
G04 #@! TD*
G04 #@! TA.AperFunction,ViaPad*
%ADD15C,1.000000*%
G04 #@! TD*
G04 #@! TA.AperFunction,Conductor*
%ADD16C,1.000000*%
G04 #@! TD*
G04 APERTURE END LIST*
D10*
X130790000Y-75500000D03*
X128250000Y-75500000D03*
D11*
X125710000Y-75500000D03*
D10*
X176330000Y-75500000D03*
X173790000Y-75500000D03*
D11*
X171250000Y-75500000D03*
G04 #@! TA.AperFunction,SMDPad,CuDef*
G36*
G01*
X124300000Y-70043750D02*
X124300000Y-70956250D01*
G75*
G02*
X124056250Y-71200000I-243750J0D01*
G01*
X123568750Y-71200000D01*
G75*
G02*
X123325000Y-70956250I0J243750D01*
G01*
X123325000Y-70043750D01*
G75*
G02*
X123568750Y-69800000I243750J0D01*
G01*
X124056250Y-69800000D01*
G75*
G02*
X124300000Y-70043750I0J-243750D01*
G01*
G37*
G04 #@! TD.AperFunction*
G04 #@! TA.AperFunction,SMDPad,CuDef*
G36*
G01*
X126175000Y-70043750D02*
X126175000Y-70956250D01*
G75*
G02*
X125931250Y-71200000I-243750J0D01*
G01*
X125443750Y-71200000D01*
G75*
G02*
X125200000Y-70956250I0J243750D01*
G01*
X125200000Y-70043750D01*
G75*
G02*
X125443750Y-69800000I243750J0D01*
G01*
X125931250Y-69800000D01*
G75*
G02*
X126175000Y-70043750I0J-243750D01*
G01*
G37*
G04 #@! TD.AperFunction*
G04 #@! TA.AperFunction,SMDPad,CuDef*
G36*
G01*
X127737500Y-70043750D02*
X127737500Y-70956250D01*
G75*
G02*
X127493750Y-71200000I-243750J0D01*
G01*
X127006250Y-71200000D01*
G75*
G02*
X126762500Y-70956250I0J243750D01*
G01*
X126762500Y-70043750D01*
G75*
G02*
X127006250Y-69800000I243750J0D01*
G01*
X127493750Y-69800000D01*
G75*
G02*
X127737500Y-70043750I0J-243750D01*
G01*
G37*
G04 #@! TD.AperFunction*
G04 #@! TA.AperFunction,SMDPad,CuDef*
G36*
G01*
X129612500Y-70043750D02*
X129612500Y-70956250D01*
G75*
G02*
X129368750Y-71200000I-243750J0D01*
G01*
X128881250Y-71200000D01*
G75*
G02*
X128637500Y-70956250I0J243750D01*
G01*
X128637500Y-70043750D01*
G75*
G02*
X128881250Y-69800000I243750J0D01*
G01*
X129368750Y-69800000D01*
G75*
G02*
X129612500Y-70043750I0J-243750D01*
G01*
G37*
G04 #@! TD.AperFunction*
G04 #@! TA.AperFunction,SMDPad,CuDef*
G36*
G01*
X174387500Y-70956250D02*
X174387500Y-70043750D01*
G75*
G02*
X174631250Y-69800000I243750J0D01*
G01*
X175118750Y-69800000D01*
G75*
G02*
X175362500Y-70043750I0J-243750D01*
G01*
X175362500Y-70956250D01*
G75*
G02*
X175118750Y-71200000I-243750J0D01*
G01*
X174631250Y-71200000D01*
G75*
G02*
X174387500Y-70956250I0J243750D01*
G01*
G37*
G04 #@! TD.AperFunction*
G04 #@! TA.AperFunction,SMDPad,CuDef*
G36*
G01*
X172512500Y-70956250D02*
X172512500Y-70043750D01*
G75*
G02*
X172756250Y-69800000I243750J0D01*
G01*
X173243750Y-69800000D01*
G75*
G02*
X173487500Y-70043750I0J-243750D01*
G01*
X173487500Y-70956250D01*
G75*
G02*
X173243750Y-71200000I-243750J0D01*
G01*
X172756250Y-71200000D01*
G75*
G02*
X172512500Y-70956250I0J243750D01*
G01*
G37*
G04 #@! TD.AperFunction*
G04 #@! TA.AperFunction,SMDPad,CuDef*
G36*
G01*
X170887500Y-70956250D02*
X170887500Y-70043750D01*
G75*
G02*
X171131250Y-69800000I243750J0D01*
G01*
X171618750Y-69800000D01*
G75*
G02*
X171862500Y-70043750I0J-243750D01*
G01*
X171862500Y-70956250D01*
G75*
G02*
X171618750Y-71200000I-243750J0D01*
G01*
X171131250Y-71200000D01*
G75*
G02*
X170887500Y-70956250I0J243750D01*
G01*
G37*
G04 #@! TD.AperFunction*
G04 #@! TA.AperFunction,SMDPad,CuDef*
G36*
G01*
X169012500Y-70956250D02*
X169012500Y-70043750D01*
G75*
G02*
X169256250Y-69800000I243750J0D01*
G01*
X169743750Y-69800000D01*
G75*
G02*
X169987500Y-70043750I0J-243750D01*
G01*
X169987500Y-70956250D01*
G75*
G02*
X169743750Y-71200000I-243750J0D01*
G01*
X169256250Y-71200000D01*
G75*
G02*
X169012500Y-70956250I0J243750D01*
G01*
G37*
G04 #@! TD.AperFunction*
G04 #@! TA.AperFunction,SMDPad,CuDef*
G36*
G01*
X127793750Y-80887500D02*
X128706250Y-80887500D01*
G75*
G02*
X128950000Y-81131250I0J-243750D01*
G01*
X128950000Y-81618750D01*
G75*
G02*
X128706250Y-81862500I-243750J0D01*
G01*
X127793750Y-81862500D01*
G75*
G02*
X127550000Y-81618750I0J243750D01*
G01*
X127550000Y-81131250D01*
G75*
G02*
X127793750Y-80887500I243750J0D01*
G01*
G37*
G04 #@! TD.AperFunction*
G04 #@! TA.AperFunction,SMDPad,CuDef*
G36*
G01*
X127793750Y-79012500D02*
X128706250Y-79012500D01*
G75*
G02*
X128950000Y-79256250I0J-243750D01*
G01*
X128950000Y-79743750D01*
G75*
G02*
X128706250Y-79987500I-243750J0D01*
G01*
X127793750Y-79987500D01*
G75*
G02*
X127550000Y-79743750I0J243750D01*
G01*
X127550000Y-79256250D01*
G75*
G02*
X127793750Y-79012500I243750J0D01*
G01*
G37*
G04 #@! TD.AperFunction*
G04 #@! TA.AperFunction,SMDPad,CuDef*
G36*
G01*
X132262500Y-80206250D02*
X132262500Y-79293750D01*
G75*
G02*
X132506250Y-79050000I243750J0D01*
G01*
X132993750Y-79050000D01*
G75*
G02*
X133237500Y-79293750I0J-243750D01*
G01*
X133237500Y-80206250D01*
G75*
G02*
X132993750Y-80450000I-243750J0D01*
G01*
X132506250Y-80450000D01*
G75*
G02*
X132262500Y-80206250I0J243750D01*
G01*
G37*
G04 #@! TD.AperFunction*
G04 #@! TA.AperFunction,SMDPad,CuDef*
G36*
G01*
X130387500Y-80206250D02*
X130387500Y-79293750D01*
G75*
G02*
X130631250Y-79050000I243750J0D01*
G01*
X131118750Y-79050000D01*
G75*
G02*
X131362500Y-79293750I0J-243750D01*
G01*
X131362500Y-80206250D01*
G75*
G02*
X131118750Y-80450000I-243750J0D01*
G01*
X130631250Y-80450000D01*
G75*
G02*
X130387500Y-80206250I0J243750D01*
G01*
G37*
G04 #@! TD.AperFunction*
G04 #@! TA.AperFunction,SMDPad,CuDef*
G36*
G01*
X177700000Y-79706250D02*
X177700000Y-78793750D01*
G75*
G02*
X177943750Y-78550000I243750J0D01*
G01*
X178431250Y-78550000D01*
G75*
G02*
X178675000Y-78793750I0J-243750D01*
G01*
X178675000Y-79706250D01*
G75*
G02*
X178431250Y-79950000I-243750J0D01*
G01*
X177943750Y-79950000D01*
G75*
G02*
X177700000Y-79706250I0J243750D01*
G01*
G37*
G04 #@! TD.AperFunction*
G04 #@! TA.AperFunction,SMDPad,CuDef*
G36*
G01*
X175825000Y-79706250D02*
X175825000Y-78793750D01*
G75*
G02*
X176068750Y-78550000I243750J0D01*
G01*
X176556250Y-78550000D01*
G75*
G02*
X176800000Y-78793750I0J-243750D01*
G01*
X176800000Y-79706250D01*
G75*
G02*
X176556250Y-79950000I-243750J0D01*
G01*
X176068750Y-79950000D01*
G75*
G02*
X175825000Y-79706250I0J243750D01*
G01*
G37*
G04 #@! TD.AperFunction*
G04 #@! TA.AperFunction,SMDPad,CuDef*
G36*
G01*
X173293750Y-80637500D02*
X174206250Y-80637500D01*
G75*
G02*
X174450000Y-80881250I0J-243750D01*
G01*
X174450000Y-81368750D01*
G75*
G02*
X174206250Y-81612500I-243750J0D01*
G01*
X173293750Y-81612500D01*
G75*
G02*
X173050000Y-81368750I0J243750D01*
G01*
X173050000Y-80881250D01*
G75*
G02*
X173293750Y-80637500I243750J0D01*
G01*
G37*
G04 #@! TD.AperFunction*
G04 #@! TA.AperFunction,SMDPad,CuDef*
G36*
G01*
X173293750Y-78762500D02*
X174206250Y-78762500D01*
G75*
G02*
X174450000Y-79006250I0J-243750D01*
G01*
X174450000Y-79493750D01*
G75*
G02*
X174206250Y-79737500I-243750J0D01*
G01*
X173293750Y-79737500D01*
G75*
G02*
X173050000Y-79493750I0J243750D01*
G01*
X173050000Y-79006250D01*
G75*
G02*
X173293750Y-78762500I243750J0D01*
G01*
G37*
G04 #@! TD.AperFunction*
G04 #@! TA.AperFunction,ComponentPad*
G36*
G01*
X103673600Y-92350000D02*
X102826400Y-92350000D01*
G75*
G02*
X102650000Y-92173600I0J176400D01*
G01*
X102650000Y-91326400D01*
G75*
G02*
X102826400Y-91150000I176400J0D01*
G01*
X103673600Y-91150000D01*
G75*
G02*
X103850000Y-91326400I0J-176400D01*
G01*
X103850000Y-92173600D01*
G75*
G02*
X103673600Y-92350000I-176400J0D01*
G01*
G37*
G04 #@! TD.AperFunction*
D12*
X103250000Y-90250000D03*
X103250000Y-88750000D03*
G04 #@! TA.AperFunction,ComponentPad*
G36*
G01*
X103673600Y-85850000D02*
X102826400Y-85850000D01*
G75*
G02*
X102650000Y-85673600I0J176400D01*
G01*
X102650000Y-84826400D01*
G75*
G02*
X102826400Y-84650000I176400J0D01*
G01*
X103673600Y-84650000D01*
G75*
G02*
X103850000Y-84826400I0J-176400D01*
G01*
X103850000Y-85673600D01*
G75*
G02*
X103673600Y-85850000I-176400J0D01*
G01*
G37*
G04 #@! TD.AperFunction*
X103250000Y-83750000D03*
X103250000Y-82250000D03*
G04 #@! TA.AperFunction,ComponentPad*
G36*
G01*
X103673600Y-79350000D02*
X102826400Y-79350000D01*
G75*
G02*
X102650000Y-79173600I0J176400D01*
G01*
X102650000Y-78326400D01*
G75*
G02*
X102826400Y-78150000I176400J0D01*
G01*
X103673600Y-78150000D01*
G75*
G02*
X103850000Y-78326400I0J-176400D01*
G01*
X103850000Y-79173600D01*
G75*
G02*
X103673600Y-79350000I-176400J0D01*
G01*
G37*
G04 #@! TD.AperFunction*
X103250000Y-77250000D03*
X103250000Y-75750000D03*
G04 #@! TA.AperFunction,ComponentPad*
G36*
G01*
X103673600Y-72850000D02*
X102826400Y-72850000D01*
G75*
G02*
X102650000Y-72673600I0J176400D01*
G01*
X102650000Y-71826400D01*
G75*
G02*
X102826400Y-71650000I176400J0D01*
G01*
X103673600Y-71650000D01*
G75*
G02*
X103850000Y-71826400I0J-176400D01*
G01*
X103850000Y-72673600D01*
G75*
G02*
X103673600Y-72850000I-176400J0D01*
G01*
G37*
G04 #@! TD.AperFunction*
X103250000Y-70750000D03*
X103250000Y-69250000D03*
G04 #@! TA.AperFunction,ComponentPad*
G36*
G01*
X198326400Y-68650000D02*
X199173600Y-68650000D01*
G75*
G02*
X199350000Y-68826400I0J-176400D01*
G01*
X199350000Y-69673600D01*
G75*
G02*
X199173600Y-69850000I-176400J0D01*
G01*
X198326400Y-69850000D01*
G75*
G02*
X198150000Y-69673600I0J176400D01*
G01*
X198150000Y-68826400D01*
G75*
G02*
X198326400Y-68650000I176400J0D01*
G01*
G37*
G04 #@! TD.AperFunction*
X198750000Y-70750000D03*
X198750000Y-72250000D03*
G04 #@! TA.AperFunction,ComponentPad*
G36*
G01*
X198326400Y-75150000D02*
X199173600Y-75150000D01*
G75*
G02*
X199350000Y-75326400I0J-176400D01*
G01*
X199350000Y-76173600D01*
G75*
G02*
X199173600Y-76350000I-176400J0D01*
G01*
X198326400Y-76350000D01*
G75*
G02*
X198150000Y-76173600I0J176400D01*
G01*
X198150000Y-75326400D01*
G75*
G02*
X198326400Y-75150000I176400J0D01*
G01*
G37*
G04 #@! TD.AperFunction*
X198750000Y-77250000D03*
X198750000Y-78750000D03*
G04 #@! TA.AperFunction,ComponentPad*
G36*
G01*
X198326400Y-81650000D02*
X199173600Y-81650000D01*
G75*
G02*
X199350000Y-81826400I0J-176400D01*
G01*
X199350000Y-82673600D01*
G75*
G02*
X199173600Y-82850000I-176400J0D01*
G01*
X198326400Y-82850000D01*
G75*
G02*
X198150000Y-82673600I0J176400D01*
G01*
X198150000Y-81826400D01*
G75*
G02*
X198326400Y-81650000I176400J0D01*
G01*
G37*
G04 #@! TD.AperFunction*
X198750000Y-83750000D03*
X198750000Y-85250000D03*
G04 #@! TA.AperFunction,ComponentPad*
G36*
G01*
X198326400Y-88150000D02*
X199173600Y-88150000D01*
G75*
G02*
X199350000Y-88326400I0J-176400D01*
G01*
X199350000Y-89173600D01*
G75*
G02*
X199173600Y-89350000I-176400J0D01*
G01*
X198326400Y-89350000D01*
G75*
G02*
X198150000Y-89173600I0J176400D01*
G01*
X198150000Y-88326400D01*
G75*
G02*
X198326400Y-88150000I176400J0D01*
G01*
G37*
G04 #@! TD.AperFunction*
X198750000Y-90250000D03*
X198750000Y-91750000D03*
G04 #@! TA.AperFunction,ComponentPad*
G36*
G01*
X201850000Y-112326400D02*
X201850000Y-113173600D01*
G75*
G02*
X201673600Y-113350000I-176400J0D01*
G01*
X200826400Y-113350000D01*
G75*
G02*
X200650000Y-113173600I0J176400D01*
G01*
X200650000Y-112326400D01*
G75*
G02*
X200826400Y-112150000I176400J0D01*
G01*
X201673600Y-112150000D01*
G75*
G02*
X201850000Y-112326400I0J-176400D01*
G01*
G37*
G04 #@! TD.AperFunction*
X199750000Y-112750000D03*
X198250000Y-112750000D03*
G04 #@! TA.AperFunction,ComponentPad*
G36*
G01*
X195350000Y-112326400D02*
X195350000Y-113173600D01*
G75*
G02*
X195173600Y-113350000I-176400J0D01*
G01*
X194326400Y-113350000D01*
G75*
G02*
X194150000Y-113173600I0J176400D01*
G01*
X194150000Y-112326400D01*
G75*
G02*
X194326400Y-112150000I176400J0D01*
G01*
X195173600Y-112150000D01*
G75*
G02*
X195350000Y-112326400I0J-176400D01*
G01*
G37*
G04 #@! TD.AperFunction*
X193250000Y-112750000D03*
X191750000Y-112750000D03*
G04 #@! TA.AperFunction,ComponentPad*
G36*
G01*
X188850000Y-112326400D02*
X188850000Y-113173600D01*
G75*
G02*
X188673600Y-113350000I-176400J0D01*
G01*
X187826400Y-113350000D01*
G75*
G02*
X187650000Y-113173600I0J176400D01*
G01*
X187650000Y-112326400D01*
G75*
G02*
X187826400Y-112150000I176400J0D01*
G01*
X188673600Y-112150000D01*
G75*
G02*
X188850000Y-112326400I0J-176400D01*
G01*
G37*
G04 #@! TD.AperFunction*
X186750000Y-112750000D03*
X185250000Y-112750000D03*
G04 #@! TA.AperFunction,ComponentPad*
G36*
G01*
X182350000Y-112326400D02*
X182350000Y-113173600D01*
G75*
G02*
X182173600Y-113350000I-176400J0D01*
G01*
X181326400Y-113350000D01*
G75*
G02*
X181150000Y-113173600I0J176400D01*
G01*
X181150000Y-112326400D01*
G75*
G02*
X181326400Y-112150000I176400J0D01*
G01*
X182173600Y-112150000D01*
G75*
G02*
X182350000Y-112326400I0J-176400D01*
G01*
G37*
G04 #@! TD.AperFunction*
X180250000Y-112750000D03*
X178750000Y-112750000D03*
G04 #@! TA.AperFunction,ComponentPad*
G36*
G01*
X175850000Y-112326400D02*
X175850000Y-113173600D01*
G75*
G02*
X175673600Y-113350000I-176400J0D01*
G01*
X174826400Y-113350000D01*
G75*
G02*
X174650000Y-113173600I0J176400D01*
G01*
X174650000Y-112326400D01*
G75*
G02*
X174826400Y-112150000I176400J0D01*
G01*
X175673600Y-112150000D01*
G75*
G02*
X175850000Y-112326400I0J-176400D01*
G01*
G37*
G04 #@! TD.AperFunction*
X173750000Y-112750000D03*
X172250000Y-112750000D03*
G04 #@! TA.AperFunction,ComponentPad*
G36*
G01*
X169350000Y-112326400D02*
X169350000Y-113173600D01*
G75*
G02*
X169173600Y-113350000I-176400J0D01*
G01*
X168326400Y-113350000D01*
G75*
G02*
X168150000Y-113173600I0J176400D01*
G01*
X168150000Y-112326400D01*
G75*
G02*
X168326400Y-112150000I176400J0D01*
G01*
X169173600Y-112150000D01*
G75*
G02*
X169350000Y-112326400I0J-176400D01*
G01*
G37*
G04 #@! TD.AperFunction*
X167250000Y-112750000D03*
X165750000Y-112750000D03*
G04 #@! TA.AperFunction,ComponentPad*
G36*
G01*
X162850000Y-112326400D02*
X162850000Y-113173600D01*
G75*
G02*
X162673600Y-113350000I-176400J0D01*
G01*
X161826400Y-113350000D01*
G75*
G02*
X161650000Y-113173600I0J176400D01*
G01*
X161650000Y-112326400D01*
G75*
G02*
X161826400Y-112150000I176400J0D01*
G01*
X162673600Y-112150000D01*
G75*
G02*
X162850000Y-112326400I0J-176400D01*
G01*
G37*
G04 #@! TD.AperFunction*
X160750000Y-112750000D03*
X159250000Y-112750000D03*
G04 #@! TA.AperFunction,ComponentPad*
G36*
G01*
X156350000Y-112326400D02*
X156350000Y-113173600D01*
G75*
G02*
X156173600Y-113350000I-176400J0D01*
G01*
X155326400Y-113350000D01*
G75*
G02*
X155150000Y-113173600I0J176400D01*
G01*
X155150000Y-112326400D01*
G75*
G02*
X155326400Y-112150000I176400J0D01*
G01*
X156173600Y-112150000D01*
G75*
G02*
X156350000Y-112326400I0J-176400D01*
G01*
G37*
G04 #@! TD.AperFunction*
X154250000Y-112750000D03*
X152750000Y-112750000D03*
G04 #@! TA.AperFunction,ComponentPad*
G36*
G01*
X149850000Y-112326400D02*
X149850000Y-113173600D01*
G75*
G02*
X149673600Y-113350000I-176400J0D01*
G01*
X148826400Y-113350000D01*
G75*
G02*
X148650000Y-113173600I0J176400D01*
G01*
X148650000Y-112326400D01*
G75*
G02*
X148826400Y-112150000I176400J0D01*
G01*
X149673600Y-112150000D01*
G75*
G02*
X149850000Y-112326400I0J-176400D01*
G01*
G37*
G04 #@! TD.AperFunction*
X147750000Y-112750000D03*
X146250000Y-112750000D03*
G04 #@! TA.AperFunction,ComponentPad*
G36*
G01*
X143350000Y-112326400D02*
X143350000Y-113173600D01*
G75*
G02*
X143173600Y-113350000I-176400J0D01*
G01*
X142326400Y-113350000D01*
G75*
G02*
X142150000Y-113173600I0J176400D01*
G01*
X142150000Y-112326400D01*
G75*
G02*
X142326400Y-112150000I176400J0D01*
G01*
X143173600Y-112150000D01*
G75*
G02*
X143350000Y-112326400I0J-176400D01*
G01*
G37*
G04 #@! TD.AperFunction*
X141250000Y-112750000D03*
X139750000Y-112750000D03*
G04 #@! TA.AperFunction,ComponentPad*
G36*
G01*
X136850000Y-112326400D02*
X136850000Y-113173600D01*
G75*
G02*
X136673600Y-113350000I-176400J0D01*
G01*
X135826400Y-113350000D01*
G75*
G02*
X135650000Y-113173600I0J176400D01*
G01*
X135650000Y-112326400D01*
G75*
G02*
X135826400Y-112150000I176400J0D01*
G01*
X136673600Y-112150000D01*
G75*
G02*
X136850000Y-112326400I0J-176400D01*
G01*
G37*
G04 #@! TD.AperFunction*
X134750000Y-112750000D03*
X133250000Y-112750000D03*
G04 #@! TA.AperFunction,ComponentPad*
G36*
G01*
X130350000Y-112326400D02*
X130350000Y-113173600D01*
G75*
G02*
X130173600Y-113350000I-176400J0D01*
G01*
X129326400Y-113350000D01*
G75*
G02*
X129150000Y-113173600I0J176400D01*
G01*
X129150000Y-112326400D01*
G75*
G02*
X129326400Y-112150000I176400J0D01*
G01*
X130173600Y-112150000D01*
G75*
G02*
X130350000Y-112326400I0J-176400D01*
G01*
G37*
G04 #@! TD.AperFunction*
X128250000Y-112750000D03*
X126750000Y-112750000D03*
G04 #@! TA.AperFunction,ComponentPad*
G36*
G01*
X123850000Y-112326400D02*
X123850000Y-113173600D01*
G75*
G02*
X123673600Y-113350000I-176400J0D01*
G01*
X122826400Y-113350000D01*
G75*
G02*
X122650000Y-113173600I0J176400D01*
G01*
X122650000Y-112326400D01*
G75*
G02*
X122826400Y-112150000I176400J0D01*
G01*
X123673600Y-112150000D01*
G75*
G02*
X123850000Y-112326400I0J-176400D01*
G01*
G37*
G04 #@! TD.AperFunction*
X121750000Y-112750000D03*
X120250000Y-112750000D03*
G04 #@! TA.AperFunction,ComponentPad*
G36*
G01*
X117350000Y-112326400D02*
X117350000Y-113173600D01*
G75*
G02*
X117173600Y-113350000I-176400J0D01*
G01*
X116326400Y-113350000D01*
G75*
G02*
X116150000Y-113173600I0J176400D01*
G01*
X116150000Y-112326400D01*
G75*
G02*
X116326400Y-112150000I176400J0D01*
G01*
X117173600Y-112150000D01*
G75*
G02*
X117350000Y-112326400I0J-176400D01*
G01*
G37*
G04 #@! TD.AperFunction*
X115250000Y-112750000D03*
X113750000Y-112750000D03*
G04 #@! TA.AperFunction,ComponentPad*
G36*
G01*
X110850000Y-112326400D02*
X110850000Y-113173600D01*
G75*
G02*
X110673600Y-113350000I-176400J0D01*
G01*
X109826400Y-113350000D01*
G75*
G02*
X109650000Y-113173600I0J176400D01*
G01*
X109650000Y-112326400D01*
G75*
G02*
X109826400Y-112150000I176400J0D01*
G01*
X110673600Y-112150000D01*
G75*
G02*
X110850000Y-112326400I0J-176400D01*
G01*
G37*
G04 #@! TD.AperFunction*
X108750000Y-112750000D03*
X107250000Y-112750000D03*
G04 #@! TA.AperFunction,ComponentPad*
G36*
G01*
X104350000Y-112326400D02*
X104350000Y-113173600D01*
G75*
G02*
X104173600Y-113350000I-176400J0D01*
G01*
X103326400Y-113350000D01*
G75*
G02*
X103150000Y-113173600I0J176400D01*
G01*
X103150000Y-112326400D01*
G75*
G02*
X103326400Y-112150000I176400J0D01*
G01*
X104173600Y-112150000D01*
G75*
G02*
X104350000Y-112326400I0J-176400D01*
G01*
G37*
G04 #@! TD.AperFunction*
X102250000Y-112750000D03*
X100750000Y-112750000D03*
D13*
X148550000Y-69350000D03*
X153550000Y-69350000D03*
X158550000Y-79350000D03*
X156050000Y-81850000D03*
X143550000Y-79350000D03*
X146050000Y-81850000D03*
X151050000Y-79350000D03*
D14*
X184750000Y-75250000D03*
X199750000Y-100250000D03*
X102000000Y-100250000D03*
X117000000Y-75250000D03*
D15*
X192500000Y-88750000D03*
X144400000Y-87000000D03*
X119750000Y-90750000D03*
X106250000Y-90000000D03*
X124875000Y-81375000D03*
X133950000Y-79750000D03*
X110750000Y-87500000D03*
X188000000Y-88750000D03*
X188000000Y-88750000D03*
X156000000Y-88750000D03*
X171050000Y-78750000D03*
X176250000Y-81250000D03*
X176250000Y-103250000D03*
X198250000Y-108250000D03*
X122000000Y-93000000D03*
X123250000Y-106500000D03*
D16*
X198750000Y-69250000D02*
X199350000Y-69250000D01*
X100500000Y-78750000D02*
X100500000Y-73000000D01*
X102401472Y-72250000D02*
X103250000Y-72250000D01*
X101750000Y-91750000D02*
X100500000Y-90500000D01*
X103250000Y-91750000D02*
X101750000Y-91750000D01*
X100500000Y-85250000D02*
X103250000Y-85250000D01*
X100500000Y-78750000D02*
X103250000Y-78750000D01*
X100500000Y-90500000D02*
X100500000Y-85250000D01*
X100500000Y-73000000D02*
X101250000Y-72250000D01*
X101250000Y-72250000D02*
X102401472Y-72250000D01*
X100500000Y-85250000D02*
X100500000Y-78750000D01*
X190750000Y-87000000D02*
X192500000Y-88750000D01*
X130875000Y-75585000D02*
X130790000Y-75500000D01*
X130875000Y-79750000D02*
X130875000Y-75585000D01*
X159650000Y-80450000D02*
X158550000Y-79350000D01*
X159650000Y-87000000D02*
X159650000Y-80450000D01*
X159650000Y-87000000D02*
X190750000Y-87000000D01*
X132900000Y-75500000D02*
X130790000Y-75500000D01*
X144400000Y-87000000D02*
X132900000Y-75500000D01*
X159650000Y-87000000D02*
X144400000Y-87000000D01*
X119750000Y-90750000D02*
X102250000Y-108250000D01*
X102250000Y-110000000D02*
X102250000Y-112750000D01*
X102250000Y-108250000D02*
X102250000Y-110000000D01*
X199750000Y-111000000D02*
X199750000Y-112750000D01*
X198750000Y-110000000D02*
X199750000Y-111000000D01*
X193250000Y-110000000D02*
X193250000Y-112750000D01*
X193250000Y-110000000D02*
X198750000Y-110000000D01*
X186750000Y-110000000D02*
X186750000Y-112750000D01*
X186750000Y-110000000D02*
X193250000Y-110000000D01*
X180250000Y-110250000D02*
X180250000Y-112750000D01*
X180000000Y-110000000D02*
X186750000Y-110000000D01*
X180000000Y-110000000D02*
X180250000Y-110250000D01*
X173750000Y-110250000D02*
X173750000Y-112750000D01*
X174000000Y-110000000D02*
X173750000Y-110250000D01*
X174000000Y-110000000D02*
X180000000Y-110000000D01*
X167250000Y-110250000D02*
X167250000Y-112750000D01*
X167000000Y-110000000D02*
X167250000Y-110250000D01*
X167000000Y-110000000D02*
X174000000Y-110000000D01*
X160750000Y-110000000D02*
X160750000Y-112000000D01*
X160750000Y-112000000D02*
X160750000Y-112750000D01*
X160750000Y-110000000D02*
X167000000Y-110000000D01*
X154250000Y-110000000D02*
X160750000Y-110000000D01*
X154250000Y-110000000D02*
X154250000Y-112750000D01*
X147750000Y-113000000D02*
X147750000Y-112750000D01*
X147750000Y-110000000D02*
X147750000Y-113000000D01*
X147750000Y-110000000D02*
X154250000Y-110000000D01*
X141250000Y-110000000D02*
X141250000Y-112750000D01*
X141250000Y-110000000D02*
X147750000Y-110000000D01*
X134750000Y-110000000D02*
X141250000Y-110000000D01*
X134750000Y-110000000D02*
X134750000Y-112750000D01*
X128250000Y-110250000D02*
X128250000Y-112750000D01*
X128000000Y-110000000D02*
X128250000Y-110250000D01*
X128000000Y-110000000D02*
X134750000Y-110000000D01*
X121500000Y-110000000D02*
X121750000Y-110250000D01*
X121500000Y-110000000D02*
X128000000Y-110000000D01*
X121750000Y-110250000D02*
X121750000Y-112750000D01*
X115500000Y-110000000D02*
X115250000Y-110250000D01*
X115250000Y-110250000D02*
X115250000Y-112750000D01*
X115500000Y-110000000D02*
X121500000Y-110000000D01*
X108750000Y-110000000D02*
X108750000Y-112750000D01*
X108750000Y-110000000D02*
X115500000Y-110000000D01*
X102250000Y-110000000D02*
X108750000Y-110000000D01*
X195500000Y-89750000D02*
X196000000Y-90250000D01*
X198750000Y-70750000D02*
X196000000Y-70750000D01*
X196000000Y-90250000D02*
X198750000Y-90250000D01*
X196000000Y-70750000D02*
X195500000Y-71250000D01*
X195750000Y-83750000D02*
X198750000Y-83750000D01*
X195500000Y-83500000D02*
X195750000Y-83750000D01*
X195500000Y-77250000D02*
X195500000Y-83500000D01*
X195500000Y-77250000D02*
X198750000Y-77250000D01*
X195500000Y-71250000D02*
X195500000Y-77250000D01*
X106000000Y-70750000D02*
X106500000Y-71250000D01*
X106250000Y-83750000D02*
X103250000Y-83750000D01*
X106500000Y-71250000D02*
X106500000Y-77250000D01*
X106500000Y-77250000D02*
X106500000Y-83500000D01*
X106500000Y-83500000D02*
X106250000Y-83750000D01*
X106500000Y-83500000D02*
X106500000Y-89750000D01*
X103250000Y-70750000D02*
X106000000Y-70750000D01*
X106000000Y-90250000D02*
X103250000Y-90250000D01*
X106500000Y-77250000D02*
X103250000Y-77250000D01*
X106500000Y-89750000D02*
X106250000Y-90000000D01*
X106250000Y-90000000D02*
X106000000Y-90250000D01*
X195500000Y-90750000D02*
X196000000Y-90250000D01*
X119750000Y-90750000D02*
X195500000Y-90750000D01*
X195500000Y-85750000D02*
X195500000Y-89750000D01*
X195500000Y-83500000D02*
X195500000Y-85750000D01*
X178187500Y-85687500D02*
X178187500Y-79250000D01*
X178250000Y-85750000D02*
X178187500Y-85687500D01*
X195500000Y-85750000D02*
X178250000Y-85750000D01*
X173750000Y-85500000D02*
X173750000Y-81125000D01*
X173500000Y-85750000D02*
X173750000Y-85500000D01*
X178250000Y-85750000D02*
X173500000Y-85750000D01*
X123812500Y-71200000D02*
X123500000Y-71512500D01*
X123812500Y-70500000D02*
X123812500Y-71200000D01*
X123500000Y-71512500D02*
X123500000Y-80000000D01*
X124875000Y-81375000D02*
X128250000Y-81375000D01*
X123500000Y-80000000D02*
X124875000Y-81375000D01*
X132750000Y-80450000D02*
X132750000Y-79750000D01*
X131825000Y-81375000D02*
X132750000Y-80450000D01*
X128250000Y-81375000D02*
X131825000Y-81375000D01*
X132750000Y-79750000D02*
X133950000Y-79750000D01*
X153150000Y-77250000D02*
X151050000Y-79350000D01*
X165500000Y-85750000D02*
X161450000Y-81700000D01*
X161450000Y-78250000D02*
X160450000Y-77250000D01*
X160450000Y-77250000D02*
X153150000Y-77250000D01*
X161450000Y-81700000D02*
X161450000Y-78250000D01*
X173500000Y-85750000D02*
X165500000Y-85750000D01*
X169500000Y-70500000D02*
X157100000Y-70500000D01*
X151050000Y-76550000D02*
X151050000Y-79350000D01*
X157100000Y-70500000D02*
X151050000Y-76550000D01*
X199598528Y-72250000D02*
X198750000Y-72250000D01*
X200250000Y-91750000D02*
X201500000Y-90500000D01*
X198750000Y-91750000D02*
X200250000Y-91750000D01*
X201500000Y-73000000D02*
X200750000Y-72250000D01*
X200750000Y-72250000D02*
X199598528Y-72250000D01*
X201500000Y-85250000D02*
X198750000Y-85250000D01*
X201500000Y-90500000D02*
X201500000Y-85250000D01*
X201500000Y-78750000D02*
X198750000Y-78750000D01*
X201500000Y-78750000D02*
X201500000Y-73000000D01*
X201500000Y-85250000D02*
X201500000Y-78750000D01*
X118750000Y-88750000D02*
X112000000Y-88750000D01*
X112000000Y-88750000D02*
X110750000Y-87500000D01*
X166750000Y-88750000D02*
X188000000Y-88750000D01*
X118750000Y-88750000D02*
X156000000Y-88750000D01*
X156000000Y-88750000D02*
X166750000Y-88750000D01*
X173790000Y-79210000D02*
X173750000Y-79250000D01*
X173790000Y-75500000D02*
X173790000Y-79210000D01*
X173264473Y-78764473D02*
X170961543Y-78764473D01*
X173750000Y-79250000D02*
X173264473Y-78764473D01*
X171035527Y-78764473D02*
X171050000Y-78750000D01*
X170961543Y-78764473D02*
X171035527Y-78764473D01*
X100750000Y-112750000D02*
X100750000Y-114750000D01*
X100750000Y-114750000D02*
X101250000Y-115250000D01*
X198250000Y-114750000D02*
X198250000Y-112750000D01*
X197750000Y-115250000D02*
X198250000Y-114750000D01*
X191750000Y-113598528D02*
X191750000Y-115250000D01*
X191750000Y-112750000D02*
X191750000Y-113598528D01*
X191750000Y-115250000D02*
X197750000Y-115250000D01*
X185250000Y-115250000D02*
X185250000Y-112750000D01*
X185250000Y-115250000D02*
X191750000Y-115250000D01*
X178750000Y-115250000D02*
X185250000Y-115250000D01*
X178750000Y-115250000D02*
X178750000Y-112750000D01*
X172250000Y-115250000D02*
X172250000Y-112750000D01*
X172250000Y-115250000D02*
X178750000Y-115250000D01*
X165750000Y-115250000D02*
X172250000Y-115250000D01*
X165750000Y-115250000D02*
X165750000Y-112750000D01*
X159250000Y-115000000D02*
X159250000Y-112750000D01*
X159500000Y-115250000D02*
X159250000Y-115000000D01*
X159500000Y-115250000D02*
X165750000Y-115250000D01*
X152750000Y-115250000D02*
X152750000Y-112750000D01*
X152750000Y-115250000D02*
X159500000Y-115250000D01*
X146250000Y-115250000D02*
X146250000Y-112750000D01*
X146250000Y-115250000D02*
X152750000Y-115250000D01*
X139750000Y-115250000D02*
X139750000Y-112750000D01*
X139750000Y-115250000D02*
X146250000Y-115250000D01*
X133250000Y-115000000D02*
X133250000Y-112750000D01*
X133000000Y-115250000D02*
X139750000Y-115250000D01*
X133000000Y-115250000D02*
X133250000Y-115000000D01*
X126750000Y-115000000D02*
X126750000Y-112750000D01*
X127000000Y-115250000D02*
X133000000Y-115250000D01*
X127000000Y-115250000D02*
X126750000Y-115000000D01*
X120500000Y-115250000D02*
X120250000Y-115000000D01*
X120500000Y-115250000D02*
X127000000Y-115250000D01*
X120250000Y-115000000D02*
X120250000Y-112750000D01*
X113750000Y-115000000D02*
X113750000Y-112750000D01*
X114000000Y-115250000D02*
X113750000Y-115000000D01*
X114000000Y-115250000D02*
X120500000Y-115250000D01*
X107250000Y-115000000D02*
X107250000Y-112750000D01*
X107500000Y-115250000D02*
X107250000Y-115000000D01*
X107500000Y-115250000D02*
X114000000Y-115250000D01*
X101250000Y-115250000D02*
X107500000Y-115250000D01*
X176312500Y-75517500D02*
X176330000Y-75500000D01*
X176312500Y-79250000D02*
X176312500Y-75517500D01*
X174875000Y-70500000D02*
X175500000Y-70500000D01*
X176330000Y-71330000D02*
X176330000Y-75500000D01*
X175500000Y-70500000D02*
X176330000Y-71330000D01*
X176312500Y-79250000D02*
X176312500Y-81187500D01*
X176312500Y-81187500D02*
X176250000Y-81250000D01*
X198250000Y-108250000D02*
X198250000Y-105750000D01*
X195750000Y-103250000D02*
X176250000Y-103250000D01*
X198250000Y-105750000D02*
X195750000Y-103250000D01*
X128250000Y-79500000D02*
X128250000Y-75500000D01*
X128250000Y-75500000D02*
X128250000Y-73250000D01*
X129125000Y-72375000D02*
X129125000Y-70500000D01*
X128250000Y-73250000D02*
X129125000Y-72375000D01*
X122000000Y-93000000D02*
X122000000Y-105250000D01*
X122000000Y-105250000D02*
X123250000Y-106500000D01*
X171375000Y-70500000D02*
X173000000Y-70500000D01*
X171375000Y-75375000D02*
X171250000Y-75500000D01*
X171375000Y-70500000D02*
X171375000Y-75375000D01*
X127250000Y-70500000D02*
X125687500Y-70500000D01*
X125710000Y-70522500D02*
X125687500Y-70500000D01*
X125710000Y-75500000D02*
X125710000Y-70522500D01*
M02*
