G04 #@! TF.GenerationSoftware,KiCad,Pcbnew,5.1.5*
G04 #@! TF.CreationDate,2020-07-12T00:47:12+09:00*
G04 #@! TF.ProjectId,teabiscuits_power,74656162-6973-4637-9569-74735f706f77,rev?*
G04 #@! TF.SameCoordinates,Original*
G04 #@! TF.FileFunction,Soldermask,Bot*
G04 #@! TF.FilePolarity,Negative*
%FSLAX46Y46*%
G04 Gerber Fmt 4.6, Leading zero omitted, Abs format (unit mm)*
G04 Created by KiCad (PCBNEW 5.1.5) date 2020-07-12 00:47:12*
%MOMM*%
%LPD*%
G04 APERTURE LIST*
%ADD10C,0.100000*%
G04 APERTURE END LIST*
D10*
G36*
X152939890Y-112124017D02*
G01*
X153033769Y-112162903D01*
X153058364Y-112173091D01*
X153164988Y-112244335D01*
X153255665Y-112335012D01*
X153326909Y-112441636D01*
X153375315Y-112558497D01*
X153375983Y-112560111D01*
X153377403Y-112567249D01*
X153384516Y-112590698D01*
X153396067Y-112612309D01*
X153411612Y-112631251D01*
X153430554Y-112646797D01*
X153452164Y-112658348D01*
X153475613Y-112665461D01*
X153499999Y-112667863D01*
X153524385Y-112665461D01*
X153547834Y-112658348D01*
X153569445Y-112646797D01*
X153588387Y-112631252D01*
X153603933Y-112612310D01*
X153615484Y-112590700D01*
X153622597Y-112567249D01*
X153624017Y-112560111D01*
X153624686Y-112558497D01*
X153673091Y-112441636D01*
X153744335Y-112335012D01*
X153835012Y-112244335D01*
X153941636Y-112173091D01*
X153966232Y-112162903D01*
X154060110Y-112124017D01*
X154185881Y-112099000D01*
X154314119Y-112099000D01*
X154439890Y-112124017D01*
X154533769Y-112162903D01*
X154558364Y-112173091D01*
X154611035Y-112208285D01*
X154664988Y-112244335D01*
X154755665Y-112335012D01*
X154826910Y-112441638D01*
X154858517Y-112517944D01*
X154870068Y-112539555D01*
X154885613Y-112558497D01*
X154904555Y-112574042D01*
X154926166Y-112585593D01*
X154949615Y-112592706D01*
X154974001Y-112595108D01*
X154998387Y-112592706D01*
X155021836Y-112585593D01*
X155043447Y-112574042D01*
X155062389Y-112558497D01*
X155077934Y-112539555D01*
X155089485Y-112517944D01*
X155096598Y-112494495D01*
X155099000Y-112470109D01*
X155099000Y-112208285D01*
X155101575Y-112182138D01*
X155107410Y-112162903D01*
X155116884Y-112145178D01*
X155129638Y-112129638D01*
X155145178Y-112116884D01*
X155162903Y-112107410D01*
X155182138Y-112101575D01*
X155208285Y-112099000D01*
X156291715Y-112099000D01*
X156317862Y-112101575D01*
X156337097Y-112107410D01*
X156354822Y-112116884D01*
X156370362Y-112129638D01*
X156383116Y-112145178D01*
X156392590Y-112162903D01*
X156398425Y-112182138D01*
X156401000Y-112208285D01*
X156401000Y-113291715D01*
X156398425Y-113317862D01*
X156392590Y-113337097D01*
X156383116Y-113354822D01*
X156370362Y-113370362D01*
X156354822Y-113383116D01*
X156337097Y-113392590D01*
X156317862Y-113398425D01*
X156291715Y-113401000D01*
X155208285Y-113401000D01*
X155182138Y-113398425D01*
X155162903Y-113392590D01*
X155145178Y-113383116D01*
X155129638Y-113370362D01*
X155116884Y-113354822D01*
X155107410Y-113337097D01*
X155101575Y-113317862D01*
X155099000Y-113291715D01*
X155099000Y-113029891D01*
X155096598Y-113005505D01*
X155089485Y-112982056D01*
X155077934Y-112960445D01*
X155062389Y-112941503D01*
X155043447Y-112925958D01*
X155021836Y-112914407D01*
X154998387Y-112907294D01*
X154974001Y-112904892D01*
X154949615Y-112907294D01*
X154926166Y-112914407D01*
X154904555Y-112925958D01*
X154885613Y-112941503D01*
X154870068Y-112960445D01*
X154858517Y-112982055D01*
X154826909Y-113058364D01*
X154755665Y-113164988D01*
X154664988Y-113255665D01*
X154558364Y-113326909D01*
X154558363Y-113326910D01*
X154558362Y-113326910D01*
X154439890Y-113375983D01*
X154314119Y-113401000D01*
X154185881Y-113401000D01*
X154060110Y-113375983D01*
X153941638Y-113326910D01*
X153941637Y-113326910D01*
X153941636Y-113326909D01*
X153835012Y-113255665D01*
X153744335Y-113164988D01*
X153673091Y-113058364D01*
X153624017Y-112939890D01*
X153622597Y-112932751D01*
X153615484Y-112909302D01*
X153603933Y-112887691D01*
X153588388Y-112868749D01*
X153569446Y-112853203D01*
X153547836Y-112841652D01*
X153524387Y-112834539D01*
X153500001Y-112832137D01*
X153475615Y-112834539D01*
X153452166Y-112841652D01*
X153430555Y-112853203D01*
X153411613Y-112868748D01*
X153396067Y-112887690D01*
X153384516Y-112909300D01*
X153377403Y-112932751D01*
X153375983Y-112939890D01*
X153326909Y-113058364D01*
X153255665Y-113164988D01*
X153164988Y-113255665D01*
X153058364Y-113326909D01*
X153058363Y-113326910D01*
X153058362Y-113326910D01*
X152939890Y-113375983D01*
X152814119Y-113401000D01*
X152685881Y-113401000D01*
X152560110Y-113375983D01*
X152441638Y-113326910D01*
X152441637Y-113326910D01*
X152441636Y-113326909D01*
X152335012Y-113255665D01*
X152244335Y-113164988D01*
X152173091Y-113058364D01*
X152124017Y-112939890D01*
X152113634Y-112887690D01*
X152099000Y-112814119D01*
X152099000Y-112685881D01*
X152124017Y-112560110D01*
X152173090Y-112441638D01*
X152244335Y-112335012D01*
X152335012Y-112244335D01*
X152388965Y-112208285D01*
X152441636Y-112173091D01*
X152466232Y-112162903D01*
X152560110Y-112124017D01*
X152685881Y-112099000D01*
X152814119Y-112099000D01*
X152939890Y-112124017D01*
G37*
G36*
X100939890Y-112124017D02*
G01*
X101033769Y-112162903D01*
X101058364Y-112173091D01*
X101164988Y-112244335D01*
X101255665Y-112335012D01*
X101326909Y-112441636D01*
X101375315Y-112558497D01*
X101375983Y-112560111D01*
X101377403Y-112567249D01*
X101384516Y-112590698D01*
X101396067Y-112612309D01*
X101411612Y-112631251D01*
X101430554Y-112646797D01*
X101452164Y-112658348D01*
X101475613Y-112665461D01*
X101499999Y-112667863D01*
X101524385Y-112665461D01*
X101547834Y-112658348D01*
X101569445Y-112646797D01*
X101588387Y-112631252D01*
X101603933Y-112612310D01*
X101615484Y-112590700D01*
X101622597Y-112567249D01*
X101624017Y-112560111D01*
X101624686Y-112558497D01*
X101673091Y-112441636D01*
X101744335Y-112335012D01*
X101835012Y-112244335D01*
X101941636Y-112173091D01*
X101966232Y-112162903D01*
X102060110Y-112124017D01*
X102185881Y-112099000D01*
X102314119Y-112099000D01*
X102439890Y-112124017D01*
X102533769Y-112162903D01*
X102558364Y-112173091D01*
X102611035Y-112208285D01*
X102664988Y-112244335D01*
X102755665Y-112335012D01*
X102826910Y-112441638D01*
X102858517Y-112517944D01*
X102870068Y-112539555D01*
X102885613Y-112558497D01*
X102904555Y-112574042D01*
X102926166Y-112585593D01*
X102949615Y-112592706D01*
X102974001Y-112595108D01*
X102998387Y-112592706D01*
X103021836Y-112585593D01*
X103043447Y-112574042D01*
X103062389Y-112558497D01*
X103077934Y-112539555D01*
X103089485Y-112517944D01*
X103096598Y-112494495D01*
X103099000Y-112470109D01*
X103099000Y-112208285D01*
X103101575Y-112182138D01*
X103107410Y-112162903D01*
X103116884Y-112145178D01*
X103129638Y-112129638D01*
X103145178Y-112116884D01*
X103162903Y-112107410D01*
X103182138Y-112101575D01*
X103208285Y-112099000D01*
X104291715Y-112099000D01*
X104317862Y-112101575D01*
X104337097Y-112107410D01*
X104354822Y-112116884D01*
X104370362Y-112129638D01*
X104383116Y-112145178D01*
X104392590Y-112162903D01*
X104398425Y-112182138D01*
X104401000Y-112208285D01*
X104401000Y-113291715D01*
X104398425Y-113317862D01*
X104392590Y-113337097D01*
X104383116Y-113354822D01*
X104370362Y-113370362D01*
X104354822Y-113383116D01*
X104337097Y-113392590D01*
X104317862Y-113398425D01*
X104291715Y-113401000D01*
X103208285Y-113401000D01*
X103182138Y-113398425D01*
X103162903Y-113392590D01*
X103145178Y-113383116D01*
X103129638Y-113370362D01*
X103116884Y-113354822D01*
X103107410Y-113337097D01*
X103101575Y-113317862D01*
X103099000Y-113291715D01*
X103099000Y-113029891D01*
X103096598Y-113005505D01*
X103089485Y-112982056D01*
X103077934Y-112960445D01*
X103062389Y-112941503D01*
X103043447Y-112925958D01*
X103021836Y-112914407D01*
X102998387Y-112907294D01*
X102974001Y-112904892D01*
X102949615Y-112907294D01*
X102926166Y-112914407D01*
X102904555Y-112925958D01*
X102885613Y-112941503D01*
X102870068Y-112960445D01*
X102858517Y-112982055D01*
X102826909Y-113058364D01*
X102755665Y-113164988D01*
X102664988Y-113255665D01*
X102558364Y-113326909D01*
X102558363Y-113326910D01*
X102558362Y-113326910D01*
X102439890Y-113375983D01*
X102314119Y-113401000D01*
X102185881Y-113401000D01*
X102060110Y-113375983D01*
X101941638Y-113326910D01*
X101941637Y-113326910D01*
X101941636Y-113326909D01*
X101835012Y-113255665D01*
X101744335Y-113164988D01*
X101673091Y-113058364D01*
X101624017Y-112939890D01*
X101622597Y-112932751D01*
X101615484Y-112909302D01*
X101603933Y-112887691D01*
X101588388Y-112868749D01*
X101569446Y-112853203D01*
X101547836Y-112841652D01*
X101524387Y-112834539D01*
X101500001Y-112832137D01*
X101475615Y-112834539D01*
X101452166Y-112841652D01*
X101430555Y-112853203D01*
X101411613Y-112868748D01*
X101396067Y-112887690D01*
X101384516Y-112909300D01*
X101377403Y-112932751D01*
X101375983Y-112939890D01*
X101326909Y-113058364D01*
X101255665Y-113164988D01*
X101164988Y-113255665D01*
X101058364Y-113326909D01*
X101058363Y-113326910D01*
X101058362Y-113326910D01*
X100939890Y-113375983D01*
X100814119Y-113401000D01*
X100685881Y-113401000D01*
X100560110Y-113375983D01*
X100441638Y-113326910D01*
X100441637Y-113326910D01*
X100441636Y-113326909D01*
X100335012Y-113255665D01*
X100244335Y-113164988D01*
X100173091Y-113058364D01*
X100124017Y-112939890D01*
X100113634Y-112887690D01*
X100099000Y-112814119D01*
X100099000Y-112685881D01*
X100124017Y-112560110D01*
X100173090Y-112441638D01*
X100244335Y-112335012D01*
X100335012Y-112244335D01*
X100388965Y-112208285D01*
X100441636Y-112173091D01*
X100466232Y-112162903D01*
X100560110Y-112124017D01*
X100685881Y-112099000D01*
X100814119Y-112099000D01*
X100939890Y-112124017D01*
G37*
G36*
X159439890Y-112124017D02*
G01*
X159533769Y-112162903D01*
X159558364Y-112173091D01*
X159664988Y-112244335D01*
X159755665Y-112335012D01*
X159826909Y-112441636D01*
X159875315Y-112558497D01*
X159875983Y-112560111D01*
X159877403Y-112567249D01*
X159884516Y-112590698D01*
X159896067Y-112612309D01*
X159911612Y-112631251D01*
X159930554Y-112646797D01*
X159952164Y-112658348D01*
X159975613Y-112665461D01*
X159999999Y-112667863D01*
X160024385Y-112665461D01*
X160047834Y-112658348D01*
X160069445Y-112646797D01*
X160088387Y-112631252D01*
X160103933Y-112612310D01*
X160115484Y-112590700D01*
X160122597Y-112567249D01*
X160124017Y-112560111D01*
X160124686Y-112558497D01*
X160173091Y-112441636D01*
X160244335Y-112335012D01*
X160335012Y-112244335D01*
X160441636Y-112173091D01*
X160466232Y-112162903D01*
X160560110Y-112124017D01*
X160685881Y-112099000D01*
X160814119Y-112099000D01*
X160939890Y-112124017D01*
X161033769Y-112162903D01*
X161058364Y-112173091D01*
X161111035Y-112208285D01*
X161164988Y-112244335D01*
X161255665Y-112335012D01*
X161326910Y-112441638D01*
X161358517Y-112517944D01*
X161370068Y-112539555D01*
X161385613Y-112558497D01*
X161404555Y-112574042D01*
X161426166Y-112585593D01*
X161449615Y-112592706D01*
X161474001Y-112595108D01*
X161498387Y-112592706D01*
X161521836Y-112585593D01*
X161543447Y-112574042D01*
X161562389Y-112558497D01*
X161577934Y-112539555D01*
X161589485Y-112517944D01*
X161596598Y-112494495D01*
X161599000Y-112470109D01*
X161599000Y-112208285D01*
X161601575Y-112182138D01*
X161607410Y-112162903D01*
X161616884Y-112145178D01*
X161629638Y-112129638D01*
X161645178Y-112116884D01*
X161662903Y-112107410D01*
X161682138Y-112101575D01*
X161708285Y-112099000D01*
X162791715Y-112099000D01*
X162817862Y-112101575D01*
X162837097Y-112107410D01*
X162854822Y-112116884D01*
X162870362Y-112129638D01*
X162883116Y-112145178D01*
X162892590Y-112162903D01*
X162898425Y-112182138D01*
X162901000Y-112208285D01*
X162901000Y-113291715D01*
X162898425Y-113317862D01*
X162892590Y-113337097D01*
X162883116Y-113354822D01*
X162870362Y-113370362D01*
X162854822Y-113383116D01*
X162837097Y-113392590D01*
X162817862Y-113398425D01*
X162791715Y-113401000D01*
X161708285Y-113401000D01*
X161682138Y-113398425D01*
X161662903Y-113392590D01*
X161645178Y-113383116D01*
X161629638Y-113370362D01*
X161616884Y-113354822D01*
X161607410Y-113337097D01*
X161601575Y-113317862D01*
X161599000Y-113291715D01*
X161599000Y-113029891D01*
X161596598Y-113005505D01*
X161589485Y-112982056D01*
X161577934Y-112960445D01*
X161562389Y-112941503D01*
X161543447Y-112925958D01*
X161521836Y-112914407D01*
X161498387Y-112907294D01*
X161474001Y-112904892D01*
X161449615Y-112907294D01*
X161426166Y-112914407D01*
X161404555Y-112925958D01*
X161385613Y-112941503D01*
X161370068Y-112960445D01*
X161358517Y-112982055D01*
X161326909Y-113058364D01*
X161255665Y-113164988D01*
X161164988Y-113255665D01*
X161058364Y-113326909D01*
X161058363Y-113326910D01*
X161058362Y-113326910D01*
X160939890Y-113375983D01*
X160814119Y-113401000D01*
X160685881Y-113401000D01*
X160560110Y-113375983D01*
X160441638Y-113326910D01*
X160441637Y-113326910D01*
X160441636Y-113326909D01*
X160335012Y-113255665D01*
X160244335Y-113164988D01*
X160173091Y-113058364D01*
X160124017Y-112939890D01*
X160122597Y-112932751D01*
X160115484Y-112909302D01*
X160103933Y-112887691D01*
X160088388Y-112868749D01*
X160069446Y-112853203D01*
X160047836Y-112841652D01*
X160024387Y-112834539D01*
X160000001Y-112832137D01*
X159975615Y-112834539D01*
X159952166Y-112841652D01*
X159930555Y-112853203D01*
X159911613Y-112868748D01*
X159896067Y-112887690D01*
X159884516Y-112909300D01*
X159877403Y-112932751D01*
X159875983Y-112939890D01*
X159826909Y-113058364D01*
X159755665Y-113164988D01*
X159664988Y-113255665D01*
X159558364Y-113326909D01*
X159558363Y-113326910D01*
X159558362Y-113326910D01*
X159439890Y-113375983D01*
X159314119Y-113401000D01*
X159185881Y-113401000D01*
X159060110Y-113375983D01*
X158941638Y-113326910D01*
X158941637Y-113326910D01*
X158941636Y-113326909D01*
X158835012Y-113255665D01*
X158744335Y-113164988D01*
X158673091Y-113058364D01*
X158624017Y-112939890D01*
X158613634Y-112887690D01*
X158599000Y-112814119D01*
X158599000Y-112685881D01*
X158624017Y-112560110D01*
X158673090Y-112441638D01*
X158744335Y-112335012D01*
X158835012Y-112244335D01*
X158888965Y-112208285D01*
X158941636Y-112173091D01*
X158966232Y-112162903D01*
X159060110Y-112124017D01*
X159185881Y-112099000D01*
X159314119Y-112099000D01*
X159439890Y-112124017D01*
G37*
G36*
X133439890Y-112124017D02*
G01*
X133533769Y-112162903D01*
X133558364Y-112173091D01*
X133664988Y-112244335D01*
X133755665Y-112335012D01*
X133826909Y-112441636D01*
X133875315Y-112558497D01*
X133875983Y-112560111D01*
X133877403Y-112567249D01*
X133884516Y-112590698D01*
X133896067Y-112612309D01*
X133911612Y-112631251D01*
X133930554Y-112646797D01*
X133952164Y-112658348D01*
X133975613Y-112665461D01*
X133999999Y-112667863D01*
X134024385Y-112665461D01*
X134047834Y-112658348D01*
X134069445Y-112646797D01*
X134088387Y-112631252D01*
X134103933Y-112612310D01*
X134115484Y-112590700D01*
X134122597Y-112567249D01*
X134124017Y-112560111D01*
X134124686Y-112558497D01*
X134173091Y-112441636D01*
X134244335Y-112335012D01*
X134335012Y-112244335D01*
X134441636Y-112173091D01*
X134466232Y-112162903D01*
X134560110Y-112124017D01*
X134685881Y-112099000D01*
X134814119Y-112099000D01*
X134939890Y-112124017D01*
X135033769Y-112162903D01*
X135058364Y-112173091D01*
X135111035Y-112208285D01*
X135164988Y-112244335D01*
X135255665Y-112335012D01*
X135326910Y-112441638D01*
X135358517Y-112517944D01*
X135370068Y-112539555D01*
X135385613Y-112558497D01*
X135404555Y-112574042D01*
X135426166Y-112585593D01*
X135449615Y-112592706D01*
X135474001Y-112595108D01*
X135498387Y-112592706D01*
X135521836Y-112585593D01*
X135543447Y-112574042D01*
X135562389Y-112558497D01*
X135577934Y-112539555D01*
X135589485Y-112517944D01*
X135596598Y-112494495D01*
X135599000Y-112470109D01*
X135599000Y-112208285D01*
X135601575Y-112182138D01*
X135607410Y-112162903D01*
X135616884Y-112145178D01*
X135629638Y-112129638D01*
X135645178Y-112116884D01*
X135662903Y-112107410D01*
X135682138Y-112101575D01*
X135708285Y-112099000D01*
X136791715Y-112099000D01*
X136817862Y-112101575D01*
X136837097Y-112107410D01*
X136854822Y-112116884D01*
X136870362Y-112129638D01*
X136883116Y-112145178D01*
X136892590Y-112162903D01*
X136898425Y-112182138D01*
X136901000Y-112208285D01*
X136901000Y-113291715D01*
X136898425Y-113317862D01*
X136892590Y-113337097D01*
X136883116Y-113354822D01*
X136870362Y-113370362D01*
X136854822Y-113383116D01*
X136837097Y-113392590D01*
X136817862Y-113398425D01*
X136791715Y-113401000D01*
X135708285Y-113401000D01*
X135682138Y-113398425D01*
X135662903Y-113392590D01*
X135645178Y-113383116D01*
X135629638Y-113370362D01*
X135616884Y-113354822D01*
X135607410Y-113337097D01*
X135601575Y-113317862D01*
X135599000Y-113291715D01*
X135599000Y-113029891D01*
X135596598Y-113005505D01*
X135589485Y-112982056D01*
X135577934Y-112960445D01*
X135562389Y-112941503D01*
X135543447Y-112925958D01*
X135521836Y-112914407D01*
X135498387Y-112907294D01*
X135474001Y-112904892D01*
X135449615Y-112907294D01*
X135426166Y-112914407D01*
X135404555Y-112925958D01*
X135385613Y-112941503D01*
X135370068Y-112960445D01*
X135358517Y-112982055D01*
X135326909Y-113058364D01*
X135255665Y-113164988D01*
X135164988Y-113255665D01*
X135058364Y-113326909D01*
X135058363Y-113326910D01*
X135058362Y-113326910D01*
X134939890Y-113375983D01*
X134814119Y-113401000D01*
X134685881Y-113401000D01*
X134560110Y-113375983D01*
X134441638Y-113326910D01*
X134441637Y-113326910D01*
X134441636Y-113326909D01*
X134335012Y-113255665D01*
X134244335Y-113164988D01*
X134173091Y-113058364D01*
X134124017Y-112939890D01*
X134122597Y-112932751D01*
X134115484Y-112909302D01*
X134103933Y-112887691D01*
X134088388Y-112868749D01*
X134069446Y-112853203D01*
X134047836Y-112841652D01*
X134024387Y-112834539D01*
X134000001Y-112832137D01*
X133975615Y-112834539D01*
X133952166Y-112841652D01*
X133930555Y-112853203D01*
X133911613Y-112868748D01*
X133896067Y-112887690D01*
X133884516Y-112909300D01*
X133877403Y-112932751D01*
X133875983Y-112939890D01*
X133826909Y-113058364D01*
X133755665Y-113164988D01*
X133664988Y-113255665D01*
X133558364Y-113326909D01*
X133558363Y-113326910D01*
X133558362Y-113326910D01*
X133439890Y-113375983D01*
X133314119Y-113401000D01*
X133185881Y-113401000D01*
X133060110Y-113375983D01*
X132941638Y-113326910D01*
X132941637Y-113326910D01*
X132941636Y-113326909D01*
X132835012Y-113255665D01*
X132744335Y-113164988D01*
X132673091Y-113058364D01*
X132624017Y-112939890D01*
X132613634Y-112887690D01*
X132599000Y-112814119D01*
X132599000Y-112685881D01*
X132624017Y-112560110D01*
X132673090Y-112441638D01*
X132744335Y-112335012D01*
X132835012Y-112244335D01*
X132888965Y-112208285D01*
X132941636Y-112173091D01*
X132966232Y-112162903D01*
X133060110Y-112124017D01*
X133185881Y-112099000D01*
X133314119Y-112099000D01*
X133439890Y-112124017D01*
G37*
G36*
X139939890Y-112124017D02*
G01*
X140033769Y-112162903D01*
X140058364Y-112173091D01*
X140164988Y-112244335D01*
X140255665Y-112335012D01*
X140326909Y-112441636D01*
X140375315Y-112558497D01*
X140375983Y-112560111D01*
X140377403Y-112567249D01*
X140384516Y-112590698D01*
X140396067Y-112612309D01*
X140411612Y-112631251D01*
X140430554Y-112646797D01*
X140452164Y-112658348D01*
X140475613Y-112665461D01*
X140499999Y-112667863D01*
X140524385Y-112665461D01*
X140547834Y-112658348D01*
X140569445Y-112646797D01*
X140588387Y-112631252D01*
X140603933Y-112612310D01*
X140615484Y-112590700D01*
X140622597Y-112567249D01*
X140624017Y-112560111D01*
X140624686Y-112558497D01*
X140673091Y-112441636D01*
X140744335Y-112335012D01*
X140835012Y-112244335D01*
X140941636Y-112173091D01*
X140966232Y-112162903D01*
X141060110Y-112124017D01*
X141185881Y-112099000D01*
X141314119Y-112099000D01*
X141439890Y-112124017D01*
X141533769Y-112162903D01*
X141558364Y-112173091D01*
X141611035Y-112208285D01*
X141664988Y-112244335D01*
X141755665Y-112335012D01*
X141826910Y-112441638D01*
X141858517Y-112517944D01*
X141870068Y-112539555D01*
X141885613Y-112558497D01*
X141904555Y-112574042D01*
X141926166Y-112585593D01*
X141949615Y-112592706D01*
X141974001Y-112595108D01*
X141998387Y-112592706D01*
X142021836Y-112585593D01*
X142043447Y-112574042D01*
X142062389Y-112558497D01*
X142077934Y-112539555D01*
X142089485Y-112517944D01*
X142096598Y-112494495D01*
X142099000Y-112470109D01*
X142099000Y-112208285D01*
X142101575Y-112182138D01*
X142107410Y-112162903D01*
X142116884Y-112145178D01*
X142129638Y-112129638D01*
X142145178Y-112116884D01*
X142162903Y-112107410D01*
X142182138Y-112101575D01*
X142208285Y-112099000D01*
X143291715Y-112099000D01*
X143317862Y-112101575D01*
X143337097Y-112107410D01*
X143354822Y-112116884D01*
X143370362Y-112129638D01*
X143383116Y-112145178D01*
X143392590Y-112162903D01*
X143398425Y-112182138D01*
X143401000Y-112208285D01*
X143401000Y-113291715D01*
X143398425Y-113317862D01*
X143392590Y-113337097D01*
X143383116Y-113354822D01*
X143370362Y-113370362D01*
X143354822Y-113383116D01*
X143337097Y-113392590D01*
X143317862Y-113398425D01*
X143291715Y-113401000D01*
X142208285Y-113401000D01*
X142182138Y-113398425D01*
X142162903Y-113392590D01*
X142145178Y-113383116D01*
X142129638Y-113370362D01*
X142116884Y-113354822D01*
X142107410Y-113337097D01*
X142101575Y-113317862D01*
X142099000Y-113291715D01*
X142099000Y-113029891D01*
X142096598Y-113005505D01*
X142089485Y-112982056D01*
X142077934Y-112960445D01*
X142062389Y-112941503D01*
X142043447Y-112925958D01*
X142021836Y-112914407D01*
X141998387Y-112907294D01*
X141974001Y-112904892D01*
X141949615Y-112907294D01*
X141926166Y-112914407D01*
X141904555Y-112925958D01*
X141885613Y-112941503D01*
X141870068Y-112960445D01*
X141858517Y-112982055D01*
X141826909Y-113058364D01*
X141755665Y-113164988D01*
X141664988Y-113255665D01*
X141558364Y-113326909D01*
X141558363Y-113326910D01*
X141558362Y-113326910D01*
X141439890Y-113375983D01*
X141314119Y-113401000D01*
X141185881Y-113401000D01*
X141060110Y-113375983D01*
X140941638Y-113326910D01*
X140941637Y-113326910D01*
X140941636Y-113326909D01*
X140835012Y-113255665D01*
X140744335Y-113164988D01*
X140673091Y-113058364D01*
X140624017Y-112939890D01*
X140622597Y-112932751D01*
X140615484Y-112909302D01*
X140603933Y-112887691D01*
X140588388Y-112868749D01*
X140569446Y-112853203D01*
X140547836Y-112841652D01*
X140524387Y-112834539D01*
X140500001Y-112832137D01*
X140475615Y-112834539D01*
X140452166Y-112841652D01*
X140430555Y-112853203D01*
X140411613Y-112868748D01*
X140396067Y-112887690D01*
X140384516Y-112909300D01*
X140377403Y-112932751D01*
X140375983Y-112939890D01*
X140326909Y-113058364D01*
X140255665Y-113164988D01*
X140164988Y-113255665D01*
X140058364Y-113326909D01*
X140058363Y-113326910D01*
X140058362Y-113326910D01*
X139939890Y-113375983D01*
X139814119Y-113401000D01*
X139685881Y-113401000D01*
X139560110Y-113375983D01*
X139441638Y-113326910D01*
X139441637Y-113326910D01*
X139441636Y-113326909D01*
X139335012Y-113255665D01*
X139244335Y-113164988D01*
X139173091Y-113058364D01*
X139124017Y-112939890D01*
X139113634Y-112887690D01*
X139099000Y-112814119D01*
X139099000Y-112685881D01*
X139124017Y-112560110D01*
X139173090Y-112441638D01*
X139244335Y-112335012D01*
X139335012Y-112244335D01*
X139388965Y-112208285D01*
X139441636Y-112173091D01*
X139466232Y-112162903D01*
X139560110Y-112124017D01*
X139685881Y-112099000D01*
X139814119Y-112099000D01*
X139939890Y-112124017D01*
G37*
G36*
X146439890Y-112124017D02*
G01*
X146533769Y-112162903D01*
X146558364Y-112173091D01*
X146664988Y-112244335D01*
X146755665Y-112335012D01*
X146826909Y-112441636D01*
X146875315Y-112558497D01*
X146875983Y-112560111D01*
X146877403Y-112567249D01*
X146884516Y-112590698D01*
X146896067Y-112612309D01*
X146911612Y-112631251D01*
X146930554Y-112646797D01*
X146952164Y-112658348D01*
X146975613Y-112665461D01*
X146999999Y-112667863D01*
X147024385Y-112665461D01*
X147047834Y-112658348D01*
X147069445Y-112646797D01*
X147088387Y-112631252D01*
X147103933Y-112612310D01*
X147115484Y-112590700D01*
X147122597Y-112567249D01*
X147124017Y-112560111D01*
X147124686Y-112558497D01*
X147173091Y-112441636D01*
X147244335Y-112335012D01*
X147335012Y-112244335D01*
X147441636Y-112173091D01*
X147466232Y-112162903D01*
X147560110Y-112124017D01*
X147685881Y-112099000D01*
X147814119Y-112099000D01*
X147939890Y-112124017D01*
X148033769Y-112162903D01*
X148058364Y-112173091D01*
X148111035Y-112208285D01*
X148164988Y-112244335D01*
X148255665Y-112335012D01*
X148326910Y-112441638D01*
X148358517Y-112517944D01*
X148370068Y-112539555D01*
X148385613Y-112558497D01*
X148404555Y-112574042D01*
X148426166Y-112585593D01*
X148449615Y-112592706D01*
X148474001Y-112595108D01*
X148498387Y-112592706D01*
X148521836Y-112585593D01*
X148543447Y-112574042D01*
X148562389Y-112558497D01*
X148577934Y-112539555D01*
X148589485Y-112517944D01*
X148596598Y-112494495D01*
X148599000Y-112470109D01*
X148599000Y-112208285D01*
X148601575Y-112182138D01*
X148607410Y-112162903D01*
X148616884Y-112145178D01*
X148629638Y-112129638D01*
X148645178Y-112116884D01*
X148662903Y-112107410D01*
X148682138Y-112101575D01*
X148708285Y-112099000D01*
X149791715Y-112099000D01*
X149817862Y-112101575D01*
X149837097Y-112107410D01*
X149854822Y-112116884D01*
X149870362Y-112129638D01*
X149883116Y-112145178D01*
X149892590Y-112162903D01*
X149898425Y-112182138D01*
X149901000Y-112208285D01*
X149901000Y-113291715D01*
X149898425Y-113317862D01*
X149892590Y-113337097D01*
X149883116Y-113354822D01*
X149870362Y-113370362D01*
X149854822Y-113383116D01*
X149837097Y-113392590D01*
X149817862Y-113398425D01*
X149791715Y-113401000D01*
X148708285Y-113401000D01*
X148682138Y-113398425D01*
X148662903Y-113392590D01*
X148645178Y-113383116D01*
X148629638Y-113370362D01*
X148616884Y-113354822D01*
X148607410Y-113337097D01*
X148601575Y-113317862D01*
X148599000Y-113291715D01*
X148599000Y-113029891D01*
X148596598Y-113005505D01*
X148589485Y-112982056D01*
X148577934Y-112960445D01*
X148562389Y-112941503D01*
X148543447Y-112925958D01*
X148521836Y-112914407D01*
X148498387Y-112907294D01*
X148474001Y-112904892D01*
X148449615Y-112907294D01*
X148426166Y-112914407D01*
X148404555Y-112925958D01*
X148385613Y-112941503D01*
X148370068Y-112960445D01*
X148358517Y-112982055D01*
X148326909Y-113058364D01*
X148255665Y-113164988D01*
X148164988Y-113255665D01*
X148058364Y-113326909D01*
X148058363Y-113326910D01*
X148058362Y-113326910D01*
X147939890Y-113375983D01*
X147814119Y-113401000D01*
X147685881Y-113401000D01*
X147560110Y-113375983D01*
X147441638Y-113326910D01*
X147441637Y-113326910D01*
X147441636Y-113326909D01*
X147335012Y-113255665D01*
X147244335Y-113164988D01*
X147173091Y-113058364D01*
X147124017Y-112939890D01*
X147122597Y-112932751D01*
X147115484Y-112909302D01*
X147103933Y-112887691D01*
X147088388Y-112868749D01*
X147069446Y-112853203D01*
X147047836Y-112841652D01*
X147024387Y-112834539D01*
X147000001Y-112832137D01*
X146975615Y-112834539D01*
X146952166Y-112841652D01*
X146930555Y-112853203D01*
X146911613Y-112868748D01*
X146896067Y-112887690D01*
X146884516Y-112909300D01*
X146877403Y-112932751D01*
X146875983Y-112939890D01*
X146826909Y-113058364D01*
X146755665Y-113164988D01*
X146664988Y-113255665D01*
X146558364Y-113326909D01*
X146558363Y-113326910D01*
X146558362Y-113326910D01*
X146439890Y-113375983D01*
X146314119Y-113401000D01*
X146185881Y-113401000D01*
X146060110Y-113375983D01*
X145941638Y-113326910D01*
X145941637Y-113326910D01*
X145941636Y-113326909D01*
X145835012Y-113255665D01*
X145744335Y-113164988D01*
X145673091Y-113058364D01*
X145624017Y-112939890D01*
X145613634Y-112887690D01*
X145599000Y-112814119D01*
X145599000Y-112685881D01*
X145624017Y-112560110D01*
X145673090Y-112441638D01*
X145744335Y-112335012D01*
X145835012Y-112244335D01*
X145888965Y-112208285D01*
X145941636Y-112173091D01*
X145966232Y-112162903D01*
X146060110Y-112124017D01*
X146185881Y-112099000D01*
X146314119Y-112099000D01*
X146439890Y-112124017D01*
G37*
G36*
X107439890Y-112124017D02*
G01*
X107533769Y-112162903D01*
X107558364Y-112173091D01*
X107664988Y-112244335D01*
X107755665Y-112335012D01*
X107826909Y-112441636D01*
X107875315Y-112558497D01*
X107875983Y-112560111D01*
X107877403Y-112567249D01*
X107884516Y-112590698D01*
X107896067Y-112612309D01*
X107911612Y-112631251D01*
X107930554Y-112646797D01*
X107952164Y-112658348D01*
X107975613Y-112665461D01*
X107999999Y-112667863D01*
X108024385Y-112665461D01*
X108047834Y-112658348D01*
X108069445Y-112646797D01*
X108088387Y-112631252D01*
X108103933Y-112612310D01*
X108115484Y-112590700D01*
X108122597Y-112567249D01*
X108124017Y-112560111D01*
X108124686Y-112558497D01*
X108173091Y-112441636D01*
X108244335Y-112335012D01*
X108335012Y-112244335D01*
X108441636Y-112173091D01*
X108466232Y-112162903D01*
X108560110Y-112124017D01*
X108685881Y-112099000D01*
X108814119Y-112099000D01*
X108939890Y-112124017D01*
X109033769Y-112162903D01*
X109058364Y-112173091D01*
X109111035Y-112208285D01*
X109164988Y-112244335D01*
X109255665Y-112335012D01*
X109326910Y-112441638D01*
X109358517Y-112517944D01*
X109370068Y-112539555D01*
X109385613Y-112558497D01*
X109404555Y-112574042D01*
X109426166Y-112585593D01*
X109449615Y-112592706D01*
X109474001Y-112595108D01*
X109498387Y-112592706D01*
X109521836Y-112585593D01*
X109543447Y-112574042D01*
X109562389Y-112558497D01*
X109577934Y-112539555D01*
X109589485Y-112517944D01*
X109596598Y-112494495D01*
X109599000Y-112470109D01*
X109599000Y-112208285D01*
X109601575Y-112182138D01*
X109607410Y-112162903D01*
X109616884Y-112145178D01*
X109629638Y-112129638D01*
X109645178Y-112116884D01*
X109662903Y-112107410D01*
X109682138Y-112101575D01*
X109708285Y-112099000D01*
X110791715Y-112099000D01*
X110817862Y-112101575D01*
X110837097Y-112107410D01*
X110854822Y-112116884D01*
X110870362Y-112129638D01*
X110883116Y-112145178D01*
X110892590Y-112162903D01*
X110898425Y-112182138D01*
X110901000Y-112208285D01*
X110901000Y-113291715D01*
X110898425Y-113317862D01*
X110892590Y-113337097D01*
X110883116Y-113354822D01*
X110870362Y-113370362D01*
X110854822Y-113383116D01*
X110837097Y-113392590D01*
X110817862Y-113398425D01*
X110791715Y-113401000D01*
X109708285Y-113401000D01*
X109682138Y-113398425D01*
X109662903Y-113392590D01*
X109645178Y-113383116D01*
X109629638Y-113370362D01*
X109616884Y-113354822D01*
X109607410Y-113337097D01*
X109601575Y-113317862D01*
X109599000Y-113291715D01*
X109599000Y-113029891D01*
X109596598Y-113005505D01*
X109589485Y-112982056D01*
X109577934Y-112960445D01*
X109562389Y-112941503D01*
X109543447Y-112925958D01*
X109521836Y-112914407D01*
X109498387Y-112907294D01*
X109474001Y-112904892D01*
X109449615Y-112907294D01*
X109426166Y-112914407D01*
X109404555Y-112925958D01*
X109385613Y-112941503D01*
X109370068Y-112960445D01*
X109358517Y-112982055D01*
X109326909Y-113058364D01*
X109255665Y-113164988D01*
X109164988Y-113255665D01*
X109058364Y-113326909D01*
X109058363Y-113326910D01*
X109058362Y-113326910D01*
X108939890Y-113375983D01*
X108814119Y-113401000D01*
X108685881Y-113401000D01*
X108560110Y-113375983D01*
X108441638Y-113326910D01*
X108441637Y-113326910D01*
X108441636Y-113326909D01*
X108335012Y-113255665D01*
X108244335Y-113164988D01*
X108173091Y-113058364D01*
X108124017Y-112939890D01*
X108122597Y-112932751D01*
X108115484Y-112909302D01*
X108103933Y-112887691D01*
X108088388Y-112868749D01*
X108069446Y-112853203D01*
X108047836Y-112841652D01*
X108024387Y-112834539D01*
X108000001Y-112832137D01*
X107975615Y-112834539D01*
X107952166Y-112841652D01*
X107930555Y-112853203D01*
X107911613Y-112868748D01*
X107896067Y-112887690D01*
X107884516Y-112909300D01*
X107877403Y-112932751D01*
X107875983Y-112939890D01*
X107826909Y-113058364D01*
X107755665Y-113164988D01*
X107664988Y-113255665D01*
X107558364Y-113326909D01*
X107558363Y-113326910D01*
X107558362Y-113326910D01*
X107439890Y-113375983D01*
X107314119Y-113401000D01*
X107185881Y-113401000D01*
X107060110Y-113375983D01*
X106941638Y-113326910D01*
X106941637Y-113326910D01*
X106941636Y-113326909D01*
X106835012Y-113255665D01*
X106744335Y-113164988D01*
X106673091Y-113058364D01*
X106624017Y-112939890D01*
X106613634Y-112887690D01*
X106599000Y-112814119D01*
X106599000Y-112685881D01*
X106624017Y-112560110D01*
X106673090Y-112441638D01*
X106744335Y-112335012D01*
X106835012Y-112244335D01*
X106888965Y-112208285D01*
X106941636Y-112173091D01*
X106966232Y-112162903D01*
X107060110Y-112124017D01*
X107185881Y-112099000D01*
X107314119Y-112099000D01*
X107439890Y-112124017D01*
G37*
G36*
X165939890Y-112124017D02*
G01*
X166033769Y-112162903D01*
X166058364Y-112173091D01*
X166164988Y-112244335D01*
X166255665Y-112335012D01*
X166326909Y-112441636D01*
X166375315Y-112558497D01*
X166375983Y-112560111D01*
X166377403Y-112567249D01*
X166384516Y-112590698D01*
X166396067Y-112612309D01*
X166411612Y-112631251D01*
X166430554Y-112646797D01*
X166452164Y-112658348D01*
X166475613Y-112665461D01*
X166499999Y-112667863D01*
X166524385Y-112665461D01*
X166547834Y-112658348D01*
X166569445Y-112646797D01*
X166588387Y-112631252D01*
X166603933Y-112612310D01*
X166615484Y-112590700D01*
X166622597Y-112567249D01*
X166624017Y-112560111D01*
X166624686Y-112558497D01*
X166673091Y-112441636D01*
X166744335Y-112335012D01*
X166835012Y-112244335D01*
X166941636Y-112173091D01*
X166966232Y-112162903D01*
X167060110Y-112124017D01*
X167185881Y-112099000D01*
X167314119Y-112099000D01*
X167439890Y-112124017D01*
X167533769Y-112162903D01*
X167558364Y-112173091D01*
X167611035Y-112208285D01*
X167664988Y-112244335D01*
X167755665Y-112335012D01*
X167826910Y-112441638D01*
X167858517Y-112517944D01*
X167870068Y-112539555D01*
X167885613Y-112558497D01*
X167904555Y-112574042D01*
X167926166Y-112585593D01*
X167949615Y-112592706D01*
X167974001Y-112595108D01*
X167998387Y-112592706D01*
X168021836Y-112585593D01*
X168043447Y-112574042D01*
X168062389Y-112558497D01*
X168077934Y-112539555D01*
X168089485Y-112517944D01*
X168096598Y-112494495D01*
X168099000Y-112470109D01*
X168099000Y-112208285D01*
X168101575Y-112182138D01*
X168107410Y-112162903D01*
X168116884Y-112145178D01*
X168129638Y-112129638D01*
X168145178Y-112116884D01*
X168162903Y-112107410D01*
X168182138Y-112101575D01*
X168208285Y-112099000D01*
X169291715Y-112099000D01*
X169317862Y-112101575D01*
X169337097Y-112107410D01*
X169354822Y-112116884D01*
X169370362Y-112129638D01*
X169383116Y-112145178D01*
X169392590Y-112162903D01*
X169398425Y-112182138D01*
X169401000Y-112208285D01*
X169401000Y-113291715D01*
X169398425Y-113317862D01*
X169392590Y-113337097D01*
X169383116Y-113354822D01*
X169370362Y-113370362D01*
X169354822Y-113383116D01*
X169337097Y-113392590D01*
X169317862Y-113398425D01*
X169291715Y-113401000D01*
X168208285Y-113401000D01*
X168182138Y-113398425D01*
X168162903Y-113392590D01*
X168145178Y-113383116D01*
X168129638Y-113370362D01*
X168116884Y-113354822D01*
X168107410Y-113337097D01*
X168101575Y-113317862D01*
X168099000Y-113291715D01*
X168099000Y-113029891D01*
X168096598Y-113005505D01*
X168089485Y-112982056D01*
X168077934Y-112960445D01*
X168062389Y-112941503D01*
X168043447Y-112925958D01*
X168021836Y-112914407D01*
X167998387Y-112907294D01*
X167974001Y-112904892D01*
X167949615Y-112907294D01*
X167926166Y-112914407D01*
X167904555Y-112925958D01*
X167885613Y-112941503D01*
X167870068Y-112960445D01*
X167858517Y-112982055D01*
X167826909Y-113058364D01*
X167755665Y-113164988D01*
X167664988Y-113255665D01*
X167558364Y-113326909D01*
X167558363Y-113326910D01*
X167558362Y-113326910D01*
X167439890Y-113375983D01*
X167314119Y-113401000D01*
X167185881Y-113401000D01*
X167060110Y-113375983D01*
X166941638Y-113326910D01*
X166941637Y-113326910D01*
X166941636Y-113326909D01*
X166835012Y-113255665D01*
X166744335Y-113164988D01*
X166673091Y-113058364D01*
X166624017Y-112939890D01*
X166622597Y-112932751D01*
X166615484Y-112909302D01*
X166603933Y-112887691D01*
X166588388Y-112868749D01*
X166569446Y-112853203D01*
X166547836Y-112841652D01*
X166524387Y-112834539D01*
X166500001Y-112832137D01*
X166475615Y-112834539D01*
X166452166Y-112841652D01*
X166430555Y-112853203D01*
X166411613Y-112868748D01*
X166396067Y-112887690D01*
X166384516Y-112909300D01*
X166377403Y-112932751D01*
X166375983Y-112939890D01*
X166326909Y-113058364D01*
X166255665Y-113164988D01*
X166164988Y-113255665D01*
X166058364Y-113326909D01*
X166058363Y-113326910D01*
X166058362Y-113326910D01*
X165939890Y-113375983D01*
X165814119Y-113401000D01*
X165685881Y-113401000D01*
X165560110Y-113375983D01*
X165441638Y-113326910D01*
X165441637Y-113326910D01*
X165441636Y-113326909D01*
X165335012Y-113255665D01*
X165244335Y-113164988D01*
X165173091Y-113058364D01*
X165124017Y-112939890D01*
X165113634Y-112887690D01*
X165099000Y-112814119D01*
X165099000Y-112685881D01*
X165124017Y-112560110D01*
X165173090Y-112441638D01*
X165244335Y-112335012D01*
X165335012Y-112244335D01*
X165388965Y-112208285D01*
X165441636Y-112173091D01*
X165466232Y-112162903D01*
X165560110Y-112124017D01*
X165685881Y-112099000D01*
X165814119Y-112099000D01*
X165939890Y-112124017D01*
G37*
G36*
X172439890Y-112124017D02*
G01*
X172533769Y-112162903D01*
X172558364Y-112173091D01*
X172664988Y-112244335D01*
X172755665Y-112335012D01*
X172826909Y-112441636D01*
X172875315Y-112558497D01*
X172875983Y-112560111D01*
X172877403Y-112567249D01*
X172884516Y-112590698D01*
X172896067Y-112612309D01*
X172911612Y-112631251D01*
X172930554Y-112646797D01*
X172952164Y-112658348D01*
X172975613Y-112665461D01*
X172999999Y-112667863D01*
X173024385Y-112665461D01*
X173047834Y-112658348D01*
X173069445Y-112646797D01*
X173088387Y-112631252D01*
X173103933Y-112612310D01*
X173115484Y-112590700D01*
X173122597Y-112567249D01*
X173124017Y-112560111D01*
X173124686Y-112558497D01*
X173173091Y-112441636D01*
X173244335Y-112335012D01*
X173335012Y-112244335D01*
X173441636Y-112173091D01*
X173466232Y-112162903D01*
X173560110Y-112124017D01*
X173685881Y-112099000D01*
X173814119Y-112099000D01*
X173939890Y-112124017D01*
X174033769Y-112162903D01*
X174058364Y-112173091D01*
X174111035Y-112208285D01*
X174164988Y-112244335D01*
X174255665Y-112335012D01*
X174326910Y-112441638D01*
X174358517Y-112517944D01*
X174370068Y-112539555D01*
X174385613Y-112558497D01*
X174404555Y-112574042D01*
X174426166Y-112585593D01*
X174449615Y-112592706D01*
X174474001Y-112595108D01*
X174498387Y-112592706D01*
X174521836Y-112585593D01*
X174543447Y-112574042D01*
X174562389Y-112558497D01*
X174577934Y-112539555D01*
X174589485Y-112517944D01*
X174596598Y-112494495D01*
X174599000Y-112470109D01*
X174599000Y-112208285D01*
X174601575Y-112182138D01*
X174607410Y-112162903D01*
X174616884Y-112145178D01*
X174629638Y-112129638D01*
X174645178Y-112116884D01*
X174662903Y-112107410D01*
X174682138Y-112101575D01*
X174708285Y-112099000D01*
X175791715Y-112099000D01*
X175817862Y-112101575D01*
X175837097Y-112107410D01*
X175854822Y-112116884D01*
X175870362Y-112129638D01*
X175883116Y-112145178D01*
X175892590Y-112162903D01*
X175898425Y-112182138D01*
X175901000Y-112208285D01*
X175901000Y-113291715D01*
X175898425Y-113317862D01*
X175892590Y-113337097D01*
X175883116Y-113354822D01*
X175870362Y-113370362D01*
X175854822Y-113383116D01*
X175837097Y-113392590D01*
X175817862Y-113398425D01*
X175791715Y-113401000D01*
X174708285Y-113401000D01*
X174682138Y-113398425D01*
X174662903Y-113392590D01*
X174645178Y-113383116D01*
X174629638Y-113370362D01*
X174616884Y-113354822D01*
X174607410Y-113337097D01*
X174601575Y-113317862D01*
X174599000Y-113291715D01*
X174599000Y-113029891D01*
X174596598Y-113005505D01*
X174589485Y-112982056D01*
X174577934Y-112960445D01*
X174562389Y-112941503D01*
X174543447Y-112925958D01*
X174521836Y-112914407D01*
X174498387Y-112907294D01*
X174474001Y-112904892D01*
X174449615Y-112907294D01*
X174426166Y-112914407D01*
X174404555Y-112925958D01*
X174385613Y-112941503D01*
X174370068Y-112960445D01*
X174358517Y-112982055D01*
X174326909Y-113058364D01*
X174255665Y-113164988D01*
X174164988Y-113255665D01*
X174058364Y-113326909D01*
X174058363Y-113326910D01*
X174058362Y-113326910D01*
X173939890Y-113375983D01*
X173814119Y-113401000D01*
X173685881Y-113401000D01*
X173560110Y-113375983D01*
X173441638Y-113326910D01*
X173441637Y-113326910D01*
X173441636Y-113326909D01*
X173335012Y-113255665D01*
X173244335Y-113164988D01*
X173173091Y-113058364D01*
X173124017Y-112939890D01*
X173122597Y-112932751D01*
X173115484Y-112909302D01*
X173103933Y-112887691D01*
X173088388Y-112868749D01*
X173069446Y-112853203D01*
X173047836Y-112841652D01*
X173024387Y-112834539D01*
X173000001Y-112832137D01*
X172975615Y-112834539D01*
X172952166Y-112841652D01*
X172930555Y-112853203D01*
X172911613Y-112868748D01*
X172896067Y-112887690D01*
X172884516Y-112909300D01*
X172877403Y-112932751D01*
X172875983Y-112939890D01*
X172826909Y-113058364D01*
X172755665Y-113164988D01*
X172664988Y-113255665D01*
X172558364Y-113326909D01*
X172558363Y-113326910D01*
X172558362Y-113326910D01*
X172439890Y-113375983D01*
X172314119Y-113401000D01*
X172185881Y-113401000D01*
X172060110Y-113375983D01*
X171941638Y-113326910D01*
X171941637Y-113326910D01*
X171941636Y-113326909D01*
X171835012Y-113255665D01*
X171744335Y-113164988D01*
X171673091Y-113058364D01*
X171624017Y-112939890D01*
X171613634Y-112887690D01*
X171599000Y-112814119D01*
X171599000Y-112685881D01*
X171624017Y-112560110D01*
X171673090Y-112441638D01*
X171744335Y-112335012D01*
X171835012Y-112244335D01*
X171888965Y-112208285D01*
X171941636Y-112173091D01*
X171966232Y-112162903D01*
X172060110Y-112124017D01*
X172185881Y-112099000D01*
X172314119Y-112099000D01*
X172439890Y-112124017D01*
G37*
G36*
X178939890Y-112124017D02*
G01*
X179033769Y-112162903D01*
X179058364Y-112173091D01*
X179164988Y-112244335D01*
X179255665Y-112335012D01*
X179326909Y-112441636D01*
X179375315Y-112558497D01*
X179375983Y-112560111D01*
X179377403Y-112567249D01*
X179384516Y-112590698D01*
X179396067Y-112612309D01*
X179411612Y-112631251D01*
X179430554Y-112646797D01*
X179452164Y-112658348D01*
X179475613Y-112665461D01*
X179499999Y-112667863D01*
X179524385Y-112665461D01*
X179547834Y-112658348D01*
X179569445Y-112646797D01*
X179588387Y-112631252D01*
X179603933Y-112612310D01*
X179615484Y-112590700D01*
X179622597Y-112567249D01*
X179624017Y-112560111D01*
X179624686Y-112558497D01*
X179673091Y-112441636D01*
X179744335Y-112335012D01*
X179835012Y-112244335D01*
X179941636Y-112173091D01*
X179966232Y-112162903D01*
X180060110Y-112124017D01*
X180185881Y-112099000D01*
X180314119Y-112099000D01*
X180439890Y-112124017D01*
X180533769Y-112162903D01*
X180558364Y-112173091D01*
X180611035Y-112208285D01*
X180664988Y-112244335D01*
X180755665Y-112335012D01*
X180826910Y-112441638D01*
X180858517Y-112517944D01*
X180870068Y-112539555D01*
X180885613Y-112558497D01*
X180904555Y-112574042D01*
X180926166Y-112585593D01*
X180949615Y-112592706D01*
X180974001Y-112595108D01*
X180998387Y-112592706D01*
X181021836Y-112585593D01*
X181043447Y-112574042D01*
X181062389Y-112558497D01*
X181077934Y-112539555D01*
X181089485Y-112517944D01*
X181096598Y-112494495D01*
X181099000Y-112470109D01*
X181099000Y-112208285D01*
X181101575Y-112182138D01*
X181107410Y-112162903D01*
X181116884Y-112145178D01*
X181129638Y-112129638D01*
X181145178Y-112116884D01*
X181162903Y-112107410D01*
X181182138Y-112101575D01*
X181208285Y-112099000D01*
X182291715Y-112099000D01*
X182317862Y-112101575D01*
X182337097Y-112107410D01*
X182354822Y-112116884D01*
X182370362Y-112129638D01*
X182383116Y-112145178D01*
X182392590Y-112162903D01*
X182398425Y-112182138D01*
X182401000Y-112208285D01*
X182401000Y-113291715D01*
X182398425Y-113317862D01*
X182392590Y-113337097D01*
X182383116Y-113354822D01*
X182370362Y-113370362D01*
X182354822Y-113383116D01*
X182337097Y-113392590D01*
X182317862Y-113398425D01*
X182291715Y-113401000D01*
X181208285Y-113401000D01*
X181182138Y-113398425D01*
X181162903Y-113392590D01*
X181145178Y-113383116D01*
X181129638Y-113370362D01*
X181116884Y-113354822D01*
X181107410Y-113337097D01*
X181101575Y-113317862D01*
X181099000Y-113291715D01*
X181099000Y-113029891D01*
X181096598Y-113005505D01*
X181089485Y-112982056D01*
X181077934Y-112960445D01*
X181062389Y-112941503D01*
X181043447Y-112925958D01*
X181021836Y-112914407D01*
X180998387Y-112907294D01*
X180974001Y-112904892D01*
X180949615Y-112907294D01*
X180926166Y-112914407D01*
X180904555Y-112925958D01*
X180885613Y-112941503D01*
X180870068Y-112960445D01*
X180858517Y-112982055D01*
X180826909Y-113058364D01*
X180755665Y-113164988D01*
X180664988Y-113255665D01*
X180558364Y-113326909D01*
X180558363Y-113326910D01*
X180558362Y-113326910D01*
X180439890Y-113375983D01*
X180314119Y-113401000D01*
X180185881Y-113401000D01*
X180060110Y-113375983D01*
X179941638Y-113326910D01*
X179941637Y-113326910D01*
X179941636Y-113326909D01*
X179835012Y-113255665D01*
X179744335Y-113164988D01*
X179673091Y-113058364D01*
X179624017Y-112939890D01*
X179622597Y-112932751D01*
X179615484Y-112909302D01*
X179603933Y-112887691D01*
X179588388Y-112868749D01*
X179569446Y-112853203D01*
X179547836Y-112841652D01*
X179524387Y-112834539D01*
X179500001Y-112832137D01*
X179475615Y-112834539D01*
X179452166Y-112841652D01*
X179430555Y-112853203D01*
X179411613Y-112868748D01*
X179396067Y-112887690D01*
X179384516Y-112909300D01*
X179377403Y-112932751D01*
X179375983Y-112939890D01*
X179326909Y-113058364D01*
X179255665Y-113164988D01*
X179164988Y-113255665D01*
X179058364Y-113326909D01*
X179058363Y-113326910D01*
X179058362Y-113326910D01*
X178939890Y-113375983D01*
X178814119Y-113401000D01*
X178685881Y-113401000D01*
X178560110Y-113375983D01*
X178441638Y-113326910D01*
X178441637Y-113326910D01*
X178441636Y-113326909D01*
X178335012Y-113255665D01*
X178244335Y-113164988D01*
X178173091Y-113058364D01*
X178124017Y-112939890D01*
X178113634Y-112887690D01*
X178099000Y-112814119D01*
X178099000Y-112685881D01*
X178124017Y-112560110D01*
X178173090Y-112441638D01*
X178244335Y-112335012D01*
X178335012Y-112244335D01*
X178388965Y-112208285D01*
X178441636Y-112173091D01*
X178466232Y-112162903D01*
X178560110Y-112124017D01*
X178685881Y-112099000D01*
X178814119Y-112099000D01*
X178939890Y-112124017D01*
G37*
G36*
X185439890Y-112124017D02*
G01*
X185533769Y-112162903D01*
X185558364Y-112173091D01*
X185664988Y-112244335D01*
X185755665Y-112335012D01*
X185826909Y-112441636D01*
X185875315Y-112558497D01*
X185875983Y-112560111D01*
X185877403Y-112567249D01*
X185884516Y-112590698D01*
X185896067Y-112612309D01*
X185911612Y-112631251D01*
X185930554Y-112646797D01*
X185952164Y-112658348D01*
X185975613Y-112665461D01*
X185999999Y-112667863D01*
X186024385Y-112665461D01*
X186047834Y-112658348D01*
X186069445Y-112646797D01*
X186088387Y-112631252D01*
X186103933Y-112612310D01*
X186115484Y-112590700D01*
X186122597Y-112567249D01*
X186124017Y-112560111D01*
X186124686Y-112558497D01*
X186173091Y-112441636D01*
X186244335Y-112335012D01*
X186335012Y-112244335D01*
X186441636Y-112173091D01*
X186466232Y-112162903D01*
X186560110Y-112124017D01*
X186685881Y-112099000D01*
X186814119Y-112099000D01*
X186939890Y-112124017D01*
X187033769Y-112162903D01*
X187058364Y-112173091D01*
X187111035Y-112208285D01*
X187164988Y-112244335D01*
X187255665Y-112335012D01*
X187326910Y-112441638D01*
X187358517Y-112517944D01*
X187370068Y-112539555D01*
X187385613Y-112558497D01*
X187404555Y-112574042D01*
X187426166Y-112585593D01*
X187449615Y-112592706D01*
X187474001Y-112595108D01*
X187498387Y-112592706D01*
X187521836Y-112585593D01*
X187543447Y-112574042D01*
X187562389Y-112558497D01*
X187577934Y-112539555D01*
X187589485Y-112517944D01*
X187596598Y-112494495D01*
X187599000Y-112470109D01*
X187599000Y-112208285D01*
X187601575Y-112182138D01*
X187607410Y-112162903D01*
X187616884Y-112145178D01*
X187629638Y-112129638D01*
X187645178Y-112116884D01*
X187662903Y-112107410D01*
X187682138Y-112101575D01*
X187708285Y-112099000D01*
X188791715Y-112099000D01*
X188817862Y-112101575D01*
X188837097Y-112107410D01*
X188854822Y-112116884D01*
X188870362Y-112129638D01*
X188883116Y-112145178D01*
X188892590Y-112162903D01*
X188898425Y-112182138D01*
X188901000Y-112208285D01*
X188901000Y-113291715D01*
X188898425Y-113317862D01*
X188892590Y-113337097D01*
X188883116Y-113354822D01*
X188870362Y-113370362D01*
X188854822Y-113383116D01*
X188837097Y-113392590D01*
X188817862Y-113398425D01*
X188791715Y-113401000D01*
X187708285Y-113401000D01*
X187682138Y-113398425D01*
X187662903Y-113392590D01*
X187645178Y-113383116D01*
X187629638Y-113370362D01*
X187616884Y-113354822D01*
X187607410Y-113337097D01*
X187601575Y-113317862D01*
X187599000Y-113291715D01*
X187599000Y-113029891D01*
X187596598Y-113005505D01*
X187589485Y-112982056D01*
X187577934Y-112960445D01*
X187562389Y-112941503D01*
X187543447Y-112925958D01*
X187521836Y-112914407D01*
X187498387Y-112907294D01*
X187474001Y-112904892D01*
X187449615Y-112907294D01*
X187426166Y-112914407D01*
X187404555Y-112925958D01*
X187385613Y-112941503D01*
X187370068Y-112960445D01*
X187358517Y-112982055D01*
X187326909Y-113058364D01*
X187255665Y-113164988D01*
X187164988Y-113255665D01*
X187058364Y-113326909D01*
X187058363Y-113326910D01*
X187058362Y-113326910D01*
X186939890Y-113375983D01*
X186814119Y-113401000D01*
X186685881Y-113401000D01*
X186560110Y-113375983D01*
X186441638Y-113326910D01*
X186441637Y-113326910D01*
X186441636Y-113326909D01*
X186335012Y-113255665D01*
X186244335Y-113164988D01*
X186173091Y-113058364D01*
X186124017Y-112939890D01*
X186122597Y-112932751D01*
X186115484Y-112909302D01*
X186103933Y-112887691D01*
X186088388Y-112868749D01*
X186069446Y-112853203D01*
X186047836Y-112841652D01*
X186024387Y-112834539D01*
X186000001Y-112832137D01*
X185975615Y-112834539D01*
X185952166Y-112841652D01*
X185930555Y-112853203D01*
X185911613Y-112868748D01*
X185896067Y-112887690D01*
X185884516Y-112909300D01*
X185877403Y-112932751D01*
X185875983Y-112939890D01*
X185826909Y-113058364D01*
X185755665Y-113164988D01*
X185664988Y-113255665D01*
X185558364Y-113326909D01*
X185558363Y-113326910D01*
X185558362Y-113326910D01*
X185439890Y-113375983D01*
X185314119Y-113401000D01*
X185185881Y-113401000D01*
X185060110Y-113375983D01*
X184941638Y-113326910D01*
X184941637Y-113326910D01*
X184941636Y-113326909D01*
X184835012Y-113255665D01*
X184744335Y-113164988D01*
X184673091Y-113058364D01*
X184624017Y-112939890D01*
X184613634Y-112887690D01*
X184599000Y-112814119D01*
X184599000Y-112685881D01*
X184624017Y-112560110D01*
X184673090Y-112441638D01*
X184744335Y-112335012D01*
X184835012Y-112244335D01*
X184888965Y-112208285D01*
X184941636Y-112173091D01*
X184966232Y-112162903D01*
X185060110Y-112124017D01*
X185185881Y-112099000D01*
X185314119Y-112099000D01*
X185439890Y-112124017D01*
G37*
G36*
X113939890Y-112124017D02*
G01*
X114033769Y-112162903D01*
X114058364Y-112173091D01*
X114164988Y-112244335D01*
X114255665Y-112335012D01*
X114326909Y-112441636D01*
X114375315Y-112558497D01*
X114375983Y-112560111D01*
X114377403Y-112567249D01*
X114384516Y-112590698D01*
X114396067Y-112612309D01*
X114411612Y-112631251D01*
X114430554Y-112646797D01*
X114452164Y-112658348D01*
X114475613Y-112665461D01*
X114499999Y-112667863D01*
X114524385Y-112665461D01*
X114547834Y-112658348D01*
X114569445Y-112646797D01*
X114588387Y-112631252D01*
X114603933Y-112612310D01*
X114615484Y-112590700D01*
X114622597Y-112567249D01*
X114624017Y-112560111D01*
X114624686Y-112558497D01*
X114673091Y-112441636D01*
X114744335Y-112335012D01*
X114835012Y-112244335D01*
X114941636Y-112173091D01*
X114966232Y-112162903D01*
X115060110Y-112124017D01*
X115185881Y-112099000D01*
X115314119Y-112099000D01*
X115439890Y-112124017D01*
X115533769Y-112162903D01*
X115558364Y-112173091D01*
X115611035Y-112208285D01*
X115664988Y-112244335D01*
X115755665Y-112335012D01*
X115826910Y-112441638D01*
X115858517Y-112517944D01*
X115870068Y-112539555D01*
X115885613Y-112558497D01*
X115904555Y-112574042D01*
X115926166Y-112585593D01*
X115949615Y-112592706D01*
X115974001Y-112595108D01*
X115998387Y-112592706D01*
X116021836Y-112585593D01*
X116043447Y-112574042D01*
X116062389Y-112558497D01*
X116077934Y-112539555D01*
X116089485Y-112517944D01*
X116096598Y-112494495D01*
X116099000Y-112470109D01*
X116099000Y-112208285D01*
X116101575Y-112182138D01*
X116107410Y-112162903D01*
X116116884Y-112145178D01*
X116129638Y-112129638D01*
X116145178Y-112116884D01*
X116162903Y-112107410D01*
X116182138Y-112101575D01*
X116208285Y-112099000D01*
X117291715Y-112099000D01*
X117317862Y-112101575D01*
X117337097Y-112107410D01*
X117354822Y-112116884D01*
X117370362Y-112129638D01*
X117383116Y-112145178D01*
X117392590Y-112162903D01*
X117398425Y-112182138D01*
X117401000Y-112208285D01*
X117401000Y-113291715D01*
X117398425Y-113317862D01*
X117392590Y-113337097D01*
X117383116Y-113354822D01*
X117370362Y-113370362D01*
X117354822Y-113383116D01*
X117337097Y-113392590D01*
X117317862Y-113398425D01*
X117291715Y-113401000D01*
X116208285Y-113401000D01*
X116182138Y-113398425D01*
X116162903Y-113392590D01*
X116145178Y-113383116D01*
X116129638Y-113370362D01*
X116116884Y-113354822D01*
X116107410Y-113337097D01*
X116101575Y-113317862D01*
X116099000Y-113291715D01*
X116099000Y-113029891D01*
X116096598Y-113005505D01*
X116089485Y-112982056D01*
X116077934Y-112960445D01*
X116062389Y-112941503D01*
X116043447Y-112925958D01*
X116021836Y-112914407D01*
X115998387Y-112907294D01*
X115974001Y-112904892D01*
X115949615Y-112907294D01*
X115926166Y-112914407D01*
X115904555Y-112925958D01*
X115885613Y-112941503D01*
X115870068Y-112960445D01*
X115858517Y-112982055D01*
X115826909Y-113058364D01*
X115755665Y-113164988D01*
X115664988Y-113255665D01*
X115558364Y-113326909D01*
X115558363Y-113326910D01*
X115558362Y-113326910D01*
X115439890Y-113375983D01*
X115314119Y-113401000D01*
X115185881Y-113401000D01*
X115060110Y-113375983D01*
X114941638Y-113326910D01*
X114941637Y-113326910D01*
X114941636Y-113326909D01*
X114835012Y-113255665D01*
X114744335Y-113164988D01*
X114673091Y-113058364D01*
X114624017Y-112939890D01*
X114622597Y-112932751D01*
X114615484Y-112909302D01*
X114603933Y-112887691D01*
X114588388Y-112868749D01*
X114569446Y-112853203D01*
X114547836Y-112841652D01*
X114524387Y-112834539D01*
X114500001Y-112832137D01*
X114475615Y-112834539D01*
X114452166Y-112841652D01*
X114430555Y-112853203D01*
X114411613Y-112868748D01*
X114396067Y-112887690D01*
X114384516Y-112909300D01*
X114377403Y-112932751D01*
X114375983Y-112939890D01*
X114326909Y-113058364D01*
X114255665Y-113164988D01*
X114164988Y-113255665D01*
X114058364Y-113326909D01*
X114058363Y-113326910D01*
X114058362Y-113326910D01*
X113939890Y-113375983D01*
X113814119Y-113401000D01*
X113685881Y-113401000D01*
X113560110Y-113375983D01*
X113441638Y-113326910D01*
X113441637Y-113326910D01*
X113441636Y-113326909D01*
X113335012Y-113255665D01*
X113244335Y-113164988D01*
X113173091Y-113058364D01*
X113124017Y-112939890D01*
X113113634Y-112887690D01*
X113099000Y-112814119D01*
X113099000Y-112685881D01*
X113124017Y-112560110D01*
X113173090Y-112441638D01*
X113244335Y-112335012D01*
X113335012Y-112244335D01*
X113388965Y-112208285D01*
X113441636Y-112173091D01*
X113466232Y-112162903D01*
X113560110Y-112124017D01*
X113685881Y-112099000D01*
X113814119Y-112099000D01*
X113939890Y-112124017D01*
G37*
G36*
X191939890Y-112124017D02*
G01*
X192033769Y-112162903D01*
X192058364Y-112173091D01*
X192164988Y-112244335D01*
X192255665Y-112335012D01*
X192326909Y-112441636D01*
X192375315Y-112558497D01*
X192375983Y-112560111D01*
X192377403Y-112567249D01*
X192384516Y-112590698D01*
X192396067Y-112612309D01*
X192411612Y-112631251D01*
X192430554Y-112646797D01*
X192452164Y-112658348D01*
X192475613Y-112665461D01*
X192499999Y-112667863D01*
X192524385Y-112665461D01*
X192547834Y-112658348D01*
X192569445Y-112646797D01*
X192588387Y-112631252D01*
X192603933Y-112612310D01*
X192615484Y-112590700D01*
X192622597Y-112567249D01*
X192624017Y-112560111D01*
X192624686Y-112558497D01*
X192673091Y-112441636D01*
X192744335Y-112335012D01*
X192835012Y-112244335D01*
X192941636Y-112173091D01*
X192966232Y-112162903D01*
X193060110Y-112124017D01*
X193185881Y-112099000D01*
X193314119Y-112099000D01*
X193439890Y-112124017D01*
X193533769Y-112162903D01*
X193558364Y-112173091D01*
X193611035Y-112208285D01*
X193664988Y-112244335D01*
X193755665Y-112335012D01*
X193826910Y-112441638D01*
X193858517Y-112517944D01*
X193870068Y-112539555D01*
X193885613Y-112558497D01*
X193904555Y-112574042D01*
X193926166Y-112585593D01*
X193949615Y-112592706D01*
X193974001Y-112595108D01*
X193998387Y-112592706D01*
X194021836Y-112585593D01*
X194043447Y-112574042D01*
X194062389Y-112558497D01*
X194077934Y-112539555D01*
X194089485Y-112517944D01*
X194096598Y-112494495D01*
X194099000Y-112470109D01*
X194099000Y-112208285D01*
X194101575Y-112182138D01*
X194107410Y-112162903D01*
X194116884Y-112145178D01*
X194129638Y-112129638D01*
X194145178Y-112116884D01*
X194162903Y-112107410D01*
X194182138Y-112101575D01*
X194208285Y-112099000D01*
X195291715Y-112099000D01*
X195317862Y-112101575D01*
X195337097Y-112107410D01*
X195354822Y-112116884D01*
X195370362Y-112129638D01*
X195383116Y-112145178D01*
X195392590Y-112162903D01*
X195398425Y-112182138D01*
X195401000Y-112208285D01*
X195401000Y-113291715D01*
X195398425Y-113317862D01*
X195392590Y-113337097D01*
X195383116Y-113354822D01*
X195370362Y-113370362D01*
X195354822Y-113383116D01*
X195337097Y-113392590D01*
X195317862Y-113398425D01*
X195291715Y-113401000D01*
X194208285Y-113401000D01*
X194182138Y-113398425D01*
X194162903Y-113392590D01*
X194145178Y-113383116D01*
X194129638Y-113370362D01*
X194116884Y-113354822D01*
X194107410Y-113337097D01*
X194101575Y-113317862D01*
X194099000Y-113291715D01*
X194099000Y-113029891D01*
X194096598Y-113005505D01*
X194089485Y-112982056D01*
X194077934Y-112960445D01*
X194062389Y-112941503D01*
X194043447Y-112925958D01*
X194021836Y-112914407D01*
X193998387Y-112907294D01*
X193974001Y-112904892D01*
X193949615Y-112907294D01*
X193926166Y-112914407D01*
X193904555Y-112925958D01*
X193885613Y-112941503D01*
X193870068Y-112960445D01*
X193858517Y-112982055D01*
X193826909Y-113058364D01*
X193755665Y-113164988D01*
X193664988Y-113255665D01*
X193558364Y-113326909D01*
X193558363Y-113326910D01*
X193558362Y-113326910D01*
X193439890Y-113375983D01*
X193314119Y-113401000D01*
X193185881Y-113401000D01*
X193060110Y-113375983D01*
X192941638Y-113326910D01*
X192941637Y-113326910D01*
X192941636Y-113326909D01*
X192835012Y-113255665D01*
X192744335Y-113164988D01*
X192673091Y-113058364D01*
X192624017Y-112939890D01*
X192622597Y-112932751D01*
X192615484Y-112909302D01*
X192603933Y-112887691D01*
X192588388Y-112868749D01*
X192569446Y-112853203D01*
X192547836Y-112841652D01*
X192524387Y-112834539D01*
X192500001Y-112832137D01*
X192475615Y-112834539D01*
X192452166Y-112841652D01*
X192430555Y-112853203D01*
X192411613Y-112868748D01*
X192396067Y-112887690D01*
X192384516Y-112909300D01*
X192377403Y-112932751D01*
X192375983Y-112939890D01*
X192326909Y-113058364D01*
X192255665Y-113164988D01*
X192164988Y-113255665D01*
X192058364Y-113326909D01*
X192058363Y-113326910D01*
X192058362Y-113326910D01*
X191939890Y-113375983D01*
X191814119Y-113401000D01*
X191685881Y-113401000D01*
X191560110Y-113375983D01*
X191441638Y-113326910D01*
X191441637Y-113326910D01*
X191441636Y-113326909D01*
X191335012Y-113255665D01*
X191244335Y-113164988D01*
X191173091Y-113058364D01*
X191124017Y-112939890D01*
X191113634Y-112887690D01*
X191099000Y-112814119D01*
X191099000Y-112685881D01*
X191124017Y-112560110D01*
X191173090Y-112441638D01*
X191244335Y-112335012D01*
X191335012Y-112244335D01*
X191388965Y-112208285D01*
X191441636Y-112173091D01*
X191466232Y-112162903D01*
X191560110Y-112124017D01*
X191685881Y-112099000D01*
X191814119Y-112099000D01*
X191939890Y-112124017D01*
G37*
G36*
X198439890Y-112124017D02*
G01*
X198533769Y-112162903D01*
X198558364Y-112173091D01*
X198664988Y-112244335D01*
X198755665Y-112335012D01*
X198826909Y-112441636D01*
X198875315Y-112558497D01*
X198875983Y-112560111D01*
X198877403Y-112567249D01*
X198884516Y-112590698D01*
X198896067Y-112612309D01*
X198911612Y-112631251D01*
X198930554Y-112646797D01*
X198952164Y-112658348D01*
X198975613Y-112665461D01*
X198999999Y-112667863D01*
X199024385Y-112665461D01*
X199047834Y-112658348D01*
X199069445Y-112646797D01*
X199088387Y-112631252D01*
X199103933Y-112612310D01*
X199115484Y-112590700D01*
X199122597Y-112567249D01*
X199124017Y-112560111D01*
X199124686Y-112558497D01*
X199173091Y-112441636D01*
X199244335Y-112335012D01*
X199335012Y-112244335D01*
X199441636Y-112173091D01*
X199466232Y-112162903D01*
X199560110Y-112124017D01*
X199685881Y-112099000D01*
X199814119Y-112099000D01*
X199939890Y-112124017D01*
X200033769Y-112162903D01*
X200058364Y-112173091D01*
X200111035Y-112208285D01*
X200164988Y-112244335D01*
X200255665Y-112335012D01*
X200326910Y-112441638D01*
X200358517Y-112517944D01*
X200370068Y-112539555D01*
X200385613Y-112558497D01*
X200404555Y-112574042D01*
X200426166Y-112585593D01*
X200449615Y-112592706D01*
X200474001Y-112595108D01*
X200498387Y-112592706D01*
X200521836Y-112585593D01*
X200543447Y-112574042D01*
X200562389Y-112558497D01*
X200577934Y-112539555D01*
X200589485Y-112517944D01*
X200596598Y-112494495D01*
X200599000Y-112470109D01*
X200599000Y-112208285D01*
X200601575Y-112182138D01*
X200607410Y-112162903D01*
X200616884Y-112145178D01*
X200629638Y-112129638D01*
X200645178Y-112116884D01*
X200662903Y-112107410D01*
X200682138Y-112101575D01*
X200708285Y-112099000D01*
X201791715Y-112099000D01*
X201817862Y-112101575D01*
X201837097Y-112107410D01*
X201854822Y-112116884D01*
X201870362Y-112129638D01*
X201883116Y-112145178D01*
X201892590Y-112162903D01*
X201898425Y-112182138D01*
X201901000Y-112208285D01*
X201901000Y-113291715D01*
X201898425Y-113317862D01*
X201892590Y-113337097D01*
X201883116Y-113354822D01*
X201870362Y-113370362D01*
X201854822Y-113383116D01*
X201837097Y-113392590D01*
X201817862Y-113398425D01*
X201791715Y-113401000D01*
X200708285Y-113401000D01*
X200682138Y-113398425D01*
X200662903Y-113392590D01*
X200645178Y-113383116D01*
X200629638Y-113370362D01*
X200616884Y-113354822D01*
X200607410Y-113337097D01*
X200601575Y-113317862D01*
X200599000Y-113291715D01*
X200599000Y-113029891D01*
X200596598Y-113005505D01*
X200589485Y-112982056D01*
X200577934Y-112960445D01*
X200562389Y-112941503D01*
X200543447Y-112925958D01*
X200521836Y-112914407D01*
X200498387Y-112907294D01*
X200474001Y-112904892D01*
X200449615Y-112907294D01*
X200426166Y-112914407D01*
X200404555Y-112925958D01*
X200385613Y-112941503D01*
X200370068Y-112960445D01*
X200358517Y-112982055D01*
X200326909Y-113058364D01*
X200255665Y-113164988D01*
X200164988Y-113255665D01*
X200058364Y-113326909D01*
X200058363Y-113326910D01*
X200058362Y-113326910D01*
X199939890Y-113375983D01*
X199814119Y-113401000D01*
X199685881Y-113401000D01*
X199560110Y-113375983D01*
X199441638Y-113326910D01*
X199441637Y-113326910D01*
X199441636Y-113326909D01*
X199335012Y-113255665D01*
X199244335Y-113164988D01*
X199173091Y-113058364D01*
X199124017Y-112939890D01*
X199122597Y-112932751D01*
X199115484Y-112909302D01*
X199103933Y-112887691D01*
X199088388Y-112868749D01*
X199069446Y-112853203D01*
X199047836Y-112841652D01*
X199024387Y-112834539D01*
X199000001Y-112832137D01*
X198975615Y-112834539D01*
X198952166Y-112841652D01*
X198930555Y-112853203D01*
X198911613Y-112868748D01*
X198896067Y-112887690D01*
X198884516Y-112909300D01*
X198877403Y-112932751D01*
X198875983Y-112939890D01*
X198826909Y-113058364D01*
X198755665Y-113164988D01*
X198664988Y-113255665D01*
X198558364Y-113326909D01*
X198558363Y-113326910D01*
X198558362Y-113326910D01*
X198439890Y-113375983D01*
X198314119Y-113401000D01*
X198185881Y-113401000D01*
X198060110Y-113375983D01*
X197941638Y-113326910D01*
X197941637Y-113326910D01*
X197941636Y-113326909D01*
X197835012Y-113255665D01*
X197744335Y-113164988D01*
X197673091Y-113058364D01*
X197624017Y-112939890D01*
X197613634Y-112887690D01*
X197599000Y-112814119D01*
X197599000Y-112685881D01*
X197624017Y-112560110D01*
X197673090Y-112441638D01*
X197744335Y-112335012D01*
X197835012Y-112244335D01*
X197888965Y-112208285D01*
X197941636Y-112173091D01*
X197966232Y-112162903D01*
X198060110Y-112124017D01*
X198185881Y-112099000D01*
X198314119Y-112099000D01*
X198439890Y-112124017D01*
G37*
G36*
X126939890Y-112124017D02*
G01*
X127033769Y-112162903D01*
X127058364Y-112173091D01*
X127164988Y-112244335D01*
X127255665Y-112335012D01*
X127326909Y-112441636D01*
X127375315Y-112558497D01*
X127375983Y-112560111D01*
X127377403Y-112567249D01*
X127384516Y-112590698D01*
X127396067Y-112612309D01*
X127411612Y-112631251D01*
X127430554Y-112646797D01*
X127452164Y-112658348D01*
X127475613Y-112665461D01*
X127499999Y-112667863D01*
X127524385Y-112665461D01*
X127547834Y-112658348D01*
X127569445Y-112646797D01*
X127588387Y-112631252D01*
X127603933Y-112612310D01*
X127615484Y-112590700D01*
X127622597Y-112567249D01*
X127624017Y-112560111D01*
X127624686Y-112558497D01*
X127673091Y-112441636D01*
X127744335Y-112335012D01*
X127835012Y-112244335D01*
X127941636Y-112173091D01*
X127966232Y-112162903D01*
X128060110Y-112124017D01*
X128185881Y-112099000D01*
X128314119Y-112099000D01*
X128439890Y-112124017D01*
X128533769Y-112162903D01*
X128558364Y-112173091D01*
X128611035Y-112208285D01*
X128664988Y-112244335D01*
X128755665Y-112335012D01*
X128826910Y-112441638D01*
X128858517Y-112517944D01*
X128870068Y-112539555D01*
X128885613Y-112558497D01*
X128904555Y-112574042D01*
X128926166Y-112585593D01*
X128949615Y-112592706D01*
X128974001Y-112595108D01*
X128998387Y-112592706D01*
X129021836Y-112585593D01*
X129043447Y-112574042D01*
X129062389Y-112558497D01*
X129077934Y-112539555D01*
X129089485Y-112517944D01*
X129096598Y-112494495D01*
X129099000Y-112470109D01*
X129099000Y-112208285D01*
X129101575Y-112182138D01*
X129107410Y-112162903D01*
X129116884Y-112145178D01*
X129129638Y-112129638D01*
X129145178Y-112116884D01*
X129162903Y-112107410D01*
X129182138Y-112101575D01*
X129208285Y-112099000D01*
X130291715Y-112099000D01*
X130317862Y-112101575D01*
X130337097Y-112107410D01*
X130354822Y-112116884D01*
X130370362Y-112129638D01*
X130383116Y-112145178D01*
X130392590Y-112162903D01*
X130398425Y-112182138D01*
X130401000Y-112208285D01*
X130401000Y-113291715D01*
X130398425Y-113317862D01*
X130392590Y-113337097D01*
X130383116Y-113354822D01*
X130370362Y-113370362D01*
X130354822Y-113383116D01*
X130337097Y-113392590D01*
X130317862Y-113398425D01*
X130291715Y-113401000D01*
X129208285Y-113401000D01*
X129182138Y-113398425D01*
X129162903Y-113392590D01*
X129145178Y-113383116D01*
X129129638Y-113370362D01*
X129116884Y-113354822D01*
X129107410Y-113337097D01*
X129101575Y-113317862D01*
X129099000Y-113291715D01*
X129099000Y-113029891D01*
X129096598Y-113005505D01*
X129089485Y-112982056D01*
X129077934Y-112960445D01*
X129062389Y-112941503D01*
X129043447Y-112925958D01*
X129021836Y-112914407D01*
X128998387Y-112907294D01*
X128974001Y-112904892D01*
X128949615Y-112907294D01*
X128926166Y-112914407D01*
X128904555Y-112925958D01*
X128885613Y-112941503D01*
X128870068Y-112960445D01*
X128858517Y-112982055D01*
X128826909Y-113058364D01*
X128755665Y-113164988D01*
X128664988Y-113255665D01*
X128558364Y-113326909D01*
X128558363Y-113326910D01*
X128558362Y-113326910D01*
X128439890Y-113375983D01*
X128314119Y-113401000D01*
X128185881Y-113401000D01*
X128060110Y-113375983D01*
X127941638Y-113326910D01*
X127941637Y-113326910D01*
X127941636Y-113326909D01*
X127835012Y-113255665D01*
X127744335Y-113164988D01*
X127673091Y-113058364D01*
X127624017Y-112939890D01*
X127622597Y-112932751D01*
X127615484Y-112909302D01*
X127603933Y-112887691D01*
X127588388Y-112868749D01*
X127569446Y-112853203D01*
X127547836Y-112841652D01*
X127524387Y-112834539D01*
X127500001Y-112832137D01*
X127475615Y-112834539D01*
X127452166Y-112841652D01*
X127430555Y-112853203D01*
X127411613Y-112868748D01*
X127396067Y-112887690D01*
X127384516Y-112909300D01*
X127377403Y-112932751D01*
X127375983Y-112939890D01*
X127326909Y-113058364D01*
X127255665Y-113164988D01*
X127164988Y-113255665D01*
X127058364Y-113326909D01*
X127058363Y-113326910D01*
X127058362Y-113326910D01*
X126939890Y-113375983D01*
X126814119Y-113401000D01*
X126685881Y-113401000D01*
X126560110Y-113375983D01*
X126441638Y-113326910D01*
X126441637Y-113326910D01*
X126441636Y-113326909D01*
X126335012Y-113255665D01*
X126244335Y-113164988D01*
X126173091Y-113058364D01*
X126124017Y-112939890D01*
X126113634Y-112887690D01*
X126099000Y-112814119D01*
X126099000Y-112685881D01*
X126124017Y-112560110D01*
X126173090Y-112441638D01*
X126244335Y-112335012D01*
X126335012Y-112244335D01*
X126388965Y-112208285D01*
X126441636Y-112173091D01*
X126466232Y-112162903D01*
X126560110Y-112124017D01*
X126685881Y-112099000D01*
X126814119Y-112099000D01*
X126939890Y-112124017D01*
G37*
G36*
X120439890Y-112124017D02*
G01*
X120533769Y-112162903D01*
X120558364Y-112173091D01*
X120664988Y-112244335D01*
X120755665Y-112335012D01*
X120826909Y-112441636D01*
X120875315Y-112558497D01*
X120875983Y-112560111D01*
X120877403Y-112567249D01*
X120884516Y-112590698D01*
X120896067Y-112612309D01*
X120911612Y-112631251D01*
X120930554Y-112646797D01*
X120952164Y-112658348D01*
X120975613Y-112665461D01*
X120999999Y-112667863D01*
X121024385Y-112665461D01*
X121047834Y-112658348D01*
X121069445Y-112646797D01*
X121088387Y-112631252D01*
X121103933Y-112612310D01*
X121115484Y-112590700D01*
X121122597Y-112567249D01*
X121124017Y-112560111D01*
X121124686Y-112558497D01*
X121173091Y-112441636D01*
X121244335Y-112335012D01*
X121335012Y-112244335D01*
X121441636Y-112173091D01*
X121466232Y-112162903D01*
X121560110Y-112124017D01*
X121685881Y-112099000D01*
X121814119Y-112099000D01*
X121939890Y-112124017D01*
X122033769Y-112162903D01*
X122058364Y-112173091D01*
X122111035Y-112208285D01*
X122164988Y-112244335D01*
X122255665Y-112335012D01*
X122326910Y-112441638D01*
X122358517Y-112517944D01*
X122370068Y-112539555D01*
X122385613Y-112558497D01*
X122404555Y-112574042D01*
X122426166Y-112585593D01*
X122449615Y-112592706D01*
X122474001Y-112595108D01*
X122498387Y-112592706D01*
X122521836Y-112585593D01*
X122543447Y-112574042D01*
X122562389Y-112558497D01*
X122577934Y-112539555D01*
X122589485Y-112517944D01*
X122596598Y-112494495D01*
X122599000Y-112470109D01*
X122599000Y-112208285D01*
X122601575Y-112182138D01*
X122607410Y-112162903D01*
X122616884Y-112145178D01*
X122629638Y-112129638D01*
X122645178Y-112116884D01*
X122662903Y-112107410D01*
X122682138Y-112101575D01*
X122708285Y-112099000D01*
X123791715Y-112099000D01*
X123817862Y-112101575D01*
X123837097Y-112107410D01*
X123854822Y-112116884D01*
X123870362Y-112129638D01*
X123883116Y-112145178D01*
X123892590Y-112162903D01*
X123898425Y-112182138D01*
X123901000Y-112208285D01*
X123901000Y-113291715D01*
X123898425Y-113317862D01*
X123892590Y-113337097D01*
X123883116Y-113354822D01*
X123870362Y-113370362D01*
X123854822Y-113383116D01*
X123837097Y-113392590D01*
X123817862Y-113398425D01*
X123791715Y-113401000D01*
X122708285Y-113401000D01*
X122682138Y-113398425D01*
X122662903Y-113392590D01*
X122645178Y-113383116D01*
X122629638Y-113370362D01*
X122616884Y-113354822D01*
X122607410Y-113337097D01*
X122601575Y-113317862D01*
X122599000Y-113291715D01*
X122599000Y-113029891D01*
X122596598Y-113005505D01*
X122589485Y-112982056D01*
X122577934Y-112960445D01*
X122562389Y-112941503D01*
X122543447Y-112925958D01*
X122521836Y-112914407D01*
X122498387Y-112907294D01*
X122474001Y-112904892D01*
X122449615Y-112907294D01*
X122426166Y-112914407D01*
X122404555Y-112925958D01*
X122385613Y-112941503D01*
X122370068Y-112960445D01*
X122358517Y-112982055D01*
X122326909Y-113058364D01*
X122255665Y-113164988D01*
X122164988Y-113255665D01*
X122058364Y-113326909D01*
X122058363Y-113326910D01*
X122058362Y-113326910D01*
X121939890Y-113375983D01*
X121814119Y-113401000D01*
X121685881Y-113401000D01*
X121560110Y-113375983D01*
X121441638Y-113326910D01*
X121441637Y-113326910D01*
X121441636Y-113326909D01*
X121335012Y-113255665D01*
X121244335Y-113164988D01*
X121173091Y-113058364D01*
X121124017Y-112939890D01*
X121122597Y-112932751D01*
X121115484Y-112909302D01*
X121103933Y-112887691D01*
X121088388Y-112868749D01*
X121069446Y-112853203D01*
X121047836Y-112841652D01*
X121024387Y-112834539D01*
X121000001Y-112832137D01*
X120975615Y-112834539D01*
X120952166Y-112841652D01*
X120930555Y-112853203D01*
X120911613Y-112868748D01*
X120896067Y-112887690D01*
X120884516Y-112909300D01*
X120877403Y-112932751D01*
X120875983Y-112939890D01*
X120826909Y-113058364D01*
X120755665Y-113164988D01*
X120664988Y-113255665D01*
X120558364Y-113326909D01*
X120558363Y-113326910D01*
X120558362Y-113326910D01*
X120439890Y-113375983D01*
X120314119Y-113401000D01*
X120185881Y-113401000D01*
X120060110Y-113375983D01*
X119941638Y-113326910D01*
X119941637Y-113326910D01*
X119941636Y-113326909D01*
X119835012Y-113255665D01*
X119744335Y-113164988D01*
X119673091Y-113058364D01*
X119624017Y-112939890D01*
X119613634Y-112887690D01*
X119599000Y-112814119D01*
X119599000Y-112685881D01*
X119624017Y-112560110D01*
X119673090Y-112441638D01*
X119744335Y-112335012D01*
X119835012Y-112244335D01*
X119888965Y-112208285D01*
X119941636Y-112173091D01*
X119966232Y-112162903D01*
X120060110Y-112124017D01*
X120185881Y-112099000D01*
X120314119Y-112099000D01*
X120439890Y-112124017D01*
G37*
G36*
X199317862Y-88101575D02*
G01*
X199337097Y-88107410D01*
X199354822Y-88116884D01*
X199370362Y-88129638D01*
X199383116Y-88145178D01*
X199392590Y-88162903D01*
X199398425Y-88182138D01*
X199401000Y-88208285D01*
X199401000Y-89291715D01*
X199398425Y-89317862D01*
X199392590Y-89337097D01*
X199383116Y-89354822D01*
X199370362Y-89370362D01*
X199354822Y-89383116D01*
X199337097Y-89392590D01*
X199317862Y-89398425D01*
X199291715Y-89401000D01*
X199029891Y-89401000D01*
X199005505Y-89403402D01*
X198982056Y-89410515D01*
X198960445Y-89422066D01*
X198941503Y-89437611D01*
X198925958Y-89456553D01*
X198914407Y-89478164D01*
X198907294Y-89501613D01*
X198904892Y-89525999D01*
X198907294Y-89550385D01*
X198914407Y-89573834D01*
X198925958Y-89595445D01*
X198941503Y-89614387D01*
X198960445Y-89629932D01*
X198982055Y-89641483D01*
X199058364Y-89673091D01*
X199164988Y-89744335D01*
X199255665Y-89835012D01*
X199326909Y-89941636D01*
X199375983Y-90060110D01*
X199401000Y-90185882D01*
X199401000Y-90314118D01*
X199375983Y-90439890D01*
X199326909Y-90558364D01*
X199255665Y-90664988D01*
X199164988Y-90755665D01*
X199058364Y-90826909D01*
X198939890Y-90875983D01*
X198932751Y-90877403D01*
X198909302Y-90884516D01*
X198887691Y-90896067D01*
X198868749Y-90911612D01*
X198853203Y-90930554D01*
X198841652Y-90952164D01*
X198834539Y-90975613D01*
X198832137Y-90999999D01*
X198834539Y-91024385D01*
X198841652Y-91047834D01*
X198853203Y-91069445D01*
X198868748Y-91088387D01*
X198887690Y-91103933D01*
X198909300Y-91115484D01*
X198932751Y-91122597D01*
X198939890Y-91124017D01*
X199058364Y-91173091D01*
X199164988Y-91244335D01*
X199255665Y-91335012D01*
X199326909Y-91441636D01*
X199375983Y-91560110D01*
X199401000Y-91685882D01*
X199401000Y-91814118D01*
X199375983Y-91939890D01*
X199326909Y-92058364D01*
X199255665Y-92164988D01*
X199164988Y-92255665D01*
X199058364Y-92326909D01*
X199058363Y-92326910D01*
X199058362Y-92326910D01*
X198939890Y-92375983D01*
X198814119Y-92401000D01*
X198685881Y-92401000D01*
X198560110Y-92375983D01*
X198441638Y-92326910D01*
X198441637Y-92326910D01*
X198441636Y-92326909D01*
X198335012Y-92255665D01*
X198244335Y-92164988D01*
X198173091Y-92058364D01*
X198124017Y-91939890D01*
X198099000Y-91814118D01*
X198099000Y-91685882D01*
X198124017Y-91560110D01*
X198173091Y-91441636D01*
X198244335Y-91335012D01*
X198335012Y-91244335D01*
X198441636Y-91173091D01*
X198560110Y-91124017D01*
X198567249Y-91122597D01*
X198590698Y-91115484D01*
X198612309Y-91103933D01*
X198631251Y-91088388D01*
X198646797Y-91069446D01*
X198658348Y-91047836D01*
X198665461Y-91024387D01*
X198667863Y-91000001D01*
X198665461Y-90975615D01*
X198658348Y-90952166D01*
X198646797Y-90930555D01*
X198631252Y-90911613D01*
X198612310Y-90896067D01*
X198590700Y-90884516D01*
X198567249Y-90877403D01*
X198560110Y-90875983D01*
X198441636Y-90826909D01*
X198335012Y-90755665D01*
X198244335Y-90664988D01*
X198173091Y-90558364D01*
X198124017Y-90439890D01*
X198099000Y-90314118D01*
X198099000Y-90185882D01*
X198124017Y-90060110D01*
X198173091Y-89941636D01*
X198244335Y-89835012D01*
X198335012Y-89744335D01*
X198441636Y-89673091D01*
X198517945Y-89641483D01*
X198539555Y-89629932D01*
X198558497Y-89614387D01*
X198574042Y-89595445D01*
X198585593Y-89573834D01*
X198592706Y-89550385D01*
X198595108Y-89525999D01*
X198592706Y-89501613D01*
X198585593Y-89478164D01*
X198574042Y-89456553D01*
X198558497Y-89437611D01*
X198539555Y-89422066D01*
X198517944Y-89410515D01*
X198494495Y-89403402D01*
X198470109Y-89401000D01*
X198208285Y-89401000D01*
X198182138Y-89398425D01*
X198162903Y-89392590D01*
X198145178Y-89383116D01*
X198129638Y-89370362D01*
X198116884Y-89354822D01*
X198107410Y-89337097D01*
X198101575Y-89317862D01*
X198099000Y-89291715D01*
X198099000Y-88208285D01*
X198101575Y-88182138D01*
X198107410Y-88162903D01*
X198116884Y-88145178D01*
X198129638Y-88129638D01*
X198145178Y-88116884D01*
X198162903Y-88107410D01*
X198182138Y-88101575D01*
X198208285Y-88099000D01*
X199291715Y-88099000D01*
X199317862Y-88101575D01*
G37*
G36*
X103439890Y-88124017D02*
G01*
X103533769Y-88162903D01*
X103558364Y-88173091D01*
X103664988Y-88244335D01*
X103755665Y-88335012D01*
X103826909Y-88441636D01*
X103875983Y-88560110D01*
X103901000Y-88685882D01*
X103901000Y-88814118D01*
X103875983Y-88939890D01*
X103826909Y-89058364D01*
X103755665Y-89164988D01*
X103664988Y-89255665D01*
X103558364Y-89326909D01*
X103439890Y-89375983D01*
X103432751Y-89377403D01*
X103409302Y-89384516D01*
X103387691Y-89396067D01*
X103368749Y-89411612D01*
X103353203Y-89430554D01*
X103341652Y-89452164D01*
X103334539Y-89475613D01*
X103332137Y-89499999D01*
X103334539Y-89524385D01*
X103341652Y-89547834D01*
X103353203Y-89569445D01*
X103368748Y-89588387D01*
X103387690Y-89603933D01*
X103409300Y-89615484D01*
X103432751Y-89622597D01*
X103439890Y-89624017D01*
X103558364Y-89673091D01*
X103664988Y-89744335D01*
X103755665Y-89835012D01*
X103826909Y-89941636D01*
X103875983Y-90060110D01*
X103901000Y-90185882D01*
X103901000Y-90314118D01*
X103875983Y-90439890D01*
X103826909Y-90558364D01*
X103755665Y-90664988D01*
X103664988Y-90755665D01*
X103558364Y-90826909D01*
X103558363Y-90826910D01*
X103558362Y-90826910D01*
X103482056Y-90858517D01*
X103460445Y-90870068D01*
X103441503Y-90885613D01*
X103425958Y-90904555D01*
X103414407Y-90926166D01*
X103407294Y-90949615D01*
X103404892Y-90974001D01*
X103407294Y-90998387D01*
X103414407Y-91021836D01*
X103425958Y-91043447D01*
X103441503Y-91062389D01*
X103460445Y-91077934D01*
X103482056Y-91089485D01*
X103505505Y-91096598D01*
X103529891Y-91099000D01*
X103791715Y-91099000D01*
X103817862Y-91101575D01*
X103837097Y-91107410D01*
X103854822Y-91116884D01*
X103870362Y-91129638D01*
X103883116Y-91145178D01*
X103892590Y-91162903D01*
X103898425Y-91182138D01*
X103901000Y-91208285D01*
X103901000Y-92291715D01*
X103898425Y-92317862D01*
X103892590Y-92337097D01*
X103883116Y-92354822D01*
X103870362Y-92370362D01*
X103854822Y-92383116D01*
X103837097Y-92392590D01*
X103817862Y-92398425D01*
X103791715Y-92401000D01*
X102708285Y-92401000D01*
X102682138Y-92398425D01*
X102662903Y-92392590D01*
X102645178Y-92383116D01*
X102629638Y-92370362D01*
X102616884Y-92354822D01*
X102607410Y-92337097D01*
X102601575Y-92317862D01*
X102599000Y-92291715D01*
X102599000Y-91208285D01*
X102601575Y-91182138D01*
X102607410Y-91162903D01*
X102616884Y-91145178D01*
X102629638Y-91129638D01*
X102645178Y-91116884D01*
X102662903Y-91107410D01*
X102682138Y-91101575D01*
X102708285Y-91099000D01*
X102970109Y-91099000D01*
X102994495Y-91096598D01*
X103017944Y-91089485D01*
X103039555Y-91077934D01*
X103058497Y-91062389D01*
X103074042Y-91043447D01*
X103085593Y-91021836D01*
X103092706Y-90998387D01*
X103095108Y-90974001D01*
X103092706Y-90949615D01*
X103085593Y-90926166D01*
X103074042Y-90904555D01*
X103058497Y-90885613D01*
X103039555Y-90870068D01*
X103017944Y-90858517D01*
X102941638Y-90826910D01*
X102941637Y-90826910D01*
X102941636Y-90826909D01*
X102835012Y-90755665D01*
X102744335Y-90664988D01*
X102673091Y-90558364D01*
X102624017Y-90439890D01*
X102599000Y-90314118D01*
X102599000Y-90185882D01*
X102624017Y-90060110D01*
X102673091Y-89941636D01*
X102744335Y-89835012D01*
X102835012Y-89744335D01*
X102941636Y-89673091D01*
X103060110Y-89624017D01*
X103067249Y-89622597D01*
X103090698Y-89615484D01*
X103112309Y-89603933D01*
X103131251Y-89588388D01*
X103146797Y-89569446D01*
X103158348Y-89547836D01*
X103165461Y-89524387D01*
X103167863Y-89500001D01*
X103165461Y-89475615D01*
X103158348Y-89452166D01*
X103146797Y-89430555D01*
X103131252Y-89411613D01*
X103112310Y-89396067D01*
X103090700Y-89384516D01*
X103067249Y-89377403D01*
X103060110Y-89375983D01*
X102941636Y-89326909D01*
X102835012Y-89255665D01*
X102744335Y-89164988D01*
X102673091Y-89058364D01*
X102624017Y-88939890D01*
X102599000Y-88814118D01*
X102599000Y-88685882D01*
X102624017Y-88560110D01*
X102673091Y-88441636D01*
X102744335Y-88335012D01*
X102835012Y-88244335D01*
X102941636Y-88173091D01*
X102966232Y-88162903D01*
X103060110Y-88124017D01*
X103185881Y-88099000D01*
X103314119Y-88099000D01*
X103439890Y-88124017D01*
G37*
G36*
X199317862Y-81601575D02*
G01*
X199337097Y-81607410D01*
X199354822Y-81616884D01*
X199370362Y-81629638D01*
X199383116Y-81645178D01*
X199392590Y-81662903D01*
X199398425Y-81682138D01*
X199401000Y-81708285D01*
X199401000Y-82791715D01*
X199398425Y-82817862D01*
X199392590Y-82837097D01*
X199383116Y-82854822D01*
X199370362Y-82870362D01*
X199354822Y-82883116D01*
X199337097Y-82892590D01*
X199317862Y-82898425D01*
X199291715Y-82901000D01*
X199029891Y-82901000D01*
X199005505Y-82903402D01*
X198982056Y-82910515D01*
X198960445Y-82922066D01*
X198941503Y-82937611D01*
X198925958Y-82956553D01*
X198914407Y-82978164D01*
X198907294Y-83001613D01*
X198904892Y-83025999D01*
X198907294Y-83050385D01*
X198914407Y-83073834D01*
X198925958Y-83095445D01*
X198941503Y-83114387D01*
X198960445Y-83129932D01*
X198982055Y-83141483D01*
X199058364Y-83173091D01*
X199164988Y-83244335D01*
X199255665Y-83335012D01*
X199326909Y-83441636D01*
X199375983Y-83560110D01*
X199401000Y-83685882D01*
X199401000Y-83814118D01*
X199375983Y-83939890D01*
X199326909Y-84058364D01*
X199255665Y-84164988D01*
X199164988Y-84255665D01*
X199058364Y-84326909D01*
X198939890Y-84375983D01*
X198932751Y-84377403D01*
X198909302Y-84384516D01*
X198887691Y-84396067D01*
X198868749Y-84411612D01*
X198853203Y-84430554D01*
X198841652Y-84452164D01*
X198834539Y-84475613D01*
X198832137Y-84499999D01*
X198834539Y-84524385D01*
X198841652Y-84547834D01*
X198853203Y-84569445D01*
X198868748Y-84588387D01*
X198887690Y-84603933D01*
X198909300Y-84615484D01*
X198932751Y-84622597D01*
X198939890Y-84624017D01*
X199058364Y-84673091D01*
X199164988Y-84744335D01*
X199255665Y-84835012D01*
X199326909Y-84941636D01*
X199375983Y-85060110D01*
X199401000Y-85185882D01*
X199401000Y-85314118D01*
X199375983Y-85439890D01*
X199326909Y-85558364D01*
X199255665Y-85664988D01*
X199164988Y-85755665D01*
X199058364Y-85826909D01*
X199058363Y-85826910D01*
X199058362Y-85826910D01*
X198939890Y-85875983D01*
X198814119Y-85901000D01*
X198685881Y-85901000D01*
X198560110Y-85875983D01*
X198441638Y-85826910D01*
X198441637Y-85826910D01*
X198441636Y-85826909D01*
X198335012Y-85755665D01*
X198244335Y-85664988D01*
X198173091Y-85558364D01*
X198124017Y-85439890D01*
X198099000Y-85314118D01*
X198099000Y-85185882D01*
X198124017Y-85060110D01*
X198173091Y-84941636D01*
X198244335Y-84835012D01*
X198335012Y-84744335D01*
X198441636Y-84673091D01*
X198560110Y-84624017D01*
X198567249Y-84622597D01*
X198590698Y-84615484D01*
X198612309Y-84603933D01*
X198631251Y-84588388D01*
X198646797Y-84569446D01*
X198658348Y-84547836D01*
X198665461Y-84524387D01*
X198667863Y-84500001D01*
X198665461Y-84475615D01*
X198658348Y-84452166D01*
X198646797Y-84430555D01*
X198631252Y-84411613D01*
X198612310Y-84396067D01*
X198590700Y-84384516D01*
X198567249Y-84377403D01*
X198560110Y-84375983D01*
X198441636Y-84326909D01*
X198335012Y-84255665D01*
X198244335Y-84164988D01*
X198173091Y-84058364D01*
X198124017Y-83939890D01*
X198099000Y-83814118D01*
X198099000Y-83685882D01*
X198124017Y-83560110D01*
X198173091Y-83441636D01*
X198244335Y-83335012D01*
X198335012Y-83244335D01*
X198441636Y-83173091D01*
X198517945Y-83141483D01*
X198539555Y-83129932D01*
X198558497Y-83114387D01*
X198574042Y-83095445D01*
X198585593Y-83073834D01*
X198592706Y-83050385D01*
X198595108Y-83025999D01*
X198592706Y-83001613D01*
X198585593Y-82978164D01*
X198574042Y-82956553D01*
X198558497Y-82937611D01*
X198539555Y-82922066D01*
X198517944Y-82910515D01*
X198494495Y-82903402D01*
X198470109Y-82901000D01*
X198208285Y-82901000D01*
X198182138Y-82898425D01*
X198162903Y-82892590D01*
X198145178Y-82883116D01*
X198129638Y-82870362D01*
X198116884Y-82854822D01*
X198107410Y-82837097D01*
X198101575Y-82817862D01*
X198099000Y-82791715D01*
X198099000Y-81708285D01*
X198101575Y-81682138D01*
X198107410Y-81662903D01*
X198116884Y-81645178D01*
X198129638Y-81629638D01*
X198145178Y-81616884D01*
X198162903Y-81607410D01*
X198182138Y-81601575D01*
X198208285Y-81599000D01*
X199291715Y-81599000D01*
X199317862Y-81601575D01*
G37*
G36*
X103439890Y-81624017D02*
G01*
X103533769Y-81662903D01*
X103558364Y-81673091D01*
X103664988Y-81744335D01*
X103755665Y-81835012D01*
X103826909Y-81941636D01*
X103875983Y-82060110D01*
X103901000Y-82185882D01*
X103901000Y-82314118D01*
X103875983Y-82439890D01*
X103826909Y-82558364D01*
X103755665Y-82664988D01*
X103664988Y-82755665D01*
X103558364Y-82826909D01*
X103439890Y-82875983D01*
X103432751Y-82877403D01*
X103409302Y-82884516D01*
X103387691Y-82896067D01*
X103368749Y-82911612D01*
X103353203Y-82930554D01*
X103341652Y-82952164D01*
X103334539Y-82975613D01*
X103332137Y-82999999D01*
X103334539Y-83024385D01*
X103341652Y-83047834D01*
X103353203Y-83069445D01*
X103368748Y-83088387D01*
X103387690Y-83103933D01*
X103409300Y-83115484D01*
X103432751Y-83122597D01*
X103439890Y-83124017D01*
X103558364Y-83173091D01*
X103664988Y-83244335D01*
X103755665Y-83335012D01*
X103826909Y-83441636D01*
X103875983Y-83560110D01*
X103901000Y-83685882D01*
X103901000Y-83814118D01*
X103875983Y-83939890D01*
X103826909Y-84058364D01*
X103755665Y-84164988D01*
X103664988Y-84255665D01*
X103558364Y-84326909D01*
X103558363Y-84326910D01*
X103558362Y-84326910D01*
X103482056Y-84358517D01*
X103460445Y-84370068D01*
X103441503Y-84385613D01*
X103425958Y-84404555D01*
X103414407Y-84426166D01*
X103407294Y-84449615D01*
X103404892Y-84474001D01*
X103407294Y-84498387D01*
X103414407Y-84521836D01*
X103425958Y-84543447D01*
X103441503Y-84562389D01*
X103460445Y-84577934D01*
X103482056Y-84589485D01*
X103505505Y-84596598D01*
X103529891Y-84599000D01*
X103791715Y-84599000D01*
X103817862Y-84601575D01*
X103837097Y-84607410D01*
X103854822Y-84616884D01*
X103870362Y-84629638D01*
X103883116Y-84645178D01*
X103892590Y-84662903D01*
X103898425Y-84682138D01*
X103901000Y-84708285D01*
X103901000Y-85791715D01*
X103898425Y-85817862D01*
X103892590Y-85837097D01*
X103883116Y-85854822D01*
X103870362Y-85870362D01*
X103854822Y-85883116D01*
X103837097Y-85892590D01*
X103817862Y-85898425D01*
X103791715Y-85901000D01*
X102708285Y-85901000D01*
X102682138Y-85898425D01*
X102662903Y-85892590D01*
X102645178Y-85883116D01*
X102629638Y-85870362D01*
X102616884Y-85854822D01*
X102607410Y-85837097D01*
X102601575Y-85817862D01*
X102599000Y-85791715D01*
X102599000Y-84708285D01*
X102601575Y-84682138D01*
X102607410Y-84662903D01*
X102616884Y-84645178D01*
X102629638Y-84629638D01*
X102645178Y-84616884D01*
X102662903Y-84607410D01*
X102682138Y-84601575D01*
X102708285Y-84599000D01*
X102970109Y-84599000D01*
X102994495Y-84596598D01*
X103017944Y-84589485D01*
X103039555Y-84577934D01*
X103058497Y-84562389D01*
X103074042Y-84543447D01*
X103085593Y-84521836D01*
X103092706Y-84498387D01*
X103095108Y-84474001D01*
X103092706Y-84449615D01*
X103085593Y-84426166D01*
X103074042Y-84404555D01*
X103058497Y-84385613D01*
X103039555Y-84370068D01*
X103017944Y-84358517D01*
X102941638Y-84326910D01*
X102941637Y-84326910D01*
X102941636Y-84326909D01*
X102835012Y-84255665D01*
X102744335Y-84164988D01*
X102673091Y-84058364D01*
X102624017Y-83939890D01*
X102599000Y-83814118D01*
X102599000Y-83685882D01*
X102624017Y-83560110D01*
X102673091Y-83441636D01*
X102744335Y-83335012D01*
X102835012Y-83244335D01*
X102941636Y-83173091D01*
X103060110Y-83124017D01*
X103067249Y-83122597D01*
X103090698Y-83115484D01*
X103112309Y-83103933D01*
X103131251Y-83088388D01*
X103146797Y-83069446D01*
X103158348Y-83047836D01*
X103165461Y-83024387D01*
X103167863Y-83000001D01*
X103165461Y-82975615D01*
X103158348Y-82952166D01*
X103146797Y-82930555D01*
X103131252Y-82911613D01*
X103112310Y-82896067D01*
X103090700Y-82884516D01*
X103067249Y-82877403D01*
X103060110Y-82875983D01*
X102941636Y-82826909D01*
X102835012Y-82755665D01*
X102744335Y-82664988D01*
X102673091Y-82558364D01*
X102624017Y-82439890D01*
X102599000Y-82314118D01*
X102599000Y-82185882D01*
X102624017Y-82060110D01*
X102673091Y-81941636D01*
X102744335Y-81835012D01*
X102835012Y-81744335D01*
X102941636Y-81673091D01*
X102966232Y-81662903D01*
X103060110Y-81624017D01*
X103185881Y-81599000D01*
X103314119Y-81599000D01*
X103439890Y-81624017D01*
G37*
G36*
X148799272Y-79513428D02*
G01*
X148985991Y-79590770D01*
X148985993Y-79590771D01*
X149154037Y-79703054D01*
X149296946Y-79845963D01*
X149409229Y-80014007D01*
X149409230Y-80014009D01*
X149486572Y-80200728D01*
X149526000Y-80398947D01*
X149526000Y-80601053D01*
X149486572Y-80799272D01*
X149409230Y-80985991D01*
X149409229Y-80985993D01*
X149296946Y-81154037D01*
X149154037Y-81296946D01*
X148985993Y-81409229D01*
X148985992Y-81409230D01*
X148985991Y-81409230D01*
X148799272Y-81486572D01*
X148601053Y-81526000D01*
X148398947Y-81526000D01*
X148200728Y-81486572D01*
X148014009Y-81409230D01*
X148014008Y-81409230D01*
X148014007Y-81409229D01*
X147845963Y-81296946D01*
X147703054Y-81154037D01*
X147590771Y-80985993D01*
X147590770Y-80985991D01*
X147513428Y-80799272D01*
X147474000Y-80601053D01*
X147474000Y-80398947D01*
X147513428Y-80200728D01*
X147590770Y-80014009D01*
X147590771Y-80014007D01*
X147703054Y-79845963D01*
X147845963Y-79703054D01*
X148014007Y-79590771D01*
X148014009Y-79590770D01*
X148200728Y-79513428D01*
X148398947Y-79474000D01*
X148601053Y-79474000D01*
X148799272Y-79513428D01*
G37*
G36*
X153799272Y-79513428D02*
G01*
X153985991Y-79590770D01*
X153985993Y-79590771D01*
X154154037Y-79703054D01*
X154296946Y-79845963D01*
X154409229Y-80014007D01*
X154409230Y-80014009D01*
X154486572Y-80200728D01*
X154526000Y-80398947D01*
X154526000Y-80601053D01*
X154486572Y-80799272D01*
X154409230Y-80985991D01*
X154409229Y-80985993D01*
X154296946Y-81154037D01*
X154154037Y-81296946D01*
X153985993Y-81409229D01*
X153985992Y-81409230D01*
X153985991Y-81409230D01*
X153799272Y-81486572D01*
X153601053Y-81526000D01*
X153398947Y-81526000D01*
X153200728Y-81486572D01*
X153014009Y-81409230D01*
X153014008Y-81409230D01*
X153014007Y-81409229D01*
X152845963Y-81296946D01*
X152703054Y-81154037D01*
X152590771Y-80985993D01*
X152590770Y-80985991D01*
X152513428Y-80799272D01*
X152474000Y-80601053D01*
X152474000Y-80398947D01*
X152513428Y-80200728D01*
X152590770Y-80014009D01*
X152590771Y-80014007D01*
X152703054Y-79845963D01*
X152845963Y-79703054D01*
X153014007Y-79590771D01*
X153014009Y-79590770D01*
X153200728Y-79513428D01*
X153398947Y-79474000D01*
X153601053Y-79474000D01*
X153799272Y-79513428D01*
G37*
G36*
X199317862Y-75101575D02*
G01*
X199337097Y-75107410D01*
X199354822Y-75116884D01*
X199370362Y-75129638D01*
X199383116Y-75145178D01*
X199392590Y-75162903D01*
X199398425Y-75182138D01*
X199401000Y-75208285D01*
X199401000Y-76291715D01*
X199398425Y-76317862D01*
X199392590Y-76337097D01*
X199383116Y-76354822D01*
X199370362Y-76370362D01*
X199354822Y-76383116D01*
X199337097Y-76392590D01*
X199317862Y-76398425D01*
X199291715Y-76401000D01*
X199029891Y-76401000D01*
X199005505Y-76403402D01*
X198982056Y-76410515D01*
X198960445Y-76422066D01*
X198941503Y-76437611D01*
X198925958Y-76456553D01*
X198914407Y-76478164D01*
X198907294Y-76501613D01*
X198904892Y-76525999D01*
X198907294Y-76550385D01*
X198914407Y-76573834D01*
X198925958Y-76595445D01*
X198941503Y-76614387D01*
X198960445Y-76629932D01*
X198982055Y-76641483D01*
X199058364Y-76673091D01*
X199164988Y-76744335D01*
X199255665Y-76835012D01*
X199326909Y-76941636D01*
X199375983Y-77060110D01*
X199401000Y-77185882D01*
X199401000Y-77314118D01*
X199375983Y-77439890D01*
X199326909Y-77558364D01*
X199255665Y-77664988D01*
X199164988Y-77755665D01*
X199058364Y-77826909D01*
X198939890Y-77875983D01*
X198932751Y-77877403D01*
X198909302Y-77884516D01*
X198887691Y-77896067D01*
X198868749Y-77911612D01*
X198853203Y-77930554D01*
X198841652Y-77952164D01*
X198834539Y-77975613D01*
X198832137Y-77999999D01*
X198834539Y-78024385D01*
X198841652Y-78047834D01*
X198853203Y-78069445D01*
X198868748Y-78088387D01*
X198887690Y-78103933D01*
X198909300Y-78115484D01*
X198932751Y-78122597D01*
X198939890Y-78124017D01*
X199058364Y-78173091D01*
X199164988Y-78244335D01*
X199255665Y-78335012D01*
X199326909Y-78441636D01*
X199375983Y-78560110D01*
X199401000Y-78685882D01*
X199401000Y-78814118D01*
X199375983Y-78939890D01*
X199326909Y-79058364D01*
X199255665Y-79164988D01*
X199164988Y-79255665D01*
X199058364Y-79326909D01*
X199058363Y-79326910D01*
X199058362Y-79326910D01*
X198939890Y-79375983D01*
X198814119Y-79401000D01*
X198685881Y-79401000D01*
X198560110Y-79375983D01*
X198441638Y-79326910D01*
X198441637Y-79326910D01*
X198441636Y-79326909D01*
X198335012Y-79255665D01*
X198244335Y-79164988D01*
X198173091Y-79058364D01*
X198124017Y-78939890D01*
X198099000Y-78814118D01*
X198099000Y-78685882D01*
X198124017Y-78560110D01*
X198173091Y-78441636D01*
X198244335Y-78335012D01*
X198335012Y-78244335D01*
X198441636Y-78173091D01*
X198560110Y-78124017D01*
X198567249Y-78122597D01*
X198590698Y-78115484D01*
X198612309Y-78103933D01*
X198631251Y-78088388D01*
X198646797Y-78069446D01*
X198658348Y-78047836D01*
X198665461Y-78024387D01*
X198667863Y-78000001D01*
X198665461Y-77975615D01*
X198658348Y-77952166D01*
X198646797Y-77930555D01*
X198631252Y-77911613D01*
X198612310Y-77896067D01*
X198590700Y-77884516D01*
X198567249Y-77877403D01*
X198560110Y-77875983D01*
X198441636Y-77826909D01*
X198335012Y-77755665D01*
X198244335Y-77664988D01*
X198173091Y-77558364D01*
X198124017Y-77439890D01*
X198099000Y-77314118D01*
X198099000Y-77185882D01*
X198124017Y-77060110D01*
X198173091Y-76941636D01*
X198244335Y-76835012D01*
X198335012Y-76744335D01*
X198441636Y-76673091D01*
X198517945Y-76641483D01*
X198539555Y-76629932D01*
X198558497Y-76614387D01*
X198574042Y-76595445D01*
X198585593Y-76573834D01*
X198592706Y-76550385D01*
X198595108Y-76525999D01*
X198592706Y-76501613D01*
X198585593Y-76478164D01*
X198574042Y-76456553D01*
X198558497Y-76437611D01*
X198539555Y-76422066D01*
X198517944Y-76410515D01*
X198494495Y-76403402D01*
X198470109Y-76401000D01*
X198208285Y-76401000D01*
X198182138Y-76398425D01*
X198162903Y-76392590D01*
X198145178Y-76383116D01*
X198129638Y-76370362D01*
X198116884Y-76354822D01*
X198107410Y-76337097D01*
X198101575Y-76317862D01*
X198099000Y-76291715D01*
X198099000Y-75208285D01*
X198101575Y-75182138D01*
X198107410Y-75162903D01*
X198116884Y-75145178D01*
X198129638Y-75129638D01*
X198145178Y-75116884D01*
X198162903Y-75107410D01*
X198182138Y-75101575D01*
X198208285Y-75099000D01*
X199291715Y-75099000D01*
X199317862Y-75101575D01*
G37*
G36*
X103439890Y-75124017D02*
G01*
X103533769Y-75162903D01*
X103558364Y-75173091D01*
X103664988Y-75244335D01*
X103755665Y-75335012D01*
X103801232Y-75403207D01*
X103826910Y-75441638D01*
X103875983Y-75560110D01*
X103901000Y-75685881D01*
X103901000Y-75814119D01*
X103877278Y-75933380D01*
X103875983Y-75939890D01*
X103826909Y-76058364D01*
X103755665Y-76164988D01*
X103664988Y-76255665D01*
X103558364Y-76326909D01*
X103439890Y-76375983D01*
X103432751Y-76377403D01*
X103409302Y-76384516D01*
X103387691Y-76396067D01*
X103368749Y-76411612D01*
X103353203Y-76430554D01*
X103341652Y-76452164D01*
X103334539Y-76475613D01*
X103332137Y-76499999D01*
X103334539Y-76524385D01*
X103341652Y-76547834D01*
X103353203Y-76569445D01*
X103368748Y-76588387D01*
X103387690Y-76603933D01*
X103409300Y-76615484D01*
X103432751Y-76622597D01*
X103439890Y-76624017D01*
X103558364Y-76673091D01*
X103664988Y-76744335D01*
X103755665Y-76835012D01*
X103826909Y-76941636D01*
X103875983Y-77060110D01*
X103901000Y-77185882D01*
X103901000Y-77314118D01*
X103875983Y-77439890D01*
X103826909Y-77558364D01*
X103755665Y-77664988D01*
X103664988Y-77755665D01*
X103558364Y-77826909D01*
X103558363Y-77826910D01*
X103558362Y-77826910D01*
X103482056Y-77858517D01*
X103460445Y-77870068D01*
X103441503Y-77885613D01*
X103425958Y-77904555D01*
X103414407Y-77926166D01*
X103407294Y-77949615D01*
X103404892Y-77974001D01*
X103407294Y-77998387D01*
X103414407Y-78021836D01*
X103425958Y-78043447D01*
X103441503Y-78062389D01*
X103460445Y-78077934D01*
X103482056Y-78089485D01*
X103505505Y-78096598D01*
X103529891Y-78099000D01*
X103791715Y-78099000D01*
X103817862Y-78101575D01*
X103837097Y-78107410D01*
X103854822Y-78116884D01*
X103870362Y-78129638D01*
X103883116Y-78145178D01*
X103892590Y-78162903D01*
X103898425Y-78182138D01*
X103901000Y-78208285D01*
X103901000Y-79291715D01*
X103898425Y-79317862D01*
X103892590Y-79337097D01*
X103883116Y-79354822D01*
X103870362Y-79370362D01*
X103854822Y-79383116D01*
X103837097Y-79392590D01*
X103817862Y-79398425D01*
X103791715Y-79401000D01*
X102708285Y-79401000D01*
X102682138Y-79398425D01*
X102662903Y-79392590D01*
X102645178Y-79383116D01*
X102629638Y-79370362D01*
X102616884Y-79354822D01*
X102607410Y-79337097D01*
X102601575Y-79317862D01*
X102599000Y-79291715D01*
X102599000Y-78208285D01*
X102601575Y-78182138D01*
X102607410Y-78162903D01*
X102616884Y-78145178D01*
X102629638Y-78129638D01*
X102645178Y-78116884D01*
X102662903Y-78107410D01*
X102682138Y-78101575D01*
X102708285Y-78099000D01*
X102970109Y-78099000D01*
X102994495Y-78096598D01*
X103017944Y-78089485D01*
X103039555Y-78077934D01*
X103058497Y-78062389D01*
X103074042Y-78043447D01*
X103085593Y-78021836D01*
X103092706Y-77998387D01*
X103095108Y-77974001D01*
X103092706Y-77949615D01*
X103085593Y-77926166D01*
X103074042Y-77904555D01*
X103058497Y-77885613D01*
X103039555Y-77870068D01*
X103017944Y-77858517D01*
X102941638Y-77826910D01*
X102941637Y-77826910D01*
X102941636Y-77826909D01*
X102835012Y-77755665D01*
X102744335Y-77664988D01*
X102673091Y-77558364D01*
X102624017Y-77439890D01*
X102599000Y-77314118D01*
X102599000Y-77185882D01*
X102624017Y-77060110D01*
X102673091Y-76941636D01*
X102744335Y-76835012D01*
X102835012Y-76744335D01*
X102941636Y-76673091D01*
X103060110Y-76624017D01*
X103067249Y-76622597D01*
X103090698Y-76615484D01*
X103112309Y-76603933D01*
X103131251Y-76588388D01*
X103146797Y-76569446D01*
X103158348Y-76547836D01*
X103165461Y-76524387D01*
X103167863Y-76500001D01*
X103165461Y-76475615D01*
X103158348Y-76452166D01*
X103146797Y-76430555D01*
X103131252Y-76411613D01*
X103112310Y-76396067D01*
X103090700Y-76384516D01*
X103067249Y-76377403D01*
X103060110Y-76375983D01*
X102941636Y-76326909D01*
X102835012Y-76255665D01*
X102744335Y-76164988D01*
X102673091Y-76058364D01*
X102624017Y-75939890D01*
X102622722Y-75933380D01*
X102599000Y-75814119D01*
X102599000Y-75685881D01*
X102624017Y-75560110D01*
X102673090Y-75441638D01*
X102698769Y-75403207D01*
X102744335Y-75335012D01*
X102835012Y-75244335D01*
X102941636Y-75173091D01*
X102966232Y-75162903D01*
X103060110Y-75124017D01*
X103185881Y-75099000D01*
X103314119Y-75099000D01*
X103439890Y-75124017D01*
G37*
G36*
X158864903Y-74297075D02*
G01*
X159092571Y-74391378D01*
X159297466Y-74528285D01*
X159471715Y-74702534D01*
X159608622Y-74907429D01*
X159608623Y-74907431D01*
X159702925Y-75135097D01*
X159751000Y-75376786D01*
X159751000Y-75623214D01*
X159726930Y-75744220D01*
X159702925Y-75864903D01*
X159608622Y-76092571D01*
X159471715Y-76297466D01*
X159297466Y-76471715D01*
X159092571Y-76608622D01*
X159092570Y-76608623D01*
X159092569Y-76608623D01*
X158864903Y-76702925D01*
X158623214Y-76751000D01*
X158376786Y-76751000D01*
X158135097Y-76702925D01*
X157907431Y-76608623D01*
X157907430Y-76608623D01*
X157907429Y-76608622D01*
X157702534Y-76471715D01*
X157528285Y-76297466D01*
X157391378Y-76092571D01*
X157297075Y-75864903D01*
X157273070Y-75744220D01*
X157249000Y-75623214D01*
X157249000Y-75376786D01*
X157297075Y-75135097D01*
X157391377Y-74907431D01*
X157391378Y-74907429D01*
X157528285Y-74702534D01*
X157702534Y-74528285D01*
X157907429Y-74391378D01*
X158135097Y-74297075D01*
X158376786Y-74249000D01*
X158623214Y-74249000D01*
X158864903Y-74297075D01*
G37*
G36*
X143864903Y-74297075D02*
G01*
X144092571Y-74391378D01*
X144297466Y-74528285D01*
X144471715Y-74702534D01*
X144608622Y-74907429D01*
X144608623Y-74907431D01*
X144702925Y-75135097D01*
X144751000Y-75376786D01*
X144751000Y-75623214D01*
X144726930Y-75744220D01*
X144702925Y-75864903D01*
X144608622Y-76092571D01*
X144471715Y-76297466D01*
X144297466Y-76471715D01*
X144092571Y-76608622D01*
X144092570Y-76608623D01*
X144092569Y-76608623D01*
X143864903Y-76702925D01*
X143623214Y-76751000D01*
X143376786Y-76751000D01*
X143135097Y-76702925D01*
X142907431Y-76608623D01*
X142907430Y-76608623D01*
X142907429Y-76608622D01*
X142702534Y-76471715D01*
X142528285Y-76297466D01*
X142391378Y-76092571D01*
X142297075Y-75864903D01*
X142273070Y-75744220D01*
X142249000Y-75623214D01*
X142249000Y-75376786D01*
X142297075Y-75135097D01*
X142391377Y-74907431D01*
X142391378Y-74907429D01*
X142528285Y-74702534D01*
X142702534Y-74528285D01*
X142907429Y-74391378D01*
X143135097Y-74297075D01*
X143376786Y-74249000D01*
X143623214Y-74249000D01*
X143864903Y-74297075D01*
G37*
G36*
X176526719Y-74463520D02*
G01*
X176715880Y-74520901D01*
X176715883Y-74520902D01*
X176808333Y-74570318D01*
X176890212Y-74614083D01*
X177043015Y-74739485D01*
X177168417Y-74892288D01*
X177261599Y-75066619D01*
X177318980Y-75255780D01*
X177333500Y-75403206D01*
X177333500Y-75596793D01*
X177318980Y-75744219D01*
X177297776Y-75814119D01*
X177261598Y-75933383D01*
X177212182Y-76025833D01*
X177168417Y-76107712D01*
X177043015Y-76260515D01*
X176890212Y-76385917D01*
X176735820Y-76468441D01*
X176729696Y-76471715D01*
X176715881Y-76479099D01*
X176526720Y-76536480D01*
X176330000Y-76555855D01*
X176133281Y-76536480D01*
X175944120Y-76479099D01*
X175769788Y-76385917D01*
X175616985Y-76260515D01*
X175491583Y-76107712D01*
X175398401Y-75933381D01*
X175341020Y-75744220D01*
X175326500Y-75596794D01*
X175326500Y-75403207D01*
X175341020Y-75255781D01*
X175398401Y-75066620D01*
X175398402Y-75066617D01*
X175483490Y-74907429D01*
X175491583Y-74892288D01*
X175616985Y-74739485D01*
X175769788Y-74614083D01*
X175924180Y-74531559D01*
X175944117Y-74520902D01*
X175944119Y-74520901D01*
X176133280Y-74463520D01*
X176330000Y-74444145D01*
X176526719Y-74463520D01*
G37*
G36*
X128446719Y-74463520D02*
G01*
X128635880Y-74520901D01*
X128635883Y-74520902D01*
X128728333Y-74570318D01*
X128810212Y-74614083D01*
X128963015Y-74739485D01*
X129088417Y-74892288D01*
X129181599Y-75066619D01*
X129238980Y-75255780D01*
X129253500Y-75403206D01*
X129253500Y-75596793D01*
X129238980Y-75744219D01*
X129217776Y-75814119D01*
X129181598Y-75933383D01*
X129132182Y-76025833D01*
X129088417Y-76107712D01*
X128963015Y-76260515D01*
X128810212Y-76385917D01*
X128655820Y-76468441D01*
X128649696Y-76471715D01*
X128635881Y-76479099D01*
X128446720Y-76536480D01*
X128250000Y-76555855D01*
X128053281Y-76536480D01*
X127864120Y-76479099D01*
X127689788Y-76385917D01*
X127536985Y-76260515D01*
X127411583Y-76107712D01*
X127318401Y-75933381D01*
X127261020Y-75744220D01*
X127246500Y-75596794D01*
X127246500Y-75403207D01*
X127261020Y-75255781D01*
X127318401Y-75066620D01*
X127318402Y-75066617D01*
X127403490Y-74907429D01*
X127411583Y-74892288D01*
X127536985Y-74739485D01*
X127689788Y-74614083D01*
X127844180Y-74531559D01*
X127864117Y-74520902D01*
X127864119Y-74520901D01*
X128053280Y-74463520D01*
X128250000Y-74444145D01*
X128446719Y-74463520D01*
G37*
G36*
X130986719Y-74463520D02*
G01*
X131175880Y-74520901D01*
X131175883Y-74520902D01*
X131268333Y-74570318D01*
X131350212Y-74614083D01*
X131503015Y-74739485D01*
X131628417Y-74892288D01*
X131721599Y-75066619D01*
X131778980Y-75255780D01*
X131793500Y-75403206D01*
X131793500Y-75596793D01*
X131778980Y-75744219D01*
X131757776Y-75814119D01*
X131721598Y-75933383D01*
X131672182Y-76025833D01*
X131628417Y-76107712D01*
X131503015Y-76260515D01*
X131350212Y-76385917D01*
X131195820Y-76468441D01*
X131189696Y-76471715D01*
X131175881Y-76479099D01*
X130986720Y-76536480D01*
X130790000Y-76555855D01*
X130593281Y-76536480D01*
X130404120Y-76479099D01*
X130229788Y-76385917D01*
X130076985Y-76260515D01*
X129951583Y-76107712D01*
X129858401Y-75933381D01*
X129801020Y-75744220D01*
X129786500Y-75596794D01*
X129786500Y-75403207D01*
X129801020Y-75255781D01*
X129858401Y-75066620D01*
X129858402Y-75066617D01*
X129943490Y-74907429D01*
X129951583Y-74892288D01*
X130076985Y-74739485D01*
X130229788Y-74614083D01*
X130384180Y-74531559D01*
X130404117Y-74520902D01*
X130404119Y-74520901D01*
X130593280Y-74463520D01*
X130790000Y-74444145D01*
X130986719Y-74463520D01*
G37*
G36*
X173986719Y-74463520D02*
G01*
X174175880Y-74520901D01*
X174175883Y-74520902D01*
X174268333Y-74570318D01*
X174350212Y-74614083D01*
X174503015Y-74739485D01*
X174628417Y-74892288D01*
X174721599Y-75066619D01*
X174778980Y-75255780D01*
X174793500Y-75403206D01*
X174793500Y-75596793D01*
X174778980Y-75744219D01*
X174757776Y-75814119D01*
X174721598Y-75933383D01*
X174672182Y-76025833D01*
X174628417Y-76107712D01*
X174503015Y-76260515D01*
X174350212Y-76385917D01*
X174195820Y-76468441D01*
X174189696Y-76471715D01*
X174175881Y-76479099D01*
X173986720Y-76536480D01*
X173790000Y-76555855D01*
X173593281Y-76536480D01*
X173404120Y-76479099D01*
X173229788Y-76385917D01*
X173076985Y-76260515D01*
X172951583Y-76107712D01*
X172858401Y-75933381D01*
X172801020Y-75744220D01*
X172786500Y-75596794D01*
X172786500Y-75403207D01*
X172801020Y-75255781D01*
X172858401Y-75066620D01*
X172858402Y-75066617D01*
X172943490Y-74907429D01*
X172951583Y-74892288D01*
X173076985Y-74739485D01*
X173229788Y-74614083D01*
X173384180Y-74531559D01*
X173404117Y-74520902D01*
X173404119Y-74520901D01*
X173593280Y-74463520D01*
X173790000Y-74444145D01*
X173986719Y-74463520D01*
G37*
G36*
X126713500Y-76551000D02*
G01*
X124706500Y-76551000D01*
X124706500Y-74449000D01*
X126713500Y-74449000D01*
X126713500Y-76551000D01*
G37*
G36*
X172253500Y-76551000D02*
G01*
X170246500Y-76551000D01*
X170246500Y-74449000D01*
X172253500Y-74449000D01*
X172253500Y-76551000D01*
G37*
G36*
X199317862Y-68601575D02*
G01*
X199337097Y-68607410D01*
X199354822Y-68616884D01*
X199370362Y-68629638D01*
X199383116Y-68645178D01*
X199392590Y-68662903D01*
X199398425Y-68682138D01*
X199401000Y-68708285D01*
X199401000Y-69791715D01*
X199398425Y-69817862D01*
X199392590Y-69837097D01*
X199383116Y-69854822D01*
X199370362Y-69870362D01*
X199354822Y-69883116D01*
X199337097Y-69892590D01*
X199317862Y-69898425D01*
X199291715Y-69901000D01*
X199029891Y-69901000D01*
X199005505Y-69903402D01*
X198982056Y-69910515D01*
X198960445Y-69922066D01*
X198941503Y-69937611D01*
X198925958Y-69956553D01*
X198914407Y-69978164D01*
X198907294Y-70001613D01*
X198904892Y-70025999D01*
X198907294Y-70050385D01*
X198914407Y-70073834D01*
X198925958Y-70095445D01*
X198941503Y-70114387D01*
X198960445Y-70129932D01*
X198982055Y-70141483D01*
X199058364Y-70173091D01*
X199164988Y-70244335D01*
X199255665Y-70335012D01*
X199326909Y-70441636D01*
X199375983Y-70560110D01*
X199401000Y-70685882D01*
X199401000Y-70814118D01*
X199375983Y-70939890D01*
X199326909Y-71058364D01*
X199255665Y-71164988D01*
X199164988Y-71255665D01*
X199058364Y-71326909D01*
X198939890Y-71375983D01*
X198932751Y-71377403D01*
X198909302Y-71384516D01*
X198887691Y-71396067D01*
X198868749Y-71411612D01*
X198853203Y-71430554D01*
X198841652Y-71452164D01*
X198834539Y-71475613D01*
X198832137Y-71499999D01*
X198834539Y-71524385D01*
X198841652Y-71547834D01*
X198853203Y-71569445D01*
X198868748Y-71588387D01*
X198887690Y-71603933D01*
X198909300Y-71615484D01*
X198932751Y-71622597D01*
X198939890Y-71624017D01*
X199058364Y-71673091D01*
X199164988Y-71744335D01*
X199255665Y-71835012D01*
X199326909Y-71941636D01*
X199375983Y-72060110D01*
X199401000Y-72185882D01*
X199401000Y-72314118D01*
X199375983Y-72439890D01*
X199326909Y-72558364D01*
X199255665Y-72664988D01*
X199164988Y-72755665D01*
X199058364Y-72826909D01*
X199058363Y-72826910D01*
X199058362Y-72826910D01*
X198939890Y-72875983D01*
X198814119Y-72901000D01*
X198685881Y-72901000D01*
X198560110Y-72875983D01*
X198441638Y-72826910D01*
X198441637Y-72826910D01*
X198441636Y-72826909D01*
X198335012Y-72755665D01*
X198244335Y-72664988D01*
X198173091Y-72558364D01*
X198124017Y-72439890D01*
X198099000Y-72314118D01*
X198099000Y-72185882D01*
X198124017Y-72060110D01*
X198173091Y-71941636D01*
X198244335Y-71835012D01*
X198335012Y-71744335D01*
X198441636Y-71673091D01*
X198560110Y-71624017D01*
X198567249Y-71622597D01*
X198590698Y-71615484D01*
X198612309Y-71603933D01*
X198631251Y-71588388D01*
X198646797Y-71569446D01*
X198658348Y-71547836D01*
X198665461Y-71524387D01*
X198667863Y-71500001D01*
X198665461Y-71475615D01*
X198658348Y-71452166D01*
X198646797Y-71430555D01*
X198631252Y-71411613D01*
X198612310Y-71396067D01*
X198590700Y-71384516D01*
X198567249Y-71377403D01*
X198560110Y-71375983D01*
X198441636Y-71326909D01*
X198335012Y-71255665D01*
X198244335Y-71164988D01*
X198173091Y-71058364D01*
X198124017Y-70939890D01*
X198099000Y-70814118D01*
X198099000Y-70685882D01*
X198124017Y-70560110D01*
X198173091Y-70441636D01*
X198244335Y-70335012D01*
X198335012Y-70244335D01*
X198441636Y-70173091D01*
X198517945Y-70141483D01*
X198539555Y-70129932D01*
X198558497Y-70114387D01*
X198574042Y-70095445D01*
X198585593Y-70073834D01*
X198592706Y-70050385D01*
X198595108Y-70025999D01*
X198592706Y-70001613D01*
X198585593Y-69978164D01*
X198574042Y-69956553D01*
X198558497Y-69937611D01*
X198539555Y-69922066D01*
X198517944Y-69910515D01*
X198494495Y-69903402D01*
X198470109Y-69901000D01*
X198208285Y-69901000D01*
X198182138Y-69898425D01*
X198162903Y-69892590D01*
X198145178Y-69883116D01*
X198129638Y-69870362D01*
X198116884Y-69854822D01*
X198107410Y-69837097D01*
X198101575Y-69817862D01*
X198099000Y-69791715D01*
X198099000Y-68708285D01*
X198101575Y-68682138D01*
X198107410Y-68662903D01*
X198116884Y-68645178D01*
X198129638Y-68629638D01*
X198145178Y-68616884D01*
X198162903Y-68607410D01*
X198182138Y-68601575D01*
X198208285Y-68599000D01*
X199291715Y-68599000D01*
X199317862Y-68601575D01*
G37*
G36*
X103439890Y-68624017D02*
G01*
X103533769Y-68662903D01*
X103558364Y-68673091D01*
X103664988Y-68744335D01*
X103755665Y-68835012D01*
X103826909Y-68941636D01*
X103875983Y-69060110D01*
X103901000Y-69185882D01*
X103901000Y-69314118D01*
X103875983Y-69439890D01*
X103826909Y-69558364D01*
X103755665Y-69664988D01*
X103664988Y-69755665D01*
X103558364Y-69826909D01*
X103439890Y-69875983D01*
X103432751Y-69877403D01*
X103409302Y-69884516D01*
X103387691Y-69896067D01*
X103368749Y-69911612D01*
X103353203Y-69930554D01*
X103341652Y-69952164D01*
X103334539Y-69975613D01*
X103332137Y-69999999D01*
X103334539Y-70024385D01*
X103341652Y-70047834D01*
X103353203Y-70069445D01*
X103368748Y-70088387D01*
X103387690Y-70103933D01*
X103409300Y-70115484D01*
X103432751Y-70122597D01*
X103439890Y-70124017D01*
X103558364Y-70173091D01*
X103664988Y-70244335D01*
X103755665Y-70335012D01*
X103826909Y-70441636D01*
X103875983Y-70560110D01*
X103901000Y-70685882D01*
X103901000Y-70814118D01*
X103875983Y-70939890D01*
X103826909Y-71058364D01*
X103755665Y-71164988D01*
X103664988Y-71255665D01*
X103558364Y-71326909D01*
X103558363Y-71326910D01*
X103558362Y-71326910D01*
X103482056Y-71358517D01*
X103460445Y-71370068D01*
X103441503Y-71385613D01*
X103425958Y-71404555D01*
X103414407Y-71426166D01*
X103407294Y-71449615D01*
X103404892Y-71474001D01*
X103407294Y-71498387D01*
X103414407Y-71521836D01*
X103425958Y-71543447D01*
X103441503Y-71562389D01*
X103460445Y-71577934D01*
X103482056Y-71589485D01*
X103505505Y-71596598D01*
X103529891Y-71599000D01*
X103791715Y-71599000D01*
X103817862Y-71601575D01*
X103837097Y-71607410D01*
X103854822Y-71616884D01*
X103870362Y-71629638D01*
X103883116Y-71645178D01*
X103892590Y-71662903D01*
X103898425Y-71682138D01*
X103901000Y-71708285D01*
X103901000Y-72791715D01*
X103898425Y-72817862D01*
X103892590Y-72837097D01*
X103883116Y-72854822D01*
X103870362Y-72870362D01*
X103854822Y-72883116D01*
X103837097Y-72892590D01*
X103817862Y-72898425D01*
X103791715Y-72901000D01*
X102708285Y-72901000D01*
X102682138Y-72898425D01*
X102662903Y-72892590D01*
X102645178Y-72883116D01*
X102629638Y-72870362D01*
X102616884Y-72854822D01*
X102607410Y-72837097D01*
X102601575Y-72817862D01*
X102599000Y-72791715D01*
X102599000Y-71708285D01*
X102601575Y-71682138D01*
X102607410Y-71662903D01*
X102616884Y-71645178D01*
X102629638Y-71629638D01*
X102645178Y-71616884D01*
X102662903Y-71607410D01*
X102682138Y-71601575D01*
X102708285Y-71599000D01*
X102970109Y-71599000D01*
X102994495Y-71596598D01*
X103017944Y-71589485D01*
X103039555Y-71577934D01*
X103058497Y-71562389D01*
X103074042Y-71543447D01*
X103085593Y-71521836D01*
X103092706Y-71498387D01*
X103095108Y-71474001D01*
X103092706Y-71449615D01*
X103085593Y-71426166D01*
X103074042Y-71404555D01*
X103058497Y-71385613D01*
X103039555Y-71370068D01*
X103017944Y-71358517D01*
X102941638Y-71326910D01*
X102941637Y-71326910D01*
X102941636Y-71326909D01*
X102835012Y-71255665D01*
X102744335Y-71164988D01*
X102673091Y-71058364D01*
X102624017Y-70939890D01*
X102599000Y-70814118D01*
X102599000Y-70685882D01*
X102624017Y-70560110D01*
X102673091Y-70441636D01*
X102744335Y-70335012D01*
X102835012Y-70244335D01*
X102941636Y-70173091D01*
X103060110Y-70124017D01*
X103067249Y-70122597D01*
X103090698Y-70115484D01*
X103112309Y-70103933D01*
X103131251Y-70088388D01*
X103146797Y-70069446D01*
X103158348Y-70047836D01*
X103165461Y-70024387D01*
X103167863Y-70000001D01*
X103165461Y-69975615D01*
X103158348Y-69952166D01*
X103146797Y-69930555D01*
X103131252Y-69911613D01*
X103112310Y-69896067D01*
X103090700Y-69884516D01*
X103067249Y-69877403D01*
X103060110Y-69875983D01*
X102941636Y-69826909D01*
X102835012Y-69755665D01*
X102744335Y-69664988D01*
X102673091Y-69558364D01*
X102624017Y-69439890D01*
X102599000Y-69314118D01*
X102599000Y-69185882D01*
X102624017Y-69060110D01*
X102673091Y-68941636D01*
X102744335Y-68835012D01*
X102835012Y-68744335D01*
X102941636Y-68673091D01*
X102966232Y-68662903D01*
X103060110Y-68624017D01*
X103185881Y-68599000D01*
X103314119Y-68599000D01*
X103439890Y-68624017D01*
G37*
G36*
X151299272Y-69513428D02*
G01*
X151407756Y-69558364D01*
X151485993Y-69590771D01*
X151654037Y-69703054D01*
X151796946Y-69845963D01*
X151909229Y-70014007D01*
X151909230Y-70014009D01*
X151986572Y-70200728D01*
X152026000Y-70398947D01*
X152026000Y-70601053D01*
X151986572Y-70799272D01*
X151909230Y-70985991D01*
X151909229Y-70985993D01*
X151796946Y-71154037D01*
X151654037Y-71296946D01*
X151485993Y-71409229D01*
X151485992Y-71409230D01*
X151485991Y-71409230D01*
X151299272Y-71486572D01*
X151101053Y-71526000D01*
X150898947Y-71526000D01*
X150700728Y-71486572D01*
X150514009Y-71409230D01*
X150514008Y-71409230D01*
X150514007Y-71409229D01*
X150345963Y-71296946D01*
X150203054Y-71154037D01*
X150090771Y-70985993D01*
X150090770Y-70985991D01*
X150013428Y-70799272D01*
X149974000Y-70601053D01*
X149974000Y-70398947D01*
X150013428Y-70200728D01*
X150090770Y-70014009D01*
X150090771Y-70014007D01*
X150203054Y-69845963D01*
X150345963Y-69703054D01*
X150514007Y-69590771D01*
X150592244Y-69558364D01*
X150700728Y-69513428D01*
X150898947Y-69474000D01*
X151101053Y-69474000D01*
X151299272Y-69513428D01*
G37*
G36*
X158799272Y-69513428D02*
G01*
X158907756Y-69558364D01*
X158985993Y-69590771D01*
X159154037Y-69703054D01*
X159296946Y-69845963D01*
X159409229Y-70014007D01*
X159409230Y-70014009D01*
X159486572Y-70200728D01*
X159526000Y-70398947D01*
X159526000Y-70601053D01*
X159486572Y-70799272D01*
X159409230Y-70985991D01*
X159409229Y-70985993D01*
X159296946Y-71154037D01*
X159154037Y-71296946D01*
X158985993Y-71409229D01*
X158985992Y-71409230D01*
X158985991Y-71409230D01*
X158799272Y-71486572D01*
X158601053Y-71526000D01*
X158398947Y-71526000D01*
X158200728Y-71486572D01*
X158014009Y-71409230D01*
X158014008Y-71409230D01*
X158014007Y-71409229D01*
X157845963Y-71296946D01*
X157703054Y-71154037D01*
X157590771Y-70985993D01*
X157590770Y-70985991D01*
X157513428Y-70799272D01*
X157474000Y-70601053D01*
X157474000Y-70398947D01*
X157513428Y-70200728D01*
X157590770Y-70014009D01*
X157590771Y-70014007D01*
X157703054Y-69845963D01*
X157845963Y-69703054D01*
X158014007Y-69590771D01*
X158092244Y-69558364D01*
X158200728Y-69513428D01*
X158398947Y-69474000D01*
X158601053Y-69474000D01*
X158799272Y-69513428D01*
G37*
G36*
X143799272Y-69513428D02*
G01*
X143907756Y-69558364D01*
X143985993Y-69590771D01*
X144154037Y-69703054D01*
X144296946Y-69845963D01*
X144409229Y-70014007D01*
X144409230Y-70014009D01*
X144486572Y-70200728D01*
X144526000Y-70398947D01*
X144526000Y-70601053D01*
X144486572Y-70799272D01*
X144409230Y-70985991D01*
X144409229Y-70985993D01*
X144296946Y-71154037D01*
X144154037Y-71296946D01*
X143985993Y-71409229D01*
X143985992Y-71409230D01*
X143985991Y-71409230D01*
X143799272Y-71486572D01*
X143601053Y-71526000D01*
X143398947Y-71526000D01*
X143200728Y-71486572D01*
X143014009Y-71409230D01*
X143014008Y-71409230D01*
X143014007Y-71409229D01*
X142845963Y-71296946D01*
X142703054Y-71154037D01*
X142590771Y-70985993D01*
X142590770Y-70985991D01*
X142513428Y-70799272D01*
X142474000Y-70601053D01*
X142474000Y-70398947D01*
X142513428Y-70200728D01*
X142590770Y-70014009D01*
X142590771Y-70014007D01*
X142703054Y-69845963D01*
X142845963Y-69703054D01*
X143014007Y-69590771D01*
X143092244Y-69558364D01*
X143200728Y-69513428D01*
X143398947Y-69474000D01*
X143601053Y-69474000D01*
X143799272Y-69513428D01*
G37*
G36*
X156299272Y-67013428D02*
G01*
X156485991Y-67090770D01*
X156485993Y-67090771D01*
X156654037Y-67203054D01*
X156796946Y-67345963D01*
X156909229Y-67514007D01*
X156909230Y-67514009D01*
X156986572Y-67700728D01*
X157026000Y-67898947D01*
X157026000Y-68101053D01*
X156986572Y-68299272D01*
X156909230Y-68485991D01*
X156909229Y-68485993D01*
X156796946Y-68654037D01*
X156654037Y-68796946D01*
X156485993Y-68909229D01*
X156485992Y-68909230D01*
X156485991Y-68909230D01*
X156299272Y-68986572D01*
X156101053Y-69026000D01*
X155898947Y-69026000D01*
X155700728Y-68986572D01*
X155514009Y-68909230D01*
X155514008Y-68909230D01*
X155514007Y-68909229D01*
X155345963Y-68796946D01*
X155203054Y-68654037D01*
X155090771Y-68485993D01*
X155090770Y-68485991D01*
X155013428Y-68299272D01*
X154974000Y-68101053D01*
X154974000Y-67898947D01*
X155013428Y-67700728D01*
X155090770Y-67514009D01*
X155090771Y-67514007D01*
X155203054Y-67345963D01*
X155345963Y-67203054D01*
X155514007Y-67090771D01*
X155514009Y-67090770D01*
X155700728Y-67013428D01*
X155898947Y-66974000D01*
X156101053Y-66974000D01*
X156299272Y-67013428D01*
G37*
G36*
X146299272Y-67013428D02*
G01*
X146485991Y-67090770D01*
X146485993Y-67090771D01*
X146654037Y-67203054D01*
X146796946Y-67345963D01*
X146909229Y-67514007D01*
X146909230Y-67514009D01*
X146986572Y-67700728D01*
X147026000Y-67898947D01*
X147026000Y-68101053D01*
X146986572Y-68299272D01*
X146909230Y-68485991D01*
X146909229Y-68485993D01*
X146796946Y-68654037D01*
X146654037Y-68796946D01*
X146485993Y-68909229D01*
X146485992Y-68909230D01*
X146485991Y-68909230D01*
X146299272Y-68986572D01*
X146101053Y-69026000D01*
X145898947Y-69026000D01*
X145700728Y-68986572D01*
X145514009Y-68909230D01*
X145514008Y-68909230D01*
X145514007Y-68909229D01*
X145345963Y-68796946D01*
X145203054Y-68654037D01*
X145090771Y-68485993D01*
X145090770Y-68485991D01*
X145013428Y-68299272D01*
X144974000Y-68101053D01*
X144974000Y-67898947D01*
X145013428Y-67700728D01*
X145090770Y-67514009D01*
X145090771Y-67514007D01*
X145203054Y-67345963D01*
X145345963Y-67203054D01*
X145514007Y-67090771D01*
X145514009Y-67090770D01*
X145700728Y-67013428D01*
X145898947Y-66974000D01*
X146101053Y-66974000D01*
X146299272Y-67013428D01*
G37*
M02*
