%TF.GenerationSoftware,KiCad,Pcbnew,(5.1.6-0-10_14)*%
%TF.CreationDate,2020-10-24T23:40:29+09:00*%
%TF.ProjectId,teabiscuits_dac_mcp48,74656162-6973-4637-9569-74735f646163,rev?*%
%TF.SameCoordinates,Original*%
%TF.FileFunction,Soldermask,Top*%
%TF.FilePolarity,Negative*%
%FSLAX46Y46*%
G04 Gerber Fmt 4.6, Leading zero omitted, Abs format (unit mm)*
G04 Created by KiCad (PCBNEW (5.1.6-0-10_14)) date 2020-10-24 23:40:29*
%MOMM*%
%LPD*%
G01*
G04 APERTURE LIST*
%ADD10O,1.800000X1.800000*%
%ADD11R,1.800000X1.800000*%
%ADD12C,0.100000*%
%ADD13R,2.200000X1.200000*%
G04 APERTURE END LIST*
%TO.C,U2*%
G36*
G01*
X163950000Y-109270000D02*
X163950000Y-108920000D01*
G75*
G02*
X164125000Y-108745000I175000J0D01*
G01*
X165825000Y-108745000D01*
G75*
G02*
X166000000Y-108920000I0J-175000D01*
G01*
X166000000Y-109270000D01*
G75*
G02*
X165825000Y-109445000I-175000J0D01*
G01*
X164125000Y-109445000D01*
G75*
G02*
X163950000Y-109270000I0J175000D01*
G01*
G37*
G36*
G01*
X163950000Y-110540000D02*
X163950000Y-110190000D01*
G75*
G02*
X164125000Y-110015000I175000J0D01*
G01*
X165825000Y-110015000D01*
G75*
G02*
X166000000Y-110190000I0J-175000D01*
G01*
X166000000Y-110540000D01*
G75*
G02*
X165825000Y-110715000I-175000J0D01*
G01*
X164125000Y-110715000D01*
G75*
G02*
X163950000Y-110540000I0J175000D01*
G01*
G37*
G36*
G01*
X163950000Y-111810000D02*
X163950000Y-111460000D01*
G75*
G02*
X164125000Y-111285000I175000J0D01*
G01*
X165825000Y-111285000D01*
G75*
G02*
X166000000Y-111460000I0J-175000D01*
G01*
X166000000Y-111810000D01*
G75*
G02*
X165825000Y-111985000I-175000J0D01*
G01*
X164125000Y-111985000D01*
G75*
G02*
X163950000Y-111810000I0J175000D01*
G01*
G37*
G36*
G01*
X163950000Y-113080000D02*
X163950000Y-112730000D01*
G75*
G02*
X164125000Y-112555000I175000J0D01*
G01*
X165825000Y-112555000D01*
G75*
G02*
X166000000Y-112730000I0J-175000D01*
G01*
X166000000Y-113080000D01*
G75*
G02*
X165825000Y-113255000I-175000J0D01*
G01*
X164125000Y-113255000D01*
G75*
G02*
X163950000Y-113080000I0J175000D01*
G01*
G37*
G36*
G01*
X159000000Y-113080000D02*
X159000000Y-112730000D01*
G75*
G02*
X159175000Y-112555000I175000J0D01*
G01*
X160875000Y-112555000D01*
G75*
G02*
X161050000Y-112730000I0J-175000D01*
G01*
X161050000Y-113080000D01*
G75*
G02*
X160875000Y-113255000I-175000J0D01*
G01*
X159175000Y-113255000D01*
G75*
G02*
X159000000Y-113080000I0J175000D01*
G01*
G37*
G36*
G01*
X159000000Y-111810000D02*
X159000000Y-111460000D01*
G75*
G02*
X159175000Y-111285000I175000J0D01*
G01*
X160875000Y-111285000D01*
G75*
G02*
X161050000Y-111460000I0J-175000D01*
G01*
X161050000Y-111810000D01*
G75*
G02*
X160875000Y-111985000I-175000J0D01*
G01*
X159175000Y-111985000D01*
G75*
G02*
X159000000Y-111810000I0J175000D01*
G01*
G37*
G36*
G01*
X159000000Y-110540000D02*
X159000000Y-110190000D01*
G75*
G02*
X159175000Y-110015000I175000J0D01*
G01*
X160875000Y-110015000D01*
G75*
G02*
X161050000Y-110190000I0J-175000D01*
G01*
X161050000Y-110540000D01*
G75*
G02*
X160875000Y-110715000I-175000J0D01*
G01*
X159175000Y-110715000D01*
G75*
G02*
X159000000Y-110540000I0J175000D01*
G01*
G37*
G36*
G01*
X159000000Y-109270000D02*
X159000000Y-108920000D01*
G75*
G02*
X159175000Y-108745000I175000J0D01*
G01*
X160875000Y-108745000D01*
G75*
G02*
X161050000Y-108920000I0J-175000D01*
G01*
X161050000Y-109270000D01*
G75*
G02*
X160875000Y-109445000I-175000J0D01*
G01*
X159175000Y-109445000D01*
G75*
G02*
X159000000Y-109270000I0J175000D01*
G01*
G37*
%TD*%
%TO.C,U1*%
G36*
G01*
X147450000Y-111770000D02*
X147450000Y-111420000D01*
G75*
G02*
X147625000Y-111245000I175000J0D01*
G01*
X149325000Y-111245000D01*
G75*
G02*
X149500000Y-111420000I0J-175000D01*
G01*
X149500000Y-111770000D01*
G75*
G02*
X149325000Y-111945000I-175000J0D01*
G01*
X147625000Y-111945000D01*
G75*
G02*
X147450000Y-111770000I0J175000D01*
G01*
G37*
G36*
G01*
X147450000Y-113040000D02*
X147450000Y-112690000D01*
G75*
G02*
X147625000Y-112515000I175000J0D01*
G01*
X149325000Y-112515000D01*
G75*
G02*
X149500000Y-112690000I0J-175000D01*
G01*
X149500000Y-113040000D01*
G75*
G02*
X149325000Y-113215000I-175000J0D01*
G01*
X147625000Y-113215000D01*
G75*
G02*
X147450000Y-113040000I0J175000D01*
G01*
G37*
G36*
G01*
X147450000Y-114310000D02*
X147450000Y-113960000D01*
G75*
G02*
X147625000Y-113785000I175000J0D01*
G01*
X149325000Y-113785000D01*
G75*
G02*
X149500000Y-113960000I0J-175000D01*
G01*
X149500000Y-114310000D01*
G75*
G02*
X149325000Y-114485000I-175000J0D01*
G01*
X147625000Y-114485000D01*
G75*
G02*
X147450000Y-114310000I0J175000D01*
G01*
G37*
G36*
G01*
X147450000Y-115580000D02*
X147450000Y-115230000D01*
G75*
G02*
X147625000Y-115055000I175000J0D01*
G01*
X149325000Y-115055000D01*
G75*
G02*
X149500000Y-115230000I0J-175000D01*
G01*
X149500000Y-115580000D01*
G75*
G02*
X149325000Y-115755000I-175000J0D01*
G01*
X147625000Y-115755000D01*
G75*
G02*
X147450000Y-115580000I0J175000D01*
G01*
G37*
G36*
G01*
X142500000Y-115580000D02*
X142500000Y-115230000D01*
G75*
G02*
X142675000Y-115055000I175000J0D01*
G01*
X144375000Y-115055000D01*
G75*
G02*
X144550000Y-115230000I0J-175000D01*
G01*
X144550000Y-115580000D01*
G75*
G02*
X144375000Y-115755000I-175000J0D01*
G01*
X142675000Y-115755000D01*
G75*
G02*
X142500000Y-115580000I0J175000D01*
G01*
G37*
G36*
G01*
X142500000Y-114310000D02*
X142500000Y-113960000D01*
G75*
G02*
X142675000Y-113785000I175000J0D01*
G01*
X144375000Y-113785000D01*
G75*
G02*
X144550000Y-113960000I0J-175000D01*
G01*
X144550000Y-114310000D01*
G75*
G02*
X144375000Y-114485000I-175000J0D01*
G01*
X142675000Y-114485000D01*
G75*
G02*
X142500000Y-114310000I0J175000D01*
G01*
G37*
G36*
G01*
X142500000Y-113040000D02*
X142500000Y-112690000D01*
G75*
G02*
X142675000Y-112515000I175000J0D01*
G01*
X144375000Y-112515000D01*
G75*
G02*
X144550000Y-112690000I0J-175000D01*
G01*
X144550000Y-113040000D01*
G75*
G02*
X144375000Y-113215000I-175000J0D01*
G01*
X142675000Y-113215000D01*
G75*
G02*
X142500000Y-113040000I0J175000D01*
G01*
G37*
G36*
G01*
X142500000Y-111770000D02*
X142500000Y-111420000D01*
G75*
G02*
X142675000Y-111245000I175000J0D01*
G01*
X144375000Y-111245000D01*
G75*
G02*
X144550000Y-111420000I0J-175000D01*
G01*
X144550000Y-111770000D01*
G75*
G02*
X144375000Y-111945000I-175000J0D01*
G01*
X142675000Y-111945000D01*
G75*
G02*
X142500000Y-111770000I0J175000D01*
G01*
G37*
%TD*%
%TO.C,R5*%
G36*
G01*
X160775000Y-106095000D02*
X160775000Y-107405000D01*
G75*
G02*
X160505000Y-107675000I-270000J0D01*
G01*
X159695000Y-107675000D01*
G75*
G02*
X159425000Y-107405000I0J270000D01*
G01*
X159425000Y-106095000D01*
G75*
G02*
X159695000Y-105825000I270000J0D01*
G01*
X160505000Y-105825000D01*
G75*
G02*
X160775000Y-106095000I0J-270000D01*
G01*
G37*
G36*
G01*
X163575000Y-106095000D02*
X163575000Y-107405000D01*
G75*
G02*
X163305000Y-107675000I-270000J0D01*
G01*
X162495000Y-107675000D01*
G75*
G02*
X162225000Y-107405000I0J270000D01*
G01*
X162225000Y-106095000D01*
G75*
G02*
X162495000Y-105825000I270000J0D01*
G01*
X163305000Y-105825000D01*
G75*
G02*
X163575000Y-106095000I0J-270000D01*
G01*
G37*
%TD*%
%TO.C,R4*%
G36*
G01*
X156905000Y-111675000D02*
X155595000Y-111675000D01*
G75*
G02*
X155325000Y-111405000I0J270000D01*
G01*
X155325000Y-110595000D01*
G75*
G02*
X155595000Y-110325000I270000J0D01*
G01*
X156905000Y-110325000D01*
G75*
G02*
X157175000Y-110595000I0J-270000D01*
G01*
X157175000Y-111405000D01*
G75*
G02*
X156905000Y-111675000I-270000J0D01*
G01*
G37*
G36*
G01*
X156905000Y-114475000D02*
X155595000Y-114475000D01*
G75*
G02*
X155325000Y-114205000I0J270000D01*
G01*
X155325000Y-113395000D01*
G75*
G02*
X155595000Y-113125000I270000J0D01*
G01*
X156905000Y-113125000D01*
G75*
G02*
X157175000Y-113395000I0J-270000D01*
G01*
X157175000Y-114205000D01*
G75*
G02*
X156905000Y-114475000I-270000J0D01*
G01*
G37*
%TD*%
%TO.C,R3*%
G36*
G01*
X156905000Y-106875000D02*
X155595000Y-106875000D01*
G75*
G02*
X155325000Y-106605000I0J270000D01*
G01*
X155325000Y-105795000D01*
G75*
G02*
X155595000Y-105525000I270000J0D01*
G01*
X156905000Y-105525000D01*
G75*
G02*
X157175000Y-105795000I0J-270000D01*
G01*
X157175000Y-106605000D01*
G75*
G02*
X156905000Y-106875000I-270000J0D01*
G01*
G37*
G36*
G01*
X156905000Y-109675000D02*
X155595000Y-109675000D01*
G75*
G02*
X155325000Y-109405000I0J270000D01*
G01*
X155325000Y-108595000D01*
G75*
G02*
X155595000Y-108325000I270000J0D01*
G01*
X156905000Y-108325000D01*
G75*
G02*
X157175000Y-108595000I0J-270000D01*
G01*
X157175000Y-109405000D01*
G75*
G02*
X156905000Y-109675000I-270000J0D01*
G01*
G37*
%TD*%
%TO.C,R2*%
G36*
G01*
X151625000Y-111095000D02*
X151625000Y-112405000D01*
G75*
G02*
X151355000Y-112675000I-270000J0D01*
G01*
X150545000Y-112675000D01*
G75*
G02*
X150275000Y-112405000I0J270000D01*
G01*
X150275000Y-111095000D01*
G75*
G02*
X150545000Y-110825000I270000J0D01*
G01*
X151355000Y-110825000D01*
G75*
G02*
X151625000Y-111095000I0J-270000D01*
G01*
G37*
G36*
G01*
X154425000Y-111095000D02*
X154425000Y-112405000D01*
G75*
G02*
X154155000Y-112675000I-270000J0D01*
G01*
X153345000Y-112675000D01*
G75*
G02*
X153075000Y-112405000I0J270000D01*
G01*
X153075000Y-111095000D01*
G75*
G02*
X153345000Y-110825000I270000J0D01*
G01*
X154155000Y-110825000D01*
G75*
G02*
X154425000Y-111095000I0J-270000D01*
G01*
G37*
%TD*%
%TO.C,R1*%
G36*
G01*
X151905000Y-114875000D02*
X150595000Y-114875000D01*
G75*
G02*
X150325000Y-114605000I0J270000D01*
G01*
X150325000Y-113795000D01*
G75*
G02*
X150595000Y-113525000I270000J0D01*
G01*
X151905000Y-113525000D01*
G75*
G02*
X152175000Y-113795000I0J-270000D01*
G01*
X152175000Y-114605000D01*
G75*
G02*
X151905000Y-114875000I-270000J0D01*
G01*
G37*
G36*
G01*
X151905000Y-117675000D02*
X150595000Y-117675000D01*
G75*
G02*
X150325000Y-117405000I0J270000D01*
G01*
X150325000Y-116595000D01*
G75*
G02*
X150595000Y-116325000I270000J0D01*
G01*
X151905000Y-116325000D01*
G75*
G02*
X152175000Y-116595000I0J-270000D01*
G01*
X152175000Y-117405000D01*
G75*
G02*
X151905000Y-117675000I-270000J0D01*
G01*
G37*
%TD*%
D10*
%TO.C,J2*%
X131210000Y-106590000D03*
X133750000Y-106590000D03*
X131210000Y-109130000D03*
X133750000Y-109130000D03*
X131210000Y-111670000D03*
X133750000Y-111670000D03*
X131210000Y-114210000D03*
X133750000Y-114210000D03*
X131210000Y-116750000D03*
D11*
X133750000Y-116750000D03*
%TD*%
D12*
%TO.C,J1*%
G36*
X172190245Y-110979039D02*
G01*
X172180866Y-110976194D01*
X172172221Y-110971573D01*
X172164645Y-110965355D01*
X172158427Y-110957779D01*
X172153806Y-110949134D01*
X172150961Y-110939755D01*
X172150000Y-110930000D01*
X172150000Y-109450000D01*
X172150961Y-109440245D01*
X172153806Y-109430866D01*
X172158427Y-109422221D01*
X172164645Y-109414645D01*
X172172221Y-109408427D01*
X172180866Y-109403806D01*
X172190245Y-109400961D01*
X172200000Y-109400000D01*
X179700000Y-109400000D01*
X179709755Y-109400961D01*
X179719134Y-109403806D01*
X179727779Y-109408427D01*
X179735355Y-109414645D01*
X179741573Y-109422221D01*
X179746194Y-109430866D01*
X179749039Y-109440245D01*
X179750000Y-109450000D01*
X179750000Y-110000000D01*
X179749039Y-110009755D01*
X179746194Y-110019134D01*
X179741573Y-110027779D01*
X179735355Y-110035355D01*
X179727779Y-110041573D01*
X179719134Y-110046194D01*
X179709755Y-110049039D01*
X179700000Y-110050000D01*
X175250000Y-110050000D01*
X175250000Y-110930000D01*
X175249039Y-110939755D01*
X175246194Y-110949134D01*
X175241573Y-110957779D01*
X175235355Y-110965355D01*
X175227779Y-110971573D01*
X175219134Y-110976194D01*
X175209755Y-110979039D01*
X175200000Y-110980000D01*
X172200000Y-110980000D01*
X172190245Y-110979039D01*
G37*
G36*
X172190245Y-114099039D02*
G01*
X172180866Y-114096194D01*
X172172221Y-114091573D01*
X172164645Y-114085355D01*
X172158427Y-114077779D01*
X172153806Y-114069134D01*
X172150961Y-114059755D01*
X172150000Y-114050000D01*
X172150000Y-112570000D01*
X172150961Y-112560245D01*
X172153806Y-112550866D01*
X172158427Y-112542221D01*
X172164645Y-112534645D01*
X172172221Y-112528427D01*
X172180866Y-112523806D01*
X172190245Y-112520961D01*
X172200000Y-112520000D01*
X175200000Y-112520000D01*
X175209755Y-112520961D01*
X175219134Y-112523806D01*
X175227779Y-112528427D01*
X175235355Y-112534645D01*
X175241573Y-112542221D01*
X175246194Y-112550866D01*
X175249039Y-112560245D01*
X175250000Y-112570000D01*
X175250000Y-113450000D01*
X179700000Y-113450000D01*
X179709755Y-113450961D01*
X179719134Y-113453806D01*
X179727779Y-113458427D01*
X179735355Y-113464645D01*
X179741573Y-113472221D01*
X179746194Y-113480866D01*
X179749039Y-113490245D01*
X179750000Y-113500000D01*
X179750000Y-114050000D01*
X179749039Y-114059755D01*
X179746194Y-114069134D01*
X179741573Y-114077779D01*
X179735355Y-114085355D01*
X179727779Y-114091573D01*
X179719134Y-114096194D01*
X179709755Y-114099039D01*
X179700000Y-114100000D01*
X172200000Y-114100000D01*
X172190245Y-114099039D01*
G37*
D13*
X173250000Y-111750000D03*
%TD*%
%TO.C,C4*%
G36*
G01*
X160375000Y-114595000D02*
X160375000Y-115905000D01*
G75*
G02*
X160105000Y-116175000I-270000J0D01*
G01*
X159295000Y-116175000D01*
G75*
G02*
X159025000Y-115905000I0J270000D01*
G01*
X159025000Y-114595000D01*
G75*
G02*
X159295000Y-114325000I270000J0D01*
G01*
X160105000Y-114325000D01*
G75*
G02*
X160375000Y-114595000I0J-270000D01*
G01*
G37*
G36*
G01*
X163175000Y-114595000D02*
X163175000Y-115905000D01*
G75*
G02*
X162905000Y-116175000I-270000J0D01*
G01*
X162095000Y-116175000D01*
G75*
G02*
X161825000Y-115905000I0J270000D01*
G01*
X161825000Y-114595000D01*
G75*
G02*
X162095000Y-114325000I270000J0D01*
G01*
X162905000Y-114325000D01*
G75*
G02*
X163175000Y-114595000I0J-270000D01*
G01*
G37*
%TD*%
%TO.C,C3*%
G36*
G01*
X168095000Y-109325000D02*
X169405000Y-109325000D01*
G75*
G02*
X169675000Y-109595000I0J-270000D01*
G01*
X169675000Y-110405000D01*
G75*
G02*
X169405000Y-110675000I-270000J0D01*
G01*
X168095000Y-110675000D01*
G75*
G02*
X167825000Y-110405000I0J270000D01*
G01*
X167825000Y-109595000D01*
G75*
G02*
X168095000Y-109325000I270000J0D01*
G01*
G37*
G36*
G01*
X168095000Y-106525000D02*
X169405000Y-106525000D01*
G75*
G02*
X169675000Y-106795000I0J-270000D01*
G01*
X169675000Y-107605000D01*
G75*
G02*
X169405000Y-107875000I-270000J0D01*
G01*
X168095000Y-107875000D01*
G75*
G02*
X167825000Y-107605000I0J270000D01*
G01*
X167825000Y-106795000D01*
G75*
G02*
X168095000Y-106525000I270000J0D01*
G01*
G37*
%TD*%
%TO.C,C2*%
G36*
G01*
X144125000Y-105845000D02*
X144125000Y-107155000D01*
G75*
G02*
X143855000Y-107425000I-270000J0D01*
G01*
X143045000Y-107425000D01*
G75*
G02*
X142775000Y-107155000I0J270000D01*
G01*
X142775000Y-105845000D01*
G75*
G02*
X143045000Y-105575000I270000J0D01*
G01*
X143855000Y-105575000D01*
G75*
G02*
X144125000Y-105845000I0J-270000D01*
G01*
G37*
G36*
G01*
X146925000Y-105845000D02*
X146925000Y-107155000D01*
G75*
G02*
X146655000Y-107425000I-270000J0D01*
G01*
X145845000Y-107425000D01*
G75*
G02*
X145575000Y-107155000I0J270000D01*
G01*
X145575000Y-105845000D01*
G75*
G02*
X145845000Y-105575000I270000J0D01*
G01*
X146655000Y-105575000D01*
G75*
G02*
X146925000Y-105845000I0J-270000D01*
G01*
G37*
%TD*%
%TO.C,C1*%
G36*
G01*
X145500000Y-109456482D02*
X145500000Y-108543518D01*
G75*
G02*
X145768518Y-108275000I268518J0D01*
G01*
X146731482Y-108275000D01*
G75*
G02*
X147000000Y-108543518I0J-268518D01*
G01*
X147000000Y-109456482D01*
G75*
G02*
X146731482Y-109725000I-268518J0D01*
G01*
X145768518Y-109725000D01*
G75*
G02*
X145500000Y-109456482I0J268518D01*
G01*
G37*
G36*
G01*
X142800000Y-109456482D02*
X142800000Y-108543518D01*
G75*
G02*
X143068518Y-108275000I268518J0D01*
G01*
X144031482Y-108275000D01*
G75*
G02*
X144300000Y-108543518I0J-268518D01*
G01*
X144300000Y-109456482D01*
G75*
G02*
X144031482Y-109725000I-268518J0D01*
G01*
X143068518Y-109725000D01*
G75*
G02*
X142800000Y-109456482I0J268518D01*
G01*
G37*
%TD*%
M02*
