%TF.GenerationSoftware,KiCad,Pcbnew,(5.1.6-0-10_14)*%
%TF.CreationDate,2020-10-24T23:40:29+09:00*%
%TF.ProjectId,teabiscuits_dac_mcp48,74656162-6973-4637-9569-74735f646163,rev?*%
%TF.SameCoordinates,Original*%
%TF.FileFunction,Copper,L2,Bot*%
%TF.FilePolarity,Positive*%
%FSLAX46Y46*%
G04 Gerber Fmt 4.6, Leading zero omitted, Abs format (unit mm)*
G04 Created by KiCad (PCBNEW (5.1.6-0-10_14)) date 2020-10-24 23:40:29*
%MOMM*%
%LPD*%
G01*
G04 APERTURE LIST*
%TA.AperFunction,ComponentPad*%
%ADD10O,1.700000X1.700000*%
%TD*%
%TA.AperFunction,ComponentPad*%
%ADD11R,1.700000X1.700000*%
%TD*%
%TA.AperFunction,ViaPad*%
%ADD12C,0.800000*%
%TD*%
%TA.AperFunction,Conductor*%
%ADD13C,0.250000*%
%TD*%
%TA.AperFunction,Conductor*%
%ADD14C,0.254000*%
%TD*%
G04 APERTURE END LIST*
D10*
%TO.P,J2,10*%
%TO.N,LDAC*%
X131210000Y-106590000D03*
%TO.P,J2,9*%
%TO.N,REF*%
X133750000Y-106590000D03*
%TO.P,J2,8*%
%TO.N,-5V*%
X131210000Y-109130000D03*
%TO.P,J2,7*%
%TO.N,+5V*%
X133750000Y-109130000D03*
%TO.P,J2,6*%
%TO.N,+3V3*%
X131210000Y-111670000D03*
%TO.P,J2,5*%
%TO.N,GND*%
X133750000Y-111670000D03*
%TO.P,J2,4*%
%TO.N,CS*%
X131210000Y-114210000D03*
%TO.P,J2,3*%
%TO.N,Net-(J2-Pad3)*%
X133750000Y-114210000D03*
%TO.P,J2,2*%
%TO.N,SDI*%
X131210000Y-116750000D03*
D11*
%TO.P,J2,1*%
%TO.N,SCK*%
X133750000Y-116750000D03*
%TD*%
D12*
%TO.N,GND*%
X147500000Y-106500000D03*
X137000000Y-109500000D03*
%TO.N,+3V3*%
X150000000Y-117000000D03*
X139595000Y-111595000D03*
%TO.N,+5V*%
X167000000Y-109000000D03*
%TO.N,-5V*%
X158750000Y-115500000D03*
%TO.N,LDAC*%
X138000000Y-118000000D03*
%TD*%
D13*
%TO.N,+3V3*%
X150000000Y-117000000D02*
X140750000Y-117000000D01*
X139595000Y-115845000D02*
X139595000Y-111595000D01*
X140750000Y-117000000D02*
X139595000Y-115845000D01*
%TO.N,+5V*%
X133750000Y-109130000D02*
X137750000Y-105130000D01*
X137750000Y-105130000D02*
X165630000Y-105130000D01*
X167000000Y-106500000D02*
X167000000Y-109000000D01*
X165630000Y-105130000D02*
X167000000Y-106500000D01*
%TO.N,-5V*%
X134314001Y-110494999D02*
X139000000Y-115180998D01*
X132574999Y-110494999D02*
X134314001Y-110494999D01*
X131210000Y-109130000D02*
X132574999Y-110494999D01*
X139000000Y-115180998D02*
X139000000Y-115886410D01*
X139000000Y-115886410D02*
X139000000Y-117500000D01*
X139225001Y-117725001D02*
X156725001Y-117725001D01*
X139000000Y-117500000D02*
X139225001Y-117725001D01*
X158750000Y-115700002D02*
X158750000Y-115500000D01*
X156725001Y-117725001D02*
X158750000Y-115700002D01*
%TO.N,LDAC*%
X130034999Y-117314001D02*
X130034999Y-107765001D01*
X130034999Y-107765001D02*
X131210000Y-106590000D01*
X130720998Y-118000000D02*
X130034999Y-117314001D01*
X138000000Y-118000000D02*
X130720998Y-118000000D01*
%TD*%
D14*
%TO.N,GND*%
G36*
X179090001Y-109315000D02*
G01*
X175233647Y-109315000D01*
X175200000Y-109311686D01*
X175166353Y-109315000D01*
X175065717Y-109324912D01*
X174936594Y-109364081D01*
X174817593Y-109427688D01*
X174713289Y-109513289D01*
X174627688Y-109617593D01*
X174564081Y-109736594D01*
X174524912Y-109865717D01*
X174511686Y-110000000D01*
X174515000Y-110033647D01*
X174515001Y-113466343D01*
X174511686Y-113500000D01*
X174524912Y-113634283D01*
X174564081Y-113763406D01*
X174627688Y-113882407D01*
X174713289Y-113986711D01*
X174817593Y-114072312D01*
X174936594Y-114135919D01*
X175065717Y-114175088D01*
X175166353Y-114185000D01*
X175200000Y-114188314D01*
X175233647Y-114185000D01*
X179090001Y-114185000D01*
X179090000Y-118090000D01*
X157434803Y-118090000D01*
X159024036Y-116500768D01*
X159051898Y-116495226D01*
X159240256Y-116417205D01*
X159409774Y-116303937D01*
X159553937Y-116159774D01*
X159667205Y-115990256D01*
X159745226Y-115801898D01*
X159785000Y-115601939D01*
X159785000Y-115398061D01*
X159745226Y-115198102D01*
X159667205Y-115009744D01*
X159553937Y-114840226D01*
X159409774Y-114696063D01*
X159240256Y-114582795D01*
X159051898Y-114504774D01*
X158851939Y-114465000D01*
X158648061Y-114465000D01*
X158448102Y-114504774D01*
X158259744Y-114582795D01*
X158090226Y-114696063D01*
X157946063Y-114840226D01*
X157832795Y-115009744D01*
X157754774Y-115198102D01*
X157715000Y-115398061D01*
X157715000Y-115601939D01*
X157724666Y-115650534D01*
X156410200Y-116965001D01*
X151035000Y-116965001D01*
X151035000Y-116898061D01*
X150995226Y-116698102D01*
X150917205Y-116509744D01*
X150803937Y-116340226D01*
X150659774Y-116196063D01*
X150490256Y-116082795D01*
X150301898Y-116004774D01*
X150101939Y-115965000D01*
X149898061Y-115965000D01*
X149698102Y-116004774D01*
X149509744Y-116082795D01*
X149340226Y-116196063D01*
X149296289Y-116240000D01*
X141064802Y-116240000D01*
X140355000Y-115530199D01*
X140355000Y-112298711D01*
X140398937Y-112254774D01*
X140512205Y-112085256D01*
X140590226Y-111896898D01*
X140630000Y-111696939D01*
X140630000Y-111493061D01*
X140590226Y-111293102D01*
X140512205Y-111104744D01*
X140398937Y-110935226D01*
X140254774Y-110791063D01*
X140085256Y-110677795D01*
X139896898Y-110599774D01*
X139696939Y-110560000D01*
X139493061Y-110560000D01*
X139293102Y-110599774D01*
X139104744Y-110677795D01*
X138935226Y-110791063D01*
X138791063Y-110935226D01*
X138677795Y-111104744D01*
X138599774Y-111293102D01*
X138560000Y-111493061D01*
X138560000Y-111696939D01*
X138599774Y-111896898D01*
X138677795Y-112085256D01*
X138791063Y-112254774D01*
X138835001Y-112298712D01*
X138835000Y-113941197D01*
X134930295Y-110036492D01*
X135065990Y-109833411D01*
X135177932Y-109563158D01*
X135235000Y-109276260D01*
X135235000Y-108983740D01*
X135191209Y-108763592D01*
X138064802Y-105890000D01*
X165315199Y-105890000D01*
X166240000Y-106814802D01*
X166240001Y-108296288D01*
X166196063Y-108340226D01*
X166082795Y-108509744D01*
X166004774Y-108698102D01*
X165965000Y-108898061D01*
X165965000Y-109101939D01*
X166004774Y-109301898D01*
X166082795Y-109490256D01*
X166196063Y-109659774D01*
X166340226Y-109803937D01*
X166509744Y-109917205D01*
X166698102Y-109995226D01*
X166898061Y-110035000D01*
X167101939Y-110035000D01*
X167301898Y-109995226D01*
X167490256Y-109917205D01*
X167659774Y-109803937D01*
X167803937Y-109659774D01*
X167917205Y-109490256D01*
X167995226Y-109301898D01*
X168035000Y-109101939D01*
X168035000Y-108898061D01*
X167995226Y-108698102D01*
X167917205Y-108509744D01*
X167803937Y-108340226D01*
X167760000Y-108296289D01*
X167760000Y-106537333D01*
X167763677Y-106500000D01*
X167749003Y-106351014D01*
X167705546Y-106207753D01*
X167634974Y-106075724D01*
X167563799Y-105988997D01*
X167540001Y-105959999D01*
X167511004Y-105936202D01*
X166484801Y-104910000D01*
X179090000Y-104910000D01*
X179090001Y-109315000D01*
G37*
X179090001Y-109315000D02*
X175233647Y-109315000D01*
X175200000Y-109311686D01*
X175166353Y-109315000D01*
X175065717Y-109324912D01*
X174936594Y-109364081D01*
X174817593Y-109427688D01*
X174713289Y-109513289D01*
X174627688Y-109617593D01*
X174564081Y-109736594D01*
X174524912Y-109865717D01*
X174511686Y-110000000D01*
X174515000Y-110033647D01*
X174515001Y-113466343D01*
X174511686Y-113500000D01*
X174524912Y-113634283D01*
X174564081Y-113763406D01*
X174627688Y-113882407D01*
X174713289Y-113986711D01*
X174817593Y-114072312D01*
X174936594Y-114135919D01*
X175065717Y-114175088D01*
X175166353Y-114185000D01*
X175200000Y-114188314D01*
X175233647Y-114185000D01*
X179090001Y-114185000D01*
X179090000Y-118090000D01*
X157434803Y-118090000D01*
X159024036Y-116500768D01*
X159051898Y-116495226D01*
X159240256Y-116417205D01*
X159409774Y-116303937D01*
X159553937Y-116159774D01*
X159667205Y-115990256D01*
X159745226Y-115801898D01*
X159785000Y-115601939D01*
X159785000Y-115398061D01*
X159745226Y-115198102D01*
X159667205Y-115009744D01*
X159553937Y-114840226D01*
X159409774Y-114696063D01*
X159240256Y-114582795D01*
X159051898Y-114504774D01*
X158851939Y-114465000D01*
X158648061Y-114465000D01*
X158448102Y-114504774D01*
X158259744Y-114582795D01*
X158090226Y-114696063D01*
X157946063Y-114840226D01*
X157832795Y-115009744D01*
X157754774Y-115198102D01*
X157715000Y-115398061D01*
X157715000Y-115601939D01*
X157724666Y-115650534D01*
X156410200Y-116965001D01*
X151035000Y-116965001D01*
X151035000Y-116898061D01*
X150995226Y-116698102D01*
X150917205Y-116509744D01*
X150803937Y-116340226D01*
X150659774Y-116196063D01*
X150490256Y-116082795D01*
X150301898Y-116004774D01*
X150101939Y-115965000D01*
X149898061Y-115965000D01*
X149698102Y-116004774D01*
X149509744Y-116082795D01*
X149340226Y-116196063D01*
X149296289Y-116240000D01*
X141064802Y-116240000D01*
X140355000Y-115530199D01*
X140355000Y-112298711D01*
X140398937Y-112254774D01*
X140512205Y-112085256D01*
X140590226Y-111896898D01*
X140630000Y-111696939D01*
X140630000Y-111493061D01*
X140590226Y-111293102D01*
X140512205Y-111104744D01*
X140398937Y-110935226D01*
X140254774Y-110791063D01*
X140085256Y-110677795D01*
X139896898Y-110599774D01*
X139696939Y-110560000D01*
X139493061Y-110560000D01*
X139293102Y-110599774D01*
X139104744Y-110677795D01*
X138935226Y-110791063D01*
X138791063Y-110935226D01*
X138677795Y-111104744D01*
X138599774Y-111293102D01*
X138560000Y-111493061D01*
X138560000Y-111696939D01*
X138599774Y-111896898D01*
X138677795Y-112085256D01*
X138791063Y-112254774D01*
X138835001Y-112298712D01*
X138835000Y-113941197D01*
X134930295Y-110036492D01*
X135065990Y-109833411D01*
X135177932Y-109563158D01*
X135235000Y-109276260D01*
X135235000Y-108983740D01*
X135191209Y-108763592D01*
X138064802Y-105890000D01*
X165315199Y-105890000D01*
X166240000Y-106814802D01*
X166240001Y-108296288D01*
X166196063Y-108340226D01*
X166082795Y-108509744D01*
X166004774Y-108698102D01*
X165965000Y-108898061D01*
X165965000Y-109101939D01*
X166004774Y-109301898D01*
X166082795Y-109490256D01*
X166196063Y-109659774D01*
X166340226Y-109803937D01*
X166509744Y-109917205D01*
X166698102Y-109995226D01*
X166898061Y-110035000D01*
X167101939Y-110035000D01*
X167301898Y-109995226D01*
X167490256Y-109917205D01*
X167659774Y-109803937D01*
X167803937Y-109659774D01*
X167917205Y-109490256D01*
X167995226Y-109301898D01*
X168035000Y-109101939D01*
X168035000Y-108898061D01*
X167995226Y-108698102D01*
X167917205Y-108509744D01*
X167803937Y-108340226D01*
X167760000Y-108296289D01*
X167760000Y-106537333D01*
X167763677Y-106500000D01*
X167749003Y-106351014D01*
X167705546Y-106207753D01*
X167634974Y-106075724D01*
X167563799Y-105988997D01*
X167540001Y-105959999D01*
X167511004Y-105936202D01*
X166484801Y-104910000D01*
X179090000Y-104910000D01*
X179090001Y-109315000D01*
G36*
X133877000Y-111543000D02*
G01*
X133897000Y-111543000D01*
X133897000Y-111797000D01*
X133877000Y-111797000D01*
X133877000Y-111817000D01*
X133623000Y-111817000D01*
X133623000Y-111797000D01*
X133603000Y-111797000D01*
X133603000Y-111543000D01*
X133623000Y-111543000D01*
X133623000Y-111523000D01*
X133877000Y-111523000D01*
X133877000Y-111543000D01*
G37*
X133877000Y-111543000D02*
X133897000Y-111543000D01*
X133897000Y-111797000D01*
X133877000Y-111797000D01*
X133877000Y-111817000D01*
X133623000Y-111817000D01*
X133623000Y-111797000D01*
X133603000Y-111797000D01*
X133603000Y-111543000D01*
X133623000Y-111543000D01*
X133623000Y-111523000D01*
X133877000Y-111523000D01*
X133877000Y-111543000D01*
%TD*%
M02*
