%TF.GenerationSoftware,KiCad,Pcbnew,(5.1.6-0-10_14)*%
%TF.CreationDate,2020-09-11T15:14:46+09:00*%
%TF.ProjectId,teabiscuits_dac_mcp48,74656162-6973-4637-9569-74735f646163,rev?*%
%TF.SameCoordinates,Original*%
%TF.FileFunction,Paste,Top*%
%TF.FilePolarity,Positive*%
%FSLAX46Y46*%
G04 Gerber Fmt 4.6, Leading zero omitted, Abs format (unit mm)*
G04 Created by KiCad (PCBNEW (5.1.6-0-10_14)) date 2020-09-11 15:14:46*
%MOMM*%
%LPD*%
G01*
G04 APERTURE LIST*
%ADD10C,0.100000*%
%ADD11R,2.100000X1.100000*%
G04 APERTURE END LIST*
%TO.C,U2*%
G36*
G01*
X164000000Y-109245000D02*
X164000000Y-108945000D01*
G75*
G02*
X164150000Y-108795000I150000J0D01*
G01*
X165800000Y-108795000D01*
G75*
G02*
X165950000Y-108945000I0J-150000D01*
G01*
X165950000Y-109245000D01*
G75*
G02*
X165800000Y-109395000I-150000J0D01*
G01*
X164150000Y-109395000D01*
G75*
G02*
X164000000Y-109245000I0J150000D01*
G01*
G37*
G36*
G01*
X164000000Y-110515000D02*
X164000000Y-110215000D01*
G75*
G02*
X164150000Y-110065000I150000J0D01*
G01*
X165800000Y-110065000D01*
G75*
G02*
X165950000Y-110215000I0J-150000D01*
G01*
X165950000Y-110515000D01*
G75*
G02*
X165800000Y-110665000I-150000J0D01*
G01*
X164150000Y-110665000D01*
G75*
G02*
X164000000Y-110515000I0J150000D01*
G01*
G37*
G36*
G01*
X164000000Y-111785000D02*
X164000000Y-111485000D01*
G75*
G02*
X164150000Y-111335000I150000J0D01*
G01*
X165800000Y-111335000D01*
G75*
G02*
X165950000Y-111485000I0J-150000D01*
G01*
X165950000Y-111785000D01*
G75*
G02*
X165800000Y-111935000I-150000J0D01*
G01*
X164150000Y-111935000D01*
G75*
G02*
X164000000Y-111785000I0J150000D01*
G01*
G37*
G36*
G01*
X164000000Y-113055000D02*
X164000000Y-112755000D01*
G75*
G02*
X164150000Y-112605000I150000J0D01*
G01*
X165800000Y-112605000D01*
G75*
G02*
X165950000Y-112755000I0J-150000D01*
G01*
X165950000Y-113055000D01*
G75*
G02*
X165800000Y-113205000I-150000J0D01*
G01*
X164150000Y-113205000D01*
G75*
G02*
X164000000Y-113055000I0J150000D01*
G01*
G37*
G36*
G01*
X159050000Y-113055000D02*
X159050000Y-112755000D01*
G75*
G02*
X159200000Y-112605000I150000J0D01*
G01*
X160850000Y-112605000D01*
G75*
G02*
X161000000Y-112755000I0J-150000D01*
G01*
X161000000Y-113055000D01*
G75*
G02*
X160850000Y-113205000I-150000J0D01*
G01*
X159200000Y-113205000D01*
G75*
G02*
X159050000Y-113055000I0J150000D01*
G01*
G37*
G36*
G01*
X159050000Y-111785000D02*
X159050000Y-111485000D01*
G75*
G02*
X159200000Y-111335000I150000J0D01*
G01*
X160850000Y-111335000D01*
G75*
G02*
X161000000Y-111485000I0J-150000D01*
G01*
X161000000Y-111785000D01*
G75*
G02*
X160850000Y-111935000I-150000J0D01*
G01*
X159200000Y-111935000D01*
G75*
G02*
X159050000Y-111785000I0J150000D01*
G01*
G37*
G36*
G01*
X159050000Y-110515000D02*
X159050000Y-110215000D01*
G75*
G02*
X159200000Y-110065000I150000J0D01*
G01*
X160850000Y-110065000D01*
G75*
G02*
X161000000Y-110215000I0J-150000D01*
G01*
X161000000Y-110515000D01*
G75*
G02*
X160850000Y-110665000I-150000J0D01*
G01*
X159200000Y-110665000D01*
G75*
G02*
X159050000Y-110515000I0J150000D01*
G01*
G37*
G36*
G01*
X159050000Y-109245000D02*
X159050000Y-108945000D01*
G75*
G02*
X159200000Y-108795000I150000J0D01*
G01*
X160850000Y-108795000D01*
G75*
G02*
X161000000Y-108945000I0J-150000D01*
G01*
X161000000Y-109245000D01*
G75*
G02*
X160850000Y-109395000I-150000J0D01*
G01*
X159200000Y-109395000D01*
G75*
G02*
X159050000Y-109245000I0J150000D01*
G01*
G37*
%TD*%
%TO.C,U1*%
G36*
G01*
X147500000Y-111745000D02*
X147500000Y-111445000D01*
G75*
G02*
X147650000Y-111295000I150000J0D01*
G01*
X149300000Y-111295000D01*
G75*
G02*
X149450000Y-111445000I0J-150000D01*
G01*
X149450000Y-111745000D01*
G75*
G02*
X149300000Y-111895000I-150000J0D01*
G01*
X147650000Y-111895000D01*
G75*
G02*
X147500000Y-111745000I0J150000D01*
G01*
G37*
G36*
G01*
X147500000Y-113015000D02*
X147500000Y-112715000D01*
G75*
G02*
X147650000Y-112565000I150000J0D01*
G01*
X149300000Y-112565000D01*
G75*
G02*
X149450000Y-112715000I0J-150000D01*
G01*
X149450000Y-113015000D01*
G75*
G02*
X149300000Y-113165000I-150000J0D01*
G01*
X147650000Y-113165000D01*
G75*
G02*
X147500000Y-113015000I0J150000D01*
G01*
G37*
G36*
G01*
X147500000Y-114285000D02*
X147500000Y-113985000D01*
G75*
G02*
X147650000Y-113835000I150000J0D01*
G01*
X149300000Y-113835000D01*
G75*
G02*
X149450000Y-113985000I0J-150000D01*
G01*
X149450000Y-114285000D01*
G75*
G02*
X149300000Y-114435000I-150000J0D01*
G01*
X147650000Y-114435000D01*
G75*
G02*
X147500000Y-114285000I0J150000D01*
G01*
G37*
G36*
G01*
X147500000Y-115555000D02*
X147500000Y-115255000D01*
G75*
G02*
X147650000Y-115105000I150000J0D01*
G01*
X149300000Y-115105000D01*
G75*
G02*
X149450000Y-115255000I0J-150000D01*
G01*
X149450000Y-115555000D01*
G75*
G02*
X149300000Y-115705000I-150000J0D01*
G01*
X147650000Y-115705000D01*
G75*
G02*
X147500000Y-115555000I0J150000D01*
G01*
G37*
G36*
G01*
X142550000Y-115555000D02*
X142550000Y-115255000D01*
G75*
G02*
X142700000Y-115105000I150000J0D01*
G01*
X144350000Y-115105000D01*
G75*
G02*
X144500000Y-115255000I0J-150000D01*
G01*
X144500000Y-115555000D01*
G75*
G02*
X144350000Y-115705000I-150000J0D01*
G01*
X142700000Y-115705000D01*
G75*
G02*
X142550000Y-115555000I0J150000D01*
G01*
G37*
G36*
G01*
X142550000Y-114285000D02*
X142550000Y-113985000D01*
G75*
G02*
X142700000Y-113835000I150000J0D01*
G01*
X144350000Y-113835000D01*
G75*
G02*
X144500000Y-113985000I0J-150000D01*
G01*
X144500000Y-114285000D01*
G75*
G02*
X144350000Y-114435000I-150000J0D01*
G01*
X142700000Y-114435000D01*
G75*
G02*
X142550000Y-114285000I0J150000D01*
G01*
G37*
G36*
G01*
X142550000Y-113015000D02*
X142550000Y-112715000D01*
G75*
G02*
X142700000Y-112565000I150000J0D01*
G01*
X144350000Y-112565000D01*
G75*
G02*
X144500000Y-112715000I0J-150000D01*
G01*
X144500000Y-113015000D01*
G75*
G02*
X144350000Y-113165000I-150000J0D01*
G01*
X142700000Y-113165000D01*
G75*
G02*
X142550000Y-113015000I0J150000D01*
G01*
G37*
G36*
G01*
X142550000Y-111745000D02*
X142550000Y-111445000D01*
G75*
G02*
X142700000Y-111295000I150000J0D01*
G01*
X144350000Y-111295000D01*
G75*
G02*
X144500000Y-111445000I0J-150000D01*
G01*
X144500000Y-111745000D01*
G75*
G02*
X144350000Y-111895000I-150000J0D01*
G01*
X142700000Y-111895000D01*
G75*
G02*
X142550000Y-111745000I0J150000D01*
G01*
G37*
%TD*%
%TO.C,R5*%
G36*
G01*
X160725000Y-106125000D02*
X160725000Y-107375000D01*
G75*
G02*
X160475000Y-107625000I-250000J0D01*
G01*
X159725000Y-107625000D01*
G75*
G02*
X159475000Y-107375000I0J250000D01*
G01*
X159475000Y-106125000D01*
G75*
G02*
X159725000Y-105875000I250000J0D01*
G01*
X160475000Y-105875000D01*
G75*
G02*
X160725000Y-106125000I0J-250000D01*
G01*
G37*
G36*
G01*
X163525000Y-106125000D02*
X163525000Y-107375000D01*
G75*
G02*
X163275000Y-107625000I-250000J0D01*
G01*
X162525000Y-107625000D01*
G75*
G02*
X162275000Y-107375000I0J250000D01*
G01*
X162275000Y-106125000D01*
G75*
G02*
X162525000Y-105875000I250000J0D01*
G01*
X163275000Y-105875000D01*
G75*
G02*
X163525000Y-106125000I0J-250000D01*
G01*
G37*
%TD*%
%TO.C,R4*%
G36*
G01*
X156875000Y-111625000D02*
X155625000Y-111625000D01*
G75*
G02*
X155375000Y-111375000I0J250000D01*
G01*
X155375000Y-110625000D01*
G75*
G02*
X155625000Y-110375000I250000J0D01*
G01*
X156875000Y-110375000D01*
G75*
G02*
X157125000Y-110625000I0J-250000D01*
G01*
X157125000Y-111375000D01*
G75*
G02*
X156875000Y-111625000I-250000J0D01*
G01*
G37*
G36*
G01*
X156875000Y-114425000D02*
X155625000Y-114425000D01*
G75*
G02*
X155375000Y-114175000I0J250000D01*
G01*
X155375000Y-113425000D01*
G75*
G02*
X155625000Y-113175000I250000J0D01*
G01*
X156875000Y-113175000D01*
G75*
G02*
X157125000Y-113425000I0J-250000D01*
G01*
X157125000Y-114175000D01*
G75*
G02*
X156875000Y-114425000I-250000J0D01*
G01*
G37*
%TD*%
%TO.C,R3*%
G36*
G01*
X156875000Y-106825000D02*
X155625000Y-106825000D01*
G75*
G02*
X155375000Y-106575000I0J250000D01*
G01*
X155375000Y-105825000D01*
G75*
G02*
X155625000Y-105575000I250000J0D01*
G01*
X156875000Y-105575000D01*
G75*
G02*
X157125000Y-105825000I0J-250000D01*
G01*
X157125000Y-106575000D01*
G75*
G02*
X156875000Y-106825000I-250000J0D01*
G01*
G37*
G36*
G01*
X156875000Y-109625000D02*
X155625000Y-109625000D01*
G75*
G02*
X155375000Y-109375000I0J250000D01*
G01*
X155375000Y-108625000D01*
G75*
G02*
X155625000Y-108375000I250000J0D01*
G01*
X156875000Y-108375000D01*
G75*
G02*
X157125000Y-108625000I0J-250000D01*
G01*
X157125000Y-109375000D01*
G75*
G02*
X156875000Y-109625000I-250000J0D01*
G01*
G37*
%TD*%
%TO.C,R2*%
G36*
G01*
X151575000Y-111125000D02*
X151575000Y-112375000D01*
G75*
G02*
X151325000Y-112625000I-250000J0D01*
G01*
X150575000Y-112625000D01*
G75*
G02*
X150325000Y-112375000I0J250000D01*
G01*
X150325000Y-111125000D01*
G75*
G02*
X150575000Y-110875000I250000J0D01*
G01*
X151325000Y-110875000D01*
G75*
G02*
X151575000Y-111125000I0J-250000D01*
G01*
G37*
G36*
G01*
X154375000Y-111125000D02*
X154375000Y-112375000D01*
G75*
G02*
X154125000Y-112625000I-250000J0D01*
G01*
X153375000Y-112625000D01*
G75*
G02*
X153125000Y-112375000I0J250000D01*
G01*
X153125000Y-111125000D01*
G75*
G02*
X153375000Y-110875000I250000J0D01*
G01*
X154125000Y-110875000D01*
G75*
G02*
X154375000Y-111125000I0J-250000D01*
G01*
G37*
%TD*%
%TO.C,R1*%
G36*
G01*
X151875000Y-114825000D02*
X150625000Y-114825000D01*
G75*
G02*
X150375000Y-114575000I0J250000D01*
G01*
X150375000Y-113825000D01*
G75*
G02*
X150625000Y-113575000I250000J0D01*
G01*
X151875000Y-113575000D01*
G75*
G02*
X152125000Y-113825000I0J-250000D01*
G01*
X152125000Y-114575000D01*
G75*
G02*
X151875000Y-114825000I-250000J0D01*
G01*
G37*
G36*
G01*
X151875000Y-117625000D02*
X150625000Y-117625000D01*
G75*
G02*
X150375000Y-117375000I0J250000D01*
G01*
X150375000Y-116625000D01*
G75*
G02*
X150625000Y-116375000I250000J0D01*
G01*
X151875000Y-116375000D01*
G75*
G02*
X152125000Y-116625000I0J-250000D01*
G01*
X152125000Y-117375000D01*
G75*
G02*
X151875000Y-117625000I-250000J0D01*
G01*
G37*
%TD*%
D10*
%TO.C,Je*%
G36*
X172200000Y-109450000D02*
G01*
X179700000Y-109450000D01*
X179700000Y-110000000D01*
X175200000Y-110000000D01*
X175200000Y-110930000D01*
X172200000Y-110930000D01*
X172200000Y-109450000D01*
G37*
G36*
X172200000Y-112570000D02*
G01*
X175200000Y-112570000D01*
X175200000Y-113500000D01*
X179700000Y-113500000D01*
X179700000Y-114050000D01*
X172200000Y-114050000D01*
X172200000Y-112570000D01*
G37*
D11*
X173250000Y-111750000D03*
%TD*%
%TO.C,C4*%
G36*
G01*
X160325000Y-114625000D02*
X160325000Y-115875000D01*
G75*
G02*
X160075000Y-116125000I-250000J0D01*
G01*
X159325000Y-116125000D01*
G75*
G02*
X159075000Y-115875000I0J250000D01*
G01*
X159075000Y-114625000D01*
G75*
G02*
X159325000Y-114375000I250000J0D01*
G01*
X160075000Y-114375000D01*
G75*
G02*
X160325000Y-114625000I0J-250000D01*
G01*
G37*
G36*
G01*
X163125000Y-114625000D02*
X163125000Y-115875000D01*
G75*
G02*
X162875000Y-116125000I-250000J0D01*
G01*
X162125000Y-116125000D01*
G75*
G02*
X161875000Y-115875000I0J250000D01*
G01*
X161875000Y-114625000D01*
G75*
G02*
X162125000Y-114375000I250000J0D01*
G01*
X162875000Y-114375000D01*
G75*
G02*
X163125000Y-114625000I0J-250000D01*
G01*
G37*
%TD*%
%TO.C,C3*%
G36*
G01*
X168125000Y-109375000D02*
X169375000Y-109375000D01*
G75*
G02*
X169625000Y-109625000I0J-250000D01*
G01*
X169625000Y-110375000D01*
G75*
G02*
X169375000Y-110625000I-250000J0D01*
G01*
X168125000Y-110625000D01*
G75*
G02*
X167875000Y-110375000I0J250000D01*
G01*
X167875000Y-109625000D01*
G75*
G02*
X168125000Y-109375000I250000J0D01*
G01*
G37*
G36*
G01*
X168125000Y-106575000D02*
X169375000Y-106575000D01*
G75*
G02*
X169625000Y-106825000I0J-250000D01*
G01*
X169625000Y-107575000D01*
G75*
G02*
X169375000Y-107825000I-250000J0D01*
G01*
X168125000Y-107825000D01*
G75*
G02*
X167875000Y-107575000I0J250000D01*
G01*
X167875000Y-106825000D01*
G75*
G02*
X168125000Y-106575000I250000J0D01*
G01*
G37*
%TD*%
%TO.C,C2*%
G36*
G01*
X144075000Y-105875000D02*
X144075000Y-107125000D01*
G75*
G02*
X143825000Y-107375000I-250000J0D01*
G01*
X143075000Y-107375000D01*
G75*
G02*
X142825000Y-107125000I0J250000D01*
G01*
X142825000Y-105875000D01*
G75*
G02*
X143075000Y-105625000I250000J0D01*
G01*
X143825000Y-105625000D01*
G75*
G02*
X144075000Y-105875000I0J-250000D01*
G01*
G37*
G36*
G01*
X146875000Y-105875000D02*
X146875000Y-107125000D01*
G75*
G02*
X146625000Y-107375000I-250000J0D01*
G01*
X145875000Y-107375000D01*
G75*
G02*
X145625000Y-107125000I0J250000D01*
G01*
X145625000Y-105875000D01*
G75*
G02*
X145875000Y-105625000I250000J0D01*
G01*
X146625000Y-105625000D01*
G75*
G02*
X146875000Y-105875000I0J-250000D01*
G01*
G37*
%TD*%
%TO.C,C1*%
G36*
G01*
X145550000Y-109425001D02*
X145550000Y-108574999D01*
G75*
G02*
X145799999Y-108325000I249999J0D01*
G01*
X146700001Y-108325000D01*
G75*
G02*
X146950000Y-108574999I0J-249999D01*
G01*
X146950000Y-109425001D01*
G75*
G02*
X146700001Y-109675000I-249999J0D01*
G01*
X145799999Y-109675000D01*
G75*
G02*
X145550000Y-109425001I0J249999D01*
G01*
G37*
G36*
G01*
X142850000Y-109425001D02*
X142850000Y-108574999D01*
G75*
G02*
X143099999Y-108325000I249999J0D01*
G01*
X144000001Y-108325000D01*
G75*
G02*
X144250000Y-108574999I0J-249999D01*
G01*
X144250000Y-109425001D01*
G75*
G02*
X144000001Y-109675000I-249999J0D01*
G01*
X143099999Y-109675000D01*
G75*
G02*
X142850000Y-109425001I0J249999D01*
G01*
G37*
%TD*%
M02*
