%TF.GenerationSoftware,KiCad,Pcbnew,(5.1.6-0-10_14)*%
%TF.CreationDate,2020-10-24T23:40:29+09:00*%
%TF.ProjectId,teabiscuits_dac_mcp48,74656162-6973-4637-9569-74735f646163,rev?*%
%TF.SameCoordinates,Original*%
%TF.FileFunction,Copper,L1,Top*%
%TF.FilePolarity,Positive*%
%FSLAX46Y46*%
G04 Gerber Fmt 4.6, Leading zero omitted, Abs format (unit mm)*
G04 Created by KiCad (PCBNEW (5.1.6-0-10_14)) date 2020-10-24 23:40:29*
%MOMM*%
%LPD*%
G01*
G04 APERTURE LIST*
%TA.AperFunction,ComponentPad*%
%ADD10O,1.700000X1.700000*%
%TD*%
%TA.AperFunction,ComponentPad*%
%ADD11R,1.700000X1.700000*%
%TD*%
%TA.AperFunction,SMDPad,CuDef*%
%ADD12C,0.100000*%
%TD*%
%TA.AperFunction,SMDPad,CuDef*%
%ADD13R,2.100000X1.100000*%
%TD*%
%TA.AperFunction,ViaPad*%
%ADD14C,0.800000*%
%TD*%
%TA.AperFunction,Conductor*%
%ADD15C,0.250000*%
%TD*%
%TA.AperFunction,Conductor*%
%ADD16C,0.254000*%
%TD*%
G04 APERTURE END LIST*
%TO.P,U2,8*%
%TO.N,Net-(U2-Pad8)*%
%TA.AperFunction,SMDPad,CuDef*%
G36*
G01*
X164000000Y-109245000D02*
X164000000Y-108945000D01*
G75*
G02*
X164150000Y-108795000I150000J0D01*
G01*
X165800000Y-108795000D01*
G75*
G02*
X165950000Y-108945000I0J-150000D01*
G01*
X165950000Y-109245000D01*
G75*
G02*
X165800000Y-109395000I-150000J0D01*
G01*
X164150000Y-109395000D01*
G75*
G02*
X164000000Y-109245000I0J150000D01*
G01*
G37*
%TD.AperFunction*%
%TO.P,U2,7*%
%TO.N,+5V*%
%TA.AperFunction,SMDPad,CuDef*%
G36*
G01*
X164000000Y-110515000D02*
X164000000Y-110215000D01*
G75*
G02*
X164150000Y-110065000I150000J0D01*
G01*
X165800000Y-110065000D01*
G75*
G02*
X165950000Y-110215000I0J-150000D01*
G01*
X165950000Y-110515000D01*
G75*
G02*
X165800000Y-110665000I-150000J0D01*
G01*
X164150000Y-110665000D01*
G75*
G02*
X164000000Y-110515000I0J150000D01*
G01*
G37*
%TD.AperFunction*%
%TO.P,U2,6*%
%TO.N,Net-(J1-Pad1)*%
%TA.AperFunction,SMDPad,CuDef*%
G36*
G01*
X164000000Y-111785000D02*
X164000000Y-111485000D01*
G75*
G02*
X164150000Y-111335000I150000J0D01*
G01*
X165800000Y-111335000D01*
G75*
G02*
X165950000Y-111485000I0J-150000D01*
G01*
X165950000Y-111785000D01*
G75*
G02*
X165800000Y-111935000I-150000J0D01*
G01*
X164150000Y-111935000D01*
G75*
G02*
X164000000Y-111785000I0J150000D01*
G01*
G37*
%TD.AperFunction*%
%TO.P,U2,5*%
%TO.N,Net-(U2-Pad5)*%
%TA.AperFunction,SMDPad,CuDef*%
G36*
G01*
X164000000Y-113055000D02*
X164000000Y-112755000D01*
G75*
G02*
X164150000Y-112605000I150000J0D01*
G01*
X165800000Y-112605000D01*
G75*
G02*
X165950000Y-112755000I0J-150000D01*
G01*
X165950000Y-113055000D01*
G75*
G02*
X165800000Y-113205000I-150000J0D01*
G01*
X164150000Y-113205000D01*
G75*
G02*
X164000000Y-113055000I0J150000D01*
G01*
G37*
%TD.AperFunction*%
%TO.P,U2,4*%
%TO.N,-5V*%
%TA.AperFunction,SMDPad,CuDef*%
G36*
G01*
X159050000Y-113055000D02*
X159050000Y-112755000D01*
G75*
G02*
X159200000Y-112605000I150000J0D01*
G01*
X160850000Y-112605000D01*
G75*
G02*
X161000000Y-112755000I0J-150000D01*
G01*
X161000000Y-113055000D01*
G75*
G02*
X160850000Y-113205000I-150000J0D01*
G01*
X159200000Y-113205000D01*
G75*
G02*
X159050000Y-113055000I0J150000D01*
G01*
G37*
%TD.AperFunction*%
%TO.P,U2,3*%
%TO.N,Net-(R3-Pad1)*%
%TA.AperFunction,SMDPad,CuDef*%
G36*
G01*
X159050000Y-111785000D02*
X159050000Y-111485000D01*
G75*
G02*
X159200000Y-111335000I150000J0D01*
G01*
X160850000Y-111335000D01*
G75*
G02*
X161000000Y-111485000I0J-150000D01*
G01*
X161000000Y-111785000D01*
G75*
G02*
X160850000Y-111935000I-150000J0D01*
G01*
X159200000Y-111935000D01*
G75*
G02*
X159050000Y-111785000I0J150000D01*
G01*
G37*
%TD.AperFunction*%
%TO.P,U2,2*%
%TO.N,Net-(R2-Pad1)*%
%TA.AperFunction,SMDPad,CuDef*%
G36*
G01*
X159050000Y-110515000D02*
X159050000Y-110215000D01*
G75*
G02*
X159200000Y-110065000I150000J0D01*
G01*
X160850000Y-110065000D01*
G75*
G02*
X161000000Y-110215000I0J-150000D01*
G01*
X161000000Y-110515000D01*
G75*
G02*
X160850000Y-110665000I-150000J0D01*
G01*
X159200000Y-110665000D01*
G75*
G02*
X159050000Y-110515000I0J150000D01*
G01*
G37*
%TD.AperFunction*%
%TO.P,U2,1*%
%TO.N,Net-(U2-Pad1)*%
%TA.AperFunction,SMDPad,CuDef*%
G36*
G01*
X159050000Y-109245000D02*
X159050000Y-108945000D01*
G75*
G02*
X159200000Y-108795000I150000J0D01*
G01*
X160850000Y-108795000D01*
G75*
G02*
X161000000Y-108945000I0J-150000D01*
G01*
X161000000Y-109245000D01*
G75*
G02*
X160850000Y-109395000I-150000J0D01*
G01*
X159200000Y-109395000D01*
G75*
G02*
X159050000Y-109245000I0J150000D01*
G01*
G37*
%TD.AperFunction*%
%TD*%
%TO.P,U1,8*%
%TO.N,Net-(R2-Pad2)*%
%TA.AperFunction,SMDPad,CuDef*%
G36*
G01*
X147500000Y-111745000D02*
X147500000Y-111445000D01*
G75*
G02*
X147650000Y-111295000I150000J0D01*
G01*
X149300000Y-111295000D01*
G75*
G02*
X149450000Y-111445000I0J-150000D01*
G01*
X149450000Y-111745000D01*
G75*
G02*
X149300000Y-111895000I-150000J0D01*
G01*
X147650000Y-111895000D01*
G75*
G02*
X147500000Y-111745000I0J150000D01*
G01*
G37*
%TD.AperFunction*%
%TO.P,U1,7*%
%TO.N,GND*%
%TA.AperFunction,SMDPad,CuDef*%
G36*
G01*
X147500000Y-113015000D02*
X147500000Y-112715000D01*
G75*
G02*
X147650000Y-112565000I150000J0D01*
G01*
X149300000Y-112565000D01*
G75*
G02*
X149450000Y-112715000I0J-150000D01*
G01*
X149450000Y-113015000D01*
G75*
G02*
X149300000Y-113165000I-150000J0D01*
G01*
X147650000Y-113165000D01*
G75*
G02*
X147500000Y-113015000I0J150000D01*
G01*
G37*
%TD.AperFunction*%
%TO.P,U1,6*%
%TO.N,Net-(R1-Pad2)*%
%TA.AperFunction,SMDPad,CuDef*%
G36*
G01*
X147500000Y-114285000D02*
X147500000Y-113985000D01*
G75*
G02*
X147650000Y-113835000I150000J0D01*
G01*
X149300000Y-113835000D01*
G75*
G02*
X149450000Y-113985000I0J-150000D01*
G01*
X149450000Y-114285000D01*
G75*
G02*
X149300000Y-114435000I-150000J0D01*
G01*
X147650000Y-114435000D01*
G75*
G02*
X147500000Y-114285000I0J150000D01*
G01*
G37*
%TD.AperFunction*%
%TO.P,U1,5*%
%TO.N,LDAC*%
%TA.AperFunction,SMDPad,CuDef*%
G36*
G01*
X147500000Y-115555000D02*
X147500000Y-115255000D01*
G75*
G02*
X147650000Y-115105000I150000J0D01*
G01*
X149300000Y-115105000D01*
G75*
G02*
X149450000Y-115255000I0J-150000D01*
G01*
X149450000Y-115555000D01*
G75*
G02*
X149300000Y-115705000I-150000J0D01*
G01*
X147650000Y-115705000D01*
G75*
G02*
X147500000Y-115555000I0J150000D01*
G01*
G37*
%TD.AperFunction*%
%TO.P,U1,4*%
%TO.N,SDI*%
%TA.AperFunction,SMDPad,CuDef*%
G36*
G01*
X142550000Y-115555000D02*
X142550000Y-115255000D01*
G75*
G02*
X142700000Y-115105000I150000J0D01*
G01*
X144350000Y-115105000D01*
G75*
G02*
X144500000Y-115255000I0J-150000D01*
G01*
X144500000Y-115555000D01*
G75*
G02*
X144350000Y-115705000I-150000J0D01*
G01*
X142700000Y-115705000D01*
G75*
G02*
X142550000Y-115555000I0J150000D01*
G01*
G37*
%TD.AperFunction*%
%TO.P,U1,3*%
%TO.N,SCK*%
%TA.AperFunction,SMDPad,CuDef*%
G36*
G01*
X142550000Y-114285000D02*
X142550000Y-113985000D01*
G75*
G02*
X142700000Y-113835000I150000J0D01*
G01*
X144350000Y-113835000D01*
G75*
G02*
X144500000Y-113985000I0J-150000D01*
G01*
X144500000Y-114285000D01*
G75*
G02*
X144350000Y-114435000I-150000J0D01*
G01*
X142700000Y-114435000D01*
G75*
G02*
X142550000Y-114285000I0J150000D01*
G01*
G37*
%TD.AperFunction*%
%TO.P,U1,2*%
%TO.N,CS*%
%TA.AperFunction,SMDPad,CuDef*%
G36*
G01*
X142550000Y-113015000D02*
X142550000Y-112715000D01*
G75*
G02*
X142700000Y-112565000I150000J0D01*
G01*
X144350000Y-112565000D01*
G75*
G02*
X144500000Y-112715000I0J-150000D01*
G01*
X144500000Y-113015000D01*
G75*
G02*
X144350000Y-113165000I-150000J0D01*
G01*
X142700000Y-113165000D01*
G75*
G02*
X142550000Y-113015000I0J150000D01*
G01*
G37*
%TD.AperFunction*%
%TO.P,U1,1*%
%TO.N,+3V3*%
%TA.AperFunction,SMDPad,CuDef*%
G36*
G01*
X142550000Y-111745000D02*
X142550000Y-111445000D01*
G75*
G02*
X142700000Y-111295000I150000J0D01*
G01*
X144350000Y-111295000D01*
G75*
G02*
X144500000Y-111445000I0J-150000D01*
G01*
X144500000Y-111745000D01*
G75*
G02*
X144350000Y-111895000I-150000J0D01*
G01*
X142700000Y-111895000D01*
G75*
G02*
X142550000Y-111745000I0J150000D01*
G01*
G37*
%TD.AperFunction*%
%TD*%
%TO.P,R5,2*%
%TO.N,Net-(R2-Pad1)*%
%TA.AperFunction,SMDPad,CuDef*%
G36*
G01*
X160725000Y-106125000D02*
X160725000Y-107375000D01*
G75*
G02*
X160475000Y-107625000I-250000J0D01*
G01*
X159725000Y-107625000D01*
G75*
G02*
X159475000Y-107375000I0J250000D01*
G01*
X159475000Y-106125000D01*
G75*
G02*
X159725000Y-105875000I250000J0D01*
G01*
X160475000Y-105875000D01*
G75*
G02*
X160725000Y-106125000I0J-250000D01*
G01*
G37*
%TD.AperFunction*%
%TO.P,R5,1*%
%TO.N,Net-(J1-Pad1)*%
%TA.AperFunction,SMDPad,CuDef*%
G36*
G01*
X163525000Y-106125000D02*
X163525000Y-107375000D01*
G75*
G02*
X163275000Y-107625000I-250000J0D01*
G01*
X162525000Y-107625000D01*
G75*
G02*
X162275000Y-107375000I0J250000D01*
G01*
X162275000Y-106125000D01*
G75*
G02*
X162525000Y-105875000I250000J0D01*
G01*
X163275000Y-105875000D01*
G75*
G02*
X163525000Y-106125000I0J-250000D01*
G01*
G37*
%TD.AperFunction*%
%TD*%
%TO.P,R4,2*%
%TO.N,Net-(R3-Pad1)*%
%TA.AperFunction,SMDPad,CuDef*%
G36*
G01*
X156875000Y-111625000D02*
X155625000Y-111625000D01*
G75*
G02*
X155375000Y-111375000I0J250000D01*
G01*
X155375000Y-110625000D01*
G75*
G02*
X155625000Y-110375000I250000J0D01*
G01*
X156875000Y-110375000D01*
G75*
G02*
X157125000Y-110625000I0J-250000D01*
G01*
X157125000Y-111375000D01*
G75*
G02*
X156875000Y-111625000I-250000J0D01*
G01*
G37*
%TD.AperFunction*%
%TO.P,R4,1*%
%TO.N,GND*%
%TA.AperFunction,SMDPad,CuDef*%
G36*
G01*
X156875000Y-114425000D02*
X155625000Y-114425000D01*
G75*
G02*
X155375000Y-114175000I0J250000D01*
G01*
X155375000Y-113425000D01*
G75*
G02*
X155625000Y-113175000I250000J0D01*
G01*
X156875000Y-113175000D01*
G75*
G02*
X157125000Y-113425000I0J-250000D01*
G01*
X157125000Y-114175000D01*
G75*
G02*
X156875000Y-114425000I-250000J0D01*
G01*
G37*
%TD.AperFunction*%
%TD*%
%TO.P,R3,2*%
%TO.N,REF*%
%TA.AperFunction,SMDPad,CuDef*%
G36*
G01*
X156875000Y-106825000D02*
X155625000Y-106825000D01*
G75*
G02*
X155375000Y-106575000I0J250000D01*
G01*
X155375000Y-105825000D01*
G75*
G02*
X155625000Y-105575000I250000J0D01*
G01*
X156875000Y-105575000D01*
G75*
G02*
X157125000Y-105825000I0J-250000D01*
G01*
X157125000Y-106575000D01*
G75*
G02*
X156875000Y-106825000I-250000J0D01*
G01*
G37*
%TD.AperFunction*%
%TO.P,R3,1*%
%TO.N,Net-(R3-Pad1)*%
%TA.AperFunction,SMDPad,CuDef*%
G36*
G01*
X156875000Y-109625000D02*
X155625000Y-109625000D01*
G75*
G02*
X155375000Y-109375000I0J250000D01*
G01*
X155375000Y-108625000D01*
G75*
G02*
X155625000Y-108375000I250000J0D01*
G01*
X156875000Y-108375000D01*
G75*
G02*
X157125000Y-108625000I0J-250000D01*
G01*
X157125000Y-109375000D01*
G75*
G02*
X156875000Y-109625000I-250000J0D01*
G01*
G37*
%TD.AperFunction*%
%TD*%
%TO.P,R2,2*%
%TO.N,Net-(R2-Pad2)*%
%TA.AperFunction,SMDPad,CuDef*%
G36*
G01*
X151575000Y-111125000D02*
X151575000Y-112375000D01*
G75*
G02*
X151325000Y-112625000I-250000J0D01*
G01*
X150575000Y-112625000D01*
G75*
G02*
X150325000Y-112375000I0J250000D01*
G01*
X150325000Y-111125000D01*
G75*
G02*
X150575000Y-110875000I250000J0D01*
G01*
X151325000Y-110875000D01*
G75*
G02*
X151575000Y-111125000I0J-250000D01*
G01*
G37*
%TD.AperFunction*%
%TO.P,R2,1*%
%TO.N,Net-(R2-Pad1)*%
%TA.AperFunction,SMDPad,CuDef*%
G36*
G01*
X154375000Y-111125000D02*
X154375000Y-112375000D01*
G75*
G02*
X154125000Y-112625000I-250000J0D01*
G01*
X153375000Y-112625000D01*
G75*
G02*
X153125000Y-112375000I0J250000D01*
G01*
X153125000Y-111125000D01*
G75*
G02*
X153375000Y-110875000I250000J0D01*
G01*
X154125000Y-110875000D01*
G75*
G02*
X154375000Y-111125000I0J-250000D01*
G01*
G37*
%TD.AperFunction*%
%TD*%
%TO.P,R1,2*%
%TO.N,Net-(R1-Pad2)*%
%TA.AperFunction,SMDPad,CuDef*%
G36*
G01*
X151875000Y-114825000D02*
X150625000Y-114825000D01*
G75*
G02*
X150375000Y-114575000I0J250000D01*
G01*
X150375000Y-113825000D01*
G75*
G02*
X150625000Y-113575000I250000J0D01*
G01*
X151875000Y-113575000D01*
G75*
G02*
X152125000Y-113825000I0J-250000D01*
G01*
X152125000Y-114575000D01*
G75*
G02*
X151875000Y-114825000I-250000J0D01*
G01*
G37*
%TD.AperFunction*%
%TO.P,R1,1*%
%TO.N,+3V3*%
%TA.AperFunction,SMDPad,CuDef*%
G36*
G01*
X151875000Y-117625000D02*
X150625000Y-117625000D01*
G75*
G02*
X150375000Y-117375000I0J250000D01*
G01*
X150375000Y-116625000D01*
G75*
G02*
X150625000Y-116375000I250000J0D01*
G01*
X151875000Y-116375000D01*
G75*
G02*
X152125000Y-116625000I0J-250000D01*
G01*
X152125000Y-117375000D01*
G75*
G02*
X151875000Y-117625000I-250000J0D01*
G01*
G37*
%TD.AperFunction*%
%TD*%
D10*
%TO.P,J2,10*%
%TO.N,LDAC*%
X131210000Y-106590000D03*
%TO.P,J2,9*%
%TO.N,REF*%
X133750000Y-106590000D03*
%TO.P,J2,8*%
%TO.N,-5V*%
X131210000Y-109130000D03*
%TO.P,J2,7*%
%TO.N,+5V*%
X133750000Y-109130000D03*
%TO.P,J2,6*%
%TO.N,+3V3*%
X131210000Y-111670000D03*
%TO.P,J2,5*%
%TO.N,GND*%
X133750000Y-111670000D03*
%TO.P,J2,4*%
%TO.N,CS*%
X131210000Y-114210000D03*
%TO.P,J2,3*%
%TO.N,Net-(J2-Pad3)*%
X133750000Y-114210000D03*
%TO.P,J2,2*%
%TO.N,SDI*%
X131210000Y-116750000D03*
D11*
%TO.P,J2,1*%
%TO.N,SCK*%
X133750000Y-116750000D03*
%TD*%
%TA.AperFunction,SMDPad,CuDef*%
D12*
%TO.P,J1,2*%
%TO.N,GND*%
G36*
X172200000Y-109450000D02*
G01*
X179700000Y-109450000D01*
X179700000Y-110000000D01*
X175200000Y-110000000D01*
X175200000Y-110930000D01*
X172200000Y-110930000D01*
X172200000Y-109450000D01*
G37*
%TD.AperFunction*%
%TA.AperFunction,SMDPad,CuDef*%
G36*
X172200000Y-112570000D02*
G01*
X175200000Y-112570000D01*
X175200000Y-113500000D01*
X179700000Y-113500000D01*
X179700000Y-114050000D01*
X172200000Y-114050000D01*
X172200000Y-112570000D01*
G37*
%TD.AperFunction*%
D13*
%TO.P,J1,1*%
%TO.N,Net-(J1-Pad1)*%
X173250000Y-111750000D03*
%TD*%
%TO.P,C4,2*%
%TO.N,-5V*%
%TA.AperFunction,SMDPad,CuDef*%
G36*
G01*
X160325000Y-114625000D02*
X160325000Y-115875000D01*
G75*
G02*
X160075000Y-116125000I-250000J0D01*
G01*
X159325000Y-116125000D01*
G75*
G02*
X159075000Y-115875000I0J250000D01*
G01*
X159075000Y-114625000D01*
G75*
G02*
X159325000Y-114375000I250000J0D01*
G01*
X160075000Y-114375000D01*
G75*
G02*
X160325000Y-114625000I0J-250000D01*
G01*
G37*
%TD.AperFunction*%
%TO.P,C4,1*%
%TO.N,GND*%
%TA.AperFunction,SMDPad,CuDef*%
G36*
G01*
X163125000Y-114625000D02*
X163125000Y-115875000D01*
G75*
G02*
X162875000Y-116125000I-250000J0D01*
G01*
X162125000Y-116125000D01*
G75*
G02*
X161875000Y-115875000I0J250000D01*
G01*
X161875000Y-114625000D01*
G75*
G02*
X162125000Y-114375000I250000J0D01*
G01*
X162875000Y-114375000D01*
G75*
G02*
X163125000Y-114625000I0J-250000D01*
G01*
G37*
%TD.AperFunction*%
%TD*%
%TO.P,C3,2*%
%TO.N,+5V*%
%TA.AperFunction,SMDPad,CuDef*%
G36*
G01*
X168125000Y-109375000D02*
X169375000Y-109375000D01*
G75*
G02*
X169625000Y-109625000I0J-250000D01*
G01*
X169625000Y-110375000D01*
G75*
G02*
X169375000Y-110625000I-250000J0D01*
G01*
X168125000Y-110625000D01*
G75*
G02*
X167875000Y-110375000I0J250000D01*
G01*
X167875000Y-109625000D01*
G75*
G02*
X168125000Y-109375000I250000J0D01*
G01*
G37*
%TD.AperFunction*%
%TO.P,C3,1*%
%TO.N,GND*%
%TA.AperFunction,SMDPad,CuDef*%
G36*
G01*
X168125000Y-106575000D02*
X169375000Y-106575000D01*
G75*
G02*
X169625000Y-106825000I0J-250000D01*
G01*
X169625000Y-107575000D01*
G75*
G02*
X169375000Y-107825000I-250000J0D01*
G01*
X168125000Y-107825000D01*
G75*
G02*
X167875000Y-107575000I0J250000D01*
G01*
X167875000Y-106825000D01*
G75*
G02*
X168125000Y-106575000I250000J0D01*
G01*
G37*
%TD.AperFunction*%
%TD*%
%TO.P,C2,2*%
%TO.N,+3V3*%
%TA.AperFunction,SMDPad,CuDef*%
G36*
G01*
X144075000Y-105875000D02*
X144075000Y-107125000D01*
G75*
G02*
X143825000Y-107375000I-250000J0D01*
G01*
X143075000Y-107375000D01*
G75*
G02*
X142825000Y-107125000I0J250000D01*
G01*
X142825000Y-105875000D01*
G75*
G02*
X143075000Y-105625000I250000J0D01*
G01*
X143825000Y-105625000D01*
G75*
G02*
X144075000Y-105875000I0J-250000D01*
G01*
G37*
%TD.AperFunction*%
%TO.P,C2,1*%
%TO.N,GND*%
%TA.AperFunction,SMDPad,CuDef*%
G36*
G01*
X146875000Y-105875000D02*
X146875000Y-107125000D01*
G75*
G02*
X146625000Y-107375000I-250000J0D01*
G01*
X145875000Y-107375000D01*
G75*
G02*
X145625000Y-107125000I0J250000D01*
G01*
X145625000Y-105875000D01*
G75*
G02*
X145875000Y-105625000I250000J0D01*
G01*
X146625000Y-105625000D01*
G75*
G02*
X146875000Y-105875000I0J-250000D01*
G01*
G37*
%TD.AperFunction*%
%TD*%
%TO.P,C1,2*%
%TO.N,GND*%
%TA.AperFunction,SMDPad,CuDef*%
G36*
G01*
X145550000Y-109425001D02*
X145550000Y-108574999D01*
G75*
G02*
X145799999Y-108325000I249999J0D01*
G01*
X146700001Y-108325000D01*
G75*
G02*
X146950000Y-108574999I0J-249999D01*
G01*
X146950000Y-109425001D01*
G75*
G02*
X146700001Y-109675000I-249999J0D01*
G01*
X145799999Y-109675000D01*
G75*
G02*
X145550000Y-109425001I0J249999D01*
G01*
G37*
%TD.AperFunction*%
%TO.P,C1,1*%
%TO.N,+3V3*%
%TA.AperFunction,SMDPad,CuDef*%
G36*
G01*
X142850000Y-109425001D02*
X142850000Y-108574999D01*
G75*
G02*
X143099999Y-108325000I249999J0D01*
G01*
X144000001Y-108325000D01*
G75*
G02*
X144250000Y-108574999I0J-249999D01*
G01*
X144250000Y-109425001D01*
G75*
G02*
X144000001Y-109675000I-249999J0D01*
G01*
X143099999Y-109675000D01*
G75*
G02*
X142850000Y-109425001I0J249999D01*
G01*
G37*
%TD.AperFunction*%
%TD*%
D14*
%TO.N,GND*%
X147500000Y-106500000D03*
X137000000Y-109500000D03*
%TO.N,+3V3*%
X150000000Y-117000000D03*
X139595000Y-111595000D03*
%TO.N,+5V*%
X167000000Y-109000000D03*
%TO.N,-5V*%
X158750000Y-115500000D03*
%TO.N,LDAC*%
X138000000Y-118000000D03*
%TD*%
D15*
%TO.N,GND*%
X146250000Y-106500000D02*
X147500000Y-106500000D01*
X133750000Y-111670000D02*
X134830000Y-111670000D01*
X134830000Y-111670000D02*
X137000000Y-109500000D01*
%TO.N,+3V3*%
X132385001Y-112845001D02*
X131210000Y-111670000D01*
X135154999Y-112845001D02*
X132385001Y-112845001D01*
X136405000Y-111595000D02*
X135154999Y-112845001D01*
X143525000Y-109025000D02*
X143550000Y-109000000D01*
X143525000Y-111595000D02*
X143525000Y-109025000D01*
X143450000Y-108900000D02*
X143550000Y-109000000D01*
X143450000Y-106500000D02*
X143450000Y-108900000D01*
X151250000Y-117000000D02*
X150000000Y-117000000D01*
X139595000Y-111595000D02*
X136405000Y-111595000D01*
X143525000Y-111595000D02*
X139595000Y-111595000D01*
%TO.N,+5V*%
X168385000Y-110365000D02*
X168750000Y-110000000D01*
X164975000Y-110365000D02*
X168385000Y-110365000D01*
X167750000Y-109000000D02*
X168750000Y-110000000D01*
X167000000Y-109000000D02*
X167750000Y-109000000D01*
%TO.N,-5V*%
X159700000Y-113230000D02*
X160025000Y-112905000D01*
X159700000Y-115250000D02*
X159700000Y-113230000D01*
X159450000Y-115500000D02*
X159700000Y-115250000D01*
X158750000Y-115500000D02*
X159450000Y-115500000D01*
%TO.N,Net-(J1-Pad1)*%
X162900000Y-110535000D02*
X162900000Y-106750000D01*
X164000000Y-111635000D02*
X162900000Y-110535000D01*
X164975000Y-111635000D02*
X164000000Y-111635000D01*
X165090000Y-111750000D02*
X164975000Y-111635000D01*
X173250000Y-111750000D02*
X165090000Y-111750000D01*
%TO.N,LDAC*%
X148475000Y-115405000D02*
X145880000Y-118000000D01*
X145880000Y-118000000D02*
X138000000Y-118000000D01*
%TO.N,REF*%
X156250000Y-106450000D02*
X156200000Y-106450000D01*
X156200000Y-106450000D02*
X154500000Y-104750000D01*
X135590000Y-104750000D02*
X133750000Y-106590000D01*
X154500000Y-104750000D02*
X135590000Y-104750000D01*
%TO.N,CS*%
X143525000Y-112865000D02*
X137885000Y-112865000D01*
X135364999Y-115385001D02*
X132385001Y-115385001D01*
X132385001Y-115385001D02*
X131210000Y-114210000D01*
X137885000Y-112865000D02*
X135364999Y-115385001D01*
%TO.N,SDI*%
X143525000Y-115405000D02*
X139095000Y-115405000D01*
X139095000Y-115405000D02*
X136250000Y-118250000D01*
X136250000Y-118250000D02*
X132000000Y-118250000D01*
X131210000Y-117460000D02*
X131210000Y-116750000D01*
X132000000Y-118250000D02*
X131210000Y-117460000D01*
%TO.N,SCK*%
X136250000Y-116750000D02*
X133750000Y-116750000D01*
X138865000Y-114135000D02*
X136250000Y-116750000D01*
X143525000Y-114135000D02*
X138865000Y-114135000D01*
%TO.N,Net-(R1-Pad2)*%
X148540000Y-114200000D02*
X148475000Y-114135000D01*
X151250000Y-114200000D02*
X148540000Y-114200000D01*
%TO.N,Net-(R2-Pad2)*%
X148630000Y-111750000D02*
X148475000Y-111595000D01*
X150950000Y-111750000D02*
X148630000Y-111750000D01*
%TO.N,Net-(R2-Pad1)*%
X160100000Y-106750000D02*
X159000000Y-106750000D01*
X159000000Y-106750000D02*
X158250000Y-107500000D01*
X153865000Y-111635000D02*
X153750000Y-111750000D01*
X160025000Y-110365000D02*
X160865000Y-110365000D01*
X158250000Y-109565000D02*
X158250000Y-107500000D01*
X159050000Y-110365000D02*
X158250000Y-109565000D01*
X160025000Y-110365000D02*
X159050000Y-110365000D01*
X153750000Y-108500000D02*
X153750000Y-111750000D01*
X154750000Y-107500000D02*
X153750000Y-108500000D01*
X158250000Y-107500000D02*
X154750000Y-107500000D01*
%TO.N,Net-(R3-Pad1)*%
X156500000Y-109500000D02*
X156250000Y-109250000D01*
X156250000Y-109000000D02*
X156250000Y-111000000D01*
X156885000Y-111635000D02*
X156250000Y-111000000D01*
X160025000Y-111635000D02*
X156885000Y-111635000D01*
%TD*%
D16*
%TO.N,GND*%
G36*
X179090001Y-109315000D02*
G01*
X175233647Y-109315000D01*
X175200000Y-109311686D01*
X175166353Y-109315000D01*
X175065717Y-109324912D01*
X174936594Y-109364081D01*
X174817593Y-109427688D01*
X174713289Y-109513289D01*
X174627688Y-109617593D01*
X174564081Y-109736594D01*
X174524912Y-109865717D01*
X174511686Y-110000000D01*
X174515000Y-110033647D01*
X174515000Y-110601646D01*
X174424482Y-110574188D01*
X174300000Y-110561928D01*
X172200000Y-110561928D01*
X172075518Y-110574188D01*
X171955820Y-110610498D01*
X171845506Y-110669463D01*
X171748815Y-110748815D01*
X171669463Y-110845506D01*
X171610498Y-110955820D01*
X171600130Y-110990000D01*
X170013600Y-110990000D01*
X170113405Y-110868386D01*
X170195472Y-110714850D01*
X170246008Y-110548254D01*
X170263072Y-110375000D01*
X170263072Y-109625000D01*
X170246008Y-109451746D01*
X170195472Y-109285150D01*
X170113405Y-109131614D01*
X170002962Y-108997038D01*
X169868386Y-108886595D01*
X169714850Y-108804528D01*
X169548254Y-108753992D01*
X169375000Y-108736928D01*
X168561729Y-108736928D01*
X168313804Y-108489002D01*
X168290744Y-108460905D01*
X168464250Y-108460000D01*
X168623000Y-108301250D01*
X168623000Y-107327000D01*
X168877000Y-107327000D01*
X168877000Y-108301250D01*
X169035750Y-108460000D01*
X169625000Y-108463072D01*
X169749482Y-108450812D01*
X169869180Y-108414502D01*
X169979494Y-108355537D01*
X170076185Y-108276185D01*
X170155537Y-108179494D01*
X170214502Y-108069180D01*
X170250812Y-107949482D01*
X170263072Y-107825000D01*
X170260000Y-107485750D01*
X170101250Y-107327000D01*
X168877000Y-107327000D01*
X168623000Y-107327000D01*
X167398750Y-107327000D01*
X167240000Y-107485750D01*
X167236928Y-107825000D01*
X167249188Y-107949482D01*
X167263653Y-107997167D01*
X167101939Y-107965000D01*
X166898061Y-107965000D01*
X166698102Y-108004774D01*
X166509744Y-108082795D01*
X166340226Y-108196063D01*
X166242617Y-108293672D01*
X166237829Y-108289742D01*
X166101582Y-108216916D01*
X165953745Y-108172071D01*
X165800000Y-108156928D01*
X164150000Y-108156928D01*
X163996255Y-108172071D01*
X163848418Y-108216916D01*
X163712171Y-108289742D01*
X163660000Y-108332558D01*
X163660000Y-108171339D01*
X163768386Y-108113405D01*
X163902962Y-108002962D01*
X164013405Y-107868386D01*
X164095472Y-107714850D01*
X164146008Y-107548254D01*
X164163072Y-107375000D01*
X164163072Y-106575000D01*
X167236928Y-106575000D01*
X167240000Y-106914250D01*
X167398750Y-107073000D01*
X168623000Y-107073000D01*
X168623000Y-106098750D01*
X168877000Y-106098750D01*
X168877000Y-107073000D01*
X170101250Y-107073000D01*
X170260000Y-106914250D01*
X170263072Y-106575000D01*
X170250812Y-106450518D01*
X170214502Y-106330820D01*
X170155537Y-106220506D01*
X170076185Y-106123815D01*
X169979494Y-106044463D01*
X169869180Y-105985498D01*
X169749482Y-105949188D01*
X169625000Y-105936928D01*
X169035750Y-105940000D01*
X168877000Y-106098750D01*
X168623000Y-106098750D01*
X168464250Y-105940000D01*
X167875000Y-105936928D01*
X167750518Y-105949188D01*
X167630820Y-105985498D01*
X167520506Y-106044463D01*
X167423815Y-106123815D01*
X167344463Y-106220506D01*
X167285498Y-106330820D01*
X167249188Y-106450518D01*
X167236928Y-106575000D01*
X164163072Y-106575000D01*
X164163072Y-106125000D01*
X164146008Y-105951746D01*
X164095472Y-105785150D01*
X164013405Y-105631614D01*
X163902962Y-105497038D01*
X163768386Y-105386595D01*
X163614850Y-105304528D01*
X163448254Y-105253992D01*
X163275000Y-105236928D01*
X162525000Y-105236928D01*
X162351746Y-105253992D01*
X162185150Y-105304528D01*
X162031614Y-105386595D01*
X161897038Y-105497038D01*
X161786595Y-105631614D01*
X161704528Y-105785150D01*
X161653992Y-105951746D01*
X161636928Y-106125000D01*
X161636928Y-107375000D01*
X161653992Y-107548254D01*
X161704528Y-107714850D01*
X161786595Y-107868386D01*
X161897038Y-108002962D01*
X162031614Y-108113405D01*
X162140001Y-108171339D01*
X162140000Y-110497677D01*
X162136324Y-110535000D01*
X162140000Y-110572322D01*
X162140000Y-110572332D01*
X162150997Y-110683985D01*
X162183478Y-110791063D01*
X162194454Y-110827246D01*
X162265026Y-110959276D01*
X162269276Y-110964454D01*
X162359999Y-111075001D01*
X162389002Y-111098804D01*
X163436200Y-112146002D01*
X163459999Y-112175001D01*
X163476350Y-112188420D01*
X163494742Y-112222829D01*
X163533454Y-112270000D01*
X163494742Y-112317171D01*
X163421916Y-112453418D01*
X163377071Y-112601255D01*
X163361928Y-112755000D01*
X163361928Y-113055000D01*
X163377071Y-113208745D01*
X163421916Y-113356582D01*
X163494742Y-113492829D01*
X163592749Y-113612251D01*
X163712171Y-113710258D01*
X163848418Y-113783084D01*
X163996255Y-113827929D01*
X164150000Y-113843072D01*
X165800000Y-113843072D01*
X165953745Y-113827929D01*
X166101582Y-113783084D01*
X166237829Y-113710258D01*
X166357251Y-113612251D01*
X166455258Y-113492829D01*
X166528084Y-113356582D01*
X166572929Y-113208745D01*
X166588072Y-113055000D01*
X166588072Y-112755000D01*
X166572929Y-112601255D01*
X166545248Y-112510000D01*
X171600130Y-112510000D01*
X171610498Y-112544180D01*
X171669463Y-112654494D01*
X171748815Y-112751185D01*
X171845506Y-112830537D01*
X171955820Y-112889502D01*
X172075518Y-112925812D01*
X172200000Y-112938072D01*
X174300000Y-112938072D01*
X174424482Y-112925812D01*
X174515001Y-112898353D01*
X174515001Y-113466343D01*
X174511686Y-113500000D01*
X174524912Y-113634283D01*
X174564081Y-113763406D01*
X174627688Y-113882407D01*
X174713289Y-113986711D01*
X174817593Y-114072312D01*
X174936594Y-114135919D01*
X175065717Y-114175088D01*
X175166353Y-114185000D01*
X175200000Y-114188314D01*
X175233647Y-114185000D01*
X179090001Y-114185000D01*
X179090000Y-118090000D01*
X152396905Y-118090000D01*
X152502962Y-118002962D01*
X152613405Y-117868386D01*
X152695472Y-117714850D01*
X152746008Y-117548254D01*
X152763072Y-117375000D01*
X152763072Y-116625000D01*
X152746008Y-116451746D01*
X152695472Y-116285150D01*
X152613405Y-116131614D01*
X152502962Y-115997038D01*
X152368386Y-115886595D01*
X152214850Y-115804528D01*
X152048254Y-115753992D01*
X151875000Y-115736928D01*
X150625000Y-115736928D01*
X150451746Y-115753992D01*
X150285150Y-115804528D01*
X150131614Y-115886595D01*
X150036077Y-115965000D01*
X149970133Y-115965000D01*
X150028084Y-115856582D01*
X150072929Y-115708745D01*
X150088072Y-115555000D01*
X150088072Y-115277671D01*
X150131614Y-115313405D01*
X150285150Y-115395472D01*
X150451746Y-115446008D01*
X150625000Y-115463072D01*
X151875000Y-115463072D01*
X152048254Y-115446008D01*
X152214850Y-115395472D01*
X152368386Y-115313405D01*
X152502962Y-115202962D01*
X152613405Y-115068386D01*
X152695472Y-114914850D01*
X152746008Y-114748254D01*
X152763072Y-114575000D01*
X152763072Y-114425000D01*
X154736928Y-114425000D01*
X154749188Y-114549482D01*
X154785498Y-114669180D01*
X154844463Y-114779494D01*
X154923815Y-114876185D01*
X155020506Y-114955537D01*
X155130820Y-115014502D01*
X155250518Y-115050812D01*
X155375000Y-115063072D01*
X155964250Y-115060000D01*
X156123000Y-114901250D01*
X156123000Y-113927000D01*
X156377000Y-113927000D01*
X156377000Y-114901250D01*
X156535750Y-115060000D01*
X157125000Y-115063072D01*
X157249482Y-115050812D01*
X157369180Y-115014502D01*
X157479494Y-114955537D01*
X157576185Y-114876185D01*
X157655537Y-114779494D01*
X157714502Y-114669180D01*
X157750812Y-114549482D01*
X157763072Y-114425000D01*
X157760000Y-114085750D01*
X157601250Y-113927000D01*
X156377000Y-113927000D01*
X156123000Y-113927000D01*
X154898750Y-113927000D01*
X154740000Y-114085750D01*
X154736928Y-114425000D01*
X152763072Y-114425000D01*
X152763072Y-113825000D01*
X152746008Y-113651746D01*
X152695472Y-113485150D01*
X152613405Y-113331614D01*
X152502962Y-113197038D01*
X152368386Y-113086595D01*
X152214850Y-113004528D01*
X152048254Y-112953992D01*
X151997271Y-112948971D01*
X152063405Y-112868386D01*
X152145472Y-112714850D01*
X152196008Y-112548254D01*
X152213072Y-112375000D01*
X152213072Y-111125000D01*
X152196008Y-110951746D01*
X152145472Y-110785150D01*
X152063405Y-110631614D01*
X151952962Y-110497038D01*
X151818386Y-110386595D01*
X151664850Y-110304528D01*
X151498254Y-110253992D01*
X151325000Y-110236928D01*
X150575000Y-110236928D01*
X150401746Y-110253992D01*
X150235150Y-110304528D01*
X150081614Y-110386595D01*
X149947038Y-110497038D01*
X149836595Y-110631614D01*
X149754528Y-110785150D01*
X149750084Y-110799800D01*
X149737829Y-110789742D01*
X149601582Y-110716916D01*
X149453745Y-110672071D01*
X149300000Y-110656928D01*
X147650000Y-110656928D01*
X147496255Y-110672071D01*
X147348418Y-110716916D01*
X147212171Y-110789742D01*
X147092749Y-110887749D01*
X146994742Y-111007171D01*
X146921916Y-111143418D01*
X146877071Y-111291255D01*
X146861928Y-111445000D01*
X146861928Y-111745000D01*
X146877071Y-111898745D01*
X146921916Y-112046582D01*
X146993730Y-112180936D01*
X146969463Y-112210506D01*
X146910498Y-112320820D01*
X146874188Y-112440518D01*
X146861928Y-112565000D01*
X146865000Y-112579250D01*
X147023750Y-112738000D01*
X148348000Y-112738000D01*
X148348000Y-112718000D01*
X148602000Y-112718000D01*
X148602000Y-112738000D01*
X148622000Y-112738000D01*
X148622000Y-112992000D01*
X148602000Y-112992000D01*
X148602000Y-113012000D01*
X148348000Y-113012000D01*
X148348000Y-112992000D01*
X147023750Y-112992000D01*
X146865000Y-113150750D01*
X146861928Y-113165000D01*
X146874188Y-113289482D01*
X146910498Y-113409180D01*
X146969463Y-113519494D01*
X146993730Y-113549064D01*
X146921916Y-113683418D01*
X146877071Y-113831255D01*
X146861928Y-113985000D01*
X146861928Y-114285000D01*
X146877071Y-114438745D01*
X146921916Y-114586582D01*
X146994742Y-114722829D01*
X147033454Y-114770000D01*
X146994742Y-114817171D01*
X146921916Y-114953418D01*
X146877071Y-115101255D01*
X146861928Y-115255000D01*
X146861928Y-115555000D01*
X146877071Y-115708745D01*
X146921916Y-115856582D01*
X146931216Y-115873982D01*
X145565199Y-117240000D01*
X138703711Y-117240000D01*
X138659774Y-117196063D01*
X138491305Y-117083496D01*
X139409802Y-116165000D01*
X142207024Y-116165000D01*
X142262171Y-116210258D01*
X142398418Y-116283084D01*
X142546255Y-116327929D01*
X142700000Y-116343072D01*
X144350000Y-116343072D01*
X144503745Y-116327929D01*
X144651582Y-116283084D01*
X144787829Y-116210258D01*
X144907251Y-116112251D01*
X145005258Y-115992829D01*
X145078084Y-115856582D01*
X145122929Y-115708745D01*
X145138072Y-115555000D01*
X145138072Y-115255000D01*
X145122929Y-115101255D01*
X145078084Y-114953418D01*
X145005258Y-114817171D01*
X144966546Y-114770000D01*
X145005258Y-114722829D01*
X145078084Y-114586582D01*
X145122929Y-114438745D01*
X145138072Y-114285000D01*
X145138072Y-113985000D01*
X145122929Y-113831255D01*
X145078084Y-113683418D01*
X145005258Y-113547171D01*
X144966546Y-113500000D01*
X145005258Y-113452829D01*
X145078084Y-113316582D01*
X145122929Y-113168745D01*
X145138072Y-113015000D01*
X145138072Y-112715000D01*
X145122929Y-112561255D01*
X145078084Y-112413418D01*
X145005258Y-112277171D01*
X144966546Y-112230000D01*
X145005258Y-112182829D01*
X145078084Y-112046582D01*
X145122929Y-111898745D01*
X145138072Y-111745000D01*
X145138072Y-111445000D01*
X145122929Y-111291255D01*
X145078084Y-111143418D01*
X145005258Y-111007171D01*
X144907251Y-110887749D01*
X144787829Y-110789742D01*
X144651582Y-110716916D01*
X144503745Y-110672071D01*
X144350000Y-110656928D01*
X144285000Y-110656928D01*
X144285000Y-110262111D01*
X144339851Y-110245472D01*
X144493387Y-110163405D01*
X144627962Y-110052962D01*
X144738405Y-109918387D01*
X144820472Y-109764851D01*
X144847727Y-109675000D01*
X144911928Y-109675000D01*
X144924188Y-109799482D01*
X144960498Y-109919180D01*
X145019463Y-110029494D01*
X145098815Y-110126185D01*
X145195506Y-110205537D01*
X145305820Y-110264502D01*
X145425518Y-110300812D01*
X145550000Y-110313072D01*
X145964250Y-110310000D01*
X146123000Y-110151250D01*
X146123000Y-109127000D01*
X146377000Y-109127000D01*
X146377000Y-110151250D01*
X146535750Y-110310000D01*
X146950000Y-110313072D01*
X147074482Y-110300812D01*
X147194180Y-110264502D01*
X147304494Y-110205537D01*
X147401185Y-110126185D01*
X147480537Y-110029494D01*
X147539502Y-109919180D01*
X147575812Y-109799482D01*
X147588072Y-109675000D01*
X147585000Y-109285750D01*
X147426250Y-109127000D01*
X146377000Y-109127000D01*
X146123000Y-109127000D01*
X145073750Y-109127000D01*
X144915000Y-109285750D01*
X144911928Y-109675000D01*
X144847727Y-109675000D01*
X144871008Y-109598255D01*
X144888072Y-109425001D01*
X144888072Y-108574999D01*
X144871008Y-108401745D01*
X144847728Y-108325000D01*
X144911928Y-108325000D01*
X144915000Y-108714250D01*
X145073750Y-108873000D01*
X146123000Y-108873000D01*
X146123000Y-106627000D01*
X146377000Y-106627000D01*
X146377000Y-108873000D01*
X147426250Y-108873000D01*
X147585000Y-108714250D01*
X147588072Y-108325000D01*
X147575812Y-108200518D01*
X147539502Y-108080820D01*
X147480537Y-107970506D01*
X147401185Y-107873815D01*
X147333012Y-107817867D01*
X147405537Y-107729494D01*
X147464502Y-107619180D01*
X147500812Y-107499482D01*
X147513072Y-107375000D01*
X147510000Y-106785750D01*
X147351250Y-106627000D01*
X146377000Y-106627000D01*
X146123000Y-106627000D01*
X145148750Y-106627000D01*
X144990000Y-106785750D01*
X144986928Y-107375000D01*
X144999188Y-107499482D01*
X145035498Y-107619180D01*
X145094463Y-107729494D01*
X145166988Y-107817867D01*
X145098815Y-107873815D01*
X145019463Y-107970506D01*
X144960498Y-108080820D01*
X144924188Y-108200518D01*
X144911928Y-108325000D01*
X144847728Y-108325000D01*
X144820472Y-108235149D01*
X144738405Y-108081613D01*
X144627962Y-107947038D01*
X144493387Y-107836595D01*
X144407193Y-107790523D01*
X144452962Y-107752962D01*
X144563405Y-107618386D01*
X144645472Y-107464850D01*
X144696008Y-107298254D01*
X144713072Y-107125000D01*
X144713072Y-105875000D01*
X144696008Y-105701746D01*
X144645472Y-105535150D01*
X144632029Y-105510000D01*
X144998254Y-105510000D01*
X144986928Y-105625000D01*
X144990000Y-106214250D01*
X145148750Y-106373000D01*
X146123000Y-106373000D01*
X146123000Y-106353000D01*
X146377000Y-106353000D01*
X146377000Y-106373000D01*
X147351250Y-106373000D01*
X147510000Y-106214250D01*
X147513072Y-105625000D01*
X147501746Y-105510000D01*
X154185199Y-105510000D01*
X154736928Y-106061729D01*
X154736928Y-106575000D01*
X154752844Y-106736603D01*
X154750000Y-106736323D01*
X154712667Y-106740000D01*
X154601014Y-106750997D01*
X154457753Y-106794454D01*
X154325724Y-106865026D01*
X154209999Y-106959999D01*
X154186201Y-106988997D01*
X153239002Y-107936196D01*
X153209999Y-107959999D01*
X153166444Y-108013072D01*
X153115026Y-108075724D01*
X153057489Y-108183368D01*
X153044454Y-108207754D01*
X153000997Y-108351015D01*
X152990000Y-108462668D01*
X152990000Y-108462678D01*
X152986324Y-108500000D01*
X152990000Y-108537323D01*
X152990001Y-110328661D01*
X152881614Y-110386595D01*
X152747038Y-110497038D01*
X152636595Y-110631614D01*
X152554528Y-110785150D01*
X152503992Y-110951746D01*
X152486928Y-111125000D01*
X152486928Y-112375000D01*
X152503992Y-112548254D01*
X152554528Y-112714850D01*
X152636595Y-112868386D01*
X152747038Y-113002962D01*
X152881614Y-113113405D01*
X153035150Y-113195472D01*
X153201746Y-113246008D01*
X153375000Y-113263072D01*
X154125000Y-113263072D01*
X154298254Y-113246008D01*
X154464850Y-113195472D01*
X154618386Y-113113405D01*
X154752962Y-113002962D01*
X154769860Y-112982372D01*
X154749188Y-113050518D01*
X154736928Y-113175000D01*
X154740000Y-113514250D01*
X154898750Y-113673000D01*
X156123000Y-113673000D01*
X156123000Y-112698750D01*
X156377000Y-112698750D01*
X156377000Y-113673000D01*
X157601250Y-113673000D01*
X157760000Y-113514250D01*
X157763072Y-113175000D01*
X157750812Y-113050518D01*
X157714502Y-112930820D01*
X157655537Y-112820506D01*
X157576185Y-112723815D01*
X157479494Y-112644463D01*
X157369180Y-112585498D01*
X157249482Y-112549188D01*
X157125000Y-112536928D01*
X156535750Y-112540000D01*
X156377000Y-112698750D01*
X156123000Y-112698750D01*
X155964250Y-112540000D01*
X155375000Y-112536928D01*
X155250518Y-112549188D01*
X155130820Y-112585498D01*
X155020506Y-112644463D01*
X154949030Y-112703122D01*
X154996008Y-112548254D01*
X155013072Y-112375000D01*
X155013072Y-112016121D01*
X155131614Y-112113405D01*
X155285150Y-112195472D01*
X155451746Y-112246008D01*
X155625000Y-112263072D01*
X156452314Y-112263072D01*
X156460724Y-112269974D01*
X156592753Y-112340546D01*
X156736014Y-112384003D01*
X156885000Y-112398677D01*
X156922333Y-112395000D01*
X158503141Y-112395000D01*
X158471916Y-112453418D01*
X158427071Y-112601255D01*
X158411928Y-112755000D01*
X158411928Y-113055000D01*
X158427071Y-113208745D01*
X158471916Y-113356582D01*
X158544742Y-113492829D01*
X158642749Y-113612251D01*
X158762171Y-113710258D01*
X158898418Y-113783084D01*
X158940001Y-113795698D01*
X158940001Y-113828661D01*
X158831614Y-113886595D01*
X158697038Y-113997038D01*
X158586595Y-114131614D01*
X158504528Y-114285150D01*
X158453992Y-114451746D01*
X158448783Y-114504639D01*
X158448102Y-114504774D01*
X158259744Y-114582795D01*
X158090226Y-114696063D01*
X157946063Y-114840226D01*
X157832795Y-115009744D01*
X157754774Y-115198102D01*
X157715000Y-115398061D01*
X157715000Y-115601939D01*
X157754774Y-115801898D01*
X157832795Y-115990256D01*
X157946063Y-116159774D01*
X158090226Y-116303937D01*
X158259744Y-116417205D01*
X158448102Y-116495226D01*
X158648061Y-116535000D01*
X158736077Y-116535000D01*
X158831614Y-116613405D01*
X158985150Y-116695472D01*
X159151746Y-116746008D01*
X159325000Y-116763072D01*
X160075000Y-116763072D01*
X160248254Y-116746008D01*
X160414850Y-116695472D01*
X160568386Y-116613405D01*
X160702962Y-116502962D01*
X160813405Y-116368386D01*
X160895472Y-116214850D01*
X160922727Y-116125000D01*
X161236928Y-116125000D01*
X161249188Y-116249482D01*
X161285498Y-116369180D01*
X161344463Y-116479494D01*
X161423815Y-116576185D01*
X161520506Y-116655537D01*
X161630820Y-116714502D01*
X161750518Y-116750812D01*
X161875000Y-116763072D01*
X162214250Y-116760000D01*
X162373000Y-116601250D01*
X162373000Y-115377000D01*
X162627000Y-115377000D01*
X162627000Y-116601250D01*
X162785750Y-116760000D01*
X163125000Y-116763072D01*
X163249482Y-116750812D01*
X163369180Y-116714502D01*
X163479494Y-116655537D01*
X163576185Y-116576185D01*
X163655537Y-116479494D01*
X163714502Y-116369180D01*
X163750812Y-116249482D01*
X163763072Y-116125000D01*
X163760000Y-115535750D01*
X163601250Y-115377000D01*
X162627000Y-115377000D01*
X162373000Y-115377000D01*
X161398750Y-115377000D01*
X161240000Y-115535750D01*
X161236928Y-116125000D01*
X160922727Y-116125000D01*
X160946008Y-116048254D01*
X160963072Y-115875000D01*
X160963072Y-114625000D01*
X160946008Y-114451746D01*
X160922728Y-114375000D01*
X161236928Y-114375000D01*
X161240000Y-114964250D01*
X161398750Y-115123000D01*
X162373000Y-115123000D01*
X162373000Y-113898750D01*
X162627000Y-113898750D01*
X162627000Y-115123000D01*
X163601250Y-115123000D01*
X163760000Y-114964250D01*
X163763072Y-114375000D01*
X163750812Y-114250518D01*
X163714502Y-114130820D01*
X163655537Y-114020506D01*
X163576185Y-113923815D01*
X163479494Y-113844463D01*
X163369180Y-113785498D01*
X163249482Y-113749188D01*
X163125000Y-113736928D01*
X162785750Y-113740000D01*
X162627000Y-113898750D01*
X162373000Y-113898750D01*
X162214250Y-113740000D01*
X161875000Y-113736928D01*
X161750518Y-113749188D01*
X161630820Y-113785498D01*
X161520506Y-113844463D01*
X161423815Y-113923815D01*
X161344463Y-114020506D01*
X161285498Y-114130820D01*
X161249188Y-114250518D01*
X161236928Y-114375000D01*
X160922728Y-114375000D01*
X160895472Y-114285150D01*
X160813405Y-114131614D01*
X160702962Y-113997038D01*
X160568386Y-113886595D01*
X160486960Y-113843072D01*
X160850000Y-113843072D01*
X161003745Y-113827929D01*
X161151582Y-113783084D01*
X161287829Y-113710258D01*
X161407251Y-113612251D01*
X161505258Y-113492829D01*
X161578084Y-113356582D01*
X161622929Y-113208745D01*
X161638072Y-113055000D01*
X161638072Y-112755000D01*
X161622929Y-112601255D01*
X161578084Y-112453418D01*
X161505258Y-112317171D01*
X161466546Y-112270000D01*
X161505258Y-112222829D01*
X161578084Y-112086582D01*
X161622929Y-111938745D01*
X161638072Y-111785000D01*
X161638072Y-111485000D01*
X161622929Y-111331255D01*
X161578084Y-111183418D01*
X161505258Y-111047171D01*
X161466546Y-111000000D01*
X161505258Y-110952829D01*
X161578084Y-110816582D01*
X161622929Y-110668745D01*
X161638072Y-110515000D01*
X161638072Y-110215000D01*
X161622929Y-110061255D01*
X161578084Y-109913418D01*
X161505258Y-109777171D01*
X161466546Y-109730000D01*
X161505258Y-109682829D01*
X161578084Y-109546582D01*
X161622929Y-109398745D01*
X161638072Y-109245000D01*
X161638072Y-108945000D01*
X161622929Y-108791255D01*
X161578084Y-108643418D01*
X161505258Y-108507171D01*
X161407251Y-108387749D01*
X161287829Y-108289742D01*
X161151582Y-108216916D01*
X161003745Y-108172071D01*
X160881210Y-108160002D01*
X160968386Y-108113405D01*
X161102962Y-108002962D01*
X161213405Y-107868386D01*
X161295472Y-107714850D01*
X161346008Y-107548254D01*
X161363072Y-107375000D01*
X161363072Y-106125000D01*
X161346008Y-105951746D01*
X161295472Y-105785150D01*
X161213405Y-105631614D01*
X161102962Y-105497038D01*
X160968386Y-105386595D01*
X160814850Y-105304528D01*
X160648254Y-105253992D01*
X160475000Y-105236928D01*
X159725000Y-105236928D01*
X159551746Y-105253992D01*
X159385150Y-105304528D01*
X159231614Y-105386595D01*
X159097038Y-105497038D01*
X158986595Y-105631614D01*
X158904528Y-105785150D01*
X158853992Y-105951746D01*
X158849084Y-106001583D01*
X158707753Y-106044454D01*
X158575724Y-106115026D01*
X158459999Y-106209999D01*
X158436201Y-106238998D01*
X157935199Y-106740000D01*
X157746821Y-106740000D01*
X157763072Y-106575000D01*
X157763072Y-105825000D01*
X157746008Y-105651746D01*
X157695472Y-105485150D01*
X157613405Y-105331614D01*
X157502962Y-105197038D01*
X157368386Y-105086595D01*
X157214850Y-105004528D01*
X157048254Y-104953992D01*
X156875000Y-104936928D01*
X155761729Y-104936928D01*
X155734801Y-104910000D01*
X179090000Y-104910000D01*
X179090001Y-109315000D01*
G37*
X179090001Y-109315000D02*
X175233647Y-109315000D01*
X175200000Y-109311686D01*
X175166353Y-109315000D01*
X175065717Y-109324912D01*
X174936594Y-109364081D01*
X174817593Y-109427688D01*
X174713289Y-109513289D01*
X174627688Y-109617593D01*
X174564081Y-109736594D01*
X174524912Y-109865717D01*
X174511686Y-110000000D01*
X174515000Y-110033647D01*
X174515000Y-110601646D01*
X174424482Y-110574188D01*
X174300000Y-110561928D01*
X172200000Y-110561928D01*
X172075518Y-110574188D01*
X171955820Y-110610498D01*
X171845506Y-110669463D01*
X171748815Y-110748815D01*
X171669463Y-110845506D01*
X171610498Y-110955820D01*
X171600130Y-110990000D01*
X170013600Y-110990000D01*
X170113405Y-110868386D01*
X170195472Y-110714850D01*
X170246008Y-110548254D01*
X170263072Y-110375000D01*
X170263072Y-109625000D01*
X170246008Y-109451746D01*
X170195472Y-109285150D01*
X170113405Y-109131614D01*
X170002962Y-108997038D01*
X169868386Y-108886595D01*
X169714850Y-108804528D01*
X169548254Y-108753992D01*
X169375000Y-108736928D01*
X168561729Y-108736928D01*
X168313804Y-108489002D01*
X168290744Y-108460905D01*
X168464250Y-108460000D01*
X168623000Y-108301250D01*
X168623000Y-107327000D01*
X168877000Y-107327000D01*
X168877000Y-108301250D01*
X169035750Y-108460000D01*
X169625000Y-108463072D01*
X169749482Y-108450812D01*
X169869180Y-108414502D01*
X169979494Y-108355537D01*
X170076185Y-108276185D01*
X170155537Y-108179494D01*
X170214502Y-108069180D01*
X170250812Y-107949482D01*
X170263072Y-107825000D01*
X170260000Y-107485750D01*
X170101250Y-107327000D01*
X168877000Y-107327000D01*
X168623000Y-107327000D01*
X167398750Y-107327000D01*
X167240000Y-107485750D01*
X167236928Y-107825000D01*
X167249188Y-107949482D01*
X167263653Y-107997167D01*
X167101939Y-107965000D01*
X166898061Y-107965000D01*
X166698102Y-108004774D01*
X166509744Y-108082795D01*
X166340226Y-108196063D01*
X166242617Y-108293672D01*
X166237829Y-108289742D01*
X166101582Y-108216916D01*
X165953745Y-108172071D01*
X165800000Y-108156928D01*
X164150000Y-108156928D01*
X163996255Y-108172071D01*
X163848418Y-108216916D01*
X163712171Y-108289742D01*
X163660000Y-108332558D01*
X163660000Y-108171339D01*
X163768386Y-108113405D01*
X163902962Y-108002962D01*
X164013405Y-107868386D01*
X164095472Y-107714850D01*
X164146008Y-107548254D01*
X164163072Y-107375000D01*
X164163072Y-106575000D01*
X167236928Y-106575000D01*
X167240000Y-106914250D01*
X167398750Y-107073000D01*
X168623000Y-107073000D01*
X168623000Y-106098750D01*
X168877000Y-106098750D01*
X168877000Y-107073000D01*
X170101250Y-107073000D01*
X170260000Y-106914250D01*
X170263072Y-106575000D01*
X170250812Y-106450518D01*
X170214502Y-106330820D01*
X170155537Y-106220506D01*
X170076185Y-106123815D01*
X169979494Y-106044463D01*
X169869180Y-105985498D01*
X169749482Y-105949188D01*
X169625000Y-105936928D01*
X169035750Y-105940000D01*
X168877000Y-106098750D01*
X168623000Y-106098750D01*
X168464250Y-105940000D01*
X167875000Y-105936928D01*
X167750518Y-105949188D01*
X167630820Y-105985498D01*
X167520506Y-106044463D01*
X167423815Y-106123815D01*
X167344463Y-106220506D01*
X167285498Y-106330820D01*
X167249188Y-106450518D01*
X167236928Y-106575000D01*
X164163072Y-106575000D01*
X164163072Y-106125000D01*
X164146008Y-105951746D01*
X164095472Y-105785150D01*
X164013405Y-105631614D01*
X163902962Y-105497038D01*
X163768386Y-105386595D01*
X163614850Y-105304528D01*
X163448254Y-105253992D01*
X163275000Y-105236928D01*
X162525000Y-105236928D01*
X162351746Y-105253992D01*
X162185150Y-105304528D01*
X162031614Y-105386595D01*
X161897038Y-105497038D01*
X161786595Y-105631614D01*
X161704528Y-105785150D01*
X161653992Y-105951746D01*
X161636928Y-106125000D01*
X161636928Y-107375000D01*
X161653992Y-107548254D01*
X161704528Y-107714850D01*
X161786595Y-107868386D01*
X161897038Y-108002962D01*
X162031614Y-108113405D01*
X162140001Y-108171339D01*
X162140000Y-110497677D01*
X162136324Y-110535000D01*
X162140000Y-110572322D01*
X162140000Y-110572332D01*
X162150997Y-110683985D01*
X162183478Y-110791063D01*
X162194454Y-110827246D01*
X162265026Y-110959276D01*
X162269276Y-110964454D01*
X162359999Y-111075001D01*
X162389002Y-111098804D01*
X163436200Y-112146002D01*
X163459999Y-112175001D01*
X163476350Y-112188420D01*
X163494742Y-112222829D01*
X163533454Y-112270000D01*
X163494742Y-112317171D01*
X163421916Y-112453418D01*
X163377071Y-112601255D01*
X163361928Y-112755000D01*
X163361928Y-113055000D01*
X163377071Y-113208745D01*
X163421916Y-113356582D01*
X163494742Y-113492829D01*
X163592749Y-113612251D01*
X163712171Y-113710258D01*
X163848418Y-113783084D01*
X163996255Y-113827929D01*
X164150000Y-113843072D01*
X165800000Y-113843072D01*
X165953745Y-113827929D01*
X166101582Y-113783084D01*
X166237829Y-113710258D01*
X166357251Y-113612251D01*
X166455258Y-113492829D01*
X166528084Y-113356582D01*
X166572929Y-113208745D01*
X166588072Y-113055000D01*
X166588072Y-112755000D01*
X166572929Y-112601255D01*
X166545248Y-112510000D01*
X171600130Y-112510000D01*
X171610498Y-112544180D01*
X171669463Y-112654494D01*
X171748815Y-112751185D01*
X171845506Y-112830537D01*
X171955820Y-112889502D01*
X172075518Y-112925812D01*
X172200000Y-112938072D01*
X174300000Y-112938072D01*
X174424482Y-112925812D01*
X174515001Y-112898353D01*
X174515001Y-113466343D01*
X174511686Y-113500000D01*
X174524912Y-113634283D01*
X174564081Y-113763406D01*
X174627688Y-113882407D01*
X174713289Y-113986711D01*
X174817593Y-114072312D01*
X174936594Y-114135919D01*
X175065717Y-114175088D01*
X175166353Y-114185000D01*
X175200000Y-114188314D01*
X175233647Y-114185000D01*
X179090001Y-114185000D01*
X179090000Y-118090000D01*
X152396905Y-118090000D01*
X152502962Y-118002962D01*
X152613405Y-117868386D01*
X152695472Y-117714850D01*
X152746008Y-117548254D01*
X152763072Y-117375000D01*
X152763072Y-116625000D01*
X152746008Y-116451746D01*
X152695472Y-116285150D01*
X152613405Y-116131614D01*
X152502962Y-115997038D01*
X152368386Y-115886595D01*
X152214850Y-115804528D01*
X152048254Y-115753992D01*
X151875000Y-115736928D01*
X150625000Y-115736928D01*
X150451746Y-115753992D01*
X150285150Y-115804528D01*
X150131614Y-115886595D01*
X150036077Y-115965000D01*
X149970133Y-115965000D01*
X150028084Y-115856582D01*
X150072929Y-115708745D01*
X150088072Y-115555000D01*
X150088072Y-115277671D01*
X150131614Y-115313405D01*
X150285150Y-115395472D01*
X150451746Y-115446008D01*
X150625000Y-115463072D01*
X151875000Y-115463072D01*
X152048254Y-115446008D01*
X152214850Y-115395472D01*
X152368386Y-115313405D01*
X152502962Y-115202962D01*
X152613405Y-115068386D01*
X152695472Y-114914850D01*
X152746008Y-114748254D01*
X152763072Y-114575000D01*
X152763072Y-114425000D01*
X154736928Y-114425000D01*
X154749188Y-114549482D01*
X154785498Y-114669180D01*
X154844463Y-114779494D01*
X154923815Y-114876185D01*
X155020506Y-114955537D01*
X155130820Y-115014502D01*
X155250518Y-115050812D01*
X155375000Y-115063072D01*
X155964250Y-115060000D01*
X156123000Y-114901250D01*
X156123000Y-113927000D01*
X156377000Y-113927000D01*
X156377000Y-114901250D01*
X156535750Y-115060000D01*
X157125000Y-115063072D01*
X157249482Y-115050812D01*
X157369180Y-115014502D01*
X157479494Y-114955537D01*
X157576185Y-114876185D01*
X157655537Y-114779494D01*
X157714502Y-114669180D01*
X157750812Y-114549482D01*
X157763072Y-114425000D01*
X157760000Y-114085750D01*
X157601250Y-113927000D01*
X156377000Y-113927000D01*
X156123000Y-113927000D01*
X154898750Y-113927000D01*
X154740000Y-114085750D01*
X154736928Y-114425000D01*
X152763072Y-114425000D01*
X152763072Y-113825000D01*
X152746008Y-113651746D01*
X152695472Y-113485150D01*
X152613405Y-113331614D01*
X152502962Y-113197038D01*
X152368386Y-113086595D01*
X152214850Y-113004528D01*
X152048254Y-112953992D01*
X151997271Y-112948971D01*
X152063405Y-112868386D01*
X152145472Y-112714850D01*
X152196008Y-112548254D01*
X152213072Y-112375000D01*
X152213072Y-111125000D01*
X152196008Y-110951746D01*
X152145472Y-110785150D01*
X152063405Y-110631614D01*
X151952962Y-110497038D01*
X151818386Y-110386595D01*
X151664850Y-110304528D01*
X151498254Y-110253992D01*
X151325000Y-110236928D01*
X150575000Y-110236928D01*
X150401746Y-110253992D01*
X150235150Y-110304528D01*
X150081614Y-110386595D01*
X149947038Y-110497038D01*
X149836595Y-110631614D01*
X149754528Y-110785150D01*
X149750084Y-110799800D01*
X149737829Y-110789742D01*
X149601582Y-110716916D01*
X149453745Y-110672071D01*
X149300000Y-110656928D01*
X147650000Y-110656928D01*
X147496255Y-110672071D01*
X147348418Y-110716916D01*
X147212171Y-110789742D01*
X147092749Y-110887749D01*
X146994742Y-111007171D01*
X146921916Y-111143418D01*
X146877071Y-111291255D01*
X146861928Y-111445000D01*
X146861928Y-111745000D01*
X146877071Y-111898745D01*
X146921916Y-112046582D01*
X146993730Y-112180936D01*
X146969463Y-112210506D01*
X146910498Y-112320820D01*
X146874188Y-112440518D01*
X146861928Y-112565000D01*
X146865000Y-112579250D01*
X147023750Y-112738000D01*
X148348000Y-112738000D01*
X148348000Y-112718000D01*
X148602000Y-112718000D01*
X148602000Y-112738000D01*
X148622000Y-112738000D01*
X148622000Y-112992000D01*
X148602000Y-112992000D01*
X148602000Y-113012000D01*
X148348000Y-113012000D01*
X148348000Y-112992000D01*
X147023750Y-112992000D01*
X146865000Y-113150750D01*
X146861928Y-113165000D01*
X146874188Y-113289482D01*
X146910498Y-113409180D01*
X146969463Y-113519494D01*
X146993730Y-113549064D01*
X146921916Y-113683418D01*
X146877071Y-113831255D01*
X146861928Y-113985000D01*
X146861928Y-114285000D01*
X146877071Y-114438745D01*
X146921916Y-114586582D01*
X146994742Y-114722829D01*
X147033454Y-114770000D01*
X146994742Y-114817171D01*
X146921916Y-114953418D01*
X146877071Y-115101255D01*
X146861928Y-115255000D01*
X146861928Y-115555000D01*
X146877071Y-115708745D01*
X146921916Y-115856582D01*
X146931216Y-115873982D01*
X145565199Y-117240000D01*
X138703711Y-117240000D01*
X138659774Y-117196063D01*
X138491305Y-117083496D01*
X139409802Y-116165000D01*
X142207024Y-116165000D01*
X142262171Y-116210258D01*
X142398418Y-116283084D01*
X142546255Y-116327929D01*
X142700000Y-116343072D01*
X144350000Y-116343072D01*
X144503745Y-116327929D01*
X144651582Y-116283084D01*
X144787829Y-116210258D01*
X144907251Y-116112251D01*
X145005258Y-115992829D01*
X145078084Y-115856582D01*
X145122929Y-115708745D01*
X145138072Y-115555000D01*
X145138072Y-115255000D01*
X145122929Y-115101255D01*
X145078084Y-114953418D01*
X145005258Y-114817171D01*
X144966546Y-114770000D01*
X145005258Y-114722829D01*
X145078084Y-114586582D01*
X145122929Y-114438745D01*
X145138072Y-114285000D01*
X145138072Y-113985000D01*
X145122929Y-113831255D01*
X145078084Y-113683418D01*
X145005258Y-113547171D01*
X144966546Y-113500000D01*
X145005258Y-113452829D01*
X145078084Y-113316582D01*
X145122929Y-113168745D01*
X145138072Y-113015000D01*
X145138072Y-112715000D01*
X145122929Y-112561255D01*
X145078084Y-112413418D01*
X145005258Y-112277171D01*
X144966546Y-112230000D01*
X145005258Y-112182829D01*
X145078084Y-112046582D01*
X145122929Y-111898745D01*
X145138072Y-111745000D01*
X145138072Y-111445000D01*
X145122929Y-111291255D01*
X145078084Y-111143418D01*
X145005258Y-111007171D01*
X144907251Y-110887749D01*
X144787829Y-110789742D01*
X144651582Y-110716916D01*
X144503745Y-110672071D01*
X144350000Y-110656928D01*
X144285000Y-110656928D01*
X144285000Y-110262111D01*
X144339851Y-110245472D01*
X144493387Y-110163405D01*
X144627962Y-110052962D01*
X144738405Y-109918387D01*
X144820472Y-109764851D01*
X144847727Y-109675000D01*
X144911928Y-109675000D01*
X144924188Y-109799482D01*
X144960498Y-109919180D01*
X145019463Y-110029494D01*
X145098815Y-110126185D01*
X145195506Y-110205537D01*
X145305820Y-110264502D01*
X145425518Y-110300812D01*
X145550000Y-110313072D01*
X145964250Y-110310000D01*
X146123000Y-110151250D01*
X146123000Y-109127000D01*
X146377000Y-109127000D01*
X146377000Y-110151250D01*
X146535750Y-110310000D01*
X146950000Y-110313072D01*
X147074482Y-110300812D01*
X147194180Y-110264502D01*
X147304494Y-110205537D01*
X147401185Y-110126185D01*
X147480537Y-110029494D01*
X147539502Y-109919180D01*
X147575812Y-109799482D01*
X147588072Y-109675000D01*
X147585000Y-109285750D01*
X147426250Y-109127000D01*
X146377000Y-109127000D01*
X146123000Y-109127000D01*
X145073750Y-109127000D01*
X144915000Y-109285750D01*
X144911928Y-109675000D01*
X144847727Y-109675000D01*
X144871008Y-109598255D01*
X144888072Y-109425001D01*
X144888072Y-108574999D01*
X144871008Y-108401745D01*
X144847728Y-108325000D01*
X144911928Y-108325000D01*
X144915000Y-108714250D01*
X145073750Y-108873000D01*
X146123000Y-108873000D01*
X146123000Y-106627000D01*
X146377000Y-106627000D01*
X146377000Y-108873000D01*
X147426250Y-108873000D01*
X147585000Y-108714250D01*
X147588072Y-108325000D01*
X147575812Y-108200518D01*
X147539502Y-108080820D01*
X147480537Y-107970506D01*
X147401185Y-107873815D01*
X147333012Y-107817867D01*
X147405537Y-107729494D01*
X147464502Y-107619180D01*
X147500812Y-107499482D01*
X147513072Y-107375000D01*
X147510000Y-106785750D01*
X147351250Y-106627000D01*
X146377000Y-106627000D01*
X146123000Y-106627000D01*
X145148750Y-106627000D01*
X144990000Y-106785750D01*
X144986928Y-107375000D01*
X144999188Y-107499482D01*
X145035498Y-107619180D01*
X145094463Y-107729494D01*
X145166988Y-107817867D01*
X145098815Y-107873815D01*
X145019463Y-107970506D01*
X144960498Y-108080820D01*
X144924188Y-108200518D01*
X144911928Y-108325000D01*
X144847728Y-108325000D01*
X144820472Y-108235149D01*
X144738405Y-108081613D01*
X144627962Y-107947038D01*
X144493387Y-107836595D01*
X144407193Y-107790523D01*
X144452962Y-107752962D01*
X144563405Y-107618386D01*
X144645472Y-107464850D01*
X144696008Y-107298254D01*
X144713072Y-107125000D01*
X144713072Y-105875000D01*
X144696008Y-105701746D01*
X144645472Y-105535150D01*
X144632029Y-105510000D01*
X144998254Y-105510000D01*
X144986928Y-105625000D01*
X144990000Y-106214250D01*
X145148750Y-106373000D01*
X146123000Y-106373000D01*
X146123000Y-106353000D01*
X146377000Y-106353000D01*
X146377000Y-106373000D01*
X147351250Y-106373000D01*
X147510000Y-106214250D01*
X147513072Y-105625000D01*
X147501746Y-105510000D01*
X154185199Y-105510000D01*
X154736928Y-106061729D01*
X154736928Y-106575000D01*
X154752844Y-106736603D01*
X154750000Y-106736323D01*
X154712667Y-106740000D01*
X154601014Y-106750997D01*
X154457753Y-106794454D01*
X154325724Y-106865026D01*
X154209999Y-106959999D01*
X154186201Y-106988997D01*
X153239002Y-107936196D01*
X153209999Y-107959999D01*
X153166444Y-108013072D01*
X153115026Y-108075724D01*
X153057489Y-108183368D01*
X153044454Y-108207754D01*
X153000997Y-108351015D01*
X152990000Y-108462668D01*
X152990000Y-108462678D01*
X152986324Y-108500000D01*
X152990000Y-108537323D01*
X152990001Y-110328661D01*
X152881614Y-110386595D01*
X152747038Y-110497038D01*
X152636595Y-110631614D01*
X152554528Y-110785150D01*
X152503992Y-110951746D01*
X152486928Y-111125000D01*
X152486928Y-112375000D01*
X152503992Y-112548254D01*
X152554528Y-112714850D01*
X152636595Y-112868386D01*
X152747038Y-113002962D01*
X152881614Y-113113405D01*
X153035150Y-113195472D01*
X153201746Y-113246008D01*
X153375000Y-113263072D01*
X154125000Y-113263072D01*
X154298254Y-113246008D01*
X154464850Y-113195472D01*
X154618386Y-113113405D01*
X154752962Y-113002962D01*
X154769860Y-112982372D01*
X154749188Y-113050518D01*
X154736928Y-113175000D01*
X154740000Y-113514250D01*
X154898750Y-113673000D01*
X156123000Y-113673000D01*
X156123000Y-112698750D01*
X156377000Y-112698750D01*
X156377000Y-113673000D01*
X157601250Y-113673000D01*
X157760000Y-113514250D01*
X157763072Y-113175000D01*
X157750812Y-113050518D01*
X157714502Y-112930820D01*
X157655537Y-112820506D01*
X157576185Y-112723815D01*
X157479494Y-112644463D01*
X157369180Y-112585498D01*
X157249482Y-112549188D01*
X157125000Y-112536928D01*
X156535750Y-112540000D01*
X156377000Y-112698750D01*
X156123000Y-112698750D01*
X155964250Y-112540000D01*
X155375000Y-112536928D01*
X155250518Y-112549188D01*
X155130820Y-112585498D01*
X155020506Y-112644463D01*
X154949030Y-112703122D01*
X154996008Y-112548254D01*
X155013072Y-112375000D01*
X155013072Y-112016121D01*
X155131614Y-112113405D01*
X155285150Y-112195472D01*
X155451746Y-112246008D01*
X155625000Y-112263072D01*
X156452314Y-112263072D01*
X156460724Y-112269974D01*
X156592753Y-112340546D01*
X156736014Y-112384003D01*
X156885000Y-112398677D01*
X156922333Y-112395000D01*
X158503141Y-112395000D01*
X158471916Y-112453418D01*
X158427071Y-112601255D01*
X158411928Y-112755000D01*
X158411928Y-113055000D01*
X158427071Y-113208745D01*
X158471916Y-113356582D01*
X158544742Y-113492829D01*
X158642749Y-113612251D01*
X158762171Y-113710258D01*
X158898418Y-113783084D01*
X158940001Y-113795698D01*
X158940001Y-113828661D01*
X158831614Y-113886595D01*
X158697038Y-113997038D01*
X158586595Y-114131614D01*
X158504528Y-114285150D01*
X158453992Y-114451746D01*
X158448783Y-114504639D01*
X158448102Y-114504774D01*
X158259744Y-114582795D01*
X158090226Y-114696063D01*
X157946063Y-114840226D01*
X157832795Y-115009744D01*
X157754774Y-115198102D01*
X157715000Y-115398061D01*
X157715000Y-115601939D01*
X157754774Y-115801898D01*
X157832795Y-115990256D01*
X157946063Y-116159774D01*
X158090226Y-116303937D01*
X158259744Y-116417205D01*
X158448102Y-116495226D01*
X158648061Y-116535000D01*
X158736077Y-116535000D01*
X158831614Y-116613405D01*
X158985150Y-116695472D01*
X159151746Y-116746008D01*
X159325000Y-116763072D01*
X160075000Y-116763072D01*
X160248254Y-116746008D01*
X160414850Y-116695472D01*
X160568386Y-116613405D01*
X160702962Y-116502962D01*
X160813405Y-116368386D01*
X160895472Y-116214850D01*
X160922727Y-116125000D01*
X161236928Y-116125000D01*
X161249188Y-116249482D01*
X161285498Y-116369180D01*
X161344463Y-116479494D01*
X161423815Y-116576185D01*
X161520506Y-116655537D01*
X161630820Y-116714502D01*
X161750518Y-116750812D01*
X161875000Y-116763072D01*
X162214250Y-116760000D01*
X162373000Y-116601250D01*
X162373000Y-115377000D01*
X162627000Y-115377000D01*
X162627000Y-116601250D01*
X162785750Y-116760000D01*
X163125000Y-116763072D01*
X163249482Y-116750812D01*
X163369180Y-116714502D01*
X163479494Y-116655537D01*
X163576185Y-116576185D01*
X163655537Y-116479494D01*
X163714502Y-116369180D01*
X163750812Y-116249482D01*
X163763072Y-116125000D01*
X163760000Y-115535750D01*
X163601250Y-115377000D01*
X162627000Y-115377000D01*
X162373000Y-115377000D01*
X161398750Y-115377000D01*
X161240000Y-115535750D01*
X161236928Y-116125000D01*
X160922727Y-116125000D01*
X160946008Y-116048254D01*
X160963072Y-115875000D01*
X160963072Y-114625000D01*
X160946008Y-114451746D01*
X160922728Y-114375000D01*
X161236928Y-114375000D01*
X161240000Y-114964250D01*
X161398750Y-115123000D01*
X162373000Y-115123000D01*
X162373000Y-113898750D01*
X162627000Y-113898750D01*
X162627000Y-115123000D01*
X163601250Y-115123000D01*
X163760000Y-114964250D01*
X163763072Y-114375000D01*
X163750812Y-114250518D01*
X163714502Y-114130820D01*
X163655537Y-114020506D01*
X163576185Y-113923815D01*
X163479494Y-113844463D01*
X163369180Y-113785498D01*
X163249482Y-113749188D01*
X163125000Y-113736928D01*
X162785750Y-113740000D01*
X162627000Y-113898750D01*
X162373000Y-113898750D01*
X162214250Y-113740000D01*
X161875000Y-113736928D01*
X161750518Y-113749188D01*
X161630820Y-113785498D01*
X161520506Y-113844463D01*
X161423815Y-113923815D01*
X161344463Y-114020506D01*
X161285498Y-114130820D01*
X161249188Y-114250518D01*
X161236928Y-114375000D01*
X160922728Y-114375000D01*
X160895472Y-114285150D01*
X160813405Y-114131614D01*
X160702962Y-113997038D01*
X160568386Y-113886595D01*
X160486960Y-113843072D01*
X160850000Y-113843072D01*
X161003745Y-113827929D01*
X161151582Y-113783084D01*
X161287829Y-113710258D01*
X161407251Y-113612251D01*
X161505258Y-113492829D01*
X161578084Y-113356582D01*
X161622929Y-113208745D01*
X161638072Y-113055000D01*
X161638072Y-112755000D01*
X161622929Y-112601255D01*
X161578084Y-112453418D01*
X161505258Y-112317171D01*
X161466546Y-112270000D01*
X161505258Y-112222829D01*
X161578084Y-112086582D01*
X161622929Y-111938745D01*
X161638072Y-111785000D01*
X161638072Y-111485000D01*
X161622929Y-111331255D01*
X161578084Y-111183418D01*
X161505258Y-111047171D01*
X161466546Y-111000000D01*
X161505258Y-110952829D01*
X161578084Y-110816582D01*
X161622929Y-110668745D01*
X161638072Y-110515000D01*
X161638072Y-110215000D01*
X161622929Y-110061255D01*
X161578084Y-109913418D01*
X161505258Y-109777171D01*
X161466546Y-109730000D01*
X161505258Y-109682829D01*
X161578084Y-109546582D01*
X161622929Y-109398745D01*
X161638072Y-109245000D01*
X161638072Y-108945000D01*
X161622929Y-108791255D01*
X161578084Y-108643418D01*
X161505258Y-108507171D01*
X161407251Y-108387749D01*
X161287829Y-108289742D01*
X161151582Y-108216916D01*
X161003745Y-108172071D01*
X160881210Y-108160002D01*
X160968386Y-108113405D01*
X161102962Y-108002962D01*
X161213405Y-107868386D01*
X161295472Y-107714850D01*
X161346008Y-107548254D01*
X161363072Y-107375000D01*
X161363072Y-106125000D01*
X161346008Y-105951746D01*
X161295472Y-105785150D01*
X161213405Y-105631614D01*
X161102962Y-105497038D01*
X160968386Y-105386595D01*
X160814850Y-105304528D01*
X160648254Y-105253992D01*
X160475000Y-105236928D01*
X159725000Y-105236928D01*
X159551746Y-105253992D01*
X159385150Y-105304528D01*
X159231614Y-105386595D01*
X159097038Y-105497038D01*
X158986595Y-105631614D01*
X158904528Y-105785150D01*
X158853992Y-105951746D01*
X158849084Y-106001583D01*
X158707753Y-106044454D01*
X158575724Y-106115026D01*
X158459999Y-106209999D01*
X158436201Y-106238998D01*
X157935199Y-106740000D01*
X157746821Y-106740000D01*
X157763072Y-106575000D01*
X157763072Y-105825000D01*
X157746008Y-105651746D01*
X157695472Y-105485150D01*
X157613405Y-105331614D01*
X157502962Y-105197038D01*
X157368386Y-105086595D01*
X157214850Y-105004528D01*
X157048254Y-104953992D01*
X156875000Y-104936928D01*
X155761729Y-104936928D01*
X155734801Y-104910000D01*
X179090000Y-104910000D01*
X179090001Y-109315000D01*
G36*
X142254528Y-105535150D02*
G01*
X142203992Y-105701746D01*
X142186928Y-105875000D01*
X142186928Y-107125000D01*
X142203992Y-107298254D01*
X142254528Y-107464850D01*
X142336595Y-107618386D01*
X142447038Y-107752962D01*
X142577779Y-107860258D01*
X142472038Y-107947038D01*
X142361595Y-108081613D01*
X142279528Y-108235149D01*
X142228992Y-108401745D01*
X142211928Y-108574999D01*
X142211928Y-109425001D01*
X142228992Y-109598255D01*
X142279528Y-109764851D01*
X142361595Y-109918387D01*
X142472038Y-110052962D01*
X142606613Y-110163405D01*
X142760149Y-110245472D01*
X142765001Y-110246944D01*
X142765000Y-110656928D01*
X142700000Y-110656928D01*
X142546255Y-110672071D01*
X142398418Y-110716916D01*
X142262171Y-110789742D01*
X142207024Y-110835000D01*
X140298711Y-110835000D01*
X140254774Y-110791063D01*
X140085256Y-110677795D01*
X139896898Y-110599774D01*
X139696939Y-110560000D01*
X139493061Y-110560000D01*
X139293102Y-110599774D01*
X139104744Y-110677795D01*
X138935226Y-110791063D01*
X138891289Y-110835000D01*
X136442322Y-110835000D01*
X136404999Y-110831324D01*
X136367676Y-110835000D01*
X136367667Y-110835000D01*
X136256014Y-110845997D01*
X136112753Y-110889454D01*
X135980724Y-110960026D01*
X135864999Y-111054999D01*
X135841201Y-111083997D01*
X135090205Y-111834993D01*
X135070155Y-111797000D01*
X133877000Y-111797000D01*
X133877000Y-111817000D01*
X133623000Y-111817000D01*
X133623000Y-111797000D01*
X133603000Y-111797000D01*
X133603000Y-111543000D01*
X133623000Y-111543000D01*
X133623000Y-111523000D01*
X133877000Y-111523000D01*
X133877000Y-111543000D01*
X135070155Y-111543000D01*
X135191476Y-111313110D01*
X135146825Y-111165901D01*
X135021641Y-110903080D01*
X134847588Y-110669731D01*
X134631355Y-110474822D01*
X134514466Y-110405195D01*
X134696632Y-110283475D01*
X134903475Y-110076632D01*
X135065990Y-109833411D01*
X135177932Y-109563158D01*
X135235000Y-109276260D01*
X135235000Y-108983740D01*
X135177932Y-108696842D01*
X135065990Y-108426589D01*
X134903475Y-108183368D01*
X134696632Y-107976525D01*
X134522240Y-107860000D01*
X134696632Y-107743475D01*
X134903475Y-107536632D01*
X135065990Y-107293411D01*
X135177932Y-107023158D01*
X135235000Y-106736260D01*
X135235000Y-106443740D01*
X135191210Y-106223592D01*
X135904802Y-105510000D01*
X142267971Y-105510000D01*
X142254528Y-105535150D01*
G37*
X142254528Y-105535150D02*
X142203992Y-105701746D01*
X142186928Y-105875000D01*
X142186928Y-107125000D01*
X142203992Y-107298254D01*
X142254528Y-107464850D01*
X142336595Y-107618386D01*
X142447038Y-107752962D01*
X142577779Y-107860258D01*
X142472038Y-107947038D01*
X142361595Y-108081613D01*
X142279528Y-108235149D01*
X142228992Y-108401745D01*
X142211928Y-108574999D01*
X142211928Y-109425001D01*
X142228992Y-109598255D01*
X142279528Y-109764851D01*
X142361595Y-109918387D01*
X142472038Y-110052962D01*
X142606613Y-110163405D01*
X142760149Y-110245472D01*
X142765001Y-110246944D01*
X142765000Y-110656928D01*
X142700000Y-110656928D01*
X142546255Y-110672071D01*
X142398418Y-110716916D01*
X142262171Y-110789742D01*
X142207024Y-110835000D01*
X140298711Y-110835000D01*
X140254774Y-110791063D01*
X140085256Y-110677795D01*
X139896898Y-110599774D01*
X139696939Y-110560000D01*
X139493061Y-110560000D01*
X139293102Y-110599774D01*
X139104744Y-110677795D01*
X138935226Y-110791063D01*
X138891289Y-110835000D01*
X136442322Y-110835000D01*
X136404999Y-110831324D01*
X136367676Y-110835000D01*
X136367667Y-110835000D01*
X136256014Y-110845997D01*
X136112753Y-110889454D01*
X135980724Y-110960026D01*
X135864999Y-111054999D01*
X135841201Y-111083997D01*
X135090205Y-111834993D01*
X135070155Y-111797000D01*
X133877000Y-111797000D01*
X133877000Y-111817000D01*
X133623000Y-111817000D01*
X133623000Y-111797000D01*
X133603000Y-111797000D01*
X133603000Y-111543000D01*
X133623000Y-111543000D01*
X133623000Y-111523000D01*
X133877000Y-111523000D01*
X133877000Y-111543000D01*
X135070155Y-111543000D01*
X135191476Y-111313110D01*
X135146825Y-111165901D01*
X135021641Y-110903080D01*
X134847588Y-110669731D01*
X134631355Y-110474822D01*
X134514466Y-110405195D01*
X134696632Y-110283475D01*
X134903475Y-110076632D01*
X135065990Y-109833411D01*
X135177932Y-109563158D01*
X135235000Y-109276260D01*
X135235000Y-108983740D01*
X135177932Y-108696842D01*
X135065990Y-108426589D01*
X134903475Y-108183368D01*
X134696632Y-107976525D01*
X134522240Y-107860000D01*
X134696632Y-107743475D01*
X134903475Y-107536632D01*
X135065990Y-107293411D01*
X135177932Y-107023158D01*
X135235000Y-106736260D01*
X135235000Y-106443740D01*
X135191210Y-106223592D01*
X135904802Y-105510000D01*
X142267971Y-105510000D01*
X142254528Y-105535150D01*
%TD*%
M02*
