M48
; DRILL file {KiCad (5.1.6-0-10_14)} date Thursday, November 05, 2020 at 10:51:21 AM
; FORMAT={-:-/ absolute / inch / decimal}
; #@! TF.CreationDate,2020-11-05T10:51:21+09:00
; #@! TF.GenerationSoftware,Kicad,Pcbnew,(5.1.6-0-10_14)
FMAT,2
INCH
T1C0.0157
T2C0.0276
T3C0.0300
T4C0.0315
T5C0.0350
T6C0.0394
T7C0.0410
T8C0.0630
T9C0.0827
T10C0.1280
%
G90
G05
T1
X4.3602Y-4.4685
X4.439Y-4.7244
X4.4685Y-4.2815
X4.4685Y-4.626
X5.3445Y-4.3799
X5.3543Y-4.3012
X5.3839Y-4.3983
X5.4232Y-4.5177
X5.8169Y-4.5177
T2
X6.0433Y-4.7835
X6.1024Y-4.7835
X6.1614Y-4.7835
T3
X4.6063Y-4.3697
X4.6063Y-4.4697
X4.6063Y-4.5697
X4.6063Y-4.6697
X4.6063Y-4.7697
X4.6063Y-4.8697
X4.6063Y-4.9697
X4.6063Y-5.0697
X4.6063Y-5.1697
X4.6063Y-5.2697
X4.6063Y-5.3697
X4.6063Y-5.4697
X4.6063Y-5.5697
X4.6063Y-5.6697
X4.6063Y-5.7697
X4.6063Y-5.8697
X4.6063Y-6.1697
X4.6063Y-6.2697
X4.6063Y-6.3697
X4.6063Y-6.4697
X4.6063Y-6.5697
X5.2063Y-4.3697
X5.2063Y-4.4697
X5.2063Y-4.5697
X5.2063Y-4.6697
X5.2063Y-4.7697
X5.2063Y-4.8697
X5.2063Y-4.9697
X5.2063Y-5.0697
X5.2063Y-5.1697
X5.2063Y-5.2697
X5.2063Y-5.3697
X5.2063Y-5.4697
X5.2063Y-5.5697
X5.2063Y-5.6697
X5.2063Y-5.7697
X5.2063Y-5.8697
X5.2063Y-5.9697
X5.2063Y-6.0697
X5.2063Y-6.1697
X5.2063Y-6.2697
X5.2063Y-6.3697
X5.2063Y-6.4697
X5.2063Y-6.5697
T4
X3.9075Y-5.6988
X4.0059Y-5.6988
X4.7244Y-5.9843
X4.7244Y-6.063
X4.8031Y-5.9843
X4.8031Y-6.063
X4.8819Y-5.9843
X4.8819Y-6.063
T5
X3.8976Y-5.9843
X3.9476Y-5.8843
X3.9976Y-5.9843
X4.0476Y-5.8843
X4.0976Y-5.9843
X4.1476Y-5.8843
X4.1976Y-5.9843
X4.2476Y-5.8843
T6
X5.5004Y-4.2421
X5.5004Y-4.3421
X5.6004Y-4.2421
X5.6004Y-4.3421
X5.7004Y-4.2421
X5.7004Y-4.3421
X5.8004Y-4.2421
X5.8004Y-4.3421
X5.9004Y-4.2421
X5.9004Y-4.3421
X5.935Y-5.9665
X5.935Y-6.0665
X5.935Y-6.1665
X5.935Y-6.3665
X5.935Y-6.4665
X3.911Y-4.2406
X3.911Y-4.3406
X4.011Y-4.2406
X4.011Y-4.3406
X4.111Y-4.2406
X4.111Y-4.3406
X4.211Y-4.2406
X4.211Y-4.3406
X4.311Y-4.2406
X4.311Y-4.3406
T7
X3.8236Y-6.435
X3.9236Y-6.3673
X4.2217Y-6.4343
X4.3217Y-6.3673
T8
X3.7626Y-6.115
X4.3827Y-6.115
T9
X3.7402Y-4.2421
X3.7402Y-5.4134
X6.1516Y-4.2421
X6.1516Y-5.4232
T10
X3.8476Y-6.235
X4.2976Y-6.235
T0
M30
