G04 #@! TF.GenerationSoftware,KiCad,Pcbnew,(5.1.6-0-10_14)*
G04 #@! TF.CreationDate,2020-11-05T10:51:19+09:00*
G04 #@! TF.ProjectId,teabiscuits_compute,74656162-6973-4637-9569-74735f636f6d,rev?*
G04 #@! TF.SameCoordinates,Original*
G04 #@! TF.FileFunction,Legend,Top*
G04 #@! TF.FilePolarity,Positive*
%FSLAX46Y46*%
G04 Gerber Fmt 4.6, Leading zero omitted, Abs format (unit mm)*
G04 Created by KiCad (PCBNEW (5.1.6-0-10_14)) date 2020-11-05 10:51:19*
%MOMM*%
%LPD*%
G01*
G04 APERTURE LIST*
%ADD10C,0.300000*%
%ADD11C,0.120000*%
%ADD12C,0.127000*%
%ADD13C,0.200000*%
%ADD14C,0.152400*%
%ADD15C,0.150000*%
%ADD16C,0.015000*%
G04 APERTURE END LIST*
D10*
X97428571Y-141464285D02*
X97428571Y-140607142D01*
X98928571Y-141035714D02*
X97428571Y-141035714D01*
X98857142Y-139535714D02*
X98928571Y-139678571D01*
X98928571Y-139964285D01*
X98857142Y-140107142D01*
X98714285Y-140178571D01*
X98142857Y-140178571D01*
X98000000Y-140107142D01*
X97928571Y-139964285D01*
X97928571Y-139678571D01*
X98000000Y-139535714D01*
X98142857Y-139464285D01*
X98285714Y-139464285D01*
X98428571Y-140178571D01*
X98928571Y-138178571D02*
X98142857Y-138178571D01*
X98000000Y-138250000D01*
X97928571Y-138392857D01*
X97928571Y-138678571D01*
X98000000Y-138821428D01*
X98857142Y-138178571D02*
X98928571Y-138321428D01*
X98928571Y-138678571D01*
X98857142Y-138821428D01*
X98714285Y-138892857D01*
X98571428Y-138892857D01*
X98428571Y-138821428D01*
X98357142Y-138678571D01*
X98357142Y-138321428D01*
X98285714Y-138178571D01*
X98928571Y-137464285D02*
X97428571Y-137464285D01*
X98000000Y-137464285D02*
X97928571Y-137321428D01*
X97928571Y-137035714D01*
X98000000Y-136892857D01*
X98071428Y-136821428D01*
X98214285Y-136750000D01*
X98642857Y-136750000D01*
X98785714Y-136821428D01*
X98857142Y-136892857D01*
X98928571Y-137035714D01*
X98928571Y-137321428D01*
X98857142Y-137464285D01*
X98928571Y-136107142D02*
X97928571Y-136107142D01*
X97428571Y-136107142D02*
X97500000Y-136178571D01*
X97571428Y-136107142D01*
X97500000Y-136035714D01*
X97428571Y-136107142D01*
X97571428Y-136107142D01*
X98857142Y-135464285D02*
X98928571Y-135321428D01*
X98928571Y-135035714D01*
X98857142Y-134892857D01*
X98714285Y-134821428D01*
X98642857Y-134821428D01*
X98500000Y-134892857D01*
X98428571Y-135035714D01*
X98428571Y-135250000D01*
X98357142Y-135392857D01*
X98214285Y-135464285D01*
X98142857Y-135464285D01*
X98000000Y-135392857D01*
X97928571Y-135250000D01*
X97928571Y-135035714D01*
X98000000Y-134892857D01*
X98857142Y-133535714D02*
X98928571Y-133678571D01*
X98928571Y-133964285D01*
X98857142Y-134107142D01*
X98785714Y-134178571D01*
X98642857Y-134250000D01*
X98214285Y-134250000D01*
X98071428Y-134178571D01*
X98000000Y-134107142D01*
X97928571Y-133964285D01*
X97928571Y-133678571D01*
X98000000Y-133535714D01*
X97928571Y-132250000D02*
X98928571Y-132250000D01*
X97928571Y-132892857D02*
X98714285Y-132892857D01*
X98857142Y-132821428D01*
X98928571Y-132678571D01*
X98928571Y-132464285D01*
X98857142Y-132321428D01*
X98785714Y-132250000D01*
X98928571Y-131535714D02*
X97928571Y-131535714D01*
X97428571Y-131535714D02*
X97500000Y-131607142D01*
X97571428Y-131535714D01*
X97500000Y-131464285D01*
X97428571Y-131535714D01*
X97571428Y-131535714D01*
X97928571Y-131035714D02*
X97928571Y-130464285D01*
X97428571Y-130821428D02*
X98714285Y-130821428D01*
X98857142Y-130750000D01*
X98928571Y-130607142D01*
X98928571Y-130464285D01*
X98857142Y-130035714D02*
X98928571Y-129892857D01*
X98928571Y-129607142D01*
X98857142Y-129464285D01*
X98714285Y-129392857D01*
X98642857Y-129392857D01*
X98500000Y-129464285D01*
X98428571Y-129607142D01*
X98428571Y-129821428D01*
X98357142Y-129964285D01*
X98214285Y-130035714D01*
X98142857Y-130035714D01*
X98000000Y-129964285D01*
X97928571Y-129821428D01*
X97928571Y-129607142D01*
X98000000Y-129464285D01*
X98928571Y-127607142D02*
X97428571Y-127607142D01*
X97928571Y-126892857D02*
X98928571Y-126892857D01*
X98071428Y-126892857D02*
X98000000Y-126821428D01*
X97928571Y-126678571D01*
X97928571Y-126464285D01*
X98000000Y-126321428D01*
X98142857Y-126250000D01*
X98928571Y-126250000D01*
X97928571Y-125750000D02*
X97928571Y-125178571D01*
X97428571Y-125535714D02*
X98714285Y-125535714D01*
X98857142Y-125464285D01*
X98928571Y-125321428D01*
X98928571Y-125178571D01*
X98857142Y-124107142D02*
X98928571Y-124250000D01*
X98928571Y-124535714D01*
X98857142Y-124678571D01*
X98714285Y-124750000D01*
X98142857Y-124750000D01*
X98000000Y-124678571D01*
X97928571Y-124535714D01*
X97928571Y-124250000D01*
X98000000Y-124107142D01*
X98142857Y-124035714D01*
X98285714Y-124035714D01*
X98428571Y-124750000D01*
X97928571Y-122750000D02*
X99142857Y-122750000D01*
X99285714Y-122821428D01*
X99357142Y-122892857D01*
X99428571Y-123035714D01*
X99428571Y-123250000D01*
X99357142Y-123392857D01*
X98857142Y-122750000D02*
X98928571Y-122892857D01*
X98928571Y-123178571D01*
X98857142Y-123321428D01*
X98785714Y-123392857D01*
X98642857Y-123464285D01*
X98214285Y-123464285D01*
X98071428Y-123392857D01*
X98000000Y-123321428D01*
X97928571Y-123178571D01*
X97928571Y-122892857D01*
X98000000Y-122750000D01*
X97928571Y-122178571D02*
X98928571Y-121892857D01*
X98214285Y-121607142D01*
X98928571Y-121321428D01*
X97928571Y-121035714D01*
X98857142Y-119892857D02*
X98928571Y-120035714D01*
X98928571Y-120321428D01*
X98857142Y-120464285D01*
X98714285Y-120535714D01*
X98142857Y-120535714D01*
X98000000Y-120464285D01*
X97928571Y-120321428D01*
X97928571Y-120035714D01*
X98000000Y-119892857D01*
X98142857Y-119821428D01*
X98285714Y-119821428D01*
X98428571Y-120535714D01*
X98857142Y-118607142D02*
X98928571Y-118750000D01*
X98928571Y-119035714D01*
X98857142Y-119178571D01*
X98714285Y-119250000D01*
X98142857Y-119250000D01*
X98000000Y-119178571D01*
X97928571Y-119035714D01*
X97928571Y-118750000D01*
X98000000Y-118607142D01*
X98142857Y-118535714D01*
X98285714Y-118535714D01*
X98428571Y-119250000D01*
X97928571Y-117892857D02*
X98928571Y-117892857D01*
X98071428Y-117892857D02*
X98000000Y-117821428D01*
X97928571Y-117678571D01*
X97928571Y-117464285D01*
X98000000Y-117321428D01*
X98142857Y-117250000D01*
X98928571Y-117250000D01*
X98928571Y-115392857D02*
X97928571Y-115392857D01*
X98214285Y-115392857D02*
X98071428Y-115321428D01*
X98000000Y-115250000D01*
X97928571Y-115107142D01*
X97928571Y-114964285D01*
X98928571Y-114392857D02*
X98928571Y-114107142D01*
X98857142Y-113964285D01*
X98785714Y-113892857D01*
X98571428Y-113750000D01*
X98285714Y-113678571D01*
X97714285Y-113678571D01*
X97571428Y-113750000D01*
X97500000Y-113821428D01*
X97428571Y-113964285D01*
X97428571Y-114250000D01*
X97500000Y-114392857D01*
X97571428Y-114464285D01*
X97714285Y-114535714D01*
X98071428Y-114535714D01*
X98214285Y-114464285D01*
X98285714Y-114392857D01*
X98357142Y-114250000D01*
X98357142Y-113964285D01*
X98285714Y-113821428D01*
X98214285Y-113750000D01*
X98071428Y-113678571D01*
D11*
X134780000Y-105910000D02*
X134780000Y-169410000D01*
X134780000Y-105910000D02*
X114460000Y-105910000D01*
X114460000Y-105910000D02*
X114460000Y-169410000D01*
X114460000Y-169410000D02*
X134780000Y-169410000D01*
X129700000Y-169410000D02*
X129700000Y-164330000D01*
X129700000Y-164330000D02*
X119540000Y-164330000D01*
X119540000Y-164330000D02*
X119540000Y-169410000D01*
X129700000Y-105910000D02*
X129700000Y-116070000D01*
X129700000Y-116070000D02*
X119540000Y-116070000D01*
X119540000Y-116070000D02*
X119540000Y-105910000D01*
X149510000Y-141680000D02*
X149510000Y-139920000D01*
X146440000Y-139920000D02*
X146440000Y-142350000D01*
D12*
X149850000Y-166960000D02*
X155850000Y-166960000D01*
X155850000Y-147310000D02*
X149850000Y-147310000D01*
X155850000Y-147310000D02*
X155850000Y-166960000D01*
X149850000Y-166960000D02*
X149850000Y-165320000D01*
X149850000Y-161370000D02*
X149850000Y-156970000D01*
X149850000Y-151210000D02*
X149850000Y-147310000D01*
X149850000Y-163180000D02*
X149850000Y-162050000D01*
X149850000Y-156290000D02*
X149850000Y-154430000D01*
X149850000Y-153750000D02*
X149850000Y-151890000D01*
D13*
X150450000Y-167750000D02*
G75*
G03*
X150450000Y-167750000I-100000J0D01*
G01*
D11*
X143195000Y-122725000D02*
X143195000Y-120775000D01*
X143195000Y-122725000D02*
X143195000Y-124675000D01*
X138075000Y-122725000D02*
X138075000Y-120775000D01*
X138075000Y-122725000D02*
X138075000Y-126175000D01*
X142610000Y-141770000D02*
X142610000Y-140010000D01*
X139540000Y-140010000D02*
X139540000Y-142440000D01*
X140571078Y-117710000D02*
X140053922Y-117710000D01*
X140571078Y-116290000D02*
X140053922Y-116290000D01*
X141003922Y-127890000D02*
X141521078Y-127890000D01*
X141003922Y-129310000D02*
X141521078Y-129310000D01*
X141321078Y-137710000D02*
X140803922Y-137710000D01*
X141321078Y-136290000D02*
X140803922Y-136290000D01*
X147678922Y-136290000D02*
X148196078Y-136290000D01*
X147678922Y-137710000D02*
X148196078Y-137710000D01*
X141321078Y-145710000D02*
X140803922Y-145710000D01*
X141321078Y-144290000D02*
X140803922Y-144290000D01*
X148196078Y-145710000D02*
X147678922Y-145710000D01*
X148196078Y-144290000D02*
X147678922Y-144290000D01*
X102620000Y-145415000D02*
X102620000Y-146120000D01*
X102620000Y-143380000D02*
X102620000Y-144085000D01*
X98380000Y-145415000D02*
X98380000Y-146120000D01*
X98380000Y-143380000D02*
X98380000Y-144085000D01*
X98380000Y-146120000D02*
X102620000Y-146120000D01*
X98380000Y-143380000D02*
X102620000Y-143380000D01*
X152000000Y-117500000D02*
X152000000Y-122500000D01*
X158000000Y-117500000D02*
X152000000Y-117500000D01*
X158000000Y-122500000D02*
X158000000Y-117500000D01*
X152000000Y-122500000D02*
X158000000Y-122500000D01*
X153500000Y-123000000D02*
X153200000Y-123600000D01*
X153200000Y-123600000D02*
X153800000Y-123600000D01*
X153800000Y-123600000D02*
X153500000Y-123000000D01*
D14*
X93793000Y-155810000D02*
G75*
G03*
X93793000Y-155810000I-381000J0D01*
G01*
X95190000Y-147453400D02*
X95190000Y-149396237D01*
X111700000Y-147453400D02*
X95190000Y-147453400D01*
X111700000Y-169246600D02*
X111700000Y-156653763D01*
X95190000Y-169246600D02*
X111700000Y-169246600D01*
X111700000Y-153986237D02*
X111700000Y-152063763D01*
X95190000Y-156653763D02*
X95190000Y-169246600D01*
X111700000Y-149396237D02*
X111700000Y-147453400D01*
X95190000Y-152063763D02*
X95190000Y-153986237D01*
D11*
X118940000Y-155060000D02*
X118940000Y-154000000D01*
X120000000Y-155060000D02*
X118940000Y-155060000D01*
X118940000Y-153000000D02*
X118940000Y-150940000D01*
X121000000Y-153000000D02*
X118940000Y-153000000D01*
X121000000Y-155060000D02*
X121000000Y-153000000D01*
X118940000Y-150940000D02*
X125060000Y-150940000D01*
X121000000Y-155060000D02*
X125060000Y-155060000D01*
X125060000Y-155060000D02*
X125060000Y-150940000D01*
D15*
X123858095Y-102822380D02*
X123858095Y-103631904D01*
X123905714Y-103727142D01*
X123953333Y-103774761D01*
X124048571Y-103822380D01*
X124239047Y-103822380D01*
X124334285Y-103774761D01*
X124381904Y-103727142D01*
X124429523Y-103631904D01*
X124429523Y-102822380D01*
X125429523Y-103822380D02*
X124858095Y-103822380D01*
X125143809Y-103822380D02*
X125143809Y-102822380D01*
X125048571Y-102965238D01*
X124953333Y-103060476D01*
X124858095Y-103108095D01*
X144952380Y-141561904D02*
X145761904Y-141561904D01*
X145857142Y-141514285D01*
X145904761Y-141466666D01*
X145952380Y-141371428D01*
X145952380Y-141180952D01*
X145904761Y-141085714D01*
X145857142Y-141038095D01*
X145761904Y-140990476D01*
X144952380Y-140990476D01*
X145285714Y-140085714D02*
X145952380Y-140085714D01*
X144904761Y-140323809D02*
X145619047Y-140561904D01*
X145619047Y-139942857D01*
D16*
X147567380Y-164836904D02*
X148376904Y-164836904D01*
X148472142Y-164789285D01*
X148519761Y-164741666D01*
X148567380Y-164646428D01*
X148567380Y-164455952D01*
X148519761Y-164360714D01*
X148472142Y-164313095D01*
X148376904Y-164265476D01*
X147567380Y-164265476D01*
X147662619Y-163836904D02*
X147615000Y-163789285D01*
X147567380Y-163694047D01*
X147567380Y-163455952D01*
X147615000Y-163360714D01*
X147662619Y-163313095D01*
X147757857Y-163265476D01*
X147853095Y-163265476D01*
X147995952Y-163313095D01*
X148567380Y-163884523D01*
X148567380Y-163265476D01*
D15*
X136687380Y-123486904D02*
X137496904Y-123486904D01*
X137592142Y-123439285D01*
X137639761Y-123391666D01*
X137687380Y-123296428D01*
X137687380Y-123105952D01*
X137639761Y-123010714D01*
X137592142Y-122963095D01*
X137496904Y-122915476D01*
X136687380Y-122915476D01*
X136687380Y-121963095D02*
X136687380Y-122439285D01*
X137163571Y-122486904D01*
X137115952Y-122439285D01*
X137068333Y-122344047D01*
X137068333Y-122105952D01*
X137115952Y-122010714D01*
X137163571Y-121963095D01*
X137258809Y-121915476D01*
X137496904Y-121915476D01*
X137592142Y-121963095D01*
X137639761Y-122010714D01*
X137687380Y-122105952D01*
X137687380Y-122344047D01*
X137639761Y-122439285D01*
X137592142Y-122486904D01*
X138052380Y-141651904D02*
X138861904Y-141651904D01*
X138957142Y-141604285D01*
X139004761Y-141556666D01*
X139052380Y-141461428D01*
X139052380Y-141270952D01*
X139004761Y-141175714D01*
X138957142Y-141128095D01*
X138861904Y-141080476D01*
X138052380Y-141080476D01*
X138052380Y-140699523D02*
X138052380Y-140080476D01*
X138433333Y-140413809D01*
X138433333Y-140270952D01*
X138480952Y-140175714D01*
X138528571Y-140128095D01*
X138623809Y-140080476D01*
X138861904Y-140080476D01*
X138957142Y-140128095D01*
X139004761Y-140175714D01*
X139052380Y-140270952D01*
X139052380Y-140556666D01*
X139004761Y-140651904D01*
X138957142Y-140699523D01*
X143083333Y-117357142D02*
X143035714Y-117404761D01*
X142892857Y-117452380D01*
X142797619Y-117452380D01*
X142654761Y-117404761D01*
X142559523Y-117309523D01*
X142511904Y-117214285D01*
X142464285Y-117023809D01*
X142464285Y-116880952D01*
X142511904Y-116690476D01*
X142559523Y-116595238D01*
X142654761Y-116500000D01*
X142797619Y-116452380D01*
X142892857Y-116452380D01*
X143035714Y-116500000D01*
X143083333Y-116547619D01*
X143940476Y-116452380D02*
X143750000Y-116452380D01*
X143654761Y-116500000D01*
X143607142Y-116547619D01*
X143511904Y-116690476D01*
X143464285Y-116880952D01*
X143464285Y-117261904D01*
X143511904Y-117357142D01*
X143559523Y-117404761D01*
X143654761Y-117452380D01*
X143845238Y-117452380D01*
X143940476Y-117404761D01*
X143988095Y-117357142D01*
X144035714Y-117261904D01*
X144035714Y-117023809D01*
X143988095Y-116928571D01*
X143940476Y-116880952D01*
X143845238Y-116833333D01*
X143654761Y-116833333D01*
X143559523Y-116880952D01*
X143511904Y-116928571D01*
X143464285Y-117023809D01*
X144083333Y-129107142D02*
X144035714Y-129154761D01*
X143892857Y-129202380D01*
X143797619Y-129202380D01*
X143654761Y-129154761D01*
X143559523Y-129059523D01*
X143511904Y-128964285D01*
X143464285Y-128773809D01*
X143464285Y-128630952D01*
X143511904Y-128440476D01*
X143559523Y-128345238D01*
X143654761Y-128250000D01*
X143797619Y-128202380D01*
X143892857Y-128202380D01*
X144035714Y-128250000D01*
X144083333Y-128297619D01*
X144988095Y-128202380D02*
X144511904Y-128202380D01*
X144464285Y-128678571D01*
X144511904Y-128630952D01*
X144607142Y-128583333D01*
X144845238Y-128583333D01*
X144940476Y-128630952D01*
X144988095Y-128678571D01*
X145035714Y-128773809D01*
X145035714Y-129011904D01*
X144988095Y-129107142D01*
X144940476Y-129154761D01*
X144845238Y-129202380D01*
X144607142Y-129202380D01*
X144511904Y-129154761D01*
X144464285Y-129107142D01*
X140895833Y-135607142D02*
X140848214Y-135654761D01*
X140705357Y-135702380D01*
X140610119Y-135702380D01*
X140467261Y-135654761D01*
X140372023Y-135559523D01*
X140324404Y-135464285D01*
X140276785Y-135273809D01*
X140276785Y-135130952D01*
X140324404Y-134940476D01*
X140372023Y-134845238D01*
X140467261Y-134750000D01*
X140610119Y-134702380D01*
X140705357Y-134702380D01*
X140848214Y-134750000D01*
X140895833Y-134797619D01*
X141752976Y-135035714D02*
X141752976Y-135702380D01*
X141514880Y-134654761D02*
X141276785Y-135369047D01*
X141895833Y-135369047D01*
X147770833Y-135707142D02*
X147723214Y-135754761D01*
X147580357Y-135802380D01*
X147485119Y-135802380D01*
X147342261Y-135754761D01*
X147247023Y-135659523D01*
X147199404Y-135564285D01*
X147151785Y-135373809D01*
X147151785Y-135230952D01*
X147199404Y-135040476D01*
X147247023Y-134945238D01*
X147342261Y-134850000D01*
X147485119Y-134802380D01*
X147580357Y-134802380D01*
X147723214Y-134850000D01*
X147770833Y-134897619D01*
X148104166Y-134802380D02*
X148723214Y-134802380D01*
X148389880Y-135183333D01*
X148532738Y-135183333D01*
X148627976Y-135230952D01*
X148675595Y-135278571D01*
X148723214Y-135373809D01*
X148723214Y-135611904D01*
X148675595Y-135707142D01*
X148627976Y-135754761D01*
X148532738Y-135802380D01*
X148247023Y-135802380D01*
X148151785Y-135754761D01*
X148104166Y-135707142D01*
X140895833Y-147007142D02*
X140848214Y-147054761D01*
X140705357Y-147102380D01*
X140610119Y-147102380D01*
X140467261Y-147054761D01*
X140372023Y-146959523D01*
X140324404Y-146864285D01*
X140276785Y-146673809D01*
X140276785Y-146530952D01*
X140324404Y-146340476D01*
X140372023Y-146245238D01*
X140467261Y-146150000D01*
X140610119Y-146102380D01*
X140705357Y-146102380D01*
X140848214Y-146150000D01*
X140895833Y-146197619D01*
X141276785Y-146197619D02*
X141324404Y-146150000D01*
X141419642Y-146102380D01*
X141657738Y-146102380D01*
X141752976Y-146150000D01*
X141800595Y-146197619D01*
X141848214Y-146292857D01*
X141848214Y-146388095D01*
X141800595Y-146530952D01*
X141229166Y-147102380D01*
X141848214Y-147102380D01*
X147770833Y-147007142D02*
X147723214Y-147054761D01*
X147580357Y-147102380D01*
X147485119Y-147102380D01*
X147342261Y-147054761D01*
X147247023Y-146959523D01*
X147199404Y-146864285D01*
X147151785Y-146673809D01*
X147151785Y-146530952D01*
X147199404Y-146340476D01*
X147247023Y-146245238D01*
X147342261Y-146150000D01*
X147485119Y-146102380D01*
X147580357Y-146102380D01*
X147723214Y-146150000D01*
X147770833Y-146197619D01*
X148723214Y-147102380D02*
X148151785Y-147102380D01*
X148437500Y-147102380D02*
X148437500Y-146102380D01*
X148342261Y-146245238D01*
X148247023Y-146340476D01*
X148151785Y-146388095D01*
X104583333Y-144857142D02*
X104535714Y-144904761D01*
X104392857Y-144952380D01*
X104297619Y-144952380D01*
X104154761Y-144904761D01*
X104059523Y-144809523D01*
X104011904Y-144714285D01*
X103964285Y-144523809D01*
X103964285Y-144380952D01*
X104011904Y-144190476D01*
X104059523Y-144095238D01*
X104154761Y-144000000D01*
X104297619Y-143952380D01*
X104392857Y-143952380D01*
X104535714Y-144000000D01*
X104583333Y-144047619D01*
X105154761Y-144380952D02*
X105059523Y-144333333D01*
X105011904Y-144285714D01*
X104964285Y-144190476D01*
X104964285Y-144142857D01*
X105011904Y-144047619D01*
X105059523Y-144000000D01*
X105154761Y-143952380D01*
X105345238Y-143952380D01*
X105440476Y-144000000D01*
X105488095Y-144047619D01*
X105535714Y-144142857D01*
X105535714Y-144190476D01*
X105488095Y-144285714D01*
X105440476Y-144333333D01*
X105345238Y-144380952D01*
X105154761Y-144380952D01*
X105059523Y-144428571D01*
X105011904Y-144476190D01*
X104964285Y-144571428D01*
X104964285Y-144761904D01*
X105011904Y-144857142D01*
X105059523Y-144904761D01*
X105154761Y-144952380D01*
X105345238Y-144952380D01*
X105440476Y-144904761D01*
X105488095Y-144857142D01*
X105535714Y-144761904D01*
X105535714Y-144571428D01*
X105488095Y-144476190D01*
X105440476Y-144428571D01*
X105345238Y-144380952D01*
X152416666Y-115952380D02*
X152416666Y-116666666D01*
X152369047Y-116809523D01*
X152273809Y-116904761D01*
X152130952Y-116952380D01*
X152035714Y-116952380D01*
X152797619Y-115952380D02*
X153416666Y-115952380D01*
X153083333Y-116333333D01*
X153226190Y-116333333D01*
X153321428Y-116380952D01*
X153369047Y-116428571D01*
X153416666Y-116523809D01*
X153416666Y-116761904D01*
X153369047Y-116857142D01*
X153321428Y-116904761D01*
X153226190Y-116952380D01*
X152940476Y-116952380D01*
X152845238Y-116904761D01*
X152797619Y-116857142D01*
X103111666Y-157802380D02*
X103111666Y-158516666D01*
X103064047Y-158659523D01*
X102968809Y-158754761D01*
X102825952Y-158802380D01*
X102730714Y-158802380D01*
X104016428Y-157802380D02*
X103825952Y-157802380D01*
X103730714Y-157850000D01*
X103683095Y-157897619D01*
X103587857Y-158040476D01*
X103540238Y-158230952D01*
X103540238Y-158611904D01*
X103587857Y-158707142D01*
X103635476Y-158754761D01*
X103730714Y-158802380D01*
X103921190Y-158802380D01*
X104016428Y-158754761D01*
X104064047Y-158707142D01*
X104111666Y-158611904D01*
X104111666Y-158373809D01*
X104064047Y-158278571D01*
X104016428Y-158230952D01*
X103921190Y-158183333D01*
X103730714Y-158183333D01*
X103635476Y-158230952D01*
X103587857Y-158278571D01*
X103540238Y-158373809D01*
X99206904Y-157802380D02*
X99206904Y-158516666D01*
X99159285Y-158659523D01*
X99064047Y-158754761D01*
X98921190Y-158802380D01*
X98825952Y-158802380D01*
X100206904Y-158802380D02*
X99635476Y-158802380D01*
X99921190Y-158802380D02*
X99921190Y-157802380D01*
X99825952Y-157945238D01*
X99730714Y-158040476D01*
X99635476Y-158088095D01*
X100968809Y-158278571D02*
X101111666Y-158326190D01*
X101159285Y-158373809D01*
X101206904Y-158469047D01*
X101206904Y-158611904D01*
X101159285Y-158707142D01*
X101111666Y-158754761D01*
X101016428Y-158802380D01*
X100635476Y-158802380D01*
X100635476Y-157802380D01*
X100968809Y-157802380D01*
X101064047Y-157850000D01*
X101111666Y-157897619D01*
X101159285Y-157992857D01*
X101159285Y-158088095D01*
X101111666Y-158183333D01*
X101064047Y-158230952D01*
X100968809Y-158278571D01*
X100635476Y-158278571D01*
X102159285Y-158802380D02*
X101587857Y-158802380D01*
X101873571Y-158802380D02*
X101873571Y-157802380D01*
X101778333Y-157945238D01*
X101683095Y-158040476D01*
X101587857Y-158088095D01*
X102540238Y-157897619D02*
X102587857Y-157850000D01*
X102683095Y-157802380D01*
X102921190Y-157802380D01*
X103016428Y-157850000D01*
X103064047Y-157897619D01*
X103111666Y-157992857D01*
X103111666Y-158088095D01*
X103064047Y-158230952D01*
X102492619Y-158802380D01*
X103111666Y-158802380D01*
X104064047Y-158802380D02*
X103492619Y-158802380D01*
X103778333Y-158802380D02*
X103778333Y-157802380D01*
X103683095Y-157945238D01*
X103587857Y-158040476D01*
X103492619Y-158088095D01*
X105016428Y-158802380D02*
X104445000Y-158802380D01*
X104730714Y-158802380D02*
X104730714Y-157802380D01*
X104635476Y-157945238D01*
X104540238Y-158040476D01*
X104445000Y-158088095D01*
X106016428Y-158707142D02*
X105968809Y-158754761D01*
X105825952Y-158802380D01*
X105730714Y-158802380D01*
X105587857Y-158754761D01*
X105492619Y-158659523D01*
X105445000Y-158564285D01*
X105397380Y-158373809D01*
X105397380Y-158230952D01*
X105445000Y-158040476D01*
X105492619Y-157945238D01*
X105587857Y-157850000D01*
X105730714Y-157802380D01*
X105825952Y-157802380D01*
X105968809Y-157850000D01*
X106016428Y-157897619D01*
X107016428Y-158707142D02*
X106968809Y-158754761D01*
X106825952Y-158802380D01*
X106730714Y-158802380D01*
X106587857Y-158754761D01*
X106492619Y-158659523D01*
X106445000Y-158564285D01*
X106397380Y-158373809D01*
X106397380Y-158230952D01*
X106445000Y-158040476D01*
X106492619Y-157945238D01*
X106587857Y-157850000D01*
X106730714Y-157802380D01*
X106825952Y-157802380D01*
X106968809Y-157850000D01*
X107016428Y-157897619D01*
X107445000Y-158802380D02*
X107445000Y-157802380D01*
X107683095Y-157802380D01*
X107825952Y-157850000D01*
X107921190Y-157945238D01*
X107968809Y-158040476D01*
X108016428Y-158230952D01*
X108016428Y-158373809D01*
X107968809Y-158564285D01*
X107921190Y-158659523D01*
X107825952Y-158754761D01*
X107683095Y-158802380D01*
X107445000Y-158802380D01*
X99635000Y-155242390D02*
X99635000Y-155480486D01*
X99396904Y-155385248D02*
X99635000Y-155480486D01*
X99873095Y-155385248D01*
X99492142Y-155670962D02*
X99635000Y-155480486D01*
X99777857Y-155670962D01*
X117392380Y-153333333D02*
X118106666Y-153333333D01*
X118249523Y-153380952D01*
X118344761Y-153476190D01*
X118392380Y-153619047D01*
X118392380Y-153714285D01*
X117392380Y-152380952D02*
X117392380Y-152857142D01*
X117868571Y-152904761D01*
X117820952Y-152857142D01*
X117773333Y-152761904D01*
X117773333Y-152523809D01*
X117820952Y-152428571D01*
X117868571Y-152380952D01*
X117963809Y-152333333D01*
X118201904Y-152333333D01*
X118297142Y-152380952D01*
X118344761Y-152428571D01*
X118392380Y-152523809D01*
X118392380Y-152761904D01*
X118344761Y-152857142D01*
X118297142Y-152904761D01*
M02*
