G04 #@! TF.GenerationSoftware,KiCad,Pcbnew,(5.1.6-0-10_14)*
G04 #@! TF.CreationDate,2020-11-05T10:51:19+09:00*
G04 #@! TF.ProjectId,teabiscuits_compute,74656162-6973-4637-9569-74735f636f6d,rev?*
G04 #@! TF.SameCoordinates,Original*
G04 #@! TF.FileFunction,Legend,Bot*
G04 #@! TF.FilePolarity,Positive*
%FSLAX46Y46*%
G04 Gerber Fmt 4.6, Leading zero omitted, Abs format (unit mm)*
G04 Created by KiCad (PCBNEW (5.1.6-0-10_14)) date 2020-11-05 10:51:19*
%MOMM*%
%LPD*%
G01*
G04 APERTURE LIST*
%ADD10C,0.120000*%
%ADD11C,0.152400*%
%ADD12C,0.150000*%
G04 APERTURE END LIST*
D10*
X151200000Y-106310000D02*
X138380000Y-106310000D01*
X138380000Y-106310000D02*
X138380000Y-103650000D01*
X138380000Y-103650000D02*
X151200000Y-103650000D01*
X151200000Y-103650000D02*
X151200000Y-106310000D01*
X150250000Y-103650000D02*
X150250000Y-97650000D01*
X150250000Y-97650000D02*
X149490000Y-97650000D01*
X149490000Y-97650000D02*
X149490000Y-103650000D01*
X150190000Y-103650000D02*
X150190000Y-97650000D01*
X150070000Y-103650000D02*
X150070000Y-97650000D01*
X149950000Y-103650000D02*
X149950000Y-97650000D01*
X149830000Y-103650000D02*
X149830000Y-97650000D01*
X149710000Y-103650000D02*
X149710000Y-97650000D01*
X149590000Y-103650000D02*
X149590000Y-97650000D01*
X150250000Y-106707071D02*
X150250000Y-106310000D01*
X149490000Y-106707071D02*
X149490000Y-106310000D01*
X150250000Y-109180000D02*
X150250000Y-108792929D01*
X149490000Y-109180000D02*
X149490000Y-108792929D01*
X148600000Y-106310000D02*
X148600000Y-103650000D01*
X147710000Y-103650000D02*
X147710000Y-97650000D01*
X147710000Y-97650000D02*
X146950000Y-97650000D01*
X146950000Y-97650000D02*
X146950000Y-103650000D01*
X147710000Y-106707071D02*
X147710000Y-106310000D01*
X146950000Y-106707071D02*
X146950000Y-106310000D01*
X147710000Y-109247071D02*
X147710000Y-108792929D01*
X146950000Y-109247071D02*
X146950000Y-108792929D01*
X146060000Y-106310000D02*
X146060000Y-103650000D01*
X145170000Y-103650000D02*
X145170000Y-97650000D01*
X145170000Y-97650000D02*
X144410000Y-97650000D01*
X144410000Y-97650000D02*
X144410000Y-103650000D01*
X145170000Y-106707071D02*
X145170000Y-106310000D01*
X144410000Y-106707071D02*
X144410000Y-106310000D01*
X145170000Y-109247071D02*
X145170000Y-108792929D01*
X144410000Y-109247071D02*
X144410000Y-108792929D01*
X143520000Y-106310000D02*
X143520000Y-103650000D01*
X142630000Y-103650000D02*
X142630000Y-97650000D01*
X142630000Y-97650000D02*
X141870000Y-97650000D01*
X141870000Y-97650000D02*
X141870000Y-103650000D01*
X142630000Y-106707071D02*
X142630000Y-106310000D01*
X141870000Y-106707071D02*
X141870000Y-106310000D01*
X142630000Y-109247071D02*
X142630000Y-108792929D01*
X141870000Y-109247071D02*
X141870000Y-108792929D01*
X140980000Y-106310000D02*
X140980000Y-103650000D01*
X140090000Y-103650000D02*
X140090000Y-97650000D01*
X140090000Y-97650000D02*
X139330000Y-97650000D01*
X139330000Y-97650000D02*
X139330000Y-103650000D01*
X140090000Y-106707071D02*
X140090000Y-106310000D01*
X139330000Y-106707071D02*
X139330000Y-106310000D01*
X140090000Y-109247071D02*
X140090000Y-108792929D01*
X139330000Y-109247071D02*
X139330000Y-108792929D01*
X149870000Y-111560000D02*
X151140000Y-111560000D01*
X151140000Y-111560000D02*
X151140000Y-110290000D01*
X110830000Y-106270000D02*
X98010000Y-106270000D01*
X98010000Y-106270000D02*
X98010000Y-103610000D01*
X98010000Y-103610000D02*
X110830000Y-103610000D01*
X110830000Y-103610000D02*
X110830000Y-106270000D01*
X109880000Y-103610000D02*
X109880000Y-97610000D01*
X109880000Y-97610000D02*
X109120000Y-97610000D01*
X109120000Y-97610000D02*
X109120000Y-103610000D01*
X109820000Y-103610000D02*
X109820000Y-97610000D01*
X109700000Y-103610000D02*
X109700000Y-97610000D01*
X109580000Y-103610000D02*
X109580000Y-97610000D01*
X109460000Y-103610000D02*
X109460000Y-97610000D01*
X109340000Y-103610000D02*
X109340000Y-97610000D01*
X109220000Y-103610000D02*
X109220000Y-97610000D01*
X109880000Y-106667071D02*
X109880000Y-106270000D01*
X109120000Y-106667071D02*
X109120000Y-106270000D01*
X109880000Y-109140000D02*
X109880000Y-108752929D01*
X109120000Y-109140000D02*
X109120000Y-108752929D01*
X108230000Y-106270000D02*
X108230000Y-103610000D01*
X107340000Y-103610000D02*
X107340000Y-97610000D01*
X107340000Y-97610000D02*
X106580000Y-97610000D01*
X106580000Y-97610000D02*
X106580000Y-103610000D01*
X107340000Y-106667071D02*
X107340000Y-106270000D01*
X106580000Y-106667071D02*
X106580000Y-106270000D01*
X107340000Y-109207071D02*
X107340000Y-108752929D01*
X106580000Y-109207071D02*
X106580000Y-108752929D01*
X105690000Y-106270000D02*
X105690000Y-103610000D01*
X104800000Y-103610000D02*
X104800000Y-97610000D01*
X104800000Y-97610000D02*
X104040000Y-97610000D01*
X104040000Y-97610000D02*
X104040000Y-103610000D01*
X104800000Y-106667071D02*
X104800000Y-106270000D01*
X104040000Y-106667071D02*
X104040000Y-106270000D01*
X104800000Y-109207071D02*
X104800000Y-108752929D01*
X104040000Y-109207071D02*
X104040000Y-108752929D01*
X103150000Y-106270000D02*
X103150000Y-103610000D01*
X102260000Y-103610000D02*
X102260000Y-97610000D01*
X102260000Y-97610000D02*
X101500000Y-97610000D01*
X101500000Y-97610000D02*
X101500000Y-103610000D01*
X102260000Y-106667071D02*
X102260000Y-106270000D01*
X101500000Y-106667071D02*
X101500000Y-106270000D01*
X102260000Y-109207071D02*
X102260000Y-108752929D01*
X101500000Y-109207071D02*
X101500000Y-108752929D01*
X100610000Y-106270000D02*
X100610000Y-103610000D01*
X99720000Y-103610000D02*
X99720000Y-97610000D01*
X99720000Y-97610000D02*
X98960000Y-97610000D01*
X98960000Y-97610000D02*
X98960000Y-103610000D01*
X99720000Y-106667071D02*
X99720000Y-106270000D01*
X98960000Y-106667071D02*
X98960000Y-106270000D01*
X99720000Y-109207071D02*
X99720000Y-108752929D01*
X98960000Y-109207071D02*
X98960000Y-108752929D01*
X109500000Y-111520000D02*
X110770000Y-111520000D01*
X110770000Y-111520000D02*
X110770000Y-110250000D01*
D11*
X93793000Y-155810000D02*
G75*
G03*
X93793000Y-155810000I-381000J0D01*
G01*
D12*
X151952380Y-107166666D02*
X152666666Y-107166666D01*
X152809523Y-107119047D01*
X152904761Y-107023809D01*
X152952380Y-106880952D01*
X152952380Y-106785714D01*
X152285714Y-108071428D02*
X152952380Y-108071428D01*
X151904761Y-107833333D02*
X152619047Y-107595238D01*
X152619047Y-108214285D01*
X111702380Y-107416666D02*
X112416666Y-107416666D01*
X112559523Y-107369047D01*
X112654761Y-107273809D01*
X112702380Y-107130952D01*
X112702380Y-107035714D01*
X111797619Y-107845238D02*
X111750000Y-107892857D01*
X111702380Y-107988095D01*
X111702380Y-108226190D01*
X111750000Y-108321428D01*
X111797619Y-108369047D01*
X111892857Y-108416666D01*
X111988095Y-108416666D01*
X112130952Y-108369047D01*
X112702380Y-107797619D01*
X112702380Y-108416666D01*
M02*
