G04 #@! TF.GenerationSoftware,KiCad,Pcbnew,(5.1.6-0-10_14)*
G04 #@! TF.CreationDate,2020-11-05T10:51:19+09:00*
G04 #@! TF.ProjectId,teabiscuits_compute,74656162-6973-4637-9569-74735f636f6d,rev?*
G04 #@! TF.SameCoordinates,Original*
G04 #@! TF.FileFunction,Copper,L1,Top*
G04 #@! TF.FilePolarity,Positive*
%FSLAX46Y46*%
G04 Gerber Fmt 4.6, Leading zero omitted, Abs format (unit mm)*
G04 Created by KiCad (PCBNEW (5.1.6-0-10_14)) date 2020-11-05 10:51:19*
%MOMM*%
%LPD*%
G01*
G04 APERTURE LIST*
G04 #@! TA.AperFunction,ComponentPad*
%ADD10C,1.524000*%
G04 #@! TD*
G04 #@! TA.AperFunction,SMDPad,CuDef*
%ADD11R,0.650000X1.220000*%
G04 #@! TD*
G04 #@! TA.AperFunction,ComponentPad*
%ADD12C,1.500000*%
G04 #@! TD*
G04 #@! TA.AperFunction,ComponentPad*
%ADD13R,1.500000X1.500000*%
G04 #@! TD*
G04 #@! TA.AperFunction,ComponentPad*
%ADD14O,1.700000X1.700000*%
G04 #@! TD*
G04 #@! TA.AperFunction,ComponentPad*
%ADD15R,1.700000X1.700000*%
G04 #@! TD*
G04 #@! TA.AperFunction,ComponentPad*
%ADD16C,1.600000*%
G04 #@! TD*
G04 #@! TA.AperFunction,ComponentPad*
%ADD17O,1.200000X1.200000*%
G04 #@! TD*
G04 #@! TA.AperFunction,ComponentPad*
%ADD18C,1.397000*%
G04 #@! TD*
G04 #@! TA.AperFunction,ComponentPad*
%ADD19C,1.549400*%
G04 #@! TD*
G04 #@! TA.AperFunction,ComponentPad*
%ADD20C,3.759200*%
G04 #@! TD*
G04 #@! TA.AperFunction,ComponentPad*
%ADD21C,2.108200*%
G04 #@! TD*
G04 #@! TA.AperFunction,ComponentPad*
%ADD22R,1.350000X1.350000*%
G04 #@! TD*
G04 #@! TA.AperFunction,ComponentPad*
%ADD23O,1.350000X1.350000*%
G04 #@! TD*
G04 #@! TA.AperFunction,ViaPad*
%ADD24C,2.200000*%
G04 #@! TD*
G04 #@! TA.AperFunction,ViaPad*
%ADD25C,0.800000*%
G04 #@! TD*
G04 #@! TA.AperFunction,Conductor*
%ADD26C,0.500000*%
G04 #@! TD*
G04 #@! TA.AperFunction,Conductor*
%ADD27C,0.250000*%
G04 #@! TD*
G04 #@! TA.AperFunction,Conductor*
%ADD28C,0.200000*%
G04 #@! TD*
G04 #@! TA.AperFunction,Conductor*
%ADD29C,0.254000*%
G04 #@! TD*
G04 APERTURE END LIST*
D10*
X132240000Y-166870000D03*
X132240000Y-164330000D03*
X132240000Y-161790000D03*
X132240000Y-159250000D03*
X132240000Y-156710000D03*
X132240000Y-154170000D03*
X132240000Y-151630000D03*
X132240000Y-149090000D03*
X132240000Y-146550000D03*
X132240000Y-144010000D03*
X132240000Y-141470000D03*
X132240000Y-138930000D03*
X132240000Y-136390000D03*
X132240000Y-133850000D03*
X132240000Y-131310000D03*
X132240000Y-128770000D03*
X132240000Y-126230000D03*
X132240000Y-123690000D03*
X132240000Y-121150000D03*
X132240000Y-118610000D03*
X132240000Y-116070000D03*
X132240000Y-113530000D03*
X132240000Y-110990000D03*
X117000000Y-128770000D03*
X117000000Y-146550000D03*
X117000000Y-166870000D03*
X117000000Y-141470000D03*
X117000000Y-121150000D03*
X117000000Y-133850000D03*
X117000000Y-110990000D03*
X117000000Y-144010000D03*
X117000000Y-116070000D03*
X117000000Y-118610000D03*
X117000000Y-126230000D03*
X117000000Y-156710000D03*
X117000000Y-149090000D03*
X117000000Y-159250000D03*
X117000000Y-138930000D03*
X117000000Y-164330000D03*
X117000000Y-123690000D03*
X117000000Y-136390000D03*
X117000000Y-131310000D03*
X117000000Y-113530000D03*
X117000000Y-161790000D03*
D11*
X147000000Y-139490000D03*
X148900000Y-139490000D03*
X148900000Y-142110000D03*
X147950000Y-142110000D03*
X147000000Y-142110000D03*
D12*
X150750000Y-151550000D03*
X150750000Y-154090000D03*
X150750000Y-156630000D03*
X150750000Y-161710000D03*
D13*
X150750000Y-164250000D03*
G04 #@! TA.AperFunction,SMDPad,CuDef*
G36*
G01*
X138880000Y-121225000D02*
X138580000Y-121225000D01*
G75*
G02*
X138430000Y-121075000I0J150000D01*
G01*
X138430000Y-119425000D01*
G75*
G02*
X138580000Y-119275000I150000J0D01*
G01*
X138880000Y-119275000D01*
G75*
G02*
X139030000Y-119425000I0J-150000D01*
G01*
X139030000Y-121075000D01*
G75*
G02*
X138880000Y-121225000I-150000J0D01*
G01*
G37*
G04 #@! TD.AperFunction*
G04 #@! TA.AperFunction,SMDPad,CuDef*
G36*
G01*
X140150000Y-121225000D02*
X139850000Y-121225000D01*
G75*
G02*
X139700000Y-121075000I0J150000D01*
G01*
X139700000Y-119425000D01*
G75*
G02*
X139850000Y-119275000I150000J0D01*
G01*
X140150000Y-119275000D01*
G75*
G02*
X140300000Y-119425000I0J-150000D01*
G01*
X140300000Y-121075000D01*
G75*
G02*
X140150000Y-121225000I-150000J0D01*
G01*
G37*
G04 #@! TD.AperFunction*
G04 #@! TA.AperFunction,SMDPad,CuDef*
G36*
G01*
X141420000Y-121225000D02*
X141120000Y-121225000D01*
G75*
G02*
X140970000Y-121075000I0J150000D01*
G01*
X140970000Y-119425000D01*
G75*
G02*
X141120000Y-119275000I150000J0D01*
G01*
X141420000Y-119275000D01*
G75*
G02*
X141570000Y-119425000I0J-150000D01*
G01*
X141570000Y-121075000D01*
G75*
G02*
X141420000Y-121225000I-150000J0D01*
G01*
G37*
G04 #@! TD.AperFunction*
G04 #@! TA.AperFunction,SMDPad,CuDef*
G36*
G01*
X142690000Y-121225000D02*
X142390000Y-121225000D01*
G75*
G02*
X142240000Y-121075000I0J150000D01*
G01*
X142240000Y-119425000D01*
G75*
G02*
X142390000Y-119275000I150000J0D01*
G01*
X142690000Y-119275000D01*
G75*
G02*
X142840000Y-119425000I0J-150000D01*
G01*
X142840000Y-121075000D01*
G75*
G02*
X142690000Y-121225000I-150000J0D01*
G01*
G37*
G04 #@! TD.AperFunction*
G04 #@! TA.AperFunction,SMDPad,CuDef*
G36*
G01*
X142690000Y-126175000D02*
X142390000Y-126175000D01*
G75*
G02*
X142240000Y-126025000I0J150000D01*
G01*
X142240000Y-124375000D01*
G75*
G02*
X142390000Y-124225000I150000J0D01*
G01*
X142690000Y-124225000D01*
G75*
G02*
X142840000Y-124375000I0J-150000D01*
G01*
X142840000Y-126025000D01*
G75*
G02*
X142690000Y-126175000I-150000J0D01*
G01*
G37*
G04 #@! TD.AperFunction*
G04 #@! TA.AperFunction,SMDPad,CuDef*
G36*
G01*
X141420000Y-126175000D02*
X141120000Y-126175000D01*
G75*
G02*
X140970000Y-126025000I0J150000D01*
G01*
X140970000Y-124375000D01*
G75*
G02*
X141120000Y-124225000I150000J0D01*
G01*
X141420000Y-124225000D01*
G75*
G02*
X141570000Y-124375000I0J-150000D01*
G01*
X141570000Y-126025000D01*
G75*
G02*
X141420000Y-126175000I-150000J0D01*
G01*
G37*
G04 #@! TD.AperFunction*
G04 #@! TA.AperFunction,SMDPad,CuDef*
G36*
G01*
X140150000Y-126175000D02*
X139850000Y-126175000D01*
G75*
G02*
X139700000Y-126025000I0J150000D01*
G01*
X139700000Y-124375000D01*
G75*
G02*
X139850000Y-124225000I150000J0D01*
G01*
X140150000Y-124225000D01*
G75*
G02*
X140300000Y-124375000I0J-150000D01*
G01*
X140300000Y-126025000D01*
G75*
G02*
X140150000Y-126175000I-150000J0D01*
G01*
G37*
G04 #@! TD.AperFunction*
G04 #@! TA.AperFunction,SMDPad,CuDef*
G36*
G01*
X138880000Y-126175000D02*
X138580000Y-126175000D01*
G75*
G02*
X138430000Y-126025000I0J150000D01*
G01*
X138430000Y-124375000D01*
G75*
G02*
X138580000Y-124225000I150000J0D01*
G01*
X138880000Y-124225000D01*
G75*
G02*
X139030000Y-124375000I0J-150000D01*
G01*
X139030000Y-126025000D01*
G75*
G02*
X138880000Y-126175000I-150000J0D01*
G01*
G37*
G04 #@! TD.AperFunction*
D11*
X140100000Y-139580000D03*
X142000000Y-139580000D03*
X142000000Y-142200000D03*
X141050000Y-142200000D03*
X140100000Y-142200000D03*
D14*
X139710000Y-107750000D03*
X139710000Y-110290000D03*
X142250000Y-107750000D03*
X142250000Y-110290000D03*
X144790000Y-107750000D03*
X144790000Y-110290000D03*
X147330000Y-107750000D03*
X147330000Y-110290000D03*
X149870000Y-107750000D03*
D15*
X149870000Y-110290000D03*
D14*
X99340000Y-107710000D03*
X99340000Y-110250000D03*
X101880000Y-107710000D03*
X101880000Y-110250000D03*
X104420000Y-107710000D03*
X104420000Y-110250000D03*
X106960000Y-107710000D03*
X106960000Y-110250000D03*
X109500000Y-107710000D03*
D15*
X109500000Y-110250000D03*
G04 #@! TA.AperFunction,SMDPad,CuDef*
G36*
G01*
X139862500Y-116543750D02*
X139862500Y-117456250D01*
G75*
G02*
X139618750Y-117700000I-243750J0D01*
G01*
X139131250Y-117700000D01*
G75*
G02*
X138887500Y-117456250I0J243750D01*
G01*
X138887500Y-116543750D01*
G75*
G02*
X139131250Y-116300000I243750J0D01*
G01*
X139618750Y-116300000D01*
G75*
G02*
X139862500Y-116543750I0J-243750D01*
G01*
G37*
G04 #@! TD.AperFunction*
G04 #@! TA.AperFunction,SMDPad,CuDef*
G36*
G01*
X141737500Y-116543750D02*
X141737500Y-117456250D01*
G75*
G02*
X141493750Y-117700000I-243750J0D01*
G01*
X141006250Y-117700000D01*
G75*
G02*
X140762500Y-117456250I0J243750D01*
G01*
X140762500Y-116543750D01*
G75*
G02*
X141006250Y-116300000I243750J0D01*
G01*
X141493750Y-116300000D01*
G75*
G02*
X141737500Y-116543750I0J-243750D01*
G01*
G37*
G04 #@! TD.AperFunction*
G04 #@! TA.AperFunction,SMDPad,CuDef*
G36*
G01*
X141712500Y-129056250D02*
X141712500Y-128143750D01*
G75*
G02*
X141956250Y-127900000I243750J0D01*
G01*
X142443750Y-127900000D01*
G75*
G02*
X142687500Y-128143750I0J-243750D01*
G01*
X142687500Y-129056250D01*
G75*
G02*
X142443750Y-129300000I-243750J0D01*
G01*
X141956250Y-129300000D01*
G75*
G02*
X141712500Y-129056250I0J243750D01*
G01*
G37*
G04 #@! TD.AperFunction*
G04 #@! TA.AperFunction,SMDPad,CuDef*
G36*
G01*
X139837500Y-129056250D02*
X139837500Y-128143750D01*
G75*
G02*
X140081250Y-127900000I243750J0D01*
G01*
X140568750Y-127900000D01*
G75*
G02*
X140812500Y-128143750I0J-243750D01*
G01*
X140812500Y-129056250D01*
G75*
G02*
X140568750Y-129300000I-243750J0D01*
G01*
X140081250Y-129300000D01*
G75*
G02*
X139837500Y-129056250I0J243750D01*
G01*
G37*
G04 #@! TD.AperFunction*
G04 #@! TA.AperFunction,SMDPad,CuDef*
G36*
G01*
X140612500Y-136543750D02*
X140612500Y-137456250D01*
G75*
G02*
X140368750Y-137700000I-243750J0D01*
G01*
X139881250Y-137700000D01*
G75*
G02*
X139637500Y-137456250I0J243750D01*
G01*
X139637500Y-136543750D01*
G75*
G02*
X139881250Y-136300000I243750J0D01*
G01*
X140368750Y-136300000D01*
G75*
G02*
X140612500Y-136543750I0J-243750D01*
G01*
G37*
G04 #@! TD.AperFunction*
G04 #@! TA.AperFunction,SMDPad,CuDef*
G36*
G01*
X142487500Y-136543750D02*
X142487500Y-137456250D01*
G75*
G02*
X142243750Y-137700000I-243750J0D01*
G01*
X141756250Y-137700000D01*
G75*
G02*
X141512500Y-137456250I0J243750D01*
G01*
X141512500Y-136543750D01*
G75*
G02*
X141756250Y-136300000I243750J0D01*
G01*
X142243750Y-136300000D01*
G75*
G02*
X142487500Y-136543750I0J-243750D01*
G01*
G37*
G04 #@! TD.AperFunction*
G04 #@! TA.AperFunction,SMDPad,CuDef*
G36*
G01*
X148387500Y-137456250D02*
X148387500Y-136543750D01*
G75*
G02*
X148631250Y-136300000I243750J0D01*
G01*
X149118750Y-136300000D01*
G75*
G02*
X149362500Y-136543750I0J-243750D01*
G01*
X149362500Y-137456250D01*
G75*
G02*
X149118750Y-137700000I-243750J0D01*
G01*
X148631250Y-137700000D01*
G75*
G02*
X148387500Y-137456250I0J243750D01*
G01*
G37*
G04 #@! TD.AperFunction*
G04 #@! TA.AperFunction,SMDPad,CuDef*
G36*
G01*
X146512500Y-137456250D02*
X146512500Y-136543750D01*
G75*
G02*
X146756250Y-136300000I243750J0D01*
G01*
X147243750Y-136300000D01*
G75*
G02*
X147487500Y-136543750I0J-243750D01*
G01*
X147487500Y-137456250D01*
G75*
G02*
X147243750Y-137700000I-243750J0D01*
G01*
X146756250Y-137700000D01*
G75*
G02*
X146512500Y-137456250I0J243750D01*
G01*
G37*
G04 #@! TD.AperFunction*
G04 #@! TA.AperFunction,SMDPad,CuDef*
G36*
G01*
X140612500Y-144543750D02*
X140612500Y-145456250D01*
G75*
G02*
X140368750Y-145700000I-243750J0D01*
G01*
X139881250Y-145700000D01*
G75*
G02*
X139637500Y-145456250I0J243750D01*
G01*
X139637500Y-144543750D01*
G75*
G02*
X139881250Y-144300000I243750J0D01*
G01*
X140368750Y-144300000D01*
G75*
G02*
X140612500Y-144543750I0J-243750D01*
G01*
G37*
G04 #@! TD.AperFunction*
G04 #@! TA.AperFunction,SMDPad,CuDef*
G36*
G01*
X142487500Y-144543750D02*
X142487500Y-145456250D01*
G75*
G02*
X142243750Y-145700000I-243750J0D01*
G01*
X141756250Y-145700000D01*
G75*
G02*
X141512500Y-145456250I0J243750D01*
G01*
X141512500Y-144543750D01*
G75*
G02*
X141756250Y-144300000I243750J0D01*
G01*
X142243750Y-144300000D01*
G75*
G02*
X142487500Y-144543750I0J-243750D01*
G01*
G37*
G04 #@! TD.AperFunction*
G04 #@! TA.AperFunction,SMDPad,CuDef*
G36*
G01*
X147487500Y-144543750D02*
X147487500Y-145456250D01*
G75*
G02*
X147243750Y-145700000I-243750J0D01*
G01*
X146756250Y-145700000D01*
G75*
G02*
X146512500Y-145456250I0J243750D01*
G01*
X146512500Y-144543750D01*
G75*
G02*
X146756250Y-144300000I243750J0D01*
G01*
X147243750Y-144300000D01*
G75*
G02*
X147487500Y-144543750I0J-243750D01*
G01*
G37*
G04 #@! TD.AperFunction*
G04 #@! TA.AperFunction,SMDPad,CuDef*
G36*
G01*
X149362500Y-144543750D02*
X149362500Y-145456250D01*
G75*
G02*
X149118750Y-145700000I-243750J0D01*
G01*
X148631250Y-145700000D01*
G75*
G02*
X148387500Y-145456250I0J243750D01*
G01*
X148387500Y-144543750D01*
G75*
G02*
X148631250Y-144300000I243750J0D01*
G01*
X149118750Y-144300000D01*
G75*
G02*
X149362500Y-144543750I0J-243750D01*
G01*
G37*
G04 #@! TD.AperFunction*
D16*
X101750000Y-144750000D03*
X99250000Y-144750000D03*
D17*
X156500000Y-121500000D03*
X155000000Y-121500000D03*
G04 #@! TA.AperFunction,ComponentPad*
G36*
G01*
X152900000Y-121923600D02*
X152900000Y-121076400D01*
G75*
G02*
X153076400Y-120900000I176400J0D01*
G01*
X153923600Y-120900000D01*
G75*
G02*
X154100000Y-121076400I0J-176400D01*
G01*
X154100000Y-121923600D01*
G75*
G02*
X153923600Y-122100000I-176400J0D01*
G01*
X153076400Y-122100000D01*
G75*
G02*
X152900000Y-121923600I0J176400D01*
G01*
G37*
G04 #@! TD.AperFunction*
D18*
X100270000Y-149460000D03*
X102810000Y-149460000D03*
X105350000Y-149460000D03*
X107890000Y-149460000D03*
X99000000Y-152000000D03*
X101540000Y-152000000D03*
X104080000Y-152000000D03*
X106620000Y-152000000D03*
D19*
X97120000Y-163450000D03*
X99660000Y-161730000D03*
X107230000Y-163430000D03*
X109770000Y-161730000D03*
D20*
X97730000Y-158370000D03*
X109160000Y-158370000D03*
D21*
X95570002Y-155320000D03*
X111319998Y-155320000D03*
D22*
X120000000Y-154000000D03*
D23*
X120000000Y-152000000D03*
X122000000Y-154000000D03*
X122000000Y-152000000D03*
X124000000Y-154000000D03*
X124000000Y-152000000D03*
D24*
X156250000Y-107750000D03*
X95000000Y-107750000D03*
X156250000Y-137750000D03*
X95000000Y-137500000D03*
D25*
X147750000Y-114750000D03*
X137750000Y-114750000D03*
X136000000Y-109250000D03*
X110750000Y-113500000D03*
X112750000Y-120000000D03*
X113500000Y-117500000D03*
X113500000Y-108750000D03*
X136750000Y-111717999D03*
X135750000Y-111250000D03*
D26*
X150750000Y-161710000D02*
X135290000Y-161710000D01*
X141050000Y-142200000D02*
X141050000Y-141050000D01*
X155000000Y-121500000D02*
X155000000Y-119500000D01*
X155000000Y-119500000D02*
X151500000Y-116000000D01*
X151500000Y-116000000D02*
X150500000Y-116000000D01*
X150500000Y-116000000D02*
X147250000Y-112750000D01*
X145330000Y-112750000D02*
X144790000Y-112210000D01*
X147250000Y-112750000D02*
X145330000Y-112750000D01*
X144790000Y-112210000D02*
X144790000Y-112790000D01*
X144790000Y-110290000D02*
X144790000Y-112210000D01*
X144790000Y-111790000D02*
X147750000Y-114750000D01*
X144790000Y-110290000D02*
X144790000Y-111790000D01*
X137750000Y-110000000D02*
X137000000Y-109250000D01*
X137750000Y-114750000D02*
X137750000Y-110000000D01*
D27*
X127000000Y-117250000D02*
X128250000Y-118500000D01*
X128250000Y-118500000D02*
X128250000Y-137500000D01*
X129680000Y-138930000D02*
X132240000Y-138930000D01*
X128250000Y-137500000D02*
X129680000Y-138930000D01*
X114750000Y-117250000D02*
X114500000Y-117250000D01*
X114500000Y-117250000D02*
X110750000Y-113500000D01*
X114750000Y-117250000D02*
X127000000Y-117250000D01*
X112750000Y-120000000D02*
X112750000Y-132250000D01*
X114350000Y-133850000D02*
X117000000Y-133850000D01*
X112750000Y-132250000D02*
X114350000Y-133850000D01*
X115367001Y-114617001D02*
X127617001Y-114617001D01*
X113250000Y-112500000D02*
X115367001Y-114617001D01*
X127617001Y-114617001D02*
X129000000Y-116000000D01*
X129000000Y-116000000D02*
X129000000Y-132500000D01*
X130350000Y-133850000D02*
X132240000Y-133850000D01*
X129000000Y-132500000D02*
X130350000Y-133850000D01*
X113250000Y-112500000D02*
X108000000Y-112500000D01*
X106960000Y-111460000D02*
X106960000Y-110250000D01*
X108000000Y-112500000D02*
X106960000Y-111460000D01*
D26*
X153250000Y-121250000D02*
X153500000Y-121500000D01*
X142250000Y-110290000D02*
X142250000Y-112250000D01*
X151500000Y-121500000D02*
X153500000Y-121500000D01*
X142250000Y-112250000D02*
X151500000Y-121500000D01*
X140100000Y-139580000D02*
X142000000Y-139580000D01*
X142000000Y-137000000D02*
X142000000Y-139580000D01*
X142000000Y-137000000D02*
X142000000Y-135500000D01*
X140325000Y-133825000D02*
X140325000Y-128600000D01*
X142000000Y-135500000D02*
X140325000Y-133825000D01*
X140000000Y-128275000D02*
X140325000Y-128600000D01*
X140000000Y-125200000D02*
X140000000Y-128275000D01*
X140000000Y-125200000D02*
X140000000Y-123500000D01*
X140000000Y-123500000D02*
X140500000Y-123000000D01*
X140500000Y-123000000D02*
X153000000Y-123000000D01*
X153500000Y-122500000D02*
X153500000Y-121500000D01*
X153000000Y-123000000D02*
X153500000Y-122500000D01*
X109130000Y-117500000D02*
X113500000Y-117500000D01*
X101880000Y-110250000D02*
X109130000Y-117500000D01*
X113500000Y-108750000D02*
X133500000Y-108750000D01*
X136158001Y-110399999D02*
X136750000Y-110991998D01*
X135149999Y-110399999D02*
X136158001Y-110399999D01*
X136750000Y-110991998D02*
X136750000Y-111717999D01*
X133500000Y-108750000D02*
X135149999Y-110399999D01*
X143550001Y-106449999D02*
X142250000Y-107750000D01*
X150494001Y-106449999D02*
X143550001Y-106449999D01*
X156500000Y-112455998D02*
X150494001Y-106449999D01*
X156500000Y-121500000D02*
X156500000Y-112455998D01*
X147000000Y-139490000D02*
X147000000Y-137000000D01*
X147000000Y-137000000D02*
X147000000Y-134500000D01*
X147000000Y-134500000D02*
X148000000Y-133500000D01*
X148000000Y-133500000D02*
X155500000Y-133500000D01*
X156500000Y-132500000D02*
X156500000Y-121500000D01*
X155500000Y-133500000D02*
X156500000Y-132500000D01*
X142250000Y-107750000D02*
X140909999Y-106409999D01*
X140909999Y-106409999D02*
X102659999Y-106409999D01*
X101880000Y-107189998D02*
X101880000Y-107710000D01*
X102659999Y-106409999D02*
X101880000Y-107189998D01*
D28*
X98775000Y-149553199D02*
X99000000Y-149778199D01*
X99606690Y-147775000D02*
X98775000Y-148606690D01*
X124450000Y-150881800D02*
X124093200Y-150525000D01*
X124450000Y-151006998D02*
X124450000Y-150881800D01*
X124975001Y-151531999D02*
X124450000Y-151006998D01*
X99000000Y-149778199D02*
X99000000Y-152000000D01*
X124450000Y-152993002D02*
X124975001Y-152468001D01*
X124450000Y-153550000D02*
X124450000Y-152993002D01*
X109343200Y-147775000D02*
X99606690Y-147775000D01*
X124000000Y-154000000D02*
X124450000Y-153550000D01*
X124093200Y-150525000D02*
X112093200Y-150525000D01*
X98775000Y-148606690D02*
X98775000Y-149553199D01*
X112093200Y-150525000D02*
X109343200Y-147775000D01*
X124975001Y-152468001D02*
X124975001Y-151531999D01*
X111906800Y-150975000D02*
X109156800Y-148225000D01*
X99225000Y-148793090D02*
X99225000Y-149366801D01*
X99793090Y-148225000D02*
X99225000Y-148793090D01*
X99318199Y-149460000D02*
X100270000Y-149460000D01*
X99225000Y-149366801D02*
X99318199Y-149460000D01*
X109156800Y-148225000D02*
X99793090Y-148225000D01*
X123906800Y-150975000D02*
X111906800Y-150975000D01*
X124000000Y-152000000D02*
X124000000Y-151068200D01*
X124000000Y-151068200D02*
X123906800Y-150975000D01*
X117555590Y-153091384D02*
X117458615Y-152994409D01*
X116578287Y-155688449D02*
X116448840Y-155733744D01*
X113985650Y-156402387D02*
X113940355Y-156272940D01*
X115425000Y-151850901D02*
X115380495Y-151855915D01*
X117385650Y-152878287D02*
X117340355Y-152748840D01*
X113912665Y-152371410D02*
X113897827Y-152347794D01*
X117038223Y-151870707D02*
X117000302Y-151894534D01*
X115230014Y-152006396D02*
X115225000Y-152050901D01*
X117325000Y-152612559D02*
X117325000Y-152050901D01*
X112025000Y-153225000D02*
X108796801Y-153225000D01*
X115758615Y-155518509D02*
X115685650Y-155402387D01*
X112069504Y-153230015D02*
X112025000Y-153225000D01*
X112111776Y-153244807D02*
X112069504Y-153230015D01*
X112181366Y-153300303D02*
X112149697Y-153268634D01*
X112455590Y-154515484D02*
X112358615Y-154418509D01*
X112219985Y-153380496D02*
X112205193Y-153338224D01*
X117169504Y-151855915D02*
X117125000Y-151850901D01*
X112225000Y-154036659D02*
X112225000Y-153425000D01*
X112240355Y-154172940D02*
X112225000Y-154036659D01*
X112285650Y-154302387D02*
X112240355Y-154172940D01*
X114537440Y-156749099D02*
X114401159Y-156733744D01*
X112701159Y-154633744D02*
X112571712Y-154588449D01*
X116909644Y-155272940D02*
X116864349Y-155402387D01*
X115209644Y-156272940D02*
X115164349Y-156402387D01*
X112912559Y-154649099D02*
X112837440Y-154649099D01*
X115268633Y-151926203D02*
X115244806Y-151964124D01*
X113525000Y-154036659D02*
X113509644Y-154172940D01*
X113528122Y-152397735D02*
X113525000Y-152425450D01*
X117319985Y-152006396D02*
X117305193Y-151964124D01*
X114058615Y-156518509D02*
X113985650Y-156402387D01*
X112149697Y-153268634D02*
X112111776Y-153244807D01*
X113294409Y-154515484D02*
X113178287Y-154588449D01*
X113552172Y-152347794D02*
X113537334Y-152371410D01*
X113571893Y-152328073D02*
X113552172Y-152347794D01*
X115338223Y-151870707D02*
X115300302Y-151894534D01*
X115581366Y-151926203D02*
X115549697Y-151894534D01*
X113800451Y-152300901D02*
X113649549Y-152300901D01*
X113828165Y-152304023D02*
X113800451Y-152300901D01*
X115625000Y-152050901D02*
X115619985Y-152006396D01*
X117211776Y-151870707D02*
X117169504Y-151855915D01*
X113921877Y-152397735D02*
X113912665Y-152371410D01*
X113925000Y-152425450D02*
X113921877Y-152397735D01*
X116448840Y-155733744D02*
X116312559Y-155749099D01*
X113178287Y-154588449D02*
X113048840Y-154633744D01*
X117671712Y-153164349D02*
X117555590Y-153091384D01*
X113925000Y-156136659D02*
X113925000Y-152425450D01*
X117305193Y-151964124D02*
X117281366Y-151926203D01*
X113940355Y-156272940D02*
X113925000Y-156136659D01*
X116968633Y-151926203D02*
X116944806Y-151964124D01*
X115091384Y-156518509D02*
X114994409Y-156615484D01*
X113464349Y-154302387D02*
X113391384Y-154418509D01*
X112837440Y-154649099D02*
X112701159Y-154633744D01*
X112205193Y-153338224D02*
X112181366Y-153300303D01*
X114271712Y-156688449D02*
X114155590Y-156615484D01*
X113048840Y-154633744D02*
X112912559Y-154649099D01*
X115380495Y-151855915D02*
X115338223Y-151870707D01*
X113509644Y-154172940D02*
X113464349Y-154302387D01*
X113897827Y-152347794D02*
X113878106Y-152328073D01*
X108796801Y-153225000D02*
X107571801Y-152000000D01*
X115549697Y-151894534D02*
X115511776Y-151870707D01*
X114748840Y-156733744D02*
X114612559Y-156749099D01*
X115971712Y-155688449D02*
X115855590Y-155615484D01*
X114878287Y-156688449D02*
X114748840Y-156733744D01*
X115225000Y-156136659D02*
X115209644Y-156272940D01*
X114401159Y-156733744D02*
X114271712Y-156688449D01*
X113878106Y-152328073D02*
X113854490Y-152313235D01*
X114155590Y-156615484D02*
X114058615Y-156518509D01*
X115225000Y-152050901D02*
X115225000Y-156136659D01*
X115300302Y-151894534D02*
X115268633Y-151926203D01*
X107571801Y-152000000D02*
X106620000Y-152000000D01*
X112571712Y-154588449D02*
X112455590Y-154515484D01*
X115685650Y-155402387D02*
X115640355Y-155272940D01*
X115511776Y-151870707D02*
X115469504Y-151855915D01*
X115640355Y-155272940D02*
X115625000Y-155136659D01*
X115625000Y-155136659D02*
X115625000Y-152050901D01*
X117080495Y-151855915D02*
X117038223Y-151870707D01*
X113854490Y-152313235D02*
X113828165Y-152304023D01*
X115855590Y-155615484D02*
X115758615Y-155518509D01*
X114994409Y-156615484D02*
X114878287Y-156688449D01*
X118987499Y-154000000D02*
X118212499Y-153225000D01*
X113537334Y-152371410D02*
X113528122Y-152397735D01*
X116237440Y-155749099D02*
X116101159Y-155733744D01*
X117281366Y-151926203D02*
X117249697Y-151894534D01*
X116312559Y-155749099D02*
X116237440Y-155749099D01*
X116694409Y-155615484D02*
X116578287Y-155688449D01*
X113595509Y-152313235D02*
X113571893Y-152328073D01*
X116925000Y-155136659D02*
X116909644Y-155272940D01*
X117000302Y-151894534D02*
X116968633Y-151926203D01*
X116925000Y-152050901D02*
X116925000Y-155136659D01*
X118212499Y-153225000D02*
X117937440Y-153225000D01*
X116944806Y-151964124D02*
X116930014Y-152006396D01*
X115469504Y-151855915D02*
X115425000Y-151850901D01*
X115605193Y-151964124D02*
X115581366Y-151926203D01*
X112225000Y-153425000D02*
X112219985Y-153380496D01*
X115244806Y-151964124D02*
X115230014Y-152006396D01*
X113649549Y-152300901D02*
X113621834Y-152304023D01*
X114612559Y-156749099D02*
X114537440Y-156749099D01*
X115619985Y-152006396D02*
X115605193Y-151964124D01*
X117249697Y-151894534D02*
X117211776Y-151870707D01*
X113621834Y-152304023D02*
X113595509Y-152313235D01*
X117125000Y-151850901D02*
X117080495Y-151855915D01*
X113525000Y-152425450D02*
X113525000Y-154036659D01*
X117325000Y-152050901D02*
X117319985Y-152006396D01*
X115164349Y-156402387D02*
X115091384Y-156518509D01*
X116930014Y-152006396D02*
X116925000Y-152050901D01*
X117340355Y-152748840D02*
X117325000Y-152612559D01*
X120000000Y-154000000D02*
X118987499Y-154000000D01*
X117801159Y-153209644D02*
X117671712Y-153164349D01*
X116864349Y-155402387D02*
X116791384Y-155518509D01*
X117458615Y-152994409D02*
X117385650Y-152878287D01*
X116101159Y-155733744D02*
X115971712Y-155688449D01*
X116791384Y-155518509D02*
X116694409Y-155615484D01*
X117937440Y-153225000D02*
X117801159Y-153209644D01*
X112358615Y-154418509D02*
X112285650Y-154302387D01*
X113391384Y-154418509D02*
X113294409Y-154515484D01*
X108983199Y-152775000D02*
X107890000Y-151681801D01*
X112328287Y-152835651D02*
X112198840Y-152790356D01*
X112444409Y-152908616D02*
X112328287Y-152835651D01*
X112614349Y-153121713D02*
X112541384Y-153005591D01*
X112675000Y-153387441D02*
X112659644Y-153251160D01*
X112675000Y-153999099D02*
X112675000Y-153387441D01*
X112680014Y-154043604D02*
X112675000Y-153999099D01*
X112718633Y-154123797D02*
X112694806Y-154085876D01*
X112750302Y-154155466D02*
X112718633Y-154123797D01*
X112788223Y-154179293D02*
X112750302Y-154155466D01*
X112830495Y-154194085D02*
X112788223Y-154179293D01*
X112659644Y-153251160D02*
X112614349Y-153121713D01*
X112875000Y-154199099D02*
X112830495Y-154194085D01*
X112919504Y-154194085D02*
X112875000Y-154199099D01*
X113031366Y-154123797D02*
X112999697Y-154155466D01*
X113055193Y-154085876D02*
X113031366Y-154123797D01*
X113069985Y-154043604D02*
X113055193Y-154085876D01*
X113088572Y-152271789D02*
X113075000Y-152392250D01*
X113128610Y-152157367D02*
X113088572Y-152271789D01*
X113193105Y-152054724D02*
X113128610Y-152157367D01*
X113278823Y-151969006D02*
X113193105Y-152054724D01*
X113381466Y-151904511D02*
X113278823Y-151969006D01*
X113495888Y-151864473D02*
X113381466Y-151904511D01*
X113954111Y-151864473D02*
X113833650Y-151850901D01*
X114068533Y-151904511D02*
X113954111Y-151864473D01*
X114394806Y-156185876D02*
X114380014Y-156143604D01*
X114418633Y-156223797D02*
X114394806Y-156185876D01*
X115387440Y-151400901D02*
X115251159Y-151416256D01*
X114450302Y-156255466D02*
X114418633Y-156223797D01*
X114488223Y-156279293D02*
X114450302Y-156255466D01*
X116014349Y-151747613D02*
X115941384Y-151631491D01*
X114575000Y-156299099D02*
X114530495Y-156294085D01*
X114699697Y-156255466D02*
X114661776Y-156279293D01*
X114731366Y-156223797D02*
X114699697Y-156255466D01*
X114769985Y-156143604D02*
X114755193Y-156185876D01*
X114775000Y-156099099D02*
X114769985Y-156143604D01*
X114171176Y-151969006D02*
X114068533Y-151904511D01*
X114790355Y-151877060D02*
X114775000Y-152013341D01*
X114908615Y-151631491D02*
X114835650Y-151747613D01*
X115005590Y-151534516D02*
X114908615Y-151631491D01*
X115251159Y-151416256D02*
X115121712Y-151461551D01*
X115462559Y-151400901D02*
X115387440Y-151400901D01*
X115598840Y-151416256D02*
X115462559Y-151400901D01*
X115941384Y-151631491D02*
X115844409Y-151534516D01*
X114619504Y-156294085D02*
X114575000Y-156299099D01*
X112062559Y-152775000D02*
X108983199Y-152775000D01*
X116059644Y-151877060D02*
X116014349Y-151747613D01*
X117780014Y-152619504D02*
X117775000Y-152575000D01*
X116188223Y-155279293D02*
X116150302Y-155255466D01*
X117087440Y-151400901D02*
X116951159Y-151416256D01*
X116230495Y-155294085D02*
X116188223Y-155279293D01*
X116275000Y-155299099D02*
X116230495Y-155294085D01*
X116319504Y-155294085D02*
X116275000Y-155299099D01*
X116361776Y-155279293D02*
X116319504Y-155294085D01*
X116399697Y-155255466D02*
X116361776Y-155279293D01*
X116431366Y-155223797D02*
X116399697Y-155255466D01*
X114530495Y-156294085D02*
X114488223Y-156279293D01*
X116075000Y-152013341D02*
X116059644Y-151877060D01*
X116455193Y-155185876D02*
X116431366Y-155223797D01*
X116475000Y-152013341D02*
X116475000Y-155099099D01*
X116490355Y-151877060D02*
X116475000Y-152013341D01*
X116535650Y-151747613D02*
X116490355Y-151877060D01*
X116608615Y-151631491D02*
X116535650Y-151747613D01*
X116705590Y-151534516D02*
X116608615Y-151631491D01*
X116821712Y-151461551D02*
X116705590Y-151534516D01*
X117162559Y-151400901D02*
X117087440Y-151400901D01*
X117298840Y-151416256D02*
X117162559Y-151400901D01*
X116094806Y-155185876D02*
X116080014Y-155143604D01*
X117641384Y-151631491D02*
X117544409Y-151534516D01*
X117714349Y-151747613D02*
X117641384Y-151631491D01*
X117759644Y-151877060D02*
X117714349Y-151747613D01*
X117850302Y-152731366D02*
X117818633Y-152699697D01*
X117775000Y-152013341D02*
X117759644Y-151877060D01*
X115121712Y-151461551D02*
X115005590Y-151534516D01*
X117775000Y-152575000D02*
X117775000Y-152013341D01*
X117818633Y-152699697D02*
X117794806Y-152661776D01*
X117930495Y-152769985D02*
X117888223Y-152755193D01*
X117428287Y-151461551D02*
X117298840Y-151416256D01*
X117975000Y-152775000D02*
X117930495Y-152769985D01*
X118212499Y-152775000D02*
X117975000Y-152775000D01*
X116951159Y-151416256D02*
X116821712Y-151461551D01*
X118987499Y-152000000D02*
X118212499Y-152775000D01*
X120000000Y-152000000D02*
X118987499Y-152000000D01*
X113833650Y-151850901D02*
X113616349Y-151850901D01*
X116075000Y-155099099D02*
X116075000Y-152013341D01*
X114256894Y-152054724D02*
X114171176Y-151969006D01*
X112999697Y-154155466D02*
X112961776Y-154179293D01*
X113075000Y-153999099D02*
X113069985Y-154043604D01*
X114375000Y-152392250D02*
X114361427Y-152271789D01*
X116118633Y-155223797D02*
X116094806Y-155185876D01*
X116469985Y-155143604D02*
X116455193Y-155185876D01*
X112198840Y-152790356D02*
X112062559Y-152775000D01*
X114835650Y-151747613D02*
X114790355Y-151877060D01*
X116150302Y-155255466D02*
X116118633Y-155223797D01*
X114321389Y-152157367D02*
X114256894Y-152054724D01*
X113075000Y-152392250D02*
X113075000Y-153999099D01*
X114375000Y-156099099D02*
X114375000Y-152392250D01*
X114361427Y-152271789D02*
X114321389Y-152157367D01*
X115728287Y-151461551D02*
X115598840Y-151416256D01*
X117888223Y-152755193D02*
X117850302Y-152731366D01*
X112694806Y-154085876D02*
X112680014Y-154043604D01*
X117544409Y-151534516D02*
X117428287Y-151461551D01*
X107890000Y-151681801D02*
X107890000Y-149460000D01*
X114380014Y-156143604D02*
X114375000Y-156099099D01*
X114661776Y-156279293D02*
X114619504Y-156294085D01*
X113616349Y-151850901D02*
X113495888Y-151864473D01*
X112961776Y-154179293D02*
X112919504Y-154194085D01*
X112541384Y-153005591D02*
X112444409Y-152908616D01*
X116080014Y-155143604D02*
X116075000Y-155099099D01*
X114775000Y-152013341D02*
X114775000Y-156099099D01*
X116475000Y-155099099D02*
X116469985Y-155143604D01*
X114755193Y-156185876D02*
X114731366Y-156223797D01*
X117794806Y-152661776D02*
X117780014Y-152619504D01*
X115844409Y-151534516D02*
X115728287Y-151461551D01*
D27*
X122000000Y-156224760D02*
X117650159Y-160574601D01*
X100815399Y-160574601D02*
X99660000Y-161730000D01*
X117650159Y-160574601D02*
X100815399Y-160574601D01*
X122000000Y-154000000D02*
X122000000Y-156224760D01*
D26*
X150750000Y-156630000D02*
X152370000Y-156630000D01*
X152370000Y-156630000D02*
X153500000Y-155500000D01*
X153500000Y-155500000D02*
X153500000Y-146500000D01*
X152000000Y-145000000D02*
X148875000Y-145000000D01*
X153500000Y-146500000D02*
X152000000Y-145000000D01*
D27*
X148875000Y-142135000D02*
X148900000Y-142110000D01*
D26*
X148875000Y-145000000D02*
X148875000Y-142135000D01*
D27*
X148900000Y-142110000D02*
X147950000Y-142110000D01*
D26*
X150750000Y-151550000D02*
X143050000Y-151550000D01*
X142000000Y-150500000D02*
X142000000Y-145000000D01*
X143050000Y-151550000D02*
X142000000Y-150500000D01*
X140540000Y-143500000D02*
X140100000Y-143060000D01*
X140100000Y-143060000D02*
X140100000Y-142200000D01*
X142000000Y-143500000D02*
X140540000Y-143500000D01*
X142000000Y-145000000D02*
X142000000Y-143500000D01*
X142000000Y-143500000D02*
X142000000Y-142200000D01*
D27*
X141270000Y-117020000D02*
X141250000Y-117000000D01*
X141270000Y-120250000D02*
X141270000Y-117020000D01*
X141250000Y-117000000D02*
X141250000Y-115250000D01*
X139710000Y-113710000D02*
X139710000Y-110290000D01*
X141250000Y-115250000D02*
X139710000Y-113710000D01*
X139710000Y-110290000D02*
X136920000Y-107500000D01*
X136920000Y-107500000D02*
X113250000Y-107500000D01*
X113250000Y-107500000D02*
X112750000Y-107500000D01*
X100704999Y-108885001D02*
X99340000Y-110250000D01*
X111364999Y-108885001D02*
X100704999Y-108885001D01*
X112750000Y-107500000D02*
X111364999Y-108885001D01*
X135750000Y-111250000D02*
X134250000Y-112750000D01*
X134250000Y-162320000D02*
X132240000Y-164330000D01*
X134250000Y-112750000D02*
X134250000Y-162320000D01*
D29*
G36*
X98573080Y-106438359D02*
G01*
X98339731Y-106612412D01*
X98144822Y-106828645D01*
X97995843Y-107078748D01*
X97898519Y-107353109D01*
X98019186Y-107583000D01*
X99213000Y-107583000D01*
X99213000Y-107563000D01*
X99467000Y-107563000D01*
X99467000Y-107583000D01*
X99487000Y-107583000D01*
X99487000Y-107837000D01*
X99467000Y-107837000D01*
X99467000Y-107857000D01*
X99213000Y-107857000D01*
X99213000Y-107837000D01*
X98019186Y-107837000D01*
X97898519Y-108066891D01*
X97995843Y-108341252D01*
X98144822Y-108591355D01*
X98339731Y-108807588D01*
X98569406Y-108978900D01*
X98393368Y-109096525D01*
X98186525Y-109303368D01*
X98024010Y-109546589D01*
X97912068Y-109816842D01*
X97855000Y-110103740D01*
X97855000Y-110396260D01*
X97912068Y-110683158D01*
X98024010Y-110953411D01*
X98186525Y-111196632D01*
X98393368Y-111403475D01*
X98636589Y-111565990D01*
X98906842Y-111677932D01*
X99193740Y-111735000D01*
X99486260Y-111735000D01*
X99773158Y-111677932D01*
X100043411Y-111565990D01*
X100286632Y-111403475D01*
X100493475Y-111196632D01*
X100610000Y-111022240D01*
X100726525Y-111196632D01*
X100933368Y-111403475D01*
X101176589Y-111565990D01*
X101446842Y-111677932D01*
X101733740Y-111735000D01*
X102026260Y-111735000D01*
X102098961Y-111720539D01*
X108473470Y-118095049D01*
X108501183Y-118128817D01*
X108534951Y-118156530D01*
X108534953Y-118156532D01*
X108590977Y-118202510D01*
X108635941Y-118239411D01*
X108789687Y-118321589D01*
X108956510Y-118372195D01*
X109086523Y-118385000D01*
X109086533Y-118385000D01*
X109129999Y-118389281D01*
X109173465Y-118385000D01*
X112961546Y-118385000D01*
X113009744Y-118417205D01*
X113198102Y-118495226D01*
X113398061Y-118535000D01*
X113601939Y-118535000D01*
X113801898Y-118495226D01*
X113990256Y-118417205D01*
X114159774Y-118303937D01*
X114303937Y-118159774D01*
X114407634Y-118004580D01*
X114462667Y-118010000D01*
X114462677Y-118010000D01*
X114500000Y-118013676D01*
X114537323Y-118010000D01*
X115736427Y-118010000D01*
X115656686Y-118202510D01*
X115603000Y-118472408D01*
X115603000Y-118747592D01*
X115656686Y-119017490D01*
X115761995Y-119271727D01*
X115914880Y-119500535D01*
X116109465Y-119695120D01*
X116338273Y-119848005D01*
X116415515Y-119880000D01*
X116338273Y-119911995D01*
X116109465Y-120064880D01*
X115914880Y-120259465D01*
X115761995Y-120488273D01*
X115656686Y-120742510D01*
X115603000Y-121012408D01*
X115603000Y-121287592D01*
X115656686Y-121557490D01*
X115761995Y-121811727D01*
X115914880Y-122040535D01*
X116109465Y-122235120D01*
X116338273Y-122388005D01*
X116415515Y-122420000D01*
X116338273Y-122451995D01*
X116109465Y-122604880D01*
X115914880Y-122799465D01*
X115761995Y-123028273D01*
X115656686Y-123282510D01*
X115603000Y-123552408D01*
X115603000Y-123827592D01*
X115656686Y-124097490D01*
X115761995Y-124351727D01*
X115914880Y-124580535D01*
X116109465Y-124775120D01*
X116338273Y-124928005D01*
X116415515Y-124960000D01*
X116338273Y-124991995D01*
X116109465Y-125144880D01*
X115914880Y-125339465D01*
X115761995Y-125568273D01*
X115656686Y-125822510D01*
X115603000Y-126092408D01*
X115603000Y-126367592D01*
X115656686Y-126637490D01*
X115761995Y-126891727D01*
X115914880Y-127120535D01*
X116109465Y-127315120D01*
X116338273Y-127468005D01*
X116415515Y-127500000D01*
X116338273Y-127531995D01*
X116109465Y-127684880D01*
X115914880Y-127879465D01*
X115761995Y-128108273D01*
X115656686Y-128362510D01*
X115603000Y-128632408D01*
X115603000Y-128907592D01*
X115656686Y-129177490D01*
X115761995Y-129431727D01*
X115914880Y-129660535D01*
X116109465Y-129855120D01*
X116338273Y-130008005D01*
X116409943Y-130037692D01*
X116396977Y-130042364D01*
X116281020Y-130104344D01*
X116214040Y-130344435D01*
X117000000Y-131130395D01*
X117785960Y-130344435D01*
X117718980Y-130104344D01*
X117583240Y-130040515D01*
X117661727Y-130008005D01*
X117890535Y-129855120D01*
X118085120Y-129660535D01*
X118238005Y-129431727D01*
X118343314Y-129177490D01*
X118397000Y-128907592D01*
X118397000Y-128632408D01*
X118343314Y-128362510D01*
X118238005Y-128108273D01*
X118085120Y-127879465D01*
X117890535Y-127684880D01*
X117661727Y-127531995D01*
X117584485Y-127500000D01*
X117661727Y-127468005D01*
X117890535Y-127315120D01*
X118085120Y-127120535D01*
X118238005Y-126891727D01*
X118343314Y-126637490D01*
X118397000Y-126367592D01*
X118397000Y-126092408D01*
X118343314Y-125822510D01*
X118238005Y-125568273D01*
X118085120Y-125339465D01*
X117890535Y-125144880D01*
X117661727Y-124991995D01*
X117584485Y-124960000D01*
X117661727Y-124928005D01*
X117890535Y-124775120D01*
X118085120Y-124580535D01*
X118238005Y-124351727D01*
X118343314Y-124097490D01*
X118397000Y-123827592D01*
X118397000Y-123552408D01*
X118343314Y-123282510D01*
X118238005Y-123028273D01*
X118085120Y-122799465D01*
X117890535Y-122604880D01*
X117661727Y-122451995D01*
X117584485Y-122420000D01*
X117661727Y-122388005D01*
X117890535Y-122235120D01*
X118085120Y-122040535D01*
X118238005Y-121811727D01*
X118343314Y-121557490D01*
X118397000Y-121287592D01*
X118397000Y-121012408D01*
X118343314Y-120742510D01*
X118238005Y-120488273D01*
X118085120Y-120259465D01*
X117890535Y-120064880D01*
X117661727Y-119911995D01*
X117584485Y-119880000D01*
X117661727Y-119848005D01*
X117890535Y-119695120D01*
X118085120Y-119500535D01*
X118238005Y-119271727D01*
X118343314Y-119017490D01*
X118397000Y-118747592D01*
X118397000Y-118472408D01*
X118343314Y-118202510D01*
X118263573Y-118010000D01*
X126685199Y-118010000D01*
X127490000Y-118814802D01*
X127490001Y-137462667D01*
X127486324Y-137500000D01*
X127500998Y-137648985D01*
X127544454Y-137792246D01*
X127615026Y-137924276D01*
X127686201Y-138011002D01*
X127710000Y-138040001D01*
X127738998Y-138063799D01*
X129116205Y-139441008D01*
X129139999Y-139470001D01*
X129168992Y-139493795D01*
X129168996Y-139493799D01*
X129239685Y-139551811D01*
X129255724Y-139564974D01*
X129387753Y-139635546D01*
X129531014Y-139679003D01*
X129642667Y-139690000D01*
X129642676Y-139690000D01*
X129679999Y-139693676D01*
X129717322Y-139690000D01*
X131067659Y-139690000D01*
X131154880Y-139820535D01*
X131349465Y-140015120D01*
X131578273Y-140168005D01*
X131655515Y-140200000D01*
X131578273Y-140231995D01*
X131349465Y-140384880D01*
X131154880Y-140579465D01*
X131001995Y-140808273D01*
X130896686Y-141062510D01*
X130843000Y-141332408D01*
X130843000Y-141607592D01*
X130896686Y-141877490D01*
X131001995Y-142131727D01*
X131154880Y-142360535D01*
X131349465Y-142555120D01*
X131578273Y-142708005D01*
X131655515Y-142740000D01*
X131578273Y-142771995D01*
X131349465Y-142924880D01*
X131154880Y-143119465D01*
X131001995Y-143348273D01*
X130896686Y-143602510D01*
X130843000Y-143872408D01*
X130843000Y-144147592D01*
X130896686Y-144417490D01*
X131001995Y-144671727D01*
X131154880Y-144900535D01*
X131349465Y-145095120D01*
X131578273Y-145248005D01*
X131655515Y-145280000D01*
X131578273Y-145311995D01*
X131349465Y-145464880D01*
X131154880Y-145659465D01*
X131001995Y-145888273D01*
X130896686Y-146142510D01*
X130843000Y-146412408D01*
X130843000Y-146687592D01*
X130896686Y-146957490D01*
X131001995Y-147211727D01*
X131154880Y-147440535D01*
X131349465Y-147635120D01*
X131578273Y-147788005D01*
X131655515Y-147820000D01*
X131578273Y-147851995D01*
X131349465Y-148004880D01*
X131154880Y-148199465D01*
X131001995Y-148428273D01*
X130896686Y-148682510D01*
X130843000Y-148952408D01*
X130843000Y-149227592D01*
X130896686Y-149497490D01*
X131001995Y-149751727D01*
X131154880Y-149980535D01*
X131349465Y-150175120D01*
X131578273Y-150328005D01*
X131655515Y-150360000D01*
X131578273Y-150391995D01*
X131349465Y-150544880D01*
X131154880Y-150739465D01*
X131001995Y-150968273D01*
X130896686Y-151222510D01*
X130843000Y-151492408D01*
X130843000Y-151767592D01*
X130896686Y-152037490D01*
X131001995Y-152291727D01*
X131154880Y-152520535D01*
X131349465Y-152715120D01*
X131578273Y-152868005D01*
X131655515Y-152900000D01*
X131578273Y-152931995D01*
X131349465Y-153084880D01*
X131154880Y-153279465D01*
X131001995Y-153508273D01*
X130896686Y-153762510D01*
X130843000Y-154032408D01*
X130843000Y-154307592D01*
X130896686Y-154577490D01*
X131001995Y-154831727D01*
X131154880Y-155060535D01*
X131349465Y-155255120D01*
X131578273Y-155408005D01*
X131655515Y-155440000D01*
X131578273Y-155471995D01*
X131349465Y-155624880D01*
X131154880Y-155819465D01*
X131001995Y-156048273D01*
X130896686Y-156302510D01*
X130843000Y-156572408D01*
X130843000Y-156847592D01*
X130896686Y-157117490D01*
X131001995Y-157371727D01*
X131154880Y-157600535D01*
X131349465Y-157795120D01*
X131578273Y-157948005D01*
X131655515Y-157980000D01*
X131578273Y-158011995D01*
X131349465Y-158164880D01*
X131154880Y-158359465D01*
X131001995Y-158588273D01*
X130896686Y-158842510D01*
X130843000Y-159112408D01*
X130843000Y-159387592D01*
X130896686Y-159657490D01*
X131001995Y-159911727D01*
X131154880Y-160140535D01*
X131349465Y-160335120D01*
X131578273Y-160488005D01*
X131655515Y-160520000D01*
X131578273Y-160551995D01*
X131349465Y-160704880D01*
X131154880Y-160899465D01*
X131001995Y-161128273D01*
X130896686Y-161382510D01*
X130843000Y-161652408D01*
X130843000Y-161927592D01*
X130896686Y-162197490D01*
X131001995Y-162451727D01*
X131154880Y-162680535D01*
X131349465Y-162875120D01*
X131578273Y-163028005D01*
X131655515Y-163060000D01*
X131578273Y-163091995D01*
X131349465Y-163244880D01*
X131154880Y-163439465D01*
X131001995Y-163668273D01*
X130896686Y-163922510D01*
X130843000Y-164192408D01*
X130843000Y-164467592D01*
X130896686Y-164737490D01*
X131001995Y-164991727D01*
X131154880Y-165220535D01*
X131349465Y-165415120D01*
X131578273Y-165568005D01*
X131649943Y-165597692D01*
X131636977Y-165602364D01*
X131521020Y-165664344D01*
X131454040Y-165904435D01*
X132240000Y-166690395D01*
X133025960Y-165904435D01*
X132958980Y-165664344D01*
X132823240Y-165600515D01*
X132901727Y-165568005D01*
X133130535Y-165415120D01*
X133325120Y-165220535D01*
X133478005Y-164991727D01*
X133583314Y-164737490D01*
X133637000Y-164467592D01*
X133637000Y-164192408D01*
X133606372Y-164038430D01*
X134761003Y-162883799D01*
X134790001Y-162860001D01*
X134884974Y-162744276D01*
X134955546Y-162612247D01*
X134999003Y-162468986D01*
X135010000Y-162357333D01*
X135010000Y-162357324D01*
X135013676Y-162320001D01*
X135010000Y-162282678D01*
X135010000Y-113064801D01*
X135789802Y-112285000D01*
X135851939Y-112285000D01*
X135880304Y-112279358D01*
X135946063Y-112377773D01*
X136090226Y-112521936D01*
X136259744Y-112635204D01*
X136448102Y-112713225D01*
X136648061Y-112752999D01*
X136851939Y-112752999D01*
X137051898Y-112713225D01*
X137240256Y-112635204D01*
X137409774Y-112521936D01*
X137553937Y-112377773D01*
X137667205Y-112208255D01*
X137745226Y-112019897D01*
X137785000Y-111819938D01*
X137785000Y-111616060D01*
X137745226Y-111416101D01*
X137667205Y-111227743D01*
X137635000Y-111179545D01*
X137635000Y-111035464D01*
X137639281Y-110991997D01*
X137635000Y-110948531D01*
X137635000Y-110948521D01*
X137622195Y-110818508D01*
X137571589Y-110651685D01*
X137489411Y-110497939D01*
X137378817Y-110363181D01*
X137345045Y-110335465D01*
X136814535Y-109804955D01*
X136786818Y-109771182D01*
X136652060Y-109660588D01*
X136498314Y-109578410D01*
X136331491Y-109527804D01*
X136201478Y-109514999D01*
X136201470Y-109514999D01*
X136158001Y-109510718D01*
X136114532Y-109514999D01*
X135516578Y-109514999D01*
X134261578Y-108260000D01*
X136605199Y-108260000D01*
X138268790Y-109923592D01*
X138225000Y-110143740D01*
X138225000Y-110436260D01*
X138282068Y-110723158D01*
X138394010Y-110993411D01*
X138556525Y-111236632D01*
X138763368Y-111443475D01*
X138950001Y-111568179D01*
X138950000Y-113672677D01*
X138946324Y-113710000D01*
X138950000Y-113747322D01*
X138950000Y-113747332D01*
X138960997Y-113858985D01*
X138984811Y-113937490D01*
X139004454Y-114002246D01*
X139075026Y-114134276D01*
X139095952Y-114159774D01*
X139169999Y-114250001D01*
X139199003Y-114273804D01*
X139798199Y-114873000D01*
X136000000Y-114873000D01*
X135975224Y-114875440D01*
X135951399Y-114882667D01*
X135929443Y-114894403D01*
X135910197Y-114910197D01*
X135894403Y-114929443D01*
X135882667Y-114951399D01*
X135875440Y-114975224D01*
X135873000Y-115000000D01*
X135873000Y-168840000D01*
X93660000Y-168840000D01*
X93660000Y-166732408D01*
X115603000Y-166732408D01*
X115603000Y-167007592D01*
X115656686Y-167277490D01*
X115761995Y-167531727D01*
X115914880Y-167760535D01*
X116109465Y-167955120D01*
X116338273Y-168108005D01*
X116592510Y-168213314D01*
X116862408Y-168267000D01*
X117137592Y-168267000D01*
X117407490Y-168213314D01*
X117661727Y-168108005D01*
X117890535Y-167955120D01*
X118010090Y-167835565D01*
X131454040Y-167835565D01*
X131521020Y-168075656D01*
X131770048Y-168192756D01*
X132037135Y-168259023D01*
X132312017Y-168271910D01*
X132584133Y-168230922D01*
X132843023Y-168137636D01*
X132958980Y-168075656D01*
X133025960Y-167835565D01*
X132240000Y-167049605D01*
X131454040Y-167835565D01*
X118010090Y-167835565D01*
X118085120Y-167760535D01*
X118238005Y-167531727D01*
X118343314Y-167277490D01*
X118397000Y-167007592D01*
X118397000Y-166942017D01*
X130838090Y-166942017D01*
X130879078Y-167214133D01*
X130972364Y-167473023D01*
X131034344Y-167588980D01*
X131274435Y-167655960D01*
X132060395Y-166870000D01*
X132419605Y-166870000D01*
X133205565Y-167655960D01*
X133445656Y-167588980D01*
X133562756Y-167339952D01*
X133629023Y-167072865D01*
X133641910Y-166797983D01*
X133600922Y-166525867D01*
X133507636Y-166266977D01*
X133445656Y-166151020D01*
X133205565Y-166084040D01*
X132419605Y-166870000D01*
X132060395Y-166870000D01*
X131274435Y-166084040D01*
X131034344Y-166151020D01*
X130917244Y-166400048D01*
X130850977Y-166667135D01*
X130838090Y-166942017D01*
X118397000Y-166942017D01*
X118397000Y-166732408D01*
X118343314Y-166462510D01*
X118238005Y-166208273D01*
X118085120Y-165979465D01*
X117890535Y-165784880D01*
X117661727Y-165631995D01*
X117590057Y-165602308D01*
X117603023Y-165597636D01*
X117718980Y-165535656D01*
X117785960Y-165295565D01*
X117000000Y-164509605D01*
X116214040Y-165295565D01*
X116281020Y-165535656D01*
X116416760Y-165599485D01*
X116338273Y-165631995D01*
X116109465Y-165784880D01*
X115914880Y-165979465D01*
X115761995Y-166208273D01*
X115656686Y-166462510D01*
X115603000Y-166732408D01*
X93660000Y-166732408D01*
X93660000Y-164424636D01*
X96324969Y-164424636D01*
X96393489Y-164666023D01*
X96644683Y-164784393D01*
X96914143Y-164851483D01*
X97191514Y-164864714D01*
X97466137Y-164823579D01*
X97727458Y-164729658D01*
X97846511Y-164666023D01*
X97915031Y-164424636D01*
X97120000Y-163629605D01*
X96324969Y-164424636D01*
X93660000Y-164424636D01*
X93660000Y-163521514D01*
X95705286Y-163521514D01*
X95746421Y-163796137D01*
X95840342Y-164057458D01*
X95903977Y-164176511D01*
X96145364Y-164245031D01*
X96940395Y-163450000D01*
X97299605Y-163450000D01*
X98094636Y-164245031D01*
X98336023Y-164176511D01*
X98454393Y-163925317D01*
X98521483Y-163655857D01*
X98534714Y-163378486D01*
X98521634Y-163291157D01*
X105820300Y-163291157D01*
X105820300Y-163568843D01*
X105874474Y-163841194D01*
X105980740Y-164097743D01*
X106135014Y-164328631D01*
X106331369Y-164524986D01*
X106562257Y-164679260D01*
X106818806Y-164785526D01*
X107091157Y-164839700D01*
X107368843Y-164839700D01*
X107641194Y-164785526D01*
X107897743Y-164679260D01*
X108128631Y-164524986D01*
X108251600Y-164402017D01*
X115598090Y-164402017D01*
X115639078Y-164674133D01*
X115732364Y-164933023D01*
X115794344Y-165048980D01*
X116034435Y-165115960D01*
X116820395Y-164330000D01*
X117179605Y-164330000D01*
X117965565Y-165115960D01*
X118205656Y-165048980D01*
X118322756Y-164799952D01*
X118389023Y-164532865D01*
X118401910Y-164257983D01*
X118360922Y-163985867D01*
X118267636Y-163726977D01*
X118205656Y-163611020D01*
X117965565Y-163544040D01*
X117179605Y-164330000D01*
X116820395Y-164330000D01*
X116034435Y-163544040D01*
X115794344Y-163611020D01*
X115677244Y-163860048D01*
X115610977Y-164127135D01*
X115598090Y-164402017D01*
X108251600Y-164402017D01*
X108324986Y-164328631D01*
X108479260Y-164097743D01*
X108585526Y-163841194D01*
X108639700Y-163568843D01*
X108639700Y-163291157D01*
X108585526Y-163018806D01*
X108479260Y-162762257D01*
X108324986Y-162531369D01*
X108128631Y-162335014D01*
X107897743Y-162180740D01*
X107641194Y-162074474D01*
X107368843Y-162020300D01*
X107091157Y-162020300D01*
X106818806Y-162074474D01*
X106562257Y-162180740D01*
X106331369Y-162335014D01*
X106135014Y-162531369D01*
X105980740Y-162762257D01*
X105874474Y-163018806D01*
X105820300Y-163291157D01*
X98521634Y-163291157D01*
X98493579Y-163103863D01*
X98399658Y-162842542D01*
X98336023Y-162723489D01*
X98094636Y-162654969D01*
X97299605Y-163450000D01*
X96940395Y-163450000D01*
X96145364Y-162654969D01*
X95903977Y-162723489D01*
X95785607Y-162974683D01*
X95718517Y-163244143D01*
X95705286Y-163521514D01*
X93660000Y-163521514D01*
X93660000Y-162475364D01*
X96324969Y-162475364D01*
X97120000Y-163270395D01*
X97915031Y-162475364D01*
X97846511Y-162233977D01*
X97595317Y-162115607D01*
X97325857Y-162048517D01*
X97048486Y-162035286D01*
X96773863Y-162076421D01*
X96512542Y-162170342D01*
X96393489Y-162233977D01*
X96324969Y-162475364D01*
X93660000Y-162475364D01*
X93660000Y-155153638D01*
X93880902Y-155153638D01*
X93880902Y-155486362D01*
X93945813Y-155812692D01*
X94073141Y-156120089D01*
X94257992Y-156396739D01*
X94493263Y-156632010D01*
X94769913Y-156816861D01*
X95077310Y-156944189D01*
X95403640Y-157009100D01*
X95615040Y-157009100D01*
X95501590Y-157178890D01*
X95312035Y-157636518D01*
X95215400Y-158122334D01*
X95215400Y-158617666D01*
X95312035Y-159103482D01*
X95501590Y-159561110D01*
X95776783Y-159972964D01*
X96127036Y-160323217D01*
X96538890Y-160598410D01*
X96996518Y-160787965D01*
X97482334Y-160884600D01*
X97977666Y-160884600D01*
X98463482Y-160787965D01*
X98710903Y-160685480D01*
X98565014Y-160831369D01*
X98410740Y-161062257D01*
X98304474Y-161318806D01*
X98250300Y-161591157D01*
X98250300Y-161868843D01*
X98304474Y-162141194D01*
X98410740Y-162397743D01*
X98565014Y-162628631D01*
X98761369Y-162824986D01*
X98992257Y-162979260D01*
X99248806Y-163085526D01*
X99521157Y-163139700D01*
X99798843Y-163139700D01*
X100071194Y-163085526D01*
X100327743Y-162979260D01*
X100558631Y-162824986D01*
X100754986Y-162628631D01*
X100909260Y-162397743D01*
X101015526Y-162141194D01*
X101069700Y-161868843D01*
X101069700Y-161591157D01*
X101037172Y-161427629D01*
X101130201Y-161334601D01*
X108411332Y-161334601D01*
X108360300Y-161591157D01*
X108360300Y-161868843D01*
X108414474Y-162141194D01*
X108520740Y-162397743D01*
X108675014Y-162628631D01*
X108871369Y-162824986D01*
X109102257Y-162979260D01*
X109358806Y-163085526D01*
X109631157Y-163139700D01*
X109908843Y-163139700D01*
X110181194Y-163085526D01*
X110437743Y-162979260D01*
X110668631Y-162824986D01*
X110864986Y-162628631D01*
X111019260Y-162397743D01*
X111125526Y-162141194D01*
X111179700Y-161868843D01*
X111179700Y-161591157D01*
X111128668Y-161334601D01*
X115676531Y-161334601D01*
X115656686Y-161382510D01*
X115603000Y-161652408D01*
X115603000Y-161927592D01*
X115656686Y-162197490D01*
X115761995Y-162451727D01*
X115914880Y-162680535D01*
X116109465Y-162875120D01*
X116338273Y-163028005D01*
X116409943Y-163057692D01*
X116396977Y-163062364D01*
X116281020Y-163124344D01*
X116214040Y-163364435D01*
X117000000Y-164150395D01*
X117785960Y-163364435D01*
X117718980Y-163124344D01*
X117583240Y-163060515D01*
X117661727Y-163028005D01*
X117890535Y-162875120D01*
X118085120Y-162680535D01*
X118238005Y-162451727D01*
X118343314Y-162197490D01*
X118397000Y-161927592D01*
X118397000Y-161652408D01*
X118343314Y-161382510D01*
X118238005Y-161128273D01*
X118211498Y-161088602D01*
X118213963Y-161085598D01*
X122511003Y-156788559D01*
X122540001Y-156764761D01*
X122578385Y-156717990D01*
X122634974Y-156649037D01*
X122705546Y-156517007D01*
X122713202Y-156491768D01*
X122749003Y-156373746D01*
X122760000Y-156262093D01*
X122760000Y-156262084D01*
X122763676Y-156224761D01*
X122760000Y-156187438D01*
X122760000Y-155067709D01*
X122835077Y-155017544D01*
X123000000Y-154852621D01*
X123164923Y-155017544D01*
X123379482Y-155160907D01*
X123617887Y-155259658D01*
X123870976Y-155310000D01*
X124129024Y-155310000D01*
X124382113Y-155259658D01*
X124620518Y-155160907D01*
X124835077Y-155017544D01*
X125017544Y-154835077D01*
X125160907Y-154620518D01*
X125259658Y-154382113D01*
X125310000Y-154129024D01*
X125310000Y-153870976D01*
X125259658Y-153617887D01*
X125185000Y-153437647D01*
X125185000Y-153297448D01*
X125469198Y-153013251D01*
X125497238Y-152990239D01*
X125520251Y-152962198D01*
X125520254Y-152962195D01*
X125589088Y-152878321D01*
X125657338Y-152750635D01*
X125699366Y-152612086D01*
X125713557Y-152468001D01*
X125710001Y-152431896D01*
X125710001Y-151568104D01*
X125713557Y-151531999D01*
X125699366Y-151387914D01*
X125657338Y-151249365D01*
X125589088Y-151121679D01*
X125567040Y-151094814D01*
X125497239Y-151009761D01*
X125469193Y-150986745D01*
X125154422Y-150671974D01*
X125132337Y-150599168D01*
X125064087Y-150471480D01*
X124972238Y-150359562D01*
X124944187Y-150336541D01*
X124638459Y-150030813D01*
X124615438Y-150002762D01*
X124503520Y-149910913D01*
X124375833Y-149842663D01*
X124237285Y-149800635D01*
X124129305Y-149790000D01*
X124093200Y-149786444D01*
X124057095Y-149790000D01*
X118212432Y-149790000D01*
X118238005Y-149751727D01*
X118343314Y-149497490D01*
X118397000Y-149227592D01*
X118397000Y-148952408D01*
X118343314Y-148682510D01*
X118238005Y-148428273D01*
X118085120Y-148199465D01*
X117890535Y-148004880D01*
X117661727Y-147851995D01*
X117584485Y-147820000D01*
X117661727Y-147788005D01*
X117890535Y-147635120D01*
X118085120Y-147440535D01*
X118238005Y-147211727D01*
X118343314Y-146957490D01*
X118397000Y-146687592D01*
X118397000Y-146412408D01*
X118343314Y-146142510D01*
X118238005Y-145888273D01*
X118085120Y-145659465D01*
X117890535Y-145464880D01*
X117661727Y-145311995D01*
X117584485Y-145280000D01*
X117661727Y-145248005D01*
X117890535Y-145095120D01*
X118085120Y-144900535D01*
X118238005Y-144671727D01*
X118343314Y-144417490D01*
X118397000Y-144147592D01*
X118397000Y-143872408D01*
X118343314Y-143602510D01*
X118238005Y-143348273D01*
X118085120Y-143119465D01*
X117890535Y-142924880D01*
X117661727Y-142771995D01*
X117584485Y-142740000D01*
X117661727Y-142708005D01*
X117890535Y-142555120D01*
X118085120Y-142360535D01*
X118238005Y-142131727D01*
X118343314Y-141877490D01*
X118397000Y-141607592D01*
X118397000Y-141332408D01*
X118343314Y-141062510D01*
X118238005Y-140808273D01*
X118085120Y-140579465D01*
X117890535Y-140384880D01*
X117661727Y-140231995D01*
X117584485Y-140200000D01*
X117661727Y-140168005D01*
X117890535Y-140015120D01*
X118085120Y-139820535D01*
X118238005Y-139591727D01*
X118343314Y-139337490D01*
X118397000Y-139067592D01*
X118397000Y-138792408D01*
X118343314Y-138522510D01*
X118238005Y-138268273D01*
X118085120Y-138039465D01*
X117890535Y-137844880D01*
X117661727Y-137691995D01*
X117584485Y-137660000D01*
X117661727Y-137628005D01*
X117890535Y-137475120D01*
X118085120Y-137280535D01*
X118238005Y-137051727D01*
X118343314Y-136797490D01*
X118397000Y-136527592D01*
X118397000Y-136252408D01*
X118343314Y-135982510D01*
X118238005Y-135728273D01*
X118085120Y-135499465D01*
X117890535Y-135304880D01*
X117661727Y-135151995D01*
X117584485Y-135120000D01*
X117661727Y-135088005D01*
X117890535Y-134935120D01*
X118085120Y-134740535D01*
X118238005Y-134511727D01*
X118343314Y-134257490D01*
X118397000Y-133987592D01*
X118397000Y-133712408D01*
X118343314Y-133442510D01*
X118238005Y-133188273D01*
X118085120Y-132959465D01*
X117890535Y-132764880D01*
X117661727Y-132611995D01*
X117590057Y-132582308D01*
X117603023Y-132577636D01*
X117718980Y-132515656D01*
X117785960Y-132275565D01*
X117000000Y-131489605D01*
X116214040Y-132275565D01*
X116281020Y-132515656D01*
X116416760Y-132579485D01*
X116338273Y-132611995D01*
X116109465Y-132764880D01*
X115914880Y-132959465D01*
X115827659Y-133090000D01*
X114664802Y-133090000D01*
X113510000Y-131935199D01*
X113510000Y-131382017D01*
X115598090Y-131382017D01*
X115639078Y-131654133D01*
X115732364Y-131913023D01*
X115794344Y-132028980D01*
X116034435Y-132095960D01*
X116820395Y-131310000D01*
X117179605Y-131310000D01*
X117965565Y-132095960D01*
X118205656Y-132028980D01*
X118322756Y-131779952D01*
X118389023Y-131512865D01*
X118401910Y-131237983D01*
X118360922Y-130965867D01*
X118267636Y-130706977D01*
X118205656Y-130591020D01*
X117965565Y-130524040D01*
X117179605Y-131310000D01*
X116820395Y-131310000D01*
X116034435Y-130524040D01*
X115794344Y-130591020D01*
X115677244Y-130840048D01*
X115610977Y-131107135D01*
X115598090Y-131382017D01*
X113510000Y-131382017D01*
X113510000Y-120703711D01*
X113553937Y-120659774D01*
X113667205Y-120490256D01*
X113745226Y-120301898D01*
X113785000Y-120101939D01*
X113785000Y-119898061D01*
X113745226Y-119698102D01*
X113667205Y-119509744D01*
X113553937Y-119340226D01*
X113409774Y-119196063D01*
X113240256Y-119082795D01*
X113051898Y-119004774D01*
X112851939Y-118965000D01*
X112648061Y-118965000D01*
X112448102Y-119004774D01*
X112259744Y-119082795D01*
X112090226Y-119196063D01*
X111946063Y-119340226D01*
X111832795Y-119509744D01*
X111754774Y-119698102D01*
X111715000Y-119898061D01*
X111715000Y-120101939D01*
X111754774Y-120301898D01*
X111832795Y-120490256D01*
X111946063Y-120659774D01*
X111990000Y-120703711D01*
X111990001Y-132212668D01*
X111986324Y-132250000D01*
X112000998Y-132398985D01*
X112044454Y-132542246D01*
X112115026Y-132674276D01*
X112145912Y-132711910D01*
X112210000Y-132790001D01*
X112238998Y-132813799D01*
X113786201Y-134361003D01*
X113809999Y-134390001D01*
X113925724Y-134484974D01*
X114057753Y-134555546D01*
X114201014Y-134599003D01*
X114312667Y-134610000D01*
X114312675Y-134610000D01*
X114350000Y-134613676D01*
X114387325Y-134610000D01*
X115827659Y-134610000D01*
X115914880Y-134740535D01*
X116109465Y-134935120D01*
X116338273Y-135088005D01*
X116415515Y-135120000D01*
X116338273Y-135151995D01*
X116109465Y-135304880D01*
X115914880Y-135499465D01*
X115761995Y-135728273D01*
X115656686Y-135982510D01*
X115603000Y-136252408D01*
X115603000Y-136527592D01*
X115656686Y-136797490D01*
X115761995Y-137051727D01*
X115914880Y-137280535D01*
X116109465Y-137475120D01*
X116338273Y-137628005D01*
X116415515Y-137660000D01*
X116338273Y-137691995D01*
X116109465Y-137844880D01*
X115914880Y-138039465D01*
X115761995Y-138268273D01*
X115656686Y-138522510D01*
X115603000Y-138792408D01*
X115603000Y-139067592D01*
X115656686Y-139337490D01*
X115761995Y-139591727D01*
X115914880Y-139820535D01*
X116109465Y-140015120D01*
X116338273Y-140168005D01*
X116415515Y-140200000D01*
X116338273Y-140231995D01*
X116109465Y-140384880D01*
X115914880Y-140579465D01*
X115761995Y-140808273D01*
X115656686Y-141062510D01*
X115603000Y-141332408D01*
X115603000Y-141607592D01*
X115656686Y-141877490D01*
X115761995Y-142131727D01*
X115914880Y-142360535D01*
X116109465Y-142555120D01*
X116338273Y-142708005D01*
X116415515Y-142740000D01*
X116338273Y-142771995D01*
X116109465Y-142924880D01*
X115914880Y-143119465D01*
X115761995Y-143348273D01*
X115656686Y-143602510D01*
X115603000Y-143872408D01*
X115603000Y-144147592D01*
X115656686Y-144417490D01*
X115761995Y-144671727D01*
X115914880Y-144900535D01*
X116109465Y-145095120D01*
X116338273Y-145248005D01*
X116415515Y-145280000D01*
X116338273Y-145311995D01*
X116109465Y-145464880D01*
X115914880Y-145659465D01*
X115761995Y-145888273D01*
X115656686Y-146142510D01*
X115603000Y-146412408D01*
X115603000Y-146687592D01*
X115656686Y-146957490D01*
X115761995Y-147211727D01*
X115914880Y-147440535D01*
X116109465Y-147635120D01*
X116338273Y-147788005D01*
X116415515Y-147820000D01*
X116338273Y-147851995D01*
X116109465Y-148004880D01*
X115914880Y-148199465D01*
X115761995Y-148428273D01*
X115656686Y-148682510D01*
X115603000Y-148952408D01*
X115603000Y-149227592D01*
X115656686Y-149497490D01*
X115761995Y-149751727D01*
X115787568Y-149790000D01*
X112397647Y-149790000D01*
X109888459Y-147280813D01*
X109865438Y-147252762D01*
X109753520Y-147160913D01*
X109625833Y-147092663D01*
X109487285Y-147050635D01*
X109379305Y-147040000D01*
X109343200Y-147036444D01*
X109307095Y-147040000D01*
X99642784Y-147040000D01*
X99606689Y-147036445D01*
X99570594Y-147040000D01*
X99570585Y-147040000D01*
X99462605Y-147050635D01*
X99324057Y-147092663D01*
X99196370Y-147160913D01*
X99084452Y-147252762D01*
X99061436Y-147280807D01*
X98280808Y-148061436D01*
X98252762Y-148084453D01*
X98160913Y-148196371D01*
X98092663Y-148324058D01*
X98074853Y-148382770D01*
X98050635Y-148462605D01*
X98036444Y-148606690D01*
X98040000Y-148642796D01*
X98040001Y-149517085D01*
X98036444Y-149553199D01*
X98050635Y-149697284D01*
X98074854Y-149777120D01*
X98092664Y-149835832D01*
X98160914Y-149963519D01*
X98252763Y-150075437D01*
X98265000Y-150085480D01*
X98265000Y-150887324D01*
X98149943Y-150964203D01*
X97964203Y-151149943D01*
X97818268Y-151368351D01*
X97717746Y-151611032D01*
X97666500Y-151868662D01*
X97666500Y-152131338D01*
X97717746Y-152388968D01*
X97818268Y-152631649D01*
X97964203Y-152850057D01*
X98149943Y-153035797D01*
X98368351Y-153181732D01*
X98611032Y-153282254D01*
X98868662Y-153333500D01*
X99131338Y-153333500D01*
X99388968Y-153282254D01*
X99631649Y-153181732D01*
X99850057Y-153035797D01*
X100035797Y-152850057D01*
X100181732Y-152631649D01*
X100270000Y-152418552D01*
X100358268Y-152631649D01*
X100504203Y-152850057D01*
X100689943Y-153035797D01*
X100908351Y-153181732D01*
X101151032Y-153282254D01*
X101408662Y-153333500D01*
X101671338Y-153333500D01*
X101928968Y-153282254D01*
X102171649Y-153181732D01*
X102390057Y-153035797D01*
X102575797Y-152850057D01*
X102721732Y-152631649D01*
X102810000Y-152418552D01*
X102898268Y-152631649D01*
X103044203Y-152850057D01*
X103229943Y-153035797D01*
X103448351Y-153181732D01*
X103691032Y-153282254D01*
X103948662Y-153333500D01*
X104211338Y-153333500D01*
X104468968Y-153282254D01*
X104711649Y-153181732D01*
X104930057Y-153035797D01*
X105115797Y-152850057D01*
X105261732Y-152631649D01*
X105350000Y-152418552D01*
X105438268Y-152631649D01*
X105584203Y-152850057D01*
X105769943Y-153035797D01*
X105988351Y-153181732D01*
X106231032Y-153282254D01*
X106488662Y-153333500D01*
X106751338Y-153333500D01*
X107008968Y-153282254D01*
X107251649Y-153181732D01*
X107470057Y-153035797D01*
X107519104Y-152986750D01*
X108251547Y-153719193D01*
X108274563Y-153747238D01*
X108366320Y-153822541D01*
X108386481Y-153839087D01*
X108514167Y-153907337D01*
X108652716Y-153949365D01*
X108796801Y-153963556D01*
X108832906Y-153960000D01*
X110315081Y-153960000D01*
X110243259Y-154007990D01*
X110007988Y-154243261D01*
X109823137Y-154519911D01*
X109695809Y-154827308D01*
X109630898Y-155153638D01*
X109630898Y-155486362D01*
X109695809Y-155812692D01*
X109740960Y-155921696D01*
X109407666Y-155855400D01*
X108912334Y-155855400D01*
X108426518Y-155952035D01*
X107968890Y-156141590D01*
X107557036Y-156416783D01*
X107206783Y-156767036D01*
X106931590Y-157178890D01*
X106742035Y-157636518D01*
X106645400Y-158122334D01*
X106645400Y-158617666D01*
X106742035Y-159103482D01*
X106931590Y-159561110D01*
X107100968Y-159814601D01*
X100852722Y-159814601D01*
X100815399Y-159810925D01*
X100778076Y-159814601D01*
X100778066Y-159814601D01*
X100666413Y-159825598D01*
X100523152Y-159869055D01*
X100391122Y-159939627D01*
X100307482Y-160008269D01*
X100275398Y-160034600D01*
X100251600Y-160063598D01*
X99962371Y-160352828D01*
X99798843Y-160320300D01*
X99521157Y-160320300D01*
X99259409Y-160372365D01*
X99332964Y-160323217D01*
X99683217Y-159972964D01*
X99958410Y-159561110D01*
X100147965Y-159103482D01*
X100244600Y-158617666D01*
X100244600Y-158122334D01*
X100147965Y-157636518D01*
X99958410Y-157178890D01*
X99683217Y-156767036D01*
X99332964Y-156416783D01*
X98921110Y-156141590D01*
X98463482Y-155952035D01*
X97977666Y-155855400D01*
X97482334Y-155855400D01*
X97149040Y-155921696D01*
X97194191Y-155812692D01*
X97259102Y-155486362D01*
X97259102Y-155153638D01*
X97194191Y-154827308D01*
X97066863Y-154519911D01*
X96882012Y-154243261D01*
X96646741Y-154007990D01*
X96370091Y-153823139D01*
X96062694Y-153695811D01*
X95736364Y-153630900D01*
X95403640Y-153630900D01*
X95077310Y-153695811D01*
X94769913Y-153823139D01*
X94493263Y-154007990D01*
X94257992Y-154243261D01*
X94073141Y-154519911D01*
X93945813Y-154827308D01*
X93880902Y-155153638D01*
X93660000Y-155153638D01*
X93660000Y-145742702D01*
X98436903Y-145742702D01*
X98508486Y-145986671D01*
X98763996Y-146107571D01*
X99038184Y-146176300D01*
X99320512Y-146190217D01*
X99600130Y-146148787D01*
X99866292Y-146053603D01*
X99991514Y-145986671D01*
X100063097Y-145742702D01*
X99250000Y-144929605D01*
X98436903Y-145742702D01*
X93660000Y-145742702D01*
X93660000Y-144820512D01*
X97809783Y-144820512D01*
X97851213Y-145100130D01*
X97946397Y-145366292D01*
X98013329Y-145491514D01*
X98257298Y-145563097D01*
X99070395Y-144750000D01*
X99429605Y-144750000D01*
X100242702Y-145563097D01*
X100486671Y-145491514D01*
X100500324Y-145462659D01*
X100635363Y-145664759D01*
X100835241Y-145864637D01*
X101070273Y-146021680D01*
X101331426Y-146129853D01*
X101608665Y-146185000D01*
X101891335Y-146185000D01*
X102168574Y-146129853D01*
X102429727Y-146021680D01*
X102664759Y-145864637D01*
X102864637Y-145664759D01*
X103021680Y-145429727D01*
X103129853Y-145168574D01*
X103185000Y-144891335D01*
X103185000Y-144608665D01*
X103129853Y-144331426D01*
X103021680Y-144070273D01*
X102864637Y-143835241D01*
X102664759Y-143635363D01*
X102429727Y-143478320D01*
X102168574Y-143370147D01*
X101891335Y-143315000D01*
X101608665Y-143315000D01*
X101331426Y-143370147D01*
X101070273Y-143478320D01*
X100835241Y-143635363D01*
X100635363Y-143835241D01*
X100501308Y-144035869D01*
X100486671Y-144008486D01*
X100242702Y-143936903D01*
X99429605Y-144750000D01*
X99070395Y-144750000D01*
X98257298Y-143936903D01*
X98013329Y-144008486D01*
X97892429Y-144263996D01*
X97823700Y-144538184D01*
X97809783Y-144820512D01*
X93660000Y-144820512D01*
X93660000Y-143757298D01*
X98436903Y-143757298D01*
X99250000Y-144570395D01*
X100063097Y-143757298D01*
X99991514Y-143513329D01*
X99736004Y-143392429D01*
X99461816Y-143323700D01*
X99179488Y-143309783D01*
X98899870Y-143351213D01*
X98633708Y-143446397D01*
X98508486Y-143513329D01*
X98436903Y-143757298D01*
X93660000Y-143757298D01*
X93660000Y-106410000D01*
X98632619Y-106410000D01*
X98573080Y-106438359D01*
G37*
X98573080Y-106438359D02*
X98339731Y-106612412D01*
X98144822Y-106828645D01*
X97995843Y-107078748D01*
X97898519Y-107353109D01*
X98019186Y-107583000D01*
X99213000Y-107583000D01*
X99213000Y-107563000D01*
X99467000Y-107563000D01*
X99467000Y-107583000D01*
X99487000Y-107583000D01*
X99487000Y-107837000D01*
X99467000Y-107837000D01*
X99467000Y-107857000D01*
X99213000Y-107857000D01*
X99213000Y-107837000D01*
X98019186Y-107837000D01*
X97898519Y-108066891D01*
X97995843Y-108341252D01*
X98144822Y-108591355D01*
X98339731Y-108807588D01*
X98569406Y-108978900D01*
X98393368Y-109096525D01*
X98186525Y-109303368D01*
X98024010Y-109546589D01*
X97912068Y-109816842D01*
X97855000Y-110103740D01*
X97855000Y-110396260D01*
X97912068Y-110683158D01*
X98024010Y-110953411D01*
X98186525Y-111196632D01*
X98393368Y-111403475D01*
X98636589Y-111565990D01*
X98906842Y-111677932D01*
X99193740Y-111735000D01*
X99486260Y-111735000D01*
X99773158Y-111677932D01*
X100043411Y-111565990D01*
X100286632Y-111403475D01*
X100493475Y-111196632D01*
X100610000Y-111022240D01*
X100726525Y-111196632D01*
X100933368Y-111403475D01*
X101176589Y-111565990D01*
X101446842Y-111677932D01*
X101733740Y-111735000D01*
X102026260Y-111735000D01*
X102098961Y-111720539D01*
X108473470Y-118095049D01*
X108501183Y-118128817D01*
X108534951Y-118156530D01*
X108534953Y-118156532D01*
X108590977Y-118202510D01*
X108635941Y-118239411D01*
X108789687Y-118321589D01*
X108956510Y-118372195D01*
X109086523Y-118385000D01*
X109086533Y-118385000D01*
X109129999Y-118389281D01*
X109173465Y-118385000D01*
X112961546Y-118385000D01*
X113009744Y-118417205D01*
X113198102Y-118495226D01*
X113398061Y-118535000D01*
X113601939Y-118535000D01*
X113801898Y-118495226D01*
X113990256Y-118417205D01*
X114159774Y-118303937D01*
X114303937Y-118159774D01*
X114407634Y-118004580D01*
X114462667Y-118010000D01*
X114462677Y-118010000D01*
X114500000Y-118013676D01*
X114537323Y-118010000D01*
X115736427Y-118010000D01*
X115656686Y-118202510D01*
X115603000Y-118472408D01*
X115603000Y-118747592D01*
X115656686Y-119017490D01*
X115761995Y-119271727D01*
X115914880Y-119500535D01*
X116109465Y-119695120D01*
X116338273Y-119848005D01*
X116415515Y-119880000D01*
X116338273Y-119911995D01*
X116109465Y-120064880D01*
X115914880Y-120259465D01*
X115761995Y-120488273D01*
X115656686Y-120742510D01*
X115603000Y-121012408D01*
X115603000Y-121287592D01*
X115656686Y-121557490D01*
X115761995Y-121811727D01*
X115914880Y-122040535D01*
X116109465Y-122235120D01*
X116338273Y-122388005D01*
X116415515Y-122420000D01*
X116338273Y-122451995D01*
X116109465Y-122604880D01*
X115914880Y-122799465D01*
X115761995Y-123028273D01*
X115656686Y-123282510D01*
X115603000Y-123552408D01*
X115603000Y-123827592D01*
X115656686Y-124097490D01*
X115761995Y-124351727D01*
X115914880Y-124580535D01*
X116109465Y-124775120D01*
X116338273Y-124928005D01*
X116415515Y-124960000D01*
X116338273Y-124991995D01*
X116109465Y-125144880D01*
X115914880Y-125339465D01*
X115761995Y-125568273D01*
X115656686Y-125822510D01*
X115603000Y-126092408D01*
X115603000Y-126367592D01*
X115656686Y-126637490D01*
X115761995Y-126891727D01*
X115914880Y-127120535D01*
X116109465Y-127315120D01*
X116338273Y-127468005D01*
X116415515Y-127500000D01*
X116338273Y-127531995D01*
X116109465Y-127684880D01*
X115914880Y-127879465D01*
X115761995Y-128108273D01*
X115656686Y-128362510D01*
X115603000Y-128632408D01*
X115603000Y-128907592D01*
X115656686Y-129177490D01*
X115761995Y-129431727D01*
X115914880Y-129660535D01*
X116109465Y-129855120D01*
X116338273Y-130008005D01*
X116409943Y-130037692D01*
X116396977Y-130042364D01*
X116281020Y-130104344D01*
X116214040Y-130344435D01*
X117000000Y-131130395D01*
X117785960Y-130344435D01*
X117718980Y-130104344D01*
X117583240Y-130040515D01*
X117661727Y-130008005D01*
X117890535Y-129855120D01*
X118085120Y-129660535D01*
X118238005Y-129431727D01*
X118343314Y-129177490D01*
X118397000Y-128907592D01*
X118397000Y-128632408D01*
X118343314Y-128362510D01*
X118238005Y-128108273D01*
X118085120Y-127879465D01*
X117890535Y-127684880D01*
X117661727Y-127531995D01*
X117584485Y-127500000D01*
X117661727Y-127468005D01*
X117890535Y-127315120D01*
X118085120Y-127120535D01*
X118238005Y-126891727D01*
X118343314Y-126637490D01*
X118397000Y-126367592D01*
X118397000Y-126092408D01*
X118343314Y-125822510D01*
X118238005Y-125568273D01*
X118085120Y-125339465D01*
X117890535Y-125144880D01*
X117661727Y-124991995D01*
X117584485Y-124960000D01*
X117661727Y-124928005D01*
X117890535Y-124775120D01*
X118085120Y-124580535D01*
X118238005Y-124351727D01*
X118343314Y-124097490D01*
X118397000Y-123827592D01*
X118397000Y-123552408D01*
X118343314Y-123282510D01*
X118238005Y-123028273D01*
X118085120Y-122799465D01*
X117890535Y-122604880D01*
X117661727Y-122451995D01*
X117584485Y-122420000D01*
X117661727Y-122388005D01*
X117890535Y-122235120D01*
X118085120Y-122040535D01*
X118238005Y-121811727D01*
X118343314Y-121557490D01*
X118397000Y-121287592D01*
X118397000Y-121012408D01*
X118343314Y-120742510D01*
X118238005Y-120488273D01*
X118085120Y-120259465D01*
X117890535Y-120064880D01*
X117661727Y-119911995D01*
X117584485Y-119880000D01*
X117661727Y-119848005D01*
X117890535Y-119695120D01*
X118085120Y-119500535D01*
X118238005Y-119271727D01*
X118343314Y-119017490D01*
X118397000Y-118747592D01*
X118397000Y-118472408D01*
X118343314Y-118202510D01*
X118263573Y-118010000D01*
X126685199Y-118010000D01*
X127490000Y-118814802D01*
X127490001Y-137462667D01*
X127486324Y-137500000D01*
X127500998Y-137648985D01*
X127544454Y-137792246D01*
X127615026Y-137924276D01*
X127686201Y-138011002D01*
X127710000Y-138040001D01*
X127738998Y-138063799D01*
X129116205Y-139441008D01*
X129139999Y-139470001D01*
X129168992Y-139493795D01*
X129168996Y-139493799D01*
X129239685Y-139551811D01*
X129255724Y-139564974D01*
X129387753Y-139635546D01*
X129531014Y-139679003D01*
X129642667Y-139690000D01*
X129642676Y-139690000D01*
X129679999Y-139693676D01*
X129717322Y-139690000D01*
X131067659Y-139690000D01*
X131154880Y-139820535D01*
X131349465Y-140015120D01*
X131578273Y-140168005D01*
X131655515Y-140200000D01*
X131578273Y-140231995D01*
X131349465Y-140384880D01*
X131154880Y-140579465D01*
X131001995Y-140808273D01*
X130896686Y-141062510D01*
X130843000Y-141332408D01*
X130843000Y-141607592D01*
X130896686Y-141877490D01*
X131001995Y-142131727D01*
X131154880Y-142360535D01*
X131349465Y-142555120D01*
X131578273Y-142708005D01*
X131655515Y-142740000D01*
X131578273Y-142771995D01*
X131349465Y-142924880D01*
X131154880Y-143119465D01*
X131001995Y-143348273D01*
X130896686Y-143602510D01*
X130843000Y-143872408D01*
X130843000Y-144147592D01*
X130896686Y-144417490D01*
X131001995Y-144671727D01*
X131154880Y-144900535D01*
X131349465Y-145095120D01*
X131578273Y-145248005D01*
X131655515Y-145280000D01*
X131578273Y-145311995D01*
X131349465Y-145464880D01*
X131154880Y-145659465D01*
X131001995Y-145888273D01*
X130896686Y-146142510D01*
X130843000Y-146412408D01*
X130843000Y-146687592D01*
X130896686Y-146957490D01*
X131001995Y-147211727D01*
X131154880Y-147440535D01*
X131349465Y-147635120D01*
X131578273Y-147788005D01*
X131655515Y-147820000D01*
X131578273Y-147851995D01*
X131349465Y-148004880D01*
X131154880Y-148199465D01*
X131001995Y-148428273D01*
X130896686Y-148682510D01*
X130843000Y-148952408D01*
X130843000Y-149227592D01*
X130896686Y-149497490D01*
X131001995Y-149751727D01*
X131154880Y-149980535D01*
X131349465Y-150175120D01*
X131578273Y-150328005D01*
X131655515Y-150360000D01*
X131578273Y-150391995D01*
X131349465Y-150544880D01*
X131154880Y-150739465D01*
X131001995Y-150968273D01*
X130896686Y-151222510D01*
X130843000Y-151492408D01*
X130843000Y-151767592D01*
X130896686Y-152037490D01*
X131001995Y-152291727D01*
X131154880Y-152520535D01*
X131349465Y-152715120D01*
X131578273Y-152868005D01*
X131655515Y-152900000D01*
X131578273Y-152931995D01*
X131349465Y-153084880D01*
X131154880Y-153279465D01*
X131001995Y-153508273D01*
X130896686Y-153762510D01*
X130843000Y-154032408D01*
X130843000Y-154307592D01*
X130896686Y-154577490D01*
X131001995Y-154831727D01*
X131154880Y-155060535D01*
X131349465Y-155255120D01*
X131578273Y-155408005D01*
X131655515Y-155440000D01*
X131578273Y-155471995D01*
X131349465Y-155624880D01*
X131154880Y-155819465D01*
X131001995Y-156048273D01*
X130896686Y-156302510D01*
X130843000Y-156572408D01*
X130843000Y-156847592D01*
X130896686Y-157117490D01*
X131001995Y-157371727D01*
X131154880Y-157600535D01*
X131349465Y-157795120D01*
X131578273Y-157948005D01*
X131655515Y-157980000D01*
X131578273Y-158011995D01*
X131349465Y-158164880D01*
X131154880Y-158359465D01*
X131001995Y-158588273D01*
X130896686Y-158842510D01*
X130843000Y-159112408D01*
X130843000Y-159387592D01*
X130896686Y-159657490D01*
X131001995Y-159911727D01*
X131154880Y-160140535D01*
X131349465Y-160335120D01*
X131578273Y-160488005D01*
X131655515Y-160520000D01*
X131578273Y-160551995D01*
X131349465Y-160704880D01*
X131154880Y-160899465D01*
X131001995Y-161128273D01*
X130896686Y-161382510D01*
X130843000Y-161652408D01*
X130843000Y-161927592D01*
X130896686Y-162197490D01*
X131001995Y-162451727D01*
X131154880Y-162680535D01*
X131349465Y-162875120D01*
X131578273Y-163028005D01*
X131655515Y-163060000D01*
X131578273Y-163091995D01*
X131349465Y-163244880D01*
X131154880Y-163439465D01*
X131001995Y-163668273D01*
X130896686Y-163922510D01*
X130843000Y-164192408D01*
X130843000Y-164467592D01*
X130896686Y-164737490D01*
X131001995Y-164991727D01*
X131154880Y-165220535D01*
X131349465Y-165415120D01*
X131578273Y-165568005D01*
X131649943Y-165597692D01*
X131636977Y-165602364D01*
X131521020Y-165664344D01*
X131454040Y-165904435D01*
X132240000Y-166690395D01*
X133025960Y-165904435D01*
X132958980Y-165664344D01*
X132823240Y-165600515D01*
X132901727Y-165568005D01*
X133130535Y-165415120D01*
X133325120Y-165220535D01*
X133478005Y-164991727D01*
X133583314Y-164737490D01*
X133637000Y-164467592D01*
X133637000Y-164192408D01*
X133606372Y-164038430D01*
X134761003Y-162883799D01*
X134790001Y-162860001D01*
X134884974Y-162744276D01*
X134955546Y-162612247D01*
X134999003Y-162468986D01*
X135010000Y-162357333D01*
X135010000Y-162357324D01*
X135013676Y-162320001D01*
X135010000Y-162282678D01*
X135010000Y-113064801D01*
X135789802Y-112285000D01*
X135851939Y-112285000D01*
X135880304Y-112279358D01*
X135946063Y-112377773D01*
X136090226Y-112521936D01*
X136259744Y-112635204D01*
X136448102Y-112713225D01*
X136648061Y-112752999D01*
X136851939Y-112752999D01*
X137051898Y-112713225D01*
X137240256Y-112635204D01*
X137409774Y-112521936D01*
X137553937Y-112377773D01*
X137667205Y-112208255D01*
X137745226Y-112019897D01*
X137785000Y-111819938D01*
X137785000Y-111616060D01*
X137745226Y-111416101D01*
X137667205Y-111227743D01*
X137635000Y-111179545D01*
X137635000Y-111035464D01*
X137639281Y-110991997D01*
X137635000Y-110948531D01*
X137635000Y-110948521D01*
X137622195Y-110818508D01*
X137571589Y-110651685D01*
X137489411Y-110497939D01*
X137378817Y-110363181D01*
X137345045Y-110335465D01*
X136814535Y-109804955D01*
X136786818Y-109771182D01*
X136652060Y-109660588D01*
X136498314Y-109578410D01*
X136331491Y-109527804D01*
X136201478Y-109514999D01*
X136201470Y-109514999D01*
X136158001Y-109510718D01*
X136114532Y-109514999D01*
X135516578Y-109514999D01*
X134261578Y-108260000D01*
X136605199Y-108260000D01*
X138268790Y-109923592D01*
X138225000Y-110143740D01*
X138225000Y-110436260D01*
X138282068Y-110723158D01*
X138394010Y-110993411D01*
X138556525Y-111236632D01*
X138763368Y-111443475D01*
X138950001Y-111568179D01*
X138950000Y-113672677D01*
X138946324Y-113710000D01*
X138950000Y-113747322D01*
X138950000Y-113747332D01*
X138960997Y-113858985D01*
X138984811Y-113937490D01*
X139004454Y-114002246D01*
X139075026Y-114134276D01*
X139095952Y-114159774D01*
X139169999Y-114250001D01*
X139199003Y-114273804D01*
X139798199Y-114873000D01*
X136000000Y-114873000D01*
X135975224Y-114875440D01*
X135951399Y-114882667D01*
X135929443Y-114894403D01*
X135910197Y-114910197D01*
X135894403Y-114929443D01*
X135882667Y-114951399D01*
X135875440Y-114975224D01*
X135873000Y-115000000D01*
X135873000Y-168840000D01*
X93660000Y-168840000D01*
X93660000Y-166732408D01*
X115603000Y-166732408D01*
X115603000Y-167007592D01*
X115656686Y-167277490D01*
X115761995Y-167531727D01*
X115914880Y-167760535D01*
X116109465Y-167955120D01*
X116338273Y-168108005D01*
X116592510Y-168213314D01*
X116862408Y-168267000D01*
X117137592Y-168267000D01*
X117407490Y-168213314D01*
X117661727Y-168108005D01*
X117890535Y-167955120D01*
X118010090Y-167835565D01*
X131454040Y-167835565D01*
X131521020Y-168075656D01*
X131770048Y-168192756D01*
X132037135Y-168259023D01*
X132312017Y-168271910D01*
X132584133Y-168230922D01*
X132843023Y-168137636D01*
X132958980Y-168075656D01*
X133025960Y-167835565D01*
X132240000Y-167049605D01*
X131454040Y-167835565D01*
X118010090Y-167835565D01*
X118085120Y-167760535D01*
X118238005Y-167531727D01*
X118343314Y-167277490D01*
X118397000Y-167007592D01*
X118397000Y-166942017D01*
X130838090Y-166942017D01*
X130879078Y-167214133D01*
X130972364Y-167473023D01*
X131034344Y-167588980D01*
X131274435Y-167655960D01*
X132060395Y-166870000D01*
X132419605Y-166870000D01*
X133205565Y-167655960D01*
X133445656Y-167588980D01*
X133562756Y-167339952D01*
X133629023Y-167072865D01*
X133641910Y-166797983D01*
X133600922Y-166525867D01*
X133507636Y-166266977D01*
X133445656Y-166151020D01*
X133205565Y-166084040D01*
X132419605Y-166870000D01*
X132060395Y-166870000D01*
X131274435Y-166084040D01*
X131034344Y-166151020D01*
X130917244Y-166400048D01*
X130850977Y-166667135D01*
X130838090Y-166942017D01*
X118397000Y-166942017D01*
X118397000Y-166732408D01*
X118343314Y-166462510D01*
X118238005Y-166208273D01*
X118085120Y-165979465D01*
X117890535Y-165784880D01*
X117661727Y-165631995D01*
X117590057Y-165602308D01*
X117603023Y-165597636D01*
X117718980Y-165535656D01*
X117785960Y-165295565D01*
X117000000Y-164509605D01*
X116214040Y-165295565D01*
X116281020Y-165535656D01*
X116416760Y-165599485D01*
X116338273Y-165631995D01*
X116109465Y-165784880D01*
X115914880Y-165979465D01*
X115761995Y-166208273D01*
X115656686Y-166462510D01*
X115603000Y-166732408D01*
X93660000Y-166732408D01*
X93660000Y-164424636D01*
X96324969Y-164424636D01*
X96393489Y-164666023D01*
X96644683Y-164784393D01*
X96914143Y-164851483D01*
X97191514Y-164864714D01*
X97466137Y-164823579D01*
X97727458Y-164729658D01*
X97846511Y-164666023D01*
X97915031Y-164424636D01*
X97120000Y-163629605D01*
X96324969Y-164424636D01*
X93660000Y-164424636D01*
X93660000Y-163521514D01*
X95705286Y-163521514D01*
X95746421Y-163796137D01*
X95840342Y-164057458D01*
X95903977Y-164176511D01*
X96145364Y-164245031D01*
X96940395Y-163450000D01*
X97299605Y-163450000D01*
X98094636Y-164245031D01*
X98336023Y-164176511D01*
X98454393Y-163925317D01*
X98521483Y-163655857D01*
X98534714Y-163378486D01*
X98521634Y-163291157D01*
X105820300Y-163291157D01*
X105820300Y-163568843D01*
X105874474Y-163841194D01*
X105980740Y-164097743D01*
X106135014Y-164328631D01*
X106331369Y-164524986D01*
X106562257Y-164679260D01*
X106818806Y-164785526D01*
X107091157Y-164839700D01*
X107368843Y-164839700D01*
X107641194Y-164785526D01*
X107897743Y-164679260D01*
X108128631Y-164524986D01*
X108251600Y-164402017D01*
X115598090Y-164402017D01*
X115639078Y-164674133D01*
X115732364Y-164933023D01*
X115794344Y-165048980D01*
X116034435Y-165115960D01*
X116820395Y-164330000D01*
X117179605Y-164330000D01*
X117965565Y-165115960D01*
X118205656Y-165048980D01*
X118322756Y-164799952D01*
X118389023Y-164532865D01*
X118401910Y-164257983D01*
X118360922Y-163985867D01*
X118267636Y-163726977D01*
X118205656Y-163611020D01*
X117965565Y-163544040D01*
X117179605Y-164330000D01*
X116820395Y-164330000D01*
X116034435Y-163544040D01*
X115794344Y-163611020D01*
X115677244Y-163860048D01*
X115610977Y-164127135D01*
X115598090Y-164402017D01*
X108251600Y-164402017D01*
X108324986Y-164328631D01*
X108479260Y-164097743D01*
X108585526Y-163841194D01*
X108639700Y-163568843D01*
X108639700Y-163291157D01*
X108585526Y-163018806D01*
X108479260Y-162762257D01*
X108324986Y-162531369D01*
X108128631Y-162335014D01*
X107897743Y-162180740D01*
X107641194Y-162074474D01*
X107368843Y-162020300D01*
X107091157Y-162020300D01*
X106818806Y-162074474D01*
X106562257Y-162180740D01*
X106331369Y-162335014D01*
X106135014Y-162531369D01*
X105980740Y-162762257D01*
X105874474Y-163018806D01*
X105820300Y-163291157D01*
X98521634Y-163291157D01*
X98493579Y-163103863D01*
X98399658Y-162842542D01*
X98336023Y-162723489D01*
X98094636Y-162654969D01*
X97299605Y-163450000D01*
X96940395Y-163450000D01*
X96145364Y-162654969D01*
X95903977Y-162723489D01*
X95785607Y-162974683D01*
X95718517Y-163244143D01*
X95705286Y-163521514D01*
X93660000Y-163521514D01*
X93660000Y-162475364D01*
X96324969Y-162475364D01*
X97120000Y-163270395D01*
X97915031Y-162475364D01*
X97846511Y-162233977D01*
X97595317Y-162115607D01*
X97325857Y-162048517D01*
X97048486Y-162035286D01*
X96773863Y-162076421D01*
X96512542Y-162170342D01*
X96393489Y-162233977D01*
X96324969Y-162475364D01*
X93660000Y-162475364D01*
X93660000Y-155153638D01*
X93880902Y-155153638D01*
X93880902Y-155486362D01*
X93945813Y-155812692D01*
X94073141Y-156120089D01*
X94257992Y-156396739D01*
X94493263Y-156632010D01*
X94769913Y-156816861D01*
X95077310Y-156944189D01*
X95403640Y-157009100D01*
X95615040Y-157009100D01*
X95501590Y-157178890D01*
X95312035Y-157636518D01*
X95215400Y-158122334D01*
X95215400Y-158617666D01*
X95312035Y-159103482D01*
X95501590Y-159561110D01*
X95776783Y-159972964D01*
X96127036Y-160323217D01*
X96538890Y-160598410D01*
X96996518Y-160787965D01*
X97482334Y-160884600D01*
X97977666Y-160884600D01*
X98463482Y-160787965D01*
X98710903Y-160685480D01*
X98565014Y-160831369D01*
X98410740Y-161062257D01*
X98304474Y-161318806D01*
X98250300Y-161591157D01*
X98250300Y-161868843D01*
X98304474Y-162141194D01*
X98410740Y-162397743D01*
X98565014Y-162628631D01*
X98761369Y-162824986D01*
X98992257Y-162979260D01*
X99248806Y-163085526D01*
X99521157Y-163139700D01*
X99798843Y-163139700D01*
X100071194Y-163085526D01*
X100327743Y-162979260D01*
X100558631Y-162824986D01*
X100754986Y-162628631D01*
X100909260Y-162397743D01*
X101015526Y-162141194D01*
X101069700Y-161868843D01*
X101069700Y-161591157D01*
X101037172Y-161427629D01*
X101130201Y-161334601D01*
X108411332Y-161334601D01*
X108360300Y-161591157D01*
X108360300Y-161868843D01*
X108414474Y-162141194D01*
X108520740Y-162397743D01*
X108675014Y-162628631D01*
X108871369Y-162824986D01*
X109102257Y-162979260D01*
X109358806Y-163085526D01*
X109631157Y-163139700D01*
X109908843Y-163139700D01*
X110181194Y-163085526D01*
X110437743Y-162979260D01*
X110668631Y-162824986D01*
X110864986Y-162628631D01*
X111019260Y-162397743D01*
X111125526Y-162141194D01*
X111179700Y-161868843D01*
X111179700Y-161591157D01*
X111128668Y-161334601D01*
X115676531Y-161334601D01*
X115656686Y-161382510D01*
X115603000Y-161652408D01*
X115603000Y-161927592D01*
X115656686Y-162197490D01*
X115761995Y-162451727D01*
X115914880Y-162680535D01*
X116109465Y-162875120D01*
X116338273Y-163028005D01*
X116409943Y-163057692D01*
X116396977Y-163062364D01*
X116281020Y-163124344D01*
X116214040Y-163364435D01*
X117000000Y-164150395D01*
X117785960Y-163364435D01*
X117718980Y-163124344D01*
X117583240Y-163060515D01*
X117661727Y-163028005D01*
X117890535Y-162875120D01*
X118085120Y-162680535D01*
X118238005Y-162451727D01*
X118343314Y-162197490D01*
X118397000Y-161927592D01*
X118397000Y-161652408D01*
X118343314Y-161382510D01*
X118238005Y-161128273D01*
X118211498Y-161088602D01*
X118213963Y-161085598D01*
X122511003Y-156788559D01*
X122540001Y-156764761D01*
X122578385Y-156717990D01*
X122634974Y-156649037D01*
X122705546Y-156517007D01*
X122713202Y-156491768D01*
X122749003Y-156373746D01*
X122760000Y-156262093D01*
X122760000Y-156262084D01*
X122763676Y-156224761D01*
X122760000Y-156187438D01*
X122760000Y-155067709D01*
X122835077Y-155017544D01*
X123000000Y-154852621D01*
X123164923Y-155017544D01*
X123379482Y-155160907D01*
X123617887Y-155259658D01*
X123870976Y-155310000D01*
X124129024Y-155310000D01*
X124382113Y-155259658D01*
X124620518Y-155160907D01*
X124835077Y-155017544D01*
X125017544Y-154835077D01*
X125160907Y-154620518D01*
X125259658Y-154382113D01*
X125310000Y-154129024D01*
X125310000Y-153870976D01*
X125259658Y-153617887D01*
X125185000Y-153437647D01*
X125185000Y-153297448D01*
X125469198Y-153013251D01*
X125497238Y-152990239D01*
X125520251Y-152962198D01*
X125520254Y-152962195D01*
X125589088Y-152878321D01*
X125657338Y-152750635D01*
X125699366Y-152612086D01*
X125713557Y-152468001D01*
X125710001Y-152431896D01*
X125710001Y-151568104D01*
X125713557Y-151531999D01*
X125699366Y-151387914D01*
X125657338Y-151249365D01*
X125589088Y-151121679D01*
X125567040Y-151094814D01*
X125497239Y-151009761D01*
X125469193Y-150986745D01*
X125154422Y-150671974D01*
X125132337Y-150599168D01*
X125064087Y-150471480D01*
X124972238Y-150359562D01*
X124944187Y-150336541D01*
X124638459Y-150030813D01*
X124615438Y-150002762D01*
X124503520Y-149910913D01*
X124375833Y-149842663D01*
X124237285Y-149800635D01*
X124129305Y-149790000D01*
X124093200Y-149786444D01*
X124057095Y-149790000D01*
X118212432Y-149790000D01*
X118238005Y-149751727D01*
X118343314Y-149497490D01*
X118397000Y-149227592D01*
X118397000Y-148952408D01*
X118343314Y-148682510D01*
X118238005Y-148428273D01*
X118085120Y-148199465D01*
X117890535Y-148004880D01*
X117661727Y-147851995D01*
X117584485Y-147820000D01*
X117661727Y-147788005D01*
X117890535Y-147635120D01*
X118085120Y-147440535D01*
X118238005Y-147211727D01*
X118343314Y-146957490D01*
X118397000Y-146687592D01*
X118397000Y-146412408D01*
X118343314Y-146142510D01*
X118238005Y-145888273D01*
X118085120Y-145659465D01*
X117890535Y-145464880D01*
X117661727Y-145311995D01*
X117584485Y-145280000D01*
X117661727Y-145248005D01*
X117890535Y-145095120D01*
X118085120Y-144900535D01*
X118238005Y-144671727D01*
X118343314Y-144417490D01*
X118397000Y-144147592D01*
X118397000Y-143872408D01*
X118343314Y-143602510D01*
X118238005Y-143348273D01*
X118085120Y-143119465D01*
X117890535Y-142924880D01*
X117661727Y-142771995D01*
X117584485Y-142740000D01*
X117661727Y-142708005D01*
X117890535Y-142555120D01*
X118085120Y-142360535D01*
X118238005Y-142131727D01*
X118343314Y-141877490D01*
X118397000Y-141607592D01*
X118397000Y-141332408D01*
X118343314Y-141062510D01*
X118238005Y-140808273D01*
X118085120Y-140579465D01*
X117890535Y-140384880D01*
X117661727Y-140231995D01*
X117584485Y-140200000D01*
X117661727Y-140168005D01*
X117890535Y-140015120D01*
X118085120Y-139820535D01*
X118238005Y-139591727D01*
X118343314Y-139337490D01*
X118397000Y-139067592D01*
X118397000Y-138792408D01*
X118343314Y-138522510D01*
X118238005Y-138268273D01*
X118085120Y-138039465D01*
X117890535Y-137844880D01*
X117661727Y-137691995D01*
X117584485Y-137660000D01*
X117661727Y-137628005D01*
X117890535Y-137475120D01*
X118085120Y-137280535D01*
X118238005Y-137051727D01*
X118343314Y-136797490D01*
X118397000Y-136527592D01*
X118397000Y-136252408D01*
X118343314Y-135982510D01*
X118238005Y-135728273D01*
X118085120Y-135499465D01*
X117890535Y-135304880D01*
X117661727Y-135151995D01*
X117584485Y-135120000D01*
X117661727Y-135088005D01*
X117890535Y-134935120D01*
X118085120Y-134740535D01*
X118238005Y-134511727D01*
X118343314Y-134257490D01*
X118397000Y-133987592D01*
X118397000Y-133712408D01*
X118343314Y-133442510D01*
X118238005Y-133188273D01*
X118085120Y-132959465D01*
X117890535Y-132764880D01*
X117661727Y-132611995D01*
X117590057Y-132582308D01*
X117603023Y-132577636D01*
X117718980Y-132515656D01*
X117785960Y-132275565D01*
X117000000Y-131489605D01*
X116214040Y-132275565D01*
X116281020Y-132515656D01*
X116416760Y-132579485D01*
X116338273Y-132611995D01*
X116109465Y-132764880D01*
X115914880Y-132959465D01*
X115827659Y-133090000D01*
X114664802Y-133090000D01*
X113510000Y-131935199D01*
X113510000Y-131382017D01*
X115598090Y-131382017D01*
X115639078Y-131654133D01*
X115732364Y-131913023D01*
X115794344Y-132028980D01*
X116034435Y-132095960D01*
X116820395Y-131310000D01*
X117179605Y-131310000D01*
X117965565Y-132095960D01*
X118205656Y-132028980D01*
X118322756Y-131779952D01*
X118389023Y-131512865D01*
X118401910Y-131237983D01*
X118360922Y-130965867D01*
X118267636Y-130706977D01*
X118205656Y-130591020D01*
X117965565Y-130524040D01*
X117179605Y-131310000D01*
X116820395Y-131310000D01*
X116034435Y-130524040D01*
X115794344Y-130591020D01*
X115677244Y-130840048D01*
X115610977Y-131107135D01*
X115598090Y-131382017D01*
X113510000Y-131382017D01*
X113510000Y-120703711D01*
X113553937Y-120659774D01*
X113667205Y-120490256D01*
X113745226Y-120301898D01*
X113785000Y-120101939D01*
X113785000Y-119898061D01*
X113745226Y-119698102D01*
X113667205Y-119509744D01*
X113553937Y-119340226D01*
X113409774Y-119196063D01*
X113240256Y-119082795D01*
X113051898Y-119004774D01*
X112851939Y-118965000D01*
X112648061Y-118965000D01*
X112448102Y-119004774D01*
X112259744Y-119082795D01*
X112090226Y-119196063D01*
X111946063Y-119340226D01*
X111832795Y-119509744D01*
X111754774Y-119698102D01*
X111715000Y-119898061D01*
X111715000Y-120101939D01*
X111754774Y-120301898D01*
X111832795Y-120490256D01*
X111946063Y-120659774D01*
X111990000Y-120703711D01*
X111990001Y-132212668D01*
X111986324Y-132250000D01*
X112000998Y-132398985D01*
X112044454Y-132542246D01*
X112115026Y-132674276D01*
X112145912Y-132711910D01*
X112210000Y-132790001D01*
X112238998Y-132813799D01*
X113786201Y-134361003D01*
X113809999Y-134390001D01*
X113925724Y-134484974D01*
X114057753Y-134555546D01*
X114201014Y-134599003D01*
X114312667Y-134610000D01*
X114312675Y-134610000D01*
X114350000Y-134613676D01*
X114387325Y-134610000D01*
X115827659Y-134610000D01*
X115914880Y-134740535D01*
X116109465Y-134935120D01*
X116338273Y-135088005D01*
X116415515Y-135120000D01*
X116338273Y-135151995D01*
X116109465Y-135304880D01*
X115914880Y-135499465D01*
X115761995Y-135728273D01*
X115656686Y-135982510D01*
X115603000Y-136252408D01*
X115603000Y-136527592D01*
X115656686Y-136797490D01*
X115761995Y-137051727D01*
X115914880Y-137280535D01*
X116109465Y-137475120D01*
X116338273Y-137628005D01*
X116415515Y-137660000D01*
X116338273Y-137691995D01*
X116109465Y-137844880D01*
X115914880Y-138039465D01*
X115761995Y-138268273D01*
X115656686Y-138522510D01*
X115603000Y-138792408D01*
X115603000Y-139067592D01*
X115656686Y-139337490D01*
X115761995Y-139591727D01*
X115914880Y-139820535D01*
X116109465Y-140015120D01*
X116338273Y-140168005D01*
X116415515Y-140200000D01*
X116338273Y-140231995D01*
X116109465Y-140384880D01*
X115914880Y-140579465D01*
X115761995Y-140808273D01*
X115656686Y-141062510D01*
X115603000Y-141332408D01*
X115603000Y-141607592D01*
X115656686Y-141877490D01*
X115761995Y-142131727D01*
X115914880Y-142360535D01*
X116109465Y-142555120D01*
X116338273Y-142708005D01*
X116415515Y-142740000D01*
X116338273Y-142771995D01*
X116109465Y-142924880D01*
X115914880Y-143119465D01*
X115761995Y-143348273D01*
X115656686Y-143602510D01*
X115603000Y-143872408D01*
X115603000Y-144147592D01*
X115656686Y-144417490D01*
X115761995Y-144671727D01*
X115914880Y-144900535D01*
X116109465Y-145095120D01*
X116338273Y-145248005D01*
X116415515Y-145280000D01*
X116338273Y-145311995D01*
X116109465Y-145464880D01*
X115914880Y-145659465D01*
X115761995Y-145888273D01*
X115656686Y-146142510D01*
X115603000Y-146412408D01*
X115603000Y-146687592D01*
X115656686Y-146957490D01*
X115761995Y-147211727D01*
X115914880Y-147440535D01*
X116109465Y-147635120D01*
X116338273Y-147788005D01*
X116415515Y-147820000D01*
X116338273Y-147851995D01*
X116109465Y-148004880D01*
X115914880Y-148199465D01*
X115761995Y-148428273D01*
X115656686Y-148682510D01*
X115603000Y-148952408D01*
X115603000Y-149227592D01*
X115656686Y-149497490D01*
X115761995Y-149751727D01*
X115787568Y-149790000D01*
X112397647Y-149790000D01*
X109888459Y-147280813D01*
X109865438Y-147252762D01*
X109753520Y-147160913D01*
X109625833Y-147092663D01*
X109487285Y-147050635D01*
X109379305Y-147040000D01*
X109343200Y-147036444D01*
X109307095Y-147040000D01*
X99642784Y-147040000D01*
X99606689Y-147036445D01*
X99570594Y-147040000D01*
X99570585Y-147040000D01*
X99462605Y-147050635D01*
X99324057Y-147092663D01*
X99196370Y-147160913D01*
X99084452Y-147252762D01*
X99061436Y-147280807D01*
X98280808Y-148061436D01*
X98252762Y-148084453D01*
X98160913Y-148196371D01*
X98092663Y-148324058D01*
X98074853Y-148382770D01*
X98050635Y-148462605D01*
X98036444Y-148606690D01*
X98040000Y-148642796D01*
X98040001Y-149517085D01*
X98036444Y-149553199D01*
X98050635Y-149697284D01*
X98074854Y-149777120D01*
X98092664Y-149835832D01*
X98160914Y-149963519D01*
X98252763Y-150075437D01*
X98265000Y-150085480D01*
X98265000Y-150887324D01*
X98149943Y-150964203D01*
X97964203Y-151149943D01*
X97818268Y-151368351D01*
X97717746Y-151611032D01*
X97666500Y-151868662D01*
X97666500Y-152131338D01*
X97717746Y-152388968D01*
X97818268Y-152631649D01*
X97964203Y-152850057D01*
X98149943Y-153035797D01*
X98368351Y-153181732D01*
X98611032Y-153282254D01*
X98868662Y-153333500D01*
X99131338Y-153333500D01*
X99388968Y-153282254D01*
X99631649Y-153181732D01*
X99850057Y-153035797D01*
X100035797Y-152850057D01*
X100181732Y-152631649D01*
X100270000Y-152418552D01*
X100358268Y-152631649D01*
X100504203Y-152850057D01*
X100689943Y-153035797D01*
X100908351Y-153181732D01*
X101151032Y-153282254D01*
X101408662Y-153333500D01*
X101671338Y-153333500D01*
X101928968Y-153282254D01*
X102171649Y-153181732D01*
X102390057Y-153035797D01*
X102575797Y-152850057D01*
X102721732Y-152631649D01*
X102810000Y-152418552D01*
X102898268Y-152631649D01*
X103044203Y-152850057D01*
X103229943Y-153035797D01*
X103448351Y-153181732D01*
X103691032Y-153282254D01*
X103948662Y-153333500D01*
X104211338Y-153333500D01*
X104468968Y-153282254D01*
X104711649Y-153181732D01*
X104930057Y-153035797D01*
X105115797Y-152850057D01*
X105261732Y-152631649D01*
X105350000Y-152418552D01*
X105438268Y-152631649D01*
X105584203Y-152850057D01*
X105769943Y-153035797D01*
X105988351Y-153181732D01*
X106231032Y-153282254D01*
X106488662Y-153333500D01*
X106751338Y-153333500D01*
X107008968Y-153282254D01*
X107251649Y-153181732D01*
X107470057Y-153035797D01*
X107519104Y-152986750D01*
X108251547Y-153719193D01*
X108274563Y-153747238D01*
X108366320Y-153822541D01*
X108386481Y-153839087D01*
X108514167Y-153907337D01*
X108652716Y-153949365D01*
X108796801Y-153963556D01*
X108832906Y-153960000D01*
X110315081Y-153960000D01*
X110243259Y-154007990D01*
X110007988Y-154243261D01*
X109823137Y-154519911D01*
X109695809Y-154827308D01*
X109630898Y-155153638D01*
X109630898Y-155486362D01*
X109695809Y-155812692D01*
X109740960Y-155921696D01*
X109407666Y-155855400D01*
X108912334Y-155855400D01*
X108426518Y-155952035D01*
X107968890Y-156141590D01*
X107557036Y-156416783D01*
X107206783Y-156767036D01*
X106931590Y-157178890D01*
X106742035Y-157636518D01*
X106645400Y-158122334D01*
X106645400Y-158617666D01*
X106742035Y-159103482D01*
X106931590Y-159561110D01*
X107100968Y-159814601D01*
X100852722Y-159814601D01*
X100815399Y-159810925D01*
X100778076Y-159814601D01*
X100778066Y-159814601D01*
X100666413Y-159825598D01*
X100523152Y-159869055D01*
X100391122Y-159939627D01*
X100307482Y-160008269D01*
X100275398Y-160034600D01*
X100251600Y-160063598D01*
X99962371Y-160352828D01*
X99798843Y-160320300D01*
X99521157Y-160320300D01*
X99259409Y-160372365D01*
X99332964Y-160323217D01*
X99683217Y-159972964D01*
X99958410Y-159561110D01*
X100147965Y-159103482D01*
X100244600Y-158617666D01*
X100244600Y-158122334D01*
X100147965Y-157636518D01*
X99958410Y-157178890D01*
X99683217Y-156767036D01*
X99332964Y-156416783D01*
X98921110Y-156141590D01*
X98463482Y-155952035D01*
X97977666Y-155855400D01*
X97482334Y-155855400D01*
X97149040Y-155921696D01*
X97194191Y-155812692D01*
X97259102Y-155486362D01*
X97259102Y-155153638D01*
X97194191Y-154827308D01*
X97066863Y-154519911D01*
X96882012Y-154243261D01*
X96646741Y-154007990D01*
X96370091Y-153823139D01*
X96062694Y-153695811D01*
X95736364Y-153630900D01*
X95403640Y-153630900D01*
X95077310Y-153695811D01*
X94769913Y-153823139D01*
X94493263Y-154007990D01*
X94257992Y-154243261D01*
X94073141Y-154519911D01*
X93945813Y-154827308D01*
X93880902Y-155153638D01*
X93660000Y-155153638D01*
X93660000Y-145742702D01*
X98436903Y-145742702D01*
X98508486Y-145986671D01*
X98763996Y-146107571D01*
X99038184Y-146176300D01*
X99320512Y-146190217D01*
X99600130Y-146148787D01*
X99866292Y-146053603D01*
X99991514Y-145986671D01*
X100063097Y-145742702D01*
X99250000Y-144929605D01*
X98436903Y-145742702D01*
X93660000Y-145742702D01*
X93660000Y-144820512D01*
X97809783Y-144820512D01*
X97851213Y-145100130D01*
X97946397Y-145366292D01*
X98013329Y-145491514D01*
X98257298Y-145563097D01*
X99070395Y-144750000D01*
X99429605Y-144750000D01*
X100242702Y-145563097D01*
X100486671Y-145491514D01*
X100500324Y-145462659D01*
X100635363Y-145664759D01*
X100835241Y-145864637D01*
X101070273Y-146021680D01*
X101331426Y-146129853D01*
X101608665Y-146185000D01*
X101891335Y-146185000D01*
X102168574Y-146129853D01*
X102429727Y-146021680D01*
X102664759Y-145864637D01*
X102864637Y-145664759D01*
X103021680Y-145429727D01*
X103129853Y-145168574D01*
X103185000Y-144891335D01*
X103185000Y-144608665D01*
X103129853Y-144331426D01*
X103021680Y-144070273D01*
X102864637Y-143835241D01*
X102664759Y-143635363D01*
X102429727Y-143478320D01*
X102168574Y-143370147D01*
X101891335Y-143315000D01*
X101608665Y-143315000D01*
X101331426Y-143370147D01*
X101070273Y-143478320D01*
X100835241Y-143635363D01*
X100635363Y-143835241D01*
X100501308Y-144035869D01*
X100486671Y-144008486D01*
X100242702Y-143936903D01*
X99429605Y-144750000D01*
X99070395Y-144750000D01*
X98257298Y-143936903D01*
X98013329Y-144008486D01*
X97892429Y-144263996D01*
X97823700Y-144538184D01*
X97809783Y-144820512D01*
X93660000Y-144820512D01*
X93660000Y-143757298D01*
X98436903Y-143757298D01*
X99250000Y-144570395D01*
X100063097Y-143757298D01*
X99991514Y-143513329D01*
X99736004Y-143392429D01*
X99461816Y-143323700D01*
X99179488Y-143309783D01*
X98899870Y-143351213D01*
X98633708Y-143446397D01*
X98508486Y-143513329D01*
X98436903Y-143757298D01*
X93660000Y-143757298D01*
X93660000Y-106410000D01*
X98632619Y-106410000D01*
X98573080Y-106438359D01*
G36*
X122127000Y-151873000D02*
G01*
X122147000Y-151873000D01*
X122147000Y-152127000D01*
X122127000Y-152127000D01*
X122127000Y-152147000D01*
X121873000Y-152147000D01*
X121873000Y-152127000D01*
X121853000Y-152127000D01*
X121853000Y-151873000D01*
X121873000Y-151873000D01*
X121873000Y-151853000D01*
X122127000Y-151853000D01*
X122127000Y-151873000D01*
G37*
X122127000Y-151873000D02*
X122147000Y-151873000D01*
X122147000Y-152127000D01*
X122127000Y-152127000D01*
X122127000Y-152147000D01*
X121873000Y-152147000D01*
X121873000Y-152127000D01*
X121853000Y-152127000D01*
X121853000Y-151873000D01*
X121873000Y-151873000D01*
X121873000Y-151853000D01*
X122127000Y-151853000D01*
X122127000Y-151873000D01*
G36*
X155615001Y-112822578D02*
G01*
X155615001Y-114873000D01*
X146124578Y-114873000D01*
X143135000Y-111883422D01*
X143135000Y-111484656D01*
X143196632Y-111443475D01*
X143403475Y-111236632D01*
X143525195Y-111054466D01*
X143594822Y-111171355D01*
X143789731Y-111387588D01*
X144023080Y-111561641D01*
X144285901Y-111686825D01*
X144433110Y-111731476D01*
X144663000Y-111610155D01*
X144663000Y-110417000D01*
X144643000Y-110417000D01*
X144643000Y-110163000D01*
X144663000Y-110163000D01*
X144663000Y-110143000D01*
X144917000Y-110143000D01*
X144917000Y-110163000D01*
X144937000Y-110163000D01*
X144937000Y-110417000D01*
X144917000Y-110417000D01*
X144917000Y-111610155D01*
X145146890Y-111731476D01*
X145294099Y-111686825D01*
X145556920Y-111561641D01*
X145790269Y-111387588D01*
X145985178Y-111171355D01*
X146054805Y-111054466D01*
X146176525Y-111236632D01*
X146383368Y-111443475D01*
X146626589Y-111605990D01*
X146896842Y-111717932D01*
X147183740Y-111775000D01*
X147476260Y-111775000D01*
X147763158Y-111717932D01*
X148033411Y-111605990D01*
X148276632Y-111443475D01*
X148408487Y-111311620D01*
X148430498Y-111384180D01*
X148489463Y-111494494D01*
X148568815Y-111591185D01*
X148665506Y-111670537D01*
X148775820Y-111729502D01*
X148895518Y-111765812D01*
X149020000Y-111778072D01*
X150720000Y-111778072D01*
X150844482Y-111765812D01*
X150964180Y-111729502D01*
X151074494Y-111670537D01*
X151171185Y-111591185D01*
X151250537Y-111494494D01*
X151309502Y-111384180D01*
X151345812Y-111264482D01*
X151358072Y-111140000D01*
X151358072Y-109440000D01*
X151345812Y-109315518D01*
X151309502Y-109195820D01*
X151250537Y-109085506D01*
X151171185Y-108988815D01*
X151074494Y-108909463D01*
X150964180Y-108850498D01*
X150891620Y-108828487D01*
X151023475Y-108696632D01*
X151185990Y-108453411D01*
X151203518Y-108411094D01*
X155615001Y-112822578D01*
G37*
X155615001Y-112822578D02*
X155615001Y-114873000D01*
X146124578Y-114873000D01*
X143135000Y-111883422D01*
X143135000Y-111484656D01*
X143196632Y-111443475D01*
X143403475Y-111236632D01*
X143525195Y-111054466D01*
X143594822Y-111171355D01*
X143789731Y-111387588D01*
X144023080Y-111561641D01*
X144285901Y-111686825D01*
X144433110Y-111731476D01*
X144663000Y-111610155D01*
X144663000Y-110417000D01*
X144643000Y-110417000D01*
X144643000Y-110163000D01*
X144663000Y-110163000D01*
X144663000Y-110143000D01*
X144917000Y-110143000D01*
X144917000Y-110163000D01*
X144937000Y-110163000D01*
X144937000Y-110417000D01*
X144917000Y-110417000D01*
X144917000Y-111610155D01*
X145146890Y-111731476D01*
X145294099Y-111686825D01*
X145556920Y-111561641D01*
X145790269Y-111387588D01*
X145985178Y-111171355D01*
X146054805Y-111054466D01*
X146176525Y-111236632D01*
X146383368Y-111443475D01*
X146626589Y-111605990D01*
X146896842Y-111717932D01*
X147183740Y-111775000D01*
X147476260Y-111775000D01*
X147763158Y-111717932D01*
X148033411Y-111605990D01*
X148276632Y-111443475D01*
X148408487Y-111311620D01*
X148430498Y-111384180D01*
X148489463Y-111494494D01*
X148568815Y-111591185D01*
X148665506Y-111670537D01*
X148775820Y-111729502D01*
X148895518Y-111765812D01*
X149020000Y-111778072D01*
X150720000Y-111778072D01*
X150844482Y-111765812D01*
X150964180Y-111729502D01*
X151074494Y-111670537D01*
X151171185Y-111591185D01*
X151250537Y-111494494D01*
X151309502Y-111384180D01*
X151345812Y-111264482D01*
X151358072Y-111140000D01*
X151358072Y-109440000D01*
X151345812Y-109315518D01*
X151309502Y-109195820D01*
X151250537Y-109085506D01*
X151171185Y-108988815D01*
X151074494Y-108909463D01*
X150964180Y-108850498D01*
X150891620Y-108828487D01*
X151023475Y-108696632D01*
X151185990Y-108453411D01*
X151203518Y-108411094D01*
X155615001Y-112822578D01*
G36*
X104547000Y-110123000D02*
G01*
X104567000Y-110123000D01*
X104567000Y-110377000D01*
X104547000Y-110377000D01*
X104547000Y-110397000D01*
X104293000Y-110397000D01*
X104293000Y-110377000D01*
X104273000Y-110377000D01*
X104273000Y-110123000D01*
X104293000Y-110123000D01*
X104293000Y-110103000D01*
X104547000Y-110103000D01*
X104547000Y-110123000D01*
G37*
X104547000Y-110123000D02*
X104567000Y-110123000D01*
X104567000Y-110377000D01*
X104547000Y-110377000D01*
X104547000Y-110397000D01*
X104293000Y-110397000D01*
X104293000Y-110377000D01*
X104273000Y-110377000D01*
X104273000Y-110123000D01*
X104293000Y-110123000D01*
X104293000Y-110103000D01*
X104547000Y-110103000D01*
X104547000Y-110123000D01*
G36*
X139837000Y-107623000D02*
G01*
X139857000Y-107623000D01*
X139857000Y-107877000D01*
X139837000Y-107877000D01*
X139837000Y-107897000D01*
X139583000Y-107897000D01*
X139583000Y-107877000D01*
X139563000Y-107877000D01*
X139563000Y-107623000D01*
X139583000Y-107623000D01*
X139583000Y-107603000D01*
X139837000Y-107603000D01*
X139837000Y-107623000D01*
G37*
X139837000Y-107623000D02*
X139857000Y-107623000D01*
X139857000Y-107877000D01*
X139837000Y-107877000D01*
X139837000Y-107897000D01*
X139583000Y-107897000D01*
X139583000Y-107877000D01*
X139563000Y-107877000D01*
X139563000Y-107623000D01*
X139583000Y-107623000D01*
X139583000Y-107603000D01*
X139837000Y-107603000D01*
X139837000Y-107623000D01*
G36*
X140490001Y-115832155D02*
G01*
X140382708Y-115920208D01*
X140377492Y-115926564D01*
X140313685Y-115848815D01*
X140216994Y-115769463D01*
X140106680Y-115710498D01*
X139986982Y-115674188D01*
X139862500Y-115661928D01*
X139660750Y-115665000D01*
X139502000Y-115823750D01*
X139502000Y-116873000D01*
X139522000Y-116873000D01*
X139522000Y-117127000D01*
X139502000Y-117127000D01*
X139502000Y-118176250D01*
X139660750Y-118335000D01*
X139862500Y-118338072D01*
X139986982Y-118325812D01*
X140106680Y-118289502D01*
X140216994Y-118230537D01*
X140313685Y-118151185D01*
X140377492Y-118073436D01*
X140382708Y-118079792D01*
X140510001Y-118184259D01*
X140510000Y-118728142D01*
X140451582Y-118696916D01*
X140303745Y-118652071D01*
X140150000Y-118636928D01*
X139850000Y-118636928D01*
X139696255Y-118652071D01*
X139548418Y-118696916D01*
X139412171Y-118769742D01*
X139365000Y-118808454D01*
X139317829Y-118769742D01*
X139181582Y-118696916D01*
X139033745Y-118652071D01*
X138880000Y-118636928D01*
X138580000Y-118636928D01*
X138426255Y-118652071D01*
X138278418Y-118696916D01*
X138142171Y-118769742D01*
X138022749Y-118867749D01*
X137924742Y-118987171D01*
X137851916Y-119123418D01*
X137807071Y-119271255D01*
X137791928Y-119425000D01*
X137791928Y-121075000D01*
X137807071Y-121228745D01*
X137851916Y-121376582D01*
X137924742Y-121512829D01*
X138022749Y-121632251D01*
X138142171Y-121730258D01*
X138278418Y-121803084D01*
X138426255Y-121847929D01*
X138580000Y-121863072D01*
X138880000Y-121863072D01*
X139033745Y-121847929D01*
X139181582Y-121803084D01*
X139317829Y-121730258D01*
X139365000Y-121691546D01*
X139412171Y-121730258D01*
X139548418Y-121803084D01*
X139696255Y-121847929D01*
X139850000Y-121863072D01*
X140150000Y-121863072D01*
X140303745Y-121847929D01*
X140451582Y-121803084D01*
X140587829Y-121730258D01*
X140635000Y-121691546D01*
X140682171Y-121730258D01*
X140818418Y-121803084D01*
X140966255Y-121847929D01*
X141120000Y-121863072D01*
X141420000Y-121863072D01*
X141573745Y-121847929D01*
X141721582Y-121803084D01*
X141857829Y-121730258D01*
X141905000Y-121691546D01*
X141952171Y-121730258D01*
X142088418Y-121803084D01*
X142236255Y-121847929D01*
X142390000Y-121863072D01*
X142690000Y-121863072D01*
X142843745Y-121847929D01*
X142991582Y-121803084D01*
X143127829Y-121730258D01*
X143247251Y-121632251D01*
X143345258Y-121512829D01*
X143418084Y-121376582D01*
X143462929Y-121228745D01*
X143478072Y-121075000D01*
X143478072Y-119425000D01*
X143462929Y-119271255D01*
X143418084Y-119123418D01*
X143345258Y-118987171D01*
X143247251Y-118867749D01*
X143127829Y-118769742D01*
X142991582Y-118696916D01*
X142843745Y-118652071D01*
X142690000Y-118636928D01*
X142390000Y-118636928D01*
X142236255Y-118652071D01*
X142088418Y-118696916D01*
X142030000Y-118728141D01*
X142030000Y-118151431D01*
X142117292Y-118079792D01*
X142226958Y-117946164D01*
X142308447Y-117793709D01*
X142358628Y-117628285D01*
X142375572Y-117456250D01*
X142375572Y-116543750D01*
X142358628Y-116371715D01*
X142308447Y-116206291D01*
X142226958Y-116053836D01*
X142117292Y-115920208D01*
X142010000Y-115832155D01*
X142010000Y-115627000D01*
X144375422Y-115627000D01*
X150843470Y-122095049D01*
X150859844Y-122115000D01*
X140543469Y-122115000D01*
X140500000Y-122110719D01*
X140456531Y-122115000D01*
X140456523Y-122115000D01*
X140326510Y-122127805D01*
X140159687Y-122178411D01*
X140005941Y-122260589D01*
X139871183Y-122371183D01*
X139843468Y-122404954D01*
X139404952Y-122843470D01*
X139371184Y-122871183D01*
X139343471Y-122904951D01*
X139343468Y-122904954D01*
X139260590Y-123005941D01*
X139178412Y-123159687D01*
X139127805Y-123326510D01*
X139110719Y-123500000D01*
X139115001Y-123543479D01*
X139115001Y-123626719D01*
X139033745Y-123602071D01*
X138880000Y-123586928D01*
X138580000Y-123586928D01*
X138426255Y-123602071D01*
X138278418Y-123646916D01*
X138142171Y-123719742D01*
X138022749Y-123817749D01*
X137924742Y-123937171D01*
X137851916Y-124073418D01*
X137807071Y-124221255D01*
X137791928Y-124375000D01*
X137791928Y-126025000D01*
X137807071Y-126178745D01*
X137851916Y-126326582D01*
X137924742Y-126462829D01*
X138022749Y-126582251D01*
X138142171Y-126680258D01*
X138278418Y-126753084D01*
X138426255Y-126797929D01*
X138580000Y-126813072D01*
X138880000Y-126813072D01*
X139033745Y-126797929D01*
X139115001Y-126773281D01*
X139115001Y-128231521D01*
X139110719Y-128275000D01*
X139127805Y-128448490D01*
X139178412Y-128615313D01*
X139199428Y-128654632D01*
X139199428Y-129056250D01*
X139216372Y-129228285D01*
X139266553Y-129393709D01*
X139348042Y-129546164D01*
X139440001Y-129658216D01*
X139440000Y-133781531D01*
X139435719Y-133825000D01*
X139440000Y-133868469D01*
X139440000Y-133868476D01*
X139440267Y-133871183D01*
X139452805Y-133998490D01*
X139468157Y-134049096D01*
X139503411Y-134165312D01*
X139585589Y-134319058D01*
X139696183Y-134453817D01*
X139729956Y-134481534D01*
X141115001Y-135866580D01*
X141115001Y-135911344D01*
X141063685Y-135848815D01*
X140966994Y-135769463D01*
X140856680Y-135710498D01*
X140736982Y-135674188D01*
X140612500Y-135661928D01*
X140410750Y-135665000D01*
X140252000Y-135823750D01*
X140252000Y-136873000D01*
X140272000Y-136873000D01*
X140272000Y-137127000D01*
X140252000Y-137127000D01*
X140252000Y-137147000D01*
X139998000Y-137147000D01*
X139998000Y-137127000D01*
X139161250Y-137127000D01*
X139002500Y-137285750D01*
X138999428Y-137700000D01*
X139011688Y-137824482D01*
X139047998Y-137944180D01*
X139106963Y-138054494D01*
X139186315Y-138151185D01*
X139283006Y-138230537D01*
X139393320Y-138289502D01*
X139513018Y-138325812D01*
X139637500Y-138338072D01*
X139726354Y-138336719D01*
X139650518Y-138344188D01*
X139530820Y-138380498D01*
X139420506Y-138439463D01*
X139323815Y-138518815D01*
X139244463Y-138615506D01*
X139185498Y-138725820D01*
X139149188Y-138845518D01*
X139136928Y-138970000D01*
X139136928Y-140190000D01*
X139149188Y-140314482D01*
X139185498Y-140434180D01*
X139244463Y-140544494D01*
X139323815Y-140641185D01*
X139420506Y-140720537D01*
X139530820Y-140779502D01*
X139650518Y-140815812D01*
X139775000Y-140828072D01*
X140425000Y-140828072D01*
X140549482Y-140815812D01*
X140669180Y-140779502D01*
X140779494Y-140720537D01*
X140876185Y-140641185D01*
X140955537Y-140544494D01*
X140998028Y-140465000D01*
X141101972Y-140465000D01*
X141144463Y-140544494D01*
X141223815Y-140641185D01*
X141320506Y-140720537D01*
X141430820Y-140779502D01*
X141550518Y-140815812D01*
X141675000Y-140828072D01*
X142325000Y-140828072D01*
X142449482Y-140815812D01*
X142569180Y-140779502D01*
X142679494Y-140720537D01*
X142776185Y-140641185D01*
X142855537Y-140544494D01*
X142914502Y-140434180D01*
X142950812Y-140314482D01*
X142963072Y-140190000D01*
X142963072Y-138970000D01*
X142950812Y-138845518D01*
X142914502Y-138725820D01*
X142885000Y-138670627D01*
X142885000Y-138058215D01*
X142976958Y-137946164D01*
X143058447Y-137793709D01*
X143108628Y-137628285D01*
X143125572Y-137456250D01*
X143125572Y-136543750D01*
X143108628Y-136371715D01*
X143058447Y-136206291D01*
X142976958Y-136053836D01*
X142885000Y-135941785D01*
X142885000Y-135543469D01*
X142889281Y-135500000D01*
X142885000Y-135456531D01*
X142885000Y-135456523D01*
X142872195Y-135326510D01*
X142821589Y-135159687D01*
X142739411Y-135005941D01*
X142628817Y-134871183D01*
X142595049Y-134843470D01*
X141210000Y-133458422D01*
X141210000Y-129688657D01*
X141261315Y-129751185D01*
X141358006Y-129830537D01*
X141468320Y-129889502D01*
X141588018Y-129925812D01*
X141712500Y-129938072D01*
X141914250Y-129935000D01*
X142073000Y-129776250D01*
X142073000Y-128727000D01*
X142327000Y-128727000D01*
X142327000Y-129776250D01*
X142485750Y-129935000D01*
X142687500Y-129938072D01*
X142811982Y-129925812D01*
X142931680Y-129889502D01*
X143041994Y-129830537D01*
X143138685Y-129751185D01*
X143218037Y-129654494D01*
X143277002Y-129544180D01*
X143313312Y-129424482D01*
X143325572Y-129300000D01*
X143322500Y-128885750D01*
X143163750Y-128727000D01*
X142327000Y-128727000D01*
X142073000Y-128727000D01*
X142053000Y-128727000D01*
X142053000Y-128473000D01*
X142073000Y-128473000D01*
X142073000Y-127423750D01*
X142327000Y-127423750D01*
X142327000Y-128473000D01*
X143163750Y-128473000D01*
X143322500Y-128314250D01*
X143325572Y-127900000D01*
X143313312Y-127775518D01*
X143277002Y-127655820D01*
X143218037Y-127545506D01*
X143138685Y-127448815D01*
X143041994Y-127369463D01*
X142931680Y-127310498D01*
X142811982Y-127274188D01*
X142687500Y-127261928D01*
X142485750Y-127265000D01*
X142327000Y-127423750D01*
X142073000Y-127423750D01*
X141914250Y-127265000D01*
X141712500Y-127261928D01*
X141588018Y-127274188D01*
X141468320Y-127310498D01*
X141358006Y-127369463D01*
X141261315Y-127448815D01*
X141197508Y-127526564D01*
X141192292Y-127520208D01*
X141058664Y-127410542D01*
X140906209Y-127329053D01*
X140885000Y-127322619D01*
X140885000Y-126773281D01*
X140966255Y-126797929D01*
X141120000Y-126813072D01*
X141420000Y-126813072D01*
X141573745Y-126797929D01*
X141721582Y-126753084D01*
X141855936Y-126681270D01*
X141885506Y-126705537D01*
X141995820Y-126764502D01*
X142115518Y-126800812D01*
X142240000Y-126813072D01*
X142254250Y-126810000D01*
X142413000Y-126651250D01*
X142413000Y-125327000D01*
X142667000Y-125327000D01*
X142667000Y-126651250D01*
X142825750Y-126810000D01*
X142840000Y-126813072D01*
X142964482Y-126800812D01*
X143084180Y-126764502D01*
X143194494Y-126705537D01*
X143291185Y-126626185D01*
X143370537Y-126529494D01*
X143429502Y-126419180D01*
X143465812Y-126299482D01*
X143478072Y-126175000D01*
X143475000Y-125485750D01*
X143316250Y-125327000D01*
X142667000Y-125327000D01*
X142413000Y-125327000D01*
X142393000Y-125327000D01*
X142393000Y-125073000D01*
X142413000Y-125073000D01*
X142413000Y-125053000D01*
X142667000Y-125053000D01*
X142667000Y-125073000D01*
X143316250Y-125073000D01*
X143475000Y-124914250D01*
X143478072Y-124225000D01*
X143465812Y-124100518D01*
X143429502Y-123980820D01*
X143378284Y-123885000D01*
X152956531Y-123885000D01*
X153000000Y-123889281D01*
X153043469Y-123885000D01*
X153043477Y-123885000D01*
X153173490Y-123872195D01*
X153340313Y-123821589D01*
X153494059Y-123739411D01*
X153628817Y-123628817D01*
X153656534Y-123595044D01*
X154095045Y-123156533D01*
X154128817Y-123128817D01*
X154239411Y-122994059D01*
X154321589Y-122840313D01*
X154372195Y-122673490D01*
X154379640Y-122597901D01*
X154404930Y-122577146D01*
X154455659Y-122608572D01*
X154682390Y-122693467D01*
X154873000Y-122569709D01*
X154873000Y-121627000D01*
X154853000Y-121627000D01*
X154853000Y-121373000D01*
X154873000Y-121373000D01*
X154873000Y-120430291D01*
X154682390Y-120306533D01*
X154455659Y-120391428D01*
X154404930Y-120422854D01*
X154376096Y-120399191D01*
X154235285Y-120323926D01*
X154082496Y-120277578D01*
X153923600Y-120261928D01*
X153076400Y-120261928D01*
X152917504Y-120277578D01*
X152764715Y-120323926D01*
X152623904Y-120399191D01*
X152500481Y-120500481D01*
X152406498Y-120615000D01*
X151866579Y-120615000D01*
X146878578Y-115627000D01*
X155615001Y-115627000D01*
X155615000Y-120435200D01*
X155544341Y-120391428D01*
X155317610Y-120306533D01*
X155127000Y-120430291D01*
X155127000Y-121373000D01*
X155147000Y-121373000D01*
X155147000Y-121627000D01*
X155127000Y-121627000D01*
X155127000Y-122569709D01*
X155317610Y-122693467D01*
X155544341Y-122608572D01*
X155615001Y-122564799D01*
X155615000Y-132133421D01*
X155133422Y-132615000D01*
X148043469Y-132615000D01*
X148000000Y-132610719D01*
X147956531Y-132615000D01*
X147956523Y-132615000D01*
X147826510Y-132627805D01*
X147659686Y-132678411D01*
X147505941Y-132760589D01*
X147404953Y-132843468D01*
X147404951Y-132843470D01*
X147371183Y-132871183D01*
X147343470Y-132904951D01*
X146404951Y-133843471D01*
X146371184Y-133871183D01*
X146343471Y-133904951D01*
X146343468Y-133904954D01*
X146260590Y-134005941D01*
X146178412Y-134159687D01*
X146127805Y-134326510D01*
X146110719Y-134500000D01*
X146115001Y-134543479D01*
X146115000Y-135941785D01*
X146023042Y-136053836D01*
X145941553Y-136206291D01*
X145891372Y-136371715D01*
X145874428Y-136543750D01*
X145874428Y-137456250D01*
X145891372Y-137628285D01*
X145941553Y-137793709D01*
X146023042Y-137946164D01*
X146115001Y-138058216D01*
X146115000Y-138580626D01*
X146085498Y-138635820D01*
X146049188Y-138755518D01*
X146036928Y-138880000D01*
X146036928Y-140100000D01*
X146049188Y-140224482D01*
X146085498Y-140344180D01*
X146144463Y-140454494D01*
X146223815Y-140551185D01*
X146320506Y-140630537D01*
X146430820Y-140689502D01*
X146550518Y-140725812D01*
X146675000Y-140738072D01*
X147325000Y-140738072D01*
X147449482Y-140725812D01*
X147569180Y-140689502D01*
X147679494Y-140630537D01*
X147776185Y-140551185D01*
X147855537Y-140454494D01*
X147914502Y-140344180D01*
X147950000Y-140227159D01*
X147985498Y-140344180D01*
X148044463Y-140454494D01*
X148123815Y-140551185D01*
X148220506Y-140630537D01*
X148330820Y-140689502D01*
X148450518Y-140725812D01*
X148575000Y-140738072D01*
X149225000Y-140738072D01*
X149349482Y-140725812D01*
X149469180Y-140689502D01*
X149579494Y-140630537D01*
X149676185Y-140551185D01*
X149755537Y-140454494D01*
X149814502Y-140344180D01*
X149850812Y-140224482D01*
X149863072Y-140100000D01*
X149863072Y-138880000D01*
X149850812Y-138755518D01*
X149814502Y-138635820D01*
X149755537Y-138525506D01*
X149676185Y-138428815D01*
X149579494Y-138349463D01*
X149517773Y-138316472D01*
X149606680Y-138289502D01*
X149716994Y-138230537D01*
X149813685Y-138151185D01*
X149893037Y-138054494D01*
X149952002Y-137944180D01*
X149988312Y-137824482D01*
X150000572Y-137700000D01*
X149997500Y-137285750D01*
X149838750Y-137127000D01*
X149002000Y-137127000D01*
X149002000Y-137147000D01*
X148748000Y-137147000D01*
X148748000Y-137127000D01*
X148728000Y-137127000D01*
X148728000Y-136873000D01*
X148748000Y-136873000D01*
X148748000Y-135823750D01*
X149002000Y-135823750D01*
X149002000Y-136873000D01*
X149838750Y-136873000D01*
X149997500Y-136714250D01*
X150000572Y-136300000D01*
X149988312Y-136175518D01*
X149952002Y-136055820D01*
X149893037Y-135945506D01*
X149813685Y-135848815D01*
X149716994Y-135769463D01*
X149606680Y-135710498D01*
X149486982Y-135674188D01*
X149362500Y-135661928D01*
X149160750Y-135665000D01*
X149002000Y-135823750D01*
X148748000Y-135823750D01*
X148589250Y-135665000D01*
X148387500Y-135661928D01*
X148263018Y-135674188D01*
X148143320Y-135710498D01*
X148033006Y-135769463D01*
X147936315Y-135848815D01*
X147885000Y-135911343D01*
X147885000Y-134866578D01*
X148366579Y-134385000D01*
X155456531Y-134385000D01*
X155500000Y-134389281D01*
X155543469Y-134385000D01*
X155543477Y-134385000D01*
X155673490Y-134372195D01*
X155840313Y-134321589D01*
X155994059Y-134239411D01*
X156128817Y-134128817D01*
X156156534Y-134095044D01*
X157095050Y-133156529D01*
X157128817Y-133128817D01*
X157239411Y-132994059D01*
X157239412Y-132994058D01*
X157321589Y-132840314D01*
X157372195Y-132673490D01*
X157372195Y-132673489D01*
X157385000Y-132543477D01*
X157385000Y-132543469D01*
X157389281Y-132500000D01*
X157385000Y-132456531D01*
X157385000Y-122361554D01*
X157459287Y-122287267D01*
X157594443Y-122084992D01*
X157653495Y-121942428D01*
X157794400Y-157873000D01*
X151368311Y-157873000D01*
X151406043Y-157857371D01*
X151632886Y-157705799D01*
X151823685Y-157515000D01*
X152326531Y-157515000D01*
X152370000Y-157519281D01*
X152413469Y-157515000D01*
X152413477Y-157515000D01*
X152543490Y-157502195D01*
X152710313Y-157451589D01*
X152864059Y-157369411D01*
X152998817Y-157258817D01*
X153026534Y-157225044D01*
X154095050Y-156156529D01*
X154128817Y-156128817D01*
X154239411Y-155994059D01*
X154321589Y-155840313D01*
X154372195Y-155673490D01*
X154385000Y-155543477D01*
X154385000Y-155543467D01*
X154389281Y-155500001D01*
X154385000Y-155456535D01*
X154385000Y-146543465D01*
X154389281Y-146499999D01*
X154385000Y-146456533D01*
X154385000Y-146456523D01*
X154372195Y-146326510D01*
X154321589Y-146159687D01*
X154239411Y-146005941D01*
X154128817Y-145871183D01*
X154095049Y-145843470D01*
X152656534Y-144404956D01*
X152628817Y-144371183D01*
X152494059Y-144260589D01*
X152340313Y-144178411D01*
X152173490Y-144127805D01*
X152043477Y-144115000D01*
X152043469Y-144115000D01*
X152000000Y-144110719D01*
X151956531Y-144115000D01*
X149884651Y-144115000D01*
X149851958Y-144053836D01*
X149760000Y-143941785D01*
X149760000Y-143066144D01*
X149814502Y-142964180D01*
X149850812Y-142844482D01*
X149863072Y-142720000D01*
X149863072Y-141500000D01*
X149850812Y-141375518D01*
X149814502Y-141255820D01*
X149755537Y-141145506D01*
X149676185Y-141048815D01*
X149579494Y-140969463D01*
X149469180Y-140910498D01*
X149349482Y-140874188D01*
X149225000Y-140861928D01*
X148575000Y-140861928D01*
X148450518Y-140874188D01*
X148425000Y-140881929D01*
X148399482Y-140874188D01*
X148275000Y-140861928D01*
X147625000Y-140861928D01*
X147500518Y-140874188D01*
X147475000Y-140881929D01*
X147449482Y-140874188D01*
X147325000Y-140861928D01*
X147285750Y-140865000D01*
X147127000Y-141023750D01*
X147127000Y-141105859D01*
X147094463Y-141145506D01*
X147035498Y-141255820D01*
X146999188Y-141375518D01*
X146986928Y-141500000D01*
X146986928Y-142720000D01*
X146999188Y-142844482D01*
X147035498Y-142964180D01*
X147094463Y-143074494D01*
X147127000Y-143114141D01*
X147127000Y-143196250D01*
X147285750Y-143355000D01*
X147325000Y-143358072D01*
X147449482Y-143345812D01*
X147475000Y-143338071D01*
X147500518Y-143345812D01*
X147625000Y-143358072D01*
X147990001Y-143358072D01*
X147990000Y-143911343D01*
X147938685Y-143848815D01*
X147841994Y-143769463D01*
X147731680Y-143710498D01*
X147611982Y-143674188D01*
X147487500Y-143661928D01*
X147285750Y-143665000D01*
X147127000Y-143823750D01*
X147127000Y-144873000D01*
X147147000Y-144873000D01*
X147147000Y-145127000D01*
X147127000Y-145127000D01*
X147127000Y-146176250D01*
X147285750Y-146335000D01*
X147487500Y-146338072D01*
X147611982Y-146325812D01*
X147731680Y-146289502D01*
X147841994Y-146230537D01*
X147938685Y-146151185D01*
X148002492Y-146073436D01*
X148007708Y-146079792D01*
X148141336Y-146189458D01*
X148293791Y-146270947D01*
X148459215Y-146321128D01*
X148631250Y-146338072D01*
X149118750Y-146338072D01*
X149290785Y-146321128D01*
X149456209Y-146270947D01*
X149608664Y-146189458D01*
X149742292Y-146079792D01*
X149851958Y-145946164D01*
X149884651Y-145885000D01*
X151633422Y-145885000D01*
X152615001Y-146866580D01*
X152615000Y-155133421D01*
X152003422Y-155745000D01*
X151823685Y-155745000D01*
X151632886Y-155554201D01*
X151406043Y-155402629D01*
X151306721Y-155361489D01*
X151348832Y-155346277D01*
X151461863Y-155285860D01*
X151527388Y-155046993D01*
X150750000Y-154269605D01*
X149972612Y-155046993D01*
X150038137Y-155285860D01*
X150196477Y-155360164D01*
X150093957Y-155402629D01*
X149867114Y-155554201D01*
X149674201Y-155747114D01*
X149522629Y-155973957D01*
X149418225Y-156226011D01*
X149365000Y-156493589D01*
X149365000Y-156766411D01*
X149418225Y-157033989D01*
X149522629Y-157286043D01*
X149674201Y-157512886D01*
X149867114Y-157705799D01*
X150093957Y-157857371D01*
X150131689Y-157873000D01*
X136627000Y-157873000D01*
X136627000Y-154162492D01*
X149360188Y-154162492D01*
X149401035Y-154432238D01*
X149493723Y-154688832D01*
X149554140Y-154801863D01*
X149793007Y-154867388D01*
X150570395Y-154090000D01*
X150929605Y-154090000D01*
X151706993Y-154867388D01*
X151945860Y-154801863D01*
X152061760Y-154554884D01*
X152127250Y-154290040D01*
X152139812Y-154017508D01*
X152098965Y-153747762D01*
X152006277Y-153491168D01*
X151945860Y-153378137D01*
X151706993Y-153312612D01*
X150929605Y-154090000D01*
X150570395Y-154090000D01*
X149793007Y-153312612D01*
X149554140Y-153378137D01*
X149438240Y-153625116D01*
X149372750Y-153889960D01*
X149360188Y-154162492D01*
X136627000Y-154162492D01*
X136627000Y-145700000D01*
X138999428Y-145700000D01*
X139011688Y-145824482D01*
X139047998Y-145944180D01*
X139106963Y-146054494D01*
X139186315Y-146151185D01*
X139283006Y-146230537D01*
X139393320Y-146289502D01*
X139513018Y-146325812D01*
X139637500Y-146338072D01*
X139839250Y-146335000D01*
X139998000Y-146176250D01*
X139998000Y-145127000D01*
X139161250Y-145127000D01*
X139002500Y-145285750D01*
X138999428Y-145700000D01*
X136627000Y-145700000D01*
X136627000Y-144300000D01*
X138999428Y-144300000D01*
X139002500Y-144714250D01*
X139161250Y-144873000D01*
X139998000Y-144873000D01*
X139998000Y-144853000D01*
X140252000Y-144853000D01*
X140252000Y-144873000D01*
X140272000Y-144873000D01*
X140272000Y-145127000D01*
X140252000Y-145127000D01*
X140252000Y-146176250D01*
X140410750Y-146335000D01*
X140612500Y-146338072D01*
X140736982Y-146325812D01*
X140856680Y-146289502D01*
X140966994Y-146230537D01*
X141063685Y-146151185D01*
X141115001Y-146088656D01*
X141115000Y-150456531D01*
X141110719Y-150500000D01*
X141115000Y-150543469D01*
X141115000Y-150543476D01*
X141127805Y-150673489D01*
X141178411Y-150840312D01*
X141260589Y-150994058D01*
X141371183Y-151128817D01*
X141404956Y-151156534D01*
X142393470Y-152145049D01*
X142421183Y-152178817D01*
X142454951Y-152206530D01*
X142454953Y-152206532D01*
X142526452Y-152265210D01*
X142555941Y-152289411D01*
X142709687Y-152371589D01*
X142876510Y-152422195D01*
X143006523Y-152435000D01*
X143006533Y-152435000D01*
X143049999Y-152439281D01*
X143093465Y-152435000D01*
X149676315Y-152435000D01*
X149867114Y-152625799D01*
X150093957Y-152777371D01*
X150193279Y-152818511D01*
X150151168Y-152833723D01*
X150038137Y-152894140D01*
X149972612Y-153133007D01*
X150750000Y-153910395D01*
X151527388Y-153133007D01*
X151461863Y-152894140D01*
X151303523Y-152819836D01*
X151406043Y-152777371D01*
X151632886Y-152625799D01*
X151825799Y-152432886D01*
X151977371Y-152206043D01*
X152081775Y-151953989D01*
X152135000Y-151686411D01*
X152135000Y-151413589D01*
X152081775Y-151146011D01*
X151977371Y-150893957D01*
X151825799Y-150667114D01*
X151632886Y-150474201D01*
X151406043Y-150322629D01*
X151153989Y-150218225D01*
X150886411Y-150165000D01*
X150613589Y-150165000D01*
X150346011Y-150218225D01*
X150093957Y-150322629D01*
X149867114Y-150474201D01*
X149676315Y-150665000D01*
X143416579Y-150665000D01*
X142885000Y-150133422D01*
X142885000Y-146058215D01*
X142976958Y-145946164D01*
X143058447Y-145793709D01*
X143086873Y-145700000D01*
X145874428Y-145700000D01*
X145886688Y-145824482D01*
X145922998Y-145944180D01*
X145981963Y-146054494D01*
X146061315Y-146151185D01*
X146158006Y-146230537D01*
X146268320Y-146289502D01*
X146388018Y-146325812D01*
X146512500Y-146338072D01*
X146714250Y-146335000D01*
X146873000Y-146176250D01*
X146873000Y-145127000D01*
X146036250Y-145127000D01*
X145877500Y-145285750D01*
X145874428Y-145700000D01*
X143086873Y-145700000D01*
X143108628Y-145628285D01*
X143125572Y-145456250D01*
X143125572Y-144543750D01*
X143108628Y-144371715D01*
X143086874Y-144300000D01*
X145874428Y-144300000D01*
X145877500Y-144714250D01*
X146036250Y-144873000D01*
X146873000Y-144873000D01*
X146873000Y-143823750D01*
X146714250Y-143665000D01*
X146512500Y-143661928D01*
X146388018Y-143674188D01*
X146268320Y-143710498D01*
X146158006Y-143769463D01*
X146061315Y-143848815D01*
X145981963Y-143945506D01*
X145922998Y-144055820D01*
X145886688Y-144175518D01*
X145874428Y-144300000D01*
X143086874Y-144300000D01*
X143058447Y-144206291D01*
X142976958Y-144053836D01*
X142885000Y-143941785D01*
X142885000Y-143543476D01*
X142889282Y-143500000D01*
X142885000Y-143456523D01*
X142885000Y-143109373D01*
X142914502Y-143054180D01*
X142950812Y-142934482D01*
X142963072Y-142810000D01*
X142963072Y-142720000D01*
X146036928Y-142720000D01*
X146049188Y-142844482D01*
X146085498Y-142964180D01*
X146144463Y-143074494D01*
X146223815Y-143171185D01*
X146320506Y-143250537D01*
X146430820Y-143309502D01*
X146550518Y-143345812D01*
X146675000Y-143358072D01*
X146714250Y-143355000D01*
X146873000Y-143196250D01*
X146873000Y-142237000D01*
X146198750Y-142237000D01*
X146040000Y-142395750D01*
X146036928Y-142720000D01*
X142963072Y-142720000D01*
X142963072Y-141590000D01*
X142954209Y-141500000D01*
X146036928Y-141500000D01*
X146040000Y-141824250D01*
X146198750Y-141983000D01*
X146873000Y-141983000D01*
X146873000Y-141023750D01*
X146714250Y-140865000D01*
X146675000Y-140861928D01*
X146550518Y-140874188D01*
X146430820Y-140910498D01*
X146320506Y-140969463D01*
X146223815Y-141048815D01*
X146144463Y-141145506D01*
X146085498Y-141255820D01*
X146049188Y-141375518D01*
X146036928Y-141500000D01*
X142954209Y-141500000D01*
X142950812Y-141465518D01*
X142914502Y-141345820D01*
X142855537Y-141235506D01*
X142776185Y-141138815D01*
X142679494Y-141059463D01*
X142569180Y-141000498D01*
X142449482Y-140964188D01*
X142325000Y-140951928D01*
X141675000Y-140951928D01*
X141550518Y-140964188D01*
X141525000Y-140971929D01*
X141499482Y-140964188D01*
X141375000Y-140951928D01*
X141335750Y-140955000D01*
X141177000Y-141113750D01*
X141177000Y-141195859D01*
X141144463Y-141235506D01*
X141085498Y-141345820D01*
X141050000Y-141462841D01*
X141014502Y-141345820D01*
X140955537Y-141235506D01*
X140923000Y-141195859D01*
X140923000Y-141113750D01*
X140764250Y-140955000D01*
X140725000Y-140951928D01*
X140600518Y-140964188D01*
X140575000Y-140971929D01*
X140549482Y-140964188D01*
X140425000Y-140951928D01*
X139775000Y-140951928D01*
X139650518Y-140964188D01*
X139530820Y-141000498D01*
X139420506Y-141059463D01*
X139323815Y-141138815D01*
X139244463Y-141235506D01*
X139185498Y-141345820D01*
X139149188Y-141465518D01*
X139136928Y-141590000D01*
X139136928Y-142810000D01*
X139149188Y-142934482D01*
X139185498Y-143054180D01*
X139215712Y-143110706D01*
X139221010Y-143164494D01*
X139227805Y-143233490D01*
X139243157Y-143284096D01*
X139278411Y-143400312D01*
X139360589Y-143554058D01*
X139469909Y-143687265D01*
X139393320Y-143710498D01*
X139283006Y-143769463D01*
X139186315Y-143848815D01*
X139106963Y-143945506D01*
X139047998Y-144055820D01*
X139011688Y-144175518D01*
X138999428Y-144300000D01*
X136627000Y-144300000D01*
X136627000Y-136300000D01*
X138999428Y-136300000D01*
X139002500Y-136714250D01*
X139161250Y-136873000D01*
X139998000Y-136873000D01*
X139998000Y-135823750D01*
X139839250Y-135665000D01*
X139637500Y-135661928D01*
X139513018Y-135674188D01*
X139393320Y-135710498D01*
X139283006Y-135769463D01*
X139186315Y-135848815D01*
X139106963Y-135945506D01*
X139047998Y-136055820D01*
X139011688Y-136175518D01*
X138999428Y-136300000D01*
X136627000Y-136300000D01*
X136627000Y-117700000D01*
X138249428Y-117700000D01*
X138261688Y-117824482D01*
X138297998Y-117944180D01*
X138356963Y-118054494D01*
X138436315Y-118151185D01*
X138533006Y-118230537D01*
X138643320Y-118289502D01*
X138763018Y-118325812D01*
X138887500Y-118338072D01*
X139089250Y-118335000D01*
X139248000Y-118176250D01*
X139248000Y-117127000D01*
X138411250Y-117127000D01*
X138252500Y-117285750D01*
X138249428Y-117700000D01*
X136627000Y-117700000D01*
X136627000Y-116300000D01*
X138249428Y-116300000D01*
X138252500Y-116714250D01*
X138411250Y-116873000D01*
X139248000Y-116873000D01*
X139248000Y-115823750D01*
X139089250Y-115665000D01*
X138887500Y-115661928D01*
X138763018Y-115674188D01*
X138643320Y-115710498D01*
X138533006Y-115769463D01*
X138436315Y-115848815D01*
X138356963Y-115945506D01*
X138297998Y-116055820D01*
X138261688Y-116175518D01*
X138249428Y-116300000D01*
X136627000Y-116300000D01*
X136627000Y-115627000D01*
X140490001Y-115627000D01*
X140490001Y-115832155D01*
G37*
X140490001Y-115832155D02*
X140382708Y-115920208D01*
X140377492Y-115926564D01*
X140313685Y-115848815D01*
X140216994Y-115769463D01*
X140106680Y-115710498D01*
X139986982Y-115674188D01*
X139862500Y-115661928D01*
X139660750Y-115665000D01*
X139502000Y-115823750D01*
X139502000Y-116873000D01*
X139522000Y-116873000D01*
X139522000Y-117127000D01*
X139502000Y-117127000D01*
X139502000Y-118176250D01*
X139660750Y-118335000D01*
X139862500Y-118338072D01*
X139986982Y-118325812D01*
X140106680Y-118289502D01*
X140216994Y-118230537D01*
X140313685Y-118151185D01*
X140377492Y-118073436D01*
X140382708Y-118079792D01*
X140510001Y-118184259D01*
X140510000Y-118728142D01*
X140451582Y-118696916D01*
X140303745Y-118652071D01*
X140150000Y-118636928D01*
X139850000Y-118636928D01*
X139696255Y-118652071D01*
X139548418Y-118696916D01*
X139412171Y-118769742D01*
X139365000Y-118808454D01*
X139317829Y-118769742D01*
X139181582Y-118696916D01*
X139033745Y-118652071D01*
X138880000Y-118636928D01*
X138580000Y-118636928D01*
X138426255Y-118652071D01*
X138278418Y-118696916D01*
X138142171Y-118769742D01*
X138022749Y-118867749D01*
X137924742Y-118987171D01*
X137851916Y-119123418D01*
X137807071Y-119271255D01*
X137791928Y-119425000D01*
X137791928Y-121075000D01*
X137807071Y-121228745D01*
X137851916Y-121376582D01*
X137924742Y-121512829D01*
X138022749Y-121632251D01*
X138142171Y-121730258D01*
X138278418Y-121803084D01*
X138426255Y-121847929D01*
X138580000Y-121863072D01*
X138880000Y-121863072D01*
X139033745Y-121847929D01*
X139181582Y-121803084D01*
X139317829Y-121730258D01*
X139365000Y-121691546D01*
X139412171Y-121730258D01*
X139548418Y-121803084D01*
X139696255Y-121847929D01*
X139850000Y-121863072D01*
X140150000Y-121863072D01*
X140303745Y-121847929D01*
X140451582Y-121803084D01*
X140587829Y-121730258D01*
X140635000Y-121691546D01*
X140682171Y-121730258D01*
X140818418Y-121803084D01*
X140966255Y-121847929D01*
X141120000Y-121863072D01*
X141420000Y-121863072D01*
X141573745Y-121847929D01*
X141721582Y-121803084D01*
X141857829Y-121730258D01*
X141905000Y-121691546D01*
X141952171Y-121730258D01*
X142088418Y-121803084D01*
X142236255Y-121847929D01*
X142390000Y-121863072D01*
X142690000Y-121863072D01*
X142843745Y-121847929D01*
X142991582Y-121803084D01*
X143127829Y-121730258D01*
X143247251Y-121632251D01*
X143345258Y-121512829D01*
X143418084Y-121376582D01*
X143462929Y-121228745D01*
X143478072Y-121075000D01*
X143478072Y-119425000D01*
X143462929Y-119271255D01*
X143418084Y-119123418D01*
X143345258Y-118987171D01*
X143247251Y-118867749D01*
X143127829Y-118769742D01*
X142991582Y-118696916D01*
X142843745Y-118652071D01*
X142690000Y-118636928D01*
X142390000Y-118636928D01*
X142236255Y-118652071D01*
X142088418Y-118696916D01*
X142030000Y-118728141D01*
X142030000Y-118151431D01*
X142117292Y-118079792D01*
X142226958Y-117946164D01*
X142308447Y-117793709D01*
X142358628Y-117628285D01*
X142375572Y-117456250D01*
X142375572Y-116543750D01*
X142358628Y-116371715D01*
X142308447Y-116206291D01*
X142226958Y-116053836D01*
X142117292Y-115920208D01*
X142010000Y-115832155D01*
X142010000Y-115627000D01*
X144375422Y-115627000D01*
X150843470Y-122095049D01*
X150859844Y-122115000D01*
X140543469Y-122115000D01*
X140500000Y-122110719D01*
X140456531Y-122115000D01*
X140456523Y-122115000D01*
X140326510Y-122127805D01*
X140159687Y-122178411D01*
X140005941Y-122260589D01*
X139871183Y-122371183D01*
X139843468Y-122404954D01*
X139404952Y-122843470D01*
X139371184Y-122871183D01*
X139343471Y-122904951D01*
X139343468Y-122904954D01*
X139260590Y-123005941D01*
X139178412Y-123159687D01*
X139127805Y-123326510D01*
X139110719Y-123500000D01*
X139115001Y-123543479D01*
X139115001Y-123626719D01*
X139033745Y-123602071D01*
X138880000Y-123586928D01*
X138580000Y-123586928D01*
X138426255Y-123602071D01*
X138278418Y-123646916D01*
X138142171Y-123719742D01*
X138022749Y-123817749D01*
X137924742Y-123937171D01*
X137851916Y-124073418D01*
X137807071Y-124221255D01*
X137791928Y-124375000D01*
X137791928Y-126025000D01*
X137807071Y-126178745D01*
X137851916Y-126326582D01*
X137924742Y-126462829D01*
X138022749Y-126582251D01*
X138142171Y-126680258D01*
X138278418Y-126753084D01*
X138426255Y-126797929D01*
X138580000Y-126813072D01*
X138880000Y-126813072D01*
X139033745Y-126797929D01*
X139115001Y-126773281D01*
X139115001Y-128231521D01*
X139110719Y-128275000D01*
X139127805Y-128448490D01*
X139178412Y-128615313D01*
X139199428Y-128654632D01*
X139199428Y-129056250D01*
X139216372Y-129228285D01*
X139266553Y-129393709D01*
X139348042Y-129546164D01*
X139440001Y-129658216D01*
X139440000Y-133781531D01*
X139435719Y-133825000D01*
X139440000Y-133868469D01*
X139440000Y-133868476D01*
X139440267Y-133871183D01*
X139452805Y-133998490D01*
X139468157Y-134049096D01*
X139503411Y-134165312D01*
X139585589Y-134319058D01*
X139696183Y-134453817D01*
X139729956Y-134481534D01*
X141115001Y-135866580D01*
X141115001Y-135911344D01*
X141063685Y-135848815D01*
X140966994Y-135769463D01*
X140856680Y-135710498D01*
X140736982Y-135674188D01*
X140612500Y-135661928D01*
X140410750Y-135665000D01*
X140252000Y-135823750D01*
X140252000Y-136873000D01*
X140272000Y-136873000D01*
X140272000Y-137127000D01*
X140252000Y-137127000D01*
X140252000Y-137147000D01*
X139998000Y-137147000D01*
X139998000Y-137127000D01*
X139161250Y-137127000D01*
X139002500Y-137285750D01*
X138999428Y-137700000D01*
X139011688Y-137824482D01*
X139047998Y-137944180D01*
X139106963Y-138054494D01*
X139186315Y-138151185D01*
X139283006Y-138230537D01*
X139393320Y-138289502D01*
X139513018Y-138325812D01*
X139637500Y-138338072D01*
X139726354Y-138336719D01*
X139650518Y-138344188D01*
X139530820Y-138380498D01*
X139420506Y-138439463D01*
X139323815Y-138518815D01*
X139244463Y-138615506D01*
X139185498Y-138725820D01*
X139149188Y-138845518D01*
X139136928Y-138970000D01*
X139136928Y-140190000D01*
X139149188Y-140314482D01*
X139185498Y-140434180D01*
X139244463Y-140544494D01*
X139323815Y-140641185D01*
X139420506Y-140720537D01*
X139530820Y-140779502D01*
X139650518Y-140815812D01*
X139775000Y-140828072D01*
X140425000Y-140828072D01*
X140549482Y-140815812D01*
X140669180Y-140779502D01*
X140779494Y-140720537D01*
X140876185Y-140641185D01*
X140955537Y-140544494D01*
X140998028Y-140465000D01*
X141101972Y-140465000D01*
X141144463Y-140544494D01*
X141223815Y-140641185D01*
X141320506Y-140720537D01*
X141430820Y-140779502D01*
X141550518Y-140815812D01*
X141675000Y-140828072D01*
X142325000Y-140828072D01*
X142449482Y-140815812D01*
X142569180Y-140779502D01*
X142679494Y-140720537D01*
X142776185Y-140641185D01*
X142855537Y-140544494D01*
X142914502Y-140434180D01*
X142950812Y-140314482D01*
X142963072Y-140190000D01*
X142963072Y-138970000D01*
X142950812Y-138845518D01*
X142914502Y-138725820D01*
X142885000Y-138670627D01*
X142885000Y-138058215D01*
X142976958Y-137946164D01*
X143058447Y-137793709D01*
X143108628Y-137628285D01*
X143125572Y-137456250D01*
X143125572Y-136543750D01*
X143108628Y-136371715D01*
X143058447Y-136206291D01*
X142976958Y-136053836D01*
X142885000Y-135941785D01*
X142885000Y-135543469D01*
X142889281Y-135500000D01*
X142885000Y-135456531D01*
X142885000Y-135456523D01*
X142872195Y-135326510D01*
X142821589Y-135159687D01*
X142739411Y-135005941D01*
X142628817Y-134871183D01*
X142595049Y-134843470D01*
X141210000Y-133458422D01*
X141210000Y-129688657D01*
X141261315Y-129751185D01*
X141358006Y-129830537D01*
X141468320Y-129889502D01*
X141588018Y-129925812D01*
X141712500Y-129938072D01*
X141914250Y-129935000D01*
X142073000Y-129776250D01*
X142073000Y-128727000D01*
X142327000Y-128727000D01*
X142327000Y-129776250D01*
X142485750Y-129935000D01*
X142687500Y-129938072D01*
X142811982Y-129925812D01*
X142931680Y-129889502D01*
X143041994Y-129830537D01*
X143138685Y-129751185D01*
X143218037Y-129654494D01*
X143277002Y-129544180D01*
X143313312Y-129424482D01*
X143325572Y-129300000D01*
X143322500Y-128885750D01*
X143163750Y-128727000D01*
X142327000Y-128727000D01*
X142073000Y-128727000D01*
X142053000Y-128727000D01*
X142053000Y-128473000D01*
X142073000Y-128473000D01*
X142073000Y-127423750D01*
X142327000Y-127423750D01*
X142327000Y-128473000D01*
X143163750Y-128473000D01*
X143322500Y-128314250D01*
X143325572Y-127900000D01*
X143313312Y-127775518D01*
X143277002Y-127655820D01*
X143218037Y-127545506D01*
X143138685Y-127448815D01*
X143041994Y-127369463D01*
X142931680Y-127310498D01*
X142811982Y-127274188D01*
X142687500Y-127261928D01*
X142485750Y-127265000D01*
X142327000Y-127423750D01*
X142073000Y-127423750D01*
X141914250Y-127265000D01*
X141712500Y-127261928D01*
X141588018Y-127274188D01*
X141468320Y-127310498D01*
X141358006Y-127369463D01*
X141261315Y-127448815D01*
X141197508Y-127526564D01*
X141192292Y-127520208D01*
X141058664Y-127410542D01*
X140906209Y-127329053D01*
X140885000Y-127322619D01*
X140885000Y-126773281D01*
X140966255Y-126797929D01*
X141120000Y-126813072D01*
X141420000Y-126813072D01*
X141573745Y-126797929D01*
X141721582Y-126753084D01*
X141855936Y-126681270D01*
X141885506Y-126705537D01*
X141995820Y-126764502D01*
X142115518Y-126800812D01*
X142240000Y-126813072D01*
X142254250Y-126810000D01*
X142413000Y-126651250D01*
X142413000Y-125327000D01*
X142667000Y-125327000D01*
X142667000Y-126651250D01*
X142825750Y-126810000D01*
X142840000Y-126813072D01*
X142964482Y-126800812D01*
X143084180Y-126764502D01*
X143194494Y-126705537D01*
X143291185Y-126626185D01*
X143370537Y-126529494D01*
X143429502Y-126419180D01*
X143465812Y-126299482D01*
X143478072Y-126175000D01*
X143475000Y-125485750D01*
X143316250Y-125327000D01*
X142667000Y-125327000D01*
X142413000Y-125327000D01*
X142393000Y-125327000D01*
X142393000Y-125073000D01*
X142413000Y-125073000D01*
X142413000Y-125053000D01*
X142667000Y-125053000D01*
X142667000Y-125073000D01*
X143316250Y-125073000D01*
X143475000Y-124914250D01*
X143478072Y-124225000D01*
X143465812Y-124100518D01*
X143429502Y-123980820D01*
X143378284Y-123885000D01*
X152956531Y-123885000D01*
X153000000Y-123889281D01*
X153043469Y-123885000D01*
X153043477Y-123885000D01*
X153173490Y-123872195D01*
X153340313Y-123821589D01*
X153494059Y-123739411D01*
X153628817Y-123628817D01*
X153656534Y-123595044D01*
X154095045Y-123156533D01*
X154128817Y-123128817D01*
X154239411Y-122994059D01*
X154321589Y-122840313D01*
X154372195Y-122673490D01*
X154379640Y-122597901D01*
X154404930Y-122577146D01*
X154455659Y-122608572D01*
X154682390Y-122693467D01*
X154873000Y-122569709D01*
X154873000Y-121627000D01*
X154853000Y-121627000D01*
X154853000Y-121373000D01*
X154873000Y-121373000D01*
X154873000Y-120430291D01*
X154682390Y-120306533D01*
X154455659Y-120391428D01*
X154404930Y-120422854D01*
X154376096Y-120399191D01*
X154235285Y-120323926D01*
X154082496Y-120277578D01*
X153923600Y-120261928D01*
X153076400Y-120261928D01*
X152917504Y-120277578D01*
X152764715Y-120323926D01*
X152623904Y-120399191D01*
X152500481Y-120500481D01*
X152406498Y-120615000D01*
X151866579Y-120615000D01*
X146878578Y-115627000D01*
X155615001Y-115627000D01*
X155615000Y-120435200D01*
X155544341Y-120391428D01*
X155317610Y-120306533D01*
X155127000Y-120430291D01*
X155127000Y-121373000D01*
X155147000Y-121373000D01*
X155147000Y-121627000D01*
X155127000Y-121627000D01*
X155127000Y-122569709D01*
X155317610Y-122693467D01*
X155544341Y-122608572D01*
X155615001Y-122564799D01*
X155615000Y-132133421D01*
X155133422Y-132615000D01*
X148043469Y-132615000D01*
X148000000Y-132610719D01*
X147956531Y-132615000D01*
X147956523Y-132615000D01*
X147826510Y-132627805D01*
X147659686Y-132678411D01*
X147505941Y-132760589D01*
X147404953Y-132843468D01*
X147404951Y-132843470D01*
X147371183Y-132871183D01*
X147343470Y-132904951D01*
X146404951Y-133843471D01*
X146371184Y-133871183D01*
X146343471Y-133904951D01*
X146343468Y-133904954D01*
X146260590Y-134005941D01*
X146178412Y-134159687D01*
X146127805Y-134326510D01*
X146110719Y-134500000D01*
X146115001Y-134543479D01*
X146115000Y-135941785D01*
X146023042Y-136053836D01*
X145941553Y-136206291D01*
X145891372Y-136371715D01*
X145874428Y-136543750D01*
X145874428Y-137456250D01*
X145891372Y-137628285D01*
X145941553Y-137793709D01*
X146023042Y-137946164D01*
X146115001Y-138058216D01*
X146115000Y-138580626D01*
X146085498Y-138635820D01*
X146049188Y-138755518D01*
X146036928Y-138880000D01*
X146036928Y-140100000D01*
X146049188Y-140224482D01*
X146085498Y-140344180D01*
X146144463Y-140454494D01*
X146223815Y-140551185D01*
X146320506Y-140630537D01*
X146430820Y-140689502D01*
X146550518Y-140725812D01*
X146675000Y-140738072D01*
X147325000Y-140738072D01*
X147449482Y-140725812D01*
X147569180Y-140689502D01*
X147679494Y-140630537D01*
X147776185Y-140551185D01*
X147855537Y-140454494D01*
X147914502Y-140344180D01*
X147950000Y-140227159D01*
X147985498Y-140344180D01*
X148044463Y-140454494D01*
X148123815Y-140551185D01*
X148220506Y-140630537D01*
X148330820Y-140689502D01*
X148450518Y-140725812D01*
X148575000Y-140738072D01*
X149225000Y-140738072D01*
X149349482Y-140725812D01*
X149469180Y-140689502D01*
X149579494Y-140630537D01*
X149676185Y-140551185D01*
X149755537Y-140454494D01*
X149814502Y-140344180D01*
X149850812Y-140224482D01*
X149863072Y-140100000D01*
X149863072Y-138880000D01*
X149850812Y-138755518D01*
X149814502Y-138635820D01*
X149755537Y-138525506D01*
X149676185Y-138428815D01*
X149579494Y-138349463D01*
X149517773Y-138316472D01*
X149606680Y-138289502D01*
X149716994Y-138230537D01*
X149813685Y-138151185D01*
X149893037Y-138054494D01*
X149952002Y-137944180D01*
X149988312Y-137824482D01*
X150000572Y-137700000D01*
X149997500Y-137285750D01*
X149838750Y-137127000D01*
X149002000Y-137127000D01*
X149002000Y-137147000D01*
X148748000Y-137147000D01*
X148748000Y-137127000D01*
X148728000Y-137127000D01*
X148728000Y-136873000D01*
X148748000Y-136873000D01*
X148748000Y-135823750D01*
X149002000Y-135823750D01*
X149002000Y-136873000D01*
X149838750Y-136873000D01*
X149997500Y-136714250D01*
X150000572Y-136300000D01*
X149988312Y-136175518D01*
X149952002Y-136055820D01*
X149893037Y-135945506D01*
X149813685Y-135848815D01*
X149716994Y-135769463D01*
X149606680Y-135710498D01*
X149486982Y-135674188D01*
X149362500Y-135661928D01*
X149160750Y-135665000D01*
X149002000Y-135823750D01*
X148748000Y-135823750D01*
X148589250Y-135665000D01*
X148387500Y-135661928D01*
X148263018Y-135674188D01*
X148143320Y-135710498D01*
X148033006Y-135769463D01*
X147936315Y-135848815D01*
X147885000Y-135911343D01*
X147885000Y-134866578D01*
X148366579Y-134385000D01*
X155456531Y-134385000D01*
X155500000Y-134389281D01*
X155543469Y-134385000D01*
X155543477Y-134385000D01*
X155673490Y-134372195D01*
X155840313Y-134321589D01*
X155994059Y-134239411D01*
X156128817Y-134128817D01*
X156156534Y-134095044D01*
X157095050Y-133156529D01*
X157128817Y-133128817D01*
X157239411Y-132994059D01*
X157239412Y-132994058D01*
X157321589Y-132840314D01*
X157372195Y-132673490D01*
X157372195Y-132673489D01*
X157385000Y-132543477D01*
X157385000Y-132543469D01*
X157389281Y-132500000D01*
X157385000Y-132456531D01*
X157385000Y-122361554D01*
X157459287Y-122287267D01*
X157594443Y-122084992D01*
X157653495Y-121942428D01*
X157794400Y-157873000D01*
X151368311Y-157873000D01*
X151406043Y-157857371D01*
X151632886Y-157705799D01*
X151823685Y-157515000D01*
X152326531Y-157515000D01*
X152370000Y-157519281D01*
X152413469Y-157515000D01*
X152413477Y-157515000D01*
X152543490Y-157502195D01*
X152710313Y-157451589D01*
X152864059Y-157369411D01*
X152998817Y-157258817D01*
X153026534Y-157225044D01*
X154095050Y-156156529D01*
X154128817Y-156128817D01*
X154239411Y-155994059D01*
X154321589Y-155840313D01*
X154372195Y-155673490D01*
X154385000Y-155543477D01*
X154385000Y-155543467D01*
X154389281Y-155500001D01*
X154385000Y-155456535D01*
X154385000Y-146543465D01*
X154389281Y-146499999D01*
X154385000Y-146456533D01*
X154385000Y-146456523D01*
X154372195Y-146326510D01*
X154321589Y-146159687D01*
X154239411Y-146005941D01*
X154128817Y-145871183D01*
X154095049Y-145843470D01*
X152656534Y-144404956D01*
X152628817Y-144371183D01*
X152494059Y-144260589D01*
X152340313Y-144178411D01*
X152173490Y-144127805D01*
X152043477Y-144115000D01*
X152043469Y-144115000D01*
X152000000Y-144110719D01*
X151956531Y-144115000D01*
X149884651Y-144115000D01*
X149851958Y-144053836D01*
X149760000Y-143941785D01*
X149760000Y-143066144D01*
X149814502Y-142964180D01*
X149850812Y-142844482D01*
X149863072Y-142720000D01*
X149863072Y-141500000D01*
X149850812Y-141375518D01*
X149814502Y-141255820D01*
X149755537Y-141145506D01*
X149676185Y-141048815D01*
X149579494Y-140969463D01*
X149469180Y-140910498D01*
X149349482Y-140874188D01*
X149225000Y-140861928D01*
X148575000Y-140861928D01*
X148450518Y-140874188D01*
X148425000Y-140881929D01*
X148399482Y-140874188D01*
X148275000Y-140861928D01*
X147625000Y-140861928D01*
X147500518Y-140874188D01*
X147475000Y-140881929D01*
X147449482Y-140874188D01*
X147325000Y-140861928D01*
X147285750Y-140865000D01*
X147127000Y-141023750D01*
X147127000Y-141105859D01*
X147094463Y-141145506D01*
X147035498Y-141255820D01*
X146999188Y-141375518D01*
X146986928Y-141500000D01*
X146986928Y-142720000D01*
X146999188Y-142844482D01*
X147035498Y-142964180D01*
X147094463Y-143074494D01*
X147127000Y-143114141D01*
X147127000Y-143196250D01*
X147285750Y-143355000D01*
X147325000Y-143358072D01*
X147449482Y-143345812D01*
X147475000Y-143338071D01*
X147500518Y-143345812D01*
X147625000Y-143358072D01*
X147990001Y-143358072D01*
X147990000Y-143911343D01*
X147938685Y-143848815D01*
X147841994Y-143769463D01*
X147731680Y-143710498D01*
X147611982Y-143674188D01*
X147487500Y-143661928D01*
X147285750Y-143665000D01*
X147127000Y-143823750D01*
X147127000Y-144873000D01*
X147147000Y-144873000D01*
X147147000Y-145127000D01*
X147127000Y-145127000D01*
X147127000Y-146176250D01*
X147285750Y-146335000D01*
X147487500Y-146338072D01*
X147611982Y-146325812D01*
X147731680Y-146289502D01*
X147841994Y-146230537D01*
X147938685Y-146151185D01*
X148002492Y-146073436D01*
X148007708Y-146079792D01*
X148141336Y-146189458D01*
X148293791Y-146270947D01*
X148459215Y-146321128D01*
X148631250Y-146338072D01*
X149118750Y-146338072D01*
X149290785Y-146321128D01*
X149456209Y-146270947D01*
X149608664Y-146189458D01*
X149742292Y-146079792D01*
X149851958Y-145946164D01*
X149884651Y-145885000D01*
X151633422Y-145885000D01*
X152615001Y-146866580D01*
X152615000Y-155133421D01*
X152003422Y-155745000D01*
X151823685Y-155745000D01*
X151632886Y-155554201D01*
X151406043Y-155402629D01*
X151306721Y-155361489D01*
X151348832Y-155346277D01*
X151461863Y-155285860D01*
X151527388Y-155046993D01*
X150750000Y-154269605D01*
X149972612Y-155046993D01*
X150038137Y-155285860D01*
X150196477Y-155360164D01*
X150093957Y-155402629D01*
X149867114Y-155554201D01*
X149674201Y-155747114D01*
X149522629Y-155973957D01*
X149418225Y-156226011D01*
X149365000Y-156493589D01*
X149365000Y-156766411D01*
X149418225Y-157033989D01*
X149522629Y-157286043D01*
X149674201Y-157512886D01*
X149867114Y-157705799D01*
X150093957Y-157857371D01*
X150131689Y-157873000D01*
X136627000Y-157873000D01*
X136627000Y-154162492D01*
X149360188Y-154162492D01*
X149401035Y-154432238D01*
X149493723Y-154688832D01*
X149554140Y-154801863D01*
X149793007Y-154867388D01*
X150570395Y-154090000D01*
X150929605Y-154090000D01*
X151706993Y-154867388D01*
X151945860Y-154801863D01*
X152061760Y-154554884D01*
X152127250Y-154290040D01*
X152139812Y-154017508D01*
X152098965Y-153747762D01*
X152006277Y-153491168D01*
X151945860Y-153378137D01*
X151706993Y-153312612D01*
X150929605Y-154090000D01*
X150570395Y-154090000D01*
X149793007Y-153312612D01*
X149554140Y-153378137D01*
X149438240Y-153625116D01*
X149372750Y-153889960D01*
X149360188Y-154162492D01*
X136627000Y-154162492D01*
X136627000Y-145700000D01*
X138999428Y-145700000D01*
X139011688Y-145824482D01*
X139047998Y-145944180D01*
X139106963Y-146054494D01*
X139186315Y-146151185D01*
X139283006Y-146230537D01*
X139393320Y-146289502D01*
X139513018Y-146325812D01*
X139637500Y-146338072D01*
X139839250Y-146335000D01*
X139998000Y-146176250D01*
X139998000Y-145127000D01*
X139161250Y-145127000D01*
X139002500Y-145285750D01*
X138999428Y-145700000D01*
X136627000Y-145700000D01*
X136627000Y-144300000D01*
X138999428Y-144300000D01*
X139002500Y-144714250D01*
X139161250Y-144873000D01*
X139998000Y-144873000D01*
X139998000Y-144853000D01*
X140252000Y-144853000D01*
X140252000Y-144873000D01*
X140272000Y-144873000D01*
X140272000Y-145127000D01*
X140252000Y-145127000D01*
X140252000Y-146176250D01*
X140410750Y-146335000D01*
X140612500Y-146338072D01*
X140736982Y-146325812D01*
X140856680Y-146289502D01*
X140966994Y-146230537D01*
X141063685Y-146151185D01*
X141115001Y-146088656D01*
X141115000Y-150456531D01*
X141110719Y-150500000D01*
X141115000Y-150543469D01*
X141115000Y-150543476D01*
X141127805Y-150673489D01*
X141178411Y-150840312D01*
X141260589Y-150994058D01*
X141371183Y-151128817D01*
X141404956Y-151156534D01*
X142393470Y-152145049D01*
X142421183Y-152178817D01*
X142454951Y-152206530D01*
X142454953Y-152206532D01*
X142526452Y-152265210D01*
X142555941Y-152289411D01*
X142709687Y-152371589D01*
X142876510Y-152422195D01*
X143006523Y-152435000D01*
X143006533Y-152435000D01*
X143049999Y-152439281D01*
X143093465Y-152435000D01*
X149676315Y-152435000D01*
X149867114Y-152625799D01*
X150093957Y-152777371D01*
X150193279Y-152818511D01*
X150151168Y-152833723D01*
X150038137Y-152894140D01*
X149972612Y-153133007D01*
X150750000Y-153910395D01*
X151527388Y-153133007D01*
X151461863Y-152894140D01*
X151303523Y-152819836D01*
X151406043Y-152777371D01*
X151632886Y-152625799D01*
X151825799Y-152432886D01*
X151977371Y-152206043D01*
X152081775Y-151953989D01*
X152135000Y-151686411D01*
X152135000Y-151413589D01*
X152081775Y-151146011D01*
X151977371Y-150893957D01*
X151825799Y-150667114D01*
X151632886Y-150474201D01*
X151406043Y-150322629D01*
X151153989Y-150218225D01*
X150886411Y-150165000D01*
X150613589Y-150165000D01*
X150346011Y-150218225D01*
X150093957Y-150322629D01*
X149867114Y-150474201D01*
X149676315Y-150665000D01*
X143416579Y-150665000D01*
X142885000Y-150133422D01*
X142885000Y-146058215D01*
X142976958Y-145946164D01*
X143058447Y-145793709D01*
X143086873Y-145700000D01*
X145874428Y-145700000D01*
X145886688Y-145824482D01*
X145922998Y-145944180D01*
X145981963Y-146054494D01*
X146061315Y-146151185D01*
X146158006Y-146230537D01*
X146268320Y-146289502D01*
X146388018Y-146325812D01*
X146512500Y-146338072D01*
X146714250Y-146335000D01*
X146873000Y-146176250D01*
X146873000Y-145127000D01*
X146036250Y-145127000D01*
X145877500Y-145285750D01*
X145874428Y-145700000D01*
X143086873Y-145700000D01*
X143108628Y-145628285D01*
X143125572Y-145456250D01*
X143125572Y-144543750D01*
X143108628Y-144371715D01*
X143086874Y-144300000D01*
X145874428Y-144300000D01*
X145877500Y-144714250D01*
X146036250Y-144873000D01*
X146873000Y-144873000D01*
X146873000Y-143823750D01*
X146714250Y-143665000D01*
X146512500Y-143661928D01*
X146388018Y-143674188D01*
X146268320Y-143710498D01*
X146158006Y-143769463D01*
X146061315Y-143848815D01*
X145981963Y-143945506D01*
X145922998Y-144055820D01*
X145886688Y-144175518D01*
X145874428Y-144300000D01*
X143086874Y-144300000D01*
X143058447Y-144206291D01*
X142976958Y-144053836D01*
X142885000Y-143941785D01*
X142885000Y-143543476D01*
X142889282Y-143500000D01*
X142885000Y-143456523D01*
X142885000Y-143109373D01*
X142914502Y-143054180D01*
X142950812Y-142934482D01*
X142963072Y-142810000D01*
X142963072Y-142720000D01*
X146036928Y-142720000D01*
X146049188Y-142844482D01*
X146085498Y-142964180D01*
X146144463Y-143074494D01*
X146223815Y-143171185D01*
X146320506Y-143250537D01*
X146430820Y-143309502D01*
X146550518Y-143345812D01*
X146675000Y-143358072D01*
X146714250Y-143355000D01*
X146873000Y-143196250D01*
X146873000Y-142237000D01*
X146198750Y-142237000D01*
X146040000Y-142395750D01*
X146036928Y-142720000D01*
X142963072Y-142720000D01*
X142963072Y-141590000D01*
X142954209Y-141500000D01*
X146036928Y-141500000D01*
X146040000Y-141824250D01*
X146198750Y-141983000D01*
X146873000Y-141983000D01*
X146873000Y-141023750D01*
X146714250Y-140865000D01*
X146675000Y-140861928D01*
X146550518Y-140874188D01*
X146430820Y-140910498D01*
X146320506Y-140969463D01*
X146223815Y-141048815D01*
X146144463Y-141145506D01*
X146085498Y-141255820D01*
X146049188Y-141375518D01*
X146036928Y-141500000D01*
X142954209Y-141500000D01*
X142950812Y-141465518D01*
X142914502Y-141345820D01*
X142855537Y-141235506D01*
X142776185Y-141138815D01*
X142679494Y-141059463D01*
X142569180Y-141000498D01*
X142449482Y-140964188D01*
X142325000Y-140951928D01*
X141675000Y-140951928D01*
X141550518Y-140964188D01*
X141525000Y-140971929D01*
X141499482Y-140964188D01*
X141375000Y-140951928D01*
X141335750Y-140955000D01*
X141177000Y-141113750D01*
X141177000Y-141195859D01*
X141144463Y-141235506D01*
X141085498Y-141345820D01*
X141050000Y-141462841D01*
X141014502Y-141345820D01*
X140955537Y-141235506D01*
X140923000Y-141195859D01*
X140923000Y-141113750D01*
X140764250Y-140955000D01*
X140725000Y-140951928D01*
X140600518Y-140964188D01*
X140575000Y-140971929D01*
X140549482Y-140964188D01*
X140425000Y-140951928D01*
X139775000Y-140951928D01*
X139650518Y-140964188D01*
X139530820Y-141000498D01*
X139420506Y-141059463D01*
X139323815Y-141138815D01*
X139244463Y-141235506D01*
X139185498Y-141345820D01*
X139149188Y-141465518D01*
X139136928Y-141590000D01*
X139136928Y-142810000D01*
X139149188Y-142934482D01*
X139185498Y-143054180D01*
X139215712Y-143110706D01*
X139221010Y-143164494D01*
X139227805Y-143233490D01*
X139243157Y-143284096D01*
X139278411Y-143400312D01*
X139360589Y-143554058D01*
X139469909Y-143687265D01*
X139393320Y-143710498D01*
X139283006Y-143769463D01*
X139186315Y-143848815D01*
X139106963Y-143945506D01*
X139047998Y-144055820D01*
X139011688Y-144175518D01*
X138999428Y-144300000D01*
X136627000Y-144300000D01*
X136627000Y-136300000D01*
X138999428Y-136300000D01*
X139002500Y-136714250D01*
X139161250Y-136873000D01*
X139998000Y-136873000D01*
X139998000Y-135823750D01*
X139839250Y-135665000D01*
X139637500Y-135661928D01*
X139513018Y-135674188D01*
X139393320Y-135710498D01*
X139283006Y-135769463D01*
X139186315Y-135848815D01*
X139106963Y-135945506D01*
X139047998Y-136055820D01*
X139011688Y-136175518D01*
X138999428Y-136300000D01*
X136627000Y-136300000D01*
X136627000Y-117700000D01*
X138249428Y-117700000D01*
X138261688Y-117824482D01*
X138297998Y-117944180D01*
X138356963Y-118054494D01*
X138436315Y-118151185D01*
X138533006Y-118230537D01*
X138643320Y-118289502D01*
X138763018Y-118325812D01*
X138887500Y-118338072D01*
X139089250Y-118335000D01*
X139248000Y-118176250D01*
X139248000Y-117127000D01*
X138411250Y-117127000D01*
X138252500Y-117285750D01*
X138249428Y-117700000D01*
X136627000Y-117700000D01*
X136627000Y-116300000D01*
X138249428Y-116300000D01*
X138252500Y-116714250D01*
X138411250Y-116873000D01*
X139248000Y-116873000D01*
X139248000Y-115823750D01*
X139089250Y-115665000D01*
X138887500Y-115661928D01*
X138763018Y-115674188D01*
X138643320Y-115710498D01*
X138533006Y-115769463D01*
X138436315Y-115848815D01*
X138356963Y-115945506D01*
X138297998Y-116055820D01*
X138261688Y-116175518D01*
X138249428Y-116300000D01*
X136627000Y-116300000D01*
X136627000Y-115627000D01*
X140490001Y-115627000D01*
X140490001Y-115832155D01*
M02*
