G04 #@! TF.GenerationSoftware,KiCad,Pcbnew,(5.1.6-0-10_14)*
G04 #@! TF.CreationDate,2020-11-05T10:51:19+09:00*
G04 #@! TF.ProjectId,teabiscuits_compute,74656162-6973-4637-9569-74735f636f6d,rev?*
G04 #@! TF.SameCoordinates,Original*
G04 #@! TF.FileFunction,Soldermask,Bot*
G04 #@! TF.FilePolarity,Negative*
%FSLAX46Y46*%
G04 Gerber Fmt 4.6, Leading zero omitted, Abs format (unit mm)*
G04 Created by KiCad (PCBNEW (5.1.6-0-10_14)) date 2020-11-05 10:51:19*
%MOMM*%
%LPD*%
G01*
G04 APERTURE LIST*
%ADD10C,0.100000*%
G04 APERTURE END LIST*
D10*
G36*
X132477142Y-166088242D02*
G01*
X132625101Y-166149529D01*
X132758255Y-166238499D01*
X132871501Y-166351745D01*
X132960471Y-166484899D01*
X133021758Y-166632858D01*
X133053000Y-166789925D01*
X133053000Y-166950075D01*
X133021758Y-167107142D01*
X132960471Y-167255101D01*
X132871501Y-167388255D01*
X132758255Y-167501501D01*
X132625101Y-167590471D01*
X132477142Y-167651758D01*
X132320075Y-167683000D01*
X132159925Y-167683000D01*
X132002858Y-167651758D01*
X131854899Y-167590471D01*
X131721745Y-167501501D01*
X131608499Y-167388255D01*
X131519529Y-167255101D01*
X131458242Y-167107142D01*
X131427000Y-166950075D01*
X131427000Y-166789925D01*
X131458242Y-166632858D01*
X131519529Y-166484899D01*
X131608499Y-166351745D01*
X131721745Y-166238499D01*
X131854899Y-166149529D01*
X132002858Y-166088242D01*
X132159925Y-166057000D01*
X132320075Y-166057000D01*
X132477142Y-166088242D01*
G37*
G36*
X117237142Y-166088242D02*
G01*
X117385101Y-166149529D01*
X117518255Y-166238499D01*
X117631501Y-166351745D01*
X117720471Y-166484899D01*
X117781758Y-166632858D01*
X117813000Y-166789925D01*
X117813000Y-166950075D01*
X117781758Y-167107142D01*
X117720471Y-167255101D01*
X117631501Y-167388255D01*
X117518255Y-167501501D01*
X117385101Y-167590471D01*
X117237142Y-167651758D01*
X117080075Y-167683000D01*
X116919925Y-167683000D01*
X116762858Y-167651758D01*
X116614899Y-167590471D01*
X116481745Y-167501501D01*
X116368499Y-167388255D01*
X116279529Y-167255101D01*
X116218242Y-167107142D01*
X116187000Y-166950075D01*
X116187000Y-166789925D01*
X116218242Y-166632858D01*
X116279529Y-166484899D01*
X116368499Y-166351745D01*
X116481745Y-166238499D01*
X116614899Y-166149529D01*
X116762858Y-166088242D01*
X116919925Y-166057000D01*
X117080075Y-166057000D01*
X117237142Y-166088242D01*
G37*
G36*
X117237142Y-163548242D02*
G01*
X117385101Y-163609529D01*
X117518255Y-163698499D01*
X117631501Y-163811745D01*
X117720471Y-163944899D01*
X117781758Y-164092858D01*
X117813000Y-164249925D01*
X117813000Y-164410075D01*
X117781758Y-164567142D01*
X117720471Y-164715101D01*
X117631501Y-164848255D01*
X117518255Y-164961501D01*
X117385101Y-165050471D01*
X117237142Y-165111758D01*
X117080075Y-165143000D01*
X116919925Y-165143000D01*
X116762858Y-165111758D01*
X116614899Y-165050471D01*
X116481745Y-164961501D01*
X116368499Y-164848255D01*
X116279529Y-164715101D01*
X116218242Y-164567142D01*
X116187000Y-164410075D01*
X116187000Y-164249925D01*
X116218242Y-164092858D01*
X116279529Y-163944899D01*
X116368499Y-163811745D01*
X116481745Y-163698499D01*
X116614899Y-163609529D01*
X116762858Y-163548242D01*
X116919925Y-163517000D01*
X117080075Y-163517000D01*
X117237142Y-163548242D01*
G37*
G36*
X132477142Y-163548242D02*
G01*
X132625101Y-163609529D01*
X132758255Y-163698499D01*
X132871501Y-163811745D01*
X132960471Y-163944899D01*
X133021758Y-164092858D01*
X133053000Y-164249925D01*
X133053000Y-164410075D01*
X133021758Y-164567142D01*
X132960471Y-164715101D01*
X132871501Y-164848255D01*
X132758255Y-164961501D01*
X132625101Y-165050471D01*
X132477142Y-165111758D01*
X132320075Y-165143000D01*
X132159925Y-165143000D01*
X132002858Y-165111758D01*
X131854899Y-165050471D01*
X131721745Y-164961501D01*
X131608499Y-164848255D01*
X131519529Y-164715101D01*
X131458242Y-164567142D01*
X131427000Y-164410075D01*
X131427000Y-164249925D01*
X131458242Y-164092858D01*
X131519529Y-163944899D01*
X131608499Y-163811745D01*
X131721745Y-163698499D01*
X131854899Y-163609529D01*
X132002858Y-163548242D01*
X132159925Y-163517000D01*
X132320075Y-163517000D01*
X132477142Y-163548242D01*
G37*
G36*
X151551000Y-165051000D02*
G01*
X149949000Y-165051000D01*
X149949000Y-163449000D01*
X151551000Y-163449000D01*
X151551000Y-165051000D01*
G37*
G36*
X97360848Y-162656031D02*
G01*
X97462830Y-162698273D01*
X97511116Y-162718274D01*
X97646353Y-162808637D01*
X97761363Y-162923647D01*
X97851726Y-163058884D01*
X97851727Y-163058886D01*
X97913969Y-163209152D01*
X97941722Y-163348674D01*
X97945700Y-163368676D01*
X97945700Y-163531324D01*
X97913969Y-163690848D01*
X97851726Y-163841116D01*
X97761363Y-163976353D01*
X97646353Y-164091363D01*
X97511116Y-164181726D01*
X97511115Y-164181727D01*
X97511114Y-164181727D01*
X97360848Y-164243969D01*
X97201326Y-164275700D01*
X97038674Y-164275700D01*
X96879152Y-164243969D01*
X96728886Y-164181727D01*
X96728885Y-164181727D01*
X96728884Y-164181726D01*
X96593647Y-164091363D01*
X96478637Y-163976353D01*
X96388274Y-163841116D01*
X96326031Y-163690848D01*
X96294300Y-163531324D01*
X96294300Y-163368676D01*
X96298279Y-163348674D01*
X96326031Y-163209152D01*
X96388273Y-163058886D01*
X96388274Y-163058884D01*
X96478637Y-162923647D01*
X96593647Y-162808637D01*
X96728884Y-162718274D01*
X96777171Y-162698273D01*
X96879152Y-162656031D01*
X97038674Y-162624300D01*
X97201326Y-162624300D01*
X97360848Y-162656031D01*
G37*
G36*
X107411872Y-162624300D02*
G01*
X107470848Y-162636031D01*
X107621116Y-162698274D01*
X107756353Y-162788637D01*
X107871363Y-162903647D01*
X107884728Y-162923649D01*
X107961727Y-163038886D01*
X108023969Y-163189152D01*
X108055700Y-163348674D01*
X108055700Y-163511326D01*
X108023969Y-163670848D01*
X107965609Y-163811743D01*
X107961726Y-163821116D01*
X107871363Y-163956353D01*
X107756353Y-164071363D01*
X107621116Y-164161726D01*
X107621115Y-164161727D01*
X107621114Y-164161727D01*
X107470848Y-164223969D01*
X107311326Y-164255700D01*
X107148674Y-164255700D01*
X106989152Y-164223969D01*
X106838886Y-164161727D01*
X106838885Y-164161727D01*
X106838884Y-164161726D01*
X106703647Y-164071363D01*
X106588637Y-163956353D01*
X106498274Y-163821116D01*
X106494392Y-163811743D01*
X106436031Y-163670848D01*
X106404300Y-163511326D01*
X106404300Y-163348674D01*
X106436031Y-163189152D01*
X106498273Y-163038886D01*
X106575272Y-162923649D01*
X106588637Y-162903647D01*
X106703647Y-162788637D01*
X106838884Y-162698274D01*
X106989152Y-162636031D01*
X107048128Y-162624300D01*
X107148674Y-162604300D01*
X107311326Y-162604300D01*
X107411872Y-162624300D01*
G37*
G36*
X117237142Y-161008242D02*
G01*
X117385101Y-161069529D01*
X117518255Y-161158499D01*
X117631501Y-161271745D01*
X117720471Y-161404899D01*
X117781758Y-161552858D01*
X117813000Y-161709925D01*
X117813000Y-161870075D01*
X117781758Y-162027142D01*
X117720471Y-162175101D01*
X117631501Y-162308255D01*
X117518255Y-162421501D01*
X117385101Y-162510471D01*
X117237142Y-162571758D01*
X117080075Y-162603000D01*
X116919925Y-162603000D01*
X116762858Y-162571758D01*
X116614899Y-162510471D01*
X116481745Y-162421501D01*
X116368499Y-162308255D01*
X116279529Y-162175101D01*
X116218242Y-162027142D01*
X116187000Y-161870075D01*
X116187000Y-161709925D01*
X116218242Y-161552858D01*
X116279529Y-161404899D01*
X116368499Y-161271745D01*
X116481745Y-161158499D01*
X116614899Y-161069529D01*
X116762858Y-161008242D01*
X116919925Y-160977000D01*
X117080075Y-160977000D01*
X117237142Y-161008242D01*
G37*
G36*
X132477142Y-161008242D02*
G01*
X132625101Y-161069529D01*
X132758255Y-161158499D01*
X132871501Y-161271745D01*
X132960471Y-161404899D01*
X133021758Y-161552858D01*
X133053000Y-161709925D01*
X133053000Y-161870075D01*
X133021758Y-162027142D01*
X132960471Y-162175101D01*
X132871501Y-162308255D01*
X132758255Y-162421501D01*
X132625101Y-162510471D01*
X132477142Y-162571758D01*
X132320075Y-162603000D01*
X132159925Y-162603000D01*
X132002858Y-162571758D01*
X131854899Y-162510471D01*
X131721745Y-162421501D01*
X131608499Y-162308255D01*
X131519529Y-162175101D01*
X131458242Y-162027142D01*
X131427000Y-161870075D01*
X131427000Y-161709925D01*
X131458242Y-161552858D01*
X131519529Y-161404899D01*
X131608499Y-161271745D01*
X131721745Y-161158499D01*
X131854899Y-161069529D01*
X132002858Y-161008242D01*
X132159925Y-160977000D01*
X132320075Y-160977000D01*
X132477142Y-161008242D01*
G37*
G36*
X110010848Y-160936031D02*
G01*
X110161116Y-160998274D01*
X110296353Y-161088637D01*
X110411363Y-161203647D01*
X110456865Y-161271745D01*
X110501727Y-161338886D01*
X110563969Y-161489152D01*
X110595700Y-161648674D01*
X110595700Y-161811326D01*
X110563969Y-161970848D01*
X110514858Y-162089414D01*
X110501726Y-162121116D01*
X110411363Y-162256353D01*
X110296353Y-162371363D01*
X110161116Y-162461726D01*
X110161115Y-162461727D01*
X110161114Y-162461727D01*
X110010848Y-162523969D01*
X109851326Y-162555700D01*
X109688674Y-162555700D01*
X109529152Y-162523969D01*
X109378886Y-162461727D01*
X109378885Y-162461727D01*
X109378884Y-162461726D01*
X109243647Y-162371363D01*
X109128637Y-162256353D01*
X109038274Y-162121116D01*
X109025143Y-162089414D01*
X108976031Y-161970848D01*
X108944300Y-161811326D01*
X108944300Y-161648674D01*
X108976031Y-161489152D01*
X109038273Y-161338886D01*
X109083135Y-161271745D01*
X109128637Y-161203647D01*
X109243647Y-161088637D01*
X109378884Y-160998274D01*
X109529152Y-160936031D01*
X109688674Y-160904300D01*
X109851326Y-160904300D01*
X110010848Y-160936031D01*
G37*
G36*
X99900848Y-160936031D02*
G01*
X100051116Y-160998274D01*
X100186353Y-161088637D01*
X100301363Y-161203647D01*
X100346865Y-161271745D01*
X100391727Y-161338886D01*
X100453969Y-161489152D01*
X100485700Y-161648674D01*
X100485700Y-161811326D01*
X100453969Y-161970848D01*
X100404858Y-162089414D01*
X100391726Y-162121116D01*
X100301363Y-162256353D01*
X100186353Y-162371363D01*
X100051116Y-162461726D01*
X100051115Y-162461727D01*
X100051114Y-162461727D01*
X99900848Y-162523969D01*
X99741326Y-162555700D01*
X99578674Y-162555700D01*
X99419152Y-162523969D01*
X99268886Y-162461727D01*
X99268885Y-162461727D01*
X99268884Y-162461726D01*
X99133647Y-162371363D01*
X99018637Y-162256353D01*
X98928274Y-162121116D01*
X98915143Y-162089414D01*
X98866031Y-161970848D01*
X98834300Y-161811326D01*
X98834300Y-161648674D01*
X98866031Y-161489152D01*
X98928273Y-161338886D01*
X98973135Y-161271745D01*
X99018637Y-161203647D01*
X99133647Y-161088637D01*
X99268884Y-160998274D01*
X99419152Y-160936031D01*
X99578674Y-160904300D01*
X99741326Y-160904300D01*
X99900848Y-160936031D01*
G37*
G36*
X150983642Y-160939781D02*
G01*
X151124856Y-160998274D01*
X151129416Y-161000163D01*
X151260608Y-161087822D01*
X151372178Y-161199392D01*
X151375022Y-161203649D01*
X151459838Y-161330586D01*
X151520219Y-161476358D01*
X151551000Y-161631107D01*
X151551000Y-161788893D01*
X151520219Y-161943642D01*
X151459838Y-162089414D01*
X151459837Y-162089416D01*
X151372178Y-162220608D01*
X151260608Y-162332178D01*
X151129416Y-162419837D01*
X151129415Y-162419838D01*
X151129414Y-162419838D01*
X150983642Y-162480219D01*
X150828893Y-162511000D01*
X150671107Y-162511000D01*
X150516358Y-162480219D01*
X150370586Y-162419838D01*
X150370585Y-162419838D01*
X150370584Y-162419837D01*
X150239392Y-162332178D01*
X150127822Y-162220608D01*
X150040163Y-162089416D01*
X150040162Y-162089414D01*
X149979781Y-161943642D01*
X149949000Y-161788893D01*
X149949000Y-161631107D01*
X149979781Y-161476358D01*
X150040162Y-161330586D01*
X150124978Y-161203649D01*
X150127822Y-161199392D01*
X150239392Y-161087822D01*
X150370584Y-161000163D01*
X150375144Y-160998274D01*
X150516358Y-160939781D01*
X150671107Y-160909000D01*
X150828893Y-160909000D01*
X150983642Y-160939781D01*
G37*
G36*
X109518347Y-156472857D02*
G01*
X109723135Y-156513592D01*
X110074482Y-156659125D01*
X110390686Y-156870405D01*
X110659595Y-157139314D01*
X110870875Y-157455518D01*
X110870876Y-157455520D01*
X111016408Y-157806866D01*
X111090600Y-158179851D01*
X111090600Y-158560149D01*
X111056467Y-158731745D01*
X111016408Y-158933135D01*
X110870875Y-159284482D01*
X110659595Y-159600686D01*
X110390686Y-159869595D01*
X110074482Y-160080875D01*
X109723135Y-160226408D01*
X109598806Y-160251139D01*
X109350149Y-160300600D01*
X108969851Y-160300600D01*
X108721194Y-160251139D01*
X108596865Y-160226408D01*
X108245518Y-160080875D01*
X107929314Y-159869595D01*
X107660405Y-159600686D01*
X107449125Y-159284482D01*
X107303592Y-158933135D01*
X107263533Y-158731745D01*
X107229400Y-158560149D01*
X107229400Y-158179851D01*
X107303592Y-157806866D01*
X107449124Y-157455520D01*
X107449125Y-157455518D01*
X107660405Y-157139314D01*
X107929314Y-156870405D01*
X108245518Y-156659125D01*
X108596865Y-156513592D01*
X108801653Y-156472857D01*
X108969851Y-156439400D01*
X109350149Y-156439400D01*
X109518347Y-156472857D01*
G37*
G36*
X98088347Y-156472857D02*
G01*
X98293135Y-156513592D01*
X98644482Y-156659125D01*
X98960686Y-156870405D01*
X99229595Y-157139314D01*
X99440875Y-157455518D01*
X99440876Y-157455520D01*
X99586408Y-157806866D01*
X99660600Y-158179851D01*
X99660600Y-158560149D01*
X99626467Y-158731745D01*
X99586408Y-158933135D01*
X99440875Y-159284482D01*
X99229595Y-159600686D01*
X98960686Y-159869595D01*
X98644482Y-160080875D01*
X98293135Y-160226408D01*
X98168806Y-160251139D01*
X97920149Y-160300600D01*
X97539851Y-160300600D01*
X97291194Y-160251139D01*
X97166865Y-160226408D01*
X96815518Y-160080875D01*
X96499314Y-159869595D01*
X96230405Y-159600686D01*
X96019125Y-159284482D01*
X95873592Y-158933135D01*
X95833533Y-158731745D01*
X95799400Y-158560149D01*
X95799400Y-158179851D01*
X95873592Y-157806866D01*
X96019124Y-157455520D01*
X96019125Y-157455518D01*
X96230405Y-157139314D01*
X96499314Y-156870405D01*
X96815518Y-156659125D01*
X97166865Y-156513592D01*
X97371653Y-156472857D01*
X97539851Y-156439400D01*
X97920149Y-156439400D01*
X98088347Y-156472857D01*
G37*
G36*
X132477142Y-158468242D02*
G01*
X132625101Y-158529529D01*
X132758255Y-158618499D01*
X132871501Y-158731745D01*
X132960471Y-158864899D01*
X133021758Y-159012858D01*
X133053000Y-159169925D01*
X133053000Y-159330075D01*
X133021758Y-159487142D01*
X132960471Y-159635101D01*
X132871501Y-159768255D01*
X132758255Y-159881501D01*
X132625101Y-159970471D01*
X132477142Y-160031758D01*
X132320075Y-160063000D01*
X132159925Y-160063000D01*
X132002858Y-160031758D01*
X131854899Y-159970471D01*
X131721745Y-159881501D01*
X131608499Y-159768255D01*
X131519529Y-159635101D01*
X131458242Y-159487142D01*
X131427000Y-159330075D01*
X131427000Y-159169925D01*
X131458242Y-159012858D01*
X131519529Y-158864899D01*
X131608499Y-158731745D01*
X131721745Y-158618499D01*
X131854899Y-158529529D01*
X132002858Y-158468242D01*
X132159925Y-158437000D01*
X132320075Y-158437000D01*
X132477142Y-158468242D01*
G37*
G36*
X117237142Y-158468242D02*
G01*
X117385101Y-158529529D01*
X117518255Y-158618499D01*
X117631501Y-158731745D01*
X117720471Y-158864899D01*
X117781758Y-159012858D01*
X117813000Y-159169925D01*
X117813000Y-159330075D01*
X117781758Y-159487142D01*
X117720471Y-159635101D01*
X117631501Y-159768255D01*
X117518255Y-159881501D01*
X117385101Y-159970471D01*
X117237142Y-160031758D01*
X117080075Y-160063000D01*
X116919925Y-160063000D01*
X116762858Y-160031758D01*
X116614899Y-159970471D01*
X116481745Y-159881501D01*
X116368499Y-159768255D01*
X116279529Y-159635101D01*
X116218242Y-159487142D01*
X116187000Y-159330075D01*
X116187000Y-159169925D01*
X116218242Y-159012858D01*
X116279529Y-158864899D01*
X116368499Y-158731745D01*
X116481745Y-158618499D01*
X116614899Y-158529529D01*
X116762858Y-158468242D01*
X116919925Y-158437000D01*
X117080075Y-158437000D01*
X117237142Y-158468242D01*
G37*
G36*
X117237142Y-155928242D02*
G01*
X117385101Y-155989529D01*
X117518255Y-156078499D01*
X117631501Y-156191745D01*
X117720471Y-156324899D01*
X117781758Y-156472858D01*
X117813000Y-156629925D01*
X117813000Y-156790075D01*
X117781758Y-156947142D01*
X117720471Y-157095101D01*
X117631501Y-157228255D01*
X117518255Y-157341501D01*
X117385101Y-157430471D01*
X117237142Y-157491758D01*
X117080075Y-157523000D01*
X116919925Y-157523000D01*
X116762858Y-157491758D01*
X116614899Y-157430471D01*
X116481745Y-157341501D01*
X116368499Y-157228255D01*
X116279529Y-157095101D01*
X116218242Y-156947142D01*
X116187000Y-156790075D01*
X116187000Y-156629925D01*
X116218242Y-156472858D01*
X116279529Y-156324899D01*
X116368499Y-156191745D01*
X116481745Y-156078499D01*
X116614899Y-155989529D01*
X116762858Y-155928242D01*
X116919925Y-155897000D01*
X117080075Y-155897000D01*
X117237142Y-155928242D01*
G37*
G36*
X132477142Y-155928242D02*
G01*
X132625101Y-155989529D01*
X132758255Y-156078499D01*
X132871501Y-156191745D01*
X132960471Y-156324899D01*
X133021758Y-156472858D01*
X133053000Y-156629925D01*
X133053000Y-156790075D01*
X133021758Y-156947142D01*
X132960471Y-157095101D01*
X132871501Y-157228255D01*
X132758255Y-157341501D01*
X132625101Y-157430471D01*
X132477142Y-157491758D01*
X132320075Y-157523000D01*
X132159925Y-157523000D01*
X132002858Y-157491758D01*
X131854899Y-157430471D01*
X131721745Y-157341501D01*
X131608499Y-157228255D01*
X131519529Y-157095101D01*
X131458242Y-156947142D01*
X131427000Y-156790075D01*
X131427000Y-156629925D01*
X131458242Y-156472858D01*
X131519529Y-156324899D01*
X131608499Y-156191745D01*
X131721745Y-156078499D01*
X131854899Y-155989529D01*
X132002858Y-155928242D01*
X132159925Y-155897000D01*
X132320075Y-155897000D01*
X132477142Y-155928242D01*
G37*
G36*
X150983642Y-155859781D02*
G01*
X151129414Y-155920162D01*
X151129416Y-155920163D01*
X151260608Y-156007822D01*
X151372178Y-156119392D01*
X151420521Y-156191743D01*
X151459838Y-156250586D01*
X151520219Y-156396358D01*
X151551000Y-156551107D01*
X151551000Y-156708893D01*
X151520219Y-156863642D01*
X151459838Y-157009414D01*
X151459837Y-157009416D01*
X151372178Y-157140608D01*
X151260608Y-157252178D01*
X151129416Y-157339837D01*
X151129415Y-157339838D01*
X151129414Y-157339838D01*
X150983642Y-157400219D01*
X150828893Y-157431000D01*
X150671107Y-157431000D01*
X150516358Y-157400219D01*
X150370586Y-157339838D01*
X150370585Y-157339838D01*
X150370584Y-157339837D01*
X150239392Y-157252178D01*
X150127822Y-157140608D01*
X150040163Y-157009416D01*
X150040162Y-157009414D01*
X149979781Y-156863642D01*
X149949000Y-156708893D01*
X149949000Y-156551107D01*
X149979781Y-156396358D01*
X150040162Y-156250586D01*
X150079479Y-156191743D01*
X150127822Y-156119392D01*
X150239392Y-156007822D01*
X150370584Y-155920163D01*
X150370586Y-155920162D01*
X150516358Y-155859781D01*
X150671107Y-155829000D01*
X150828893Y-155829000D01*
X150983642Y-155859781D01*
G37*
G36*
X111642344Y-154257368D02*
G01*
X111843459Y-154340673D01*
X112024458Y-154461613D01*
X112178385Y-154615540D01*
X112252192Y-154726000D01*
X112299326Y-154796541D01*
X112301380Y-154801499D01*
X112382630Y-154997654D01*
X112425098Y-155211157D01*
X112425098Y-155428843D01*
X112382630Y-155642346D01*
X112299325Y-155843461D01*
X112178385Y-156024460D01*
X112024458Y-156178387D01*
X111843459Y-156299327D01*
X111642344Y-156382632D01*
X111573343Y-156396357D01*
X111428842Y-156425100D01*
X111211154Y-156425100D01*
X111066653Y-156396357D01*
X110997652Y-156382632D01*
X110796537Y-156299327D01*
X110615538Y-156178387D01*
X110461611Y-156024460D01*
X110340671Y-155843461D01*
X110257366Y-155642346D01*
X110214898Y-155428843D01*
X110214898Y-155211157D01*
X110257366Y-154997654D01*
X110338616Y-154801499D01*
X110340670Y-154796541D01*
X110387804Y-154726000D01*
X110461611Y-154615540D01*
X110615538Y-154461613D01*
X110796537Y-154340673D01*
X110997652Y-154257368D01*
X111211154Y-154214900D01*
X111428842Y-154214900D01*
X111642344Y-154257368D01*
G37*
G36*
X95892348Y-154257368D02*
G01*
X96093463Y-154340673D01*
X96274462Y-154461613D01*
X96428389Y-154615540D01*
X96502196Y-154726000D01*
X96549330Y-154796541D01*
X96551384Y-154801499D01*
X96632634Y-154997654D01*
X96675102Y-155211157D01*
X96675102Y-155428843D01*
X96632634Y-155642346D01*
X96549329Y-155843461D01*
X96428389Y-156024460D01*
X96274462Y-156178387D01*
X96093463Y-156299327D01*
X95892348Y-156382632D01*
X95823347Y-156396357D01*
X95678846Y-156425100D01*
X95461158Y-156425100D01*
X95316657Y-156396357D01*
X95247656Y-156382632D01*
X95046541Y-156299327D01*
X94865542Y-156178387D01*
X94711615Y-156024460D01*
X94590675Y-155843461D01*
X94507370Y-155642346D01*
X94464902Y-155428843D01*
X94464902Y-155211157D01*
X94507370Y-154997654D01*
X94588620Y-154801499D01*
X94590674Y-154796541D01*
X94637808Y-154726000D01*
X94711615Y-154615540D01*
X94865542Y-154461613D01*
X95046541Y-154340673D01*
X95247656Y-154257368D01*
X95461158Y-154214900D01*
X95678846Y-154214900D01*
X95892348Y-154257368D01*
G37*
G36*
X132477142Y-153388242D02*
G01*
X132625101Y-153449529D01*
X132758255Y-153538499D01*
X132871501Y-153651745D01*
X132960471Y-153784899D01*
X133021758Y-153932858D01*
X133053000Y-154089925D01*
X133053000Y-154250075D01*
X133021758Y-154407142D01*
X132960471Y-154555101D01*
X132871501Y-154688255D01*
X132758255Y-154801501D01*
X132625101Y-154890471D01*
X132477142Y-154951758D01*
X132320075Y-154983000D01*
X132159925Y-154983000D01*
X132002858Y-154951758D01*
X131854899Y-154890471D01*
X131721745Y-154801501D01*
X131608499Y-154688255D01*
X131519529Y-154555101D01*
X131458242Y-154407142D01*
X131427000Y-154250075D01*
X131427000Y-154089925D01*
X131458242Y-153932858D01*
X131519529Y-153784899D01*
X131608499Y-153651745D01*
X131721745Y-153538499D01*
X131854899Y-153449529D01*
X132002858Y-153388242D01*
X132159925Y-153357000D01*
X132320075Y-153357000D01*
X132477142Y-153388242D01*
G37*
G36*
X150983642Y-153319781D02*
G01*
X151129414Y-153380162D01*
X151129416Y-153380163D01*
X151260608Y-153467822D01*
X151372178Y-153579392D01*
X151423440Y-153656112D01*
X151459838Y-153710586D01*
X151520219Y-153856358D01*
X151551000Y-154011107D01*
X151551000Y-154168893D01*
X151520219Y-154323642D01*
X151463070Y-154461612D01*
X151459837Y-154469416D01*
X151372178Y-154600608D01*
X151260608Y-154712178D01*
X151129416Y-154799837D01*
X151129415Y-154799838D01*
X151129414Y-154799838D01*
X150983642Y-154860219D01*
X150828893Y-154891000D01*
X150671107Y-154891000D01*
X150516358Y-154860219D01*
X150370586Y-154799838D01*
X150370585Y-154799838D01*
X150370584Y-154799837D01*
X150239392Y-154712178D01*
X150127822Y-154600608D01*
X150040163Y-154469416D01*
X150036930Y-154461612D01*
X149979781Y-154323642D01*
X149949000Y-154168893D01*
X149949000Y-154011107D01*
X149979781Y-153856358D01*
X150040162Y-153710586D01*
X150076560Y-153656112D01*
X150127822Y-153579392D01*
X150239392Y-153467822D01*
X150370584Y-153380163D01*
X150370586Y-153380162D01*
X150516358Y-153319781D01*
X150671107Y-153289000D01*
X150828893Y-153289000D01*
X150983642Y-153319781D01*
G37*
G36*
X120726000Y-154726000D02*
G01*
X119274000Y-154726000D01*
X119274000Y-153274000D01*
X120726000Y-153274000D01*
X120726000Y-154726000D01*
G37*
G36*
X122211766Y-153301899D02*
G01*
X122343888Y-153356626D01*
X122343890Y-153356627D01*
X122462798Y-153436079D01*
X122563921Y-153537202D01*
X122592112Y-153579393D01*
X122643374Y-153656112D01*
X122698101Y-153788234D01*
X122726000Y-153928494D01*
X122726000Y-154071506D01*
X122698101Y-154211766D01*
X122644706Y-154340672D01*
X122643373Y-154343890D01*
X122563921Y-154462798D01*
X122462798Y-154563921D01*
X122343890Y-154643373D01*
X122343889Y-154643374D01*
X122343888Y-154643374D01*
X122211766Y-154698101D01*
X122071506Y-154726000D01*
X121928494Y-154726000D01*
X121788234Y-154698101D01*
X121656112Y-154643374D01*
X121656111Y-154643374D01*
X121656110Y-154643373D01*
X121537202Y-154563921D01*
X121436079Y-154462798D01*
X121356627Y-154343890D01*
X121355294Y-154340672D01*
X121301899Y-154211766D01*
X121274000Y-154071506D01*
X121274000Y-153928494D01*
X121301899Y-153788234D01*
X121356626Y-153656112D01*
X121407888Y-153579393D01*
X121436079Y-153537202D01*
X121537202Y-153436079D01*
X121656110Y-153356627D01*
X121656112Y-153356626D01*
X121788234Y-153301899D01*
X121928494Y-153274000D01*
X122071506Y-153274000D01*
X122211766Y-153301899D01*
G37*
G36*
X124211766Y-153301899D02*
G01*
X124343888Y-153356626D01*
X124343890Y-153356627D01*
X124462798Y-153436079D01*
X124563921Y-153537202D01*
X124592112Y-153579393D01*
X124643374Y-153656112D01*
X124698101Y-153788234D01*
X124726000Y-153928494D01*
X124726000Y-154071506D01*
X124698101Y-154211766D01*
X124644706Y-154340672D01*
X124643373Y-154343890D01*
X124563921Y-154462798D01*
X124462798Y-154563921D01*
X124343890Y-154643373D01*
X124343889Y-154643374D01*
X124343888Y-154643374D01*
X124211766Y-154698101D01*
X124071506Y-154726000D01*
X123928494Y-154726000D01*
X123788234Y-154698101D01*
X123656112Y-154643374D01*
X123656111Y-154643374D01*
X123656110Y-154643373D01*
X123537202Y-154563921D01*
X123436079Y-154462798D01*
X123356627Y-154343890D01*
X123355294Y-154340672D01*
X123301899Y-154211766D01*
X123274000Y-154071506D01*
X123274000Y-153928494D01*
X123301899Y-153788234D01*
X123356626Y-153656112D01*
X123407888Y-153579393D01*
X123436079Y-153537202D01*
X123537202Y-153436079D01*
X123656110Y-153356627D01*
X123656112Y-153356626D01*
X123788234Y-153301899D01*
X123928494Y-153274000D01*
X124071506Y-153274000D01*
X124211766Y-153301899D01*
G37*
G36*
X101634425Y-151254599D02*
G01*
X101758621Y-151279302D01*
X101895022Y-151335801D01*
X102017779Y-151417825D01*
X102122175Y-151522221D01*
X102204199Y-151644978D01*
X102260698Y-151781379D01*
X102289500Y-151926181D01*
X102289500Y-152073819D01*
X102260698Y-152218621D01*
X102204199Y-152355022D01*
X102122175Y-152477779D01*
X102017779Y-152582175D01*
X101895022Y-152664199D01*
X101758621Y-152720698D01*
X101634425Y-152745401D01*
X101613820Y-152749500D01*
X101466180Y-152749500D01*
X101445575Y-152745401D01*
X101321379Y-152720698D01*
X101184978Y-152664199D01*
X101062221Y-152582175D01*
X100957825Y-152477779D01*
X100875801Y-152355022D01*
X100819302Y-152218621D01*
X100790500Y-152073819D01*
X100790500Y-151926181D01*
X100819302Y-151781379D01*
X100875801Y-151644978D01*
X100957825Y-151522221D01*
X101062221Y-151417825D01*
X101184978Y-151335801D01*
X101321379Y-151279302D01*
X101445575Y-151254599D01*
X101466180Y-151250500D01*
X101613820Y-151250500D01*
X101634425Y-151254599D01*
G37*
G36*
X104174425Y-151254599D02*
G01*
X104298621Y-151279302D01*
X104435022Y-151335801D01*
X104557779Y-151417825D01*
X104662175Y-151522221D01*
X104744199Y-151644978D01*
X104800698Y-151781379D01*
X104829500Y-151926181D01*
X104829500Y-152073819D01*
X104800698Y-152218621D01*
X104744199Y-152355022D01*
X104662175Y-152477779D01*
X104557779Y-152582175D01*
X104435022Y-152664199D01*
X104298621Y-152720698D01*
X104174425Y-152745401D01*
X104153820Y-152749500D01*
X104006180Y-152749500D01*
X103985575Y-152745401D01*
X103861379Y-152720698D01*
X103724978Y-152664199D01*
X103602221Y-152582175D01*
X103497825Y-152477779D01*
X103415801Y-152355022D01*
X103359302Y-152218621D01*
X103330500Y-152073819D01*
X103330500Y-151926181D01*
X103359302Y-151781379D01*
X103415801Y-151644978D01*
X103497825Y-151522221D01*
X103602221Y-151417825D01*
X103724978Y-151335801D01*
X103861379Y-151279302D01*
X103985575Y-151254599D01*
X104006180Y-151250500D01*
X104153820Y-151250500D01*
X104174425Y-151254599D01*
G37*
G36*
X106714425Y-151254599D02*
G01*
X106838621Y-151279302D01*
X106975022Y-151335801D01*
X107097779Y-151417825D01*
X107202175Y-151522221D01*
X107284199Y-151644978D01*
X107340698Y-151781379D01*
X107369500Y-151926181D01*
X107369500Y-152073819D01*
X107340698Y-152218621D01*
X107284199Y-152355022D01*
X107202175Y-152477779D01*
X107097779Y-152582175D01*
X106975022Y-152664199D01*
X106838621Y-152720698D01*
X106714425Y-152745401D01*
X106693820Y-152749500D01*
X106546180Y-152749500D01*
X106525575Y-152745401D01*
X106401379Y-152720698D01*
X106264978Y-152664199D01*
X106142221Y-152582175D01*
X106037825Y-152477779D01*
X105955801Y-152355022D01*
X105899302Y-152218621D01*
X105870500Y-152073819D01*
X105870500Y-151926181D01*
X105899302Y-151781379D01*
X105955801Y-151644978D01*
X106037825Y-151522221D01*
X106142221Y-151417825D01*
X106264978Y-151335801D01*
X106401379Y-151279302D01*
X106525575Y-151254599D01*
X106546180Y-151250500D01*
X106693820Y-151250500D01*
X106714425Y-151254599D01*
G37*
G36*
X99094425Y-151254599D02*
G01*
X99218621Y-151279302D01*
X99355022Y-151335801D01*
X99477779Y-151417825D01*
X99582175Y-151522221D01*
X99664199Y-151644978D01*
X99720698Y-151781379D01*
X99749500Y-151926181D01*
X99749500Y-152073819D01*
X99720698Y-152218621D01*
X99664199Y-152355022D01*
X99582175Y-152477779D01*
X99477779Y-152582175D01*
X99355022Y-152664199D01*
X99218621Y-152720698D01*
X99094425Y-152745401D01*
X99073820Y-152749500D01*
X98926180Y-152749500D01*
X98905575Y-152745401D01*
X98781379Y-152720698D01*
X98644978Y-152664199D01*
X98522221Y-152582175D01*
X98417825Y-152477779D01*
X98335801Y-152355022D01*
X98279302Y-152218621D01*
X98250500Y-152073819D01*
X98250500Y-151926181D01*
X98279302Y-151781379D01*
X98335801Y-151644978D01*
X98417825Y-151522221D01*
X98522221Y-151417825D01*
X98644978Y-151335801D01*
X98781379Y-151279302D01*
X98905575Y-151254599D01*
X98926180Y-151250500D01*
X99073820Y-151250500D01*
X99094425Y-151254599D01*
G37*
G36*
X124211766Y-151301899D02*
G01*
X124343888Y-151356626D01*
X124343890Y-151356627D01*
X124462798Y-151436079D01*
X124563921Y-151537202D01*
X124643373Y-151656110D01*
X124643374Y-151656112D01*
X124698101Y-151788234D01*
X124726000Y-151928494D01*
X124726000Y-152071506D01*
X124698101Y-152211766D01*
X124653178Y-152320218D01*
X124643373Y-152343890D01*
X124563921Y-152462798D01*
X124462798Y-152563921D01*
X124343890Y-152643373D01*
X124343889Y-152643374D01*
X124343888Y-152643374D01*
X124211766Y-152698101D01*
X124071506Y-152726000D01*
X123928494Y-152726000D01*
X123788234Y-152698101D01*
X123656112Y-152643374D01*
X123656111Y-152643374D01*
X123656110Y-152643373D01*
X123537202Y-152563921D01*
X123436079Y-152462798D01*
X123356627Y-152343890D01*
X123346822Y-152320218D01*
X123301899Y-152211766D01*
X123274000Y-152071506D01*
X123274000Y-151928494D01*
X123301899Y-151788234D01*
X123356626Y-151656112D01*
X123356627Y-151656110D01*
X123436079Y-151537202D01*
X123537202Y-151436079D01*
X123656110Y-151356627D01*
X123656112Y-151356626D01*
X123788234Y-151301899D01*
X123928494Y-151274000D01*
X124071506Y-151274000D01*
X124211766Y-151301899D01*
G37*
G36*
X122211766Y-151301899D02*
G01*
X122343888Y-151356626D01*
X122343890Y-151356627D01*
X122462798Y-151436079D01*
X122563921Y-151537202D01*
X122643373Y-151656110D01*
X122643374Y-151656112D01*
X122698101Y-151788234D01*
X122726000Y-151928494D01*
X122726000Y-152071506D01*
X122698101Y-152211766D01*
X122653178Y-152320218D01*
X122643373Y-152343890D01*
X122563921Y-152462798D01*
X122462798Y-152563921D01*
X122343890Y-152643373D01*
X122343889Y-152643374D01*
X122343888Y-152643374D01*
X122211766Y-152698101D01*
X122071506Y-152726000D01*
X121928494Y-152726000D01*
X121788234Y-152698101D01*
X121656112Y-152643374D01*
X121656111Y-152643374D01*
X121656110Y-152643373D01*
X121537202Y-152563921D01*
X121436079Y-152462798D01*
X121356627Y-152343890D01*
X121346822Y-152320218D01*
X121301899Y-152211766D01*
X121274000Y-152071506D01*
X121274000Y-151928494D01*
X121301899Y-151788234D01*
X121356626Y-151656112D01*
X121356627Y-151656110D01*
X121436079Y-151537202D01*
X121537202Y-151436079D01*
X121656110Y-151356627D01*
X121656112Y-151356626D01*
X121788234Y-151301899D01*
X121928494Y-151274000D01*
X122071506Y-151274000D01*
X122211766Y-151301899D01*
G37*
G36*
X120211766Y-151301899D02*
G01*
X120343888Y-151356626D01*
X120343890Y-151356627D01*
X120462798Y-151436079D01*
X120563921Y-151537202D01*
X120643373Y-151656110D01*
X120643374Y-151656112D01*
X120698101Y-151788234D01*
X120726000Y-151928494D01*
X120726000Y-152071506D01*
X120698101Y-152211766D01*
X120653178Y-152320218D01*
X120643373Y-152343890D01*
X120563921Y-152462798D01*
X120462798Y-152563921D01*
X120343890Y-152643373D01*
X120343889Y-152643374D01*
X120343888Y-152643374D01*
X120211766Y-152698101D01*
X120071506Y-152726000D01*
X119928494Y-152726000D01*
X119788234Y-152698101D01*
X119656112Y-152643374D01*
X119656111Y-152643374D01*
X119656110Y-152643373D01*
X119537202Y-152563921D01*
X119436079Y-152462798D01*
X119356627Y-152343890D01*
X119346822Y-152320218D01*
X119301899Y-152211766D01*
X119274000Y-152071506D01*
X119274000Y-151928494D01*
X119301899Y-151788234D01*
X119356626Y-151656112D01*
X119356627Y-151656110D01*
X119436079Y-151537202D01*
X119537202Y-151436079D01*
X119656110Y-151356627D01*
X119656112Y-151356626D01*
X119788234Y-151301899D01*
X119928494Y-151274000D01*
X120071506Y-151274000D01*
X120211766Y-151301899D01*
G37*
G36*
X132477142Y-150848242D02*
G01*
X132625101Y-150909529D01*
X132758255Y-150998499D01*
X132871501Y-151111745D01*
X132960471Y-151244899D01*
X133021758Y-151392858D01*
X133053000Y-151549925D01*
X133053000Y-151710075D01*
X133021758Y-151867142D01*
X132960471Y-152015101D01*
X132871501Y-152148255D01*
X132758255Y-152261501D01*
X132625101Y-152350471D01*
X132477142Y-152411758D01*
X132320075Y-152443000D01*
X132159925Y-152443000D01*
X132002858Y-152411758D01*
X131854899Y-152350471D01*
X131721745Y-152261501D01*
X131608499Y-152148255D01*
X131519529Y-152015101D01*
X131458242Y-151867142D01*
X131427000Y-151710075D01*
X131427000Y-151549925D01*
X131458242Y-151392858D01*
X131519529Y-151244899D01*
X131608499Y-151111745D01*
X131721745Y-150998499D01*
X131854899Y-150909529D01*
X132002858Y-150848242D01*
X132159925Y-150817000D01*
X132320075Y-150817000D01*
X132477142Y-150848242D01*
G37*
G36*
X150983642Y-150779781D02*
G01*
X151129414Y-150840162D01*
X151129416Y-150840163D01*
X151260608Y-150927822D01*
X151372178Y-151039392D01*
X151420521Y-151111743D01*
X151459838Y-151170586D01*
X151520219Y-151316358D01*
X151551000Y-151471107D01*
X151551000Y-151628893D01*
X151520219Y-151783642D01*
X151459838Y-151929414D01*
X151459837Y-151929416D01*
X151372178Y-152060608D01*
X151260608Y-152172178D01*
X151129416Y-152259837D01*
X151129415Y-152259838D01*
X151129414Y-152259838D01*
X150983642Y-152320219D01*
X150828893Y-152351000D01*
X150671107Y-152351000D01*
X150516358Y-152320219D01*
X150370586Y-152259838D01*
X150370585Y-152259838D01*
X150370584Y-152259837D01*
X150239392Y-152172178D01*
X150127822Y-152060608D01*
X150040163Y-151929416D01*
X150040162Y-151929414D01*
X149979781Y-151783642D01*
X149949000Y-151628893D01*
X149949000Y-151471107D01*
X149979781Y-151316358D01*
X150040162Y-151170586D01*
X150079479Y-151111743D01*
X150127822Y-151039392D01*
X150239392Y-150927822D01*
X150370584Y-150840163D01*
X150370586Y-150840162D01*
X150516358Y-150779781D01*
X150671107Y-150749000D01*
X150828893Y-150749000D01*
X150983642Y-150779781D01*
G37*
G36*
X100364425Y-148714599D02*
G01*
X100488621Y-148739302D01*
X100625022Y-148795801D01*
X100747779Y-148877825D01*
X100852175Y-148982221D01*
X100934199Y-149104978D01*
X100990698Y-149241379D01*
X101019500Y-149386181D01*
X101019500Y-149533819D01*
X100990698Y-149678621D01*
X100934199Y-149815022D01*
X100852175Y-149937779D01*
X100747779Y-150042175D01*
X100625022Y-150124199D01*
X100488621Y-150180698D01*
X100364425Y-150205401D01*
X100343820Y-150209500D01*
X100196180Y-150209500D01*
X100175575Y-150205401D01*
X100051379Y-150180698D01*
X99914978Y-150124199D01*
X99792221Y-150042175D01*
X99687825Y-149937779D01*
X99605801Y-149815022D01*
X99549302Y-149678621D01*
X99520500Y-149533819D01*
X99520500Y-149386181D01*
X99549302Y-149241379D01*
X99605801Y-149104978D01*
X99687825Y-148982221D01*
X99792221Y-148877825D01*
X99914978Y-148795801D01*
X100051379Y-148739302D01*
X100175575Y-148714599D01*
X100196180Y-148710500D01*
X100343820Y-148710500D01*
X100364425Y-148714599D01*
G37*
G36*
X102904425Y-148714599D02*
G01*
X103028621Y-148739302D01*
X103165022Y-148795801D01*
X103287779Y-148877825D01*
X103392175Y-148982221D01*
X103474199Y-149104978D01*
X103530698Y-149241379D01*
X103559500Y-149386181D01*
X103559500Y-149533819D01*
X103530698Y-149678621D01*
X103474199Y-149815022D01*
X103392175Y-149937779D01*
X103287779Y-150042175D01*
X103165022Y-150124199D01*
X103028621Y-150180698D01*
X102904425Y-150205401D01*
X102883820Y-150209500D01*
X102736180Y-150209500D01*
X102715575Y-150205401D01*
X102591379Y-150180698D01*
X102454978Y-150124199D01*
X102332221Y-150042175D01*
X102227825Y-149937779D01*
X102145801Y-149815022D01*
X102089302Y-149678621D01*
X102060500Y-149533819D01*
X102060500Y-149386181D01*
X102089302Y-149241379D01*
X102145801Y-149104978D01*
X102227825Y-148982221D01*
X102332221Y-148877825D01*
X102454978Y-148795801D01*
X102591379Y-148739302D01*
X102715575Y-148714599D01*
X102736180Y-148710500D01*
X102883820Y-148710500D01*
X102904425Y-148714599D01*
G37*
G36*
X105444425Y-148714599D02*
G01*
X105568621Y-148739302D01*
X105705022Y-148795801D01*
X105827779Y-148877825D01*
X105932175Y-148982221D01*
X106014199Y-149104978D01*
X106070698Y-149241379D01*
X106099500Y-149386181D01*
X106099500Y-149533819D01*
X106070698Y-149678621D01*
X106014199Y-149815022D01*
X105932175Y-149937779D01*
X105827779Y-150042175D01*
X105705022Y-150124199D01*
X105568621Y-150180698D01*
X105444425Y-150205401D01*
X105423820Y-150209500D01*
X105276180Y-150209500D01*
X105255575Y-150205401D01*
X105131379Y-150180698D01*
X104994978Y-150124199D01*
X104872221Y-150042175D01*
X104767825Y-149937779D01*
X104685801Y-149815022D01*
X104629302Y-149678621D01*
X104600500Y-149533819D01*
X104600500Y-149386181D01*
X104629302Y-149241379D01*
X104685801Y-149104978D01*
X104767825Y-148982221D01*
X104872221Y-148877825D01*
X104994978Y-148795801D01*
X105131379Y-148739302D01*
X105255575Y-148714599D01*
X105276180Y-148710500D01*
X105423820Y-148710500D01*
X105444425Y-148714599D01*
G37*
G36*
X107984425Y-148714599D02*
G01*
X108108621Y-148739302D01*
X108245022Y-148795801D01*
X108367779Y-148877825D01*
X108472175Y-148982221D01*
X108554199Y-149104978D01*
X108610698Y-149241379D01*
X108639500Y-149386181D01*
X108639500Y-149533819D01*
X108610698Y-149678621D01*
X108554199Y-149815022D01*
X108472175Y-149937779D01*
X108367779Y-150042175D01*
X108245022Y-150124199D01*
X108108621Y-150180698D01*
X107984425Y-150205401D01*
X107963820Y-150209500D01*
X107816180Y-150209500D01*
X107795575Y-150205401D01*
X107671379Y-150180698D01*
X107534978Y-150124199D01*
X107412221Y-150042175D01*
X107307825Y-149937779D01*
X107225801Y-149815022D01*
X107169302Y-149678621D01*
X107140500Y-149533819D01*
X107140500Y-149386181D01*
X107169302Y-149241379D01*
X107225801Y-149104978D01*
X107307825Y-148982221D01*
X107412221Y-148877825D01*
X107534978Y-148795801D01*
X107671379Y-148739302D01*
X107795575Y-148714599D01*
X107816180Y-148710500D01*
X107963820Y-148710500D01*
X107984425Y-148714599D01*
G37*
G36*
X132477142Y-148308242D02*
G01*
X132625101Y-148369529D01*
X132758255Y-148458499D01*
X132871501Y-148571745D01*
X132960471Y-148704899D01*
X133021758Y-148852858D01*
X133053000Y-149009925D01*
X133053000Y-149170075D01*
X133021758Y-149327142D01*
X132960471Y-149475101D01*
X132871501Y-149608255D01*
X132758255Y-149721501D01*
X132625101Y-149810471D01*
X132477142Y-149871758D01*
X132320075Y-149903000D01*
X132159925Y-149903000D01*
X132002858Y-149871758D01*
X131854899Y-149810471D01*
X131721745Y-149721501D01*
X131608499Y-149608255D01*
X131519529Y-149475101D01*
X131458242Y-149327142D01*
X131427000Y-149170075D01*
X131427000Y-149009925D01*
X131458242Y-148852858D01*
X131519529Y-148704899D01*
X131608499Y-148571745D01*
X131721745Y-148458499D01*
X131854899Y-148369529D01*
X132002858Y-148308242D01*
X132159925Y-148277000D01*
X132320075Y-148277000D01*
X132477142Y-148308242D01*
G37*
G36*
X117237142Y-148308242D02*
G01*
X117385101Y-148369529D01*
X117518255Y-148458499D01*
X117631501Y-148571745D01*
X117720471Y-148704899D01*
X117781758Y-148852858D01*
X117813000Y-149009925D01*
X117813000Y-149170075D01*
X117781758Y-149327142D01*
X117720471Y-149475101D01*
X117631501Y-149608255D01*
X117518255Y-149721501D01*
X117385101Y-149810471D01*
X117237142Y-149871758D01*
X117080075Y-149903000D01*
X116919925Y-149903000D01*
X116762858Y-149871758D01*
X116614899Y-149810471D01*
X116481745Y-149721501D01*
X116368499Y-149608255D01*
X116279529Y-149475101D01*
X116218242Y-149327142D01*
X116187000Y-149170075D01*
X116187000Y-149009925D01*
X116218242Y-148852858D01*
X116279529Y-148704899D01*
X116368499Y-148571745D01*
X116481745Y-148458499D01*
X116614899Y-148369529D01*
X116762858Y-148308242D01*
X116919925Y-148277000D01*
X117080075Y-148277000D01*
X117237142Y-148308242D01*
G37*
G36*
X117237142Y-145768242D02*
G01*
X117385101Y-145829529D01*
X117518255Y-145918499D01*
X117631501Y-146031745D01*
X117720471Y-146164899D01*
X117781758Y-146312858D01*
X117813000Y-146469925D01*
X117813000Y-146630075D01*
X117781758Y-146787142D01*
X117720471Y-146935101D01*
X117631501Y-147068255D01*
X117518255Y-147181501D01*
X117385101Y-147270471D01*
X117237142Y-147331758D01*
X117080075Y-147363000D01*
X116919925Y-147363000D01*
X116762858Y-147331758D01*
X116614899Y-147270471D01*
X116481745Y-147181501D01*
X116368499Y-147068255D01*
X116279529Y-146935101D01*
X116218242Y-146787142D01*
X116187000Y-146630075D01*
X116187000Y-146469925D01*
X116218242Y-146312858D01*
X116279529Y-146164899D01*
X116368499Y-146031745D01*
X116481745Y-145918499D01*
X116614899Y-145829529D01*
X116762858Y-145768242D01*
X116919925Y-145737000D01*
X117080075Y-145737000D01*
X117237142Y-145768242D01*
G37*
G36*
X132477142Y-145768242D02*
G01*
X132625101Y-145829529D01*
X132758255Y-145918499D01*
X132871501Y-146031745D01*
X132960471Y-146164899D01*
X133021758Y-146312858D01*
X133053000Y-146469925D01*
X133053000Y-146630075D01*
X133021758Y-146787142D01*
X132960471Y-146935101D01*
X132871501Y-147068255D01*
X132758255Y-147181501D01*
X132625101Y-147270471D01*
X132477142Y-147331758D01*
X132320075Y-147363000D01*
X132159925Y-147363000D01*
X132002858Y-147331758D01*
X131854899Y-147270471D01*
X131721745Y-147181501D01*
X131608499Y-147068255D01*
X131519529Y-146935101D01*
X131458242Y-146787142D01*
X131427000Y-146630075D01*
X131427000Y-146469925D01*
X131458242Y-146312858D01*
X131519529Y-146164899D01*
X131608499Y-146031745D01*
X131721745Y-145918499D01*
X131854899Y-145829529D01*
X132002858Y-145768242D01*
X132159925Y-145737000D01*
X132320075Y-145737000D01*
X132477142Y-145768242D01*
G37*
G36*
X101998228Y-143931703D02*
G01*
X102153100Y-143995853D01*
X102292481Y-144088985D01*
X102411015Y-144207519D01*
X102504147Y-144346900D01*
X102568297Y-144501772D01*
X102601000Y-144666184D01*
X102601000Y-144833816D01*
X102568297Y-144998228D01*
X102504147Y-145153100D01*
X102411015Y-145292481D01*
X102292481Y-145411015D01*
X102153100Y-145504147D01*
X101998228Y-145568297D01*
X101833816Y-145601000D01*
X101666184Y-145601000D01*
X101501772Y-145568297D01*
X101346900Y-145504147D01*
X101207519Y-145411015D01*
X101088985Y-145292481D01*
X100995853Y-145153100D01*
X100931703Y-144998228D01*
X100899000Y-144833816D01*
X100899000Y-144666184D01*
X100931703Y-144501772D01*
X100995853Y-144346900D01*
X101088985Y-144207519D01*
X101207519Y-144088985D01*
X101346900Y-143995853D01*
X101501772Y-143931703D01*
X101666184Y-143899000D01*
X101833816Y-143899000D01*
X101998228Y-143931703D01*
G37*
G36*
X99498228Y-143931703D02*
G01*
X99653100Y-143995853D01*
X99792481Y-144088985D01*
X99911015Y-144207519D01*
X100004147Y-144346900D01*
X100068297Y-144501772D01*
X100101000Y-144666184D01*
X100101000Y-144833816D01*
X100068297Y-144998228D01*
X100004147Y-145153100D01*
X99911015Y-145292481D01*
X99792481Y-145411015D01*
X99653100Y-145504147D01*
X99498228Y-145568297D01*
X99333816Y-145601000D01*
X99166184Y-145601000D01*
X99001772Y-145568297D01*
X98846900Y-145504147D01*
X98707519Y-145411015D01*
X98588985Y-145292481D01*
X98495853Y-145153100D01*
X98431703Y-144998228D01*
X98399000Y-144833816D01*
X98399000Y-144666184D01*
X98431703Y-144501772D01*
X98495853Y-144346900D01*
X98588985Y-144207519D01*
X98707519Y-144088985D01*
X98846900Y-143995853D01*
X99001772Y-143931703D01*
X99166184Y-143899000D01*
X99333816Y-143899000D01*
X99498228Y-143931703D01*
G37*
G36*
X117237142Y-143228242D02*
G01*
X117385101Y-143289529D01*
X117518255Y-143378499D01*
X117631501Y-143491745D01*
X117720471Y-143624899D01*
X117781758Y-143772858D01*
X117813000Y-143929925D01*
X117813000Y-144090075D01*
X117781758Y-144247142D01*
X117720471Y-144395101D01*
X117631501Y-144528255D01*
X117518255Y-144641501D01*
X117385101Y-144730471D01*
X117237142Y-144791758D01*
X117080075Y-144823000D01*
X116919925Y-144823000D01*
X116762858Y-144791758D01*
X116614899Y-144730471D01*
X116481745Y-144641501D01*
X116368499Y-144528255D01*
X116279529Y-144395101D01*
X116218242Y-144247142D01*
X116187000Y-144090075D01*
X116187000Y-143929925D01*
X116218242Y-143772858D01*
X116279529Y-143624899D01*
X116368499Y-143491745D01*
X116481745Y-143378499D01*
X116614899Y-143289529D01*
X116762858Y-143228242D01*
X116919925Y-143197000D01*
X117080075Y-143197000D01*
X117237142Y-143228242D01*
G37*
G36*
X132477142Y-143228242D02*
G01*
X132625101Y-143289529D01*
X132758255Y-143378499D01*
X132871501Y-143491745D01*
X132960471Y-143624899D01*
X133021758Y-143772858D01*
X133053000Y-143929925D01*
X133053000Y-144090075D01*
X133021758Y-144247142D01*
X132960471Y-144395101D01*
X132871501Y-144528255D01*
X132758255Y-144641501D01*
X132625101Y-144730471D01*
X132477142Y-144791758D01*
X132320075Y-144823000D01*
X132159925Y-144823000D01*
X132002858Y-144791758D01*
X131854899Y-144730471D01*
X131721745Y-144641501D01*
X131608499Y-144528255D01*
X131519529Y-144395101D01*
X131458242Y-144247142D01*
X131427000Y-144090075D01*
X131427000Y-143929925D01*
X131458242Y-143772858D01*
X131519529Y-143624899D01*
X131608499Y-143491745D01*
X131721745Y-143378499D01*
X131854899Y-143289529D01*
X132002858Y-143228242D01*
X132159925Y-143197000D01*
X132320075Y-143197000D01*
X132477142Y-143228242D01*
G37*
G36*
X132477142Y-140688242D02*
G01*
X132625101Y-140749529D01*
X132758255Y-140838499D01*
X132871501Y-140951745D01*
X132960471Y-141084899D01*
X133021758Y-141232858D01*
X133053000Y-141389925D01*
X133053000Y-141550075D01*
X133021758Y-141707142D01*
X132960471Y-141855101D01*
X132871501Y-141988255D01*
X132758255Y-142101501D01*
X132625101Y-142190471D01*
X132477142Y-142251758D01*
X132320075Y-142283000D01*
X132159925Y-142283000D01*
X132002858Y-142251758D01*
X131854899Y-142190471D01*
X131721745Y-142101501D01*
X131608499Y-141988255D01*
X131519529Y-141855101D01*
X131458242Y-141707142D01*
X131427000Y-141550075D01*
X131427000Y-141389925D01*
X131458242Y-141232858D01*
X131519529Y-141084899D01*
X131608499Y-140951745D01*
X131721745Y-140838499D01*
X131854899Y-140749529D01*
X132002858Y-140688242D01*
X132159925Y-140657000D01*
X132320075Y-140657000D01*
X132477142Y-140688242D01*
G37*
G36*
X117237142Y-140688242D02*
G01*
X117385101Y-140749529D01*
X117518255Y-140838499D01*
X117631501Y-140951745D01*
X117720471Y-141084899D01*
X117781758Y-141232858D01*
X117813000Y-141389925D01*
X117813000Y-141550075D01*
X117781758Y-141707142D01*
X117720471Y-141855101D01*
X117631501Y-141988255D01*
X117518255Y-142101501D01*
X117385101Y-142190471D01*
X117237142Y-142251758D01*
X117080075Y-142283000D01*
X116919925Y-142283000D01*
X116762858Y-142251758D01*
X116614899Y-142190471D01*
X116481745Y-142101501D01*
X116368499Y-141988255D01*
X116279529Y-141855101D01*
X116218242Y-141707142D01*
X116187000Y-141550075D01*
X116187000Y-141389925D01*
X116218242Y-141232858D01*
X116279529Y-141084899D01*
X116368499Y-140951745D01*
X116481745Y-140838499D01*
X116614899Y-140749529D01*
X116762858Y-140688242D01*
X116919925Y-140657000D01*
X117080075Y-140657000D01*
X117237142Y-140688242D01*
G37*
G36*
X132477142Y-138148242D02*
G01*
X132625101Y-138209529D01*
X132758255Y-138298499D01*
X132871501Y-138411745D01*
X132960471Y-138544899D01*
X133021758Y-138692858D01*
X133053000Y-138849925D01*
X133053000Y-139010075D01*
X133021758Y-139167142D01*
X132960471Y-139315101D01*
X132871501Y-139448255D01*
X132758255Y-139561501D01*
X132625101Y-139650471D01*
X132477142Y-139711758D01*
X132320075Y-139743000D01*
X132159925Y-139743000D01*
X132002858Y-139711758D01*
X131854899Y-139650471D01*
X131721745Y-139561501D01*
X131608499Y-139448255D01*
X131519529Y-139315101D01*
X131458242Y-139167142D01*
X131427000Y-139010075D01*
X131427000Y-138849925D01*
X131458242Y-138692858D01*
X131519529Y-138544899D01*
X131608499Y-138411745D01*
X131721745Y-138298499D01*
X131854899Y-138209529D01*
X132002858Y-138148242D01*
X132159925Y-138117000D01*
X132320075Y-138117000D01*
X132477142Y-138148242D01*
G37*
G36*
X117237142Y-138148242D02*
G01*
X117385101Y-138209529D01*
X117518255Y-138298499D01*
X117631501Y-138411745D01*
X117720471Y-138544899D01*
X117781758Y-138692858D01*
X117813000Y-138849925D01*
X117813000Y-139010075D01*
X117781758Y-139167142D01*
X117720471Y-139315101D01*
X117631501Y-139448255D01*
X117518255Y-139561501D01*
X117385101Y-139650471D01*
X117237142Y-139711758D01*
X117080075Y-139743000D01*
X116919925Y-139743000D01*
X116762858Y-139711758D01*
X116614899Y-139650471D01*
X116481745Y-139561501D01*
X116368499Y-139448255D01*
X116279529Y-139315101D01*
X116218242Y-139167142D01*
X116187000Y-139010075D01*
X116187000Y-138849925D01*
X116218242Y-138692858D01*
X116279529Y-138544899D01*
X116368499Y-138411745D01*
X116481745Y-138298499D01*
X116614899Y-138209529D01*
X116762858Y-138148242D01*
X116919925Y-138117000D01*
X117080075Y-138117000D01*
X117237142Y-138148242D01*
G37*
G36*
X117237142Y-135608242D02*
G01*
X117385101Y-135669529D01*
X117518255Y-135758499D01*
X117631501Y-135871745D01*
X117720471Y-136004899D01*
X117781758Y-136152858D01*
X117813000Y-136309925D01*
X117813000Y-136470075D01*
X117781758Y-136627142D01*
X117720471Y-136775101D01*
X117631501Y-136908255D01*
X117518255Y-137021501D01*
X117385101Y-137110471D01*
X117237142Y-137171758D01*
X117080075Y-137203000D01*
X116919925Y-137203000D01*
X116762858Y-137171758D01*
X116614899Y-137110471D01*
X116481745Y-137021501D01*
X116368499Y-136908255D01*
X116279529Y-136775101D01*
X116218242Y-136627142D01*
X116187000Y-136470075D01*
X116187000Y-136309925D01*
X116218242Y-136152858D01*
X116279529Y-136004899D01*
X116368499Y-135871745D01*
X116481745Y-135758499D01*
X116614899Y-135669529D01*
X116762858Y-135608242D01*
X116919925Y-135577000D01*
X117080075Y-135577000D01*
X117237142Y-135608242D01*
G37*
G36*
X132477142Y-135608242D02*
G01*
X132625101Y-135669529D01*
X132758255Y-135758499D01*
X132871501Y-135871745D01*
X132960471Y-136004899D01*
X133021758Y-136152858D01*
X133053000Y-136309925D01*
X133053000Y-136470075D01*
X133021758Y-136627142D01*
X132960471Y-136775101D01*
X132871501Y-136908255D01*
X132758255Y-137021501D01*
X132625101Y-137110471D01*
X132477142Y-137171758D01*
X132320075Y-137203000D01*
X132159925Y-137203000D01*
X132002858Y-137171758D01*
X131854899Y-137110471D01*
X131721745Y-137021501D01*
X131608499Y-136908255D01*
X131519529Y-136775101D01*
X131458242Y-136627142D01*
X131427000Y-136470075D01*
X131427000Y-136309925D01*
X131458242Y-136152858D01*
X131519529Y-136004899D01*
X131608499Y-135871745D01*
X131721745Y-135758499D01*
X131854899Y-135669529D01*
X132002858Y-135608242D01*
X132159925Y-135577000D01*
X132320075Y-135577000D01*
X132477142Y-135608242D01*
G37*
G36*
X117237142Y-133068242D02*
G01*
X117385101Y-133129529D01*
X117518255Y-133218499D01*
X117631501Y-133331745D01*
X117720471Y-133464899D01*
X117781758Y-133612858D01*
X117813000Y-133769925D01*
X117813000Y-133930075D01*
X117781758Y-134087142D01*
X117720471Y-134235101D01*
X117631501Y-134368255D01*
X117518255Y-134481501D01*
X117385101Y-134570471D01*
X117237142Y-134631758D01*
X117080075Y-134663000D01*
X116919925Y-134663000D01*
X116762858Y-134631758D01*
X116614899Y-134570471D01*
X116481745Y-134481501D01*
X116368499Y-134368255D01*
X116279529Y-134235101D01*
X116218242Y-134087142D01*
X116187000Y-133930075D01*
X116187000Y-133769925D01*
X116218242Y-133612858D01*
X116279529Y-133464899D01*
X116368499Y-133331745D01*
X116481745Y-133218499D01*
X116614899Y-133129529D01*
X116762858Y-133068242D01*
X116919925Y-133037000D01*
X117080075Y-133037000D01*
X117237142Y-133068242D01*
G37*
G36*
X132477142Y-133068242D02*
G01*
X132625101Y-133129529D01*
X132758255Y-133218499D01*
X132871501Y-133331745D01*
X132960471Y-133464899D01*
X133021758Y-133612858D01*
X133053000Y-133769925D01*
X133053000Y-133930075D01*
X133021758Y-134087142D01*
X132960471Y-134235101D01*
X132871501Y-134368255D01*
X132758255Y-134481501D01*
X132625101Y-134570471D01*
X132477142Y-134631758D01*
X132320075Y-134663000D01*
X132159925Y-134663000D01*
X132002858Y-134631758D01*
X131854899Y-134570471D01*
X131721745Y-134481501D01*
X131608499Y-134368255D01*
X131519529Y-134235101D01*
X131458242Y-134087142D01*
X131427000Y-133930075D01*
X131427000Y-133769925D01*
X131458242Y-133612858D01*
X131519529Y-133464899D01*
X131608499Y-133331745D01*
X131721745Y-133218499D01*
X131854899Y-133129529D01*
X132002858Y-133068242D01*
X132159925Y-133037000D01*
X132320075Y-133037000D01*
X132477142Y-133068242D01*
G37*
G36*
X117237142Y-130528242D02*
G01*
X117385101Y-130589529D01*
X117518255Y-130678499D01*
X117631501Y-130791745D01*
X117720471Y-130924899D01*
X117781758Y-131072858D01*
X117813000Y-131229925D01*
X117813000Y-131390075D01*
X117781758Y-131547142D01*
X117720471Y-131695101D01*
X117631501Y-131828255D01*
X117518255Y-131941501D01*
X117385101Y-132030471D01*
X117237142Y-132091758D01*
X117080075Y-132123000D01*
X116919925Y-132123000D01*
X116762858Y-132091758D01*
X116614899Y-132030471D01*
X116481745Y-131941501D01*
X116368499Y-131828255D01*
X116279529Y-131695101D01*
X116218242Y-131547142D01*
X116187000Y-131390075D01*
X116187000Y-131229925D01*
X116218242Y-131072858D01*
X116279529Y-130924899D01*
X116368499Y-130791745D01*
X116481745Y-130678499D01*
X116614899Y-130589529D01*
X116762858Y-130528242D01*
X116919925Y-130497000D01*
X117080075Y-130497000D01*
X117237142Y-130528242D01*
G37*
G36*
X132477142Y-130528242D02*
G01*
X132625101Y-130589529D01*
X132758255Y-130678499D01*
X132871501Y-130791745D01*
X132960471Y-130924899D01*
X133021758Y-131072858D01*
X133053000Y-131229925D01*
X133053000Y-131390075D01*
X133021758Y-131547142D01*
X132960471Y-131695101D01*
X132871501Y-131828255D01*
X132758255Y-131941501D01*
X132625101Y-132030471D01*
X132477142Y-132091758D01*
X132320075Y-132123000D01*
X132159925Y-132123000D01*
X132002858Y-132091758D01*
X131854899Y-132030471D01*
X131721745Y-131941501D01*
X131608499Y-131828255D01*
X131519529Y-131695101D01*
X131458242Y-131547142D01*
X131427000Y-131390075D01*
X131427000Y-131229925D01*
X131458242Y-131072858D01*
X131519529Y-130924899D01*
X131608499Y-130791745D01*
X131721745Y-130678499D01*
X131854899Y-130589529D01*
X132002858Y-130528242D01*
X132159925Y-130497000D01*
X132320075Y-130497000D01*
X132477142Y-130528242D01*
G37*
G36*
X117237142Y-127988242D02*
G01*
X117385101Y-128049529D01*
X117518255Y-128138499D01*
X117631501Y-128251745D01*
X117720471Y-128384899D01*
X117781758Y-128532858D01*
X117813000Y-128689925D01*
X117813000Y-128850075D01*
X117781758Y-129007142D01*
X117720471Y-129155101D01*
X117631501Y-129288255D01*
X117518255Y-129401501D01*
X117385101Y-129490471D01*
X117237142Y-129551758D01*
X117080075Y-129583000D01*
X116919925Y-129583000D01*
X116762858Y-129551758D01*
X116614899Y-129490471D01*
X116481745Y-129401501D01*
X116368499Y-129288255D01*
X116279529Y-129155101D01*
X116218242Y-129007142D01*
X116187000Y-128850075D01*
X116187000Y-128689925D01*
X116218242Y-128532858D01*
X116279529Y-128384899D01*
X116368499Y-128251745D01*
X116481745Y-128138499D01*
X116614899Y-128049529D01*
X116762858Y-127988242D01*
X116919925Y-127957000D01*
X117080075Y-127957000D01*
X117237142Y-127988242D01*
G37*
G36*
X132477142Y-127988242D02*
G01*
X132625101Y-128049529D01*
X132758255Y-128138499D01*
X132871501Y-128251745D01*
X132960471Y-128384899D01*
X133021758Y-128532858D01*
X133053000Y-128689925D01*
X133053000Y-128850075D01*
X133021758Y-129007142D01*
X132960471Y-129155101D01*
X132871501Y-129288255D01*
X132758255Y-129401501D01*
X132625101Y-129490471D01*
X132477142Y-129551758D01*
X132320075Y-129583000D01*
X132159925Y-129583000D01*
X132002858Y-129551758D01*
X131854899Y-129490471D01*
X131721745Y-129401501D01*
X131608499Y-129288255D01*
X131519529Y-129155101D01*
X131458242Y-129007142D01*
X131427000Y-128850075D01*
X131427000Y-128689925D01*
X131458242Y-128532858D01*
X131519529Y-128384899D01*
X131608499Y-128251745D01*
X131721745Y-128138499D01*
X131854899Y-128049529D01*
X132002858Y-127988242D01*
X132159925Y-127957000D01*
X132320075Y-127957000D01*
X132477142Y-127988242D01*
G37*
G36*
X132477142Y-125448242D02*
G01*
X132625101Y-125509529D01*
X132758255Y-125598499D01*
X132871501Y-125711745D01*
X132960471Y-125844899D01*
X133021758Y-125992858D01*
X133053000Y-126149925D01*
X133053000Y-126310075D01*
X133021758Y-126467142D01*
X132960471Y-126615101D01*
X132871501Y-126748255D01*
X132758255Y-126861501D01*
X132625101Y-126950471D01*
X132477142Y-127011758D01*
X132320075Y-127043000D01*
X132159925Y-127043000D01*
X132002858Y-127011758D01*
X131854899Y-126950471D01*
X131721745Y-126861501D01*
X131608499Y-126748255D01*
X131519529Y-126615101D01*
X131458242Y-126467142D01*
X131427000Y-126310075D01*
X131427000Y-126149925D01*
X131458242Y-125992858D01*
X131519529Y-125844899D01*
X131608499Y-125711745D01*
X131721745Y-125598499D01*
X131854899Y-125509529D01*
X132002858Y-125448242D01*
X132159925Y-125417000D01*
X132320075Y-125417000D01*
X132477142Y-125448242D01*
G37*
G36*
X117237142Y-125448242D02*
G01*
X117385101Y-125509529D01*
X117518255Y-125598499D01*
X117631501Y-125711745D01*
X117720471Y-125844899D01*
X117781758Y-125992858D01*
X117813000Y-126149925D01*
X117813000Y-126310075D01*
X117781758Y-126467142D01*
X117720471Y-126615101D01*
X117631501Y-126748255D01*
X117518255Y-126861501D01*
X117385101Y-126950471D01*
X117237142Y-127011758D01*
X117080075Y-127043000D01*
X116919925Y-127043000D01*
X116762858Y-127011758D01*
X116614899Y-126950471D01*
X116481745Y-126861501D01*
X116368499Y-126748255D01*
X116279529Y-126615101D01*
X116218242Y-126467142D01*
X116187000Y-126310075D01*
X116187000Y-126149925D01*
X116218242Y-125992858D01*
X116279529Y-125844899D01*
X116368499Y-125711745D01*
X116481745Y-125598499D01*
X116614899Y-125509529D01*
X116762858Y-125448242D01*
X116919925Y-125417000D01*
X117080075Y-125417000D01*
X117237142Y-125448242D01*
G37*
G36*
X132477142Y-122908242D02*
G01*
X132625101Y-122969529D01*
X132758255Y-123058499D01*
X132871501Y-123171745D01*
X132960471Y-123304899D01*
X133021758Y-123452858D01*
X133053000Y-123609925D01*
X133053000Y-123770075D01*
X133021758Y-123927142D01*
X132960471Y-124075101D01*
X132871501Y-124208255D01*
X132758255Y-124321501D01*
X132625101Y-124410471D01*
X132477142Y-124471758D01*
X132320075Y-124503000D01*
X132159925Y-124503000D01*
X132002858Y-124471758D01*
X131854899Y-124410471D01*
X131721745Y-124321501D01*
X131608499Y-124208255D01*
X131519529Y-124075101D01*
X131458242Y-123927142D01*
X131427000Y-123770075D01*
X131427000Y-123609925D01*
X131458242Y-123452858D01*
X131519529Y-123304899D01*
X131608499Y-123171745D01*
X131721745Y-123058499D01*
X131854899Y-122969529D01*
X132002858Y-122908242D01*
X132159925Y-122877000D01*
X132320075Y-122877000D01*
X132477142Y-122908242D01*
G37*
G36*
X117237142Y-122908242D02*
G01*
X117385101Y-122969529D01*
X117518255Y-123058499D01*
X117631501Y-123171745D01*
X117720471Y-123304899D01*
X117781758Y-123452858D01*
X117813000Y-123609925D01*
X117813000Y-123770075D01*
X117781758Y-123927142D01*
X117720471Y-124075101D01*
X117631501Y-124208255D01*
X117518255Y-124321501D01*
X117385101Y-124410471D01*
X117237142Y-124471758D01*
X117080075Y-124503000D01*
X116919925Y-124503000D01*
X116762858Y-124471758D01*
X116614899Y-124410471D01*
X116481745Y-124321501D01*
X116368499Y-124208255D01*
X116279529Y-124075101D01*
X116218242Y-123927142D01*
X116187000Y-123770075D01*
X116187000Y-123609925D01*
X116218242Y-123452858D01*
X116279529Y-123304899D01*
X116368499Y-123171745D01*
X116481745Y-123058499D01*
X116614899Y-122969529D01*
X116762858Y-122908242D01*
X116919925Y-122877000D01*
X117080075Y-122877000D01*
X117237142Y-122908242D01*
G37*
G36*
X154067862Y-120851575D02*
G01*
X154087097Y-120857410D01*
X154104822Y-120866884D01*
X154120362Y-120879638D01*
X154133116Y-120895178D01*
X154142590Y-120912903D01*
X154148425Y-120932138D01*
X154151000Y-120958285D01*
X154151000Y-121220109D01*
X154153402Y-121244495D01*
X154160515Y-121267944D01*
X154172066Y-121289555D01*
X154187611Y-121308497D01*
X154206553Y-121324042D01*
X154228164Y-121335593D01*
X154251613Y-121342706D01*
X154275999Y-121345108D01*
X154300385Y-121342706D01*
X154323834Y-121335593D01*
X154345445Y-121324042D01*
X154364387Y-121308497D01*
X154379932Y-121289555D01*
X154391483Y-121267944D01*
X154423090Y-121191638D01*
X154494335Y-121085012D01*
X154585012Y-120994335D01*
X154638965Y-120958285D01*
X154691636Y-120923091D01*
X154716232Y-120912903D01*
X154810110Y-120874017D01*
X154935881Y-120849000D01*
X155064119Y-120849000D01*
X155189890Y-120874017D01*
X155283769Y-120912903D01*
X155308364Y-120923091D01*
X155414988Y-120994335D01*
X155505665Y-121085012D01*
X155576909Y-121191636D01*
X155625315Y-121308497D01*
X155625983Y-121310111D01*
X155627403Y-121317249D01*
X155634516Y-121340698D01*
X155646067Y-121362309D01*
X155661612Y-121381251D01*
X155680554Y-121396797D01*
X155702164Y-121408348D01*
X155725613Y-121415461D01*
X155749999Y-121417863D01*
X155774385Y-121415461D01*
X155797834Y-121408348D01*
X155819445Y-121396797D01*
X155838387Y-121381252D01*
X155853933Y-121362310D01*
X155865484Y-121340700D01*
X155872597Y-121317249D01*
X155874017Y-121310111D01*
X155874686Y-121308497D01*
X155923091Y-121191636D01*
X155994335Y-121085012D01*
X156085012Y-120994335D01*
X156191636Y-120923091D01*
X156216232Y-120912903D01*
X156310110Y-120874017D01*
X156435881Y-120849000D01*
X156564119Y-120849000D01*
X156689890Y-120874017D01*
X156783769Y-120912903D01*
X156808364Y-120923091D01*
X156861035Y-120958285D01*
X156914988Y-120994335D01*
X157005665Y-121085012D01*
X157076910Y-121191638D01*
X157125983Y-121310110D01*
X157151000Y-121435881D01*
X157151000Y-121564119D01*
X157136366Y-121637690D01*
X157125983Y-121689890D01*
X157076909Y-121808364D01*
X157005665Y-121914988D01*
X156914988Y-122005665D01*
X156808364Y-122076909D01*
X156808363Y-122076910D01*
X156808362Y-122076910D01*
X156689890Y-122125983D01*
X156564119Y-122151000D01*
X156435881Y-122151000D01*
X156310110Y-122125983D01*
X156191638Y-122076910D01*
X156191637Y-122076910D01*
X156191636Y-122076909D01*
X156085012Y-122005665D01*
X155994335Y-121914988D01*
X155923091Y-121808364D01*
X155874017Y-121689890D01*
X155872597Y-121682751D01*
X155865484Y-121659302D01*
X155853933Y-121637691D01*
X155838388Y-121618749D01*
X155819446Y-121603203D01*
X155797836Y-121591652D01*
X155774387Y-121584539D01*
X155750001Y-121582137D01*
X155725615Y-121584539D01*
X155702166Y-121591652D01*
X155680555Y-121603203D01*
X155661613Y-121618748D01*
X155646067Y-121637690D01*
X155634516Y-121659300D01*
X155627403Y-121682751D01*
X155625983Y-121689890D01*
X155576909Y-121808364D01*
X155505665Y-121914988D01*
X155414988Y-122005665D01*
X155308364Y-122076909D01*
X155308363Y-122076910D01*
X155308362Y-122076910D01*
X155189890Y-122125983D01*
X155064119Y-122151000D01*
X154935881Y-122151000D01*
X154810110Y-122125983D01*
X154691638Y-122076910D01*
X154691637Y-122076910D01*
X154691636Y-122076909D01*
X154585012Y-122005665D01*
X154494335Y-121914988D01*
X154423091Y-121808364D01*
X154391483Y-121732055D01*
X154379932Y-121710445D01*
X154364387Y-121691503D01*
X154345445Y-121675958D01*
X154323834Y-121664407D01*
X154300385Y-121657294D01*
X154275999Y-121654892D01*
X154251613Y-121657294D01*
X154228164Y-121664407D01*
X154206553Y-121675958D01*
X154187611Y-121691503D01*
X154172066Y-121710445D01*
X154160515Y-121732056D01*
X154153402Y-121755505D01*
X154151000Y-121779891D01*
X154151000Y-122041715D01*
X154148425Y-122067862D01*
X154142590Y-122087097D01*
X154133116Y-122104822D01*
X154120362Y-122120362D01*
X154104822Y-122133116D01*
X154087097Y-122142590D01*
X154067862Y-122148425D01*
X154041715Y-122151000D01*
X152958285Y-122151000D01*
X152932138Y-122148425D01*
X152912903Y-122142590D01*
X152895178Y-122133116D01*
X152879638Y-122120362D01*
X152866884Y-122104822D01*
X152857410Y-122087097D01*
X152851575Y-122067862D01*
X152849000Y-122041715D01*
X152849000Y-120958285D01*
X152851575Y-120932138D01*
X152857410Y-120912903D01*
X152866884Y-120895178D01*
X152879638Y-120879638D01*
X152895178Y-120866884D01*
X152912903Y-120857410D01*
X152932138Y-120851575D01*
X152958285Y-120849000D01*
X154041715Y-120849000D01*
X154067862Y-120851575D01*
G37*
G36*
X132477142Y-120368242D02*
G01*
X132625101Y-120429529D01*
X132758255Y-120518499D01*
X132871501Y-120631745D01*
X132960471Y-120764899D01*
X133021758Y-120912858D01*
X133053000Y-121069925D01*
X133053000Y-121230075D01*
X133021758Y-121387142D01*
X132960471Y-121535101D01*
X132871501Y-121668255D01*
X132758255Y-121781501D01*
X132625101Y-121870471D01*
X132477142Y-121931758D01*
X132320075Y-121963000D01*
X132159925Y-121963000D01*
X132002858Y-121931758D01*
X131854899Y-121870471D01*
X131721745Y-121781501D01*
X131608499Y-121668255D01*
X131519529Y-121535101D01*
X131458242Y-121387142D01*
X131427000Y-121230075D01*
X131427000Y-121069925D01*
X131458242Y-120912858D01*
X131519529Y-120764899D01*
X131608499Y-120631745D01*
X131721745Y-120518499D01*
X131854899Y-120429529D01*
X132002858Y-120368242D01*
X132159925Y-120337000D01*
X132320075Y-120337000D01*
X132477142Y-120368242D01*
G37*
G36*
X117237142Y-120368242D02*
G01*
X117385101Y-120429529D01*
X117518255Y-120518499D01*
X117631501Y-120631745D01*
X117720471Y-120764899D01*
X117781758Y-120912858D01*
X117813000Y-121069925D01*
X117813000Y-121230075D01*
X117781758Y-121387142D01*
X117720471Y-121535101D01*
X117631501Y-121668255D01*
X117518255Y-121781501D01*
X117385101Y-121870471D01*
X117237142Y-121931758D01*
X117080075Y-121963000D01*
X116919925Y-121963000D01*
X116762858Y-121931758D01*
X116614899Y-121870471D01*
X116481745Y-121781501D01*
X116368499Y-121668255D01*
X116279529Y-121535101D01*
X116218242Y-121387142D01*
X116187000Y-121230075D01*
X116187000Y-121069925D01*
X116218242Y-120912858D01*
X116279529Y-120764899D01*
X116368499Y-120631745D01*
X116481745Y-120518499D01*
X116614899Y-120429529D01*
X116762858Y-120368242D01*
X116919925Y-120337000D01*
X117080075Y-120337000D01*
X117237142Y-120368242D01*
G37*
G36*
X132477142Y-117828242D02*
G01*
X132625101Y-117889529D01*
X132758255Y-117978499D01*
X132871501Y-118091745D01*
X132960471Y-118224899D01*
X133021758Y-118372858D01*
X133053000Y-118529925D01*
X133053000Y-118690075D01*
X133021758Y-118847142D01*
X132960471Y-118995101D01*
X132871501Y-119128255D01*
X132758255Y-119241501D01*
X132625101Y-119330471D01*
X132477142Y-119391758D01*
X132320075Y-119423000D01*
X132159925Y-119423000D01*
X132002858Y-119391758D01*
X131854899Y-119330471D01*
X131721745Y-119241501D01*
X131608499Y-119128255D01*
X131519529Y-118995101D01*
X131458242Y-118847142D01*
X131427000Y-118690075D01*
X131427000Y-118529925D01*
X131458242Y-118372858D01*
X131519529Y-118224899D01*
X131608499Y-118091745D01*
X131721745Y-117978499D01*
X131854899Y-117889529D01*
X132002858Y-117828242D01*
X132159925Y-117797000D01*
X132320075Y-117797000D01*
X132477142Y-117828242D01*
G37*
G36*
X117237142Y-117828242D02*
G01*
X117385101Y-117889529D01*
X117518255Y-117978499D01*
X117631501Y-118091745D01*
X117720471Y-118224899D01*
X117781758Y-118372858D01*
X117813000Y-118529925D01*
X117813000Y-118690075D01*
X117781758Y-118847142D01*
X117720471Y-118995101D01*
X117631501Y-119128255D01*
X117518255Y-119241501D01*
X117385101Y-119330471D01*
X117237142Y-119391758D01*
X117080075Y-119423000D01*
X116919925Y-119423000D01*
X116762858Y-119391758D01*
X116614899Y-119330471D01*
X116481745Y-119241501D01*
X116368499Y-119128255D01*
X116279529Y-118995101D01*
X116218242Y-118847142D01*
X116187000Y-118690075D01*
X116187000Y-118529925D01*
X116218242Y-118372858D01*
X116279529Y-118224899D01*
X116368499Y-118091745D01*
X116481745Y-117978499D01*
X116614899Y-117889529D01*
X116762858Y-117828242D01*
X116919925Y-117797000D01*
X117080075Y-117797000D01*
X117237142Y-117828242D01*
G37*
G36*
X132477142Y-115288242D02*
G01*
X132625101Y-115349529D01*
X132758255Y-115438499D01*
X132871501Y-115551745D01*
X132960471Y-115684899D01*
X133021758Y-115832858D01*
X133053000Y-115989925D01*
X133053000Y-116150075D01*
X133021758Y-116307142D01*
X132960471Y-116455101D01*
X132871501Y-116588255D01*
X132758255Y-116701501D01*
X132625101Y-116790471D01*
X132477142Y-116851758D01*
X132320075Y-116883000D01*
X132159925Y-116883000D01*
X132002858Y-116851758D01*
X131854899Y-116790471D01*
X131721745Y-116701501D01*
X131608499Y-116588255D01*
X131519529Y-116455101D01*
X131458242Y-116307142D01*
X131427000Y-116150075D01*
X131427000Y-115989925D01*
X131458242Y-115832858D01*
X131519529Y-115684899D01*
X131608499Y-115551745D01*
X131721745Y-115438499D01*
X131854899Y-115349529D01*
X132002858Y-115288242D01*
X132159925Y-115257000D01*
X132320075Y-115257000D01*
X132477142Y-115288242D01*
G37*
G36*
X117237142Y-115288242D02*
G01*
X117385101Y-115349529D01*
X117518255Y-115438499D01*
X117631501Y-115551745D01*
X117720471Y-115684899D01*
X117781758Y-115832858D01*
X117813000Y-115989925D01*
X117813000Y-116150075D01*
X117781758Y-116307142D01*
X117720471Y-116455101D01*
X117631501Y-116588255D01*
X117518255Y-116701501D01*
X117385101Y-116790471D01*
X117237142Y-116851758D01*
X117080075Y-116883000D01*
X116919925Y-116883000D01*
X116762858Y-116851758D01*
X116614899Y-116790471D01*
X116481745Y-116701501D01*
X116368499Y-116588255D01*
X116279529Y-116455101D01*
X116218242Y-116307142D01*
X116187000Y-116150075D01*
X116187000Y-115989925D01*
X116218242Y-115832858D01*
X116279529Y-115684899D01*
X116368499Y-115551745D01*
X116481745Y-115438499D01*
X116614899Y-115349529D01*
X116762858Y-115288242D01*
X116919925Y-115257000D01*
X117080075Y-115257000D01*
X117237142Y-115288242D01*
G37*
G36*
X132477142Y-112748242D02*
G01*
X132625101Y-112809529D01*
X132758255Y-112898499D01*
X132871501Y-113011745D01*
X132960471Y-113144899D01*
X133021758Y-113292858D01*
X133053000Y-113449925D01*
X133053000Y-113610075D01*
X133021758Y-113767142D01*
X132960471Y-113915101D01*
X132871501Y-114048255D01*
X132758255Y-114161501D01*
X132625101Y-114250471D01*
X132477142Y-114311758D01*
X132320075Y-114343000D01*
X132159925Y-114343000D01*
X132002858Y-114311758D01*
X131854899Y-114250471D01*
X131721745Y-114161501D01*
X131608499Y-114048255D01*
X131519529Y-113915101D01*
X131458242Y-113767142D01*
X131427000Y-113610075D01*
X131427000Y-113449925D01*
X131458242Y-113292858D01*
X131519529Y-113144899D01*
X131608499Y-113011745D01*
X131721745Y-112898499D01*
X131854899Y-112809529D01*
X132002858Y-112748242D01*
X132159925Y-112717000D01*
X132320075Y-112717000D01*
X132477142Y-112748242D01*
G37*
G36*
X117237142Y-112748242D02*
G01*
X117385101Y-112809529D01*
X117518255Y-112898499D01*
X117631501Y-113011745D01*
X117720471Y-113144899D01*
X117781758Y-113292858D01*
X117813000Y-113449925D01*
X117813000Y-113610075D01*
X117781758Y-113767142D01*
X117720471Y-113915101D01*
X117631501Y-114048255D01*
X117518255Y-114161501D01*
X117385101Y-114250471D01*
X117237142Y-114311758D01*
X117080075Y-114343000D01*
X116919925Y-114343000D01*
X116762858Y-114311758D01*
X116614899Y-114250471D01*
X116481745Y-114161501D01*
X116368499Y-114048255D01*
X116279529Y-113915101D01*
X116218242Y-113767142D01*
X116187000Y-113610075D01*
X116187000Y-113449925D01*
X116218242Y-113292858D01*
X116279529Y-113144899D01*
X116368499Y-113011745D01*
X116481745Y-112898499D01*
X116614899Y-112809529D01*
X116762858Y-112748242D01*
X116919925Y-112717000D01*
X117080075Y-112717000D01*
X117237142Y-112748242D01*
G37*
G36*
X117237142Y-110208242D02*
G01*
X117385101Y-110269529D01*
X117518255Y-110358499D01*
X117631501Y-110471745D01*
X117720471Y-110604899D01*
X117781758Y-110752858D01*
X117813000Y-110909925D01*
X117813000Y-111070075D01*
X117781758Y-111227142D01*
X117720471Y-111375101D01*
X117631501Y-111508255D01*
X117518255Y-111621501D01*
X117385101Y-111710471D01*
X117237142Y-111771758D01*
X117080075Y-111803000D01*
X116919925Y-111803000D01*
X116762858Y-111771758D01*
X116614899Y-111710471D01*
X116481745Y-111621501D01*
X116368499Y-111508255D01*
X116279529Y-111375101D01*
X116218242Y-111227142D01*
X116187000Y-111070075D01*
X116187000Y-110909925D01*
X116218242Y-110752858D01*
X116279529Y-110604899D01*
X116368499Y-110471745D01*
X116481745Y-110358499D01*
X116614899Y-110269529D01*
X116762858Y-110208242D01*
X116919925Y-110177000D01*
X117080075Y-110177000D01*
X117237142Y-110208242D01*
G37*
G36*
X132477142Y-110208242D02*
G01*
X132625101Y-110269529D01*
X132758255Y-110358499D01*
X132871501Y-110471745D01*
X132960471Y-110604899D01*
X133021758Y-110752858D01*
X133053000Y-110909925D01*
X133053000Y-111070075D01*
X133021758Y-111227142D01*
X132960471Y-111375101D01*
X132871501Y-111508255D01*
X132758255Y-111621501D01*
X132625101Y-111710471D01*
X132477142Y-111771758D01*
X132320075Y-111803000D01*
X132159925Y-111803000D01*
X132002858Y-111771758D01*
X131854899Y-111710471D01*
X131721745Y-111621501D01*
X131608499Y-111508255D01*
X131519529Y-111375101D01*
X131458242Y-111227142D01*
X131427000Y-111070075D01*
X131427000Y-110909925D01*
X131458242Y-110752858D01*
X131519529Y-110604899D01*
X131608499Y-110471745D01*
X131721745Y-110358499D01*
X131854899Y-110269529D01*
X132002858Y-110208242D01*
X132159925Y-110177000D01*
X132320075Y-110177000D01*
X132477142Y-110208242D01*
G37*
G36*
X144903512Y-109393927D02*
G01*
X145052812Y-109423624D01*
X145216784Y-109491544D01*
X145364354Y-109590147D01*
X145489853Y-109715646D01*
X145588456Y-109863216D01*
X145656376Y-110027188D01*
X145691000Y-110201259D01*
X145691000Y-110378741D01*
X145656376Y-110552812D01*
X145588456Y-110716784D01*
X145489853Y-110864354D01*
X145364354Y-110989853D01*
X145216784Y-111088456D01*
X145052812Y-111156376D01*
X144903512Y-111186073D01*
X144878742Y-111191000D01*
X144701258Y-111191000D01*
X144676488Y-111186073D01*
X144527188Y-111156376D01*
X144363216Y-111088456D01*
X144215646Y-110989853D01*
X144090147Y-110864354D01*
X143991544Y-110716784D01*
X143923624Y-110552812D01*
X143889000Y-110378741D01*
X143889000Y-110201259D01*
X143923624Y-110027188D01*
X143991544Y-109863216D01*
X144090147Y-109715646D01*
X144215646Y-109590147D01*
X144363216Y-109491544D01*
X144527188Y-109423624D01*
X144676488Y-109393927D01*
X144701258Y-109389000D01*
X144878742Y-109389000D01*
X144903512Y-109393927D01*
G37*
G36*
X147443512Y-109393927D02*
G01*
X147592812Y-109423624D01*
X147756784Y-109491544D01*
X147904354Y-109590147D01*
X148029853Y-109715646D01*
X148128456Y-109863216D01*
X148196376Y-110027188D01*
X148231000Y-110201259D01*
X148231000Y-110378741D01*
X148196376Y-110552812D01*
X148128456Y-110716784D01*
X148029853Y-110864354D01*
X147904354Y-110989853D01*
X147756784Y-111088456D01*
X147592812Y-111156376D01*
X147443512Y-111186073D01*
X147418742Y-111191000D01*
X147241258Y-111191000D01*
X147216488Y-111186073D01*
X147067188Y-111156376D01*
X146903216Y-111088456D01*
X146755646Y-110989853D01*
X146630147Y-110864354D01*
X146531544Y-110716784D01*
X146463624Y-110552812D01*
X146429000Y-110378741D01*
X146429000Y-110201259D01*
X146463624Y-110027188D01*
X146531544Y-109863216D01*
X146630147Y-109715646D01*
X146755646Y-109590147D01*
X146903216Y-109491544D01*
X147067188Y-109423624D01*
X147216488Y-109393927D01*
X147241258Y-109389000D01*
X147418742Y-109389000D01*
X147443512Y-109393927D01*
G37*
G36*
X150771000Y-111191000D02*
G01*
X148969000Y-111191000D01*
X148969000Y-109389000D01*
X150771000Y-109389000D01*
X150771000Y-111191000D01*
G37*
G36*
X139823512Y-109393927D02*
G01*
X139972812Y-109423624D01*
X140136784Y-109491544D01*
X140284354Y-109590147D01*
X140409853Y-109715646D01*
X140508456Y-109863216D01*
X140576376Y-110027188D01*
X140611000Y-110201259D01*
X140611000Y-110378741D01*
X140576376Y-110552812D01*
X140508456Y-110716784D01*
X140409853Y-110864354D01*
X140284354Y-110989853D01*
X140136784Y-111088456D01*
X139972812Y-111156376D01*
X139823512Y-111186073D01*
X139798742Y-111191000D01*
X139621258Y-111191000D01*
X139596488Y-111186073D01*
X139447188Y-111156376D01*
X139283216Y-111088456D01*
X139135646Y-110989853D01*
X139010147Y-110864354D01*
X138911544Y-110716784D01*
X138843624Y-110552812D01*
X138809000Y-110378741D01*
X138809000Y-110201259D01*
X138843624Y-110027188D01*
X138911544Y-109863216D01*
X139010147Y-109715646D01*
X139135646Y-109590147D01*
X139283216Y-109491544D01*
X139447188Y-109423624D01*
X139596488Y-109393927D01*
X139621258Y-109389000D01*
X139798742Y-109389000D01*
X139823512Y-109393927D01*
G37*
G36*
X142363512Y-109393927D02*
G01*
X142512812Y-109423624D01*
X142676784Y-109491544D01*
X142824354Y-109590147D01*
X142949853Y-109715646D01*
X143048456Y-109863216D01*
X143116376Y-110027188D01*
X143151000Y-110201259D01*
X143151000Y-110378741D01*
X143116376Y-110552812D01*
X143048456Y-110716784D01*
X142949853Y-110864354D01*
X142824354Y-110989853D01*
X142676784Y-111088456D01*
X142512812Y-111156376D01*
X142363512Y-111186073D01*
X142338742Y-111191000D01*
X142161258Y-111191000D01*
X142136488Y-111186073D01*
X141987188Y-111156376D01*
X141823216Y-111088456D01*
X141675646Y-110989853D01*
X141550147Y-110864354D01*
X141451544Y-110716784D01*
X141383624Y-110552812D01*
X141349000Y-110378741D01*
X141349000Y-110201259D01*
X141383624Y-110027188D01*
X141451544Y-109863216D01*
X141550147Y-109715646D01*
X141675646Y-109590147D01*
X141823216Y-109491544D01*
X141987188Y-109423624D01*
X142136488Y-109393927D01*
X142161258Y-109389000D01*
X142338742Y-109389000D01*
X142363512Y-109393927D01*
G37*
G36*
X104533512Y-109353927D02*
G01*
X104682812Y-109383624D01*
X104846784Y-109451544D01*
X104994354Y-109550147D01*
X105119853Y-109675646D01*
X105218456Y-109823216D01*
X105286376Y-109987188D01*
X105321000Y-110161259D01*
X105321000Y-110338741D01*
X105286376Y-110512812D01*
X105218456Y-110676784D01*
X105119853Y-110824354D01*
X104994354Y-110949853D01*
X104846784Y-111048456D01*
X104682812Y-111116376D01*
X104533512Y-111146073D01*
X104508742Y-111151000D01*
X104331258Y-111151000D01*
X104306488Y-111146073D01*
X104157188Y-111116376D01*
X103993216Y-111048456D01*
X103845646Y-110949853D01*
X103720147Y-110824354D01*
X103621544Y-110676784D01*
X103553624Y-110512812D01*
X103519000Y-110338741D01*
X103519000Y-110161259D01*
X103553624Y-109987188D01*
X103621544Y-109823216D01*
X103720147Y-109675646D01*
X103845646Y-109550147D01*
X103993216Y-109451544D01*
X104157188Y-109383624D01*
X104306488Y-109353927D01*
X104331258Y-109349000D01*
X104508742Y-109349000D01*
X104533512Y-109353927D01*
G37*
G36*
X101993512Y-109353927D02*
G01*
X102142812Y-109383624D01*
X102306784Y-109451544D01*
X102454354Y-109550147D01*
X102579853Y-109675646D01*
X102678456Y-109823216D01*
X102746376Y-109987188D01*
X102781000Y-110161259D01*
X102781000Y-110338741D01*
X102746376Y-110512812D01*
X102678456Y-110676784D01*
X102579853Y-110824354D01*
X102454354Y-110949853D01*
X102306784Y-111048456D01*
X102142812Y-111116376D01*
X101993512Y-111146073D01*
X101968742Y-111151000D01*
X101791258Y-111151000D01*
X101766488Y-111146073D01*
X101617188Y-111116376D01*
X101453216Y-111048456D01*
X101305646Y-110949853D01*
X101180147Y-110824354D01*
X101081544Y-110676784D01*
X101013624Y-110512812D01*
X100979000Y-110338741D01*
X100979000Y-110161259D01*
X101013624Y-109987188D01*
X101081544Y-109823216D01*
X101180147Y-109675646D01*
X101305646Y-109550147D01*
X101453216Y-109451544D01*
X101617188Y-109383624D01*
X101766488Y-109353927D01*
X101791258Y-109349000D01*
X101968742Y-109349000D01*
X101993512Y-109353927D01*
G37*
G36*
X99453512Y-109353927D02*
G01*
X99602812Y-109383624D01*
X99766784Y-109451544D01*
X99914354Y-109550147D01*
X100039853Y-109675646D01*
X100138456Y-109823216D01*
X100206376Y-109987188D01*
X100241000Y-110161259D01*
X100241000Y-110338741D01*
X100206376Y-110512812D01*
X100138456Y-110676784D01*
X100039853Y-110824354D01*
X99914354Y-110949853D01*
X99766784Y-111048456D01*
X99602812Y-111116376D01*
X99453512Y-111146073D01*
X99428742Y-111151000D01*
X99251258Y-111151000D01*
X99226488Y-111146073D01*
X99077188Y-111116376D01*
X98913216Y-111048456D01*
X98765646Y-110949853D01*
X98640147Y-110824354D01*
X98541544Y-110676784D01*
X98473624Y-110512812D01*
X98439000Y-110338741D01*
X98439000Y-110161259D01*
X98473624Y-109987188D01*
X98541544Y-109823216D01*
X98640147Y-109675646D01*
X98765646Y-109550147D01*
X98913216Y-109451544D01*
X99077188Y-109383624D01*
X99226488Y-109353927D01*
X99251258Y-109349000D01*
X99428742Y-109349000D01*
X99453512Y-109353927D01*
G37*
G36*
X107073512Y-109353927D02*
G01*
X107222812Y-109383624D01*
X107386784Y-109451544D01*
X107534354Y-109550147D01*
X107659853Y-109675646D01*
X107758456Y-109823216D01*
X107826376Y-109987188D01*
X107861000Y-110161259D01*
X107861000Y-110338741D01*
X107826376Y-110512812D01*
X107758456Y-110676784D01*
X107659853Y-110824354D01*
X107534354Y-110949853D01*
X107386784Y-111048456D01*
X107222812Y-111116376D01*
X107073512Y-111146073D01*
X107048742Y-111151000D01*
X106871258Y-111151000D01*
X106846488Y-111146073D01*
X106697188Y-111116376D01*
X106533216Y-111048456D01*
X106385646Y-110949853D01*
X106260147Y-110824354D01*
X106161544Y-110676784D01*
X106093624Y-110512812D01*
X106059000Y-110338741D01*
X106059000Y-110161259D01*
X106093624Y-109987188D01*
X106161544Y-109823216D01*
X106260147Y-109675646D01*
X106385646Y-109550147D01*
X106533216Y-109451544D01*
X106697188Y-109383624D01*
X106846488Y-109353927D01*
X106871258Y-109349000D01*
X107048742Y-109349000D01*
X107073512Y-109353927D01*
G37*
G36*
X110401000Y-111151000D02*
G01*
X108599000Y-111151000D01*
X108599000Y-109349000D01*
X110401000Y-109349000D01*
X110401000Y-111151000D01*
G37*
G36*
X139823512Y-106853927D02*
G01*
X139972812Y-106883624D01*
X140136784Y-106951544D01*
X140284354Y-107050147D01*
X140409853Y-107175646D01*
X140508456Y-107323216D01*
X140576376Y-107487188D01*
X140611000Y-107661259D01*
X140611000Y-107838741D01*
X140576376Y-108012812D01*
X140508456Y-108176784D01*
X140409853Y-108324354D01*
X140284354Y-108449853D01*
X140136784Y-108548456D01*
X139972812Y-108616376D01*
X139823512Y-108646073D01*
X139798742Y-108651000D01*
X139621258Y-108651000D01*
X139596488Y-108646073D01*
X139447188Y-108616376D01*
X139283216Y-108548456D01*
X139135646Y-108449853D01*
X139010147Y-108324354D01*
X138911544Y-108176784D01*
X138843624Y-108012812D01*
X138809000Y-107838741D01*
X138809000Y-107661259D01*
X138843624Y-107487188D01*
X138911544Y-107323216D01*
X139010147Y-107175646D01*
X139135646Y-107050147D01*
X139283216Y-106951544D01*
X139447188Y-106883624D01*
X139596488Y-106853927D01*
X139621258Y-106849000D01*
X139798742Y-106849000D01*
X139823512Y-106853927D01*
G37*
G36*
X144903512Y-106853927D02*
G01*
X145052812Y-106883624D01*
X145216784Y-106951544D01*
X145364354Y-107050147D01*
X145489853Y-107175646D01*
X145588456Y-107323216D01*
X145656376Y-107487188D01*
X145691000Y-107661259D01*
X145691000Y-107838741D01*
X145656376Y-108012812D01*
X145588456Y-108176784D01*
X145489853Y-108324354D01*
X145364354Y-108449853D01*
X145216784Y-108548456D01*
X145052812Y-108616376D01*
X144903512Y-108646073D01*
X144878742Y-108651000D01*
X144701258Y-108651000D01*
X144676488Y-108646073D01*
X144527188Y-108616376D01*
X144363216Y-108548456D01*
X144215646Y-108449853D01*
X144090147Y-108324354D01*
X143991544Y-108176784D01*
X143923624Y-108012812D01*
X143889000Y-107838741D01*
X143889000Y-107661259D01*
X143923624Y-107487188D01*
X143991544Y-107323216D01*
X144090147Y-107175646D01*
X144215646Y-107050147D01*
X144363216Y-106951544D01*
X144527188Y-106883624D01*
X144676488Y-106853927D01*
X144701258Y-106849000D01*
X144878742Y-106849000D01*
X144903512Y-106853927D01*
G37*
G36*
X142363512Y-106853927D02*
G01*
X142512812Y-106883624D01*
X142676784Y-106951544D01*
X142824354Y-107050147D01*
X142949853Y-107175646D01*
X143048456Y-107323216D01*
X143116376Y-107487188D01*
X143151000Y-107661259D01*
X143151000Y-107838741D01*
X143116376Y-108012812D01*
X143048456Y-108176784D01*
X142949853Y-108324354D01*
X142824354Y-108449853D01*
X142676784Y-108548456D01*
X142512812Y-108616376D01*
X142363512Y-108646073D01*
X142338742Y-108651000D01*
X142161258Y-108651000D01*
X142136488Y-108646073D01*
X141987188Y-108616376D01*
X141823216Y-108548456D01*
X141675646Y-108449853D01*
X141550147Y-108324354D01*
X141451544Y-108176784D01*
X141383624Y-108012812D01*
X141349000Y-107838741D01*
X141349000Y-107661259D01*
X141383624Y-107487188D01*
X141451544Y-107323216D01*
X141550147Y-107175646D01*
X141675646Y-107050147D01*
X141823216Y-106951544D01*
X141987188Y-106883624D01*
X142136488Y-106853927D01*
X142161258Y-106849000D01*
X142338742Y-106849000D01*
X142363512Y-106853927D01*
G37*
G36*
X147443512Y-106853927D02*
G01*
X147592812Y-106883624D01*
X147756784Y-106951544D01*
X147904354Y-107050147D01*
X148029853Y-107175646D01*
X148128456Y-107323216D01*
X148196376Y-107487188D01*
X148231000Y-107661259D01*
X148231000Y-107838741D01*
X148196376Y-108012812D01*
X148128456Y-108176784D01*
X148029853Y-108324354D01*
X147904354Y-108449853D01*
X147756784Y-108548456D01*
X147592812Y-108616376D01*
X147443512Y-108646073D01*
X147418742Y-108651000D01*
X147241258Y-108651000D01*
X147216488Y-108646073D01*
X147067188Y-108616376D01*
X146903216Y-108548456D01*
X146755646Y-108449853D01*
X146630147Y-108324354D01*
X146531544Y-108176784D01*
X146463624Y-108012812D01*
X146429000Y-107838741D01*
X146429000Y-107661259D01*
X146463624Y-107487188D01*
X146531544Y-107323216D01*
X146630147Y-107175646D01*
X146755646Y-107050147D01*
X146903216Y-106951544D01*
X147067188Y-106883624D01*
X147216488Y-106853927D01*
X147241258Y-106849000D01*
X147418742Y-106849000D01*
X147443512Y-106853927D01*
G37*
G36*
X149983512Y-106853927D02*
G01*
X150132812Y-106883624D01*
X150296784Y-106951544D01*
X150444354Y-107050147D01*
X150569853Y-107175646D01*
X150668456Y-107323216D01*
X150736376Y-107487188D01*
X150771000Y-107661259D01*
X150771000Y-107838741D01*
X150736376Y-108012812D01*
X150668456Y-108176784D01*
X150569853Y-108324354D01*
X150444354Y-108449853D01*
X150296784Y-108548456D01*
X150132812Y-108616376D01*
X149983512Y-108646073D01*
X149958742Y-108651000D01*
X149781258Y-108651000D01*
X149756488Y-108646073D01*
X149607188Y-108616376D01*
X149443216Y-108548456D01*
X149295646Y-108449853D01*
X149170147Y-108324354D01*
X149071544Y-108176784D01*
X149003624Y-108012812D01*
X148969000Y-107838741D01*
X148969000Y-107661259D01*
X149003624Y-107487188D01*
X149071544Y-107323216D01*
X149170147Y-107175646D01*
X149295646Y-107050147D01*
X149443216Y-106951544D01*
X149607188Y-106883624D01*
X149756488Y-106853927D01*
X149781258Y-106849000D01*
X149958742Y-106849000D01*
X149983512Y-106853927D01*
G37*
G36*
X109613512Y-106813927D02*
G01*
X109762812Y-106843624D01*
X109926784Y-106911544D01*
X110074354Y-107010147D01*
X110199853Y-107135646D01*
X110298456Y-107283216D01*
X110366376Y-107447188D01*
X110401000Y-107621259D01*
X110401000Y-107798741D01*
X110366376Y-107972812D01*
X110298456Y-108136784D01*
X110199853Y-108284354D01*
X110074354Y-108409853D01*
X109926784Y-108508456D01*
X109762812Y-108576376D01*
X109613512Y-108606073D01*
X109588742Y-108611000D01*
X109411258Y-108611000D01*
X109386488Y-108606073D01*
X109237188Y-108576376D01*
X109073216Y-108508456D01*
X108925646Y-108409853D01*
X108800147Y-108284354D01*
X108701544Y-108136784D01*
X108633624Y-107972812D01*
X108599000Y-107798741D01*
X108599000Y-107621259D01*
X108633624Y-107447188D01*
X108701544Y-107283216D01*
X108800147Y-107135646D01*
X108925646Y-107010147D01*
X109073216Y-106911544D01*
X109237188Y-106843624D01*
X109386488Y-106813927D01*
X109411258Y-106809000D01*
X109588742Y-106809000D01*
X109613512Y-106813927D01*
G37*
G36*
X107073512Y-106813927D02*
G01*
X107222812Y-106843624D01*
X107386784Y-106911544D01*
X107534354Y-107010147D01*
X107659853Y-107135646D01*
X107758456Y-107283216D01*
X107826376Y-107447188D01*
X107861000Y-107621259D01*
X107861000Y-107798741D01*
X107826376Y-107972812D01*
X107758456Y-108136784D01*
X107659853Y-108284354D01*
X107534354Y-108409853D01*
X107386784Y-108508456D01*
X107222812Y-108576376D01*
X107073512Y-108606073D01*
X107048742Y-108611000D01*
X106871258Y-108611000D01*
X106846488Y-108606073D01*
X106697188Y-108576376D01*
X106533216Y-108508456D01*
X106385646Y-108409853D01*
X106260147Y-108284354D01*
X106161544Y-108136784D01*
X106093624Y-107972812D01*
X106059000Y-107798741D01*
X106059000Y-107621259D01*
X106093624Y-107447188D01*
X106161544Y-107283216D01*
X106260147Y-107135646D01*
X106385646Y-107010147D01*
X106533216Y-106911544D01*
X106697188Y-106843624D01*
X106846488Y-106813927D01*
X106871258Y-106809000D01*
X107048742Y-106809000D01*
X107073512Y-106813927D01*
G37*
G36*
X104533512Y-106813927D02*
G01*
X104682812Y-106843624D01*
X104846784Y-106911544D01*
X104994354Y-107010147D01*
X105119853Y-107135646D01*
X105218456Y-107283216D01*
X105286376Y-107447188D01*
X105321000Y-107621259D01*
X105321000Y-107798741D01*
X105286376Y-107972812D01*
X105218456Y-108136784D01*
X105119853Y-108284354D01*
X104994354Y-108409853D01*
X104846784Y-108508456D01*
X104682812Y-108576376D01*
X104533512Y-108606073D01*
X104508742Y-108611000D01*
X104331258Y-108611000D01*
X104306488Y-108606073D01*
X104157188Y-108576376D01*
X103993216Y-108508456D01*
X103845646Y-108409853D01*
X103720147Y-108284354D01*
X103621544Y-108136784D01*
X103553624Y-107972812D01*
X103519000Y-107798741D01*
X103519000Y-107621259D01*
X103553624Y-107447188D01*
X103621544Y-107283216D01*
X103720147Y-107135646D01*
X103845646Y-107010147D01*
X103993216Y-106911544D01*
X104157188Y-106843624D01*
X104306488Y-106813927D01*
X104331258Y-106809000D01*
X104508742Y-106809000D01*
X104533512Y-106813927D01*
G37*
G36*
X101993512Y-106813927D02*
G01*
X102142812Y-106843624D01*
X102306784Y-106911544D01*
X102454354Y-107010147D01*
X102579853Y-107135646D01*
X102678456Y-107283216D01*
X102746376Y-107447188D01*
X102781000Y-107621259D01*
X102781000Y-107798741D01*
X102746376Y-107972812D01*
X102678456Y-108136784D01*
X102579853Y-108284354D01*
X102454354Y-108409853D01*
X102306784Y-108508456D01*
X102142812Y-108576376D01*
X101993512Y-108606073D01*
X101968742Y-108611000D01*
X101791258Y-108611000D01*
X101766488Y-108606073D01*
X101617188Y-108576376D01*
X101453216Y-108508456D01*
X101305646Y-108409853D01*
X101180147Y-108284354D01*
X101081544Y-108136784D01*
X101013624Y-107972812D01*
X100979000Y-107798741D01*
X100979000Y-107621259D01*
X101013624Y-107447188D01*
X101081544Y-107283216D01*
X101180147Y-107135646D01*
X101305646Y-107010147D01*
X101453216Y-106911544D01*
X101617188Y-106843624D01*
X101766488Y-106813927D01*
X101791258Y-106809000D01*
X101968742Y-106809000D01*
X101993512Y-106813927D01*
G37*
G36*
X99453512Y-106813927D02*
G01*
X99602812Y-106843624D01*
X99766784Y-106911544D01*
X99914354Y-107010147D01*
X100039853Y-107135646D01*
X100138456Y-107283216D01*
X100206376Y-107447188D01*
X100241000Y-107621259D01*
X100241000Y-107798741D01*
X100206376Y-107972812D01*
X100138456Y-108136784D01*
X100039853Y-108284354D01*
X99914354Y-108409853D01*
X99766784Y-108508456D01*
X99602812Y-108576376D01*
X99453512Y-108606073D01*
X99428742Y-108611000D01*
X99251258Y-108611000D01*
X99226488Y-108606073D01*
X99077188Y-108576376D01*
X98913216Y-108508456D01*
X98765646Y-108409853D01*
X98640147Y-108284354D01*
X98541544Y-108136784D01*
X98473624Y-107972812D01*
X98439000Y-107798741D01*
X98439000Y-107621259D01*
X98473624Y-107447188D01*
X98541544Y-107283216D01*
X98640147Y-107135646D01*
X98765646Y-107010147D01*
X98913216Y-106911544D01*
X99077188Y-106843624D01*
X99226488Y-106813927D01*
X99251258Y-106809000D01*
X99428742Y-106809000D01*
X99453512Y-106813927D01*
G37*
M02*
