G04 #@! TF.GenerationSoftware,KiCad,Pcbnew,(5.1.6-0-10_14)*
G04 #@! TF.CreationDate,2020-11-05T10:51:19+09:00*
G04 #@! TF.ProjectId,teabiscuits_compute,74656162-6973-4637-9569-74735f636f6d,rev?*
G04 #@! TF.SameCoordinates,Original*
G04 #@! TF.FileFunction,Copper,L2,Bot*
G04 #@! TF.FilePolarity,Positive*
%FSLAX46Y46*%
G04 Gerber Fmt 4.6, Leading zero omitted, Abs format (unit mm)*
G04 Created by KiCad (PCBNEW (5.1.6-0-10_14)) date 2020-11-05 10:51:19*
%MOMM*%
%LPD*%
G01*
G04 APERTURE LIST*
G04 #@! TA.AperFunction,ComponentPad*
%ADD10C,1.524000*%
G04 #@! TD*
G04 #@! TA.AperFunction,ComponentPad*
%ADD11C,1.500000*%
G04 #@! TD*
G04 #@! TA.AperFunction,ComponentPad*
%ADD12R,1.500000X1.500000*%
G04 #@! TD*
G04 #@! TA.AperFunction,ComponentPad*
%ADD13O,1.700000X1.700000*%
G04 #@! TD*
G04 #@! TA.AperFunction,ComponentPad*
%ADD14R,1.700000X1.700000*%
G04 #@! TD*
G04 #@! TA.AperFunction,ComponentPad*
%ADD15C,1.600000*%
G04 #@! TD*
G04 #@! TA.AperFunction,ComponentPad*
%ADD16O,1.200000X1.200000*%
G04 #@! TD*
G04 #@! TA.AperFunction,ComponentPad*
%ADD17C,1.397000*%
G04 #@! TD*
G04 #@! TA.AperFunction,ComponentPad*
%ADD18C,1.549400*%
G04 #@! TD*
G04 #@! TA.AperFunction,ComponentPad*
%ADD19C,3.759200*%
G04 #@! TD*
G04 #@! TA.AperFunction,ComponentPad*
%ADD20C,2.108200*%
G04 #@! TD*
G04 #@! TA.AperFunction,ComponentPad*
%ADD21R,1.350000X1.350000*%
G04 #@! TD*
G04 #@! TA.AperFunction,ComponentPad*
%ADD22O,1.350000X1.350000*%
G04 #@! TD*
G04 #@! TA.AperFunction,ViaPad*
%ADD23C,2.200000*%
G04 #@! TD*
G04 #@! TA.AperFunction,ViaPad*
%ADD24C,0.800000*%
G04 #@! TD*
G04 #@! TA.AperFunction,Conductor*
%ADD25C,0.500000*%
G04 #@! TD*
G04 #@! TA.AperFunction,Conductor*
%ADD26C,0.250000*%
G04 #@! TD*
G04 #@! TA.AperFunction,Conductor*
%ADD27C,0.254000*%
G04 #@! TD*
G04 APERTURE END LIST*
D10*
X132240000Y-166870000D03*
X132240000Y-164330000D03*
X132240000Y-161790000D03*
X132240000Y-159250000D03*
X132240000Y-156710000D03*
X132240000Y-154170000D03*
X132240000Y-151630000D03*
X132240000Y-149090000D03*
X132240000Y-146550000D03*
X132240000Y-144010000D03*
X132240000Y-141470000D03*
X132240000Y-138930000D03*
X132240000Y-136390000D03*
X132240000Y-133850000D03*
X132240000Y-131310000D03*
X132240000Y-128770000D03*
X132240000Y-126230000D03*
X132240000Y-123690000D03*
X132240000Y-121150000D03*
X132240000Y-118610000D03*
X132240000Y-116070000D03*
X132240000Y-113530000D03*
X132240000Y-110990000D03*
X117000000Y-128770000D03*
X117000000Y-146550000D03*
X117000000Y-166870000D03*
X117000000Y-141470000D03*
X117000000Y-121150000D03*
X117000000Y-133850000D03*
X117000000Y-110990000D03*
X117000000Y-144010000D03*
X117000000Y-116070000D03*
X117000000Y-118610000D03*
X117000000Y-126230000D03*
X117000000Y-156710000D03*
X117000000Y-149090000D03*
X117000000Y-159250000D03*
X117000000Y-138930000D03*
X117000000Y-164330000D03*
X117000000Y-123690000D03*
X117000000Y-136390000D03*
X117000000Y-131310000D03*
X117000000Y-113530000D03*
X117000000Y-161790000D03*
D11*
X150750000Y-151550000D03*
X150750000Y-154090000D03*
X150750000Y-156630000D03*
X150750000Y-161710000D03*
D12*
X150750000Y-164250000D03*
D13*
X139710000Y-107750000D03*
X139710000Y-110290000D03*
X142250000Y-107750000D03*
X142250000Y-110290000D03*
X144790000Y-107750000D03*
X144790000Y-110290000D03*
X147330000Y-107750000D03*
X147330000Y-110290000D03*
X149870000Y-107750000D03*
D14*
X149870000Y-110290000D03*
D13*
X99340000Y-107710000D03*
X99340000Y-110250000D03*
X101880000Y-107710000D03*
X101880000Y-110250000D03*
X104420000Y-107710000D03*
X104420000Y-110250000D03*
X106960000Y-107710000D03*
X106960000Y-110250000D03*
X109500000Y-107710000D03*
D14*
X109500000Y-110250000D03*
D15*
X101750000Y-144750000D03*
X99250000Y-144750000D03*
D16*
X156500000Y-121500000D03*
X155000000Y-121500000D03*
G04 #@! TA.AperFunction,ComponentPad*
G36*
G01*
X152900000Y-121923600D02*
X152900000Y-121076400D01*
G75*
G02*
X153076400Y-120900000I176400J0D01*
G01*
X153923600Y-120900000D01*
G75*
G02*
X154100000Y-121076400I0J-176400D01*
G01*
X154100000Y-121923600D01*
G75*
G02*
X153923600Y-122100000I-176400J0D01*
G01*
X153076400Y-122100000D01*
G75*
G02*
X152900000Y-121923600I0J176400D01*
G01*
G37*
G04 #@! TD.AperFunction*
D17*
X100270000Y-149460000D03*
X102810000Y-149460000D03*
X105350000Y-149460000D03*
X107890000Y-149460000D03*
X99000000Y-152000000D03*
X101540000Y-152000000D03*
X104080000Y-152000000D03*
X106620000Y-152000000D03*
D18*
X97120000Y-163450000D03*
X99660000Y-161730000D03*
X107230000Y-163430000D03*
X109770000Y-161730000D03*
D19*
X97730000Y-158370000D03*
X109160000Y-158370000D03*
D20*
X95570002Y-155320000D03*
X111319998Y-155320000D03*
D21*
X120000000Y-154000000D03*
D22*
X120000000Y-152000000D03*
X122000000Y-154000000D03*
X122000000Y-152000000D03*
X124000000Y-154000000D03*
X124000000Y-152000000D03*
D23*
X156250000Y-107750000D03*
X95000000Y-107750000D03*
X156250000Y-137750000D03*
X95000000Y-137500000D03*
D24*
X147750000Y-114750000D03*
X137750000Y-114750000D03*
X136000000Y-109250000D03*
X110750000Y-113500000D03*
X112750000Y-120000000D03*
X113500000Y-117500000D03*
X113500000Y-108750000D03*
X136750000Y-111717999D03*
X135750000Y-111250000D03*
D25*
X147750000Y-114750000D02*
X137750000Y-114750000D01*
D26*
X108135001Y-108885001D02*
X106960000Y-107710000D01*
X110184315Y-113500000D02*
X108135001Y-111450686D01*
X108135001Y-111450686D02*
X108135001Y-108885001D01*
X110750000Y-113500000D02*
X110184315Y-113500000D01*
X112750000Y-120000000D02*
X112750000Y-111750000D01*
X111250000Y-110250000D02*
X109500000Y-110250000D01*
X112750000Y-111750000D02*
X111250000Y-110250000D01*
X134100000Y-121150000D02*
X132240000Y-121150000D01*
X134500000Y-120750000D02*
X134100000Y-121150000D01*
X134500000Y-114000000D02*
X134500000Y-120750000D01*
X135250000Y-113250000D02*
X134500000Y-114000000D01*
X146910000Y-113250000D02*
X135250000Y-113250000D01*
X149870000Y-110290000D02*
X146910000Y-113250000D01*
X135750000Y-114000000D02*
X135250000Y-114500000D01*
X135250000Y-114500000D02*
X135250000Y-122750000D01*
X151500000Y-111750000D02*
X149250000Y-114000000D01*
X134310000Y-123690000D02*
X132240000Y-123690000D01*
X149250000Y-114000000D02*
X135750000Y-114000000D01*
X151500000Y-109380000D02*
X151500000Y-111750000D01*
X135250000Y-122750000D02*
X134310000Y-123690000D01*
X149870000Y-107750000D02*
X151500000Y-109380000D01*
X147330000Y-110290000D02*
X147330000Y-111920000D01*
X146807001Y-112442999D02*
X131557001Y-112442999D01*
X147330000Y-111920000D02*
X146807001Y-112442999D01*
X131557001Y-112442999D02*
X129750000Y-114250000D01*
X129750000Y-114250000D02*
X129750000Y-160500000D01*
X131040000Y-161790000D02*
X132240000Y-161790000D01*
X129750000Y-160500000D02*
X131040000Y-161790000D01*
D25*
X113500000Y-117500000D02*
X113500000Y-108750000D01*
X136750000Y-111717999D02*
X142217999Y-111717999D01*
X142217999Y-110322001D02*
X142250000Y-110290000D01*
X142217999Y-111717999D02*
X142217999Y-110322001D01*
D26*
X101540000Y-144960000D02*
X101750000Y-144750000D01*
X101540000Y-152000000D02*
X101540000Y-144960000D01*
X117000000Y-161790000D02*
X115040000Y-161790000D01*
X115040000Y-161790000D02*
X114250000Y-161000000D01*
X114250000Y-107399998D02*
X115074999Y-106574999D01*
X114250000Y-161000000D02*
X114250000Y-107399998D01*
X143540000Y-106500000D02*
X143614999Y-106574999D01*
X143614999Y-106574999D02*
X144790000Y-107750000D01*
X104420000Y-107580000D02*
X104420000Y-107710000D01*
X110750000Y-106500000D02*
X110000000Y-106500000D01*
X110750000Y-106500000D02*
X143540000Y-106500000D01*
X109500000Y-107000000D02*
X109500000Y-107710000D01*
X110000000Y-106500000D02*
X109500000Y-107000000D01*
X110000000Y-106500000D02*
X105000000Y-106500000D01*
X104420000Y-107080000D02*
X104420000Y-107710000D01*
X105000000Y-106500000D02*
X104420000Y-107080000D01*
X138074999Y-108925001D02*
X135750000Y-111250000D01*
X146154999Y-108925001D02*
X138074999Y-108925001D01*
X147330000Y-107750000D02*
X146154999Y-108925001D01*
D27*
G36*
X98573080Y-106438359D02*
G01*
X98339731Y-106612412D01*
X98144822Y-106828645D01*
X97995843Y-107078748D01*
X97898519Y-107353109D01*
X98019186Y-107583000D01*
X99213000Y-107583000D01*
X99213000Y-107563000D01*
X99467000Y-107563000D01*
X99467000Y-107583000D01*
X99487000Y-107583000D01*
X99487000Y-107837000D01*
X99467000Y-107837000D01*
X99467000Y-107857000D01*
X99213000Y-107857000D01*
X99213000Y-107837000D01*
X98019186Y-107837000D01*
X97898519Y-108066891D01*
X97995843Y-108341252D01*
X98144822Y-108591355D01*
X98339731Y-108807588D01*
X98569406Y-108978900D01*
X98393368Y-109096525D01*
X98186525Y-109303368D01*
X98024010Y-109546589D01*
X97912068Y-109816842D01*
X97855000Y-110103740D01*
X97855000Y-110396260D01*
X97912068Y-110683158D01*
X98024010Y-110953411D01*
X98186525Y-111196632D01*
X98393368Y-111403475D01*
X98636589Y-111565990D01*
X98906842Y-111677932D01*
X99193740Y-111735000D01*
X99486260Y-111735000D01*
X99773158Y-111677932D01*
X100043411Y-111565990D01*
X100286632Y-111403475D01*
X100493475Y-111196632D01*
X100610000Y-111022240D01*
X100726525Y-111196632D01*
X100933368Y-111403475D01*
X101176589Y-111565990D01*
X101446842Y-111677932D01*
X101733740Y-111735000D01*
X102026260Y-111735000D01*
X102313158Y-111677932D01*
X102583411Y-111565990D01*
X102826632Y-111403475D01*
X103033475Y-111196632D01*
X103155195Y-111014466D01*
X103224822Y-111131355D01*
X103419731Y-111347588D01*
X103653080Y-111521641D01*
X103915901Y-111646825D01*
X104063110Y-111691476D01*
X104293000Y-111570155D01*
X104293000Y-110377000D01*
X104273000Y-110377000D01*
X104273000Y-110123000D01*
X104293000Y-110123000D01*
X104293000Y-110103000D01*
X104547000Y-110103000D01*
X104547000Y-110123000D01*
X104567000Y-110123000D01*
X104567000Y-110377000D01*
X104547000Y-110377000D01*
X104547000Y-111570155D01*
X104776890Y-111691476D01*
X104924099Y-111646825D01*
X105186920Y-111521641D01*
X105420269Y-111347588D01*
X105615178Y-111131355D01*
X105684805Y-111014466D01*
X105806525Y-111196632D01*
X106013368Y-111403475D01*
X106256589Y-111565990D01*
X106526842Y-111677932D01*
X106813740Y-111735000D01*
X107106260Y-111735000D01*
X107393158Y-111677932D01*
X107407887Y-111671831D01*
X107421892Y-111717999D01*
X107429455Y-111742932D01*
X107500027Y-111874962D01*
X107523036Y-111902998D01*
X107595000Y-111990687D01*
X107624004Y-112014490D01*
X109620516Y-114011003D01*
X109644314Y-114040001D01*
X109760039Y-114134974D01*
X109892068Y-114205546D01*
X110035276Y-114248987D01*
X110090226Y-114303937D01*
X110259744Y-114417205D01*
X110448102Y-114495226D01*
X110648061Y-114535000D01*
X110851939Y-114535000D01*
X111051898Y-114495226D01*
X111240256Y-114417205D01*
X111409774Y-114303937D01*
X111553937Y-114159774D01*
X111667205Y-113990256D01*
X111745226Y-113801898D01*
X111785000Y-113601939D01*
X111785000Y-113398061D01*
X111745226Y-113198102D01*
X111667205Y-113009744D01*
X111553937Y-112840226D01*
X111409774Y-112696063D01*
X111240256Y-112582795D01*
X111051898Y-112504774D01*
X110851939Y-112465000D01*
X110648061Y-112465000D01*
X110448102Y-112504774D01*
X110317845Y-112558728D01*
X109497188Y-111738072D01*
X110350000Y-111738072D01*
X110474482Y-111725812D01*
X110594180Y-111689502D01*
X110704494Y-111630537D01*
X110801185Y-111551185D01*
X110880537Y-111454494D01*
X110939502Y-111344180D01*
X110975812Y-111224482D01*
X110988072Y-111100000D01*
X110988072Y-111062873D01*
X111990001Y-112064803D01*
X111990000Y-119296289D01*
X111946063Y-119340226D01*
X111832795Y-119509744D01*
X111754774Y-119698102D01*
X111715000Y-119898061D01*
X111715000Y-120101939D01*
X111754774Y-120301898D01*
X111832795Y-120490256D01*
X111946063Y-120659774D01*
X112090226Y-120803937D01*
X112259744Y-120917205D01*
X112448102Y-120995226D01*
X112648061Y-121035000D01*
X112851939Y-121035000D01*
X113051898Y-120995226D01*
X113240256Y-120917205D01*
X113409774Y-120803937D01*
X113490001Y-120723710D01*
X113490000Y-160962678D01*
X113486324Y-161000000D01*
X113490000Y-161037322D01*
X113490000Y-161037332D01*
X113500997Y-161148985D01*
X113530158Y-161245116D01*
X113544454Y-161292246D01*
X113615026Y-161424276D01*
X113654871Y-161472826D01*
X113709999Y-161540001D01*
X113739002Y-161563803D01*
X114476201Y-162301002D01*
X114499999Y-162330001D01*
X114615724Y-162424974D01*
X114747753Y-162495546D01*
X114891014Y-162539003D01*
X115002667Y-162550000D01*
X115002675Y-162550000D01*
X115040000Y-162553676D01*
X115077325Y-162550000D01*
X115827659Y-162550000D01*
X115914880Y-162680535D01*
X116109465Y-162875120D01*
X116338273Y-163028005D01*
X116409943Y-163057692D01*
X116396977Y-163062364D01*
X116281020Y-163124344D01*
X116214040Y-163364435D01*
X117000000Y-164150395D01*
X117785960Y-163364435D01*
X117718980Y-163124344D01*
X117583240Y-163060515D01*
X117661727Y-163028005D01*
X117890535Y-162875120D01*
X118085120Y-162680535D01*
X118238005Y-162451727D01*
X118343314Y-162197490D01*
X118397000Y-161927592D01*
X118397000Y-161652408D01*
X118343314Y-161382510D01*
X118238005Y-161128273D01*
X118085120Y-160899465D01*
X117890535Y-160704880D01*
X117661727Y-160551995D01*
X117584485Y-160520000D01*
X117661727Y-160488005D01*
X117890535Y-160335120D01*
X118085120Y-160140535D01*
X118238005Y-159911727D01*
X118343314Y-159657490D01*
X118397000Y-159387592D01*
X118397000Y-159112408D01*
X118343314Y-158842510D01*
X118238005Y-158588273D01*
X118085120Y-158359465D01*
X117890535Y-158164880D01*
X117661727Y-158011995D01*
X117584485Y-157980000D01*
X117661727Y-157948005D01*
X117890535Y-157795120D01*
X118085120Y-157600535D01*
X118238005Y-157371727D01*
X118343314Y-157117490D01*
X118397000Y-156847592D01*
X118397000Y-156572408D01*
X118343314Y-156302510D01*
X118238005Y-156048273D01*
X118085120Y-155819465D01*
X117890535Y-155624880D01*
X117661727Y-155471995D01*
X117407490Y-155366686D01*
X117137592Y-155313000D01*
X116862408Y-155313000D01*
X116592510Y-155366686D01*
X116338273Y-155471995D01*
X116109465Y-155624880D01*
X115914880Y-155819465D01*
X115761995Y-156048273D01*
X115656686Y-156302510D01*
X115603000Y-156572408D01*
X115603000Y-156847592D01*
X115656686Y-157117490D01*
X115761995Y-157371727D01*
X115914880Y-157600535D01*
X116109465Y-157795120D01*
X116338273Y-157948005D01*
X116415515Y-157980000D01*
X116338273Y-158011995D01*
X116109465Y-158164880D01*
X115914880Y-158359465D01*
X115761995Y-158588273D01*
X115656686Y-158842510D01*
X115603000Y-159112408D01*
X115603000Y-159387592D01*
X115656686Y-159657490D01*
X115761995Y-159911727D01*
X115914880Y-160140535D01*
X116109465Y-160335120D01*
X116338273Y-160488005D01*
X116415515Y-160520000D01*
X116338273Y-160551995D01*
X116109465Y-160704880D01*
X115914880Y-160899465D01*
X115827659Y-161030000D01*
X115354802Y-161030000D01*
X115010000Y-160685199D01*
X115010000Y-153325000D01*
X118686928Y-153325000D01*
X118686928Y-154675000D01*
X118699188Y-154799482D01*
X118735498Y-154919180D01*
X118794463Y-155029494D01*
X118873815Y-155126185D01*
X118970506Y-155205537D01*
X119080820Y-155264502D01*
X119200518Y-155300812D01*
X119325000Y-155313072D01*
X120675000Y-155313072D01*
X120799482Y-155300812D01*
X120919180Y-155264502D01*
X121029494Y-155205537D01*
X121126185Y-155126185D01*
X121197487Y-155039303D01*
X121379482Y-155160907D01*
X121617887Y-155259658D01*
X121870976Y-155310000D01*
X122129024Y-155310000D01*
X122382113Y-155259658D01*
X122620518Y-155160907D01*
X122835077Y-155017544D01*
X123000000Y-154852621D01*
X123164923Y-155017544D01*
X123379482Y-155160907D01*
X123617887Y-155259658D01*
X123870976Y-155310000D01*
X124129024Y-155310000D01*
X124382113Y-155259658D01*
X124620518Y-155160907D01*
X124835077Y-155017544D01*
X125017544Y-154835077D01*
X125160907Y-154620518D01*
X125259658Y-154382113D01*
X125310000Y-154129024D01*
X125310000Y-153870976D01*
X125259658Y-153617887D01*
X125160907Y-153379482D01*
X125017544Y-153164923D01*
X124852621Y-153000000D01*
X125017544Y-152835077D01*
X125160907Y-152620518D01*
X125259658Y-152382113D01*
X125310000Y-152129024D01*
X125310000Y-151870976D01*
X125259658Y-151617887D01*
X125160907Y-151379482D01*
X125017544Y-151164923D01*
X124835077Y-150982456D01*
X124620518Y-150839093D01*
X124382113Y-150740342D01*
X124129024Y-150690000D01*
X123870976Y-150690000D01*
X123617887Y-150740342D01*
X123379482Y-150839093D01*
X123164923Y-150982456D01*
X122993319Y-151154060D01*
X122871227Y-151021697D01*
X122663629Y-150870527D01*
X122430528Y-150762762D01*
X122329400Y-150732090D01*
X122127000Y-150855776D01*
X122127000Y-151873000D01*
X122147000Y-151873000D01*
X122147000Y-152127000D01*
X122127000Y-152127000D01*
X122127000Y-152147000D01*
X121873000Y-152147000D01*
X121873000Y-152127000D01*
X121853000Y-152127000D01*
X121853000Y-151873000D01*
X121873000Y-151873000D01*
X121873000Y-150855776D01*
X121670600Y-150732090D01*
X121569472Y-150762762D01*
X121336371Y-150870527D01*
X121128773Y-151021697D01*
X121006681Y-151154060D01*
X120835077Y-150982456D01*
X120620518Y-150839093D01*
X120382113Y-150740342D01*
X120129024Y-150690000D01*
X119870976Y-150690000D01*
X119617887Y-150740342D01*
X119379482Y-150839093D01*
X119164923Y-150982456D01*
X118982456Y-151164923D01*
X118839093Y-151379482D01*
X118740342Y-151617887D01*
X118690000Y-151870976D01*
X118690000Y-152129024D01*
X118740342Y-152382113D01*
X118839093Y-152620518D01*
X118960697Y-152802513D01*
X118873815Y-152873815D01*
X118794463Y-152970506D01*
X118735498Y-153080820D01*
X118699188Y-153200518D01*
X118686928Y-153325000D01*
X115010000Y-153325000D01*
X115010000Y-133712408D01*
X115603000Y-133712408D01*
X115603000Y-133987592D01*
X115656686Y-134257490D01*
X115761995Y-134511727D01*
X115914880Y-134740535D01*
X116109465Y-134935120D01*
X116338273Y-135088005D01*
X116415515Y-135120000D01*
X116338273Y-135151995D01*
X116109465Y-135304880D01*
X115914880Y-135499465D01*
X115761995Y-135728273D01*
X115656686Y-135982510D01*
X115603000Y-136252408D01*
X115603000Y-136527592D01*
X115656686Y-136797490D01*
X115761995Y-137051727D01*
X115914880Y-137280535D01*
X116109465Y-137475120D01*
X116338273Y-137628005D01*
X116415515Y-137660000D01*
X116338273Y-137691995D01*
X116109465Y-137844880D01*
X115914880Y-138039465D01*
X115761995Y-138268273D01*
X115656686Y-138522510D01*
X115603000Y-138792408D01*
X115603000Y-139067592D01*
X115656686Y-139337490D01*
X115761995Y-139591727D01*
X115914880Y-139820535D01*
X116109465Y-140015120D01*
X116338273Y-140168005D01*
X116415515Y-140200000D01*
X116338273Y-140231995D01*
X116109465Y-140384880D01*
X115914880Y-140579465D01*
X115761995Y-140808273D01*
X115656686Y-141062510D01*
X115603000Y-141332408D01*
X115603000Y-141607592D01*
X115656686Y-141877490D01*
X115761995Y-142131727D01*
X115914880Y-142360535D01*
X116109465Y-142555120D01*
X116338273Y-142708005D01*
X116415515Y-142740000D01*
X116338273Y-142771995D01*
X116109465Y-142924880D01*
X115914880Y-143119465D01*
X115761995Y-143348273D01*
X115656686Y-143602510D01*
X115603000Y-143872408D01*
X115603000Y-144147592D01*
X115656686Y-144417490D01*
X115761995Y-144671727D01*
X115914880Y-144900535D01*
X116109465Y-145095120D01*
X116338273Y-145248005D01*
X116415515Y-145280000D01*
X116338273Y-145311995D01*
X116109465Y-145464880D01*
X115914880Y-145659465D01*
X115761995Y-145888273D01*
X115656686Y-146142510D01*
X115603000Y-146412408D01*
X115603000Y-146687592D01*
X115656686Y-146957490D01*
X115761995Y-147211727D01*
X115914880Y-147440535D01*
X116109465Y-147635120D01*
X116338273Y-147788005D01*
X116415515Y-147820000D01*
X116338273Y-147851995D01*
X116109465Y-148004880D01*
X115914880Y-148199465D01*
X115761995Y-148428273D01*
X115656686Y-148682510D01*
X115603000Y-148952408D01*
X115603000Y-149227592D01*
X115656686Y-149497490D01*
X115761995Y-149751727D01*
X115914880Y-149980535D01*
X116109465Y-150175120D01*
X116338273Y-150328005D01*
X116592510Y-150433314D01*
X116862408Y-150487000D01*
X117137592Y-150487000D01*
X117407490Y-150433314D01*
X117661727Y-150328005D01*
X117890535Y-150175120D01*
X118085120Y-149980535D01*
X118238005Y-149751727D01*
X118343314Y-149497490D01*
X118397000Y-149227592D01*
X118397000Y-148952408D01*
X118343314Y-148682510D01*
X118238005Y-148428273D01*
X118085120Y-148199465D01*
X117890535Y-148004880D01*
X117661727Y-147851995D01*
X117584485Y-147820000D01*
X117661727Y-147788005D01*
X117890535Y-147635120D01*
X118085120Y-147440535D01*
X118238005Y-147211727D01*
X118343314Y-146957490D01*
X118397000Y-146687592D01*
X118397000Y-146412408D01*
X118343314Y-146142510D01*
X118238005Y-145888273D01*
X118085120Y-145659465D01*
X117890535Y-145464880D01*
X117661727Y-145311995D01*
X117584485Y-145280000D01*
X117661727Y-145248005D01*
X117890535Y-145095120D01*
X118085120Y-144900535D01*
X118238005Y-144671727D01*
X118343314Y-144417490D01*
X118397000Y-144147592D01*
X118397000Y-143872408D01*
X118343314Y-143602510D01*
X118238005Y-143348273D01*
X118085120Y-143119465D01*
X117890535Y-142924880D01*
X117661727Y-142771995D01*
X117584485Y-142740000D01*
X117661727Y-142708005D01*
X117890535Y-142555120D01*
X118085120Y-142360535D01*
X118238005Y-142131727D01*
X118343314Y-141877490D01*
X118397000Y-141607592D01*
X118397000Y-141332408D01*
X118343314Y-141062510D01*
X118238005Y-140808273D01*
X118085120Y-140579465D01*
X117890535Y-140384880D01*
X117661727Y-140231995D01*
X117584485Y-140200000D01*
X117661727Y-140168005D01*
X117890535Y-140015120D01*
X118085120Y-139820535D01*
X118238005Y-139591727D01*
X118343314Y-139337490D01*
X118397000Y-139067592D01*
X118397000Y-138792408D01*
X118343314Y-138522510D01*
X118238005Y-138268273D01*
X118085120Y-138039465D01*
X117890535Y-137844880D01*
X117661727Y-137691995D01*
X117584485Y-137660000D01*
X117661727Y-137628005D01*
X117890535Y-137475120D01*
X118085120Y-137280535D01*
X118238005Y-137051727D01*
X118343314Y-136797490D01*
X118397000Y-136527592D01*
X118397000Y-136252408D01*
X118343314Y-135982510D01*
X118238005Y-135728273D01*
X118085120Y-135499465D01*
X117890535Y-135304880D01*
X117661727Y-135151995D01*
X117584485Y-135120000D01*
X117661727Y-135088005D01*
X117890535Y-134935120D01*
X118085120Y-134740535D01*
X118238005Y-134511727D01*
X118343314Y-134257490D01*
X118397000Y-133987592D01*
X118397000Y-133712408D01*
X118343314Y-133442510D01*
X118238005Y-133188273D01*
X118085120Y-132959465D01*
X117890535Y-132764880D01*
X117661727Y-132611995D01*
X117590057Y-132582308D01*
X117603023Y-132577636D01*
X117718980Y-132515656D01*
X117785960Y-132275565D01*
X117000000Y-131489605D01*
X116214040Y-132275565D01*
X116281020Y-132515656D01*
X116416760Y-132579485D01*
X116338273Y-132611995D01*
X116109465Y-132764880D01*
X115914880Y-132959465D01*
X115761995Y-133188273D01*
X115656686Y-133442510D01*
X115603000Y-133712408D01*
X115010000Y-133712408D01*
X115010000Y-131382017D01*
X115598090Y-131382017D01*
X115639078Y-131654133D01*
X115732364Y-131913023D01*
X115794344Y-132028980D01*
X116034435Y-132095960D01*
X116820395Y-131310000D01*
X117179605Y-131310000D01*
X117965565Y-132095960D01*
X118205656Y-132028980D01*
X118322756Y-131779952D01*
X118389023Y-131512865D01*
X118401910Y-131237983D01*
X118360922Y-130965867D01*
X118267636Y-130706977D01*
X118205656Y-130591020D01*
X117965565Y-130524040D01*
X117179605Y-131310000D01*
X116820395Y-131310000D01*
X116034435Y-130524040D01*
X115794344Y-130591020D01*
X115677244Y-130840048D01*
X115610977Y-131107135D01*
X115598090Y-131382017D01*
X115010000Y-131382017D01*
X115010000Y-110852408D01*
X115603000Y-110852408D01*
X115603000Y-111127592D01*
X115656686Y-111397490D01*
X115761995Y-111651727D01*
X115914880Y-111880535D01*
X116109465Y-112075120D01*
X116338273Y-112228005D01*
X116415515Y-112260000D01*
X116338273Y-112291995D01*
X116109465Y-112444880D01*
X115914880Y-112639465D01*
X115761995Y-112868273D01*
X115656686Y-113122510D01*
X115603000Y-113392408D01*
X115603000Y-113667592D01*
X115656686Y-113937490D01*
X115761995Y-114191727D01*
X115914880Y-114420535D01*
X116109465Y-114615120D01*
X116338273Y-114768005D01*
X116415515Y-114800000D01*
X116338273Y-114831995D01*
X116109465Y-114984880D01*
X115914880Y-115179465D01*
X115761995Y-115408273D01*
X115656686Y-115662510D01*
X115603000Y-115932408D01*
X115603000Y-116207592D01*
X115656686Y-116477490D01*
X115761995Y-116731727D01*
X115914880Y-116960535D01*
X116109465Y-117155120D01*
X116338273Y-117308005D01*
X116415515Y-117340000D01*
X116338273Y-117371995D01*
X116109465Y-117524880D01*
X115914880Y-117719465D01*
X115761995Y-117948273D01*
X115656686Y-118202510D01*
X115603000Y-118472408D01*
X115603000Y-118747592D01*
X115656686Y-119017490D01*
X115761995Y-119271727D01*
X115914880Y-119500535D01*
X116109465Y-119695120D01*
X116338273Y-119848005D01*
X116415515Y-119880000D01*
X116338273Y-119911995D01*
X116109465Y-120064880D01*
X115914880Y-120259465D01*
X115761995Y-120488273D01*
X115656686Y-120742510D01*
X115603000Y-121012408D01*
X115603000Y-121287592D01*
X115656686Y-121557490D01*
X115761995Y-121811727D01*
X115914880Y-122040535D01*
X116109465Y-122235120D01*
X116338273Y-122388005D01*
X116415515Y-122420000D01*
X116338273Y-122451995D01*
X116109465Y-122604880D01*
X115914880Y-122799465D01*
X115761995Y-123028273D01*
X115656686Y-123282510D01*
X115603000Y-123552408D01*
X115603000Y-123827592D01*
X115656686Y-124097490D01*
X115761995Y-124351727D01*
X115914880Y-124580535D01*
X116109465Y-124775120D01*
X116338273Y-124928005D01*
X116415515Y-124960000D01*
X116338273Y-124991995D01*
X116109465Y-125144880D01*
X115914880Y-125339465D01*
X115761995Y-125568273D01*
X115656686Y-125822510D01*
X115603000Y-126092408D01*
X115603000Y-126367592D01*
X115656686Y-126637490D01*
X115761995Y-126891727D01*
X115914880Y-127120535D01*
X116109465Y-127315120D01*
X116338273Y-127468005D01*
X116415515Y-127500000D01*
X116338273Y-127531995D01*
X116109465Y-127684880D01*
X115914880Y-127879465D01*
X115761995Y-128108273D01*
X115656686Y-128362510D01*
X115603000Y-128632408D01*
X115603000Y-128907592D01*
X115656686Y-129177490D01*
X115761995Y-129431727D01*
X115914880Y-129660535D01*
X116109465Y-129855120D01*
X116338273Y-130008005D01*
X116409943Y-130037692D01*
X116396977Y-130042364D01*
X116281020Y-130104344D01*
X116214040Y-130344435D01*
X117000000Y-131130395D01*
X117785960Y-130344435D01*
X117718980Y-130104344D01*
X117583240Y-130040515D01*
X117661727Y-130008005D01*
X117890535Y-129855120D01*
X118085120Y-129660535D01*
X118238005Y-129431727D01*
X118343314Y-129177490D01*
X118397000Y-128907592D01*
X118397000Y-128632408D01*
X118343314Y-128362510D01*
X118238005Y-128108273D01*
X118085120Y-127879465D01*
X117890535Y-127684880D01*
X117661727Y-127531995D01*
X117584485Y-127500000D01*
X117661727Y-127468005D01*
X117890535Y-127315120D01*
X118085120Y-127120535D01*
X118238005Y-126891727D01*
X118343314Y-126637490D01*
X118397000Y-126367592D01*
X118397000Y-126092408D01*
X118343314Y-125822510D01*
X118238005Y-125568273D01*
X118085120Y-125339465D01*
X117890535Y-125144880D01*
X117661727Y-124991995D01*
X117584485Y-124960000D01*
X117661727Y-124928005D01*
X117890535Y-124775120D01*
X118085120Y-124580535D01*
X118238005Y-124351727D01*
X118343314Y-124097490D01*
X118397000Y-123827592D01*
X118397000Y-123552408D01*
X118343314Y-123282510D01*
X118238005Y-123028273D01*
X118085120Y-122799465D01*
X117890535Y-122604880D01*
X117661727Y-122451995D01*
X117584485Y-122420000D01*
X117661727Y-122388005D01*
X117890535Y-122235120D01*
X118085120Y-122040535D01*
X118238005Y-121811727D01*
X118343314Y-121557490D01*
X118397000Y-121287592D01*
X118397000Y-121012408D01*
X118343314Y-120742510D01*
X118238005Y-120488273D01*
X118085120Y-120259465D01*
X117890535Y-120064880D01*
X117661727Y-119911995D01*
X117584485Y-119880000D01*
X117661727Y-119848005D01*
X117890535Y-119695120D01*
X118085120Y-119500535D01*
X118238005Y-119271727D01*
X118343314Y-119017490D01*
X118397000Y-118747592D01*
X118397000Y-118472408D01*
X118343314Y-118202510D01*
X118238005Y-117948273D01*
X118085120Y-117719465D01*
X117890535Y-117524880D01*
X117661727Y-117371995D01*
X117584485Y-117340000D01*
X117661727Y-117308005D01*
X117890535Y-117155120D01*
X118085120Y-116960535D01*
X118238005Y-116731727D01*
X118343314Y-116477490D01*
X118397000Y-116207592D01*
X118397000Y-115932408D01*
X118343314Y-115662510D01*
X118238005Y-115408273D01*
X118085120Y-115179465D01*
X117890535Y-114984880D01*
X117661727Y-114831995D01*
X117584485Y-114800000D01*
X117661727Y-114768005D01*
X117890535Y-114615120D01*
X118085120Y-114420535D01*
X118238005Y-114191727D01*
X118343314Y-113937490D01*
X118397000Y-113667592D01*
X118397000Y-113392408D01*
X118343314Y-113122510D01*
X118238005Y-112868273D01*
X118085120Y-112639465D01*
X117890535Y-112444880D01*
X117661727Y-112291995D01*
X117584485Y-112260000D01*
X117661727Y-112228005D01*
X117890535Y-112075120D01*
X118085120Y-111880535D01*
X118238005Y-111651727D01*
X118343314Y-111397490D01*
X118397000Y-111127592D01*
X118397000Y-110852408D01*
X118343314Y-110582510D01*
X118238005Y-110328273D01*
X118085120Y-110099465D01*
X117890535Y-109904880D01*
X117661727Y-109751995D01*
X117407490Y-109646686D01*
X117137592Y-109593000D01*
X116862408Y-109593000D01*
X116592510Y-109646686D01*
X116338273Y-109751995D01*
X116109465Y-109904880D01*
X115914880Y-110099465D01*
X115761995Y-110328273D01*
X115656686Y-110582510D01*
X115603000Y-110852408D01*
X115010000Y-110852408D01*
X115010000Y-107714799D01*
X115464800Y-107260000D01*
X138315737Y-107260000D01*
X138268519Y-107393109D01*
X138389186Y-107623000D01*
X139583000Y-107623000D01*
X139583000Y-107603000D01*
X139837000Y-107603000D01*
X139837000Y-107623000D01*
X139857000Y-107623000D01*
X139857000Y-107877000D01*
X139837000Y-107877000D01*
X139837000Y-107897000D01*
X139583000Y-107897000D01*
X139583000Y-107877000D01*
X138389186Y-107877000D01*
X138268519Y-108106891D01*
X138289132Y-108165001D01*
X138112321Y-108165001D01*
X138074998Y-108161325D01*
X138037675Y-108165001D01*
X138037666Y-108165001D01*
X137926013Y-108175998D01*
X137782752Y-108219455D01*
X137650722Y-108290027D01*
X137588305Y-108341252D01*
X137534998Y-108385000D01*
X137511200Y-108413998D01*
X135710199Y-110215000D01*
X135648061Y-110215000D01*
X135448102Y-110254774D01*
X135259744Y-110332795D01*
X135090226Y-110446063D01*
X134946063Y-110590226D01*
X134832795Y-110759744D01*
X134754774Y-110948102D01*
X134715000Y-111148061D01*
X134715000Y-111351939D01*
X134754774Y-111551898D01*
X134809078Y-111682999D01*
X133457110Y-111682999D01*
X133478005Y-111651727D01*
X133583314Y-111397490D01*
X133637000Y-111127592D01*
X133637000Y-110852408D01*
X133583314Y-110582510D01*
X133478005Y-110328273D01*
X133325120Y-110099465D01*
X133130535Y-109904880D01*
X132901727Y-109751995D01*
X132647490Y-109646686D01*
X132377592Y-109593000D01*
X132102408Y-109593000D01*
X131832510Y-109646686D01*
X131578273Y-109751995D01*
X131349465Y-109904880D01*
X131154880Y-110099465D01*
X131001995Y-110328273D01*
X130896686Y-110582510D01*
X130843000Y-110852408D01*
X130843000Y-111127592D01*
X130896686Y-111397490D01*
X131001995Y-111651727D01*
X131115743Y-111821962D01*
X131017000Y-111902998D01*
X130993202Y-111931996D01*
X129239003Y-113686196D01*
X129209999Y-113709999D01*
X129154871Y-113777174D01*
X129115026Y-113825724D01*
X129055285Y-113937490D01*
X129044454Y-113957754D01*
X129000997Y-114101015D01*
X128990000Y-114212668D01*
X128990000Y-114212678D01*
X128986324Y-114250000D01*
X128990000Y-114287322D01*
X128990001Y-160462667D01*
X128986324Y-160500000D01*
X129000998Y-160648985D01*
X129044454Y-160792246D01*
X129115026Y-160924276D01*
X129175643Y-160998137D01*
X129210000Y-161040001D01*
X129238998Y-161063799D01*
X130476205Y-162301008D01*
X130499999Y-162330001D01*
X130528992Y-162353795D01*
X130528996Y-162353799D01*
X130582543Y-162397743D01*
X130615724Y-162424974D01*
X130747753Y-162495546D01*
X130891014Y-162539003D01*
X131002667Y-162550000D01*
X131002676Y-162550000D01*
X131039999Y-162553676D01*
X131068256Y-162550893D01*
X131154880Y-162680535D01*
X131349465Y-162875120D01*
X131578273Y-163028005D01*
X131655515Y-163060000D01*
X131578273Y-163091995D01*
X131349465Y-163244880D01*
X131154880Y-163439465D01*
X131001995Y-163668273D01*
X130896686Y-163922510D01*
X130843000Y-164192408D01*
X130843000Y-164467592D01*
X130896686Y-164737490D01*
X131001995Y-164991727D01*
X131154880Y-165220535D01*
X131349465Y-165415120D01*
X131578273Y-165568005D01*
X131649943Y-165597692D01*
X131636977Y-165602364D01*
X131521020Y-165664344D01*
X131454040Y-165904435D01*
X132240000Y-166690395D01*
X133025960Y-165904435D01*
X132958980Y-165664344D01*
X132823240Y-165600515D01*
X132901727Y-165568005D01*
X133130535Y-165415120D01*
X133325120Y-165220535D01*
X133478005Y-164991727D01*
X133583314Y-164737490D01*
X133637000Y-164467592D01*
X133637000Y-164192408D01*
X133583314Y-163922510D01*
X133478005Y-163668273D01*
X133325120Y-163439465D01*
X133130535Y-163244880D01*
X132901727Y-163091995D01*
X132824485Y-163060000D01*
X132901727Y-163028005D01*
X133130535Y-162875120D01*
X133325120Y-162680535D01*
X133478005Y-162451727D01*
X133583314Y-162197490D01*
X133637000Y-161927592D01*
X133637000Y-161652408D01*
X133583314Y-161382510D01*
X133478005Y-161128273D01*
X133325120Y-160899465D01*
X133130535Y-160704880D01*
X132901727Y-160551995D01*
X132824485Y-160520000D01*
X132901727Y-160488005D01*
X133130535Y-160335120D01*
X133325120Y-160140535D01*
X133478005Y-159911727D01*
X133583314Y-159657490D01*
X133637000Y-159387592D01*
X133637000Y-159112408D01*
X133583314Y-158842510D01*
X133478005Y-158588273D01*
X133325120Y-158359465D01*
X133130535Y-158164880D01*
X132901727Y-158011995D01*
X132824485Y-157980000D01*
X132901727Y-157948005D01*
X133130535Y-157795120D01*
X133325120Y-157600535D01*
X133478005Y-157371727D01*
X133583314Y-157117490D01*
X133637000Y-156847592D01*
X133637000Y-156572408D01*
X133583314Y-156302510D01*
X133478005Y-156048273D01*
X133325120Y-155819465D01*
X133130535Y-155624880D01*
X132901727Y-155471995D01*
X132824485Y-155440000D01*
X132901727Y-155408005D01*
X133130535Y-155255120D01*
X133325120Y-155060535D01*
X133478005Y-154831727D01*
X133583314Y-154577490D01*
X133637000Y-154307592D01*
X133637000Y-154032408D01*
X133583314Y-153762510D01*
X133478005Y-153508273D01*
X133325120Y-153279465D01*
X133130535Y-153084880D01*
X132901727Y-152931995D01*
X132824485Y-152900000D01*
X132901727Y-152868005D01*
X133130535Y-152715120D01*
X133325120Y-152520535D01*
X133478005Y-152291727D01*
X133583314Y-152037490D01*
X133637000Y-151767592D01*
X133637000Y-151492408D01*
X133583314Y-151222510D01*
X133478005Y-150968273D01*
X133325120Y-150739465D01*
X133130535Y-150544880D01*
X132901727Y-150391995D01*
X132824485Y-150360000D01*
X132901727Y-150328005D01*
X133130535Y-150175120D01*
X133325120Y-149980535D01*
X133478005Y-149751727D01*
X133583314Y-149497490D01*
X133637000Y-149227592D01*
X133637000Y-148952408D01*
X133583314Y-148682510D01*
X133478005Y-148428273D01*
X133325120Y-148199465D01*
X133130535Y-148004880D01*
X132901727Y-147851995D01*
X132824485Y-147820000D01*
X132901727Y-147788005D01*
X133130535Y-147635120D01*
X133325120Y-147440535D01*
X133478005Y-147211727D01*
X133583314Y-146957490D01*
X133637000Y-146687592D01*
X133637000Y-146412408D01*
X133583314Y-146142510D01*
X133478005Y-145888273D01*
X133325120Y-145659465D01*
X133130535Y-145464880D01*
X132901727Y-145311995D01*
X132824485Y-145280000D01*
X132901727Y-145248005D01*
X133130535Y-145095120D01*
X133325120Y-144900535D01*
X133478005Y-144671727D01*
X133583314Y-144417490D01*
X133637000Y-144147592D01*
X133637000Y-143872408D01*
X133583314Y-143602510D01*
X133478005Y-143348273D01*
X133325120Y-143119465D01*
X133130535Y-142924880D01*
X132901727Y-142771995D01*
X132824485Y-142740000D01*
X132901727Y-142708005D01*
X133130535Y-142555120D01*
X133325120Y-142360535D01*
X133478005Y-142131727D01*
X133583314Y-141877490D01*
X133637000Y-141607592D01*
X133637000Y-141332408D01*
X133583314Y-141062510D01*
X133478005Y-140808273D01*
X133325120Y-140579465D01*
X133130535Y-140384880D01*
X132901727Y-140231995D01*
X132824485Y-140200000D01*
X132901727Y-140168005D01*
X133130535Y-140015120D01*
X133325120Y-139820535D01*
X133478005Y-139591727D01*
X133583314Y-139337490D01*
X133637000Y-139067592D01*
X133637000Y-138792408D01*
X133583314Y-138522510D01*
X133478005Y-138268273D01*
X133325120Y-138039465D01*
X133130535Y-137844880D01*
X132901727Y-137691995D01*
X132824485Y-137660000D01*
X132901727Y-137628005D01*
X133130535Y-137475120D01*
X133325120Y-137280535D01*
X133478005Y-137051727D01*
X133583314Y-136797490D01*
X133637000Y-136527592D01*
X133637000Y-136252408D01*
X133583314Y-135982510D01*
X133478005Y-135728273D01*
X133325120Y-135499465D01*
X133130535Y-135304880D01*
X132901727Y-135151995D01*
X132824485Y-135120000D01*
X132901727Y-135088005D01*
X133130535Y-134935120D01*
X133325120Y-134740535D01*
X133478005Y-134511727D01*
X133583314Y-134257490D01*
X133637000Y-133987592D01*
X133637000Y-133712408D01*
X133583314Y-133442510D01*
X133478005Y-133188273D01*
X133325120Y-132959465D01*
X133130535Y-132764880D01*
X132901727Y-132611995D01*
X132824485Y-132580000D01*
X132901727Y-132548005D01*
X133130535Y-132395120D01*
X133325120Y-132200535D01*
X133478005Y-131971727D01*
X133583314Y-131717490D01*
X133637000Y-131447592D01*
X133637000Y-131172408D01*
X133583314Y-130902510D01*
X133478005Y-130648273D01*
X133325120Y-130419465D01*
X133130535Y-130224880D01*
X132901727Y-130071995D01*
X132824485Y-130040000D01*
X132901727Y-130008005D01*
X133130535Y-129855120D01*
X133325120Y-129660535D01*
X133478005Y-129431727D01*
X133583314Y-129177490D01*
X133637000Y-128907592D01*
X133637000Y-128632408D01*
X133583314Y-128362510D01*
X133478005Y-128108273D01*
X133325120Y-127879465D01*
X133130535Y-127684880D01*
X132901727Y-127531995D01*
X132824485Y-127500000D01*
X132901727Y-127468005D01*
X133130535Y-127315120D01*
X133325120Y-127120535D01*
X133478005Y-126891727D01*
X133583314Y-126637490D01*
X133637000Y-126367592D01*
X133637000Y-126092408D01*
X133583314Y-125822510D01*
X133478005Y-125568273D01*
X133325120Y-125339465D01*
X133130535Y-125144880D01*
X132901727Y-124991995D01*
X132824485Y-124960000D01*
X132901727Y-124928005D01*
X133130535Y-124775120D01*
X133325120Y-124580535D01*
X133412341Y-124450000D01*
X134272678Y-124450000D01*
X134310000Y-124453676D01*
X134347322Y-124450000D01*
X134347333Y-124450000D01*
X134458986Y-124439003D01*
X134602247Y-124395546D01*
X134734276Y-124324974D01*
X134850001Y-124230001D01*
X134873804Y-124200998D01*
X135761003Y-123313799D01*
X135790001Y-123290001D01*
X135873000Y-123188866D01*
X135873000Y-168840000D01*
X93660000Y-168840000D01*
X93660000Y-166732408D01*
X115603000Y-166732408D01*
X115603000Y-167007592D01*
X115656686Y-167277490D01*
X115761995Y-167531727D01*
X115914880Y-167760535D01*
X116109465Y-167955120D01*
X116338273Y-168108005D01*
X116592510Y-168213314D01*
X116862408Y-168267000D01*
X117137592Y-168267000D01*
X117407490Y-168213314D01*
X117661727Y-168108005D01*
X117890535Y-167955120D01*
X118010090Y-167835565D01*
X131454040Y-167835565D01*
X131521020Y-168075656D01*
X131770048Y-168192756D01*
X132037135Y-168259023D01*
X132312017Y-168271910D01*
X132584133Y-168230922D01*
X132843023Y-168137636D01*
X132958980Y-168075656D01*
X133025960Y-167835565D01*
X132240000Y-167049605D01*
X131454040Y-167835565D01*
X118010090Y-167835565D01*
X118085120Y-167760535D01*
X118238005Y-167531727D01*
X118343314Y-167277490D01*
X118397000Y-167007592D01*
X118397000Y-166942017D01*
X130838090Y-166942017D01*
X130879078Y-167214133D01*
X130972364Y-167473023D01*
X131034344Y-167588980D01*
X131274435Y-167655960D01*
X132060395Y-166870000D01*
X132419605Y-166870000D01*
X133205565Y-167655960D01*
X133445656Y-167588980D01*
X133562756Y-167339952D01*
X133629023Y-167072865D01*
X133641910Y-166797983D01*
X133600922Y-166525867D01*
X133507636Y-166266977D01*
X133445656Y-166151020D01*
X133205565Y-166084040D01*
X132419605Y-166870000D01*
X132060395Y-166870000D01*
X131274435Y-166084040D01*
X131034344Y-166151020D01*
X130917244Y-166400048D01*
X130850977Y-166667135D01*
X130838090Y-166942017D01*
X118397000Y-166942017D01*
X118397000Y-166732408D01*
X118343314Y-166462510D01*
X118238005Y-166208273D01*
X118085120Y-165979465D01*
X117890535Y-165784880D01*
X117661727Y-165631995D01*
X117590057Y-165602308D01*
X117603023Y-165597636D01*
X117718980Y-165535656D01*
X117785960Y-165295565D01*
X117000000Y-164509605D01*
X116214040Y-165295565D01*
X116281020Y-165535656D01*
X116416760Y-165599485D01*
X116338273Y-165631995D01*
X116109465Y-165784880D01*
X115914880Y-165979465D01*
X115761995Y-166208273D01*
X115656686Y-166462510D01*
X115603000Y-166732408D01*
X93660000Y-166732408D01*
X93660000Y-164424636D01*
X96324969Y-164424636D01*
X96393489Y-164666023D01*
X96644683Y-164784393D01*
X96914143Y-164851483D01*
X97191514Y-164864714D01*
X97466137Y-164823579D01*
X97727458Y-164729658D01*
X97846511Y-164666023D01*
X97915031Y-164424636D01*
X97120000Y-163629605D01*
X96324969Y-164424636D01*
X93660000Y-164424636D01*
X93660000Y-163521514D01*
X95705286Y-163521514D01*
X95746421Y-163796137D01*
X95840342Y-164057458D01*
X95903977Y-164176511D01*
X96145364Y-164245031D01*
X96940395Y-163450000D01*
X97299605Y-163450000D01*
X98094636Y-164245031D01*
X98336023Y-164176511D01*
X98454393Y-163925317D01*
X98521483Y-163655857D01*
X98534714Y-163378486D01*
X98521634Y-163291157D01*
X105820300Y-163291157D01*
X105820300Y-163568843D01*
X105874474Y-163841194D01*
X105980740Y-164097743D01*
X106135014Y-164328631D01*
X106331369Y-164524986D01*
X106562257Y-164679260D01*
X106818806Y-164785526D01*
X107091157Y-164839700D01*
X107368843Y-164839700D01*
X107641194Y-164785526D01*
X107897743Y-164679260D01*
X108128631Y-164524986D01*
X108251600Y-164402017D01*
X115598090Y-164402017D01*
X115639078Y-164674133D01*
X115732364Y-164933023D01*
X115794344Y-165048980D01*
X116034435Y-165115960D01*
X116820395Y-164330000D01*
X117179605Y-164330000D01*
X117965565Y-165115960D01*
X118205656Y-165048980D01*
X118322756Y-164799952D01*
X118389023Y-164532865D01*
X118401910Y-164257983D01*
X118360922Y-163985867D01*
X118267636Y-163726977D01*
X118205656Y-163611020D01*
X117965565Y-163544040D01*
X117179605Y-164330000D01*
X116820395Y-164330000D01*
X116034435Y-163544040D01*
X115794344Y-163611020D01*
X115677244Y-163860048D01*
X115610977Y-164127135D01*
X115598090Y-164402017D01*
X108251600Y-164402017D01*
X108324986Y-164328631D01*
X108479260Y-164097743D01*
X108585526Y-163841194D01*
X108639700Y-163568843D01*
X108639700Y-163291157D01*
X108585526Y-163018806D01*
X108479260Y-162762257D01*
X108324986Y-162531369D01*
X108128631Y-162335014D01*
X107897743Y-162180740D01*
X107641194Y-162074474D01*
X107368843Y-162020300D01*
X107091157Y-162020300D01*
X106818806Y-162074474D01*
X106562257Y-162180740D01*
X106331369Y-162335014D01*
X106135014Y-162531369D01*
X105980740Y-162762257D01*
X105874474Y-163018806D01*
X105820300Y-163291157D01*
X98521634Y-163291157D01*
X98493579Y-163103863D01*
X98399658Y-162842542D01*
X98336023Y-162723489D01*
X98094636Y-162654969D01*
X97299605Y-163450000D01*
X96940395Y-163450000D01*
X96145364Y-162654969D01*
X95903977Y-162723489D01*
X95785607Y-162974683D01*
X95718517Y-163244143D01*
X95705286Y-163521514D01*
X93660000Y-163521514D01*
X93660000Y-162475364D01*
X96324969Y-162475364D01*
X97120000Y-163270395D01*
X97915031Y-162475364D01*
X97846511Y-162233977D01*
X97595317Y-162115607D01*
X97325857Y-162048517D01*
X97048486Y-162035286D01*
X96773863Y-162076421D01*
X96512542Y-162170342D01*
X96393489Y-162233977D01*
X96324969Y-162475364D01*
X93660000Y-162475364D01*
X93660000Y-155153638D01*
X93880902Y-155153638D01*
X93880902Y-155486362D01*
X93945813Y-155812692D01*
X94073141Y-156120089D01*
X94257992Y-156396739D01*
X94493263Y-156632010D01*
X94769913Y-156816861D01*
X95077310Y-156944189D01*
X95403640Y-157009100D01*
X95615040Y-157009100D01*
X95501590Y-157178890D01*
X95312035Y-157636518D01*
X95215400Y-158122334D01*
X95215400Y-158617666D01*
X95312035Y-159103482D01*
X95501590Y-159561110D01*
X95776783Y-159972964D01*
X96127036Y-160323217D01*
X96538890Y-160598410D01*
X96996518Y-160787965D01*
X97482334Y-160884600D01*
X97977666Y-160884600D01*
X98463482Y-160787965D01*
X98710903Y-160685480D01*
X98565014Y-160831369D01*
X98410740Y-161062257D01*
X98304474Y-161318806D01*
X98250300Y-161591157D01*
X98250300Y-161868843D01*
X98304474Y-162141194D01*
X98410740Y-162397743D01*
X98565014Y-162628631D01*
X98761369Y-162824986D01*
X98992257Y-162979260D01*
X99248806Y-163085526D01*
X99521157Y-163139700D01*
X99798843Y-163139700D01*
X100071194Y-163085526D01*
X100327743Y-162979260D01*
X100558631Y-162824986D01*
X100754986Y-162628631D01*
X100909260Y-162397743D01*
X101015526Y-162141194D01*
X101069700Y-161868843D01*
X101069700Y-161591157D01*
X101015526Y-161318806D01*
X100909260Y-161062257D01*
X100754986Y-160831369D01*
X100558631Y-160635014D01*
X100327743Y-160480740D01*
X100071194Y-160374474D01*
X99798843Y-160320300D01*
X99521157Y-160320300D01*
X99259409Y-160372365D01*
X99332964Y-160323217D01*
X99683217Y-159972964D01*
X99958410Y-159561110D01*
X100147965Y-159103482D01*
X100244600Y-158617666D01*
X100244600Y-158122334D01*
X106645400Y-158122334D01*
X106645400Y-158617666D01*
X106742035Y-159103482D01*
X106931590Y-159561110D01*
X107206783Y-159972964D01*
X107557036Y-160323217D01*
X107968890Y-160598410D01*
X108426518Y-160787965D01*
X108671461Y-160836687D01*
X108520740Y-161062257D01*
X108414474Y-161318806D01*
X108360300Y-161591157D01*
X108360300Y-161868843D01*
X108414474Y-162141194D01*
X108520740Y-162397743D01*
X108675014Y-162628631D01*
X108871369Y-162824986D01*
X109102257Y-162979260D01*
X109358806Y-163085526D01*
X109631157Y-163139700D01*
X109908843Y-163139700D01*
X110181194Y-163085526D01*
X110437743Y-162979260D01*
X110668631Y-162824986D01*
X110864986Y-162628631D01*
X111019260Y-162397743D01*
X111125526Y-162141194D01*
X111179700Y-161868843D01*
X111179700Y-161591157D01*
X111125526Y-161318806D01*
X111019260Y-161062257D01*
X110864986Y-160831369D01*
X110668631Y-160635014D01*
X110482479Y-160510632D01*
X110762964Y-160323217D01*
X111113217Y-159972964D01*
X111388410Y-159561110D01*
X111577965Y-159103482D01*
X111674600Y-158617666D01*
X111674600Y-158122334D01*
X111577965Y-157636518D01*
X111388410Y-157178890D01*
X111274960Y-157009100D01*
X111486360Y-157009100D01*
X111812690Y-156944189D01*
X112120087Y-156816861D01*
X112396737Y-156632010D01*
X112632008Y-156396739D01*
X112816859Y-156120089D01*
X112944187Y-155812692D01*
X113009098Y-155486362D01*
X113009098Y-155153638D01*
X112944187Y-154827308D01*
X112816859Y-154519911D01*
X112632008Y-154243261D01*
X112396737Y-154007990D01*
X112120087Y-153823139D01*
X111812690Y-153695811D01*
X111486360Y-153630900D01*
X111153636Y-153630900D01*
X110827306Y-153695811D01*
X110519909Y-153823139D01*
X110243259Y-154007990D01*
X110007988Y-154243261D01*
X109823137Y-154519911D01*
X109695809Y-154827308D01*
X109630898Y-155153638D01*
X109630898Y-155486362D01*
X109695809Y-155812692D01*
X109740960Y-155921696D01*
X109407666Y-155855400D01*
X108912334Y-155855400D01*
X108426518Y-155952035D01*
X107968890Y-156141590D01*
X107557036Y-156416783D01*
X107206783Y-156767036D01*
X106931590Y-157178890D01*
X106742035Y-157636518D01*
X106645400Y-158122334D01*
X100244600Y-158122334D01*
X100147965Y-157636518D01*
X99958410Y-157178890D01*
X99683217Y-156767036D01*
X99332964Y-156416783D01*
X98921110Y-156141590D01*
X98463482Y-155952035D01*
X97977666Y-155855400D01*
X97482334Y-155855400D01*
X97149040Y-155921696D01*
X97194191Y-155812692D01*
X97259102Y-155486362D01*
X97259102Y-155153638D01*
X97194191Y-154827308D01*
X97066863Y-154519911D01*
X96882012Y-154243261D01*
X96646741Y-154007990D01*
X96370091Y-153823139D01*
X96062694Y-153695811D01*
X95736364Y-153630900D01*
X95403640Y-153630900D01*
X95077310Y-153695811D01*
X94769913Y-153823139D01*
X94493263Y-154007990D01*
X94257992Y-154243261D01*
X94073141Y-154519911D01*
X93945813Y-154827308D01*
X93880902Y-155153638D01*
X93660000Y-155153638D01*
X93660000Y-151868662D01*
X97666500Y-151868662D01*
X97666500Y-152131338D01*
X97717746Y-152388968D01*
X97818268Y-152631649D01*
X97964203Y-152850057D01*
X98149943Y-153035797D01*
X98368351Y-153181732D01*
X98611032Y-153282254D01*
X98868662Y-153333500D01*
X99131338Y-153333500D01*
X99388968Y-153282254D01*
X99631649Y-153181732D01*
X99850057Y-153035797D01*
X100035797Y-152850057D01*
X100181732Y-152631649D01*
X100270000Y-152418552D01*
X100358268Y-152631649D01*
X100504203Y-152850057D01*
X100689943Y-153035797D01*
X100908351Y-153181732D01*
X101151032Y-153282254D01*
X101408662Y-153333500D01*
X101671338Y-153333500D01*
X101928968Y-153282254D01*
X102171649Y-153181732D01*
X102390057Y-153035797D01*
X102575797Y-152850057D01*
X102721732Y-152631649D01*
X102810000Y-152418552D01*
X102898268Y-152631649D01*
X103044203Y-152850057D01*
X103229943Y-153035797D01*
X103448351Y-153181732D01*
X103691032Y-153282254D01*
X103948662Y-153333500D01*
X104211338Y-153333500D01*
X104468968Y-153282254D01*
X104711649Y-153181732D01*
X104930057Y-153035797D01*
X105115797Y-152850057D01*
X105261732Y-152631649D01*
X105350000Y-152418552D01*
X105438268Y-152631649D01*
X105584203Y-152850057D01*
X105769943Y-153035797D01*
X105988351Y-153181732D01*
X106231032Y-153282254D01*
X106488662Y-153333500D01*
X106751338Y-153333500D01*
X107008968Y-153282254D01*
X107251649Y-153181732D01*
X107470057Y-153035797D01*
X107655797Y-152850057D01*
X107801732Y-152631649D01*
X107902254Y-152388968D01*
X107953500Y-152131338D01*
X107953500Y-151868662D01*
X107902254Y-151611032D01*
X107801732Y-151368351D01*
X107655797Y-151149943D01*
X107470057Y-150964203D01*
X107251649Y-150818268D01*
X107008968Y-150717746D01*
X106751338Y-150666500D01*
X106488662Y-150666500D01*
X106231032Y-150717746D01*
X105988351Y-150818268D01*
X105769943Y-150964203D01*
X105584203Y-151149943D01*
X105438268Y-151368351D01*
X105350000Y-151581448D01*
X105261732Y-151368351D01*
X105115797Y-151149943D01*
X104930057Y-150964203D01*
X104711649Y-150818268D01*
X104468968Y-150717746D01*
X104211338Y-150666500D01*
X103948662Y-150666500D01*
X103691032Y-150717746D01*
X103448351Y-150818268D01*
X103229943Y-150964203D01*
X103044203Y-151149943D01*
X102898268Y-151368351D01*
X102810000Y-151581448D01*
X102721732Y-151368351D01*
X102575797Y-151149943D01*
X102390057Y-150964203D01*
X102300000Y-150904029D01*
X102300000Y-150692121D01*
X102421032Y-150742254D01*
X102678662Y-150793500D01*
X102941338Y-150793500D01*
X103198968Y-150742254D01*
X103441649Y-150641732D01*
X103660057Y-150495797D01*
X103845797Y-150310057D01*
X103991732Y-150091649D01*
X104080000Y-149878552D01*
X104168268Y-150091649D01*
X104314203Y-150310057D01*
X104499943Y-150495797D01*
X104718351Y-150641732D01*
X104961032Y-150742254D01*
X105218662Y-150793500D01*
X105481338Y-150793500D01*
X105738968Y-150742254D01*
X105981649Y-150641732D01*
X106200057Y-150495797D01*
X106385797Y-150310057D01*
X106531732Y-150091649D01*
X106620000Y-149878552D01*
X106708268Y-150091649D01*
X106854203Y-150310057D01*
X107039943Y-150495797D01*
X107258351Y-150641732D01*
X107501032Y-150742254D01*
X107758662Y-150793500D01*
X108021338Y-150793500D01*
X108278968Y-150742254D01*
X108521649Y-150641732D01*
X108740057Y-150495797D01*
X108925797Y-150310057D01*
X109071732Y-150091649D01*
X109172254Y-149848968D01*
X109223500Y-149591338D01*
X109223500Y-149328662D01*
X109172254Y-149071032D01*
X109071732Y-148828351D01*
X108925797Y-148609943D01*
X108740057Y-148424203D01*
X108521649Y-148278268D01*
X108278968Y-148177746D01*
X108021338Y-148126500D01*
X107758662Y-148126500D01*
X107501032Y-148177746D01*
X107258351Y-148278268D01*
X107039943Y-148424203D01*
X106854203Y-148609943D01*
X106708268Y-148828351D01*
X106620000Y-149041448D01*
X106531732Y-148828351D01*
X106385797Y-148609943D01*
X106200057Y-148424203D01*
X105981649Y-148278268D01*
X105738968Y-148177746D01*
X105481338Y-148126500D01*
X105218662Y-148126500D01*
X104961032Y-148177746D01*
X104718351Y-148278268D01*
X104499943Y-148424203D01*
X104314203Y-148609943D01*
X104168268Y-148828351D01*
X104080000Y-149041448D01*
X103991732Y-148828351D01*
X103845797Y-148609943D01*
X103660057Y-148424203D01*
X103441649Y-148278268D01*
X103198968Y-148177746D01*
X102941338Y-148126500D01*
X102678662Y-148126500D01*
X102421032Y-148177746D01*
X102300000Y-148227879D01*
X102300000Y-146075415D01*
X102429727Y-146021680D01*
X102664759Y-145864637D01*
X102864637Y-145664759D01*
X103021680Y-145429727D01*
X103129853Y-145168574D01*
X103185000Y-144891335D01*
X103185000Y-144608665D01*
X103129853Y-144331426D01*
X103021680Y-144070273D01*
X102864637Y-143835241D01*
X102664759Y-143635363D01*
X102429727Y-143478320D01*
X102168574Y-143370147D01*
X101891335Y-143315000D01*
X101608665Y-143315000D01*
X101331426Y-143370147D01*
X101070273Y-143478320D01*
X100835241Y-143635363D01*
X100635363Y-143835241D01*
X100501308Y-144035869D01*
X100486671Y-144008486D01*
X100242702Y-143936903D01*
X99429605Y-144750000D01*
X100242702Y-145563097D01*
X100486671Y-145491514D01*
X100500324Y-145462659D01*
X100635363Y-145664759D01*
X100780001Y-145809397D01*
X100780001Y-148227879D01*
X100658968Y-148177746D01*
X100401338Y-148126500D01*
X100138662Y-148126500D01*
X99881032Y-148177746D01*
X99638351Y-148278268D01*
X99419943Y-148424203D01*
X99234203Y-148609943D01*
X99088268Y-148828351D01*
X98987746Y-149071032D01*
X98936500Y-149328662D01*
X98936500Y-149591338D01*
X98987746Y-149848968D01*
X99088268Y-150091649D01*
X99234203Y-150310057D01*
X99419943Y-150495797D01*
X99638351Y-150641732D01*
X99881032Y-150742254D01*
X100138662Y-150793500D01*
X100401338Y-150793500D01*
X100658968Y-150742254D01*
X100780000Y-150692121D01*
X100780000Y-150904029D01*
X100689943Y-150964203D01*
X100504203Y-151149943D01*
X100358268Y-151368351D01*
X100270000Y-151581448D01*
X100181732Y-151368351D01*
X100035797Y-151149943D01*
X99850057Y-150964203D01*
X99631649Y-150818268D01*
X99388968Y-150717746D01*
X99131338Y-150666500D01*
X98868662Y-150666500D01*
X98611032Y-150717746D01*
X98368351Y-150818268D01*
X98149943Y-150964203D01*
X97964203Y-151149943D01*
X97818268Y-151368351D01*
X97717746Y-151611032D01*
X97666500Y-151868662D01*
X93660000Y-151868662D01*
X93660000Y-145742702D01*
X98436903Y-145742702D01*
X98508486Y-145986671D01*
X98763996Y-146107571D01*
X99038184Y-146176300D01*
X99320512Y-146190217D01*
X99600130Y-146148787D01*
X99866292Y-146053603D01*
X99991514Y-145986671D01*
X100063097Y-145742702D01*
X99250000Y-144929605D01*
X98436903Y-145742702D01*
X93660000Y-145742702D01*
X93660000Y-144820512D01*
X97809783Y-144820512D01*
X97851213Y-145100130D01*
X97946397Y-145366292D01*
X98013329Y-145491514D01*
X98257298Y-145563097D01*
X99070395Y-144750000D01*
X98257298Y-143936903D01*
X98013329Y-144008486D01*
X97892429Y-144263996D01*
X97823700Y-144538184D01*
X97809783Y-144820512D01*
X93660000Y-144820512D01*
X93660000Y-143757298D01*
X98436903Y-143757298D01*
X99250000Y-144570395D01*
X100063097Y-143757298D01*
X99991514Y-143513329D01*
X99736004Y-143392429D01*
X99461816Y-143323700D01*
X99179488Y-143309783D01*
X98899870Y-143351213D01*
X98633708Y-143446397D01*
X98508486Y-143513329D01*
X98436903Y-143757298D01*
X93660000Y-143757298D01*
X93660000Y-106410000D01*
X98632619Y-106410000D01*
X98573080Y-106438359D01*
G37*
X98573080Y-106438359D02*
X98339731Y-106612412D01*
X98144822Y-106828645D01*
X97995843Y-107078748D01*
X97898519Y-107353109D01*
X98019186Y-107583000D01*
X99213000Y-107583000D01*
X99213000Y-107563000D01*
X99467000Y-107563000D01*
X99467000Y-107583000D01*
X99487000Y-107583000D01*
X99487000Y-107837000D01*
X99467000Y-107837000D01*
X99467000Y-107857000D01*
X99213000Y-107857000D01*
X99213000Y-107837000D01*
X98019186Y-107837000D01*
X97898519Y-108066891D01*
X97995843Y-108341252D01*
X98144822Y-108591355D01*
X98339731Y-108807588D01*
X98569406Y-108978900D01*
X98393368Y-109096525D01*
X98186525Y-109303368D01*
X98024010Y-109546589D01*
X97912068Y-109816842D01*
X97855000Y-110103740D01*
X97855000Y-110396260D01*
X97912068Y-110683158D01*
X98024010Y-110953411D01*
X98186525Y-111196632D01*
X98393368Y-111403475D01*
X98636589Y-111565990D01*
X98906842Y-111677932D01*
X99193740Y-111735000D01*
X99486260Y-111735000D01*
X99773158Y-111677932D01*
X100043411Y-111565990D01*
X100286632Y-111403475D01*
X100493475Y-111196632D01*
X100610000Y-111022240D01*
X100726525Y-111196632D01*
X100933368Y-111403475D01*
X101176589Y-111565990D01*
X101446842Y-111677932D01*
X101733740Y-111735000D01*
X102026260Y-111735000D01*
X102313158Y-111677932D01*
X102583411Y-111565990D01*
X102826632Y-111403475D01*
X103033475Y-111196632D01*
X103155195Y-111014466D01*
X103224822Y-111131355D01*
X103419731Y-111347588D01*
X103653080Y-111521641D01*
X103915901Y-111646825D01*
X104063110Y-111691476D01*
X104293000Y-111570155D01*
X104293000Y-110377000D01*
X104273000Y-110377000D01*
X104273000Y-110123000D01*
X104293000Y-110123000D01*
X104293000Y-110103000D01*
X104547000Y-110103000D01*
X104547000Y-110123000D01*
X104567000Y-110123000D01*
X104567000Y-110377000D01*
X104547000Y-110377000D01*
X104547000Y-111570155D01*
X104776890Y-111691476D01*
X104924099Y-111646825D01*
X105186920Y-111521641D01*
X105420269Y-111347588D01*
X105615178Y-111131355D01*
X105684805Y-111014466D01*
X105806525Y-111196632D01*
X106013368Y-111403475D01*
X106256589Y-111565990D01*
X106526842Y-111677932D01*
X106813740Y-111735000D01*
X107106260Y-111735000D01*
X107393158Y-111677932D01*
X107407887Y-111671831D01*
X107421892Y-111717999D01*
X107429455Y-111742932D01*
X107500027Y-111874962D01*
X107523036Y-111902998D01*
X107595000Y-111990687D01*
X107624004Y-112014490D01*
X109620516Y-114011003D01*
X109644314Y-114040001D01*
X109760039Y-114134974D01*
X109892068Y-114205546D01*
X110035276Y-114248987D01*
X110090226Y-114303937D01*
X110259744Y-114417205D01*
X110448102Y-114495226D01*
X110648061Y-114535000D01*
X110851939Y-114535000D01*
X111051898Y-114495226D01*
X111240256Y-114417205D01*
X111409774Y-114303937D01*
X111553937Y-114159774D01*
X111667205Y-113990256D01*
X111745226Y-113801898D01*
X111785000Y-113601939D01*
X111785000Y-113398061D01*
X111745226Y-113198102D01*
X111667205Y-113009744D01*
X111553937Y-112840226D01*
X111409774Y-112696063D01*
X111240256Y-112582795D01*
X111051898Y-112504774D01*
X110851939Y-112465000D01*
X110648061Y-112465000D01*
X110448102Y-112504774D01*
X110317845Y-112558728D01*
X109497188Y-111738072D01*
X110350000Y-111738072D01*
X110474482Y-111725812D01*
X110594180Y-111689502D01*
X110704494Y-111630537D01*
X110801185Y-111551185D01*
X110880537Y-111454494D01*
X110939502Y-111344180D01*
X110975812Y-111224482D01*
X110988072Y-111100000D01*
X110988072Y-111062873D01*
X111990001Y-112064803D01*
X111990000Y-119296289D01*
X111946063Y-119340226D01*
X111832795Y-119509744D01*
X111754774Y-119698102D01*
X111715000Y-119898061D01*
X111715000Y-120101939D01*
X111754774Y-120301898D01*
X111832795Y-120490256D01*
X111946063Y-120659774D01*
X112090226Y-120803937D01*
X112259744Y-120917205D01*
X112448102Y-120995226D01*
X112648061Y-121035000D01*
X112851939Y-121035000D01*
X113051898Y-120995226D01*
X113240256Y-120917205D01*
X113409774Y-120803937D01*
X113490001Y-120723710D01*
X113490000Y-160962678D01*
X113486324Y-161000000D01*
X113490000Y-161037322D01*
X113490000Y-161037332D01*
X113500997Y-161148985D01*
X113530158Y-161245116D01*
X113544454Y-161292246D01*
X113615026Y-161424276D01*
X113654871Y-161472826D01*
X113709999Y-161540001D01*
X113739002Y-161563803D01*
X114476201Y-162301002D01*
X114499999Y-162330001D01*
X114615724Y-162424974D01*
X114747753Y-162495546D01*
X114891014Y-162539003D01*
X115002667Y-162550000D01*
X115002675Y-162550000D01*
X115040000Y-162553676D01*
X115077325Y-162550000D01*
X115827659Y-162550000D01*
X115914880Y-162680535D01*
X116109465Y-162875120D01*
X116338273Y-163028005D01*
X116409943Y-163057692D01*
X116396977Y-163062364D01*
X116281020Y-163124344D01*
X116214040Y-163364435D01*
X117000000Y-164150395D01*
X117785960Y-163364435D01*
X117718980Y-163124344D01*
X117583240Y-163060515D01*
X117661727Y-163028005D01*
X117890535Y-162875120D01*
X118085120Y-162680535D01*
X118238005Y-162451727D01*
X118343314Y-162197490D01*
X118397000Y-161927592D01*
X118397000Y-161652408D01*
X118343314Y-161382510D01*
X118238005Y-161128273D01*
X118085120Y-160899465D01*
X117890535Y-160704880D01*
X117661727Y-160551995D01*
X117584485Y-160520000D01*
X117661727Y-160488005D01*
X117890535Y-160335120D01*
X118085120Y-160140535D01*
X118238005Y-159911727D01*
X118343314Y-159657490D01*
X118397000Y-159387592D01*
X118397000Y-159112408D01*
X118343314Y-158842510D01*
X118238005Y-158588273D01*
X118085120Y-158359465D01*
X117890535Y-158164880D01*
X117661727Y-158011995D01*
X117584485Y-157980000D01*
X117661727Y-157948005D01*
X117890535Y-157795120D01*
X118085120Y-157600535D01*
X118238005Y-157371727D01*
X118343314Y-157117490D01*
X118397000Y-156847592D01*
X118397000Y-156572408D01*
X118343314Y-156302510D01*
X118238005Y-156048273D01*
X118085120Y-155819465D01*
X117890535Y-155624880D01*
X117661727Y-155471995D01*
X117407490Y-155366686D01*
X117137592Y-155313000D01*
X116862408Y-155313000D01*
X116592510Y-155366686D01*
X116338273Y-155471995D01*
X116109465Y-155624880D01*
X115914880Y-155819465D01*
X115761995Y-156048273D01*
X115656686Y-156302510D01*
X115603000Y-156572408D01*
X115603000Y-156847592D01*
X115656686Y-157117490D01*
X115761995Y-157371727D01*
X115914880Y-157600535D01*
X116109465Y-157795120D01*
X116338273Y-157948005D01*
X116415515Y-157980000D01*
X116338273Y-158011995D01*
X116109465Y-158164880D01*
X115914880Y-158359465D01*
X115761995Y-158588273D01*
X115656686Y-158842510D01*
X115603000Y-159112408D01*
X115603000Y-159387592D01*
X115656686Y-159657490D01*
X115761995Y-159911727D01*
X115914880Y-160140535D01*
X116109465Y-160335120D01*
X116338273Y-160488005D01*
X116415515Y-160520000D01*
X116338273Y-160551995D01*
X116109465Y-160704880D01*
X115914880Y-160899465D01*
X115827659Y-161030000D01*
X115354802Y-161030000D01*
X115010000Y-160685199D01*
X115010000Y-153325000D01*
X118686928Y-153325000D01*
X118686928Y-154675000D01*
X118699188Y-154799482D01*
X118735498Y-154919180D01*
X118794463Y-155029494D01*
X118873815Y-155126185D01*
X118970506Y-155205537D01*
X119080820Y-155264502D01*
X119200518Y-155300812D01*
X119325000Y-155313072D01*
X120675000Y-155313072D01*
X120799482Y-155300812D01*
X120919180Y-155264502D01*
X121029494Y-155205537D01*
X121126185Y-155126185D01*
X121197487Y-155039303D01*
X121379482Y-155160907D01*
X121617887Y-155259658D01*
X121870976Y-155310000D01*
X122129024Y-155310000D01*
X122382113Y-155259658D01*
X122620518Y-155160907D01*
X122835077Y-155017544D01*
X123000000Y-154852621D01*
X123164923Y-155017544D01*
X123379482Y-155160907D01*
X123617887Y-155259658D01*
X123870976Y-155310000D01*
X124129024Y-155310000D01*
X124382113Y-155259658D01*
X124620518Y-155160907D01*
X124835077Y-155017544D01*
X125017544Y-154835077D01*
X125160907Y-154620518D01*
X125259658Y-154382113D01*
X125310000Y-154129024D01*
X125310000Y-153870976D01*
X125259658Y-153617887D01*
X125160907Y-153379482D01*
X125017544Y-153164923D01*
X124852621Y-153000000D01*
X125017544Y-152835077D01*
X125160907Y-152620518D01*
X125259658Y-152382113D01*
X125310000Y-152129024D01*
X125310000Y-151870976D01*
X125259658Y-151617887D01*
X125160907Y-151379482D01*
X125017544Y-151164923D01*
X124835077Y-150982456D01*
X124620518Y-150839093D01*
X124382113Y-150740342D01*
X124129024Y-150690000D01*
X123870976Y-150690000D01*
X123617887Y-150740342D01*
X123379482Y-150839093D01*
X123164923Y-150982456D01*
X122993319Y-151154060D01*
X122871227Y-151021697D01*
X122663629Y-150870527D01*
X122430528Y-150762762D01*
X122329400Y-150732090D01*
X122127000Y-150855776D01*
X122127000Y-151873000D01*
X122147000Y-151873000D01*
X122147000Y-152127000D01*
X122127000Y-152127000D01*
X122127000Y-152147000D01*
X121873000Y-152147000D01*
X121873000Y-152127000D01*
X121853000Y-152127000D01*
X121853000Y-151873000D01*
X121873000Y-151873000D01*
X121873000Y-150855776D01*
X121670600Y-150732090D01*
X121569472Y-150762762D01*
X121336371Y-150870527D01*
X121128773Y-151021697D01*
X121006681Y-151154060D01*
X120835077Y-150982456D01*
X120620518Y-150839093D01*
X120382113Y-150740342D01*
X120129024Y-150690000D01*
X119870976Y-150690000D01*
X119617887Y-150740342D01*
X119379482Y-150839093D01*
X119164923Y-150982456D01*
X118982456Y-151164923D01*
X118839093Y-151379482D01*
X118740342Y-151617887D01*
X118690000Y-151870976D01*
X118690000Y-152129024D01*
X118740342Y-152382113D01*
X118839093Y-152620518D01*
X118960697Y-152802513D01*
X118873815Y-152873815D01*
X118794463Y-152970506D01*
X118735498Y-153080820D01*
X118699188Y-153200518D01*
X118686928Y-153325000D01*
X115010000Y-153325000D01*
X115010000Y-133712408D01*
X115603000Y-133712408D01*
X115603000Y-133987592D01*
X115656686Y-134257490D01*
X115761995Y-134511727D01*
X115914880Y-134740535D01*
X116109465Y-134935120D01*
X116338273Y-135088005D01*
X116415515Y-135120000D01*
X116338273Y-135151995D01*
X116109465Y-135304880D01*
X115914880Y-135499465D01*
X115761995Y-135728273D01*
X115656686Y-135982510D01*
X115603000Y-136252408D01*
X115603000Y-136527592D01*
X115656686Y-136797490D01*
X115761995Y-137051727D01*
X115914880Y-137280535D01*
X116109465Y-137475120D01*
X116338273Y-137628005D01*
X116415515Y-137660000D01*
X116338273Y-137691995D01*
X116109465Y-137844880D01*
X115914880Y-138039465D01*
X115761995Y-138268273D01*
X115656686Y-138522510D01*
X115603000Y-138792408D01*
X115603000Y-139067592D01*
X115656686Y-139337490D01*
X115761995Y-139591727D01*
X115914880Y-139820535D01*
X116109465Y-140015120D01*
X116338273Y-140168005D01*
X116415515Y-140200000D01*
X116338273Y-140231995D01*
X116109465Y-140384880D01*
X115914880Y-140579465D01*
X115761995Y-140808273D01*
X115656686Y-141062510D01*
X115603000Y-141332408D01*
X115603000Y-141607592D01*
X115656686Y-141877490D01*
X115761995Y-142131727D01*
X115914880Y-142360535D01*
X116109465Y-142555120D01*
X116338273Y-142708005D01*
X116415515Y-142740000D01*
X116338273Y-142771995D01*
X116109465Y-142924880D01*
X115914880Y-143119465D01*
X115761995Y-143348273D01*
X115656686Y-143602510D01*
X115603000Y-143872408D01*
X115603000Y-144147592D01*
X115656686Y-144417490D01*
X115761995Y-144671727D01*
X115914880Y-144900535D01*
X116109465Y-145095120D01*
X116338273Y-145248005D01*
X116415515Y-145280000D01*
X116338273Y-145311995D01*
X116109465Y-145464880D01*
X115914880Y-145659465D01*
X115761995Y-145888273D01*
X115656686Y-146142510D01*
X115603000Y-146412408D01*
X115603000Y-146687592D01*
X115656686Y-146957490D01*
X115761995Y-147211727D01*
X115914880Y-147440535D01*
X116109465Y-147635120D01*
X116338273Y-147788005D01*
X116415515Y-147820000D01*
X116338273Y-147851995D01*
X116109465Y-148004880D01*
X115914880Y-148199465D01*
X115761995Y-148428273D01*
X115656686Y-148682510D01*
X115603000Y-148952408D01*
X115603000Y-149227592D01*
X115656686Y-149497490D01*
X115761995Y-149751727D01*
X115914880Y-149980535D01*
X116109465Y-150175120D01*
X116338273Y-150328005D01*
X116592510Y-150433314D01*
X116862408Y-150487000D01*
X117137592Y-150487000D01*
X117407490Y-150433314D01*
X117661727Y-150328005D01*
X117890535Y-150175120D01*
X118085120Y-149980535D01*
X118238005Y-149751727D01*
X118343314Y-149497490D01*
X118397000Y-149227592D01*
X118397000Y-148952408D01*
X118343314Y-148682510D01*
X118238005Y-148428273D01*
X118085120Y-148199465D01*
X117890535Y-148004880D01*
X117661727Y-147851995D01*
X117584485Y-147820000D01*
X117661727Y-147788005D01*
X117890535Y-147635120D01*
X118085120Y-147440535D01*
X118238005Y-147211727D01*
X118343314Y-146957490D01*
X118397000Y-146687592D01*
X118397000Y-146412408D01*
X118343314Y-146142510D01*
X118238005Y-145888273D01*
X118085120Y-145659465D01*
X117890535Y-145464880D01*
X117661727Y-145311995D01*
X117584485Y-145280000D01*
X117661727Y-145248005D01*
X117890535Y-145095120D01*
X118085120Y-144900535D01*
X118238005Y-144671727D01*
X118343314Y-144417490D01*
X118397000Y-144147592D01*
X118397000Y-143872408D01*
X118343314Y-143602510D01*
X118238005Y-143348273D01*
X118085120Y-143119465D01*
X117890535Y-142924880D01*
X117661727Y-142771995D01*
X117584485Y-142740000D01*
X117661727Y-142708005D01*
X117890535Y-142555120D01*
X118085120Y-142360535D01*
X118238005Y-142131727D01*
X118343314Y-141877490D01*
X118397000Y-141607592D01*
X118397000Y-141332408D01*
X118343314Y-141062510D01*
X118238005Y-140808273D01*
X118085120Y-140579465D01*
X117890535Y-140384880D01*
X117661727Y-140231995D01*
X117584485Y-140200000D01*
X117661727Y-140168005D01*
X117890535Y-140015120D01*
X118085120Y-139820535D01*
X118238005Y-139591727D01*
X118343314Y-139337490D01*
X118397000Y-139067592D01*
X118397000Y-138792408D01*
X118343314Y-138522510D01*
X118238005Y-138268273D01*
X118085120Y-138039465D01*
X117890535Y-137844880D01*
X117661727Y-137691995D01*
X117584485Y-137660000D01*
X117661727Y-137628005D01*
X117890535Y-137475120D01*
X118085120Y-137280535D01*
X118238005Y-137051727D01*
X118343314Y-136797490D01*
X118397000Y-136527592D01*
X118397000Y-136252408D01*
X118343314Y-135982510D01*
X118238005Y-135728273D01*
X118085120Y-135499465D01*
X117890535Y-135304880D01*
X117661727Y-135151995D01*
X117584485Y-135120000D01*
X117661727Y-135088005D01*
X117890535Y-134935120D01*
X118085120Y-134740535D01*
X118238005Y-134511727D01*
X118343314Y-134257490D01*
X118397000Y-133987592D01*
X118397000Y-133712408D01*
X118343314Y-133442510D01*
X118238005Y-133188273D01*
X118085120Y-132959465D01*
X117890535Y-132764880D01*
X117661727Y-132611995D01*
X117590057Y-132582308D01*
X117603023Y-132577636D01*
X117718980Y-132515656D01*
X117785960Y-132275565D01*
X117000000Y-131489605D01*
X116214040Y-132275565D01*
X116281020Y-132515656D01*
X116416760Y-132579485D01*
X116338273Y-132611995D01*
X116109465Y-132764880D01*
X115914880Y-132959465D01*
X115761995Y-133188273D01*
X115656686Y-133442510D01*
X115603000Y-133712408D01*
X115010000Y-133712408D01*
X115010000Y-131382017D01*
X115598090Y-131382017D01*
X115639078Y-131654133D01*
X115732364Y-131913023D01*
X115794344Y-132028980D01*
X116034435Y-132095960D01*
X116820395Y-131310000D01*
X117179605Y-131310000D01*
X117965565Y-132095960D01*
X118205656Y-132028980D01*
X118322756Y-131779952D01*
X118389023Y-131512865D01*
X118401910Y-131237983D01*
X118360922Y-130965867D01*
X118267636Y-130706977D01*
X118205656Y-130591020D01*
X117965565Y-130524040D01*
X117179605Y-131310000D01*
X116820395Y-131310000D01*
X116034435Y-130524040D01*
X115794344Y-130591020D01*
X115677244Y-130840048D01*
X115610977Y-131107135D01*
X115598090Y-131382017D01*
X115010000Y-131382017D01*
X115010000Y-110852408D01*
X115603000Y-110852408D01*
X115603000Y-111127592D01*
X115656686Y-111397490D01*
X115761995Y-111651727D01*
X115914880Y-111880535D01*
X116109465Y-112075120D01*
X116338273Y-112228005D01*
X116415515Y-112260000D01*
X116338273Y-112291995D01*
X116109465Y-112444880D01*
X115914880Y-112639465D01*
X115761995Y-112868273D01*
X115656686Y-113122510D01*
X115603000Y-113392408D01*
X115603000Y-113667592D01*
X115656686Y-113937490D01*
X115761995Y-114191727D01*
X115914880Y-114420535D01*
X116109465Y-114615120D01*
X116338273Y-114768005D01*
X116415515Y-114800000D01*
X116338273Y-114831995D01*
X116109465Y-114984880D01*
X115914880Y-115179465D01*
X115761995Y-115408273D01*
X115656686Y-115662510D01*
X115603000Y-115932408D01*
X115603000Y-116207592D01*
X115656686Y-116477490D01*
X115761995Y-116731727D01*
X115914880Y-116960535D01*
X116109465Y-117155120D01*
X116338273Y-117308005D01*
X116415515Y-117340000D01*
X116338273Y-117371995D01*
X116109465Y-117524880D01*
X115914880Y-117719465D01*
X115761995Y-117948273D01*
X115656686Y-118202510D01*
X115603000Y-118472408D01*
X115603000Y-118747592D01*
X115656686Y-119017490D01*
X115761995Y-119271727D01*
X115914880Y-119500535D01*
X116109465Y-119695120D01*
X116338273Y-119848005D01*
X116415515Y-119880000D01*
X116338273Y-119911995D01*
X116109465Y-120064880D01*
X115914880Y-120259465D01*
X115761995Y-120488273D01*
X115656686Y-120742510D01*
X115603000Y-121012408D01*
X115603000Y-121287592D01*
X115656686Y-121557490D01*
X115761995Y-121811727D01*
X115914880Y-122040535D01*
X116109465Y-122235120D01*
X116338273Y-122388005D01*
X116415515Y-122420000D01*
X116338273Y-122451995D01*
X116109465Y-122604880D01*
X115914880Y-122799465D01*
X115761995Y-123028273D01*
X115656686Y-123282510D01*
X115603000Y-123552408D01*
X115603000Y-123827592D01*
X115656686Y-124097490D01*
X115761995Y-124351727D01*
X115914880Y-124580535D01*
X116109465Y-124775120D01*
X116338273Y-124928005D01*
X116415515Y-124960000D01*
X116338273Y-124991995D01*
X116109465Y-125144880D01*
X115914880Y-125339465D01*
X115761995Y-125568273D01*
X115656686Y-125822510D01*
X115603000Y-126092408D01*
X115603000Y-126367592D01*
X115656686Y-126637490D01*
X115761995Y-126891727D01*
X115914880Y-127120535D01*
X116109465Y-127315120D01*
X116338273Y-127468005D01*
X116415515Y-127500000D01*
X116338273Y-127531995D01*
X116109465Y-127684880D01*
X115914880Y-127879465D01*
X115761995Y-128108273D01*
X115656686Y-128362510D01*
X115603000Y-128632408D01*
X115603000Y-128907592D01*
X115656686Y-129177490D01*
X115761995Y-129431727D01*
X115914880Y-129660535D01*
X116109465Y-129855120D01*
X116338273Y-130008005D01*
X116409943Y-130037692D01*
X116396977Y-130042364D01*
X116281020Y-130104344D01*
X116214040Y-130344435D01*
X117000000Y-131130395D01*
X117785960Y-130344435D01*
X117718980Y-130104344D01*
X117583240Y-130040515D01*
X117661727Y-130008005D01*
X117890535Y-129855120D01*
X118085120Y-129660535D01*
X118238005Y-129431727D01*
X118343314Y-129177490D01*
X118397000Y-128907592D01*
X118397000Y-128632408D01*
X118343314Y-128362510D01*
X118238005Y-128108273D01*
X118085120Y-127879465D01*
X117890535Y-127684880D01*
X117661727Y-127531995D01*
X117584485Y-127500000D01*
X117661727Y-127468005D01*
X117890535Y-127315120D01*
X118085120Y-127120535D01*
X118238005Y-126891727D01*
X118343314Y-126637490D01*
X118397000Y-126367592D01*
X118397000Y-126092408D01*
X118343314Y-125822510D01*
X118238005Y-125568273D01*
X118085120Y-125339465D01*
X117890535Y-125144880D01*
X117661727Y-124991995D01*
X117584485Y-124960000D01*
X117661727Y-124928005D01*
X117890535Y-124775120D01*
X118085120Y-124580535D01*
X118238005Y-124351727D01*
X118343314Y-124097490D01*
X118397000Y-123827592D01*
X118397000Y-123552408D01*
X118343314Y-123282510D01*
X118238005Y-123028273D01*
X118085120Y-122799465D01*
X117890535Y-122604880D01*
X117661727Y-122451995D01*
X117584485Y-122420000D01*
X117661727Y-122388005D01*
X117890535Y-122235120D01*
X118085120Y-122040535D01*
X118238005Y-121811727D01*
X118343314Y-121557490D01*
X118397000Y-121287592D01*
X118397000Y-121012408D01*
X118343314Y-120742510D01*
X118238005Y-120488273D01*
X118085120Y-120259465D01*
X117890535Y-120064880D01*
X117661727Y-119911995D01*
X117584485Y-119880000D01*
X117661727Y-119848005D01*
X117890535Y-119695120D01*
X118085120Y-119500535D01*
X118238005Y-119271727D01*
X118343314Y-119017490D01*
X118397000Y-118747592D01*
X118397000Y-118472408D01*
X118343314Y-118202510D01*
X118238005Y-117948273D01*
X118085120Y-117719465D01*
X117890535Y-117524880D01*
X117661727Y-117371995D01*
X117584485Y-117340000D01*
X117661727Y-117308005D01*
X117890535Y-117155120D01*
X118085120Y-116960535D01*
X118238005Y-116731727D01*
X118343314Y-116477490D01*
X118397000Y-116207592D01*
X118397000Y-115932408D01*
X118343314Y-115662510D01*
X118238005Y-115408273D01*
X118085120Y-115179465D01*
X117890535Y-114984880D01*
X117661727Y-114831995D01*
X117584485Y-114800000D01*
X117661727Y-114768005D01*
X117890535Y-114615120D01*
X118085120Y-114420535D01*
X118238005Y-114191727D01*
X118343314Y-113937490D01*
X118397000Y-113667592D01*
X118397000Y-113392408D01*
X118343314Y-113122510D01*
X118238005Y-112868273D01*
X118085120Y-112639465D01*
X117890535Y-112444880D01*
X117661727Y-112291995D01*
X117584485Y-112260000D01*
X117661727Y-112228005D01*
X117890535Y-112075120D01*
X118085120Y-111880535D01*
X118238005Y-111651727D01*
X118343314Y-111397490D01*
X118397000Y-111127592D01*
X118397000Y-110852408D01*
X118343314Y-110582510D01*
X118238005Y-110328273D01*
X118085120Y-110099465D01*
X117890535Y-109904880D01*
X117661727Y-109751995D01*
X117407490Y-109646686D01*
X117137592Y-109593000D01*
X116862408Y-109593000D01*
X116592510Y-109646686D01*
X116338273Y-109751995D01*
X116109465Y-109904880D01*
X115914880Y-110099465D01*
X115761995Y-110328273D01*
X115656686Y-110582510D01*
X115603000Y-110852408D01*
X115010000Y-110852408D01*
X115010000Y-107714799D01*
X115464800Y-107260000D01*
X138315737Y-107260000D01*
X138268519Y-107393109D01*
X138389186Y-107623000D01*
X139583000Y-107623000D01*
X139583000Y-107603000D01*
X139837000Y-107603000D01*
X139837000Y-107623000D01*
X139857000Y-107623000D01*
X139857000Y-107877000D01*
X139837000Y-107877000D01*
X139837000Y-107897000D01*
X139583000Y-107897000D01*
X139583000Y-107877000D01*
X138389186Y-107877000D01*
X138268519Y-108106891D01*
X138289132Y-108165001D01*
X138112321Y-108165001D01*
X138074998Y-108161325D01*
X138037675Y-108165001D01*
X138037666Y-108165001D01*
X137926013Y-108175998D01*
X137782752Y-108219455D01*
X137650722Y-108290027D01*
X137588305Y-108341252D01*
X137534998Y-108385000D01*
X137511200Y-108413998D01*
X135710199Y-110215000D01*
X135648061Y-110215000D01*
X135448102Y-110254774D01*
X135259744Y-110332795D01*
X135090226Y-110446063D01*
X134946063Y-110590226D01*
X134832795Y-110759744D01*
X134754774Y-110948102D01*
X134715000Y-111148061D01*
X134715000Y-111351939D01*
X134754774Y-111551898D01*
X134809078Y-111682999D01*
X133457110Y-111682999D01*
X133478005Y-111651727D01*
X133583314Y-111397490D01*
X133637000Y-111127592D01*
X133637000Y-110852408D01*
X133583314Y-110582510D01*
X133478005Y-110328273D01*
X133325120Y-110099465D01*
X133130535Y-109904880D01*
X132901727Y-109751995D01*
X132647490Y-109646686D01*
X132377592Y-109593000D01*
X132102408Y-109593000D01*
X131832510Y-109646686D01*
X131578273Y-109751995D01*
X131349465Y-109904880D01*
X131154880Y-110099465D01*
X131001995Y-110328273D01*
X130896686Y-110582510D01*
X130843000Y-110852408D01*
X130843000Y-111127592D01*
X130896686Y-111397490D01*
X131001995Y-111651727D01*
X131115743Y-111821962D01*
X131017000Y-111902998D01*
X130993202Y-111931996D01*
X129239003Y-113686196D01*
X129209999Y-113709999D01*
X129154871Y-113777174D01*
X129115026Y-113825724D01*
X129055285Y-113937490D01*
X129044454Y-113957754D01*
X129000997Y-114101015D01*
X128990000Y-114212668D01*
X128990000Y-114212678D01*
X128986324Y-114250000D01*
X128990000Y-114287322D01*
X128990001Y-160462667D01*
X128986324Y-160500000D01*
X129000998Y-160648985D01*
X129044454Y-160792246D01*
X129115026Y-160924276D01*
X129175643Y-160998137D01*
X129210000Y-161040001D01*
X129238998Y-161063799D01*
X130476205Y-162301008D01*
X130499999Y-162330001D01*
X130528992Y-162353795D01*
X130528996Y-162353799D01*
X130582543Y-162397743D01*
X130615724Y-162424974D01*
X130747753Y-162495546D01*
X130891014Y-162539003D01*
X131002667Y-162550000D01*
X131002676Y-162550000D01*
X131039999Y-162553676D01*
X131068256Y-162550893D01*
X131154880Y-162680535D01*
X131349465Y-162875120D01*
X131578273Y-163028005D01*
X131655515Y-163060000D01*
X131578273Y-163091995D01*
X131349465Y-163244880D01*
X131154880Y-163439465D01*
X131001995Y-163668273D01*
X130896686Y-163922510D01*
X130843000Y-164192408D01*
X130843000Y-164467592D01*
X130896686Y-164737490D01*
X131001995Y-164991727D01*
X131154880Y-165220535D01*
X131349465Y-165415120D01*
X131578273Y-165568005D01*
X131649943Y-165597692D01*
X131636977Y-165602364D01*
X131521020Y-165664344D01*
X131454040Y-165904435D01*
X132240000Y-166690395D01*
X133025960Y-165904435D01*
X132958980Y-165664344D01*
X132823240Y-165600515D01*
X132901727Y-165568005D01*
X133130535Y-165415120D01*
X133325120Y-165220535D01*
X133478005Y-164991727D01*
X133583314Y-164737490D01*
X133637000Y-164467592D01*
X133637000Y-164192408D01*
X133583314Y-163922510D01*
X133478005Y-163668273D01*
X133325120Y-163439465D01*
X133130535Y-163244880D01*
X132901727Y-163091995D01*
X132824485Y-163060000D01*
X132901727Y-163028005D01*
X133130535Y-162875120D01*
X133325120Y-162680535D01*
X133478005Y-162451727D01*
X133583314Y-162197490D01*
X133637000Y-161927592D01*
X133637000Y-161652408D01*
X133583314Y-161382510D01*
X133478005Y-161128273D01*
X133325120Y-160899465D01*
X133130535Y-160704880D01*
X132901727Y-160551995D01*
X132824485Y-160520000D01*
X132901727Y-160488005D01*
X133130535Y-160335120D01*
X133325120Y-160140535D01*
X133478005Y-159911727D01*
X133583314Y-159657490D01*
X133637000Y-159387592D01*
X133637000Y-159112408D01*
X133583314Y-158842510D01*
X133478005Y-158588273D01*
X133325120Y-158359465D01*
X133130535Y-158164880D01*
X132901727Y-158011995D01*
X132824485Y-157980000D01*
X132901727Y-157948005D01*
X133130535Y-157795120D01*
X133325120Y-157600535D01*
X133478005Y-157371727D01*
X133583314Y-157117490D01*
X133637000Y-156847592D01*
X133637000Y-156572408D01*
X133583314Y-156302510D01*
X133478005Y-156048273D01*
X133325120Y-155819465D01*
X133130535Y-155624880D01*
X132901727Y-155471995D01*
X132824485Y-155440000D01*
X132901727Y-155408005D01*
X133130535Y-155255120D01*
X133325120Y-155060535D01*
X133478005Y-154831727D01*
X133583314Y-154577490D01*
X133637000Y-154307592D01*
X133637000Y-154032408D01*
X133583314Y-153762510D01*
X133478005Y-153508273D01*
X133325120Y-153279465D01*
X133130535Y-153084880D01*
X132901727Y-152931995D01*
X132824485Y-152900000D01*
X132901727Y-152868005D01*
X133130535Y-152715120D01*
X133325120Y-152520535D01*
X133478005Y-152291727D01*
X133583314Y-152037490D01*
X133637000Y-151767592D01*
X133637000Y-151492408D01*
X133583314Y-151222510D01*
X133478005Y-150968273D01*
X133325120Y-150739465D01*
X133130535Y-150544880D01*
X132901727Y-150391995D01*
X132824485Y-150360000D01*
X132901727Y-150328005D01*
X133130535Y-150175120D01*
X133325120Y-149980535D01*
X133478005Y-149751727D01*
X133583314Y-149497490D01*
X133637000Y-149227592D01*
X133637000Y-148952408D01*
X133583314Y-148682510D01*
X133478005Y-148428273D01*
X133325120Y-148199465D01*
X133130535Y-148004880D01*
X132901727Y-147851995D01*
X132824485Y-147820000D01*
X132901727Y-147788005D01*
X133130535Y-147635120D01*
X133325120Y-147440535D01*
X133478005Y-147211727D01*
X133583314Y-146957490D01*
X133637000Y-146687592D01*
X133637000Y-146412408D01*
X133583314Y-146142510D01*
X133478005Y-145888273D01*
X133325120Y-145659465D01*
X133130535Y-145464880D01*
X132901727Y-145311995D01*
X132824485Y-145280000D01*
X132901727Y-145248005D01*
X133130535Y-145095120D01*
X133325120Y-144900535D01*
X133478005Y-144671727D01*
X133583314Y-144417490D01*
X133637000Y-144147592D01*
X133637000Y-143872408D01*
X133583314Y-143602510D01*
X133478005Y-143348273D01*
X133325120Y-143119465D01*
X133130535Y-142924880D01*
X132901727Y-142771995D01*
X132824485Y-142740000D01*
X132901727Y-142708005D01*
X133130535Y-142555120D01*
X133325120Y-142360535D01*
X133478005Y-142131727D01*
X133583314Y-141877490D01*
X133637000Y-141607592D01*
X133637000Y-141332408D01*
X133583314Y-141062510D01*
X133478005Y-140808273D01*
X133325120Y-140579465D01*
X133130535Y-140384880D01*
X132901727Y-140231995D01*
X132824485Y-140200000D01*
X132901727Y-140168005D01*
X133130535Y-140015120D01*
X133325120Y-139820535D01*
X133478005Y-139591727D01*
X133583314Y-139337490D01*
X133637000Y-139067592D01*
X133637000Y-138792408D01*
X133583314Y-138522510D01*
X133478005Y-138268273D01*
X133325120Y-138039465D01*
X133130535Y-137844880D01*
X132901727Y-137691995D01*
X132824485Y-137660000D01*
X132901727Y-137628005D01*
X133130535Y-137475120D01*
X133325120Y-137280535D01*
X133478005Y-137051727D01*
X133583314Y-136797490D01*
X133637000Y-136527592D01*
X133637000Y-136252408D01*
X133583314Y-135982510D01*
X133478005Y-135728273D01*
X133325120Y-135499465D01*
X133130535Y-135304880D01*
X132901727Y-135151995D01*
X132824485Y-135120000D01*
X132901727Y-135088005D01*
X133130535Y-134935120D01*
X133325120Y-134740535D01*
X133478005Y-134511727D01*
X133583314Y-134257490D01*
X133637000Y-133987592D01*
X133637000Y-133712408D01*
X133583314Y-133442510D01*
X133478005Y-133188273D01*
X133325120Y-132959465D01*
X133130535Y-132764880D01*
X132901727Y-132611995D01*
X132824485Y-132580000D01*
X132901727Y-132548005D01*
X133130535Y-132395120D01*
X133325120Y-132200535D01*
X133478005Y-131971727D01*
X133583314Y-131717490D01*
X133637000Y-131447592D01*
X133637000Y-131172408D01*
X133583314Y-130902510D01*
X133478005Y-130648273D01*
X133325120Y-130419465D01*
X133130535Y-130224880D01*
X132901727Y-130071995D01*
X132824485Y-130040000D01*
X132901727Y-130008005D01*
X133130535Y-129855120D01*
X133325120Y-129660535D01*
X133478005Y-129431727D01*
X133583314Y-129177490D01*
X133637000Y-128907592D01*
X133637000Y-128632408D01*
X133583314Y-128362510D01*
X133478005Y-128108273D01*
X133325120Y-127879465D01*
X133130535Y-127684880D01*
X132901727Y-127531995D01*
X132824485Y-127500000D01*
X132901727Y-127468005D01*
X133130535Y-127315120D01*
X133325120Y-127120535D01*
X133478005Y-126891727D01*
X133583314Y-126637490D01*
X133637000Y-126367592D01*
X133637000Y-126092408D01*
X133583314Y-125822510D01*
X133478005Y-125568273D01*
X133325120Y-125339465D01*
X133130535Y-125144880D01*
X132901727Y-124991995D01*
X132824485Y-124960000D01*
X132901727Y-124928005D01*
X133130535Y-124775120D01*
X133325120Y-124580535D01*
X133412341Y-124450000D01*
X134272678Y-124450000D01*
X134310000Y-124453676D01*
X134347322Y-124450000D01*
X134347333Y-124450000D01*
X134458986Y-124439003D01*
X134602247Y-124395546D01*
X134734276Y-124324974D01*
X134850001Y-124230001D01*
X134873804Y-124200998D01*
X135761003Y-123313799D01*
X135790001Y-123290001D01*
X135873000Y-123188866D01*
X135873000Y-168840000D01*
X93660000Y-168840000D01*
X93660000Y-166732408D01*
X115603000Y-166732408D01*
X115603000Y-167007592D01*
X115656686Y-167277490D01*
X115761995Y-167531727D01*
X115914880Y-167760535D01*
X116109465Y-167955120D01*
X116338273Y-168108005D01*
X116592510Y-168213314D01*
X116862408Y-168267000D01*
X117137592Y-168267000D01*
X117407490Y-168213314D01*
X117661727Y-168108005D01*
X117890535Y-167955120D01*
X118010090Y-167835565D01*
X131454040Y-167835565D01*
X131521020Y-168075656D01*
X131770048Y-168192756D01*
X132037135Y-168259023D01*
X132312017Y-168271910D01*
X132584133Y-168230922D01*
X132843023Y-168137636D01*
X132958980Y-168075656D01*
X133025960Y-167835565D01*
X132240000Y-167049605D01*
X131454040Y-167835565D01*
X118010090Y-167835565D01*
X118085120Y-167760535D01*
X118238005Y-167531727D01*
X118343314Y-167277490D01*
X118397000Y-167007592D01*
X118397000Y-166942017D01*
X130838090Y-166942017D01*
X130879078Y-167214133D01*
X130972364Y-167473023D01*
X131034344Y-167588980D01*
X131274435Y-167655960D01*
X132060395Y-166870000D01*
X132419605Y-166870000D01*
X133205565Y-167655960D01*
X133445656Y-167588980D01*
X133562756Y-167339952D01*
X133629023Y-167072865D01*
X133641910Y-166797983D01*
X133600922Y-166525867D01*
X133507636Y-166266977D01*
X133445656Y-166151020D01*
X133205565Y-166084040D01*
X132419605Y-166870000D01*
X132060395Y-166870000D01*
X131274435Y-166084040D01*
X131034344Y-166151020D01*
X130917244Y-166400048D01*
X130850977Y-166667135D01*
X130838090Y-166942017D01*
X118397000Y-166942017D01*
X118397000Y-166732408D01*
X118343314Y-166462510D01*
X118238005Y-166208273D01*
X118085120Y-165979465D01*
X117890535Y-165784880D01*
X117661727Y-165631995D01*
X117590057Y-165602308D01*
X117603023Y-165597636D01*
X117718980Y-165535656D01*
X117785960Y-165295565D01*
X117000000Y-164509605D01*
X116214040Y-165295565D01*
X116281020Y-165535656D01*
X116416760Y-165599485D01*
X116338273Y-165631995D01*
X116109465Y-165784880D01*
X115914880Y-165979465D01*
X115761995Y-166208273D01*
X115656686Y-166462510D01*
X115603000Y-166732408D01*
X93660000Y-166732408D01*
X93660000Y-164424636D01*
X96324969Y-164424636D01*
X96393489Y-164666023D01*
X96644683Y-164784393D01*
X96914143Y-164851483D01*
X97191514Y-164864714D01*
X97466137Y-164823579D01*
X97727458Y-164729658D01*
X97846511Y-164666023D01*
X97915031Y-164424636D01*
X97120000Y-163629605D01*
X96324969Y-164424636D01*
X93660000Y-164424636D01*
X93660000Y-163521514D01*
X95705286Y-163521514D01*
X95746421Y-163796137D01*
X95840342Y-164057458D01*
X95903977Y-164176511D01*
X96145364Y-164245031D01*
X96940395Y-163450000D01*
X97299605Y-163450000D01*
X98094636Y-164245031D01*
X98336023Y-164176511D01*
X98454393Y-163925317D01*
X98521483Y-163655857D01*
X98534714Y-163378486D01*
X98521634Y-163291157D01*
X105820300Y-163291157D01*
X105820300Y-163568843D01*
X105874474Y-163841194D01*
X105980740Y-164097743D01*
X106135014Y-164328631D01*
X106331369Y-164524986D01*
X106562257Y-164679260D01*
X106818806Y-164785526D01*
X107091157Y-164839700D01*
X107368843Y-164839700D01*
X107641194Y-164785526D01*
X107897743Y-164679260D01*
X108128631Y-164524986D01*
X108251600Y-164402017D01*
X115598090Y-164402017D01*
X115639078Y-164674133D01*
X115732364Y-164933023D01*
X115794344Y-165048980D01*
X116034435Y-165115960D01*
X116820395Y-164330000D01*
X117179605Y-164330000D01*
X117965565Y-165115960D01*
X118205656Y-165048980D01*
X118322756Y-164799952D01*
X118389023Y-164532865D01*
X118401910Y-164257983D01*
X118360922Y-163985867D01*
X118267636Y-163726977D01*
X118205656Y-163611020D01*
X117965565Y-163544040D01*
X117179605Y-164330000D01*
X116820395Y-164330000D01*
X116034435Y-163544040D01*
X115794344Y-163611020D01*
X115677244Y-163860048D01*
X115610977Y-164127135D01*
X115598090Y-164402017D01*
X108251600Y-164402017D01*
X108324986Y-164328631D01*
X108479260Y-164097743D01*
X108585526Y-163841194D01*
X108639700Y-163568843D01*
X108639700Y-163291157D01*
X108585526Y-163018806D01*
X108479260Y-162762257D01*
X108324986Y-162531369D01*
X108128631Y-162335014D01*
X107897743Y-162180740D01*
X107641194Y-162074474D01*
X107368843Y-162020300D01*
X107091157Y-162020300D01*
X106818806Y-162074474D01*
X106562257Y-162180740D01*
X106331369Y-162335014D01*
X106135014Y-162531369D01*
X105980740Y-162762257D01*
X105874474Y-163018806D01*
X105820300Y-163291157D01*
X98521634Y-163291157D01*
X98493579Y-163103863D01*
X98399658Y-162842542D01*
X98336023Y-162723489D01*
X98094636Y-162654969D01*
X97299605Y-163450000D01*
X96940395Y-163450000D01*
X96145364Y-162654969D01*
X95903977Y-162723489D01*
X95785607Y-162974683D01*
X95718517Y-163244143D01*
X95705286Y-163521514D01*
X93660000Y-163521514D01*
X93660000Y-162475364D01*
X96324969Y-162475364D01*
X97120000Y-163270395D01*
X97915031Y-162475364D01*
X97846511Y-162233977D01*
X97595317Y-162115607D01*
X97325857Y-162048517D01*
X97048486Y-162035286D01*
X96773863Y-162076421D01*
X96512542Y-162170342D01*
X96393489Y-162233977D01*
X96324969Y-162475364D01*
X93660000Y-162475364D01*
X93660000Y-155153638D01*
X93880902Y-155153638D01*
X93880902Y-155486362D01*
X93945813Y-155812692D01*
X94073141Y-156120089D01*
X94257992Y-156396739D01*
X94493263Y-156632010D01*
X94769913Y-156816861D01*
X95077310Y-156944189D01*
X95403640Y-157009100D01*
X95615040Y-157009100D01*
X95501590Y-157178890D01*
X95312035Y-157636518D01*
X95215400Y-158122334D01*
X95215400Y-158617666D01*
X95312035Y-159103482D01*
X95501590Y-159561110D01*
X95776783Y-159972964D01*
X96127036Y-160323217D01*
X96538890Y-160598410D01*
X96996518Y-160787965D01*
X97482334Y-160884600D01*
X97977666Y-160884600D01*
X98463482Y-160787965D01*
X98710903Y-160685480D01*
X98565014Y-160831369D01*
X98410740Y-161062257D01*
X98304474Y-161318806D01*
X98250300Y-161591157D01*
X98250300Y-161868843D01*
X98304474Y-162141194D01*
X98410740Y-162397743D01*
X98565014Y-162628631D01*
X98761369Y-162824986D01*
X98992257Y-162979260D01*
X99248806Y-163085526D01*
X99521157Y-163139700D01*
X99798843Y-163139700D01*
X100071194Y-163085526D01*
X100327743Y-162979260D01*
X100558631Y-162824986D01*
X100754986Y-162628631D01*
X100909260Y-162397743D01*
X101015526Y-162141194D01*
X101069700Y-161868843D01*
X101069700Y-161591157D01*
X101015526Y-161318806D01*
X100909260Y-161062257D01*
X100754986Y-160831369D01*
X100558631Y-160635014D01*
X100327743Y-160480740D01*
X100071194Y-160374474D01*
X99798843Y-160320300D01*
X99521157Y-160320300D01*
X99259409Y-160372365D01*
X99332964Y-160323217D01*
X99683217Y-159972964D01*
X99958410Y-159561110D01*
X100147965Y-159103482D01*
X100244600Y-158617666D01*
X100244600Y-158122334D01*
X106645400Y-158122334D01*
X106645400Y-158617666D01*
X106742035Y-159103482D01*
X106931590Y-159561110D01*
X107206783Y-159972964D01*
X107557036Y-160323217D01*
X107968890Y-160598410D01*
X108426518Y-160787965D01*
X108671461Y-160836687D01*
X108520740Y-161062257D01*
X108414474Y-161318806D01*
X108360300Y-161591157D01*
X108360300Y-161868843D01*
X108414474Y-162141194D01*
X108520740Y-162397743D01*
X108675014Y-162628631D01*
X108871369Y-162824986D01*
X109102257Y-162979260D01*
X109358806Y-163085526D01*
X109631157Y-163139700D01*
X109908843Y-163139700D01*
X110181194Y-163085526D01*
X110437743Y-162979260D01*
X110668631Y-162824986D01*
X110864986Y-162628631D01*
X111019260Y-162397743D01*
X111125526Y-162141194D01*
X111179700Y-161868843D01*
X111179700Y-161591157D01*
X111125526Y-161318806D01*
X111019260Y-161062257D01*
X110864986Y-160831369D01*
X110668631Y-160635014D01*
X110482479Y-160510632D01*
X110762964Y-160323217D01*
X111113217Y-159972964D01*
X111388410Y-159561110D01*
X111577965Y-159103482D01*
X111674600Y-158617666D01*
X111674600Y-158122334D01*
X111577965Y-157636518D01*
X111388410Y-157178890D01*
X111274960Y-157009100D01*
X111486360Y-157009100D01*
X111812690Y-156944189D01*
X112120087Y-156816861D01*
X112396737Y-156632010D01*
X112632008Y-156396739D01*
X112816859Y-156120089D01*
X112944187Y-155812692D01*
X113009098Y-155486362D01*
X113009098Y-155153638D01*
X112944187Y-154827308D01*
X112816859Y-154519911D01*
X112632008Y-154243261D01*
X112396737Y-154007990D01*
X112120087Y-153823139D01*
X111812690Y-153695811D01*
X111486360Y-153630900D01*
X111153636Y-153630900D01*
X110827306Y-153695811D01*
X110519909Y-153823139D01*
X110243259Y-154007990D01*
X110007988Y-154243261D01*
X109823137Y-154519911D01*
X109695809Y-154827308D01*
X109630898Y-155153638D01*
X109630898Y-155486362D01*
X109695809Y-155812692D01*
X109740960Y-155921696D01*
X109407666Y-155855400D01*
X108912334Y-155855400D01*
X108426518Y-155952035D01*
X107968890Y-156141590D01*
X107557036Y-156416783D01*
X107206783Y-156767036D01*
X106931590Y-157178890D01*
X106742035Y-157636518D01*
X106645400Y-158122334D01*
X100244600Y-158122334D01*
X100147965Y-157636518D01*
X99958410Y-157178890D01*
X99683217Y-156767036D01*
X99332964Y-156416783D01*
X98921110Y-156141590D01*
X98463482Y-155952035D01*
X97977666Y-155855400D01*
X97482334Y-155855400D01*
X97149040Y-155921696D01*
X97194191Y-155812692D01*
X97259102Y-155486362D01*
X97259102Y-155153638D01*
X97194191Y-154827308D01*
X97066863Y-154519911D01*
X96882012Y-154243261D01*
X96646741Y-154007990D01*
X96370091Y-153823139D01*
X96062694Y-153695811D01*
X95736364Y-153630900D01*
X95403640Y-153630900D01*
X95077310Y-153695811D01*
X94769913Y-153823139D01*
X94493263Y-154007990D01*
X94257992Y-154243261D01*
X94073141Y-154519911D01*
X93945813Y-154827308D01*
X93880902Y-155153638D01*
X93660000Y-155153638D01*
X93660000Y-151868662D01*
X97666500Y-151868662D01*
X97666500Y-152131338D01*
X97717746Y-152388968D01*
X97818268Y-152631649D01*
X97964203Y-152850057D01*
X98149943Y-153035797D01*
X98368351Y-153181732D01*
X98611032Y-153282254D01*
X98868662Y-153333500D01*
X99131338Y-153333500D01*
X99388968Y-153282254D01*
X99631649Y-153181732D01*
X99850057Y-153035797D01*
X100035797Y-152850057D01*
X100181732Y-152631649D01*
X100270000Y-152418552D01*
X100358268Y-152631649D01*
X100504203Y-152850057D01*
X100689943Y-153035797D01*
X100908351Y-153181732D01*
X101151032Y-153282254D01*
X101408662Y-153333500D01*
X101671338Y-153333500D01*
X101928968Y-153282254D01*
X102171649Y-153181732D01*
X102390057Y-153035797D01*
X102575797Y-152850057D01*
X102721732Y-152631649D01*
X102810000Y-152418552D01*
X102898268Y-152631649D01*
X103044203Y-152850057D01*
X103229943Y-153035797D01*
X103448351Y-153181732D01*
X103691032Y-153282254D01*
X103948662Y-153333500D01*
X104211338Y-153333500D01*
X104468968Y-153282254D01*
X104711649Y-153181732D01*
X104930057Y-153035797D01*
X105115797Y-152850057D01*
X105261732Y-152631649D01*
X105350000Y-152418552D01*
X105438268Y-152631649D01*
X105584203Y-152850057D01*
X105769943Y-153035797D01*
X105988351Y-153181732D01*
X106231032Y-153282254D01*
X106488662Y-153333500D01*
X106751338Y-153333500D01*
X107008968Y-153282254D01*
X107251649Y-153181732D01*
X107470057Y-153035797D01*
X107655797Y-152850057D01*
X107801732Y-152631649D01*
X107902254Y-152388968D01*
X107953500Y-152131338D01*
X107953500Y-151868662D01*
X107902254Y-151611032D01*
X107801732Y-151368351D01*
X107655797Y-151149943D01*
X107470057Y-150964203D01*
X107251649Y-150818268D01*
X107008968Y-150717746D01*
X106751338Y-150666500D01*
X106488662Y-150666500D01*
X106231032Y-150717746D01*
X105988351Y-150818268D01*
X105769943Y-150964203D01*
X105584203Y-151149943D01*
X105438268Y-151368351D01*
X105350000Y-151581448D01*
X105261732Y-151368351D01*
X105115797Y-151149943D01*
X104930057Y-150964203D01*
X104711649Y-150818268D01*
X104468968Y-150717746D01*
X104211338Y-150666500D01*
X103948662Y-150666500D01*
X103691032Y-150717746D01*
X103448351Y-150818268D01*
X103229943Y-150964203D01*
X103044203Y-151149943D01*
X102898268Y-151368351D01*
X102810000Y-151581448D01*
X102721732Y-151368351D01*
X102575797Y-151149943D01*
X102390057Y-150964203D01*
X102300000Y-150904029D01*
X102300000Y-150692121D01*
X102421032Y-150742254D01*
X102678662Y-150793500D01*
X102941338Y-150793500D01*
X103198968Y-150742254D01*
X103441649Y-150641732D01*
X103660057Y-150495797D01*
X103845797Y-150310057D01*
X103991732Y-150091649D01*
X104080000Y-149878552D01*
X104168268Y-150091649D01*
X104314203Y-150310057D01*
X104499943Y-150495797D01*
X104718351Y-150641732D01*
X104961032Y-150742254D01*
X105218662Y-150793500D01*
X105481338Y-150793500D01*
X105738968Y-150742254D01*
X105981649Y-150641732D01*
X106200057Y-150495797D01*
X106385797Y-150310057D01*
X106531732Y-150091649D01*
X106620000Y-149878552D01*
X106708268Y-150091649D01*
X106854203Y-150310057D01*
X107039943Y-150495797D01*
X107258351Y-150641732D01*
X107501032Y-150742254D01*
X107758662Y-150793500D01*
X108021338Y-150793500D01*
X108278968Y-150742254D01*
X108521649Y-150641732D01*
X108740057Y-150495797D01*
X108925797Y-150310057D01*
X109071732Y-150091649D01*
X109172254Y-149848968D01*
X109223500Y-149591338D01*
X109223500Y-149328662D01*
X109172254Y-149071032D01*
X109071732Y-148828351D01*
X108925797Y-148609943D01*
X108740057Y-148424203D01*
X108521649Y-148278268D01*
X108278968Y-148177746D01*
X108021338Y-148126500D01*
X107758662Y-148126500D01*
X107501032Y-148177746D01*
X107258351Y-148278268D01*
X107039943Y-148424203D01*
X106854203Y-148609943D01*
X106708268Y-148828351D01*
X106620000Y-149041448D01*
X106531732Y-148828351D01*
X106385797Y-148609943D01*
X106200057Y-148424203D01*
X105981649Y-148278268D01*
X105738968Y-148177746D01*
X105481338Y-148126500D01*
X105218662Y-148126500D01*
X104961032Y-148177746D01*
X104718351Y-148278268D01*
X104499943Y-148424203D01*
X104314203Y-148609943D01*
X104168268Y-148828351D01*
X104080000Y-149041448D01*
X103991732Y-148828351D01*
X103845797Y-148609943D01*
X103660057Y-148424203D01*
X103441649Y-148278268D01*
X103198968Y-148177746D01*
X102941338Y-148126500D01*
X102678662Y-148126500D01*
X102421032Y-148177746D01*
X102300000Y-148227879D01*
X102300000Y-146075415D01*
X102429727Y-146021680D01*
X102664759Y-145864637D01*
X102864637Y-145664759D01*
X103021680Y-145429727D01*
X103129853Y-145168574D01*
X103185000Y-144891335D01*
X103185000Y-144608665D01*
X103129853Y-144331426D01*
X103021680Y-144070273D01*
X102864637Y-143835241D01*
X102664759Y-143635363D01*
X102429727Y-143478320D01*
X102168574Y-143370147D01*
X101891335Y-143315000D01*
X101608665Y-143315000D01*
X101331426Y-143370147D01*
X101070273Y-143478320D01*
X100835241Y-143635363D01*
X100635363Y-143835241D01*
X100501308Y-144035869D01*
X100486671Y-144008486D01*
X100242702Y-143936903D01*
X99429605Y-144750000D01*
X100242702Y-145563097D01*
X100486671Y-145491514D01*
X100500324Y-145462659D01*
X100635363Y-145664759D01*
X100780001Y-145809397D01*
X100780001Y-148227879D01*
X100658968Y-148177746D01*
X100401338Y-148126500D01*
X100138662Y-148126500D01*
X99881032Y-148177746D01*
X99638351Y-148278268D01*
X99419943Y-148424203D01*
X99234203Y-148609943D01*
X99088268Y-148828351D01*
X98987746Y-149071032D01*
X98936500Y-149328662D01*
X98936500Y-149591338D01*
X98987746Y-149848968D01*
X99088268Y-150091649D01*
X99234203Y-150310057D01*
X99419943Y-150495797D01*
X99638351Y-150641732D01*
X99881032Y-150742254D01*
X100138662Y-150793500D01*
X100401338Y-150793500D01*
X100658968Y-150742254D01*
X100780000Y-150692121D01*
X100780000Y-150904029D01*
X100689943Y-150964203D01*
X100504203Y-151149943D01*
X100358268Y-151368351D01*
X100270000Y-151581448D01*
X100181732Y-151368351D01*
X100035797Y-151149943D01*
X99850057Y-150964203D01*
X99631649Y-150818268D01*
X99388968Y-150717746D01*
X99131338Y-150666500D01*
X98868662Y-150666500D01*
X98611032Y-150717746D01*
X98368351Y-150818268D01*
X98149943Y-150964203D01*
X97964203Y-151149943D01*
X97818268Y-151368351D01*
X97717746Y-151611032D01*
X97666500Y-151868662D01*
X93660000Y-151868662D01*
X93660000Y-145742702D01*
X98436903Y-145742702D01*
X98508486Y-145986671D01*
X98763996Y-146107571D01*
X99038184Y-146176300D01*
X99320512Y-146190217D01*
X99600130Y-146148787D01*
X99866292Y-146053603D01*
X99991514Y-145986671D01*
X100063097Y-145742702D01*
X99250000Y-144929605D01*
X98436903Y-145742702D01*
X93660000Y-145742702D01*
X93660000Y-144820512D01*
X97809783Y-144820512D01*
X97851213Y-145100130D01*
X97946397Y-145366292D01*
X98013329Y-145491514D01*
X98257298Y-145563097D01*
X99070395Y-144750000D01*
X98257298Y-143936903D01*
X98013329Y-144008486D01*
X97892429Y-144263996D01*
X97823700Y-144538184D01*
X97809783Y-144820512D01*
X93660000Y-144820512D01*
X93660000Y-143757298D01*
X98436903Y-143757298D01*
X99250000Y-144570395D01*
X100063097Y-143757298D01*
X99991514Y-143513329D01*
X99736004Y-143392429D01*
X99461816Y-143323700D01*
X99179488Y-143309783D01*
X98899870Y-143351213D01*
X98633708Y-143446397D01*
X98508486Y-143513329D01*
X98436903Y-143757298D01*
X93660000Y-143757298D01*
X93660000Y-106410000D01*
X98632619Y-106410000D01*
X98573080Y-106438359D01*
G36*
X144917000Y-110163000D02*
G01*
X144937000Y-110163000D01*
X144937000Y-110417000D01*
X144917000Y-110417000D01*
X144917000Y-110437000D01*
X144663000Y-110437000D01*
X144663000Y-110417000D01*
X144643000Y-110417000D01*
X144643000Y-110163000D01*
X144663000Y-110163000D01*
X144663000Y-110143000D01*
X144917000Y-110143000D01*
X144917000Y-110163000D01*
G37*
X144917000Y-110163000D02*
X144937000Y-110163000D01*
X144937000Y-110417000D01*
X144917000Y-110417000D01*
X144917000Y-110437000D01*
X144663000Y-110437000D01*
X144663000Y-110417000D01*
X144643000Y-110417000D01*
X144643000Y-110163000D01*
X144663000Y-110163000D01*
X144663000Y-110143000D01*
X144917000Y-110143000D01*
X144917000Y-110163000D01*
G36*
X157649992Y-121049114D02*
G01*
X157594443Y-120915008D01*
X157459287Y-120712733D01*
X157287267Y-120540713D01*
X157084992Y-120405557D01*
X156860236Y-120312460D01*
X156621637Y-120265000D01*
X156378363Y-120265000D01*
X156139764Y-120312460D01*
X155915008Y-120405557D01*
X155747656Y-120517378D01*
X155544341Y-120391428D01*
X155317610Y-120306533D01*
X155127000Y-120430291D01*
X155127000Y-121373000D01*
X155147000Y-121373000D01*
X155147000Y-121627000D01*
X155127000Y-121627000D01*
X155127000Y-122569709D01*
X155317610Y-122693467D01*
X155544341Y-122608572D01*
X155747656Y-122482622D01*
X155915008Y-122594443D01*
X156139764Y-122687540D01*
X156378363Y-122735000D01*
X156621637Y-122735000D01*
X156860236Y-122687540D01*
X157084992Y-122594443D01*
X157287267Y-122459287D01*
X157459287Y-122287267D01*
X157594443Y-122084992D01*
X157653495Y-121942428D01*
X157794400Y-157873000D01*
X151368311Y-157873000D01*
X151406043Y-157857371D01*
X151632886Y-157705799D01*
X151825799Y-157512886D01*
X151977371Y-157286043D01*
X152081775Y-157033989D01*
X152135000Y-156766411D01*
X152135000Y-156493589D01*
X152081775Y-156226011D01*
X151977371Y-155973957D01*
X151825799Y-155747114D01*
X151632886Y-155554201D01*
X151406043Y-155402629D01*
X151306721Y-155361489D01*
X151348832Y-155346277D01*
X151461863Y-155285860D01*
X151527388Y-155046993D01*
X150750000Y-154269605D01*
X149972612Y-155046993D01*
X150038137Y-155285860D01*
X150196477Y-155360164D01*
X150093957Y-155402629D01*
X149867114Y-155554201D01*
X149674201Y-155747114D01*
X149522629Y-155973957D01*
X149418225Y-156226011D01*
X149365000Y-156493589D01*
X149365000Y-156766411D01*
X149418225Y-157033989D01*
X149522629Y-157286043D01*
X149674201Y-157512886D01*
X149867114Y-157705799D01*
X150093957Y-157857371D01*
X150131689Y-157873000D01*
X136627000Y-157873000D01*
X136627000Y-154162492D01*
X149360188Y-154162492D01*
X149401035Y-154432238D01*
X149493723Y-154688832D01*
X149554140Y-154801863D01*
X149793007Y-154867388D01*
X150570395Y-154090000D01*
X150929605Y-154090000D01*
X151706993Y-154867388D01*
X151945860Y-154801863D01*
X152061760Y-154554884D01*
X152127250Y-154290040D01*
X152139812Y-154017508D01*
X152098965Y-153747762D01*
X152006277Y-153491168D01*
X151945860Y-153378137D01*
X151706993Y-153312612D01*
X150929605Y-154090000D01*
X150570395Y-154090000D01*
X149793007Y-153312612D01*
X149554140Y-153378137D01*
X149438240Y-153625116D01*
X149372750Y-153889960D01*
X149360188Y-154162492D01*
X136627000Y-154162492D01*
X136627000Y-151413589D01*
X149365000Y-151413589D01*
X149365000Y-151686411D01*
X149418225Y-151953989D01*
X149522629Y-152206043D01*
X149674201Y-152432886D01*
X149867114Y-152625799D01*
X150093957Y-152777371D01*
X150193279Y-152818511D01*
X150151168Y-152833723D01*
X150038137Y-152894140D01*
X149972612Y-153133007D01*
X150750000Y-153910395D01*
X151527388Y-153133007D01*
X151461863Y-152894140D01*
X151303523Y-152819836D01*
X151406043Y-152777371D01*
X151632886Y-152625799D01*
X151825799Y-152432886D01*
X151977371Y-152206043D01*
X152081775Y-151953989D01*
X152135000Y-151686411D01*
X152135000Y-151413589D01*
X152081775Y-151146011D01*
X151977371Y-150893957D01*
X151825799Y-150667114D01*
X151632886Y-150474201D01*
X151406043Y-150322629D01*
X151153989Y-150218225D01*
X150886411Y-150165000D01*
X150613589Y-150165000D01*
X150346011Y-150218225D01*
X150093957Y-150322629D01*
X149867114Y-150474201D01*
X149674201Y-150667114D01*
X149522629Y-150893957D01*
X149418225Y-151146011D01*
X149365000Y-151413589D01*
X136627000Y-151413589D01*
X136627000Y-121076400D01*
X152261928Y-121076400D01*
X152261928Y-121923600D01*
X152277578Y-122082496D01*
X152323926Y-122235285D01*
X152399191Y-122376096D01*
X152500481Y-122499519D01*
X152623904Y-122600809D01*
X152764715Y-122676074D01*
X152917504Y-122722422D01*
X153076400Y-122738072D01*
X153923600Y-122738072D01*
X154082496Y-122722422D01*
X154235285Y-122676074D01*
X154376096Y-122600809D01*
X154404930Y-122577146D01*
X154455659Y-122608572D01*
X154682390Y-122693467D01*
X154873000Y-122569709D01*
X154873000Y-121627000D01*
X154853000Y-121627000D01*
X154853000Y-121373000D01*
X154873000Y-121373000D01*
X154873000Y-120430291D01*
X154682390Y-120306533D01*
X154455659Y-120391428D01*
X154404930Y-120422854D01*
X154376096Y-120399191D01*
X154235285Y-120323926D01*
X154082496Y-120277578D01*
X153923600Y-120261928D01*
X153076400Y-120261928D01*
X152917504Y-120277578D01*
X152764715Y-120323926D01*
X152623904Y-120399191D01*
X152500481Y-120500481D01*
X152399191Y-120623904D01*
X152323926Y-120764715D01*
X152277578Y-120917504D01*
X152261928Y-121076400D01*
X136627000Y-121076400D01*
X136627000Y-115627000D01*
X157628729Y-115627000D01*
X157649992Y-121049114D01*
G37*
X157649992Y-121049114D02*
X157594443Y-120915008D01*
X157459287Y-120712733D01*
X157287267Y-120540713D01*
X157084992Y-120405557D01*
X156860236Y-120312460D01*
X156621637Y-120265000D01*
X156378363Y-120265000D01*
X156139764Y-120312460D01*
X155915008Y-120405557D01*
X155747656Y-120517378D01*
X155544341Y-120391428D01*
X155317610Y-120306533D01*
X155127000Y-120430291D01*
X155127000Y-121373000D01*
X155147000Y-121373000D01*
X155147000Y-121627000D01*
X155127000Y-121627000D01*
X155127000Y-122569709D01*
X155317610Y-122693467D01*
X155544341Y-122608572D01*
X155747656Y-122482622D01*
X155915008Y-122594443D01*
X156139764Y-122687540D01*
X156378363Y-122735000D01*
X156621637Y-122735000D01*
X156860236Y-122687540D01*
X157084992Y-122594443D01*
X157287267Y-122459287D01*
X157459287Y-122287267D01*
X157594443Y-122084992D01*
X157653495Y-121942428D01*
X157794400Y-157873000D01*
X151368311Y-157873000D01*
X151406043Y-157857371D01*
X151632886Y-157705799D01*
X151825799Y-157512886D01*
X151977371Y-157286043D01*
X152081775Y-157033989D01*
X152135000Y-156766411D01*
X152135000Y-156493589D01*
X152081775Y-156226011D01*
X151977371Y-155973957D01*
X151825799Y-155747114D01*
X151632886Y-155554201D01*
X151406043Y-155402629D01*
X151306721Y-155361489D01*
X151348832Y-155346277D01*
X151461863Y-155285860D01*
X151527388Y-155046993D01*
X150750000Y-154269605D01*
X149972612Y-155046993D01*
X150038137Y-155285860D01*
X150196477Y-155360164D01*
X150093957Y-155402629D01*
X149867114Y-155554201D01*
X149674201Y-155747114D01*
X149522629Y-155973957D01*
X149418225Y-156226011D01*
X149365000Y-156493589D01*
X149365000Y-156766411D01*
X149418225Y-157033989D01*
X149522629Y-157286043D01*
X149674201Y-157512886D01*
X149867114Y-157705799D01*
X150093957Y-157857371D01*
X150131689Y-157873000D01*
X136627000Y-157873000D01*
X136627000Y-154162492D01*
X149360188Y-154162492D01*
X149401035Y-154432238D01*
X149493723Y-154688832D01*
X149554140Y-154801863D01*
X149793007Y-154867388D01*
X150570395Y-154090000D01*
X150929605Y-154090000D01*
X151706993Y-154867388D01*
X151945860Y-154801863D01*
X152061760Y-154554884D01*
X152127250Y-154290040D01*
X152139812Y-154017508D01*
X152098965Y-153747762D01*
X152006277Y-153491168D01*
X151945860Y-153378137D01*
X151706993Y-153312612D01*
X150929605Y-154090000D01*
X150570395Y-154090000D01*
X149793007Y-153312612D01*
X149554140Y-153378137D01*
X149438240Y-153625116D01*
X149372750Y-153889960D01*
X149360188Y-154162492D01*
X136627000Y-154162492D01*
X136627000Y-151413589D01*
X149365000Y-151413589D01*
X149365000Y-151686411D01*
X149418225Y-151953989D01*
X149522629Y-152206043D01*
X149674201Y-152432886D01*
X149867114Y-152625799D01*
X150093957Y-152777371D01*
X150193279Y-152818511D01*
X150151168Y-152833723D01*
X150038137Y-152894140D01*
X149972612Y-153133007D01*
X150750000Y-153910395D01*
X151527388Y-153133007D01*
X151461863Y-152894140D01*
X151303523Y-152819836D01*
X151406043Y-152777371D01*
X151632886Y-152625799D01*
X151825799Y-152432886D01*
X151977371Y-152206043D01*
X152081775Y-151953989D01*
X152135000Y-151686411D01*
X152135000Y-151413589D01*
X152081775Y-151146011D01*
X151977371Y-150893957D01*
X151825799Y-150667114D01*
X151632886Y-150474201D01*
X151406043Y-150322629D01*
X151153989Y-150218225D01*
X150886411Y-150165000D01*
X150613589Y-150165000D01*
X150346011Y-150218225D01*
X150093957Y-150322629D01*
X149867114Y-150474201D01*
X149674201Y-150667114D01*
X149522629Y-150893957D01*
X149418225Y-151146011D01*
X149365000Y-151413589D01*
X136627000Y-151413589D01*
X136627000Y-121076400D01*
X152261928Y-121076400D01*
X152261928Y-121923600D01*
X152277578Y-122082496D01*
X152323926Y-122235285D01*
X152399191Y-122376096D01*
X152500481Y-122499519D01*
X152623904Y-122600809D01*
X152764715Y-122676074D01*
X152917504Y-122722422D01*
X153076400Y-122738072D01*
X153923600Y-122738072D01*
X154082496Y-122722422D01*
X154235285Y-122676074D01*
X154376096Y-122600809D01*
X154404930Y-122577146D01*
X154455659Y-122608572D01*
X154682390Y-122693467D01*
X154873000Y-122569709D01*
X154873000Y-121627000D01*
X154853000Y-121627000D01*
X154853000Y-121373000D01*
X154873000Y-121373000D01*
X154873000Y-120430291D01*
X154682390Y-120306533D01*
X154455659Y-120391428D01*
X154404930Y-120422854D01*
X154376096Y-120399191D01*
X154235285Y-120323926D01*
X154082496Y-120277578D01*
X153923600Y-120261928D01*
X153076400Y-120261928D01*
X152917504Y-120277578D01*
X152764715Y-120323926D01*
X152623904Y-120399191D01*
X152500481Y-120500481D01*
X152399191Y-120623904D01*
X152323926Y-120764715D01*
X152277578Y-120917504D01*
X152261928Y-121076400D01*
X136627000Y-121076400D01*
X136627000Y-115627000D01*
X157628729Y-115627000D01*
X157649992Y-121049114D01*
M02*
