G04 #@! TF.GenerationSoftware,KiCad,Pcbnew,(5.1.6-0-10_14)*
G04 #@! TF.CreationDate,2020-10-13T14:09:36+09:00*
G04 #@! TF.ProjectId,teabiscuits_compute,74656162-6973-4637-9569-74735f636f6d,rev?*
G04 #@! TF.SameCoordinates,Original*
G04 #@! TF.FileFunction,Soldermask,Bot*
G04 #@! TF.FilePolarity,Negative*
%FSLAX46Y46*%
G04 Gerber Fmt 4.6, Leading zero omitted, Abs format (unit mm)*
G04 Created by KiCad (PCBNEW (5.1.6-0-10_14)) date 2020-10-13 14:09:36*
%MOMM*%
%LPD*%
G01*
G04 APERTURE LIST*
%ADD10C,0.100000*%
G04 APERTURE END LIST*
D10*
G36*
X201248228Y-164181703D02*
G01*
X201403100Y-164245853D01*
X201542481Y-164338985D01*
X201661015Y-164457519D01*
X201754147Y-164596900D01*
X201818297Y-164751772D01*
X201851000Y-164916184D01*
X201851000Y-165083816D01*
X201818297Y-165248228D01*
X201754147Y-165403100D01*
X201661015Y-165542481D01*
X201542481Y-165661015D01*
X201403100Y-165754147D01*
X201248228Y-165818297D01*
X201083816Y-165851000D01*
X200916184Y-165851000D01*
X200751772Y-165818297D01*
X200596900Y-165754147D01*
X200457519Y-165661015D01*
X200338985Y-165542481D01*
X200245853Y-165403100D01*
X200181703Y-165248228D01*
X200149000Y-165083816D01*
X200149000Y-164916184D01*
X200181703Y-164751772D01*
X200245853Y-164596900D01*
X200338985Y-164457519D01*
X200457519Y-164338985D01*
X200596900Y-164245853D01*
X200751772Y-164181703D01*
X200916184Y-164149000D01*
X201083816Y-164149000D01*
X201248228Y-164181703D01*
G37*
G36*
X196706031Y-161214207D02*
G01*
X196834687Y-161253235D01*
X196904148Y-161274306D01*
X196970030Y-161309521D01*
X197086729Y-161371897D01*
X197246765Y-161503235D01*
X197378103Y-161663271D01*
X197378104Y-161663273D01*
X197475694Y-161845851D01*
X197475694Y-161845852D01*
X197475695Y-161845854D01*
X197535793Y-162043968D01*
X197551000Y-162198370D01*
X197551000Y-163801630D01*
X197535793Y-163956032D01*
X197500807Y-164071363D01*
X197475694Y-164154149D01*
X197460953Y-164181727D01*
X197378103Y-164336729D01*
X197246765Y-164496765D01*
X197086729Y-164628103D01*
X197000975Y-164673939D01*
X196904149Y-164725694D01*
X196904146Y-164725695D01*
X196706032Y-164785793D01*
X196500000Y-164806085D01*
X196293969Y-164785793D01*
X196095855Y-164725695D01*
X196095852Y-164725694D01*
X195999026Y-164673939D01*
X195913272Y-164628103D01*
X195753236Y-164496765D01*
X195621898Y-164336729D01*
X195573324Y-164245853D01*
X195524305Y-164154146D01*
X195464207Y-163956033D01*
X195449000Y-163801631D01*
X195449000Y-162198370D01*
X195464207Y-162043971D01*
X195464207Y-162043969D01*
X195524305Y-161845855D01*
X195524306Y-161845852D01*
X195559521Y-161779970D01*
X195621897Y-161663271D01*
X195753235Y-161503235D01*
X195913271Y-161371897D01*
X195999025Y-161326061D01*
X196095851Y-161274306D01*
X196165312Y-161253235D01*
X196293968Y-161214207D01*
X196500000Y-161193915D01*
X196706031Y-161214207D01*
G37*
G36*
X205706031Y-161214207D02*
G01*
X205834687Y-161253235D01*
X205904148Y-161274306D01*
X205970030Y-161309521D01*
X206086729Y-161371897D01*
X206246765Y-161503235D01*
X206378103Y-161663271D01*
X206378104Y-161663273D01*
X206475694Y-161845851D01*
X206475694Y-161845852D01*
X206475695Y-161845854D01*
X206535793Y-162043968D01*
X206551000Y-162198370D01*
X206551000Y-163801630D01*
X206535793Y-163956032D01*
X206500807Y-164071363D01*
X206475694Y-164154149D01*
X206460953Y-164181727D01*
X206378103Y-164336729D01*
X206246765Y-164496765D01*
X206086729Y-164628103D01*
X206000975Y-164673939D01*
X205904149Y-164725694D01*
X205904146Y-164725695D01*
X205706032Y-164785793D01*
X205500000Y-164806085D01*
X205293969Y-164785793D01*
X205095855Y-164725695D01*
X205095852Y-164725694D01*
X204999026Y-164673939D01*
X204913272Y-164628103D01*
X204753236Y-164496765D01*
X204621898Y-164336729D01*
X204573324Y-164245853D01*
X204524305Y-164154146D01*
X204464207Y-163956033D01*
X204449000Y-163801631D01*
X204449000Y-162198370D01*
X204464207Y-162043971D01*
X204464207Y-162043969D01*
X204524305Y-161845855D01*
X204524306Y-161845852D01*
X204559521Y-161779970D01*
X204621897Y-161663271D01*
X204753235Y-161503235D01*
X204913271Y-161371897D01*
X204999025Y-161326061D01*
X205095851Y-161274306D01*
X205165312Y-161253235D01*
X205293968Y-161214207D01*
X205500000Y-161193915D01*
X205706031Y-161214207D01*
G37*
G36*
X97360848Y-162656031D02*
G01*
X97462830Y-162698273D01*
X97511116Y-162718274D01*
X97646353Y-162808637D01*
X97761363Y-162923647D01*
X97846458Y-163051000D01*
X97851727Y-163058886D01*
X97913969Y-163209152D01*
X97941722Y-163348674D01*
X97945700Y-163368676D01*
X97945700Y-163531324D01*
X97913969Y-163690848D01*
X97851726Y-163841116D01*
X97761363Y-163976353D01*
X97646353Y-164091363D01*
X97511116Y-164181726D01*
X97511115Y-164181727D01*
X97511114Y-164181727D01*
X97360848Y-164243969D01*
X97201326Y-164275700D01*
X97038674Y-164275700D01*
X96879152Y-164243969D01*
X96728886Y-164181727D01*
X96728885Y-164181727D01*
X96728884Y-164181726D01*
X96593647Y-164091363D01*
X96478637Y-163976353D01*
X96388274Y-163841116D01*
X96326031Y-163690848D01*
X96294300Y-163531324D01*
X96294300Y-163368676D01*
X96298279Y-163348674D01*
X96326031Y-163209152D01*
X96388273Y-163058886D01*
X96393542Y-163051000D01*
X96478637Y-162923647D01*
X96593647Y-162808637D01*
X96728884Y-162718274D01*
X96777171Y-162698273D01*
X96879152Y-162656031D01*
X97038674Y-162624300D01*
X97201326Y-162624300D01*
X97360848Y-162656031D01*
G37*
G36*
X107411872Y-162624300D02*
G01*
X107470848Y-162636031D01*
X107621116Y-162698274D01*
X107756353Y-162788637D01*
X107871363Y-162903647D01*
X107961726Y-163038884D01*
X107961727Y-163038886D01*
X108023969Y-163189152D01*
X108055700Y-163348674D01*
X108055700Y-163511326D01*
X108023969Y-163670848D01*
X107969798Y-163801630D01*
X107961726Y-163821116D01*
X107871363Y-163956353D01*
X107756353Y-164071363D01*
X107621116Y-164161726D01*
X107621115Y-164161727D01*
X107621114Y-164161727D01*
X107470848Y-164223969D01*
X107311326Y-164255700D01*
X107148674Y-164255700D01*
X106989152Y-164223969D01*
X106838886Y-164161727D01*
X106838885Y-164161727D01*
X106838884Y-164161726D01*
X106703647Y-164071363D01*
X106588637Y-163956353D01*
X106498274Y-163821116D01*
X106490203Y-163801630D01*
X106436031Y-163670848D01*
X106404300Y-163511326D01*
X106404300Y-163348674D01*
X106436031Y-163189152D01*
X106498273Y-163038886D01*
X106498274Y-163038884D01*
X106588637Y-162903647D01*
X106703647Y-162788637D01*
X106838884Y-162698274D01*
X106989152Y-162636031D01*
X107048128Y-162624300D01*
X107148674Y-162604300D01*
X107311326Y-162604300D01*
X107411872Y-162624300D01*
G37*
G36*
X201753097Y-160954069D02*
G01*
X201856032Y-160964207D01*
X202054146Y-161024305D01*
X202054149Y-161024306D01*
X202150975Y-161076061D01*
X202236729Y-161121897D01*
X202396765Y-161253235D01*
X202528103Y-161413271D01*
X202568662Y-161489152D01*
X202625694Y-161595851D01*
X202625695Y-161595854D01*
X202685793Y-161793968D01*
X202706085Y-162000000D01*
X202685793Y-162206032D01*
X202670528Y-162256353D01*
X202625694Y-162404149D01*
X202594918Y-162461726D01*
X202528103Y-162586729D01*
X202396765Y-162746765D01*
X202236729Y-162878103D01*
X202188939Y-162903647D01*
X202054149Y-162975694D01*
X202054146Y-162975695D01*
X201856032Y-163035793D01*
X201753097Y-163045931D01*
X201701631Y-163051000D01*
X200298369Y-163051000D01*
X200246903Y-163045931D01*
X200143968Y-163035793D01*
X199945854Y-162975695D01*
X199945851Y-162975694D01*
X199811061Y-162903647D01*
X199763271Y-162878103D01*
X199603235Y-162746765D01*
X199471897Y-162586729D01*
X199405082Y-162461726D01*
X199374306Y-162404149D01*
X199329472Y-162256353D01*
X199314207Y-162206032D01*
X199293915Y-162000000D01*
X199314207Y-161793968D01*
X199374305Y-161595854D01*
X199374306Y-161595851D01*
X199431338Y-161489152D01*
X199471897Y-161413271D01*
X199603235Y-161253235D01*
X199763271Y-161121897D01*
X199849025Y-161076061D01*
X199945851Y-161024306D01*
X199945854Y-161024305D01*
X200143968Y-160964207D01*
X200246903Y-160954069D01*
X200298369Y-160949000D01*
X201701631Y-160949000D01*
X201753097Y-160954069D01*
G37*
G36*
X110010848Y-160936031D02*
G01*
X110161116Y-160998274D01*
X110296353Y-161088637D01*
X110411363Y-161203647D01*
X110458575Y-161274305D01*
X110501727Y-161338886D01*
X110563969Y-161489152D01*
X110595700Y-161648674D01*
X110595700Y-161811326D01*
X110563969Y-161970848D01*
X110533681Y-162043971D01*
X110501726Y-162121116D01*
X110411363Y-162256353D01*
X110296353Y-162371363D01*
X110161116Y-162461726D01*
X110161115Y-162461727D01*
X110161114Y-162461727D01*
X110010848Y-162523969D01*
X109851326Y-162555700D01*
X109688674Y-162555700D01*
X109529152Y-162523969D01*
X109378886Y-162461727D01*
X109378885Y-162461727D01*
X109378884Y-162461726D01*
X109243647Y-162371363D01*
X109128637Y-162256353D01*
X109038274Y-162121116D01*
X109006320Y-162043971D01*
X108976031Y-161970848D01*
X108944300Y-161811326D01*
X108944300Y-161648674D01*
X108976031Y-161489152D01*
X109038273Y-161338886D01*
X109081425Y-161274305D01*
X109128637Y-161203647D01*
X109243647Y-161088637D01*
X109378884Y-160998274D01*
X109529152Y-160936031D01*
X109688674Y-160904300D01*
X109851326Y-160904300D01*
X110010848Y-160936031D01*
G37*
G36*
X99900848Y-160936031D02*
G01*
X100051116Y-160998274D01*
X100186353Y-161088637D01*
X100301363Y-161203647D01*
X100348575Y-161274305D01*
X100391727Y-161338886D01*
X100453969Y-161489152D01*
X100485700Y-161648674D01*
X100485700Y-161811326D01*
X100453969Y-161970848D01*
X100423681Y-162043971D01*
X100391726Y-162121116D01*
X100301363Y-162256353D01*
X100186353Y-162371363D01*
X100051116Y-162461726D01*
X100051115Y-162461727D01*
X100051114Y-162461727D01*
X99900848Y-162523969D01*
X99741326Y-162555700D01*
X99578674Y-162555700D01*
X99419152Y-162523969D01*
X99268886Y-162461727D01*
X99268885Y-162461727D01*
X99268884Y-162461726D01*
X99133647Y-162371363D01*
X99018637Y-162256353D01*
X98928274Y-162121116D01*
X98896320Y-162043971D01*
X98866031Y-161970848D01*
X98834300Y-161811326D01*
X98834300Y-161648674D01*
X98866031Y-161489152D01*
X98928273Y-161338886D01*
X98971425Y-161274305D01*
X99018637Y-161203647D01*
X99133647Y-161088637D01*
X99268884Y-160998274D01*
X99419152Y-160936031D01*
X99578674Y-160904300D01*
X99741326Y-160904300D01*
X99900848Y-160936031D01*
G37*
G36*
X109598806Y-156488861D02*
G01*
X109723135Y-156513592D01*
X110074482Y-156659125D01*
X110390686Y-156870405D01*
X110659595Y-157139314D01*
X110870875Y-157455518D01*
X111016408Y-157806865D01*
X111090600Y-158179853D01*
X111090600Y-158560147D01*
X111016408Y-158933135D01*
X110870875Y-159284482D01*
X110659595Y-159600686D01*
X110390686Y-159869595D01*
X110074482Y-160080875D01*
X109723135Y-160226408D01*
X109598806Y-160251139D01*
X109350149Y-160300600D01*
X108969851Y-160300600D01*
X108721194Y-160251139D01*
X108596865Y-160226408D01*
X108245518Y-160080875D01*
X107929314Y-159869595D01*
X107660405Y-159600686D01*
X107449125Y-159284482D01*
X107303592Y-158933135D01*
X107229400Y-158560147D01*
X107229400Y-158179853D01*
X107303592Y-157806865D01*
X107449125Y-157455518D01*
X107660405Y-157139314D01*
X107929314Y-156870405D01*
X108245518Y-156659125D01*
X108596865Y-156513592D01*
X108721194Y-156488861D01*
X108969851Y-156439400D01*
X109350149Y-156439400D01*
X109598806Y-156488861D01*
G37*
G36*
X98168806Y-156488861D02*
G01*
X98293135Y-156513592D01*
X98644482Y-156659125D01*
X98960686Y-156870405D01*
X99229595Y-157139314D01*
X99440875Y-157455518D01*
X99586408Y-157806865D01*
X99660600Y-158179853D01*
X99660600Y-158560147D01*
X99586408Y-158933135D01*
X99440875Y-159284482D01*
X99229595Y-159600686D01*
X98960686Y-159869595D01*
X98644482Y-160080875D01*
X98293135Y-160226408D01*
X98168806Y-160251139D01*
X97920149Y-160300600D01*
X97539851Y-160300600D01*
X97291194Y-160251139D01*
X97166865Y-160226408D01*
X96815518Y-160080875D01*
X96499314Y-159869595D01*
X96230405Y-159600686D01*
X96019125Y-159284482D01*
X95873592Y-158933135D01*
X95799400Y-158560147D01*
X95799400Y-158179853D01*
X95873592Y-157806865D01*
X96019125Y-157455518D01*
X96230405Y-157139314D01*
X96499314Y-156870405D01*
X96815518Y-156659125D01*
X97166865Y-156513592D01*
X97291194Y-156488861D01*
X97539851Y-156439400D01*
X97920149Y-156439400D01*
X98168806Y-156488861D01*
G37*
G36*
X203051000Y-157051000D02*
G01*
X198949000Y-157051000D01*
X198949000Y-154949000D01*
X203051000Y-154949000D01*
X203051000Y-157051000D01*
G37*
G36*
X95892348Y-154257368D02*
G01*
X96093463Y-154340673D01*
X96274462Y-154461613D01*
X96428389Y-154615540D01*
X96549329Y-154796539D01*
X96632634Y-154997654D01*
X96675102Y-155211157D01*
X96675102Y-155428843D01*
X96632634Y-155642346D01*
X96549329Y-155843461D01*
X96428389Y-156024460D01*
X96274462Y-156178387D01*
X96093463Y-156299327D01*
X95892348Y-156382632D01*
X95678846Y-156425100D01*
X95461158Y-156425100D01*
X95247656Y-156382632D01*
X95046541Y-156299327D01*
X94865542Y-156178387D01*
X94711615Y-156024460D01*
X94590675Y-155843461D01*
X94507370Y-155642346D01*
X94464902Y-155428843D01*
X94464902Y-155211157D01*
X94507370Y-154997654D01*
X94590675Y-154796539D01*
X94711615Y-154615540D01*
X94865542Y-154461613D01*
X95046541Y-154340673D01*
X95247656Y-154257368D01*
X95461158Y-154214900D01*
X95678846Y-154214900D01*
X95892348Y-154257368D01*
G37*
G36*
X111642344Y-154257368D02*
G01*
X111843459Y-154340673D01*
X112024458Y-154461613D01*
X112178385Y-154615540D01*
X112299325Y-154796539D01*
X112382630Y-154997654D01*
X112425098Y-155211157D01*
X112425098Y-155428843D01*
X112382630Y-155642346D01*
X112299325Y-155843461D01*
X112178385Y-156024460D01*
X112024458Y-156178387D01*
X111843459Y-156299327D01*
X111642344Y-156382632D01*
X111428842Y-156425100D01*
X111211154Y-156425100D01*
X110997652Y-156382632D01*
X110796537Y-156299327D01*
X110615538Y-156178387D01*
X110461611Y-156024460D01*
X110340671Y-155843461D01*
X110257366Y-155642346D01*
X110214898Y-155428843D01*
X110214898Y-155211157D01*
X110257366Y-154997654D01*
X110340671Y-154796539D01*
X110461611Y-154615540D01*
X110615538Y-154461613D01*
X110796537Y-154340673D01*
X110997652Y-154257368D01*
X111211154Y-154214900D01*
X111428842Y-154214900D01*
X111642344Y-154257368D01*
G37*
G36*
X99094425Y-151254599D02*
G01*
X99218621Y-151279302D01*
X99355022Y-151335801D01*
X99477779Y-151417825D01*
X99582175Y-151522221D01*
X99664199Y-151644978D01*
X99720698Y-151781379D01*
X99749500Y-151926181D01*
X99749500Y-152073819D01*
X99720698Y-152218621D01*
X99664199Y-152355022D01*
X99582175Y-152477779D01*
X99477779Y-152582175D01*
X99355022Y-152664199D01*
X99218621Y-152720698D01*
X99094425Y-152745401D01*
X99073820Y-152749500D01*
X98926180Y-152749500D01*
X98905575Y-152745401D01*
X98781379Y-152720698D01*
X98644978Y-152664199D01*
X98522221Y-152582175D01*
X98417825Y-152477779D01*
X98335801Y-152355022D01*
X98279302Y-152218621D01*
X98250500Y-152073819D01*
X98250500Y-151926181D01*
X98279302Y-151781379D01*
X98335801Y-151644978D01*
X98417825Y-151522221D01*
X98522221Y-151417825D01*
X98644978Y-151335801D01*
X98781379Y-151279302D01*
X98905575Y-151254599D01*
X98926180Y-151250500D01*
X99073820Y-151250500D01*
X99094425Y-151254599D01*
G37*
G36*
X101634425Y-151254599D02*
G01*
X101758621Y-151279302D01*
X101895022Y-151335801D01*
X102017779Y-151417825D01*
X102122175Y-151522221D01*
X102204199Y-151644978D01*
X102260698Y-151781379D01*
X102289500Y-151926181D01*
X102289500Y-152073819D01*
X102260698Y-152218621D01*
X102204199Y-152355022D01*
X102122175Y-152477779D01*
X102017779Y-152582175D01*
X101895022Y-152664199D01*
X101758621Y-152720698D01*
X101634425Y-152745401D01*
X101613820Y-152749500D01*
X101466180Y-152749500D01*
X101445575Y-152745401D01*
X101321379Y-152720698D01*
X101184978Y-152664199D01*
X101062221Y-152582175D01*
X100957825Y-152477779D01*
X100875801Y-152355022D01*
X100819302Y-152218621D01*
X100790500Y-152073819D01*
X100790500Y-151926181D01*
X100819302Y-151781379D01*
X100875801Y-151644978D01*
X100957825Y-151522221D01*
X101062221Y-151417825D01*
X101184978Y-151335801D01*
X101321379Y-151279302D01*
X101445575Y-151254599D01*
X101466180Y-151250500D01*
X101613820Y-151250500D01*
X101634425Y-151254599D01*
G37*
G36*
X104174425Y-151254599D02*
G01*
X104298621Y-151279302D01*
X104435022Y-151335801D01*
X104557779Y-151417825D01*
X104662175Y-151522221D01*
X104744199Y-151644978D01*
X104800698Y-151781379D01*
X104829500Y-151926181D01*
X104829500Y-152073819D01*
X104800698Y-152218621D01*
X104744199Y-152355022D01*
X104662175Y-152477779D01*
X104557779Y-152582175D01*
X104435022Y-152664199D01*
X104298621Y-152720698D01*
X104174425Y-152745401D01*
X104153820Y-152749500D01*
X104006180Y-152749500D01*
X103985575Y-152745401D01*
X103861379Y-152720698D01*
X103724978Y-152664199D01*
X103602221Y-152582175D01*
X103497825Y-152477779D01*
X103415801Y-152355022D01*
X103359302Y-152218621D01*
X103330500Y-152073819D01*
X103330500Y-151926181D01*
X103359302Y-151781379D01*
X103415801Y-151644978D01*
X103497825Y-151522221D01*
X103602221Y-151417825D01*
X103724978Y-151335801D01*
X103861379Y-151279302D01*
X103985575Y-151254599D01*
X104006180Y-151250500D01*
X104153820Y-151250500D01*
X104174425Y-151254599D01*
G37*
G36*
X106714425Y-151254599D02*
G01*
X106838621Y-151279302D01*
X106975022Y-151335801D01*
X107097779Y-151417825D01*
X107202175Y-151522221D01*
X107284199Y-151644978D01*
X107340698Y-151781379D01*
X107369500Y-151926181D01*
X107369500Y-152073819D01*
X107340698Y-152218621D01*
X107284199Y-152355022D01*
X107202175Y-152477779D01*
X107097779Y-152582175D01*
X106975022Y-152664199D01*
X106838621Y-152720698D01*
X106714425Y-152745401D01*
X106693820Y-152749500D01*
X106546180Y-152749500D01*
X106525575Y-152745401D01*
X106401379Y-152720698D01*
X106264978Y-152664199D01*
X106142221Y-152582175D01*
X106037825Y-152477779D01*
X105955801Y-152355022D01*
X105899302Y-152218621D01*
X105870500Y-152073819D01*
X105870500Y-151926181D01*
X105899302Y-151781379D01*
X105955801Y-151644978D01*
X106037825Y-151522221D01*
X106142221Y-151417825D01*
X106264978Y-151335801D01*
X106401379Y-151279302D01*
X106525575Y-151254599D01*
X106546180Y-151250500D01*
X106693820Y-151250500D01*
X106714425Y-151254599D01*
G37*
G36*
X195644072Y-148700918D02*
G01*
X195889939Y-148802759D01*
X196111212Y-148950610D01*
X196299390Y-149138788D01*
X196447241Y-149360061D01*
X196549082Y-149605928D01*
X196601000Y-149866938D01*
X196601000Y-150133062D01*
X196549082Y-150394072D01*
X196447241Y-150639939D01*
X196299390Y-150861212D01*
X196111212Y-151049390D01*
X195889939Y-151197241D01*
X195889938Y-151197242D01*
X195889937Y-151197242D01*
X195644072Y-151299082D01*
X195383063Y-151351000D01*
X195116937Y-151351000D01*
X194855928Y-151299082D01*
X194610063Y-151197242D01*
X194610062Y-151197242D01*
X194610061Y-151197241D01*
X194388788Y-151049390D01*
X194200610Y-150861212D01*
X194052759Y-150639939D01*
X193950918Y-150394072D01*
X193899000Y-150133062D01*
X193899000Y-149866938D01*
X193950918Y-149605928D01*
X194052759Y-149360061D01*
X194200610Y-149138788D01*
X194388788Y-148950610D01*
X194610061Y-148802759D01*
X194855928Y-148700918D01*
X195116937Y-148649000D01*
X195383063Y-148649000D01*
X195644072Y-148700918D01*
G37*
G36*
X207144072Y-148700918D02*
G01*
X207389939Y-148802759D01*
X207611212Y-148950610D01*
X207799390Y-149138788D01*
X207947241Y-149360061D01*
X208049082Y-149605928D01*
X208101000Y-149866938D01*
X208101000Y-150133062D01*
X208049082Y-150394072D01*
X207947241Y-150639939D01*
X207799390Y-150861212D01*
X207611212Y-151049390D01*
X207389939Y-151197241D01*
X207389938Y-151197242D01*
X207389937Y-151197242D01*
X207144072Y-151299082D01*
X206883063Y-151351000D01*
X206616937Y-151351000D01*
X206355928Y-151299082D01*
X206110063Y-151197242D01*
X206110062Y-151197242D01*
X206110061Y-151197241D01*
X205888788Y-151049390D01*
X205700610Y-150861212D01*
X205552759Y-150639939D01*
X205450918Y-150394072D01*
X205399000Y-150133062D01*
X205399000Y-149866938D01*
X205450918Y-149605928D01*
X205552759Y-149360061D01*
X205700610Y-149138788D01*
X205888788Y-148950610D01*
X206110061Y-148802759D01*
X206355928Y-148700918D01*
X206616937Y-148649000D01*
X206883063Y-148649000D01*
X207144072Y-148700918D01*
G37*
G36*
X102904425Y-148714599D02*
G01*
X103028621Y-148739302D01*
X103165022Y-148795801D01*
X103287779Y-148877825D01*
X103392175Y-148982221D01*
X103474199Y-149104978D01*
X103530698Y-149241379D01*
X103559500Y-149386181D01*
X103559500Y-149533819D01*
X103530698Y-149678621D01*
X103474199Y-149815022D01*
X103392175Y-149937779D01*
X103287779Y-150042175D01*
X103165022Y-150124199D01*
X103028621Y-150180698D01*
X102904425Y-150205401D01*
X102883820Y-150209500D01*
X102736180Y-150209500D01*
X102715575Y-150205401D01*
X102591379Y-150180698D01*
X102454978Y-150124199D01*
X102332221Y-150042175D01*
X102227825Y-149937779D01*
X102145801Y-149815022D01*
X102089302Y-149678621D01*
X102060500Y-149533819D01*
X102060500Y-149386181D01*
X102089302Y-149241379D01*
X102145801Y-149104978D01*
X102227825Y-148982221D01*
X102332221Y-148877825D01*
X102454978Y-148795801D01*
X102591379Y-148739302D01*
X102715575Y-148714599D01*
X102736180Y-148710500D01*
X102883820Y-148710500D01*
X102904425Y-148714599D01*
G37*
G36*
X100364425Y-148714599D02*
G01*
X100488621Y-148739302D01*
X100625022Y-148795801D01*
X100747779Y-148877825D01*
X100852175Y-148982221D01*
X100934199Y-149104978D01*
X100990698Y-149241379D01*
X101019500Y-149386181D01*
X101019500Y-149533819D01*
X100990698Y-149678621D01*
X100934199Y-149815022D01*
X100852175Y-149937779D01*
X100747779Y-150042175D01*
X100625022Y-150124199D01*
X100488621Y-150180698D01*
X100364425Y-150205401D01*
X100343820Y-150209500D01*
X100196180Y-150209500D01*
X100175575Y-150205401D01*
X100051379Y-150180698D01*
X99914978Y-150124199D01*
X99792221Y-150042175D01*
X99687825Y-149937779D01*
X99605801Y-149815022D01*
X99549302Y-149678621D01*
X99520500Y-149533819D01*
X99520500Y-149386181D01*
X99549302Y-149241379D01*
X99605801Y-149104978D01*
X99687825Y-148982221D01*
X99792221Y-148877825D01*
X99914978Y-148795801D01*
X100051379Y-148739302D01*
X100175575Y-148714599D01*
X100196180Y-148710500D01*
X100343820Y-148710500D01*
X100364425Y-148714599D01*
G37*
G36*
X105444425Y-148714599D02*
G01*
X105568621Y-148739302D01*
X105705022Y-148795801D01*
X105827779Y-148877825D01*
X105932175Y-148982221D01*
X106014199Y-149104978D01*
X106070698Y-149241379D01*
X106099500Y-149386181D01*
X106099500Y-149533819D01*
X106070698Y-149678621D01*
X106014199Y-149815022D01*
X105932175Y-149937779D01*
X105827779Y-150042175D01*
X105705022Y-150124199D01*
X105568621Y-150180698D01*
X105444425Y-150205401D01*
X105423820Y-150209500D01*
X105276180Y-150209500D01*
X105255575Y-150205401D01*
X105131379Y-150180698D01*
X104994978Y-150124199D01*
X104872221Y-150042175D01*
X104767825Y-149937779D01*
X104685801Y-149815022D01*
X104629302Y-149678621D01*
X104600500Y-149533819D01*
X104600500Y-149386181D01*
X104629302Y-149241379D01*
X104685801Y-149104978D01*
X104767825Y-148982221D01*
X104872221Y-148877825D01*
X104994978Y-148795801D01*
X105131379Y-148739302D01*
X105255575Y-148714599D01*
X105276180Y-148710500D01*
X105423820Y-148710500D01*
X105444425Y-148714599D01*
G37*
G36*
X107984425Y-148714599D02*
G01*
X108108621Y-148739302D01*
X108245022Y-148795801D01*
X108367779Y-148877825D01*
X108472175Y-148982221D01*
X108554199Y-149104978D01*
X108610698Y-149241379D01*
X108639500Y-149386181D01*
X108639500Y-149533819D01*
X108610698Y-149678621D01*
X108554199Y-149815022D01*
X108472175Y-149937779D01*
X108367779Y-150042175D01*
X108245022Y-150124199D01*
X108108621Y-150180698D01*
X107984425Y-150205401D01*
X107963820Y-150209500D01*
X107816180Y-150209500D01*
X107795575Y-150205401D01*
X107671379Y-150180698D01*
X107534978Y-150124199D01*
X107412221Y-150042175D01*
X107307825Y-149937779D01*
X107225801Y-149815022D01*
X107169302Y-149678621D01*
X107140500Y-149533819D01*
X107140500Y-149386181D01*
X107169302Y-149241379D01*
X107225801Y-149104978D01*
X107307825Y-148982221D01*
X107412221Y-148877825D01*
X107534978Y-148795801D01*
X107671379Y-148739302D01*
X107795575Y-148714599D01*
X107816180Y-148710500D01*
X107963820Y-148710500D01*
X107984425Y-148714599D01*
G37*
G36*
X195644072Y-143700918D02*
G01*
X195889939Y-143802759D01*
X196001328Y-143877187D01*
X196111211Y-143950609D01*
X196299391Y-144138789D01*
X196447242Y-144360063D01*
X196549082Y-144605928D01*
X196594412Y-144833815D01*
X196601000Y-144866938D01*
X196601000Y-145133062D01*
X196549082Y-145394072D01*
X196447241Y-145639939D01*
X196299390Y-145861212D01*
X196111212Y-146049390D01*
X195889939Y-146197241D01*
X195889938Y-146197242D01*
X195889937Y-146197242D01*
X195644072Y-146299082D01*
X195383063Y-146351000D01*
X195116937Y-146351000D01*
X194855928Y-146299082D01*
X194610063Y-146197242D01*
X194610062Y-146197242D01*
X194610061Y-146197241D01*
X194388788Y-146049390D01*
X194200610Y-145861212D01*
X194052759Y-145639939D01*
X193950918Y-145394072D01*
X193899000Y-145133062D01*
X193899000Y-144866938D01*
X193905589Y-144833815D01*
X193950918Y-144605928D01*
X194052758Y-144360063D01*
X194200609Y-144138789D01*
X194388789Y-143950609D01*
X194498672Y-143877187D01*
X194610061Y-143802759D01*
X194855928Y-143700918D01*
X195116937Y-143649000D01*
X195383063Y-143649000D01*
X195644072Y-143700918D01*
G37*
G36*
X207144072Y-143700918D02*
G01*
X207389939Y-143802759D01*
X207501328Y-143877187D01*
X207611211Y-143950609D01*
X207799391Y-144138789D01*
X207947242Y-144360063D01*
X208049082Y-144605928D01*
X208094412Y-144833815D01*
X208101000Y-144866938D01*
X208101000Y-145133062D01*
X208049082Y-145394072D01*
X207947241Y-145639939D01*
X207799390Y-145861212D01*
X207611212Y-146049390D01*
X207389939Y-146197241D01*
X207389938Y-146197242D01*
X207389937Y-146197242D01*
X207144072Y-146299082D01*
X206883063Y-146351000D01*
X206616937Y-146351000D01*
X206355928Y-146299082D01*
X206110063Y-146197242D01*
X206110062Y-146197242D01*
X206110061Y-146197241D01*
X205888788Y-146049390D01*
X205700610Y-145861212D01*
X205552759Y-145639939D01*
X205450918Y-145394072D01*
X205399000Y-145133062D01*
X205399000Y-144866938D01*
X205405589Y-144833815D01*
X205450918Y-144605928D01*
X205552758Y-144360063D01*
X205700609Y-144138789D01*
X205888789Y-143950609D01*
X205998672Y-143877187D01*
X206110061Y-143802759D01*
X206355928Y-143700918D01*
X206616937Y-143649000D01*
X206883063Y-143649000D01*
X207144072Y-143700918D01*
G37*
G36*
X107998228Y-143931703D02*
G01*
X108153100Y-143995853D01*
X108292481Y-144088985D01*
X108411015Y-144207519D01*
X108504147Y-144346900D01*
X108568297Y-144501772D01*
X108601000Y-144666184D01*
X108601000Y-144833816D01*
X108568297Y-144998228D01*
X108504147Y-145153100D01*
X108411015Y-145292481D01*
X108292481Y-145411015D01*
X108153100Y-145504147D01*
X107998228Y-145568297D01*
X107833816Y-145601000D01*
X107666184Y-145601000D01*
X107501772Y-145568297D01*
X107346900Y-145504147D01*
X107207519Y-145411015D01*
X107088985Y-145292481D01*
X106995853Y-145153100D01*
X106931703Y-144998228D01*
X106899000Y-144833816D01*
X106899000Y-144666184D01*
X106931703Y-144501772D01*
X106995853Y-144346900D01*
X107088985Y-144207519D01*
X107207519Y-144088985D01*
X107346900Y-143995853D01*
X107501772Y-143931703D01*
X107666184Y-143899000D01*
X107833816Y-143899000D01*
X107998228Y-143931703D01*
G37*
G36*
X105498228Y-143931703D02*
G01*
X105653100Y-143995853D01*
X105792481Y-144088985D01*
X105911015Y-144207519D01*
X106004147Y-144346900D01*
X106068297Y-144501772D01*
X106101000Y-144666184D01*
X106101000Y-144833816D01*
X106068297Y-144998228D01*
X106004147Y-145153100D01*
X105911015Y-145292481D01*
X105792481Y-145411015D01*
X105653100Y-145504147D01*
X105498228Y-145568297D01*
X105333816Y-145601000D01*
X105166184Y-145601000D01*
X105001772Y-145568297D01*
X104846900Y-145504147D01*
X104707519Y-145411015D01*
X104588985Y-145292481D01*
X104495853Y-145153100D01*
X104431703Y-144998228D01*
X104399000Y-144833816D01*
X104399000Y-144666184D01*
X104431703Y-144501772D01*
X104495853Y-144346900D01*
X104588985Y-144207519D01*
X104707519Y-144088985D01*
X104846900Y-143995853D01*
X105001772Y-143931703D01*
X105166184Y-143899000D01*
X105333816Y-143899000D01*
X105498228Y-143931703D01*
G37*
G36*
X130607142Y-141458242D02*
G01*
X130755101Y-141519529D01*
X130888255Y-141608499D01*
X131001501Y-141721745D01*
X131090471Y-141854899D01*
X131151758Y-142002858D01*
X131183000Y-142159925D01*
X131183000Y-142320075D01*
X131151758Y-142477142D01*
X131090471Y-142625101D01*
X131001501Y-142758255D01*
X130888255Y-142871501D01*
X130755101Y-142960471D01*
X130607142Y-143021758D01*
X130450075Y-143053000D01*
X130289925Y-143053000D01*
X130132858Y-143021758D01*
X129984899Y-142960471D01*
X129851745Y-142871501D01*
X129738499Y-142758255D01*
X129649529Y-142625101D01*
X129588242Y-142477142D01*
X129557000Y-142320075D01*
X129557000Y-142159925D01*
X129588242Y-142002858D01*
X129649529Y-141854899D01*
X129738499Y-141721745D01*
X129851745Y-141608499D01*
X129984899Y-141519529D01*
X130132858Y-141458242D01*
X130289925Y-141427000D01*
X130450075Y-141427000D01*
X130607142Y-141458242D01*
G37*
G36*
X133147142Y-141458242D02*
G01*
X133295101Y-141519529D01*
X133428255Y-141608499D01*
X133541501Y-141721745D01*
X133630471Y-141854899D01*
X133691758Y-142002858D01*
X133723000Y-142159925D01*
X133723000Y-142320075D01*
X133691758Y-142477142D01*
X133630471Y-142625101D01*
X133541501Y-142758255D01*
X133428255Y-142871501D01*
X133295101Y-142960471D01*
X133147142Y-143021758D01*
X132990075Y-143053000D01*
X132829925Y-143053000D01*
X132672858Y-143021758D01*
X132524899Y-142960471D01*
X132391745Y-142871501D01*
X132278499Y-142758255D01*
X132189529Y-142625101D01*
X132128242Y-142477142D01*
X132097000Y-142320075D01*
X132097000Y-142159925D01*
X132128242Y-142002858D01*
X132189529Y-141854899D01*
X132278499Y-141721745D01*
X132391745Y-141608499D01*
X132524899Y-141519529D01*
X132672858Y-141458242D01*
X132829925Y-141427000D01*
X132990075Y-141427000D01*
X133147142Y-141458242D01*
G37*
G36*
X135687142Y-141458242D02*
G01*
X135835101Y-141519529D01*
X135968255Y-141608499D01*
X136081501Y-141721745D01*
X136170471Y-141854899D01*
X136231758Y-142002858D01*
X136263000Y-142159925D01*
X136263000Y-142320075D01*
X136231758Y-142477142D01*
X136170471Y-142625101D01*
X136081501Y-142758255D01*
X135968255Y-142871501D01*
X135835101Y-142960471D01*
X135687142Y-143021758D01*
X135530075Y-143053000D01*
X135369925Y-143053000D01*
X135212858Y-143021758D01*
X135064899Y-142960471D01*
X134931745Y-142871501D01*
X134818499Y-142758255D01*
X134729529Y-142625101D01*
X134668242Y-142477142D01*
X134637000Y-142320075D01*
X134637000Y-142159925D01*
X134668242Y-142002858D01*
X134729529Y-141854899D01*
X134818499Y-141721745D01*
X134931745Y-141608499D01*
X135064899Y-141519529D01*
X135212858Y-141458242D01*
X135369925Y-141427000D01*
X135530075Y-141427000D01*
X135687142Y-141458242D01*
G37*
G36*
X138227142Y-141458242D02*
G01*
X138375101Y-141519529D01*
X138508255Y-141608499D01*
X138621501Y-141721745D01*
X138710471Y-141854899D01*
X138771758Y-142002858D01*
X138803000Y-142159925D01*
X138803000Y-142320075D01*
X138771758Y-142477142D01*
X138710471Y-142625101D01*
X138621501Y-142758255D01*
X138508255Y-142871501D01*
X138375101Y-142960471D01*
X138227142Y-143021758D01*
X138070075Y-143053000D01*
X137909925Y-143053000D01*
X137752858Y-143021758D01*
X137604899Y-142960471D01*
X137471745Y-142871501D01*
X137358499Y-142758255D01*
X137269529Y-142625101D01*
X137208242Y-142477142D01*
X137177000Y-142320075D01*
X137177000Y-142159925D01*
X137208242Y-142002858D01*
X137269529Y-141854899D01*
X137358499Y-141721745D01*
X137471745Y-141608499D01*
X137604899Y-141519529D01*
X137752858Y-141458242D01*
X137909925Y-141427000D01*
X138070075Y-141427000D01*
X138227142Y-141458242D01*
G37*
G36*
X140767142Y-141458242D02*
G01*
X140915101Y-141519529D01*
X141048255Y-141608499D01*
X141161501Y-141721745D01*
X141250471Y-141854899D01*
X141311758Y-142002858D01*
X141343000Y-142159925D01*
X141343000Y-142320075D01*
X141311758Y-142477142D01*
X141250471Y-142625101D01*
X141161501Y-142758255D01*
X141048255Y-142871501D01*
X140915101Y-142960471D01*
X140767142Y-143021758D01*
X140610075Y-143053000D01*
X140449925Y-143053000D01*
X140292858Y-143021758D01*
X140144899Y-142960471D01*
X140011745Y-142871501D01*
X139898499Y-142758255D01*
X139809529Y-142625101D01*
X139748242Y-142477142D01*
X139717000Y-142320075D01*
X139717000Y-142159925D01*
X139748242Y-142002858D01*
X139809529Y-141854899D01*
X139898499Y-141721745D01*
X140011745Y-141608499D01*
X140144899Y-141519529D01*
X140292858Y-141458242D01*
X140449925Y-141427000D01*
X140610075Y-141427000D01*
X140767142Y-141458242D01*
G37*
G36*
X143307142Y-141458242D02*
G01*
X143455101Y-141519529D01*
X143588255Y-141608499D01*
X143701501Y-141721745D01*
X143790471Y-141854899D01*
X143851758Y-142002858D01*
X143883000Y-142159925D01*
X143883000Y-142320075D01*
X143851758Y-142477142D01*
X143790471Y-142625101D01*
X143701501Y-142758255D01*
X143588255Y-142871501D01*
X143455101Y-142960471D01*
X143307142Y-143021758D01*
X143150075Y-143053000D01*
X142989925Y-143053000D01*
X142832858Y-143021758D01*
X142684899Y-142960471D01*
X142551745Y-142871501D01*
X142438499Y-142758255D01*
X142349529Y-142625101D01*
X142288242Y-142477142D01*
X142257000Y-142320075D01*
X142257000Y-142159925D01*
X142288242Y-142002858D01*
X142349529Y-141854899D01*
X142438499Y-141721745D01*
X142551745Y-141608499D01*
X142684899Y-141519529D01*
X142832858Y-141458242D01*
X142989925Y-141427000D01*
X143150075Y-141427000D01*
X143307142Y-141458242D01*
G37*
G36*
X145847142Y-141458242D02*
G01*
X145995101Y-141519529D01*
X146128255Y-141608499D01*
X146241501Y-141721745D01*
X146330471Y-141854899D01*
X146391758Y-142002858D01*
X146423000Y-142159925D01*
X146423000Y-142320075D01*
X146391758Y-142477142D01*
X146330471Y-142625101D01*
X146241501Y-142758255D01*
X146128255Y-142871501D01*
X145995101Y-142960471D01*
X145847142Y-143021758D01*
X145690075Y-143053000D01*
X145529925Y-143053000D01*
X145372858Y-143021758D01*
X145224899Y-142960471D01*
X145091745Y-142871501D01*
X144978499Y-142758255D01*
X144889529Y-142625101D01*
X144828242Y-142477142D01*
X144797000Y-142320075D01*
X144797000Y-142159925D01*
X144828242Y-142002858D01*
X144889529Y-141854899D01*
X144978499Y-141721745D01*
X145091745Y-141608499D01*
X145224899Y-141519529D01*
X145372858Y-141458242D01*
X145529925Y-141427000D01*
X145690075Y-141427000D01*
X145847142Y-141458242D01*
G37*
G36*
X148387142Y-141458242D02*
G01*
X148535101Y-141519529D01*
X148668255Y-141608499D01*
X148781501Y-141721745D01*
X148870471Y-141854899D01*
X148931758Y-142002858D01*
X148963000Y-142159925D01*
X148963000Y-142320075D01*
X148931758Y-142477142D01*
X148870471Y-142625101D01*
X148781501Y-142758255D01*
X148668255Y-142871501D01*
X148535101Y-142960471D01*
X148387142Y-143021758D01*
X148230075Y-143053000D01*
X148069925Y-143053000D01*
X147912858Y-143021758D01*
X147764899Y-142960471D01*
X147631745Y-142871501D01*
X147518499Y-142758255D01*
X147429529Y-142625101D01*
X147368242Y-142477142D01*
X147337000Y-142320075D01*
X147337000Y-142159925D01*
X147368242Y-142002858D01*
X147429529Y-141854899D01*
X147518499Y-141721745D01*
X147631745Y-141608499D01*
X147764899Y-141519529D01*
X147912858Y-141458242D01*
X148069925Y-141427000D01*
X148230075Y-141427000D01*
X148387142Y-141458242D01*
G37*
G36*
X150927142Y-141458242D02*
G01*
X151075101Y-141519529D01*
X151208255Y-141608499D01*
X151321501Y-141721745D01*
X151410471Y-141854899D01*
X151471758Y-142002858D01*
X151503000Y-142159925D01*
X151503000Y-142320075D01*
X151471758Y-142477142D01*
X151410471Y-142625101D01*
X151321501Y-142758255D01*
X151208255Y-142871501D01*
X151075101Y-142960471D01*
X150927142Y-143021758D01*
X150770075Y-143053000D01*
X150609925Y-143053000D01*
X150452858Y-143021758D01*
X150304899Y-142960471D01*
X150171745Y-142871501D01*
X150058499Y-142758255D01*
X149969529Y-142625101D01*
X149908242Y-142477142D01*
X149877000Y-142320075D01*
X149877000Y-142159925D01*
X149908242Y-142002858D01*
X149969529Y-141854899D01*
X150058499Y-141721745D01*
X150171745Y-141608499D01*
X150304899Y-141519529D01*
X150452858Y-141458242D01*
X150609925Y-141427000D01*
X150770075Y-141427000D01*
X150927142Y-141458242D01*
G37*
G36*
X153467142Y-141458242D02*
G01*
X153615101Y-141519529D01*
X153748255Y-141608499D01*
X153861501Y-141721745D01*
X153950471Y-141854899D01*
X154011758Y-142002858D01*
X154043000Y-142159925D01*
X154043000Y-142320075D01*
X154011758Y-142477142D01*
X153950471Y-142625101D01*
X153861501Y-142758255D01*
X153748255Y-142871501D01*
X153615101Y-142960471D01*
X153467142Y-143021758D01*
X153310075Y-143053000D01*
X153149925Y-143053000D01*
X152992858Y-143021758D01*
X152844899Y-142960471D01*
X152711745Y-142871501D01*
X152598499Y-142758255D01*
X152509529Y-142625101D01*
X152448242Y-142477142D01*
X152417000Y-142320075D01*
X152417000Y-142159925D01*
X152448242Y-142002858D01*
X152509529Y-141854899D01*
X152598499Y-141721745D01*
X152711745Y-141608499D01*
X152844899Y-141519529D01*
X152992858Y-141458242D01*
X153149925Y-141427000D01*
X153310075Y-141427000D01*
X153467142Y-141458242D01*
G37*
G36*
X156007142Y-141458242D02*
G01*
X156155101Y-141519529D01*
X156288255Y-141608499D01*
X156401501Y-141721745D01*
X156490471Y-141854899D01*
X156551758Y-142002858D01*
X156583000Y-142159925D01*
X156583000Y-142320075D01*
X156551758Y-142477142D01*
X156490471Y-142625101D01*
X156401501Y-142758255D01*
X156288255Y-142871501D01*
X156155101Y-142960471D01*
X156007142Y-143021758D01*
X155850075Y-143053000D01*
X155689925Y-143053000D01*
X155532858Y-143021758D01*
X155384899Y-142960471D01*
X155251745Y-142871501D01*
X155138499Y-142758255D01*
X155049529Y-142625101D01*
X154988242Y-142477142D01*
X154957000Y-142320075D01*
X154957000Y-142159925D01*
X154988242Y-142002858D01*
X155049529Y-141854899D01*
X155138499Y-141721745D01*
X155251745Y-141608499D01*
X155384899Y-141519529D01*
X155532858Y-141458242D01*
X155689925Y-141427000D01*
X155850075Y-141427000D01*
X156007142Y-141458242D01*
G37*
G36*
X158547142Y-141458242D02*
G01*
X158695101Y-141519529D01*
X158828255Y-141608499D01*
X158941501Y-141721745D01*
X159030471Y-141854899D01*
X159091758Y-142002858D01*
X159123000Y-142159925D01*
X159123000Y-142320075D01*
X159091758Y-142477142D01*
X159030471Y-142625101D01*
X158941501Y-142758255D01*
X158828255Y-142871501D01*
X158695101Y-142960471D01*
X158547142Y-143021758D01*
X158390075Y-143053000D01*
X158229925Y-143053000D01*
X158072858Y-143021758D01*
X157924899Y-142960471D01*
X157791745Y-142871501D01*
X157678499Y-142758255D01*
X157589529Y-142625101D01*
X157528242Y-142477142D01*
X157497000Y-142320075D01*
X157497000Y-142159925D01*
X157528242Y-142002858D01*
X157589529Y-141854899D01*
X157678499Y-141721745D01*
X157791745Y-141608499D01*
X157924899Y-141519529D01*
X158072858Y-141458242D01*
X158229925Y-141427000D01*
X158390075Y-141427000D01*
X158547142Y-141458242D01*
G37*
G36*
X161087142Y-141458242D02*
G01*
X161235101Y-141519529D01*
X161368255Y-141608499D01*
X161481501Y-141721745D01*
X161570471Y-141854899D01*
X161631758Y-142002858D01*
X161663000Y-142159925D01*
X161663000Y-142320075D01*
X161631758Y-142477142D01*
X161570471Y-142625101D01*
X161481501Y-142758255D01*
X161368255Y-142871501D01*
X161235101Y-142960471D01*
X161087142Y-143021758D01*
X160930075Y-143053000D01*
X160769925Y-143053000D01*
X160612858Y-143021758D01*
X160464899Y-142960471D01*
X160331745Y-142871501D01*
X160218499Y-142758255D01*
X160129529Y-142625101D01*
X160068242Y-142477142D01*
X160037000Y-142320075D01*
X160037000Y-142159925D01*
X160068242Y-142002858D01*
X160129529Y-141854899D01*
X160218499Y-141721745D01*
X160331745Y-141608499D01*
X160464899Y-141519529D01*
X160612858Y-141458242D01*
X160769925Y-141427000D01*
X160930075Y-141427000D01*
X161087142Y-141458242D01*
G37*
G36*
X163627142Y-141458242D02*
G01*
X163775101Y-141519529D01*
X163908255Y-141608499D01*
X164021501Y-141721745D01*
X164110471Y-141854899D01*
X164171758Y-142002858D01*
X164203000Y-142159925D01*
X164203000Y-142320075D01*
X164171758Y-142477142D01*
X164110471Y-142625101D01*
X164021501Y-142758255D01*
X163908255Y-142871501D01*
X163775101Y-142960471D01*
X163627142Y-143021758D01*
X163470075Y-143053000D01*
X163309925Y-143053000D01*
X163152858Y-143021758D01*
X163004899Y-142960471D01*
X162871745Y-142871501D01*
X162758499Y-142758255D01*
X162669529Y-142625101D01*
X162608242Y-142477142D01*
X162577000Y-142320075D01*
X162577000Y-142159925D01*
X162608242Y-142002858D01*
X162669529Y-141854899D01*
X162758499Y-141721745D01*
X162871745Y-141608499D01*
X163004899Y-141519529D01*
X163152858Y-141458242D01*
X163309925Y-141427000D01*
X163470075Y-141427000D01*
X163627142Y-141458242D01*
G37*
G36*
X166167142Y-141458242D02*
G01*
X166315101Y-141519529D01*
X166448255Y-141608499D01*
X166561501Y-141721745D01*
X166650471Y-141854899D01*
X166711758Y-142002858D01*
X166743000Y-142159925D01*
X166743000Y-142320075D01*
X166711758Y-142477142D01*
X166650471Y-142625101D01*
X166561501Y-142758255D01*
X166448255Y-142871501D01*
X166315101Y-142960471D01*
X166167142Y-143021758D01*
X166010075Y-143053000D01*
X165849925Y-143053000D01*
X165692858Y-143021758D01*
X165544899Y-142960471D01*
X165411745Y-142871501D01*
X165298499Y-142758255D01*
X165209529Y-142625101D01*
X165148242Y-142477142D01*
X165117000Y-142320075D01*
X165117000Y-142159925D01*
X165148242Y-142002858D01*
X165209529Y-141854899D01*
X165298499Y-141721745D01*
X165411745Y-141608499D01*
X165544899Y-141519529D01*
X165692858Y-141458242D01*
X165849925Y-141427000D01*
X166010075Y-141427000D01*
X166167142Y-141458242D01*
G37*
G36*
X168707142Y-141458242D02*
G01*
X168855101Y-141519529D01*
X168988255Y-141608499D01*
X169101501Y-141721745D01*
X169190471Y-141854899D01*
X169251758Y-142002858D01*
X169283000Y-142159925D01*
X169283000Y-142320075D01*
X169251758Y-142477142D01*
X169190471Y-142625101D01*
X169101501Y-142758255D01*
X168988255Y-142871501D01*
X168855101Y-142960471D01*
X168707142Y-143021758D01*
X168550075Y-143053000D01*
X168389925Y-143053000D01*
X168232858Y-143021758D01*
X168084899Y-142960471D01*
X167951745Y-142871501D01*
X167838499Y-142758255D01*
X167749529Y-142625101D01*
X167688242Y-142477142D01*
X167657000Y-142320075D01*
X167657000Y-142159925D01*
X167688242Y-142002858D01*
X167749529Y-141854899D01*
X167838499Y-141721745D01*
X167951745Y-141608499D01*
X168084899Y-141519529D01*
X168232858Y-141458242D01*
X168389925Y-141427000D01*
X168550075Y-141427000D01*
X168707142Y-141458242D01*
G37*
G36*
X171247142Y-141458242D02*
G01*
X171395101Y-141519529D01*
X171528255Y-141608499D01*
X171641501Y-141721745D01*
X171730471Y-141854899D01*
X171791758Y-142002858D01*
X171823000Y-142159925D01*
X171823000Y-142320075D01*
X171791758Y-142477142D01*
X171730471Y-142625101D01*
X171641501Y-142758255D01*
X171528255Y-142871501D01*
X171395101Y-142960471D01*
X171247142Y-143021758D01*
X171090075Y-143053000D01*
X170929925Y-143053000D01*
X170772858Y-143021758D01*
X170624899Y-142960471D01*
X170491745Y-142871501D01*
X170378499Y-142758255D01*
X170289529Y-142625101D01*
X170228242Y-142477142D01*
X170197000Y-142320075D01*
X170197000Y-142159925D01*
X170228242Y-142002858D01*
X170289529Y-141854899D01*
X170378499Y-141721745D01*
X170491745Y-141608499D01*
X170624899Y-141519529D01*
X170772858Y-141458242D01*
X170929925Y-141427000D01*
X171090075Y-141427000D01*
X171247142Y-141458242D01*
G37*
G36*
X173787142Y-141458242D02*
G01*
X173935101Y-141519529D01*
X174068255Y-141608499D01*
X174181501Y-141721745D01*
X174270471Y-141854899D01*
X174331758Y-142002858D01*
X174363000Y-142159925D01*
X174363000Y-142320075D01*
X174331758Y-142477142D01*
X174270471Y-142625101D01*
X174181501Y-142758255D01*
X174068255Y-142871501D01*
X173935101Y-142960471D01*
X173787142Y-143021758D01*
X173630075Y-143053000D01*
X173469925Y-143053000D01*
X173312858Y-143021758D01*
X173164899Y-142960471D01*
X173031745Y-142871501D01*
X172918499Y-142758255D01*
X172829529Y-142625101D01*
X172768242Y-142477142D01*
X172737000Y-142320075D01*
X172737000Y-142159925D01*
X172768242Y-142002858D01*
X172829529Y-141854899D01*
X172918499Y-141721745D01*
X173031745Y-141608499D01*
X173164899Y-141519529D01*
X173312858Y-141458242D01*
X173469925Y-141427000D01*
X173630075Y-141427000D01*
X173787142Y-141458242D01*
G37*
G36*
X128067142Y-141458242D02*
G01*
X128215101Y-141519529D01*
X128348255Y-141608499D01*
X128461501Y-141721745D01*
X128550471Y-141854899D01*
X128611758Y-142002858D01*
X128643000Y-142159925D01*
X128643000Y-142320075D01*
X128611758Y-142477142D01*
X128550471Y-142625101D01*
X128461501Y-142758255D01*
X128348255Y-142871501D01*
X128215101Y-142960471D01*
X128067142Y-143021758D01*
X127910075Y-143053000D01*
X127749925Y-143053000D01*
X127592858Y-143021758D01*
X127444899Y-142960471D01*
X127311745Y-142871501D01*
X127198499Y-142758255D01*
X127109529Y-142625101D01*
X127048242Y-142477142D01*
X127017000Y-142320075D01*
X127017000Y-142159925D01*
X127048242Y-142002858D01*
X127109529Y-141854899D01*
X127198499Y-141721745D01*
X127311745Y-141608499D01*
X127444899Y-141519529D01*
X127592858Y-141458242D01*
X127749925Y-141427000D01*
X127910075Y-141427000D01*
X128067142Y-141458242D01*
G37*
G36*
X125527142Y-141458242D02*
G01*
X125675101Y-141519529D01*
X125808255Y-141608499D01*
X125921501Y-141721745D01*
X126010471Y-141854899D01*
X126071758Y-142002858D01*
X126103000Y-142159925D01*
X126103000Y-142320075D01*
X126071758Y-142477142D01*
X126010471Y-142625101D01*
X125921501Y-142758255D01*
X125808255Y-142871501D01*
X125675101Y-142960471D01*
X125527142Y-143021758D01*
X125370075Y-143053000D01*
X125209925Y-143053000D01*
X125052858Y-143021758D01*
X124904899Y-142960471D01*
X124771745Y-142871501D01*
X124658499Y-142758255D01*
X124569529Y-142625101D01*
X124508242Y-142477142D01*
X124477000Y-142320075D01*
X124477000Y-142159925D01*
X124508242Y-142002858D01*
X124569529Y-141854899D01*
X124658499Y-141721745D01*
X124771745Y-141608499D01*
X124904899Y-141519529D01*
X125052858Y-141458242D01*
X125209925Y-141427000D01*
X125370075Y-141427000D01*
X125527142Y-141458242D01*
G37*
G36*
X122987142Y-141458242D02*
G01*
X123135101Y-141519529D01*
X123268255Y-141608499D01*
X123381501Y-141721745D01*
X123470471Y-141854899D01*
X123531758Y-142002858D01*
X123563000Y-142159925D01*
X123563000Y-142320075D01*
X123531758Y-142477142D01*
X123470471Y-142625101D01*
X123381501Y-142758255D01*
X123268255Y-142871501D01*
X123135101Y-142960471D01*
X122987142Y-143021758D01*
X122830075Y-143053000D01*
X122669925Y-143053000D01*
X122512858Y-143021758D01*
X122364899Y-142960471D01*
X122231745Y-142871501D01*
X122118499Y-142758255D01*
X122029529Y-142625101D01*
X121968242Y-142477142D01*
X121937000Y-142320075D01*
X121937000Y-142159925D01*
X121968242Y-142002858D01*
X122029529Y-141854899D01*
X122118499Y-141721745D01*
X122231745Y-141608499D01*
X122364899Y-141519529D01*
X122512858Y-141458242D01*
X122669925Y-141427000D01*
X122830075Y-141427000D01*
X122987142Y-141458242D01*
G37*
G36*
X115367142Y-141458242D02*
G01*
X115515101Y-141519529D01*
X115648255Y-141608499D01*
X115761501Y-141721745D01*
X115850471Y-141854899D01*
X115911758Y-142002858D01*
X115943000Y-142159925D01*
X115943000Y-142320075D01*
X115911758Y-142477142D01*
X115850471Y-142625101D01*
X115761501Y-142758255D01*
X115648255Y-142871501D01*
X115515101Y-142960471D01*
X115367142Y-143021758D01*
X115210075Y-143053000D01*
X115049925Y-143053000D01*
X114892858Y-143021758D01*
X114744899Y-142960471D01*
X114611745Y-142871501D01*
X114498499Y-142758255D01*
X114409529Y-142625101D01*
X114348242Y-142477142D01*
X114317000Y-142320075D01*
X114317000Y-142159925D01*
X114348242Y-142002858D01*
X114409529Y-141854899D01*
X114498499Y-141721745D01*
X114611745Y-141608499D01*
X114744899Y-141519529D01*
X114892858Y-141458242D01*
X115049925Y-141427000D01*
X115210075Y-141427000D01*
X115367142Y-141458242D01*
G37*
G36*
X117907142Y-141458242D02*
G01*
X118055101Y-141519529D01*
X118188255Y-141608499D01*
X118301501Y-141721745D01*
X118390471Y-141854899D01*
X118451758Y-142002858D01*
X118483000Y-142159925D01*
X118483000Y-142320075D01*
X118451758Y-142477142D01*
X118390471Y-142625101D01*
X118301501Y-142758255D01*
X118188255Y-142871501D01*
X118055101Y-142960471D01*
X117907142Y-143021758D01*
X117750075Y-143053000D01*
X117589925Y-143053000D01*
X117432858Y-143021758D01*
X117284899Y-142960471D01*
X117151745Y-142871501D01*
X117038499Y-142758255D01*
X116949529Y-142625101D01*
X116888242Y-142477142D01*
X116857000Y-142320075D01*
X116857000Y-142159925D01*
X116888242Y-142002858D01*
X116949529Y-141854899D01*
X117038499Y-141721745D01*
X117151745Y-141608499D01*
X117284899Y-141519529D01*
X117432858Y-141458242D01*
X117589925Y-141427000D01*
X117750075Y-141427000D01*
X117907142Y-141458242D01*
G37*
G36*
X120447142Y-141458242D02*
G01*
X120595101Y-141519529D01*
X120728255Y-141608499D01*
X120841501Y-141721745D01*
X120930471Y-141854899D01*
X120991758Y-142002858D01*
X121023000Y-142159925D01*
X121023000Y-142320075D01*
X120991758Y-142477142D01*
X120930471Y-142625101D01*
X120841501Y-142758255D01*
X120728255Y-142871501D01*
X120595101Y-142960471D01*
X120447142Y-143021758D01*
X120290075Y-143053000D01*
X120129925Y-143053000D01*
X119972858Y-143021758D01*
X119824899Y-142960471D01*
X119691745Y-142871501D01*
X119578499Y-142758255D01*
X119489529Y-142625101D01*
X119428242Y-142477142D01*
X119397000Y-142320075D01*
X119397000Y-142159925D01*
X119428242Y-142002858D01*
X119489529Y-141854899D01*
X119578499Y-141721745D01*
X119691745Y-141608499D01*
X119824899Y-141519529D01*
X119972858Y-141458242D01*
X120129925Y-141427000D01*
X120290075Y-141427000D01*
X120447142Y-141458242D01*
G37*
G36*
X130211766Y-133301899D02*
G01*
X130343888Y-133356626D01*
X130343890Y-133356627D01*
X130462798Y-133436079D01*
X130563921Y-133537202D01*
X130563922Y-133537204D01*
X130643374Y-133656112D01*
X130698101Y-133788234D01*
X130726000Y-133928494D01*
X130726000Y-134071506D01*
X130698101Y-134211766D01*
X130643374Y-134343888D01*
X130643373Y-134343890D01*
X130563921Y-134462798D01*
X130462798Y-134563921D01*
X130343890Y-134643373D01*
X130343889Y-134643374D01*
X130343888Y-134643374D01*
X130211766Y-134698101D01*
X130071506Y-134726000D01*
X129928494Y-134726000D01*
X129788234Y-134698101D01*
X129656112Y-134643374D01*
X129656111Y-134643374D01*
X129656110Y-134643373D01*
X129537202Y-134563921D01*
X129436079Y-134462798D01*
X129356627Y-134343890D01*
X129356626Y-134343888D01*
X129301899Y-134211766D01*
X129274000Y-134071506D01*
X129274000Y-133928494D01*
X129301899Y-133788234D01*
X129356626Y-133656112D01*
X129436078Y-133537204D01*
X129436079Y-133537202D01*
X129537202Y-133436079D01*
X129656110Y-133356627D01*
X129656112Y-133356626D01*
X129788234Y-133301899D01*
X129928494Y-133274000D01*
X130071506Y-133274000D01*
X130211766Y-133301899D01*
G37*
G36*
X128211766Y-133301899D02*
G01*
X128343888Y-133356626D01*
X128343890Y-133356627D01*
X128462798Y-133436079D01*
X128563921Y-133537202D01*
X128563922Y-133537204D01*
X128643374Y-133656112D01*
X128698101Y-133788234D01*
X128726000Y-133928494D01*
X128726000Y-134071506D01*
X128698101Y-134211766D01*
X128643374Y-134343888D01*
X128643373Y-134343890D01*
X128563921Y-134462798D01*
X128462798Y-134563921D01*
X128343890Y-134643373D01*
X128343889Y-134643374D01*
X128343888Y-134643374D01*
X128211766Y-134698101D01*
X128071506Y-134726000D01*
X127928494Y-134726000D01*
X127788234Y-134698101D01*
X127656112Y-134643374D01*
X127656111Y-134643374D01*
X127656110Y-134643373D01*
X127537202Y-134563921D01*
X127436079Y-134462798D01*
X127356627Y-134343890D01*
X127356626Y-134343888D01*
X127301899Y-134211766D01*
X127274000Y-134071506D01*
X127274000Y-133928494D01*
X127301899Y-133788234D01*
X127356626Y-133656112D01*
X127436078Y-133537204D01*
X127436079Y-133537202D01*
X127537202Y-133436079D01*
X127656110Y-133356627D01*
X127656112Y-133356626D01*
X127788234Y-133301899D01*
X127928494Y-133274000D01*
X128071506Y-133274000D01*
X128211766Y-133301899D01*
G37*
G36*
X130211766Y-131301899D02*
G01*
X130343888Y-131356626D01*
X130343890Y-131356627D01*
X130462798Y-131436079D01*
X130563921Y-131537202D01*
X130563922Y-131537204D01*
X130643374Y-131656112D01*
X130698101Y-131788234D01*
X130726000Y-131928494D01*
X130726000Y-132071506D01*
X130698101Y-132211766D01*
X130643374Y-132343888D01*
X130643373Y-132343890D01*
X130563921Y-132462798D01*
X130462798Y-132563921D01*
X130343890Y-132643373D01*
X130343889Y-132643374D01*
X130343888Y-132643374D01*
X130211766Y-132698101D01*
X130071506Y-132726000D01*
X129928494Y-132726000D01*
X129788234Y-132698101D01*
X129656112Y-132643374D01*
X129656111Y-132643374D01*
X129656110Y-132643373D01*
X129537202Y-132563921D01*
X129436079Y-132462798D01*
X129356627Y-132343890D01*
X129356626Y-132343888D01*
X129301899Y-132211766D01*
X129274000Y-132071506D01*
X129274000Y-131928494D01*
X129301899Y-131788234D01*
X129356626Y-131656112D01*
X129436078Y-131537204D01*
X129436079Y-131537202D01*
X129537202Y-131436079D01*
X129656110Y-131356627D01*
X129656112Y-131356626D01*
X129788234Y-131301899D01*
X129928494Y-131274000D01*
X130071506Y-131274000D01*
X130211766Y-131301899D01*
G37*
G36*
X128211766Y-131301899D02*
G01*
X128343888Y-131356626D01*
X128343890Y-131356627D01*
X128462798Y-131436079D01*
X128563921Y-131537202D01*
X128563922Y-131537204D01*
X128643374Y-131656112D01*
X128698101Y-131788234D01*
X128726000Y-131928494D01*
X128726000Y-132071506D01*
X128698101Y-132211766D01*
X128643374Y-132343888D01*
X128643373Y-132343890D01*
X128563921Y-132462798D01*
X128462798Y-132563921D01*
X128343890Y-132643373D01*
X128343889Y-132643374D01*
X128343888Y-132643374D01*
X128211766Y-132698101D01*
X128071506Y-132726000D01*
X127928494Y-132726000D01*
X127788234Y-132698101D01*
X127656112Y-132643374D01*
X127656111Y-132643374D01*
X127656110Y-132643373D01*
X127537202Y-132563921D01*
X127436079Y-132462798D01*
X127356627Y-132343890D01*
X127356626Y-132343888D01*
X127301899Y-132211766D01*
X127274000Y-132071506D01*
X127274000Y-131928494D01*
X127301899Y-131788234D01*
X127356626Y-131656112D01*
X127436078Y-131537204D01*
X127436079Y-131537202D01*
X127537202Y-131436079D01*
X127656110Y-131356627D01*
X127656112Y-131356626D01*
X127788234Y-131301899D01*
X127928494Y-131274000D01*
X128071506Y-131274000D01*
X128211766Y-131301899D01*
G37*
G36*
X128726000Y-130726000D02*
G01*
X127274000Y-130726000D01*
X127274000Y-129274000D01*
X128726000Y-129274000D01*
X128726000Y-130726000D01*
G37*
G36*
X130211766Y-129301899D02*
G01*
X130343888Y-129356626D01*
X130343890Y-129356627D01*
X130462798Y-129436079D01*
X130563921Y-129537202D01*
X130563922Y-129537204D01*
X130643374Y-129656112D01*
X130698101Y-129788234D01*
X130726000Y-129928494D01*
X130726000Y-130071506D01*
X130698101Y-130211766D01*
X130643374Y-130343888D01*
X130643373Y-130343890D01*
X130563921Y-130462798D01*
X130462798Y-130563921D01*
X130343890Y-130643373D01*
X130343889Y-130643374D01*
X130343888Y-130643374D01*
X130211766Y-130698101D01*
X130071506Y-130726000D01*
X129928494Y-130726000D01*
X129788234Y-130698101D01*
X129656112Y-130643374D01*
X129656111Y-130643374D01*
X129656110Y-130643373D01*
X129537202Y-130563921D01*
X129436079Y-130462798D01*
X129356627Y-130343890D01*
X129356626Y-130343888D01*
X129301899Y-130211766D01*
X129274000Y-130071506D01*
X129274000Y-129928494D01*
X129301899Y-129788234D01*
X129356626Y-129656112D01*
X129436078Y-129537204D01*
X129436079Y-129537202D01*
X129537202Y-129436079D01*
X129656110Y-129356627D01*
X129656112Y-129356626D01*
X129788234Y-129301899D01*
X129928494Y-129274000D01*
X130071506Y-129274000D01*
X130211766Y-129301899D01*
G37*
G36*
X208248228Y-127181703D02*
G01*
X208403100Y-127245853D01*
X208542481Y-127338985D01*
X208661015Y-127457519D01*
X208754147Y-127596900D01*
X208818297Y-127751772D01*
X208851000Y-127916184D01*
X208851000Y-128083816D01*
X208818297Y-128248228D01*
X208754147Y-128403100D01*
X208661015Y-128542481D01*
X208542481Y-128661015D01*
X208403100Y-128754147D01*
X208248228Y-128818297D01*
X208083816Y-128851000D01*
X207916184Y-128851000D01*
X207751772Y-128818297D01*
X207596900Y-128754147D01*
X207457519Y-128661015D01*
X207338985Y-128542481D01*
X207245853Y-128403100D01*
X207181703Y-128248228D01*
X207149000Y-128083816D01*
X207149000Y-127916184D01*
X207181703Y-127751772D01*
X207245853Y-127596900D01*
X207338985Y-127457519D01*
X207457519Y-127338985D01*
X207596900Y-127245853D01*
X207751772Y-127181703D01*
X207916184Y-127149000D01*
X208083816Y-127149000D01*
X208248228Y-127181703D01*
G37*
G36*
X206851000Y-128851000D02*
G01*
X205149000Y-128851000D01*
X205149000Y-127149000D01*
X206851000Y-127149000D01*
X206851000Y-128851000D01*
G37*
G36*
X196248228Y-127181703D02*
G01*
X196403100Y-127245853D01*
X196542481Y-127338985D01*
X196661015Y-127457519D01*
X196754147Y-127596900D01*
X196818297Y-127751772D01*
X196851000Y-127916184D01*
X196851000Y-128083816D01*
X196818297Y-128248228D01*
X196754147Y-128403100D01*
X196661015Y-128542481D01*
X196542481Y-128661015D01*
X196403100Y-128754147D01*
X196248228Y-128818297D01*
X196083816Y-128851000D01*
X195916184Y-128851000D01*
X195751772Y-128818297D01*
X195596900Y-128754147D01*
X195457519Y-128661015D01*
X195338985Y-128542481D01*
X195245853Y-128403100D01*
X195181703Y-128248228D01*
X195149000Y-128083816D01*
X195149000Y-127916184D01*
X195181703Y-127751772D01*
X195245853Y-127596900D01*
X195338985Y-127457519D01*
X195457519Y-127338985D01*
X195596900Y-127245853D01*
X195751772Y-127181703D01*
X195916184Y-127149000D01*
X196083816Y-127149000D01*
X196248228Y-127181703D01*
G37*
G36*
X194851000Y-128851000D02*
G01*
X193149000Y-128851000D01*
X193149000Y-127149000D01*
X194851000Y-127149000D01*
X194851000Y-128851000D01*
G37*
G36*
X145847142Y-126218242D02*
G01*
X145995101Y-126279529D01*
X146128255Y-126368499D01*
X146241501Y-126481745D01*
X146330471Y-126614899D01*
X146391758Y-126762858D01*
X146423000Y-126919925D01*
X146423000Y-127080075D01*
X146391758Y-127237142D01*
X146330471Y-127385101D01*
X146241501Y-127518255D01*
X146128255Y-127631501D01*
X145995101Y-127720471D01*
X145847142Y-127781758D01*
X145690075Y-127813000D01*
X145529925Y-127813000D01*
X145372858Y-127781758D01*
X145224899Y-127720471D01*
X145091745Y-127631501D01*
X144978499Y-127518255D01*
X144889529Y-127385101D01*
X144828242Y-127237142D01*
X144797000Y-127080075D01*
X144797000Y-126919925D01*
X144828242Y-126762858D01*
X144889529Y-126614899D01*
X144978499Y-126481745D01*
X145091745Y-126368499D01*
X145224899Y-126279529D01*
X145372858Y-126218242D01*
X145529925Y-126187000D01*
X145690075Y-126187000D01*
X145847142Y-126218242D01*
G37*
G36*
X117907142Y-126218242D02*
G01*
X118055101Y-126279529D01*
X118188255Y-126368499D01*
X118301501Y-126481745D01*
X118390471Y-126614899D01*
X118451758Y-126762858D01*
X118483000Y-126919925D01*
X118483000Y-127080075D01*
X118451758Y-127237142D01*
X118390471Y-127385101D01*
X118301501Y-127518255D01*
X118188255Y-127631501D01*
X118055101Y-127720471D01*
X117907142Y-127781758D01*
X117750075Y-127813000D01*
X117589925Y-127813000D01*
X117432858Y-127781758D01*
X117284899Y-127720471D01*
X117151745Y-127631501D01*
X117038499Y-127518255D01*
X116949529Y-127385101D01*
X116888242Y-127237142D01*
X116857000Y-127080075D01*
X116857000Y-126919925D01*
X116888242Y-126762858D01*
X116949529Y-126614899D01*
X117038499Y-126481745D01*
X117151745Y-126368499D01*
X117284899Y-126279529D01*
X117432858Y-126218242D01*
X117589925Y-126187000D01*
X117750075Y-126187000D01*
X117907142Y-126218242D01*
G37*
G36*
X150927142Y-126218242D02*
G01*
X151075101Y-126279529D01*
X151208255Y-126368499D01*
X151321501Y-126481745D01*
X151410471Y-126614899D01*
X151471758Y-126762858D01*
X151503000Y-126919925D01*
X151503000Y-127080075D01*
X151471758Y-127237142D01*
X151410471Y-127385101D01*
X151321501Y-127518255D01*
X151208255Y-127631501D01*
X151075101Y-127720471D01*
X150927142Y-127781758D01*
X150770075Y-127813000D01*
X150609925Y-127813000D01*
X150452858Y-127781758D01*
X150304899Y-127720471D01*
X150171745Y-127631501D01*
X150058499Y-127518255D01*
X149969529Y-127385101D01*
X149908242Y-127237142D01*
X149877000Y-127080075D01*
X149877000Y-126919925D01*
X149908242Y-126762858D01*
X149969529Y-126614899D01*
X150058499Y-126481745D01*
X150171745Y-126368499D01*
X150304899Y-126279529D01*
X150452858Y-126218242D01*
X150609925Y-126187000D01*
X150770075Y-126187000D01*
X150927142Y-126218242D01*
G37*
G36*
X115367142Y-126218242D02*
G01*
X115515101Y-126279529D01*
X115648255Y-126368499D01*
X115761501Y-126481745D01*
X115850471Y-126614899D01*
X115911758Y-126762858D01*
X115943000Y-126919925D01*
X115943000Y-127080075D01*
X115911758Y-127237142D01*
X115850471Y-127385101D01*
X115761501Y-127518255D01*
X115648255Y-127631501D01*
X115515101Y-127720471D01*
X115367142Y-127781758D01*
X115210075Y-127813000D01*
X115049925Y-127813000D01*
X114892858Y-127781758D01*
X114744899Y-127720471D01*
X114611745Y-127631501D01*
X114498499Y-127518255D01*
X114409529Y-127385101D01*
X114348242Y-127237142D01*
X114317000Y-127080075D01*
X114317000Y-126919925D01*
X114348242Y-126762858D01*
X114409529Y-126614899D01*
X114498499Y-126481745D01*
X114611745Y-126368499D01*
X114744899Y-126279529D01*
X114892858Y-126218242D01*
X115049925Y-126187000D01*
X115210075Y-126187000D01*
X115367142Y-126218242D01*
G37*
G36*
X120447142Y-126218242D02*
G01*
X120595101Y-126279529D01*
X120728255Y-126368499D01*
X120841501Y-126481745D01*
X120930471Y-126614899D01*
X120991758Y-126762858D01*
X121023000Y-126919925D01*
X121023000Y-127080075D01*
X120991758Y-127237142D01*
X120930471Y-127385101D01*
X120841501Y-127518255D01*
X120728255Y-127631501D01*
X120595101Y-127720471D01*
X120447142Y-127781758D01*
X120290075Y-127813000D01*
X120129925Y-127813000D01*
X119972858Y-127781758D01*
X119824899Y-127720471D01*
X119691745Y-127631501D01*
X119578499Y-127518255D01*
X119489529Y-127385101D01*
X119428242Y-127237142D01*
X119397000Y-127080075D01*
X119397000Y-126919925D01*
X119428242Y-126762858D01*
X119489529Y-126614899D01*
X119578499Y-126481745D01*
X119691745Y-126368499D01*
X119824899Y-126279529D01*
X119972858Y-126218242D01*
X120129925Y-126187000D01*
X120290075Y-126187000D01*
X120447142Y-126218242D01*
G37*
G36*
X122987142Y-126218242D02*
G01*
X123135101Y-126279529D01*
X123268255Y-126368499D01*
X123381501Y-126481745D01*
X123470471Y-126614899D01*
X123531758Y-126762858D01*
X123563000Y-126919925D01*
X123563000Y-127080075D01*
X123531758Y-127237142D01*
X123470471Y-127385101D01*
X123381501Y-127518255D01*
X123268255Y-127631501D01*
X123135101Y-127720471D01*
X122987142Y-127781758D01*
X122830075Y-127813000D01*
X122669925Y-127813000D01*
X122512858Y-127781758D01*
X122364899Y-127720471D01*
X122231745Y-127631501D01*
X122118499Y-127518255D01*
X122029529Y-127385101D01*
X121968242Y-127237142D01*
X121937000Y-127080075D01*
X121937000Y-126919925D01*
X121968242Y-126762858D01*
X122029529Y-126614899D01*
X122118499Y-126481745D01*
X122231745Y-126368499D01*
X122364899Y-126279529D01*
X122512858Y-126218242D01*
X122669925Y-126187000D01*
X122830075Y-126187000D01*
X122987142Y-126218242D01*
G37*
G36*
X125527142Y-126218242D02*
G01*
X125675101Y-126279529D01*
X125808255Y-126368499D01*
X125921501Y-126481745D01*
X126010471Y-126614899D01*
X126071758Y-126762858D01*
X126103000Y-126919925D01*
X126103000Y-127080075D01*
X126071758Y-127237142D01*
X126010471Y-127385101D01*
X125921501Y-127518255D01*
X125808255Y-127631501D01*
X125675101Y-127720471D01*
X125527142Y-127781758D01*
X125370075Y-127813000D01*
X125209925Y-127813000D01*
X125052858Y-127781758D01*
X124904899Y-127720471D01*
X124771745Y-127631501D01*
X124658499Y-127518255D01*
X124569529Y-127385101D01*
X124508242Y-127237142D01*
X124477000Y-127080075D01*
X124477000Y-126919925D01*
X124508242Y-126762858D01*
X124569529Y-126614899D01*
X124658499Y-126481745D01*
X124771745Y-126368499D01*
X124904899Y-126279529D01*
X125052858Y-126218242D01*
X125209925Y-126187000D01*
X125370075Y-126187000D01*
X125527142Y-126218242D01*
G37*
G36*
X128067142Y-126218242D02*
G01*
X128215101Y-126279529D01*
X128348255Y-126368499D01*
X128461501Y-126481745D01*
X128550471Y-126614899D01*
X128611758Y-126762858D01*
X128643000Y-126919925D01*
X128643000Y-127080075D01*
X128611758Y-127237142D01*
X128550471Y-127385101D01*
X128461501Y-127518255D01*
X128348255Y-127631501D01*
X128215101Y-127720471D01*
X128067142Y-127781758D01*
X127910075Y-127813000D01*
X127749925Y-127813000D01*
X127592858Y-127781758D01*
X127444899Y-127720471D01*
X127311745Y-127631501D01*
X127198499Y-127518255D01*
X127109529Y-127385101D01*
X127048242Y-127237142D01*
X127017000Y-127080075D01*
X127017000Y-126919925D01*
X127048242Y-126762858D01*
X127109529Y-126614899D01*
X127198499Y-126481745D01*
X127311745Y-126368499D01*
X127444899Y-126279529D01*
X127592858Y-126218242D01*
X127749925Y-126187000D01*
X127910075Y-126187000D01*
X128067142Y-126218242D01*
G37*
G36*
X130607142Y-126218242D02*
G01*
X130755101Y-126279529D01*
X130888255Y-126368499D01*
X131001501Y-126481745D01*
X131090471Y-126614899D01*
X131151758Y-126762858D01*
X131183000Y-126919925D01*
X131183000Y-127080075D01*
X131151758Y-127237142D01*
X131090471Y-127385101D01*
X131001501Y-127518255D01*
X130888255Y-127631501D01*
X130755101Y-127720471D01*
X130607142Y-127781758D01*
X130450075Y-127813000D01*
X130289925Y-127813000D01*
X130132858Y-127781758D01*
X129984899Y-127720471D01*
X129851745Y-127631501D01*
X129738499Y-127518255D01*
X129649529Y-127385101D01*
X129588242Y-127237142D01*
X129557000Y-127080075D01*
X129557000Y-126919925D01*
X129588242Y-126762858D01*
X129649529Y-126614899D01*
X129738499Y-126481745D01*
X129851745Y-126368499D01*
X129984899Y-126279529D01*
X130132858Y-126218242D01*
X130289925Y-126187000D01*
X130450075Y-126187000D01*
X130607142Y-126218242D01*
G37*
G36*
X153467142Y-126218242D02*
G01*
X153615101Y-126279529D01*
X153748255Y-126368499D01*
X153861501Y-126481745D01*
X153950471Y-126614899D01*
X154011758Y-126762858D01*
X154043000Y-126919925D01*
X154043000Y-127080075D01*
X154011758Y-127237142D01*
X153950471Y-127385101D01*
X153861501Y-127518255D01*
X153748255Y-127631501D01*
X153615101Y-127720471D01*
X153467142Y-127781758D01*
X153310075Y-127813000D01*
X153149925Y-127813000D01*
X152992858Y-127781758D01*
X152844899Y-127720471D01*
X152711745Y-127631501D01*
X152598499Y-127518255D01*
X152509529Y-127385101D01*
X152448242Y-127237142D01*
X152417000Y-127080075D01*
X152417000Y-126919925D01*
X152448242Y-126762858D01*
X152509529Y-126614899D01*
X152598499Y-126481745D01*
X152711745Y-126368499D01*
X152844899Y-126279529D01*
X152992858Y-126218242D01*
X153149925Y-126187000D01*
X153310075Y-126187000D01*
X153467142Y-126218242D01*
G37*
G36*
X135687142Y-126218242D02*
G01*
X135835101Y-126279529D01*
X135968255Y-126368499D01*
X136081501Y-126481745D01*
X136170471Y-126614899D01*
X136231758Y-126762858D01*
X136263000Y-126919925D01*
X136263000Y-127080075D01*
X136231758Y-127237142D01*
X136170471Y-127385101D01*
X136081501Y-127518255D01*
X135968255Y-127631501D01*
X135835101Y-127720471D01*
X135687142Y-127781758D01*
X135530075Y-127813000D01*
X135369925Y-127813000D01*
X135212858Y-127781758D01*
X135064899Y-127720471D01*
X134931745Y-127631501D01*
X134818499Y-127518255D01*
X134729529Y-127385101D01*
X134668242Y-127237142D01*
X134637000Y-127080075D01*
X134637000Y-126919925D01*
X134668242Y-126762858D01*
X134729529Y-126614899D01*
X134818499Y-126481745D01*
X134931745Y-126368499D01*
X135064899Y-126279529D01*
X135212858Y-126218242D01*
X135369925Y-126187000D01*
X135530075Y-126187000D01*
X135687142Y-126218242D01*
G37*
G36*
X140767142Y-126218242D02*
G01*
X140915101Y-126279529D01*
X141048255Y-126368499D01*
X141161501Y-126481745D01*
X141250471Y-126614899D01*
X141311758Y-126762858D01*
X141343000Y-126919925D01*
X141343000Y-127080075D01*
X141311758Y-127237142D01*
X141250471Y-127385101D01*
X141161501Y-127518255D01*
X141048255Y-127631501D01*
X140915101Y-127720471D01*
X140767142Y-127781758D01*
X140610075Y-127813000D01*
X140449925Y-127813000D01*
X140292858Y-127781758D01*
X140144899Y-127720471D01*
X140011745Y-127631501D01*
X139898499Y-127518255D01*
X139809529Y-127385101D01*
X139748242Y-127237142D01*
X139717000Y-127080075D01*
X139717000Y-126919925D01*
X139748242Y-126762858D01*
X139809529Y-126614899D01*
X139898499Y-126481745D01*
X140011745Y-126368499D01*
X140144899Y-126279529D01*
X140292858Y-126218242D01*
X140449925Y-126187000D01*
X140610075Y-126187000D01*
X140767142Y-126218242D01*
G37*
G36*
X161087142Y-126218242D02*
G01*
X161235101Y-126279529D01*
X161368255Y-126368499D01*
X161481501Y-126481745D01*
X161570471Y-126614899D01*
X161631758Y-126762858D01*
X161663000Y-126919925D01*
X161663000Y-127080075D01*
X161631758Y-127237142D01*
X161570471Y-127385101D01*
X161481501Y-127518255D01*
X161368255Y-127631501D01*
X161235101Y-127720471D01*
X161087142Y-127781758D01*
X160930075Y-127813000D01*
X160769925Y-127813000D01*
X160612858Y-127781758D01*
X160464899Y-127720471D01*
X160331745Y-127631501D01*
X160218499Y-127518255D01*
X160129529Y-127385101D01*
X160068242Y-127237142D01*
X160037000Y-127080075D01*
X160037000Y-126919925D01*
X160068242Y-126762858D01*
X160129529Y-126614899D01*
X160218499Y-126481745D01*
X160331745Y-126368499D01*
X160464899Y-126279529D01*
X160612858Y-126218242D01*
X160769925Y-126187000D01*
X160930075Y-126187000D01*
X161087142Y-126218242D01*
G37*
G36*
X148387142Y-126218242D02*
G01*
X148535101Y-126279529D01*
X148668255Y-126368499D01*
X148781501Y-126481745D01*
X148870471Y-126614899D01*
X148931758Y-126762858D01*
X148963000Y-126919925D01*
X148963000Y-127080075D01*
X148931758Y-127237142D01*
X148870471Y-127385101D01*
X148781501Y-127518255D01*
X148668255Y-127631501D01*
X148535101Y-127720471D01*
X148387142Y-127781758D01*
X148230075Y-127813000D01*
X148069925Y-127813000D01*
X147912858Y-127781758D01*
X147764899Y-127720471D01*
X147631745Y-127631501D01*
X147518499Y-127518255D01*
X147429529Y-127385101D01*
X147368242Y-127237142D01*
X147337000Y-127080075D01*
X147337000Y-126919925D01*
X147368242Y-126762858D01*
X147429529Y-126614899D01*
X147518499Y-126481745D01*
X147631745Y-126368499D01*
X147764899Y-126279529D01*
X147912858Y-126218242D01*
X148069925Y-126187000D01*
X148230075Y-126187000D01*
X148387142Y-126218242D01*
G37*
G36*
X173787142Y-126218242D02*
G01*
X173935101Y-126279529D01*
X174068255Y-126368499D01*
X174181501Y-126481745D01*
X174270471Y-126614899D01*
X174331758Y-126762858D01*
X174363000Y-126919925D01*
X174363000Y-127080075D01*
X174331758Y-127237142D01*
X174270471Y-127385101D01*
X174181501Y-127518255D01*
X174068255Y-127631501D01*
X173935101Y-127720471D01*
X173787142Y-127781758D01*
X173630075Y-127813000D01*
X173469925Y-127813000D01*
X173312858Y-127781758D01*
X173164899Y-127720471D01*
X173031745Y-127631501D01*
X172918499Y-127518255D01*
X172829529Y-127385101D01*
X172768242Y-127237142D01*
X172737000Y-127080075D01*
X172737000Y-126919925D01*
X172768242Y-126762858D01*
X172829529Y-126614899D01*
X172918499Y-126481745D01*
X173031745Y-126368499D01*
X173164899Y-126279529D01*
X173312858Y-126218242D01*
X173469925Y-126187000D01*
X173630075Y-126187000D01*
X173787142Y-126218242D01*
G37*
G36*
X138227142Y-126218242D02*
G01*
X138375101Y-126279529D01*
X138508255Y-126368499D01*
X138621501Y-126481745D01*
X138710471Y-126614899D01*
X138771758Y-126762858D01*
X138803000Y-126919925D01*
X138803000Y-127080075D01*
X138771758Y-127237142D01*
X138710471Y-127385101D01*
X138621501Y-127518255D01*
X138508255Y-127631501D01*
X138375101Y-127720471D01*
X138227142Y-127781758D01*
X138070075Y-127813000D01*
X137909925Y-127813000D01*
X137752858Y-127781758D01*
X137604899Y-127720471D01*
X137471745Y-127631501D01*
X137358499Y-127518255D01*
X137269529Y-127385101D01*
X137208242Y-127237142D01*
X137177000Y-127080075D01*
X137177000Y-126919925D01*
X137208242Y-126762858D01*
X137269529Y-126614899D01*
X137358499Y-126481745D01*
X137471745Y-126368499D01*
X137604899Y-126279529D01*
X137752858Y-126218242D01*
X137909925Y-126187000D01*
X138070075Y-126187000D01*
X138227142Y-126218242D01*
G37*
G36*
X166167142Y-126218242D02*
G01*
X166315101Y-126279529D01*
X166448255Y-126368499D01*
X166561501Y-126481745D01*
X166650471Y-126614899D01*
X166711758Y-126762858D01*
X166743000Y-126919925D01*
X166743000Y-127080075D01*
X166711758Y-127237142D01*
X166650471Y-127385101D01*
X166561501Y-127518255D01*
X166448255Y-127631501D01*
X166315101Y-127720471D01*
X166167142Y-127781758D01*
X166010075Y-127813000D01*
X165849925Y-127813000D01*
X165692858Y-127781758D01*
X165544899Y-127720471D01*
X165411745Y-127631501D01*
X165298499Y-127518255D01*
X165209529Y-127385101D01*
X165148242Y-127237142D01*
X165117000Y-127080075D01*
X165117000Y-126919925D01*
X165148242Y-126762858D01*
X165209529Y-126614899D01*
X165298499Y-126481745D01*
X165411745Y-126368499D01*
X165544899Y-126279529D01*
X165692858Y-126218242D01*
X165849925Y-126187000D01*
X166010075Y-126187000D01*
X166167142Y-126218242D01*
G37*
G36*
X163627142Y-126218242D02*
G01*
X163775101Y-126279529D01*
X163908255Y-126368499D01*
X164021501Y-126481745D01*
X164110471Y-126614899D01*
X164171758Y-126762858D01*
X164203000Y-126919925D01*
X164203000Y-127080075D01*
X164171758Y-127237142D01*
X164110471Y-127385101D01*
X164021501Y-127518255D01*
X163908255Y-127631501D01*
X163775101Y-127720471D01*
X163627142Y-127781758D01*
X163470075Y-127813000D01*
X163309925Y-127813000D01*
X163152858Y-127781758D01*
X163004899Y-127720471D01*
X162871745Y-127631501D01*
X162758499Y-127518255D01*
X162669529Y-127385101D01*
X162608242Y-127237142D01*
X162577000Y-127080075D01*
X162577000Y-126919925D01*
X162608242Y-126762858D01*
X162669529Y-126614899D01*
X162758499Y-126481745D01*
X162871745Y-126368499D01*
X163004899Y-126279529D01*
X163152858Y-126218242D01*
X163309925Y-126187000D01*
X163470075Y-126187000D01*
X163627142Y-126218242D01*
G37*
G36*
X156007142Y-126218242D02*
G01*
X156155101Y-126279529D01*
X156288255Y-126368499D01*
X156401501Y-126481745D01*
X156490471Y-126614899D01*
X156551758Y-126762858D01*
X156583000Y-126919925D01*
X156583000Y-127080075D01*
X156551758Y-127237142D01*
X156490471Y-127385101D01*
X156401501Y-127518255D01*
X156288255Y-127631501D01*
X156155101Y-127720471D01*
X156007142Y-127781758D01*
X155850075Y-127813000D01*
X155689925Y-127813000D01*
X155532858Y-127781758D01*
X155384899Y-127720471D01*
X155251745Y-127631501D01*
X155138499Y-127518255D01*
X155049529Y-127385101D01*
X154988242Y-127237142D01*
X154957000Y-127080075D01*
X154957000Y-126919925D01*
X154988242Y-126762858D01*
X155049529Y-126614899D01*
X155138499Y-126481745D01*
X155251745Y-126368499D01*
X155384899Y-126279529D01*
X155532858Y-126218242D01*
X155689925Y-126187000D01*
X155850075Y-126187000D01*
X156007142Y-126218242D01*
G37*
G36*
X133147142Y-126218242D02*
G01*
X133295101Y-126279529D01*
X133428255Y-126368499D01*
X133541501Y-126481745D01*
X133630471Y-126614899D01*
X133691758Y-126762858D01*
X133723000Y-126919925D01*
X133723000Y-127080075D01*
X133691758Y-127237142D01*
X133630471Y-127385101D01*
X133541501Y-127518255D01*
X133428255Y-127631501D01*
X133295101Y-127720471D01*
X133147142Y-127781758D01*
X132990075Y-127813000D01*
X132829925Y-127813000D01*
X132672858Y-127781758D01*
X132524899Y-127720471D01*
X132391745Y-127631501D01*
X132278499Y-127518255D01*
X132189529Y-127385101D01*
X132128242Y-127237142D01*
X132097000Y-127080075D01*
X132097000Y-126919925D01*
X132128242Y-126762858D01*
X132189529Y-126614899D01*
X132278499Y-126481745D01*
X132391745Y-126368499D01*
X132524899Y-126279529D01*
X132672858Y-126218242D01*
X132829925Y-126187000D01*
X132990075Y-126187000D01*
X133147142Y-126218242D01*
G37*
G36*
X143307142Y-126218242D02*
G01*
X143455101Y-126279529D01*
X143588255Y-126368499D01*
X143701501Y-126481745D01*
X143790471Y-126614899D01*
X143851758Y-126762858D01*
X143883000Y-126919925D01*
X143883000Y-127080075D01*
X143851758Y-127237142D01*
X143790471Y-127385101D01*
X143701501Y-127518255D01*
X143588255Y-127631501D01*
X143455101Y-127720471D01*
X143307142Y-127781758D01*
X143150075Y-127813000D01*
X142989925Y-127813000D01*
X142832858Y-127781758D01*
X142684899Y-127720471D01*
X142551745Y-127631501D01*
X142438499Y-127518255D01*
X142349529Y-127385101D01*
X142288242Y-127237142D01*
X142257000Y-127080075D01*
X142257000Y-126919925D01*
X142288242Y-126762858D01*
X142349529Y-126614899D01*
X142438499Y-126481745D01*
X142551745Y-126368499D01*
X142684899Y-126279529D01*
X142832858Y-126218242D01*
X142989925Y-126187000D01*
X143150075Y-126187000D01*
X143307142Y-126218242D01*
G37*
G36*
X171247142Y-126218242D02*
G01*
X171395101Y-126279529D01*
X171528255Y-126368499D01*
X171641501Y-126481745D01*
X171730471Y-126614899D01*
X171791758Y-126762858D01*
X171823000Y-126919925D01*
X171823000Y-127080075D01*
X171791758Y-127237142D01*
X171730471Y-127385101D01*
X171641501Y-127518255D01*
X171528255Y-127631501D01*
X171395101Y-127720471D01*
X171247142Y-127781758D01*
X171090075Y-127813000D01*
X170929925Y-127813000D01*
X170772858Y-127781758D01*
X170624899Y-127720471D01*
X170491745Y-127631501D01*
X170378499Y-127518255D01*
X170289529Y-127385101D01*
X170228242Y-127237142D01*
X170197000Y-127080075D01*
X170197000Y-126919925D01*
X170228242Y-126762858D01*
X170289529Y-126614899D01*
X170378499Y-126481745D01*
X170491745Y-126368499D01*
X170624899Y-126279529D01*
X170772858Y-126218242D01*
X170929925Y-126187000D01*
X171090075Y-126187000D01*
X171247142Y-126218242D01*
G37*
G36*
X158547142Y-126218242D02*
G01*
X158695101Y-126279529D01*
X158828255Y-126368499D01*
X158941501Y-126481745D01*
X159030471Y-126614899D01*
X159091758Y-126762858D01*
X159123000Y-126919925D01*
X159123000Y-127080075D01*
X159091758Y-127237142D01*
X159030471Y-127385101D01*
X158941501Y-127518255D01*
X158828255Y-127631501D01*
X158695101Y-127720471D01*
X158547142Y-127781758D01*
X158390075Y-127813000D01*
X158229925Y-127813000D01*
X158072858Y-127781758D01*
X157924899Y-127720471D01*
X157791745Y-127631501D01*
X157678499Y-127518255D01*
X157589529Y-127385101D01*
X157528242Y-127237142D01*
X157497000Y-127080075D01*
X157497000Y-126919925D01*
X157528242Y-126762858D01*
X157589529Y-126614899D01*
X157678499Y-126481745D01*
X157791745Y-126368499D01*
X157924899Y-126279529D01*
X158072858Y-126218242D01*
X158229925Y-126187000D01*
X158390075Y-126187000D01*
X158547142Y-126218242D01*
G37*
G36*
X168707142Y-126218242D02*
G01*
X168855101Y-126279529D01*
X168988255Y-126368499D01*
X169101501Y-126481745D01*
X169190471Y-126614899D01*
X169251758Y-126762858D01*
X169283000Y-126919925D01*
X169283000Y-127080075D01*
X169251758Y-127237142D01*
X169190471Y-127385101D01*
X169101501Y-127518255D01*
X168988255Y-127631501D01*
X168855101Y-127720471D01*
X168707142Y-127781758D01*
X168550075Y-127813000D01*
X168389925Y-127813000D01*
X168232858Y-127781758D01*
X168084899Y-127720471D01*
X167951745Y-127631501D01*
X167838499Y-127518255D01*
X167749529Y-127385101D01*
X167688242Y-127237142D01*
X167657000Y-127080075D01*
X167657000Y-126919925D01*
X167688242Y-126762858D01*
X167749529Y-126614899D01*
X167838499Y-126481745D01*
X167951745Y-126368499D01*
X168084899Y-126279529D01*
X168232858Y-126218242D01*
X168389925Y-126187000D01*
X168550075Y-126187000D01*
X168707142Y-126218242D01*
G37*
G36*
X176561000Y-121081000D02*
G01*
X174759000Y-121081000D01*
X174759000Y-119279000D01*
X176561000Y-119279000D01*
X176561000Y-121081000D01*
G37*
G36*
X168153512Y-119283927D02*
G01*
X168302812Y-119313624D01*
X168466784Y-119381544D01*
X168614354Y-119480147D01*
X168739853Y-119605646D01*
X168838456Y-119753216D01*
X168906376Y-119917188D01*
X168941000Y-120091259D01*
X168941000Y-120268741D01*
X168906376Y-120442812D01*
X168838456Y-120606784D01*
X168739853Y-120754354D01*
X168614354Y-120879853D01*
X168466784Y-120978456D01*
X168302812Y-121046376D01*
X168153512Y-121076073D01*
X168128742Y-121081000D01*
X167951258Y-121081000D01*
X167926488Y-121076073D01*
X167777188Y-121046376D01*
X167613216Y-120978456D01*
X167465646Y-120879853D01*
X167340147Y-120754354D01*
X167241544Y-120606784D01*
X167173624Y-120442812D01*
X167139000Y-120268741D01*
X167139000Y-120091259D01*
X167173624Y-119917188D01*
X167241544Y-119753216D01*
X167340147Y-119605646D01*
X167465646Y-119480147D01*
X167613216Y-119381544D01*
X167777188Y-119313624D01*
X167926488Y-119283927D01*
X167951258Y-119279000D01*
X168128742Y-119279000D01*
X168153512Y-119283927D01*
G37*
G36*
X173233512Y-119283927D02*
G01*
X173382812Y-119313624D01*
X173546784Y-119381544D01*
X173694354Y-119480147D01*
X173819853Y-119605646D01*
X173918456Y-119753216D01*
X173986376Y-119917188D01*
X174021000Y-120091259D01*
X174021000Y-120268741D01*
X173986376Y-120442812D01*
X173918456Y-120606784D01*
X173819853Y-120754354D01*
X173694354Y-120879853D01*
X173546784Y-120978456D01*
X173382812Y-121046376D01*
X173233512Y-121076073D01*
X173208742Y-121081000D01*
X173031258Y-121081000D01*
X173006488Y-121076073D01*
X172857188Y-121046376D01*
X172693216Y-120978456D01*
X172545646Y-120879853D01*
X172420147Y-120754354D01*
X172321544Y-120606784D01*
X172253624Y-120442812D01*
X172219000Y-120268741D01*
X172219000Y-120091259D01*
X172253624Y-119917188D01*
X172321544Y-119753216D01*
X172420147Y-119605646D01*
X172545646Y-119480147D01*
X172693216Y-119381544D01*
X172857188Y-119313624D01*
X173006488Y-119283927D01*
X173031258Y-119279000D01*
X173208742Y-119279000D01*
X173233512Y-119283927D01*
G37*
G36*
X170693512Y-119283927D02*
G01*
X170842812Y-119313624D01*
X171006784Y-119381544D01*
X171154354Y-119480147D01*
X171279853Y-119605646D01*
X171378456Y-119753216D01*
X171446376Y-119917188D01*
X171481000Y-120091259D01*
X171481000Y-120268741D01*
X171446376Y-120442812D01*
X171378456Y-120606784D01*
X171279853Y-120754354D01*
X171154354Y-120879853D01*
X171006784Y-120978456D01*
X170842812Y-121046376D01*
X170693512Y-121076073D01*
X170668742Y-121081000D01*
X170491258Y-121081000D01*
X170466488Y-121076073D01*
X170317188Y-121046376D01*
X170153216Y-120978456D01*
X170005646Y-120879853D01*
X169880147Y-120754354D01*
X169781544Y-120606784D01*
X169713624Y-120442812D01*
X169679000Y-120268741D01*
X169679000Y-120091259D01*
X169713624Y-119917188D01*
X169781544Y-119753216D01*
X169880147Y-119605646D01*
X170005646Y-119480147D01*
X170153216Y-119381544D01*
X170317188Y-119313624D01*
X170466488Y-119283927D01*
X170491258Y-119279000D01*
X170668742Y-119279000D01*
X170693512Y-119283927D01*
G37*
G36*
X199689890Y-118074017D02*
G01*
X199783769Y-118112903D01*
X199808364Y-118123091D01*
X199914988Y-118194335D01*
X200005665Y-118285012D01*
X200076909Y-118391636D01*
X200125315Y-118508497D01*
X200125983Y-118510111D01*
X200127403Y-118517249D01*
X200134516Y-118540698D01*
X200146067Y-118562309D01*
X200161612Y-118581251D01*
X200180554Y-118596797D01*
X200202164Y-118608348D01*
X200225613Y-118615461D01*
X200249999Y-118617863D01*
X200274385Y-118615461D01*
X200297834Y-118608348D01*
X200319445Y-118596797D01*
X200338387Y-118581252D01*
X200353933Y-118562310D01*
X200365484Y-118540700D01*
X200372597Y-118517249D01*
X200374017Y-118510111D01*
X200374686Y-118508497D01*
X200423091Y-118391636D01*
X200494335Y-118285012D01*
X200585012Y-118194335D01*
X200691636Y-118123091D01*
X200716232Y-118112903D01*
X200810110Y-118074017D01*
X200935881Y-118049000D01*
X201064119Y-118049000D01*
X201189890Y-118074017D01*
X201283769Y-118112903D01*
X201308364Y-118123091D01*
X201414988Y-118194335D01*
X201505665Y-118285012D01*
X201542309Y-118339853D01*
X201576910Y-118391638D01*
X201608517Y-118467944D01*
X201620068Y-118489555D01*
X201635613Y-118508497D01*
X201654555Y-118524042D01*
X201676166Y-118535593D01*
X201699615Y-118542706D01*
X201724001Y-118545108D01*
X201748387Y-118542706D01*
X201771836Y-118535593D01*
X201793447Y-118524042D01*
X201812389Y-118508497D01*
X201827934Y-118489555D01*
X201839485Y-118467944D01*
X201846598Y-118444495D01*
X201849000Y-118420109D01*
X201849000Y-118158285D01*
X201851575Y-118132138D01*
X201857410Y-118112903D01*
X201866884Y-118095178D01*
X201879638Y-118079638D01*
X201895178Y-118066884D01*
X201912903Y-118057410D01*
X201932138Y-118051575D01*
X201958285Y-118049000D01*
X203041715Y-118049000D01*
X203067862Y-118051575D01*
X203087097Y-118057410D01*
X203104822Y-118066884D01*
X203120362Y-118079638D01*
X203133116Y-118095178D01*
X203142590Y-118112903D01*
X203148425Y-118132138D01*
X203151000Y-118158285D01*
X203151000Y-119241715D01*
X203148425Y-119267862D01*
X203142590Y-119287097D01*
X203133116Y-119304822D01*
X203120362Y-119320362D01*
X203104822Y-119333116D01*
X203087097Y-119342590D01*
X203067862Y-119348425D01*
X203041715Y-119351000D01*
X201958285Y-119351000D01*
X201932138Y-119348425D01*
X201912903Y-119342590D01*
X201895178Y-119333116D01*
X201879638Y-119320362D01*
X201866884Y-119304822D01*
X201857410Y-119287097D01*
X201851575Y-119267862D01*
X201849000Y-119241715D01*
X201849000Y-118979891D01*
X201846598Y-118955505D01*
X201839485Y-118932056D01*
X201827934Y-118910445D01*
X201812389Y-118891503D01*
X201793447Y-118875958D01*
X201771836Y-118864407D01*
X201748387Y-118857294D01*
X201724001Y-118854892D01*
X201699615Y-118857294D01*
X201676166Y-118864407D01*
X201654555Y-118875958D01*
X201635613Y-118891503D01*
X201620068Y-118910445D01*
X201608517Y-118932055D01*
X201576909Y-119008364D01*
X201505665Y-119114988D01*
X201414988Y-119205665D01*
X201308364Y-119276909D01*
X201308363Y-119276910D01*
X201308362Y-119276910D01*
X201189890Y-119325983D01*
X201064119Y-119351000D01*
X200935881Y-119351000D01*
X200810110Y-119325983D01*
X200691638Y-119276910D01*
X200691637Y-119276910D01*
X200691636Y-119276909D01*
X200585012Y-119205665D01*
X200494335Y-119114988D01*
X200423091Y-119008364D01*
X200374017Y-118889890D01*
X200372597Y-118882751D01*
X200365484Y-118859302D01*
X200353933Y-118837691D01*
X200338388Y-118818749D01*
X200319446Y-118803203D01*
X200297836Y-118791652D01*
X200274387Y-118784539D01*
X200250001Y-118782137D01*
X200225615Y-118784539D01*
X200202166Y-118791652D01*
X200180555Y-118803203D01*
X200161613Y-118818748D01*
X200146067Y-118837690D01*
X200134516Y-118859300D01*
X200127403Y-118882751D01*
X200125983Y-118889890D01*
X200076909Y-119008364D01*
X200005665Y-119114988D01*
X199914988Y-119205665D01*
X199808364Y-119276909D01*
X199808363Y-119276910D01*
X199808362Y-119276910D01*
X199689890Y-119325983D01*
X199564119Y-119351000D01*
X199435881Y-119351000D01*
X199310110Y-119325983D01*
X199191638Y-119276910D01*
X199191637Y-119276910D01*
X199191636Y-119276909D01*
X199085012Y-119205665D01*
X198994335Y-119114988D01*
X198923091Y-119008364D01*
X198874017Y-118889890D01*
X198863634Y-118837690D01*
X198849000Y-118764119D01*
X198849000Y-118635881D01*
X198874017Y-118510110D01*
X198923090Y-118391638D01*
X198957692Y-118339853D01*
X198994335Y-118285012D01*
X199085012Y-118194335D01*
X199191636Y-118123091D01*
X199216232Y-118112903D01*
X199310110Y-118074017D01*
X199435881Y-118049000D01*
X199564119Y-118049000D01*
X199689890Y-118074017D01*
G37*
G36*
X170693512Y-116743927D02*
G01*
X170842812Y-116773624D01*
X171006784Y-116841544D01*
X171154354Y-116940147D01*
X171279853Y-117065646D01*
X171378456Y-117213216D01*
X171446376Y-117377188D01*
X171481000Y-117551259D01*
X171481000Y-117728741D01*
X171446376Y-117902812D01*
X171378456Y-118066784D01*
X171279853Y-118214354D01*
X171154354Y-118339853D01*
X171006784Y-118438456D01*
X170842812Y-118506376D01*
X170693512Y-118536073D01*
X170668742Y-118541000D01*
X170491258Y-118541000D01*
X170466488Y-118536073D01*
X170317188Y-118506376D01*
X170153216Y-118438456D01*
X170005646Y-118339853D01*
X169880147Y-118214354D01*
X169781544Y-118066784D01*
X169713624Y-117902812D01*
X169679000Y-117728741D01*
X169679000Y-117551259D01*
X169713624Y-117377188D01*
X169781544Y-117213216D01*
X169880147Y-117065646D01*
X170005646Y-116940147D01*
X170153216Y-116841544D01*
X170317188Y-116773624D01*
X170466488Y-116743927D01*
X170491258Y-116739000D01*
X170668742Y-116739000D01*
X170693512Y-116743927D01*
G37*
G36*
X173233512Y-116743927D02*
G01*
X173382812Y-116773624D01*
X173546784Y-116841544D01*
X173694354Y-116940147D01*
X173819853Y-117065646D01*
X173918456Y-117213216D01*
X173986376Y-117377188D01*
X174021000Y-117551259D01*
X174021000Y-117728741D01*
X173986376Y-117902812D01*
X173918456Y-118066784D01*
X173819853Y-118214354D01*
X173694354Y-118339853D01*
X173546784Y-118438456D01*
X173382812Y-118506376D01*
X173233512Y-118536073D01*
X173208742Y-118541000D01*
X173031258Y-118541000D01*
X173006488Y-118536073D01*
X172857188Y-118506376D01*
X172693216Y-118438456D01*
X172545646Y-118339853D01*
X172420147Y-118214354D01*
X172321544Y-118066784D01*
X172253624Y-117902812D01*
X172219000Y-117728741D01*
X172219000Y-117551259D01*
X172253624Y-117377188D01*
X172321544Y-117213216D01*
X172420147Y-117065646D01*
X172545646Y-116940147D01*
X172693216Y-116841544D01*
X172857188Y-116773624D01*
X173006488Y-116743927D01*
X173031258Y-116739000D01*
X173208742Y-116739000D01*
X173233512Y-116743927D01*
G37*
G36*
X175773512Y-116743927D02*
G01*
X175922812Y-116773624D01*
X176086784Y-116841544D01*
X176234354Y-116940147D01*
X176359853Y-117065646D01*
X176458456Y-117213216D01*
X176526376Y-117377188D01*
X176561000Y-117551259D01*
X176561000Y-117728741D01*
X176526376Y-117902812D01*
X176458456Y-118066784D01*
X176359853Y-118214354D01*
X176234354Y-118339853D01*
X176086784Y-118438456D01*
X175922812Y-118506376D01*
X175773512Y-118536073D01*
X175748742Y-118541000D01*
X175571258Y-118541000D01*
X175546488Y-118536073D01*
X175397188Y-118506376D01*
X175233216Y-118438456D01*
X175085646Y-118339853D01*
X174960147Y-118214354D01*
X174861544Y-118066784D01*
X174793624Y-117902812D01*
X174759000Y-117728741D01*
X174759000Y-117551259D01*
X174793624Y-117377188D01*
X174861544Y-117213216D01*
X174960147Y-117065646D01*
X175085646Y-116940147D01*
X175233216Y-116841544D01*
X175397188Y-116773624D01*
X175546488Y-116743927D01*
X175571258Y-116739000D01*
X175748742Y-116739000D01*
X175773512Y-116743927D01*
G37*
G36*
X168153512Y-116743927D02*
G01*
X168302812Y-116773624D01*
X168466784Y-116841544D01*
X168614354Y-116940147D01*
X168739853Y-117065646D01*
X168838456Y-117213216D01*
X168906376Y-117377188D01*
X168941000Y-117551259D01*
X168941000Y-117728741D01*
X168906376Y-117902812D01*
X168838456Y-118066784D01*
X168739853Y-118214354D01*
X168614354Y-118339853D01*
X168466784Y-118438456D01*
X168302812Y-118506376D01*
X168153512Y-118536073D01*
X168128742Y-118541000D01*
X167951258Y-118541000D01*
X167926488Y-118536073D01*
X167777188Y-118506376D01*
X167613216Y-118438456D01*
X167465646Y-118339853D01*
X167340147Y-118214354D01*
X167241544Y-118066784D01*
X167173624Y-117902812D01*
X167139000Y-117728741D01*
X167139000Y-117551259D01*
X167173624Y-117377188D01*
X167241544Y-117213216D01*
X167340147Y-117065646D01*
X167465646Y-116940147D01*
X167613216Y-116841544D01*
X167777188Y-116773624D01*
X167926488Y-116743927D01*
X167951258Y-116739000D01*
X168128742Y-116739000D01*
X168153512Y-116743927D01*
G37*
G36*
X199664890Y-111924017D02*
G01*
X199758769Y-111962903D01*
X199783364Y-111973091D01*
X199889988Y-112044335D01*
X199980665Y-112135012D01*
X200051909Y-112241636D01*
X200100315Y-112358497D01*
X200100983Y-112360111D01*
X200102403Y-112367249D01*
X200109516Y-112390698D01*
X200121067Y-112412309D01*
X200136612Y-112431251D01*
X200155554Y-112446797D01*
X200177164Y-112458348D01*
X200200613Y-112465461D01*
X200224999Y-112467863D01*
X200249385Y-112465461D01*
X200272834Y-112458348D01*
X200294445Y-112446797D01*
X200313387Y-112431252D01*
X200328933Y-112412310D01*
X200340484Y-112390700D01*
X200347597Y-112367249D01*
X200349017Y-112360111D01*
X200349686Y-112358497D01*
X200398091Y-112241636D01*
X200469335Y-112135012D01*
X200560012Y-112044335D01*
X200666636Y-111973091D01*
X200691232Y-111962903D01*
X200785110Y-111924017D01*
X200910881Y-111899000D01*
X201039119Y-111899000D01*
X201164890Y-111924017D01*
X201258769Y-111962903D01*
X201283364Y-111973091D01*
X201336035Y-112008285D01*
X201389988Y-112044335D01*
X201480665Y-112135012D01*
X201551910Y-112241638D01*
X201583517Y-112317944D01*
X201595068Y-112339555D01*
X201610613Y-112358497D01*
X201629555Y-112374042D01*
X201651166Y-112385593D01*
X201674615Y-112392706D01*
X201699001Y-112395108D01*
X201723387Y-112392706D01*
X201746836Y-112385593D01*
X201768447Y-112374042D01*
X201787389Y-112358497D01*
X201802934Y-112339555D01*
X201814485Y-112317944D01*
X201821598Y-112294495D01*
X201824000Y-112270109D01*
X201824000Y-112008285D01*
X201826575Y-111982138D01*
X201832410Y-111962903D01*
X201841884Y-111945178D01*
X201854638Y-111929638D01*
X201870178Y-111916884D01*
X201887903Y-111907410D01*
X201907138Y-111901575D01*
X201933285Y-111899000D01*
X203016715Y-111899000D01*
X203042862Y-111901575D01*
X203062097Y-111907410D01*
X203079822Y-111916884D01*
X203095362Y-111929638D01*
X203108116Y-111945178D01*
X203117590Y-111962903D01*
X203123425Y-111982138D01*
X203126000Y-112008285D01*
X203126000Y-113091715D01*
X203123425Y-113117862D01*
X203117590Y-113137097D01*
X203108116Y-113154822D01*
X203095362Y-113170362D01*
X203079822Y-113183116D01*
X203062097Y-113192590D01*
X203042862Y-113198425D01*
X203016715Y-113201000D01*
X201933285Y-113201000D01*
X201907138Y-113198425D01*
X201887903Y-113192590D01*
X201870178Y-113183116D01*
X201854638Y-113170362D01*
X201841884Y-113154822D01*
X201832410Y-113137097D01*
X201826575Y-113117862D01*
X201824000Y-113091715D01*
X201824000Y-112829891D01*
X201821598Y-112805505D01*
X201814485Y-112782056D01*
X201802934Y-112760445D01*
X201787389Y-112741503D01*
X201768447Y-112725958D01*
X201746836Y-112714407D01*
X201723387Y-112707294D01*
X201699001Y-112704892D01*
X201674615Y-112707294D01*
X201651166Y-112714407D01*
X201629555Y-112725958D01*
X201610613Y-112741503D01*
X201595068Y-112760445D01*
X201583517Y-112782055D01*
X201551909Y-112858364D01*
X201480665Y-112964988D01*
X201389988Y-113055665D01*
X201283364Y-113126909D01*
X201283363Y-113126910D01*
X201283362Y-113126910D01*
X201164890Y-113175983D01*
X201039119Y-113201000D01*
X200910881Y-113201000D01*
X200785110Y-113175983D01*
X200666638Y-113126910D01*
X200666637Y-113126910D01*
X200666636Y-113126909D01*
X200560012Y-113055665D01*
X200469335Y-112964988D01*
X200398091Y-112858364D01*
X200349017Y-112739890D01*
X200347597Y-112732751D01*
X200340484Y-112709302D01*
X200328933Y-112687691D01*
X200313388Y-112668749D01*
X200294446Y-112653203D01*
X200272836Y-112641652D01*
X200249387Y-112634539D01*
X200225001Y-112632137D01*
X200200615Y-112634539D01*
X200177166Y-112641652D01*
X200155555Y-112653203D01*
X200136613Y-112668748D01*
X200121067Y-112687690D01*
X200109516Y-112709300D01*
X200102403Y-112732751D01*
X200100983Y-112739890D01*
X200051909Y-112858364D01*
X199980665Y-112964988D01*
X199889988Y-113055665D01*
X199783364Y-113126909D01*
X199783363Y-113126910D01*
X199783362Y-113126910D01*
X199664890Y-113175983D01*
X199539119Y-113201000D01*
X199410881Y-113201000D01*
X199285110Y-113175983D01*
X199166638Y-113126910D01*
X199166637Y-113126910D01*
X199166636Y-113126909D01*
X199060012Y-113055665D01*
X198969335Y-112964988D01*
X198898091Y-112858364D01*
X198849017Y-112739890D01*
X198838634Y-112687690D01*
X198824000Y-112614119D01*
X198824000Y-112485881D01*
X198849017Y-112360110D01*
X198898090Y-112241638D01*
X198969335Y-112135012D01*
X199060012Y-112044335D01*
X199113965Y-112008285D01*
X199166636Y-111973091D01*
X199191232Y-111962903D01*
X199285110Y-111924017D01*
X199410881Y-111899000D01*
X199539119Y-111899000D01*
X199664890Y-111924017D01*
G37*
G36*
X185592862Y-101426575D02*
G01*
X185612097Y-101432410D01*
X185629822Y-101441884D01*
X185645362Y-101454638D01*
X185658116Y-101470178D01*
X185667590Y-101487903D01*
X185673425Y-101507138D01*
X185676000Y-101533285D01*
X185676000Y-101795109D01*
X185678402Y-101819495D01*
X185685515Y-101842944D01*
X185697066Y-101864555D01*
X185712611Y-101883497D01*
X185731553Y-101899042D01*
X185753164Y-101910593D01*
X185776613Y-101917706D01*
X185800999Y-101920108D01*
X185825385Y-101917706D01*
X185848834Y-101910593D01*
X185870445Y-101899042D01*
X185889387Y-101883497D01*
X185904932Y-101864555D01*
X185916483Y-101842944D01*
X185948090Y-101766638D01*
X186019335Y-101660012D01*
X186110012Y-101569335D01*
X186163965Y-101533285D01*
X186216636Y-101498091D01*
X186241232Y-101487903D01*
X186335110Y-101449017D01*
X186460881Y-101424000D01*
X186589119Y-101424000D01*
X186714890Y-101449017D01*
X186808769Y-101487903D01*
X186833364Y-101498091D01*
X186939988Y-101569335D01*
X187030665Y-101660012D01*
X187101909Y-101766636D01*
X187150315Y-101883497D01*
X187150983Y-101885111D01*
X187152403Y-101892249D01*
X187159516Y-101915698D01*
X187171067Y-101937309D01*
X187186612Y-101956251D01*
X187205554Y-101971797D01*
X187227164Y-101983348D01*
X187250613Y-101990461D01*
X187274999Y-101992863D01*
X187299385Y-101990461D01*
X187322834Y-101983348D01*
X187344445Y-101971797D01*
X187363387Y-101956252D01*
X187378933Y-101937310D01*
X187390484Y-101915700D01*
X187397597Y-101892249D01*
X187399017Y-101885111D01*
X187399686Y-101883497D01*
X187448091Y-101766636D01*
X187519335Y-101660012D01*
X187610012Y-101569335D01*
X187716636Y-101498091D01*
X187741232Y-101487903D01*
X187835110Y-101449017D01*
X187960881Y-101424000D01*
X188089119Y-101424000D01*
X188214890Y-101449017D01*
X188308769Y-101487903D01*
X188333364Y-101498091D01*
X188386035Y-101533285D01*
X188439988Y-101569335D01*
X188530665Y-101660012D01*
X188601910Y-101766638D01*
X188650983Y-101885110D01*
X188676000Y-102010881D01*
X188676000Y-102139119D01*
X188661366Y-102212690D01*
X188650983Y-102264890D01*
X188601909Y-102383364D01*
X188530665Y-102489988D01*
X188439988Y-102580665D01*
X188333364Y-102651909D01*
X188333363Y-102651910D01*
X188333362Y-102651910D01*
X188214890Y-102700983D01*
X188089119Y-102726000D01*
X187960881Y-102726000D01*
X187835110Y-102700983D01*
X187716638Y-102651910D01*
X187716637Y-102651910D01*
X187716636Y-102651909D01*
X187610012Y-102580665D01*
X187519335Y-102489988D01*
X187448091Y-102383364D01*
X187399017Y-102264890D01*
X187397597Y-102257751D01*
X187390484Y-102234302D01*
X187378933Y-102212691D01*
X187363388Y-102193749D01*
X187344446Y-102178203D01*
X187322836Y-102166652D01*
X187299387Y-102159539D01*
X187275001Y-102157137D01*
X187250615Y-102159539D01*
X187227166Y-102166652D01*
X187205555Y-102178203D01*
X187186613Y-102193748D01*
X187171067Y-102212690D01*
X187159516Y-102234300D01*
X187152403Y-102257751D01*
X187150983Y-102264890D01*
X187101909Y-102383364D01*
X187030665Y-102489988D01*
X186939988Y-102580665D01*
X186833364Y-102651909D01*
X186833363Y-102651910D01*
X186833362Y-102651910D01*
X186714890Y-102700983D01*
X186589119Y-102726000D01*
X186460881Y-102726000D01*
X186335110Y-102700983D01*
X186216638Y-102651910D01*
X186216637Y-102651910D01*
X186216636Y-102651909D01*
X186110012Y-102580665D01*
X186019335Y-102489988D01*
X185948091Y-102383364D01*
X185916483Y-102307055D01*
X185904932Y-102285445D01*
X185889387Y-102266503D01*
X185870445Y-102250958D01*
X185848834Y-102239407D01*
X185825385Y-102232294D01*
X185800999Y-102229892D01*
X185776613Y-102232294D01*
X185753164Y-102239407D01*
X185731553Y-102250958D01*
X185712611Y-102266503D01*
X185697066Y-102285445D01*
X185685515Y-102307056D01*
X185678402Y-102330505D01*
X185676000Y-102354891D01*
X185676000Y-102616715D01*
X185673425Y-102642862D01*
X185667590Y-102662097D01*
X185658116Y-102679822D01*
X185645362Y-102695362D01*
X185629822Y-102708116D01*
X185612097Y-102717590D01*
X185592862Y-102723425D01*
X185566715Y-102726000D01*
X184483285Y-102726000D01*
X184457138Y-102723425D01*
X184437903Y-102717590D01*
X184420178Y-102708116D01*
X184404638Y-102695362D01*
X184391884Y-102679822D01*
X184382410Y-102662097D01*
X184376575Y-102642862D01*
X184374000Y-102616715D01*
X184374000Y-101533285D01*
X184376575Y-101507138D01*
X184382410Y-101487903D01*
X184391884Y-101470178D01*
X184404638Y-101454638D01*
X184420178Y-101441884D01*
X184437903Y-101432410D01*
X184457138Y-101426575D01*
X184483285Y-101424000D01*
X185566715Y-101424000D01*
X185592862Y-101426575D01*
G37*
M02*
