G04 #@! TF.GenerationSoftware,KiCad,Pcbnew,(5.1.6-0-10_14)*
G04 #@! TF.CreationDate,2020-09-02T00:25:13+09:00*
G04 #@! TF.ProjectId,teabiscuits_compute,74656162-6973-4637-9569-74735f636f6d,rev?*
G04 #@! TF.SameCoordinates,Original*
G04 #@! TF.FileFunction,Legend,Top*
G04 #@! TF.FilePolarity,Positive*
%FSLAX46Y46*%
G04 Gerber Fmt 4.6, Leading zero omitted, Abs format (unit mm)*
G04 Created by KiCad (PCBNEW (5.1.6-0-10_14)) date 2020-09-02 00:25:13*
%MOMM*%
%LPD*%
G01*
G04 APERTURE LIST*
%ADD10C,0.300000*%
%ADD11C,0.150000*%
%ADD12C,0.120000*%
%ADD13C,0.152400*%
G04 APERTURE END LIST*
D10*
X138068571Y-165018571D02*
X138925714Y-165018571D01*
X138497142Y-166518571D02*
X138497142Y-165018571D01*
X139997142Y-166447142D02*
X139854285Y-166518571D01*
X139568571Y-166518571D01*
X139425714Y-166447142D01*
X139354285Y-166304285D01*
X139354285Y-165732857D01*
X139425714Y-165590000D01*
X139568571Y-165518571D01*
X139854285Y-165518571D01*
X139997142Y-165590000D01*
X140068571Y-165732857D01*
X140068571Y-165875714D01*
X139354285Y-166018571D01*
X141282857Y-166447142D02*
X141140000Y-166518571D01*
X140854285Y-166518571D01*
X140711428Y-166447142D01*
X140640000Y-166304285D01*
X140640000Y-165732857D01*
X140711428Y-165590000D01*
X140854285Y-165518571D01*
X141140000Y-165518571D01*
X141282857Y-165590000D01*
X141354285Y-165732857D01*
X141354285Y-165875714D01*
X140640000Y-166018571D01*
X141997142Y-165518571D02*
X141997142Y-166518571D01*
X141997142Y-165661428D02*
X142068571Y-165590000D01*
X142211428Y-165518571D01*
X142425714Y-165518571D01*
X142568571Y-165590000D01*
X142640000Y-165732857D01*
X142640000Y-166518571D01*
X143282857Y-166447142D02*
X143425714Y-166518571D01*
X143711428Y-166518571D01*
X143854285Y-166447142D01*
X143925714Y-166304285D01*
X143925714Y-166232857D01*
X143854285Y-166090000D01*
X143711428Y-166018571D01*
X143497142Y-166018571D01*
X143354285Y-165947142D01*
X143282857Y-165804285D01*
X143282857Y-165732857D01*
X143354285Y-165590000D01*
X143497142Y-165518571D01*
X143711428Y-165518571D01*
X143854285Y-165590000D01*
X144425714Y-165518571D02*
X144782857Y-166518571D01*
X145140000Y-165518571D02*
X144782857Y-166518571D01*
X144640000Y-166875714D01*
X144568571Y-166947142D01*
X144425714Y-167018571D01*
X146854285Y-166518571D02*
X146854285Y-165018571D01*
X147568571Y-165518571D02*
X147568571Y-166518571D01*
X147568571Y-165661428D02*
X147640000Y-165590000D01*
X147782857Y-165518571D01*
X147997142Y-165518571D01*
X148140000Y-165590000D01*
X148211428Y-165732857D01*
X148211428Y-166518571D01*
X148711428Y-165518571D02*
X149282857Y-165518571D01*
X148925714Y-165018571D02*
X148925714Y-166304285D01*
X148997142Y-166447142D01*
X149140000Y-166518571D01*
X149282857Y-166518571D01*
X150354285Y-166447142D02*
X150211428Y-166518571D01*
X149925714Y-166518571D01*
X149782857Y-166447142D01*
X149711428Y-166304285D01*
X149711428Y-165732857D01*
X149782857Y-165590000D01*
X149925714Y-165518571D01*
X150211428Y-165518571D01*
X150354285Y-165590000D01*
X150425714Y-165732857D01*
X150425714Y-165875714D01*
X149711428Y-166018571D01*
X151711428Y-165518571D02*
X151711428Y-166732857D01*
X151640000Y-166875714D01*
X151568571Y-166947142D01*
X151425714Y-167018571D01*
X151211428Y-167018571D01*
X151068571Y-166947142D01*
X151711428Y-166447142D02*
X151568571Y-166518571D01*
X151282857Y-166518571D01*
X151140000Y-166447142D01*
X151068571Y-166375714D01*
X150997142Y-166232857D01*
X150997142Y-165804285D01*
X151068571Y-165661428D01*
X151140000Y-165590000D01*
X151282857Y-165518571D01*
X151568571Y-165518571D01*
X151711428Y-165590000D01*
X152425714Y-166518571D02*
X152425714Y-165518571D01*
X152425714Y-165804285D02*
X152497142Y-165661428D01*
X152568571Y-165590000D01*
X152711428Y-165518571D01*
X152854285Y-165518571D01*
X153997142Y-166518571D02*
X153997142Y-165732857D01*
X153925714Y-165590000D01*
X153782857Y-165518571D01*
X153497142Y-165518571D01*
X153354285Y-165590000D01*
X153997142Y-166447142D02*
X153854285Y-166518571D01*
X153497142Y-166518571D01*
X153354285Y-166447142D01*
X153282857Y-166304285D01*
X153282857Y-166161428D01*
X153354285Y-166018571D01*
X153497142Y-165947142D01*
X153854285Y-165947142D01*
X153997142Y-165875714D01*
X154497142Y-165518571D02*
X155068571Y-165518571D01*
X154711428Y-165018571D02*
X154711428Y-166304285D01*
X154782857Y-166447142D01*
X154925714Y-166518571D01*
X155068571Y-166518571D01*
X156140000Y-166447142D02*
X155997142Y-166518571D01*
X155711428Y-166518571D01*
X155568571Y-166447142D01*
X155497142Y-166304285D01*
X155497142Y-165732857D01*
X155568571Y-165590000D01*
X155711428Y-165518571D01*
X155997142Y-165518571D01*
X156140000Y-165590000D01*
X156211428Y-165732857D01*
X156211428Y-165875714D01*
X155497142Y-166018571D01*
X157497142Y-166518571D02*
X157497142Y-165018571D01*
X157497142Y-166447142D02*
X157354285Y-166518571D01*
X157068571Y-166518571D01*
X156925714Y-166447142D01*
X156854285Y-166375714D01*
X156782857Y-166232857D01*
X156782857Y-165804285D01*
X156854285Y-165661428D01*
X156925714Y-165590000D01*
X157068571Y-165518571D01*
X157354285Y-165518571D01*
X157497142Y-165590000D01*
X159354285Y-166518571D02*
X159354285Y-165518571D01*
X159354285Y-165804285D02*
X159425714Y-165661428D01*
X159497142Y-165590000D01*
X159640000Y-165518571D01*
X159782857Y-165518571D01*
X161068571Y-166518571D02*
X160211428Y-166518571D01*
X160640000Y-166518571D02*
X160640000Y-165018571D01*
X160497142Y-165232857D01*
X160354285Y-165375714D01*
X160211428Y-165447142D01*
D11*
X132011904Y-131750000D02*
X131916666Y-131702380D01*
X131773809Y-131702380D01*
X131630952Y-131750000D01*
X131535714Y-131845238D01*
X131488095Y-131940476D01*
X131440476Y-132130952D01*
X131440476Y-132273809D01*
X131488095Y-132464285D01*
X131535714Y-132559523D01*
X131630952Y-132654761D01*
X131773809Y-132702380D01*
X131869047Y-132702380D01*
X132011904Y-132654761D01*
X132059523Y-132607142D01*
X132059523Y-132273809D01*
X131869047Y-132273809D01*
X124607142Y-132702380D02*
X124130952Y-132702380D01*
X124130952Y-131702380D01*
X124940476Y-132178571D02*
X125273809Y-132178571D01*
X125416666Y-132702380D02*
X124940476Y-132702380D01*
X124940476Y-131702380D01*
X125416666Y-131702380D01*
X125845238Y-132702380D02*
X125845238Y-131702380D01*
X126083333Y-131702380D01*
X126226190Y-131750000D01*
X126321428Y-131845238D01*
X126369047Y-131940476D01*
X126416666Y-132130952D01*
X126416666Y-132273809D01*
X126369047Y-132464285D01*
X126321428Y-132559523D01*
X126226190Y-132654761D01*
X126083333Y-132702380D01*
X125845238Y-132702380D01*
X131940476Y-130702380D02*
X131607142Y-130226190D01*
X131369047Y-130702380D02*
X131369047Y-129702380D01*
X131750000Y-129702380D01*
X131845238Y-129750000D01*
X131892857Y-129797619D01*
X131940476Y-129892857D01*
X131940476Y-130035714D01*
X131892857Y-130130952D01*
X131845238Y-130178571D01*
X131750000Y-130226190D01*
X131369047Y-130226190D01*
X132369047Y-130321428D02*
X133130952Y-130321428D01*
X125440476Y-130702380D02*
X125107142Y-130226190D01*
X124869047Y-130702380D02*
X124869047Y-129702380D01*
X125250000Y-129702380D01*
X125345238Y-129750000D01*
X125392857Y-129797619D01*
X125440476Y-129892857D01*
X125440476Y-130035714D01*
X125392857Y-130130952D01*
X125345238Y-130178571D01*
X125250000Y-130226190D01*
X124869047Y-130226190D01*
X125869047Y-130321428D02*
X126630952Y-130321428D01*
X126250000Y-130702380D02*
X126250000Y-129940476D01*
X127214285Y-135702380D02*
X127785714Y-135702380D01*
X127500000Y-136702380D02*
X127500000Y-135702380D01*
X128119047Y-136321428D02*
X128880952Y-136321428D01*
X129976190Y-135702380D02*
X130547619Y-135702380D01*
X130261904Y-136702380D02*
X130261904Y-135702380D01*
X130880952Y-136321428D02*
X131642857Y-136321428D01*
X131261904Y-136702380D02*
X131261904Y-135940476D01*
D12*
X105535000Y-106883578D02*
X105535000Y-106366422D01*
X104115000Y-106883578D02*
X104115000Y-106366422D01*
X112600000Y-124460000D02*
X176100000Y-124460000D01*
X112600000Y-124460000D02*
X112600000Y-144780000D01*
X112600000Y-144780000D02*
X176100000Y-144780000D01*
X176100000Y-144780000D02*
X176100000Y-124460000D01*
X176100000Y-129540000D02*
X171020000Y-129540000D01*
X171020000Y-129540000D02*
X171020000Y-139700000D01*
X171020000Y-139700000D02*
X176100000Y-139700000D01*
X112600000Y-129540000D02*
X122760000Y-129540000D01*
X122760000Y-129540000D02*
X122760000Y-139700000D01*
X122760000Y-139700000D02*
X112600000Y-139700000D01*
X99825000Y-109935000D02*
X103275000Y-109935000D01*
X99825000Y-109935000D02*
X97875000Y-109935000D01*
X99825000Y-104815000D02*
X101775000Y-104815000D01*
X99825000Y-104815000D02*
X97875000Y-104815000D01*
X94115000Y-107678922D02*
X94115000Y-108196078D01*
X95535000Y-107678922D02*
X95535000Y-108196078D01*
X202175000Y-110450000D02*
X202475000Y-111050000D01*
X202775000Y-110450000D02*
X202175000Y-110450000D01*
X202475000Y-111050000D02*
X202775000Y-110450000D01*
X203975000Y-111550000D02*
X197975000Y-111550000D01*
X197975000Y-111550000D02*
X197975000Y-116550000D01*
X197975000Y-116550000D02*
X203975000Y-116550000D01*
X203975000Y-116550000D02*
X203975000Y-111550000D01*
X156071078Y-116240000D02*
X155553922Y-116240000D01*
X156071078Y-117660000D02*
X155553922Y-117660000D01*
X159153922Y-117660000D02*
X159671078Y-117660000D01*
X159153922Y-116240000D02*
X159671078Y-116240000D01*
X152396078Y-107910000D02*
X151878922Y-107910000D01*
X152396078Y-106490000D02*
X151878922Y-106490000D01*
X119765000Y-111128922D02*
X119765000Y-111646078D01*
X121185000Y-111128922D02*
X121185000Y-111646078D01*
X125728922Y-117915000D02*
X126246078Y-117915000D01*
X125728922Y-119335000D02*
X126246078Y-119335000D01*
X204445225Y-126275000D02*
X204445225Y-126775000D01*
X204195225Y-126525000D02*
X204695225Y-126525000D01*
X209601000Y-127716000D02*
X209601000Y-128284000D01*
X209561000Y-127482000D02*
X209561000Y-128518000D01*
X209521000Y-127323000D02*
X209521000Y-128677000D01*
X209481000Y-127195000D02*
X209481000Y-128805000D01*
X209441000Y-127085000D02*
X209441000Y-128915000D01*
X209401000Y-126989000D02*
X209401000Y-129011000D01*
X209361000Y-126902000D02*
X209361000Y-129098000D01*
X209321000Y-126822000D02*
X209321000Y-129178000D01*
X209281000Y-126749000D02*
X209281000Y-129251000D01*
X209241000Y-126681000D02*
X209241000Y-129319000D01*
X209201000Y-126617000D02*
X209201000Y-129383000D01*
X209161000Y-126557000D02*
X209161000Y-129443000D01*
X209121000Y-126500000D02*
X209121000Y-129500000D01*
X209081000Y-126446000D02*
X209081000Y-129554000D01*
X209041000Y-126395000D02*
X209041000Y-129605000D01*
X209001000Y-129040000D02*
X209001000Y-129653000D01*
X209001000Y-126347000D02*
X209001000Y-126960000D01*
X208961000Y-129040000D02*
X208961000Y-129699000D01*
X208961000Y-126301000D02*
X208961000Y-126960000D01*
X208921000Y-129040000D02*
X208921000Y-129743000D01*
X208921000Y-126257000D02*
X208921000Y-126960000D01*
X208881000Y-129040000D02*
X208881000Y-129785000D01*
X208881000Y-126215000D02*
X208881000Y-126960000D01*
X208841000Y-129040000D02*
X208841000Y-129826000D01*
X208841000Y-126174000D02*
X208841000Y-126960000D01*
X208801000Y-129040000D02*
X208801000Y-129864000D01*
X208801000Y-126136000D02*
X208801000Y-126960000D01*
X208761000Y-129040000D02*
X208761000Y-129901000D01*
X208761000Y-126099000D02*
X208761000Y-126960000D01*
X208721000Y-129040000D02*
X208721000Y-129937000D01*
X208721000Y-126063000D02*
X208721000Y-126960000D01*
X208681000Y-129040000D02*
X208681000Y-129971000D01*
X208681000Y-126029000D02*
X208681000Y-126960000D01*
X208641000Y-129040000D02*
X208641000Y-130004000D01*
X208641000Y-125996000D02*
X208641000Y-126960000D01*
X208601000Y-129040000D02*
X208601000Y-130035000D01*
X208601000Y-125965000D02*
X208601000Y-126960000D01*
X208561000Y-129040000D02*
X208561000Y-130065000D01*
X208561000Y-125935000D02*
X208561000Y-126960000D01*
X208521000Y-129040000D02*
X208521000Y-130095000D01*
X208521000Y-125905000D02*
X208521000Y-126960000D01*
X208481000Y-129040000D02*
X208481000Y-130122000D01*
X208481000Y-125878000D02*
X208481000Y-126960000D01*
X208441000Y-129040000D02*
X208441000Y-130149000D01*
X208441000Y-125851000D02*
X208441000Y-126960000D01*
X208401000Y-129040000D02*
X208401000Y-130175000D01*
X208401000Y-125825000D02*
X208401000Y-126960000D01*
X208361000Y-129040000D02*
X208361000Y-130200000D01*
X208361000Y-125800000D02*
X208361000Y-126960000D01*
X208321000Y-129040000D02*
X208321000Y-130224000D01*
X208321000Y-125776000D02*
X208321000Y-126960000D01*
X208281000Y-129040000D02*
X208281000Y-130247000D01*
X208281000Y-125753000D02*
X208281000Y-126960000D01*
X208241000Y-129040000D02*
X208241000Y-130268000D01*
X208241000Y-125732000D02*
X208241000Y-126960000D01*
X208201000Y-129040000D02*
X208201000Y-130290000D01*
X208201000Y-125710000D02*
X208201000Y-126960000D01*
X208161000Y-129040000D02*
X208161000Y-130310000D01*
X208161000Y-125690000D02*
X208161000Y-126960000D01*
X208121000Y-129040000D02*
X208121000Y-130329000D01*
X208121000Y-125671000D02*
X208121000Y-126960000D01*
X208081000Y-129040000D02*
X208081000Y-130348000D01*
X208081000Y-125652000D02*
X208081000Y-126960000D01*
X208041000Y-129040000D02*
X208041000Y-130365000D01*
X208041000Y-125635000D02*
X208041000Y-126960000D01*
X208001000Y-129040000D02*
X208001000Y-130382000D01*
X208001000Y-125618000D02*
X208001000Y-126960000D01*
X207961000Y-129040000D02*
X207961000Y-130398000D01*
X207961000Y-125602000D02*
X207961000Y-126960000D01*
X207921000Y-129040000D02*
X207921000Y-130414000D01*
X207921000Y-125586000D02*
X207921000Y-126960000D01*
X207881000Y-129040000D02*
X207881000Y-130428000D01*
X207881000Y-125572000D02*
X207881000Y-126960000D01*
X207841000Y-129040000D02*
X207841000Y-130442000D01*
X207841000Y-125558000D02*
X207841000Y-126960000D01*
X207801000Y-129040000D02*
X207801000Y-130455000D01*
X207801000Y-125545000D02*
X207801000Y-126960000D01*
X207761000Y-129040000D02*
X207761000Y-130468000D01*
X207761000Y-125532000D02*
X207761000Y-126960000D01*
X207721000Y-129040000D02*
X207721000Y-130480000D01*
X207721000Y-125520000D02*
X207721000Y-126960000D01*
X207680000Y-129040000D02*
X207680000Y-130491000D01*
X207680000Y-125509000D02*
X207680000Y-126960000D01*
X207640000Y-129040000D02*
X207640000Y-130501000D01*
X207640000Y-125499000D02*
X207640000Y-126960000D01*
X207600000Y-129040000D02*
X207600000Y-130511000D01*
X207600000Y-125489000D02*
X207600000Y-126960000D01*
X207560000Y-129040000D02*
X207560000Y-130520000D01*
X207560000Y-125480000D02*
X207560000Y-126960000D01*
X207520000Y-129040000D02*
X207520000Y-130528000D01*
X207520000Y-125472000D02*
X207520000Y-126960000D01*
X207480000Y-129040000D02*
X207480000Y-130536000D01*
X207480000Y-125464000D02*
X207480000Y-126960000D01*
X207440000Y-129040000D02*
X207440000Y-130543000D01*
X207440000Y-125457000D02*
X207440000Y-126960000D01*
X207400000Y-129040000D02*
X207400000Y-130550000D01*
X207400000Y-125450000D02*
X207400000Y-126960000D01*
X207360000Y-129040000D02*
X207360000Y-130556000D01*
X207360000Y-125444000D02*
X207360000Y-126960000D01*
X207320000Y-129040000D02*
X207320000Y-130561000D01*
X207320000Y-125439000D02*
X207320000Y-126960000D01*
X207280000Y-129040000D02*
X207280000Y-130565000D01*
X207280000Y-125435000D02*
X207280000Y-126960000D01*
X207240000Y-129040000D02*
X207240000Y-130569000D01*
X207240000Y-125431000D02*
X207240000Y-126960000D01*
X207200000Y-129040000D02*
X207200000Y-130573000D01*
X207200000Y-125427000D02*
X207200000Y-126960000D01*
X207160000Y-129040000D02*
X207160000Y-130576000D01*
X207160000Y-125424000D02*
X207160000Y-126960000D01*
X207120000Y-129040000D02*
X207120000Y-130578000D01*
X207120000Y-125422000D02*
X207120000Y-126960000D01*
X207080000Y-129040000D02*
X207080000Y-130579000D01*
X207080000Y-125421000D02*
X207080000Y-126960000D01*
X207040000Y-125420000D02*
X207040000Y-126960000D01*
X207040000Y-129040000D02*
X207040000Y-130580000D01*
X207000000Y-125420000D02*
X207000000Y-126960000D01*
X207000000Y-129040000D02*
X207000000Y-130580000D01*
X209620000Y-128000000D02*
G75*
G03*
X209620000Y-128000000I-2620000J0D01*
G01*
X197620000Y-128000000D02*
G75*
G03*
X197620000Y-128000000I-2620000J0D01*
G01*
X195000000Y-129040000D02*
X195000000Y-130580000D01*
X195000000Y-125420000D02*
X195000000Y-126960000D01*
X195040000Y-129040000D02*
X195040000Y-130580000D01*
X195040000Y-125420000D02*
X195040000Y-126960000D01*
X195080000Y-125421000D02*
X195080000Y-126960000D01*
X195080000Y-129040000D02*
X195080000Y-130579000D01*
X195120000Y-125422000D02*
X195120000Y-126960000D01*
X195120000Y-129040000D02*
X195120000Y-130578000D01*
X195160000Y-125424000D02*
X195160000Y-126960000D01*
X195160000Y-129040000D02*
X195160000Y-130576000D01*
X195200000Y-125427000D02*
X195200000Y-126960000D01*
X195200000Y-129040000D02*
X195200000Y-130573000D01*
X195240000Y-125431000D02*
X195240000Y-126960000D01*
X195240000Y-129040000D02*
X195240000Y-130569000D01*
X195280000Y-125435000D02*
X195280000Y-126960000D01*
X195280000Y-129040000D02*
X195280000Y-130565000D01*
X195320000Y-125439000D02*
X195320000Y-126960000D01*
X195320000Y-129040000D02*
X195320000Y-130561000D01*
X195360000Y-125444000D02*
X195360000Y-126960000D01*
X195360000Y-129040000D02*
X195360000Y-130556000D01*
X195400000Y-125450000D02*
X195400000Y-126960000D01*
X195400000Y-129040000D02*
X195400000Y-130550000D01*
X195440000Y-125457000D02*
X195440000Y-126960000D01*
X195440000Y-129040000D02*
X195440000Y-130543000D01*
X195480000Y-125464000D02*
X195480000Y-126960000D01*
X195480000Y-129040000D02*
X195480000Y-130536000D01*
X195520000Y-125472000D02*
X195520000Y-126960000D01*
X195520000Y-129040000D02*
X195520000Y-130528000D01*
X195560000Y-125480000D02*
X195560000Y-126960000D01*
X195560000Y-129040000D02*
X195560000Y-130520000D01*
X195600000Y-125489000D02*
X195600000Y-126960000D01*
X195600000Y-129040000D02*
X195600000Y-130511000D01*
X195640000Y-125499000D02*
X195640000Y-126960000D01*
X195640000Y-129040000D02*
X195640000Y-130501000D01*
X195680000Y-125509000D02*
X195680000Y-126960000D01*
X195680000Y-129040000D02*
X195680000Y-130491000D01*
X195721000Y-125520000D02*
X195721000Y-126960000D01*
X195721000Y-129040000D02*
X195721000Y-130480000D01*
X195761000Y-125532000D02*
X195761000Y-126960000D01*
X195761000Y-129040000D02*
X195761000Y-130468000D01*
X195801000Y-125545000D02*
X195801000Y-126960000D01*
X195801000Y-129040000D02*
X195801000Y-130455000D01*
X195841000Y-125558000D02*
X195841000Y-126960000D01*
X195841000Y-129040000D02*
X195841000Y-130442000D01*
X195881000Y-125572000D02*
X195881000Y-126960000D01*
X195881000Y-129040000D02*
X195881000Y-130428000D01*
X195921000Y-125586000D02*
X195921000Y-126960000D01*
X195921000Y-129040000D02*
X195921000Y-130414000D01*
X195961000Y-125602000D02*
X195961000Y-126960000D01*
X195961000Y-129040000D02*
X195961000Y-130398000D01*
X196001000Y-125618000D02*
X196001000Y-126960000D01*
X196001000Y-129040000D02*
X196001000Y-130382000D01*
X196041000Y-125635000D02*
X196041000Y-126960000D01*
X196041000Y-129040000D02*
X196041000Y-130365000D01*
X196081000Y-125652000D02*
X196081000Y-126960000D01*
X196081000Y-129040000D02*
X196081000Y-130348000D01*
X196121000Y-125671000D02*
X196121000Y-126960000D01*
X196121000Y-129040000D02*
X196121000Y-130329000D01*
X196161000Y-125690000D02*
X196161000Y-126960000D01*
X196161000Y-129040000D02*
X196161000Y-130310000D01*
X196201000Y-125710000D02*
X196201000Y-126960000D01*
X196201000Y-129040000D02*
X196201000Y-130290000D01*
X196241000Y-125732000D02*
X196241000Y-126960000D01*
X196241000Y-129040000D02*
X196241000Y-130268000D01*
X196281000Y-125753000D02*
X196281000Y-126960000D01*
X196281000Y-129040000D02*
X196281000Y-130247000D01*
X196321000Y-125776000D02*
X196321000Y-126960000D01*
X196321000Y-129040000D02*
X196321000Y-130224000D01*
X196361000Y-125800000D02*
X196361000Y-126960000D01*
X196361000Y-129040000D02*
X196361000Y-130200000D01*
X196401000Y-125825000D02*
X196401000Y-126960000D01*
X196401000Y-129040000D02*
X196401000Y-130175000D01*
X196441000Y-125851000D02*
X196441000Y-126960000D01*
X196441000Y-129040000D02*
X196441000Y-130149000D01*
X196481000Y-125878000D02*
X196481000Y-126960000D01*
X196481000Y-129040000D02*
X196481000Y-130122000D01*
X196521000Y-125905000D02*
X196521000Y-126960000D01*
X196521000Y-129040000D02*
X196521000Y-130095000D01*
X196561000Y-125935000D02*
X196561000Y-126960000D01*
X196561000Y-129040000D02*
X196561000Y-130065000D01*
X196601000Y-125965000D02*
X196601000Y-126960000D01*
X196601000Y-129040000D02*
X196601000Y-130035000D01*
X196641000Y-125996000D02*
X196641000Y-126960000D01*
X196641000Y-129040000D02*
X196641000Y-130004000D01*
X196681000Y-126029000D02*
X196681000Y-126960000D01*
X196681000Y-129040000D02*
X196681000Y-129971000D01*
X196721000Y-126063000D02*
X196721000Y-126960000D01*
X196721000Y-129040000D02*
X196721000Y-129937000D01*
X196761000Y-126099000D02*
X196761000Y-126960000D01*
X196761000Y-129040000D02*
X196761000Y-129901000D01*
X196801000Y-126136000D02*
X196801000Y-126960000D01*
X196801000Y-129040000D02*
X196801000Y-129864000D01*
X196841000Y-126174000D02*
X196841000Y-126960000D01*
X196841000Y-129040000D02*
X196841000Y-129826000D01*
X196881000Y-126215000D02*
X196881000Y-126960000D01*
X196881000Y-129040000D02*
X196881000Y-129785000D01*
X196921000Y-126257000D02*
X196921000Y-126960000D01*
X196921000Y-129040000D02*
X196921000Y-129743000D01*
X196961000Y-126301000D02*
X196961000Y-126960000D01*
X196961000Y-129040000D02*
X196961000Y-129699000D01*
X197001000Y-126347000D02*
X197001000Y-126960000D01*
X197001000Y-129040000D02*
X197001000Y-129653000D01*
X197041000Y-126395000D02*
X197041000Y-129605000D01*
X197081000Y-126446000D02*
X197081000Y-129554000D01*
X197121000Y-126500000D02*
X197121000Y-129500000D01*
X197161000Y-126557000D02*
X197161000Y-129443000D01*
X197201000Y-126617000D02*
X197201000Y-129383000D01*
X197241000Y-126681000D02*
X197241000Y-129319000D01*
X197281000Y-126749000D02*
X197281000Y-129251000D01*
X197321000Y-126822000D02*
X197321000Y-129178000D01*
X197361000Y-126902000D02*
X197361000Y-129098000D01*
X197401000Y-126989000D02*
X197401000Y-129011000D01*
X197441000Y-127085000D02*
X197441000Y-128915000D01*
X197481000Y-127195000D02*
X197481000Y-128805000D01*
X197521000Y-127323000D02*
X197521000Y-128677000D01*
X197561000Y-127482000D02*
X197561000Y-128518000D01*
X197601000Y-127716000D02*
X197601000Y-128284000D01*
X192195225Y-126525000D02*
X192695225Y-126525000D01*
X192445225Y-126275000D02*
X192445225Y-126775000D01*
X104380000Y-144085000D02*
X104380000Y-143380000D01*
X104380000Y-146120000D02*
X104380000Y-145415000D01*
X108620000Y-144085000D02*
X108620000Y-143380000D01*
X108620000Y-146120000D02*
X108620000Y-145415000D01*
X108620000Y-143380000D02*
X104380000Y-143380000D01*
X108620000Y-146120000D02*
X104380000Y-146120000D01*
X135121078Y-122385000D02*
X134603922Y-122385000D01*
X135121078Y-120965000D02*
X134603922Y-120965000D01*
X138928922Y-115940000D02*
X139446078Y-115940000D01*
X138928922Y-117360000D02*
X139446078Y-117360000D01*
X133746078Y-115915000D02*
X133228922Y-115915000D01*
X133746078Y-117335000D02*
X133228922Y-117335000D01*
X139515000Y-111578922D02*
X139515000Y-112096078D01*
X140935000Y-111578922D02*
X140935000Y-112096078D01*
X202000000Y-169300000D02*
X200000000Y-169300000D01*
X206110000Y-155890000D02*
X206110000Y-158950000D01*
X195890000Y-155890000D02*
X206110000Y-155890000D01*
X195890000Y-158950000D02*
X195890000Y-155890000D01*
X195890000Y-169110000D02*
X195890000Y-163050000D01*
X198700000Y-169110000D02*
X195890000Y-169110000D01*
X206110000Y-169110000D02*
X203300000Y-169110000D01*
X206110000Y-163050000D02*
X206110000Y-169110000D01*
X165390000Y-121870000D02*
X165390000Y-120540000D01*
X166720000Y-121870000D02*
X165390000Y-121870000D01*
X165390000Y-119270000D02*
X165390000Y-116670000D01*
X167990000Y-119270000D02*
X165390000Y-119270000D01*
X167990000Y-121870000D02*
X167990000Y-119270000D01*
X165390000Y-116670000D02*
X175670000Y-116670000D01*
X167990000Y-121870000D02*
X175670000Y-121870000D01*
X175670000Y-121870000D02*
X175670000Y-116670000D01*
X183525000Y-98075000D02*
X183525000Y-103075000D01*
X189525000Y-98075000D02*
X183525000Y-98075000D01*
X189525000Y-103075000D02*
X189525000Y-98075000D01*
X183525000Y-103075000D02*
X189525000Y-103075000D01*
X185025000Y-103575000D02*
X184725000Y-104175000D01*
X184725000Y-104175000D02*
X185325000Y-104175000D01*
X185325000Y-104175000D02*
X185025000Y-103575000D01*
D13*
X93793000Y-155810000D02*
G75*
G03*
X93793000Y-155810000I-381000J0D01*
G01*
X95190000Y-147453400D02*
X95190000Y-149396237D01*
X111700000Y-147453400D02*
X95190000Y-147453400D01*
X111700000Y-169246600D02*
X111700000Y-156653763D01*
X95190000Y-169246600D02*
X111700000Y-169246600D01*
X111700000Y-153986237D02*
X111700000Y-152063763D01*
X95190000Y-156653763D02*
X95190000Y-169246600D01*
X111700000Y-149396237D02*
X111700000Y-147453400D01*
X95190000Y-152063763D02*
X95190000Y-153986237D01*
D12*
X158625000Y-105710000D02*
X157525000Y-105710000D01*
X155515000Y-97810000D02*
X155515000Y-105510000D01*
X155515000Y-105510000D02*
X160635000Y-105510000D01*
X160635000Y-97810000D02*
X160635000Y-105510000D01*
X127060000Y-97810000D02*
X127060000Y-105510000D01*
X121940000Y-105510000D02*
X127060000Y-105510000D01*
X121940000Y-97810000D02*
X121940000Y-105510000D01*
X125050000Y-105710000D02*
X123950000Y-105710000D01*
X211620000Y-147500000D02*
G75*
G03*
X211620000Y-147500000I-4870000J0D01*
G01*
X200120000Y-147500000D02*
G75*
G03*
X200120000Y-147500000I-4870000J0D01*
G01*
X152460000Y-115646078D02*
X152460000Y-115128922D01*
X151040000Y-115646078D02*
X151040000Y-115128922D01*
X151040000Y-112221078D02*
X151040000Y-111703922D01*
X152460000Y-112221078D02*
X152460000Y-111703922D01*
X122578922Y-107540000D02*
X123096078Y-107540000D01*
X122578922Y-108960000D02*
X123096078Y-108960000D01*
X135121078Y-120385000D02*
X134603922Y-120385000D01*
X135121078Y-118965000D02*
X134603922Y-118965000D01*
X138078922Y-120385000D02*
X138596078Y-120385000D01*
X138078922Y-118965000D02*
X138596078Y-118965000D01*
X126078922Y-108960000D02*
X126596078Y-108960000D01*
X126078922Y-107540000D02*
X126596078Y-107540000D01*
X159125000Y-111975000D02*
X159125000Y-110025000D01*
X159125000Y-111975000D02*
X159125000Y-113925000D01*
X154005000Y-111975000D02*
X154005000Y-110025000D01*
X154005000Y-111975000D02*
X154005000Y-115425000D01*
X126970000Y-113425000D02*
X126970000Y-109975000D01*
X126970000Y-113425000D02*
X126970000Y-115375000D01*
X121850000Y-113425000D02*
X121850000Y-111475000D01*
X121850000Y-113425000D02*
X121850000Y-115375000D01*
X198440000Y-137000000D02*
X198440000Y-140450000D01*
X198440000Y-137000000D02*
X198440000Y-135050000D01*
X203560000Y-137000000D02*
X203560000Y-138950000D01*
X203560000Y-137000000D02*
X203560000Y-135050000D01*
X138890000Y-111725000D02*
X138890000Y-109775000D01*
X138890000Y-111725000D02*
X138890000Y-113675000D01*
X133770000Y-111725000D02*
X133770000Y-109775000D01*
X133770000Y-111725000D02*
X133770000Y-115175000D01*
X204000000Y-122700000D02*
X204000000Y-117700000D01*
X198000000Y-122700000D02*
X204000000Y-122700000D01*
X198000000Y-117700000D02*
X198000000Y-122700000D01*
X204000000Y-117700000D02*
X198000000Y-117700000D01*
X202500000Y-117200000D02*
X202800000Y-116600000D01*
X202800000Y-116600000D02*
X202200000Y-116600000D01*
X202200000Y-116600000D02*
X202500000Y-117200000D01*
X126940000Y-129190000D02*
X128000000Y-129190000D01*
X126940000Y-130250000D02*
X126940000Y-129190000D01*
X129000000Y-129190000D02*
X131060000Y-129190000D01*
X129000000Y-131250000D02*
X129000000Y-129190000D01*
X126940000Y-131250000D02*
X129000000Y-131250000D01*
X131060000Y-129190000D02*
X131060000Y-135310000D01*
X126940000Y-131250000D02*
X126940000Y-135310000D01*
X126940000Y-135310000D02*
X131060000Y-135310000D01*
X138775000Y-105710000D02*
X137675000Y-105710000D01*
X135665000Y-97810000D02*
X135665000Y-105510000D01*
X135665000Y-105510000D02*
X140785000Y-105510000D01*
X140785000Y-97810000D02*
X140785000Y-105510000D01*
D11*
X104682142Y-104482142D02*
X104634523Y-104529761D01*
X104491666Y-104577380D01*
X104396428Y-104577380D01*
X104253571Y-104529761D01*
X104158333Y-104434523D01*
X104110714Y-104339285D01*
X104063095Y-104148809D01*
X104063095Y-104005952D01*
X104110714Y-103815476D01*
X104158333Y-103720238D01*
X104253571Y-103625000D01*
X104396428Y-103577380D01*
X104491666Y-103577380D01*
X104634523Y-103625000D01*
X104682142Y-103672619D01*
X105634523Y-104577380D02*
X105063095Y-104577380D01*
X105348809Y-104577380D02*
X105348809Y-103577380D01*
X105253571Y-103720238D01*
X105158333Y-103815476D01*
X105063095Y-103863095D01*
X106015476Y-103672619D02*
X106063095Y-103625000D01*
X106158333Y-103577380D01*
X106396428Y-103577380D01*
X106491666Y-103625000D01*
X106539285Y-103672619D01*
X106586904Y-103767857D01*
X106586904Y-103863095D01*
X106539285Y-104005952D01*
X105967857Y-104577380D01*
X106586904Y-104577380D01*
X109512380Y-135381904D02*
X110321904Y-135381904D01*
X110417142Y-135334285D01*
X110464761Y-135286666D01*
X110512380Y-135191428D01*
X110512380Y-135000952D01*
X110464761Y-134905714D01*
X110417142Y-134858095D01*
X110321904Y-134810476D01*
X109512380Y-134810476D01*
X110512380Y-133810476D02*
X110512380Y-134381904D01*
X110512380Y-134096190D02*
X109512380Y-134096190D01*
X109655238Y-134191428D01*
X109750476Y-134286666D01*
X109798095Y-134381904D01*
X99063095Y-110227380D02*
X99063095Y-111036904D01*
X99110714Y-111132142D01*
X99158333Y-111179761D01*
X99253571Y-111227380D01*
X99444047Y-111227380D01*
X99539285Y-111179761D01*
X99586904Y-111132142D01*
X99634523Y-111036904D01*
X99634523Y-110227380D01*
X100015476Y-110227380D02*
X100682142Y-110227380D01*
X100253571Y-111227380D01*
X93682142Y-105982142D02*
X93634523Y-106029761D01*
X93491666Y-106077380D01*
X93396428Y-106077380D01*
X93253571Y-106029761D01*
X93158333Y-105934523D01*
X93110714Y-105839285D01*
X93063095Y-105648809D01*
X93063095Y-105505952D01*
X93110714Y-105315476D01*
X93158333Y-105220238D01*
X93253571Y-105125000D01*
X93396428Y-105077380D01*
X93491666Y-105077380D01*
X93634523Y-105125000D01*
X93682142Y-105172619D01*
X94634523Y-106077380D02*
X94063095Y-106077380D01*
X94348809Y-106077380D02*
X94348809Y-105077380D01*
X94253571Y-105220238D01*
X94158333Y-105315476D01*
X94063095Y-105363095D01*
X94967857Y-105077380D02*
X95586904Y-105077380D01*
X95253571Y-105458333D01*
X95396428Y-105458333D01*
X95491666Y-105505952D01*
X95539285Y-105553571D01*
X95586904Y-105648809D01*
X95586904Y-105886904D01*
X95539285Y-105982142D01*
X95491666Y-106029761D01*
X95396428Y-106077380D01*
X95110714Y-106077380D01*
X95015476Y-106029761D01*
X94967857Y-105982142D01*
X204866666Y-112077380D02*
X204866666Y-112791666D01*
X204819047Y-112934523D01*
X204723809Y-113029761D01*
X204580952Y-113077380D01*
X204485714Y-113077380D01*
X205771428Y-112410714D02*
X205771428Y-113077380D01*
X205533333Y-112029761D02*
X205295238Y-112744047D01*
X205914285Y-112744047D01*
X155645833Y-119007142D02*
X155598214Y-119054761D01*
X155455357Y-119102380D01*
X155360119Y-119102380D01*
X155217261Y-119054761D01*
X155122023Y-118959523D01*
X155074404Y-118864285D01*
X155026785Y-118673809D01*
X155026785Y-118530952D01*
X155074404Y-118340476D01*
X155122023Y-118245238D01*
X155217261Y-118150000D01*
X155360119Y-118102380D01*
X155455357Y-118102380D01*
X155598214Y-118150000D01*
X155645833Y-118197619D01*
X156598214Y-119102380D02*
X156026785Y-119102380D01*
X156312500Y-119102380D02*
X156312500Y-118102380D01*
X156217261Y-118245238D01*
X156122023Y-118340476D01*
X156026785Y-118388095D01*
X159108333Y-119007142D02*
X159060714Y-119054761D01*
X158917857Y-119102380D01*
X158822619Y-119102380D01*
X158679761Y-119054761D01*
X158584523Y-118959523D01*
X158536904Y-118864285D01*
X158489285Y-118673809D01*
X158489285Y-118530952D01*
X158536904Y-118340476D01*
X158584523Y-118245238D01*
X158679761Y-118150000D01*
X158822619Y-118102380D01*
X158917857Y-118102380D01*
X159060714Y-118150000D01*
X159108333Y-118197619D01*
X159489285Y-118197619D02*
X159536904Y-118150000D01*
X159632142Y-118102380D01*
X159870238Y-118102380D01*
X159965476Y-118150000D01*
X160013095Y-118197619D01*
X160060714Y-118292857D01*
X160060714Y-118388095D01*
X160013095Y-118530952D01*
X159441666Y-119102380D01*
X160060714Y-119102380D01*
X151058333Y-105982142D02*
X151010714Y-106029761D01*
X150867857Y-106077380D01*
X150772619Y-106077380D01*
X150629761Y-106029761D01*
X150534523Y-105934523D01*
X150486904Y-105839285D01*
X150439285Y-105648809D01*
X150439285Y-105505952D01*
X150486904Y-105315476D01*
X150534523Y-105220238D01*
X150629761Y-105125000D01*
X150772619Y-105077380D01*
X150867857Y-105077380D01*
X151010714Y-105125000D01*
X151058333Y-105172619D01*
X151391666Y-105077380D02*
X152010714Y-105077380D01*
X151677380Y-105458333D01*
X151820238Y-105458333D01*
X151915476Y-105505952D01*
X151963095Y-105553571D01*
X152010714Y-105648809D01*
X152010714Y-105886904D01*
X151963095Y-105982142D01*
X151915476Y-106029761D01*
X151820238Y-106077380D01*
X151534523Y-106077380D01*
X151439285Y-106029761D01*
X151391666Y-105982142D01*
X120333333Y-114157142D02*
X120285714Y-114204761D01*
X120142857Y-114252380D01*
X120047619Y-114252380D01*
X119904761Y-114204761D01*
X119809523Y-114109523D01*
X119761904Y-114014285D01*
X119714285Y-113823809D01*
X119714285Y-113680952D01*
X119761904Y-113490476D01*
X119809523Y-113395238D01*
X119904761Y-113300000D01*
X120047619Y-113252380D01*
X120142857Y-113252380D01*
X120285714Y-113300000D01*
X120333333Y-113347619D01*
X121190476Y-113585714D02*
X121190476Y-114252380D01*
X120952380Y-113204761D02*
X120714285Y-113919047D01*
X121333333Y-113919047D01*
X124883333Y-120732142D02*
X124835714Y-120779761D01*
X124692857Y-120827380D01*
X124597619Y-120827380D01*
X124454761Y-120779761D01*
X124359523Y-120684523D01*
X124311904Y-120589285D01*
X124264285Y-120398809D01*
X124264285Y-120255952D01*
X124311904Y-120065476D01*
X124359523Y-119970238D01*
X124454761Y-119875000D01*
X124597619Y-119827380D01*
X124692857Y-119827380D01*
X124835714Y-119875000D01*
X124883333Y-119922619D01*
X125788095Y-119827380D02*
X125311904Y-119827380D01*
X125264285Y-120303571D01*
X125311904Y-120255952D01*
X125407142Y-120208333D01*
X125645238Y-120208333D01*
X125740476Y-120255952D01*
X125788095Y-120303571D01*
X125835714Y-120398809D01*
X125835714Y-120636904D01*
X125788095Y-120732142D01*
X125740476Y-120779761D01*
X125645238Y-120827380D01*
X125407142Y-120827380D01*
X125311904Y-120779761D01*
X125264285Y-120732142D01*
X206833333Y-124607142D02*
X206785714Y-124654761D01*
X206642857Y-124702380D01*
X206547619Y-124702380D01*
X206404761Y-124654761D01*
X206309523Y-124559523D01*
X206261904Y-124464285D01*
X206214285Y-124273809D01*
X206214285Y-124130952D01*
X206261904Y-123940476D01*
X206309523Y-123845238D01*
X206404761Y-123750000D01*
X206547619Y-123702380D01*
X206642857Y-123702380D01*
X206785714Y-123750000D01*
X206833333Y-123797619D01*
X207690476Y-123702380D02*
X207500000Y-123702380D01*
X207404761Y-123750000D01*
X207357142Y-123797619D01*
X207261904Y-123940476D01*
X207214285Y-124130952D01*
X207214285Y-124511904D01*
X207261904Y-124607142D01*
X207309523Y-124654761D01*
X207404761Y-124702380D01*
X207595238Y-124702380D01*
X207690476Y-124654761D01*
X207738095Y-124607142D01*
X207785714Y-124511904D01*
X207785714Y-124273809D01*
X207738095Y-124178571D01*
X207690476Y-124130952D01*
X207595238Y-124083333D01*
X207404761Y-124083333D01*
X207309523Y-124130952D01*
X207261904Y-124178571D01*
X207214285Y-124273809D01*
X194833333Y-124607142D02*
X194785714Y-124654761D01*
X194642857Y-124702380D01*
X194547619Y-124702380D01*
X194404761Y-124654761D01*
X194309523Y-124559523D01*
X194261904Y-124464285D01*
X194214285Y-124273809D01*
X194214285Y-124130952D01*
X194261904Y-123940476D01*
X194309523Y-123845238D01*
X194404761Y-123750000D01*
X194547619Y-123702380D01*
X194642857Y-123702380D01*
X194785714Y-123750000D01*
X194833333Y-123797619D01*
X195166666Y-123702380D02*
X195833333Y-123702380D01*
X195404761Y-124702380D01*
X106333333Y-147607142D02*
X106285714Y-147654761D01*
X106142857Y-147702380D01*
X106047619Y-147702380D01*
X105904761Y-147654761D01*
X105809523Y-147559523D01*
X105761904Y-147464285D01*
X105714285Y-147273809D01*
X105714285Y-147130952D01*
X105761904Y-146940476D01*
X105809523Y-146845238D01*
X105904761Y-146750000D01*
X106047619Y-146702380D01*
X106142857Y-146702380D01*
X106285714Y-146750000D01*
X106333333Y-146797619D01*
X106904761Y-147130952D02*
X106809523Y-147083333D01*
X106761904Y-147035714D01*
X106714285Y-146940476D01*
X106714285Y-146892857D01*
X106761904Y-146797619D01*
X106809523Y-146750000D01*
X106904761Y-146702380D01*
X107095238Y-146702380D01*
X107190476Y-146750000D01*
X107238095Y-146797619D01*
X107285714Y-146892857D01*
X107285714Y-146940476D01*
X107238095Y-147035714D01*
X107190476Y-147083333D01*
X107095238Y-147130952D01*
X106904761Y-147130952D01*
X106809523Y-147178571D01*
X106761904Y-147226190D01*
X106714285Y-147321428D01*
X106714285Y-147511904D01*
X106761904Y-147607142D01*
X106809523Y-147654761D01*
X106904761Y-147702380D01*
X107095238Y-147702380D01*
X107190476Y-147654761D01*
X107238095Y-147607142D01*
X107285714Y-147511904D01*
X107285714Y-147321428D01*
X107238095Y-147226190D01*
X107190476Y-147178571D01*
X107095238Y-147130952D01*
X131908333Y-122057142D02*
X131860714Y-122104761D01*
X131717857Y-122152380D01*
X131622619Y-122152380D01*
X131479761Y-122104761D01*
X131384523Y-122009523D01*
X131336904Y-121914285D01*
X131289285Y-121723809D01*
X131289285Y-121580952D01*
X131336904Y-121390476D01*
X131384523Y-121295238D01*
X131479761Y-121200000D01*
X131622619Y-121152380D01*
X131717857Y-121152380D01*
X131860714Y-121200000D01*
X131908333Y-121247619D01*
X132384523Y-122152380D02*
X132575000Y-122152380D01*
X132670238Y-122104761D01*
X132717857Y-122057142D01*
X132813095Y-121914285D01*
X132860714Y-121723809D01*
X132860714Y-121342857D01*
X132813095Y-121247619D01*
X132765476Y-121200000D01*
X132670238Y-121152380D01*
X132479761Y-121152380D01*
X132384523Y-121200000D01*
X132336904Y-121247619D01*
X132289285Y-121342857D01*
X132289285Y-121580952D01*
X132336904Y-121676190D01*
X132384523Y-121723809D01*
X132479761Y-121771428D01*
X132670238Y-121771428D01*
X132765476Y-121723809D01*
X132813095Y-121676190D01*
X132860714Y-121580952D01*
X141732142Y-116982142D02*
X141684523Y-117029761D01*
X141541666Y-117077380D01*
X141446428Y-117077380D01*
X141303571Y-117029761D01*
X141208333Y-116934523D01*
X141160714Y-116839285D01*
X141113095Y-116648809D01*
X141113095Y-116505952D01*
X141160714Y-116315476D01*
X141208333Y-116220238D01*
X141303571Y-116125000D01*
X141446428Y-116077380D01*
X141541666Y-116077380D01*
X141684523Y-116125000D01*
X141732142Y-116172619D01*
X142684523Y-117077380D02*
X142113095Y-117077380D01*
X142398809Y-117077380D02*
X142398809Y-116077380D01*
X142303571Y-116220238D01*
X142208333Y-116315476D01*
X142113095Y-116363095D01*
X143303571Y-116077380D02*
X143398809Y-116077380D01*
X143494047Y-116125000D01*
X143541666Y-116172619D01*
X143589285Y-116267857D01*
X143636904Y-116458333D01*
X143636904Y-116696428D01*
X143589285Y-116886904D01*
X143541666Y-116982142D01*
X143494047Y-117029761D01*
X143398809Y-117077380D01*
X143303571Y-117077380D01*
X143208333Y-117029761D01*
X143160714Y-116982142D01*
X143113095Y-116886904D01*
X143065476Y-116696428D01*
X143065476Y-116458333D01*
X143113095Y-116267857D01*
X143160714Y-116172619D01*
X143208333Y-116125000D01*
X143303571Y-116077380D01*
X129607142Y-117007142D02*
X129559523Y-117054761D01*
X129416666Y-117102380D01*
X129321428Y-117102380D01*
X129178571Y-117054761D01*
X129083333Y-116959523D01*
X129035714Y-116864285D01*
X128988095Y-116673809D01*
X128988095Y-116530952D01*
X129035714Y-116340476D01*
X129083333Y-116245238D01*
X129178571Y-116150000D01*
X129321428Y-116102380D01*
X129416666Y-116102380D01*
X129559523Y-116150000D01*
X129607142Y-116197619D01*
X130559523Y-117102380D02*
X129988095Y-117102380D01*
X130273809Y-117102380D02*
X130273809Y-116102380D01*
X130178571Y-116245238D01*
X130083333Y-116340476D01*
X129988095Y-116388095D01*
X131511904Y-117102380D02*
X130940476Y-117102380D01*
X131226190Y-117102380D02*
X131226190Y-116102380D01*
X131130952Y-116245238D01*
X131035714Y-116340476D01*
X130940476Y-116388095D01*
X142232142Y-112480357D02*
X142279761Y-112527976D01*
X142327380Y-112670833D01*
X142327380Y-112766071D01*
X142279761Y-112908928D01*
X142184523Y-113004166D01*
X142089285Y-113051785D01*
X141898809Y-113099404D01*
X141755952Y-113099404D01*
X141565476Y-113051785D01*
X141470238Y-113004166D01*
X141375000Y-112908928D01*
X141327380Y-112766071D01*
X141327380Y-112670833D01*
X141375000Y-112527976D01*
X141422619Y-112480357D01*
X142327380Y-111527976D02*
X142327380Y-112099404D01*
X142327380Y-111813690D02*
X141327380Y-111813690D01*
X141470238Y-111908928D01*
X141565476Y-112004166D01*
X141613095Y-112099404D01*
X141660714Y-110670833D02*
X142327380Y-110670833D01*
X141279761Y-110908928D02*
X141994047Y-111147023D01*
X141994047Y-110527976D01*
X200666666Y-169752380D02*
X200666666Y-170466666D01*
X200619047Y-170609523D01*
X200523809Y-170704761D01*
X200380952Y-170752380D01*
X200285714Y-170752380D01*
X201666666Y-170752380D02*
X201095238Y-170752380D01*
X201380952Y-170752380D02*
X201380952Y-169752380D01*
X201285714Y-169895238D01*
X201190476Y-169990476D01*
X201095238Y-170038095D01*
X163842380Y-119603333D02*
X164556666Y-119603333D01*
X164699523Y-119650952D01*
X164794761Y-119746190D01*
X164842380Y-119889047D01*
X164842380Y-119984285D01*
X163937619Y-119174761D02*
X163890000Y-119127142D01*
X163842380Y-119031904D01*
X163842380Y-118793809D01*
X163890000Y-118698571D01*
X163937619Y-118650952D01*
X164032857Y-118603333D01*
X164128095Y-118603333D01*
X164270952Y-118650952D01*
X164842380Y-119222380D01*
X164842380Y-118603333D01*
X187191666Y-93627380D02*
X187191666Y-94341666D01*
X187144047Y-94484523D01*
X187048809Y-94579761D01*
X186905952Y-94627380D01*
X186810714Y-94627380D01*
X187572619Y-93627380D02*
X188191666Y-93627380D01*
X187858333Y-94008333D01*
X188001190Y-94008333D01*
X188096428Y-94055952D01*
X188144047Y-94103571D01*
X188191666Y-94198809D01*
X188191666Y-94436904D01*
X188144047Y-94532142D01*
X188096428Y-94579761D01*
X188001190Y-94627380D01*
X187715476Y-94627380D01*
X187620238Y-94579761D01*
X187572619Y-94532142D01*
X103111666Y-157802380D02*
X103111666Y-158516666D01*
X103064047Y-158659523D01*
X102968809Y-158754761D01*
X102825952Y-158802380D01*
X102730714Y-158802380D01*
X104016428Y-157802380D02*
X103825952Y-157802380D01*
X103730714Y-157850000D01*
X103683095Y-157897619D01*
X103587857Y-158040476D01*
X103540238Y-158230952D01*
X103540238Y-158611904D01*
X103587857Y-158707142D01*
X103635476Y-158754761D01*
X103730714Y-158802380D01*
X103921190Y-158802380D01*
X104016428Y-158754761D01*
X104064047Y-158707142D01*
X104111666Y-158611904D01*
X104111666Y-158373809D01*
X104064047Y-158278571D01*
X104016428Y-158230952D01*
X103921190Y-158183333D01*
X103730714Y-158183333D01*
X103635476Y-158230952D01*
X103587857Y-158278571D01*
X103540238Y-158373809D01*
X99206904Y-157802380D02*
X99206904Y-158516666D01*
X99159285Y-158659523D01*
X99064047Y-158754761D01*
X98921190Y-158802380D01*
X98825952Y-158802380D01*
X100206904Y-158802380D02*
X99635476Y-158802380D01*
X99921190Y-158802380D02*
X99921190Y-157802380D01*
X99825952Y-157945238D01*
X99730714Y-158040476D01*
X99635476Y-158088095D01*
X100968809Y-158278571D02*
X101111666Y-158326190D01*
X101159285Y-158373809D01*
X101206904Y-158469047D01*
X101206904Y-158611904D01*
X101159285Y-158707142D01*
X101111666Y-158754761D01*
X101016428Y-158802380D01*
X100635476Y-158802380D01*
X100635476Y-157802380D01*
X100968809Y-157802380D01*
X101064047Y-157850000D01*
X101111666Y-157897619D01*
X101159285Y-157992857D01*
X101159285Y-158088095D01*
X101111666Y-158183333D01*
X101064047Y-158230952D01*
X100968809Y-158278571D01*
X100635476Y-158278571D01*
X102159285Y-158802380D02*
X101587857Y-158802380D01*
X101873571Y-158802380D02*
X101873571Y-157802380D01*
X101778333Y-157945238D01*
X101683095Y-158040476D01*
X101587857Y-158088095D01*
X102540238Y-157897619D02*
X102587857Y-157850000D01*
X102683095Y-157802380D01*
X102921190Y-157802380D01*
X103016428Y-157850000D01*
X103064047Y-157897619D01*
X103111666Y-157992857D01*
X103111666Y-158088095D01*
X103064047Y-158230952D01*
X102492619Y-158802380D01*
X103111666Y-158802380D01*
X104064047Y-158802380D02*
X103492619Y-158802380D01*
X103778333Y-158802380D02*
X103778333Y-157802380D01*
X103683095Y-157945238D01*
X103587857Y-158040476D01*
X103492619Y-158088095D01*
X105016428Y-158802380D02*
X104445000Y-158802380D01*
X104730714Y-158802380D02*
X104730714Y-157802380D01*
X104635476Y-157945238D01*
X104540238Y-158040476D01*
X104445000Y-158088095D01*
X106016428Y-158707142D02*
X105968809Y-158754761D01*
X105825952Y-158802380D01*
X105730714Y-158802380D01*
X105587857Y-158754761D01*
X105492619Y-158659523D01*
X105445000Y-158564285D01*
X105397380Y-158373809D01*
X105397380Y-158230952D01*
X105445000Y-158040476D01*
X105492619Y-157945238D01*
X105587857Y-157850000D01*
X105730714Y-157802380D01*
X105825952Y-157802380D01*
X105968809Y-157850000D01*
X106016428Y-157897619D01*
X107016428Y-158707142D02*
X106968809Y-158754761D01*
X106825952Y-158802380D01*
X106730714Y-158802380D01*
X106587857Y-158754761D01*
X106492619Y-158659523D01*
X106445000Y-158564285D01*
X106397380Y-158373809D01*
X106397380Y-158230952D01*
X106445000Y-158040476D01*
X106492619Y-157945238D01*
X106587857Y-157850000D01*
X106730714Y-157802380D01*
X106825952Y-157802380D01*
X106968809Y-157850000D01*
X107016428Y-157897619D01*
X107445000Y-158802380D02*
X107445000Y-157802380D01*
X107683095Y-157802380D01*
X107825952Y-157850000D01*
X107921190Y-157945238D01*
X107968809Y-158040476D01*
X108016428Y-158230952D01*
X108016428Y-158373809D01*
X107968809Y-158564285D01*
X107921190Y-158659523D01*
X107825952Y-158754761D01*
X107683095Y-158802380D01*
X107445000Y-158802380D01*
X99635000Y-155242390D02*
X99635000Y-155480486D01*
X99396904Y-155385248D02*
X99635000Y-155480486D01*
X99873095Y-155385248D01*
X99492142Y-155670962D02*
X99635000Y-155480486D01*
X99777857Y-155670962D01*
X161027380Y-101833333D02*
X161741666Y-101833333D01*
X161884523Y-101880952D01*
X161979761Y-101976190D01*
X162027380Y-102119047D01*
X162027380Y-102214285D01*
X161027380Y-101452380D02*
X161027380Y-100785714D01*
X162027380Y-101214285D01*
X127452380Y-101833333D02*
X128166666Y-101833333D01*
X128309523Y-101880952D01*
X128404761Y-101976190D01*
X128452380Y-102119047D01*
X128452380Y-102214285D01*
X127880952Y-101214285D02*
X127833333Y-101309523D01*
X127785714Y-101357142D01*
X127690476Y-101404761D01*
X127642857Y-101404761D01*
X127547619Y-101357142D01*
X127500000Y-101309523D01*
X127452380Y-101214285D01*
X127452380Y-101023809D01*
X127500000Y-100928571D01*
X127547619Y-100880952D01*
X127642857Y-100833333D01*
X127690476Y-100833333D01*
X127785714Y-100880952D01*
X127833333Y-100928571D01*
X127880952Y-101023809D01*
X127880952Y-101214285D01*
X127928571Y-101309523D01*
X127976190Y-101357142D01*
X128071428Y-101404761D01*
X128261904Y-101404761D01*
X128357142Y-101357142D01*
X128404761Y-101309523D01*
X128452380Y-101214285D01*
X128452380Y-101023809D01*
X128404761Y-100928571D01*
X128357142Y-100880952D01*
X128261904Y-100833333D01*
X128071428Y-100833333D01*
X127976190Y-100880952D01*
X127928571Y-100928571D01*
X127880952Y-101023809D01*
X201202380Y-147666666D02*
X201202380Y-148142857D01*
X200202380Y-148142857D01*
X201202380Y-146809523D02*
X201202380Y-147380952D01*
X201202380Y-147095238D02*
X200202380Y-147095238D01*
X200345238Y-147190476D01*
X200440476Y-147285714D01*
X200488095Y-147380952D01*
X189702380Y-147666666D02*
X189702380Y-148142857D01*
X188702380Y-148142857D01*
X188797619Y-147380952D02*
X188750000Y-147333333D01*
X188702380Y-147238095D01*
X188702380Y-147000000D01*
X188750000Y-146904761D01*
X188797619Y-146857142D01*
X188892857Y-146809523D01*
X188988095Y-146809523D01*
X189130952Y-146857142D01*
X189702380Y-147428571D01*
X189702380Y-146809523D01*
X150552380Y-115554166D02*
X150076190Y-115887500D01*
X150552380Y-116125595D02*
X149552380Y-116125595D01*
X149552380Y-115744642D01*
X149600000Y-115649404D01*
X149647619Y-115601785D01*
X149742857Y-115554166D01*
X149885714Y-115554166D01*
X149980952Y-115601785D01*
X150028571Y-115649404D01*
X150076190Y-115744642D01*
X150076190Y-116125595D01*
X150552380Y-114601785D02*
X150552380Y-115173214D01*
X150552380Y-114887500D02*
X149552380Y-114887500D01*
X149695238Y-114982738D01*
X149790476Y-115077976D01*
X149838095Y-115173214D01*
X150552380Y-112129166D02*
X150076190Y-112462500D01*
X150552380Y-112700595D02*
X149552380Y-112700595D01*
X149552380Y-112319642D01*
X149600000Y-112224404D01*
X149647619Y-112176785D01*
X149742857Y-112129166D01*
X149885714Y-112129166D01*
X149980952Y-112176785D01*
X150028571Y-112224404D01*
X150076190Y-112319642D01*
X150076190Y-112700595D01*
X149647619Y-111748214D02*
X149600000Y-111700595D01*
X149552380Y-111605357D01*
X149552380Y-111367261D01*
X149600000Y-111272023D01*
X149647619Y-111224404D01*
X149742857Y-111176785D01*
X149838095Y-111176785D01*
X149980952Y-111224404D01*
X150552380Y-111795833D01*
X150552380Y-111176785D01*
X119958333Y-108677380D02*
X119625000Y-108201190D01*
X119386904Y-108677380D02*
X119386904Y-107677380D01*
X119767857Y-107677380D01*
X119863095Y-107725000D01*
X119910714Y-107772619D01*
X119958333Y-107867857D01*
X119958333Y-108010714D01*
X119910714Y-108105952D01*
X119863095Y-108153571D01*
X119767857Y-108201190D01*
X119386904Y-108201190D01*
X120291666Y-107677380D02*
X120910714Y-107677380D01*
X120577380Y-108058333D01*
X120720238Y-108058333D01*
X120815476Y-108105952D01*
X120863095Y-108153571D01*
X120910714Y-108248809D01*
X120910714Y-108486904D01*
X120863095Y-108582142D01*
X120815476Y-108629761D01*
X120720238Y-108677380D01*
X120434523Y-108677380D01*
X120339285Y-108629761D01*
X120291666Y-108582142D01*
X131983333Y-120127380D02*
X131650000Y-119651190D01*
X131411904Y-120127380D02*
X131411904Y-119127380D01*
X131792857Y-119127380D01*
X131888095Y-119175000D01*
X131935714Y-119222619D01*
X131983333Y-119317857D01*
X131983333Y-119460714D01*
X131935714Y-119555952D01*
X131888095Y-119603571D01*
X131792857Y-119651190D01*
X131411904Y-119651190D01*
X132840476Y-119460714D02*
X132840476Y-120127380D01*
X132602380Y-119079761D02*
X132364285Y-119794047D01*
X132983333Y-119794047D01*
X140883333Y-120152380D02*
X140550000Y-119676190D01*
X140311904Y-120152380D02*
X140311904Y-119152380D01*
X140692857Y-119152380D01*
X140788095Y-119200000D01*
X140835714Y-119247619D01*
X140883333Y-119342857D01*
X140883333Y-119485714D01*
X140835714Y-119580952D01*
X140788095Y-119628571D01*
X140692857Y-119676190D01*
X140311904Y-119676190D01*
X141788095Y-119152380D02*
X141311904Y-119152380D01*
X141264285Y-119628571D01*
X141311904Y-119580952D01*
X141407142Y-119533333D01*
X141645238Y-119533333D01*
X141740476Y-119580952D01*
X141788095Y-119628571D01*
X141835714Y-119723809D01*
X141835714Y-119961904D01*
X141788095Y-120057142D01*
X141740476Y-120104761D01*
X141645238Y-120152380D01*
X141407142Y-120152380D01*
X141311904Y-120104761D01*
X141264285Y-120057142D01*
X128883333Y-108677380D02*
X128550000Y-108201190D01*
X128311904Y-108677380D02*
X128311904Y-107677380D01*
X128692857Y-107677380D01*
X128788095Y-107725000D01*
X128835714Y-107772619D01*
X128883333Y-107867857D01*
X128883333Y-108010714D01*
X128835714Y-108105952D01*
X128788095Y-108153571D01*
X128692857Y-108201190D01*
X128311904Y-108201190D01*
X129216666Y-107677380D02*
X129883333Y-107677380D01*
X129454761Y-108677380D01*
X159613095Y-108377380D02*
X159613095Y-109186904D01*
X159660714Y-109282142D01*
X159708333Y-109329761D01*
X159803571Y-109377380D01*
X159994047Y-109377380D01*
X160089285Y-109329761D01*
X160136904Y-109282142D01*
X160184523Y-109186904D01*
X160184523Y-108377380D01*
X160613095Y-108472619D02*
X160660714Y-108425000D01*
X160755952Y-108377380D01*
X160994047Y-108377380D01*
X161089285Y-108425000D01*
X161136904Y-108472619D01*
X161184523Y-108567857D01*
X161184523Y-108663095D01*
X161136904Y-108805952D01*
X160565476Y-109377380D01*
X161184523Y-109377380D01*
X127262380Y-114186904D02*
X128071904Y-114186904D01*
X128167142Y-114139285D01*
X128214761Y-114091666D01*
X128262380Y-113996428D01*
X128262380Y-113805952D01*
X128214761Y-113710714D01*
X128167142Y-113663095D01*
X128071904Y-113615476D01*
X127262380Y-113615476D01*
X127262380Y-113234523D02*
X127262380Y-112615476D01*
X127643333Y-112948809D01*
X127643333Y-112805952D01*
X127690952Y-112710714D01*
X127738571Y-112663095D01*
X127833809Y-112615476D01*
X128071904Y-112615476D01*
X128167142Y-112663095D01*
X128214761Y-112710714D01*
X128262380Y-112805952D01*
X128262380Y-113091666D01*
X128214761Y-113186904D01*
X128167142Y-113234523D01*
X197052380Y-137761904D02*
X197861904Y-137761904D01*
X197957142Y-137714285D01*
X198004761Y-137666666D01*
X198052380Y-137571428D01*
X198052380Y-137380952D01*
X198004761Y-137285714D01*
X197957142Y-137238095D01*
X197861904Y-137190476D01*
X197052380Y-137190476D01*
X197385714Y-136285714D02*
X198052380Y-136285714D01*
X197004761Y-136523809D02*
X197719047Y-136761904D01*
X197719047Y-136142857D01*
X132382380Y-112486904D02*
X133191904Y-112486904D01*
X133287142Y-112439285D01*
X133334761Y-112391666D01*
X133382380Y-112296428D01*
X133382380Y-112105952D01*
X133334761Y-112010714D01*
X133287142Y-111963095D01*
X133191904Y-111915476D01*
X132382380Y-111915476D01*
X132382380Y-110963095D02*
X132382380Y-111439285D01*
X132858571Y-111486904D01*
X132810952Y-111439285D01*
X132763333Y-111344047D01*
X132763333Y-111105952D01*
X132810952Y-111010714D01*
X132858571Y-110963095D01*
X132953809Y-110915476D01*
X133191904Y-110915476D01*
X133287142Y-110963095D01*
X133334761Y-111010714D01*
X133382380Y-111105952D01*
X133382380Y-111344047D01*
X133334761Y-111439285D01*
X133287142Y-111486904D01*
X204891666Y-118177380D02*
X204891666Y-118891666D01*
X204844047Y-119034523D01*
X204748809Y-119129761D01*
X204605952Y-119177380D01*
X204510714Y-119177380D01*
X205415476Y-119177380D02*
X205605952Y-119177380D01*
X205701190Y-119129761D01*
X205748809Y-119082142D01*
X205844047Y-118939285D01*
X205891666Y-118748809D01*
X205891666Y-118367857D01*
X205844047Y-118272619D01*
X205796428Y-118225000D01*
X205701190Y-118177380D01*
X205510714Y-118177380D01*
X205415476Y-118225000D01*
X205367857Y-118272619D01*
X205320238Y-118367857D01*
X205320238Y-118605952D01*
X205367857Y-118701190D01*
X205415476Y-118748809D01*
X205510714Y-118796428D01*
X205701190Y-118796428D01*
X205796428Y-118748809D01*
X205844047Y-118701190D01*
X205891666Y-118605952D01*
X128666666Y-127642380D02*
X128666666Y-128356666D01*
X128619047Y-128499523D01*
X128523809Y-128594761D01*
X128380952Y-128642380D01*
X128285714Y-128642380D01*
X129619047Y-127642380D02*
X129142857Y-127642380D01*
X129095238Y-128118571D01*
X129142857Y-128070952D01*
X129238095Y-128023333D01*
X129476190Y-128023333D01*
X129571428Y-128070952D01*
X129619047Y-128118571D01*
X129666666Y-128213809D01*
X129666666Y-128451904D01*
X129619047Y-128547142D01*
X129571428Y-128594761D01*
X129476190Y-128642380D01*
X129238095Y-128642380D01*
X129142857Y-128594761D01*
X129095238Y-128547142D01*
X141177380Y-102309523D02*
X141891666Y-102309523D01*
X142034523Y-102357142D01*
X142129761Y-102452380D01*
X142177380Y-102595238D01*
X142177380Y-102690476D01*
X142177380Y-101309523D02*
X142177380Y-101880952D01*
X142177380Y-101595238D02*
X141177380Y-101595238D01*
X141320238Y-101690476D01*
X141415476Y-101785714D01*
X141463095Y-101880952D01*
X141177380Y-100690476D02*
X141177380Y-100595238D01*
X141225000Y-100500000D01*
X141272619Y-100452380D01*
X141367857Y-100404761D01*
X141558333Y-100357142D01*
X141796428Y-100357142D01*
X141986904Y-100404761D01*
X142082142Y-100452380D01*
X142129761Y-100500000D01*
X142177380Y-100595238D01*
X142177380Y-100690476D01*
X142129761Y-100785714D01*
X142082142Y-100833333D01*
X141986904Y-100880952D01*
X141796428Y-100928571D01*
X141558333Y-100928571D01*
X141367857Y-100880952D01*
X141272619Y-100833333D01*
X141225000Y-100785714D01*
X141177380Y-100690476D01*
M02*
