G04 #@! TF.GenerationSoftware,KiCad,Pcbnew,(5.1.6-0-10_14)*
G04 #@! TF.CreationDate,2020-09-02T00:25:13+09:00*
G04 #@! TF.ProjectId,teabiscuits_compute,74656162-6973-4637-9569-74735f636f6d,rev?*
G04 #@! TF.SameCoordinates,Original*
G04 #@! TF.FileFunction,Copper,L2,Bot*
G04 #@! TF.FilePolarity,Positive*
%FSLAX46Y46*%
G04 Gerber Fmt 4.6, Leading zero omitted, Abs format (unit mm)*
G04 Created by KiCad (PCBNEW (5.1.6-0-10_14)) date 2020-09-02 00:25:13*
%MOMM*%
%LPD*%
G01*
G04 APERTURE LIST*
G04 #@! TA.AperFunction,ComponentPad*
%ADD10C,1.524000*%
G04 #@! TD*
G04 #@! TA.AperFunction,ComponentPad*
%ADD11O,1.200000X1.200000*%
G04 #@! TD*
G04 #@! TA.AperFunction,ComponentPad*
%ADD12R,1.600000X1.600000*%
G04 #@! TD*
G04 #@! TA.AperFunction,ComponentPad*
%ADD13C,1.600000*%
G04 #@! TD*
G04 #@! TA.AperFunction,ComponentPad*
%ADD14R,4.000000X2.000000*%
G04 #@! TD*
G04 #@! TA.AperFunction,ComponentPad*
%ADD15O,3.300000X2.000000*%
G04 #@! TD*
G04 #@! TA.AperFunction,ComponentPad*
%ADD16O,2.000000X3.500000*%
G04 #@! TD*
G04 #@! TA.AperFunction,ComponentPad*
%ADD17R,1.700000X1.700000*%
G04 #@! TD*
G04 #@! TA.AperFunction,ComponentPad*
%ADD18O,1.700000X1.700000*%
G04 #@! TD*
G04 #@! TA.AperFunction,ComponentPad*
%ADD19C,1.397000*%
G04 #@! TD*
G04 #@! TA.AperFunction,ComponentPad*
%ADD20C,1.549400*%
G04 #@! TD*
G04 #@! TA.AperFunction,ComponentPad*
%ADD21C,3.759200*%
G04 #@! TD*
G04 #@! TA.AperFunction,ComponentPad*
%ADD22C,2.108200*%
G04 #@! TD*
G04 #@! TA.AperFunction,ComponentPad*
%ADD23C,2.600000*%
G04 #@! TD*
G04 #@! TA.AperFunction,ComponentPad*
%ADD24R,1.350000X1.350000*%
G04 #@! TD*
G04 #@! TA.AperFunction,ComponentPad*
%ADD25O,1.350000X1.350000*%
G04 #@! TD*
G04 #@! TA.AperFunction,ViaPad*
%ADD26C,0.800000*%
G04 #@! TD*
G04 #@! TA.AperFunction,Conductor*
%ADD27C,0.500000*%
G04 #@! TD*
G04 #@! TA.AperFunction,Conductor*
%ADD28C,0.250000*%
G04 #@! TD*
G04 #@! TA.AperFunction,Conductor*
%ADD29C,0.200000*%
G04 #@! TD*
G04 #@! TA.AperFunction,Conductor*
%ADD30C,0.254000*%
G04 #@! TD*
G04 APERTURE END LIST*
D10*
X173560000Y-127000000D03*
X171020000Y-127000000D03*
X168480000Y-127000000D03*
X165940000Y-127000000D03*
X163400000Y-127000000D03*
X160860000Y-127000000D03*
X158320000Y-127000000D03*
X155780000Y-127000000D03*
X153240000Y-127000000D03*
X150700000Y-127000000D03*
X148160000Y-127000000D03*
X145620000Y-127000000D03*
X143080000Y-127000000D03*
X140540000Y-127000000D03*
X138000000Y-127000000D03*
X135460000Y-127000000D03*
X132920000Y-127000000D03*
X130380000Y-127000000D03*
X127840000Y-127000000D03*
X125300000Y-127000000D03*
X122760000Y-127000000D03*
X120220000Y-127000000D03*
X117680000Y-127000000D03*
X115140000Y-127000000D03*
X135460000Y-142240000D03*
X160860000Y-142240000D03*
X153240000Y-142240000D03*
X158320000Y-142240000D03*
X173560000Y-142240000D03*
X148160000Y-142240000D03*
X127840000Y-142240000D03*
X140540000Y-142240000D03*
X117680000Y-142240000D03*
X115140000Y-142240000D03*
X150700000Y-142240000D03*
X122760000Y-142240000D03*
X125300000Y-142240000D03*
X132920000Y-142240000D03*
X163400000Y-142240000D03*
X155780000Y-142240000D03*
X165940000Y-142240000D03*
X145620000Y-142240000D03*
X171020000Y-142240000D03*
X130380000Y-142240000D03*
X143080000Y-142240000D03*
X138000000Y-142240000D03*
X120220000Y-142240000D03*
X168480000Y-142240000D03*
D11*
X199475000Y-112550000D03*
X200975000Y-112550000D03*
G04 #@! TA.AperFunction,ComponentPad*
G36*
G01*
X203075000Y-112126400D02*
X203075000Y-112973600D01*
G75*
G02*
X202898600Y-113150000I-176400J0D01*
G01*
X202051400Y-113150000D01*
G75*
G02*
X201875000Y-112973600I0J176400D01*
G01*
X201875000Y-112126400D01*
G75*
G02*
X202051400Y-111950000I176400J0D01*
G01*
X202898600Y-111950000D01*
G75*
G02*
X203075000Y-112126400I0J-176400D01*
G01*
G37*
G04 #@! TD.AperFunction*
D12*
X206000000Y-128000000D03*
D13*
X208000000Y-128000000D03*
X196000000Y-128000000D03*
D12*
X194000000Y-128000000D03*
D13*
X107750000Y-144750000D03*
X105250000Y-144750000D03*
D14*
X201000000Y-168000000D03*
D15*
X201000000Y-162000000D03*
D16*
X205500000Y-161000000D03*
X196500000Y-161000000D03*
D17*
X166720000Y-120540000D03*
D18*
X166720000Y-118000000D03*
X169260000Y-120540000D03*
X169260000Y-118000000D03*
X171800000Y-120540000D03*
X171800000Y-118000000D03*
X174340000Y-120540000D03*
X174340000Y-118000000D03*
D11*
X188025000Y-102075000D03*
X186525000Y-102075000D03*
G04 #@! TA.AperFunction,ComponentPad*
G36*
G01*
X184425000Y-102498600D02*
X184425000Y-101651400D01*
G75*
G02*
X184601400Y-101475000I176400J0D01*
G01*
X185448600Y-101475000D01*
G75*
G02*
X185625000Y-101651400I0J-176400D01*
G01*
X185625000Y-102498600D01*
G75*
G02*
X185448600Y-102675000I-176400J0D01*
G01*
X184601400Y-102675000D01*
G75*
G02*
X184425000Y-102498600I0J176400D01*
G01*
G37*
G04 #@! TD.AperFunction*
D19*
X100270000Y-149460000D03*
X102810000Y-149460000D03*
X105350000Y-149460000D03*
X107890000Y-149460000D03*
X99000000Y-152000000D03*
X101540000Y-152000000D03*
X104080000Y-152000000D03*
X106620000Y-152000000D03*
D20*
X97120000Y-163450000D03*
X99660000Y-161730000D03*
X107230000Y-163430000D03*
X109770000Y-161730000D03*
D21*
X97730000Y-158370000D03*
X109160000Y-158370000D03*
D22*
X95570002Y-155320000D03*
X111319998Y-155320000D03*
D23*
X206750000Y-145000000D03*
X206750000Y-150000000D03*
X195250000Y-150000000D03*
X195250000Y-145000000D03*
D11*
X199500000Y-118700000D03*
X201000000Y-118700000D03*
G04 #@! TA.AperFunction,ComponentPad*
G36*
G01*
X203100000Y-118276400D02*
X203100000Y-119123600D01*
G75*
G02*
X202923600Y-119300000I-176400J0D01*
G01*
X202076400Y-119300000D01*
G75*
G02*
X201900000Y-119123600I0J176400D01*
G01*
X201900000Y-118276400D01*
G75*
G02*
X202076400Y-118100000I176400J0D01*
G01*
X202923600Y-118100000D01*
G75*
G02*
X203100000Y-118276400I0J-176400D01*
G01*
G37*
G04 #@! TD.AperFunction*
D24*
X128000000Y-130250000D03*
D25*
X130000000Y-130250000D03*
X128000000Y-132250000D03*
X130000000Y-132250000D03*
X128000000Y-134250000D03*
X130000000Y-134250000D03*
D26*
X104750000Y-109075000D03*
X149100000Y-115725000D03*
X132725000Y-115225000D03*
X119800000Y-115175000D03*
X141000000Y-117000000D03*
X134000000Y-123000000D03*
X122200000Y-103800000D03*
X127800000Y-103600000D03*
X174325000Y-111125000D03*
X160300000Y-111500000D03*
X143225000Y-111200000D03*
X118150000Y-112550000D03*
X158075000Y-111575000D03*
X153200000Y-111600000D03*
X123700000Y-116875000D03*
X98500000Y-106700000D03*
X147850000Y-108900000D03*
X129850000Y-108325000D03*
X133100000Y-119675000D03*
X130000000Y-119275000D03*
D27*
X202500000Y-113075000D02*
X202500000Y-113975000D01*
X202500000Y-113975000D02*
X202349999Y-114125001D01*
X104750000Y-110625000D02*
X104750000Y-109075000D01*
X108250001Y-114125001D02*
X104750000Y-110625000D01*
X174340000Y-120540000D02*
X178799999Y-116080001D01*
X178799999Y-116080001D02*
X178799999Y-114125001D01*
X202349999Y-114125001D02*
X178799999Y-114125001D01*
X149100000Y-115725000D02*
X149100000Y-114450000D01*
X149100000Y-114450000D02*
X149424999Y-114125001D01*
X178799999Y-114125001D02*
X149424999Y-114125001D01*
X132725000Y-115225000D02*
X132725000Y-114275000D01*
X132725000Y-114275000D02*
X132575001Y-114125001D01*
X149424999Y-114125001D02*
X132575001Y-114125001D01*
X119075001Y-114450001D02*
X119075001Y-114125001D01*
X119075001Y-114125001D02*
X108250001Y-114125001D01*
X119800000Y-115175000D02*
X119075001Y-114450001D01*
X132575001Y-114125001D02*
X119075001Y-114125001D01*
X174325000Y-112375000D02*
X174150000Y-112550000D01*
X174325000Y-111125000D02*
X174325000Y-112375000D01*
X199475000Y-112550000D02*
X174150000Y-112550000D01*
X160300000Y-112325000D02*
X160525000Y-112550000D01*
X160300000Y-111500000D02*
X160300000Y-112325000D01*
X174150000Y-112550000D02*
X160525000Y-112550000D01*
X143225000Y-111200000D02*
X143225000Y-112525000D01*
X143250000Y-112550000D02*
X118150000Y-112550000D01*
X143225000Y-112525000D02*
X143250000Y-112550000D01*
X160525000Y-112550000D02*
X143250000Y-112550000D01*
D28*
X153225000Y-111575000D02*
X153200000Y-111600000D01*
X158075000Y-111575000D02*
X153225000Y-111575000D01*
X170435001Y-121104001D02*
X169364002Y-122175000D01*
X170435001Y-119175001D02*
X170435001Y-121104001D01*
X169260000Y-118000000D02*
X170435001Y-119175001D01*
X169364002Y-122175000D02*
X148000000Y-122175000D01*
X145620000Y-124555000D02*
X145620000Y-127000000D01*
X148000000Y-122175000D02*
X145620000Y-124555000D01*
X141627001Y-141152999D02*
X140540000Y-142240000D01*
X141627001Y-126844237D02*
X141627001Y-141152999D01*
X147931238Y-120540000D02*
X141627001Y-126844237D01*
X166720000Y-120540000D02*
X147931238Y-120540000D01*
X148364999Y-119175001D02*
X140540000Y-127000000D01*
X167895001Y-119175001D02*
X148364999Y-119175001D01*
X169260000Y-120540000D02*
X167895001Y-119175001D01*
X134372999Y-141152999D02*
X134372999Y-126844237D01*
X134372999Y-126844237D02*
X128003762Y-120475000D01*
X135460000Y-142240000D02*
X134372999Y-141152999D01*
X127300000Y-120475000D02*
X123700000Y-116875000D01*
X128003762Y-120475000D02*
X127300000Y-120475000D01*
X98500000Y-106700000D02*
X99575000Y-107775000D01*
X146725000Y-107775000D02*
X147850000Y-108900000D01*
X129850000Y-107775000D02*
X129850000Y-108325000D01*
X129850000Y-107775000D02*
X146725000Y-107775000D01*
X130400000Y-119675000D02*
X130000000Y-119275000D01*
X133100000Y-119675000D02*
X130400000Y-119675000D01*
X99575000Y-107775000D02*
X129850000Y-107775000D01*
X131000001Y-133250001D02*
X131000001Y-135119999D01*
X130000000Y-132250000D02*
X131000001Y-133250001D01*
X131000001Y-135119999D02*
X129900000Y-136220000D01*
X107750000Y-141481547D02*
X107750000Y-144750000D01*
X113011547Y-136220000D02*
X107750000Y-141481547D01*
X129900000Y-136220000D02*
X113011547Y-136220000D01*
D29*
X109431800Y-134250000D02*
X128000000Y-134250000D01*
X98339153Y-145342647D02*
X109431800Y-134250000D01*
X97546109Y-146029202D02*
X97590895Y-146029202D01*
X97427082Y-145971880D02*
X97462097Y-145999803D01*
X96787115Y-145520873D02*
X96920819Y-145551391D01*
X96516267Y-145551391D02*
X96649971Y-145520873D01*
X96392705Y-145610895D02*
X96516267Y-145551391D01*
X96285482Y-145696402D02*
X96392705Y-145610895D01*
X96232364Y-145749519D02*
X96285482Y-145696402D01*
X96146857Y-145856741D02*
X96232364Y-145749519D01*
X96056837Y-146251150D02*
X96056836Y-146114008D01*
X96056836Y-146114008D02*
X96087353Y-145980303D01*
X97357800Y-147741076D02*
X96232365Y-146615641D01*
X97674909Y-145999804D02*
X97709924Y-145971880D01*
X97415121Y-147904890D02*
X97415121Y-147860104D01*
X97502447Y-146019235D02*
X97546109Y-146029202D01*
X96146858Y-146508417D02*
X96087354Y-146384855D01*
X97322786Y-148051842D02*
X97357800Y-148023919D01*
X97044381Y-145610895D02*
X97151604Y-145696402D01*
X97282435Y-148071274D02*
X97322786Y-148051842D01*
X97238772Y-148081240D02*
X97282435Y-148071274D01*
X97193986Y-148081240D02*
X97238772Y-148081240D01*
X97150323Y-148071274D02*
X97193986Y-148081240D01*
X98406800Y-154975000D02*
X95775000Y-152343200D01*
X96297848Y-147572913D02*
X96434992Y-147572913D01*
X96434992Y-147572913D02*
X96568696Y-147603431D01*
X96164143Y-147603431D02*
X96297848Y-147572913D01*
X97385723Y-147776091D02*
X97357800Y-147741076D01*
X97074958Y-148023919D02*
X97109973Y-148051842D01*
X95933359Y-147748442D02*
X96040582Y-147662935D01*
X97405155Y-147816441D02*
X97385723Y-147776091D01*
X95775000Y-147906800D02*
X95933359Y-147748442D01*
X97357800Y-148023919D02*
X97385723Y-147988904D01*
X97634559Y-146019235D02*
X97674909Y-145999804D01*
X95775000Y-152343200D02*
X95775000Y-147906800D01*
X99343200Y-154975000D02*
X98406800Y-154975000D01*
X100495000Y-153823200D02*
X99343200Y-154975000D01*
X101540000Y-152000000D02*
X100495000Y-153045000D01*
X96692258Y-147662935D02*
X96799481Y-147748442D01*
X97385723Y-147988904D02*
X97405155Y-147948553D01*
X97415121Y-147860104D02*
X97405155Y-147816441D01*
X96920819Y-145551391D02*
X97044381Y-145610895D01*
X100495000Y-153045000D02*
X100495000Y-153823200D01*
X96087354Y-146384855D02*
X96056837Y-146251150D01*
X97405155Y-147948553D02*
X97415121Y-147904890D01*
X96040582Y-147662935D02*
X96164143Y-147603431D01*
X97151604Y-145696402D02*
X97427082Y-145971880D01*
X96232365Y-146615641D02*
X96146858Y-146508417D01*
X97462097Y-145999803D02*
X97502447Y-146019235D01*
X96649971Y-145520873D02*
X96787115Y-145520873D01*
X96087353Y-145980303D02*
X96146857Y-145856741D01*
X96568696Y-147603431D02*
X96692258Y-147662935D01*
X97709924Y-145971880D02*
X98339153Y-145342647D01*
X97590895Y-146029202D02*
X97634559Y-146019235D01*
X96799481Y-147748442D02*
X97074958Y-148023919D01*
X97109973Y-148051842D02*
X97150323Y-148071274D01*
X100045000Y-153045000D02*
X100045000Y-153636800D01*
X96432476Y-148045843D02*
X96472826Y-148065275D01*
X96890541Y-148454183D02*
X97014103Y-148513688D01*
X128468001Y-135225001D02*
X128993002Y-134700000D01*
X96652487Y-145993803D02*
X96696149Y-145983838D01*
X96740935Y-145983838D02*
X96784599Y-145993803D01*
X129550000Y-134700000D02*
X130000000Y-134250000D01*
X109618200Y-134700000D02*
X127006998Y-134700000D01*
X98657353Y-145660847D02*
X109618200Y-134700000D01*
X98028122Y-146290079D02*
X98657353Y-145660847D01*
X97894341Y-146402143D02*
X98001564Y-146316636D01*
X97637075Y-146492165D02*
X97770780Y-146461648D01*
X97499931Y-146492166D02*
X97637075Y-146492165D01*
X97135442Y-146316636D02*
X97242665Y-146402143D01*
X97878086Y-147813926D02*
X97847568Y-147680222D01*
X97770780Y-146461648D02*
X97894341Y-146402143D01*
X96696149Y-145983838D02*
X96740935Y-145983838D01*
X96824949Y-146013235D02*
X96859964Y-146041158D01*
X99000000Y-152000000D02*
X100045000Y-153045000D01*
X96612135Y-146013236D02*
X96652487Y-145993803D01*
X127531999Y-135225001D02*
X128468001Y-135225001D01*
X96784599Y-145993803D02*
X96824949Y-146013235D01*
X97284951Y-148544205D02*
X97418656Y-148513688D01*
X96300364Y-148045843D02*
X96344027Y-148035877D01*
X96577120Y-146041159D02*
X96612135Y-146013236D01*
X97242665Y-146402143D02*
X97366226Y-146461649D01*
X96549197Y-146076173D02*
X96577120Y-146041159D01*
X96519799Y-146160188D02*
X96529766Y-146116524D01*
X96344027Y-148035877D02*
X96388813Y-148035877D01*
X96519800Y-146204972D02*
X96519799Y-146160188D01*
X96859964Y-146041158D02*
X97135442Y-146316636D01*
X97702557Y-147449437D02*
X96577121Y-146324001D01*
X96549196Y-146288987D02*
X96529765Y-146248636D01*
X97847568Y-147680222D02*
X97788064Y-147556660D01*
X97878086Y-147951070D02*
X97878086Y-147813926D01*
X97847568Y-148084774D02*
X97878086Y-147951070D01*
X97542217Y-148454183D02*
X97649440Y-148368676D01*
X96529765Y-146248636D02*
X96519800Y-146204972D01*
X96224999Y-148093199D02*
X96260013Y-148065275D01*
X97649440Y-148368676D02*
X97702557Y-148315559D01*
X97147808Y-148544205D02*
X97284951Y-148544205D01*
X97366226Y-146461649D02*
X97499931Y-146492166D01*
X96260013Y-148065275D02*
X96300364Y-148045843D01*
X97788064Y-148208336D02*
X97847568Y-148084774D01*
X96783318Y-148368676D02*
X96890541Y-148454183D01*
X99156800Y-154525000D02*
X98593200Y-154525000D01*
X96507841Y-148093199D02*
X96783318Y-148368676D01*
X97788064Y-147556660D02*
X97702557Y-147449437D01*
X96472826Y-148065275D02*
X96507841Y-148093199D01*
X97014103Y-148513688D02*
X97147808Y-148544205D01*
X128993002Y-134700000D02*
X129550000Y-134700000D01*
X96388813Y-148035877D02*
X96432476Y-148045843D01*
X97418656Y-148513688D02*
X97542217Y-148454183D01*
X96225000Y-152156800D02*
X96224999Y-148093199D01*
X98001564Y-146316636D02*
X98028122Y-146290079D01*
X100045000Y-153636800D02*
X99156800Y-154525000D01*
X96577121Y-146324001D02*
X96549196Y-146288987D01*
X127006998Y-134700000D02*
X127531999Y-135225001D01*
X98593200Y-154525000D02*
X96225000Y-152156800D01*
X97702557Y-148315559D02*
X97788064Y-148208336D01*
X96529766Y-146116524D02*
X96549197Y-146076173D01*
X129393200Y-138225000D02*
X114003200Y-138225000D01*
X113136666Y-140823949D02*
X113029442Y-140909458D01*
X110782412Y-139741383D02*
X110772446Y-139785046D01*
X112270540Y-140823950D02*
X112243983Y-140797390D01*
X103833501Y-150483501D02*
X102810000Y-149460000D01*
X112107216Y-138416579D02*
X112066865Y-138436011D01*
X106913200Y-147755000D02*
X106373501Y-148294699D01*
X110625000Y-141603200D02*
X110625000Y-145213200D01*
X112377764Y-140909457D02*
X112270540Y-140823950D01*
X110993582Y-139608697D02*
X110948796Y-139608697D01*
X111206998Y-140999484D02*
X111121490Y-141106707D01*
X111266502Y-140875922D02*
X111206998Y-140999484D01*
X111266502Y-140471368D02*
X111297020Y-140605073D01*
X111206998Y-140347805D02*
X111266502Y-140471368D01*
X106373501Y-148294699D02*
X106373501Y-149951281D01*
X112606416Y-138755658D02*
X112579858Y-138729099D01*
X110772446Y-139829832D02*
X110782412Y-139873495D01*
X110772446Y-139785046D02*
X110772446Y-139829832D01*
X110801844Y-139701032D02*
X110782412Y-139741383D01*
X110948796Y-139608697D02*
X110905133Y-139618662D01*
X105841281Y-150483501D02*
X103833501Y-150483501D01*
X110829768Y-139948860D02*
X111121490Y-140240582D01*
X113334793Y-140540047D02*
X113275289Y-140663609D01*
X110864783Y-139638094D02*
X110829768Y-139666018D01*
X112279678Y-138436011D02*
X112239328Y-138416579D01*
X110829768Y-139666018D02*
X110801844Y-139701032D01*
X112635031Y-140999479D02*
X112501326Y-140968962D01*
X106373501Y-149951281D02*
X105841281Y-150483501D01*
X111077595Y-139638094D02*
X111037245Y-139618662D01*
X113472541Y-138755658D02*
X113365318Y-138841165D01*
X112243983Y-140797390D02*
X111112610Y-139666018D01*
X112905880Y-140968962D02*
X112772175Y-140999479D01*
X111984494Y-138671411D02*
X112003926Y-138711761D01*
X112031850Y-138463934D02*
X112003926Y-138498948D01*
X113275289Y-140663609D02*
X113189782Y-140770831D01*
X111121490Y-140240582D02*
X111206998Y-140347805D01*
X112066865Y-138436011D02*
X112031850Y-138463934D01*
X113163223Y-139878149D02*
X113189780Y-139904709D01*
X113334793Y-140135493D02*
X113365310Y-140269198D01*
X113275289Y-140011931D02*
X113334793Y-140135493D01*
X111974528Y-138627748D02*
X111984494Y-138671411D01*
X112597536Y-139312465D02*
X112756637Y-139471563D01*
X128450000Y-129800000D02*
X129006998Y-129800000D01*
X112597535Y-139312461D02*
X112597536Y-139312465D01*
X111121490Y-141106707D02*
X111094932Y-141133265D01*
X111037245Y-139618662D02*
X110993582Y-139608697D01*
X110625000Y-145213200D02*
X108083200Y-147755000D01*
X112501326Y-140968962D02*
X112377764Y-140909457D01*
X112003926Y-138711761D02*
X112031850Y-138746776D01*
X111984494Y-138539299D02*
X111974528Y-138582962D01*
X110801844Y-139913845D02*
X110829768Y-139948860D01*
X113029442Y-140909458D02*
X112905880Y-140968962D01*
X112837201Y-138900670D02*
X112713639Y-138841165D01*
X129531999Y-129274999D02*
X130468001Y-129274999D01*
X112003926Y-138498948D02*
X111984494Y-138539299D01*
X113189780Y-139904709D02*
X113275289Y-140011931D01*
X113365310Y-140269198D02*
X113365310Y-140406342D01*
X113365310Y-140406342D02*
X113334793Y-140540047D01*
X112970907Y-138931187D02*
X112837201Y-138900670D01*
X129006998Y-129800000D02*
X129531999Y-129274999D01*
X111094932Y-141133265D02*
X110625000Y-141603200D01*
X111297020Y-140605073D02*
X111297020Y-140742216D01*
X111112610Y-139666018D02*
X111077595Y-139638094D01*
X112150879Y-138406613D02*
X112107216Y-138416579D01*
X112772175Y-140999479D02*
X112635031Y-140999479D01*
X113365318Y-138841165D02*
X113241755Y-138900670D01*
X112195665Y-138406613D02*
X112150879Y-138406613D01*
X110905133Y-139618662D02*
X110864783Y-139638094D01*
X113241755Y-138900670D02*
X113108050Y-138931187D01*
X111297020Y-140742216D02*
X111266502Y-140875922D01*
X112756637Y-139471563D02*
X113163223Y-139878149D01*
X131955000Y-135663200D02*
X129393200Y-138225000D01*
X112314693Y-138463934D02*
X112279678Y-138436011D01*
X112239328Y-138416579D02*
X112195665Y-138406613D01*
X112031850Y-138746776D02*
X112597535Y-139312461D01*
X113189782Y-140770831D02*
X113136666Y-140823949D01*
X113108050Y-138931187D02*
X112970907Y-138931187D01*
X111974528Y-138582962D02*
X111974528Y-138627748D01*
X130468001Y-129274999D02*
X130993002Y-129800000D01*
X114003200Y-138225000D02*
X113472541Y-138755658D01*
X112579858Y-138729099D02*
X112314693Y-138463934D01*
X112713639Y-138841165D02*
X112606416Y-138755658D01*
X108083200Y-147755000D02*
X106913200Y-147755000D01*
X131955000Y-130536800D02*
X131955000Y-135663200D01*
X110782412Y-139873495D02*
X110801844Y-139913845D01*
X130993002Y-129800000D02*
X131218200Y-129800000D01*
X131218200Y-129800000D02*
X131955000Y-130536800D01*
X128000000Y-130250000D02*
X128450000Y-129800000D01*
X105350000Y-148681800D02*
X105350000Y-149460000D01*
X110175000Y-145026800D02*
X107896800Y-147305000D01*
X110175000Y-141416800D02*
X110175000Y-145026800D01*
X110776732Y-140815066D02*
X110175000Y-141416800D01*
X110804655Y-140780051D02*
X110776732Y-140815066D01*
X110834053Y-140696037D02*
X110824087Y-140739700D01*
X110824087Y-140607588D02*
X110834053Y-140651251D01*
X110804655Y-140567238D02*
X110824087Y-140607588D01*
X110776732Y-140532223D02*
X110804655Y-140567238D01*
X110485009Y-140240501D02*
X110511568Y-140267059D01*
X110339997Y-140009715D02*
X110399501Y-140133278D01*
X110309480Y-139876010D02*
X110339997Y-140009715D01*
X110339997Y-139605161D02*
X110309480Y-139738866D01*
X110538127Y-139321260D02*
X110485009Y-139374376D01*
X110902617Y-139145731D02*
X110768912Y-139176248D01*
X111039761Y-139145731D02*
X110902617Y-139145731D01*
X112562181Y-140479191D02*
X111404251Y-139321260D01*
X112681209Y-140536513D02*
X112637547Y-140526546D01*
X112892380Y-140403825D02*
X112872948Y-140444175D01*
X112902345Y-140315376D02*
X112902345Y-140360162D01*
X112892380Y-140271713D02*
X112902345Y-140315376D01*
X111542080Y-138807632D02*
X111601584Y-138931195D01*
X107896800Y-147305000D02*
X106726800Y-147305000D01*
X110511568Y-140267059D02*
X110776732Y-140532223D01*
X111511563Y-138673927D02*
X111542080Y-138807632D01*
X111511563Y-138536783D02*
X111511563Y-138673927D01*
X111173466Y-139176248D02*
X111039761Y-139145731D01*
X111601584Y-138279516D02*
X111542080Y-138403078D01*
X111687092Y-138172293D02*
X111601584Y-138279516D01*
X111740209Y-138119177D02*
X111687092Y-138172293D01*
X111970994Y-137974165D02*
X111847432Y-138033669D01*
X112104700Y-137943647D02*
X111970994Y-137974165D01*
X110645350Y-139235752D02*
X110538127Y-139321260D01*
X112241843Y-137943647D02*
X112104700Y-137943647D01*
X112499111Y-138033669D02*
X112375548Y-137974165D01*
X112606334Y-138119177D02*
X112499111Y-138033669D01*
X111713651Y-139064976D02*
X112845023Y-140196349D01*
X112898057Y-138410900D02*
X112606334Y-138119177D01*
X110824087Y-140739700D02*
X110804655Y-140780051D01*
X112933072Y-138438823D02*
X112898057Y-138410900D01*
X112973423Y-138458255D02*
X112933072Y-138438823D01*
X113017086Y-138468221D02*
X112973423Y-138458255D01*
X113061871Y-138468221D02*
X113017086Y-138468221D01*
X113105534Y-138458255D02*
X113061871Y-138468221D01*
X113145885Y-138438823D02*
X113105534Y-138458255D01*
X112845023Y-140479191D02*
X112810009Y-140507115D01*
X131505000Y-135476800D02*
X129206800Y-137775000D01*
X131505000Y-130723200D02*
X131505000Y-135476800D01*
X112810009Y-140507115D02*
X112769659Y-140526546D01*
X113180900Y-138410900D02*
X113145885Y-138438823D01*
X112845023Y-140196349D02*
X112872948Y-140231363D01*
X111297028Y-139235752D02*
X111173466Y-139176248D01*
X112902345Y-140360162D02*
X112892380Y-140403825D01*
X110834053Y-140651251D02*
X110834053Y-140696037D01*
X106726800Y-147305000D02*
X105350000Y-148681800D01*
X111542080Y-138403078D02*
X111511563Y-138536783D01*
X129206800Y-137775000D02*
X113816800Y-137775000D01*
X131031800Y-130250000D02*
X131505000Y-130723200D01*
X110768912Y-139176248D02*
X110645350Y-139235752D01*
X110399501Y-140133278D02*
X110485009Y-140240501D01*
X113816800Y-137775000D02*
X113180900Y-138410900D01*
X130000000Y-130250000D02*
X131031800Y-130250000D01*
X110485009Y-139374376D02*
X110399501Y-139481599D01*
X112597197Y-140507114D02*
X112562181Y-140479191D01*
X112872948Y-140231363D02*
X112892380Y-140271713D01*
X110309480Y-139738866D02*
X110309480Y-139876010D01*
X112637547Y-140526546D02*
X112597197Y-140507114D01*
X112725995Y-140536513D02*
X112681209Y-140536513D01*
X112872948Y-140444175D02*
X112845023Y-140479191D01*
X111687092Y-139038418D02*
X111713651Y-139064976D01*
X112769659Y-140526546D02*
X112725995Y-140536513D01*
X111404251Y-139321260D02*
X111297028Y-139235752D01*
X111847432Y-138033669D02*
X111740209Y-138119177D01*
X110399501Y-139481599D02*
X110339997Y-139605161D01*
X111601584Y-138931195D02*
X111687092Y-139038418D01*
X112375548Y-137974165D02*
X112241843Y-137943647D01*
D30*
G36*
X214590001Y-147967572D02*
G01*
X214590000Y-147967582D01*
X214590000Y-148717582D01*
X214590001Y-168840000D01*
X203638072Y-168840000D01*
X203638072Y-167000000D01*
X203625812Y-166875518D01*
X203589502Y-166755820D01*
X203530537Y-166645506D01*
X203451185Y-166548815D01*
X203354494Y-166469463D01*
X203244180Y-166410498D01*
X203124482Y-166374188D01*
X203000000Y-166361928D01*
X199000000Y-166361928D01*
X198875518Y-166374188D01*
X198755820Y-166410498D01*
X198645506Y-166469463D01*
X198548815Y-166548815D01*
X198469463Y-166645506D01*
X198410498Y-166755820D01*
X198374188Y-166875518D01*
X198361928Y-167000000D01*
X198361928Y-168840000D01*
X182127000Y-168840000D01*
X182127000Y-160169678D01*
X194865000Y-160169678D01*
X194865000Y-161830321D01*
X194888657Y-162070515D01*
X194982148Y-162378714D01*
X195133969Y-162662751D01*
X195338286Y-162911714D01*
X195587248Y-163116031D01*
X195871285Y-163267852D01*
X196179484Y-163361343D01*
X196500000Y-163392911D01*
X196820515Y-163361343D01*
X197128714Y-163267852D01*
X197412751Y-163116031D01*
X197661714Y-162911714D01*
X197866031Y-162662752D01*
X198017852Y-162378715D01*
X198111343Y-162070516D01*
X198118288Y-162000000D01*
X198707089Y-162000000D01*
X198738657Y-162320516D01*
X198832148Y-162628715D01*
X198983969Y-162912752D01*
X199188286Y-163161714D01*
X199437248Y-163366031D01*
X199721285Y-163517852D01*
X200029484Y-163611343D01*
X200269678Y-163635000D01*
X201730322Y-163635000D01*
X201970516Y-163611343D01*
X202278715Y-163517852D01*
X202562752Y-163366031D01*
X202811714Y-163161714D01*
X203016031Y-162912752D01*
X203167852Y-162628715D01*
X203261343Y-162320516D01*
X203292911Y-162000000D01*
X203261343Y-161679484D01*
X203167852Y-161371285D01*
X203016031Y-161087248D01*
X202811714Y-160838286D01*
X202562752Y-160633969D01*
X202278715Y-160482148D01*
X201970516Y-160388657D01*
X201730322Y-160365000D01*
X201454432Y-160365000D01*
X201679727Y-160271680D01*
X201832384Y-160169678D01*
X203865000Y-160169678D01*
X203865000Y-161830321D01*
X203888657Y-162070515D01*
X203982148Y-162378714D01*
X204133969Y-162662751D01*
X204338286Y-162911714D01*
X204587248Y-163116031D01*
X204871285Y-163267852D01*
X205179484Y-163361343D01*
X205500000Y-163392911D01*
X205820515Y-163361343D01*
X206128714Y-163267852D01*
X206412751Y-163116031D01*
X206661714Y-162911714D01*
X206866031Y-162662752D01*
X207017852Y-162378715D01*
X207111343Y-162070516D01*
X207135000Y-161830322D01*
X207135000Y-160169678D01*
X207111343Y-159929484D01*
X207017852Y-159621285D01*
X206866031Y-159337248D01*
X206661714Y-159088286D01*
X206412752Y-158883969D01*
X206128715Y-158732148D01*
X205820516Y-158638657D01*
X205500000Y-158607089D01*
X205179485Y-158638657D01*
X204871286Y-158732148D01*
X204587249Y-158883969D01*
X204338287Y-159088286D01*
X204133970Y-159337248D01*
X203982149Y-159621285D01*
X203888657Y-159929484D01*
X203865000Y-160169678D01*
X201832384Y-160169678D01*
X201914759Y-160114637D01*
X202114637Y-159914759D01*
X202271680Y-159679727D01*
X202379853Y-159418574D01*
X202435000Y-159141335D01*
X202435000Y-158858665D01*
X202379853Y-158581426D01*
X202271680Y-158320273D01*
X202114637Y-158085241D01*
X201914759Y-157885363D01*
X201679727Y-157728320D01*
X201418574Y-157620147D01*
X201141335Y-157565000D01*
X200858665Y-157565000D01*
X200581426Y-157620147D01*
X200320273Y-157728320D01*
X200085241Y-157885363D01*
X199885363Y-158085241D01*
X199728320Y-158320273D01*
X199620147Y-158581426D01*
X199565000Y-158858665D01*
X199565000Y-159141335D01*
X199620147Y-159418574D01*
X199728320Y-159679727D01*
X199885363Y-159914759D01*
X200085241Y-160114637D01*
X200320273Y-160271680D01*
X200545568Y-160365000D01*
X200269678Y-160365000D01*
X200029484Y-160388657D01*
X199721285Y-160482148D01*
X199437248Y-160633969D01*
X199188286Y-160838286D01*
X198983969Y-161087248D01*
X198832148Y-161371285D01*
X198738657Y-161679484D01*
X198707089Y-162000000D01*
X198118288Y-162000000D01*
X198135000Y-161830322D01*
X198135000Y-160169678D01*
X198111343Y-159929484D01*
X198017852Y-159621285D01*
X197866031Y-159337248D01*
X197661714Y-159088286D01*
X197412752Y-158883969D01*
X197128715Y-158732148D01*
X196820516Y-158638657D01*
X196500000Y-158607089D01*
X196179485Y-158638657D01*
X195871286Y-158732148D01*
X195587249Y-158883969D01*
X195338287Y-159088286D01*
X195133970Y-159337248D01*
X194982149Y-159621285D01*
X194888657Y-159929484D01*
X194865000Y-160169678D01*
X182127000Y-160169678D01*
X182127000Y-149809419D01*
X193315000Y-149809419D01*
X193315000Y-150190581D01*
X193389361Y-150564419D01*
X193535225Y-150916566D01*
X193746987Y-151233491D01*
X194016509Y-151503013D01*
X194333434Y-151714775D01*
X194685581Y-151860639D01*
X195059419Y-151935000D01*
X195440581Y-151935000D01*
X195814419Y-151860639D01*
X196166566Y-151714775D01*
X196483491Y-151503013D01*
X196753013Y-151233491D01*
X196964775Y-150916566D01*
X197110639Y-150564419D01*
X197185000Y-150190581D01*
X197185000Y-149809419D01*
X204815000Y-149809419D01*
X204815000Y-150190581D01*
X204889361Y-150564419D01*
X205035225Y-150916566D01*
X205246987Y-151233491D01*
X205516509Y-151503013D01*
X205833434Y-151714775D01*
X206185581Y-151860639D01*
X206559419Y-151935000D01*
X206940581Y-151935000D01*
X207314419Y-151860639D01*
X207666566Y-151714775D01*
X207983491Y-151503013D01*
X208253013Y-151233491D01*
X208464775Y-150916566D01*
X208610639Y-150564419D01*
X208685000Y-150190581D01*
X208685000Y-149809419D01*
X208610639Y-149435581D01*
X208464775Y-149083434D01*
X208253013Y-148766509D01*
X207983491Y-148496987D01*
X207666566Y-148285225D01*
X207314419Y-148139361D01*
X206940581Y-148065000D01*
X206559419Y-148065000D01*
X206185581Y-148139361D01*
X205833434Y-148285225D01*
X205516509Y-148496987D01*
X205246987Y-148766509D01*
X205035225Y-149083434D01*
X204889361Y-149435581D01*
X204815000Y-149809419D01*
X197185000Y-149809419D01*
X197110639Y-149435581D01*
X196964775Y-149083434D01*
X196753013Y-148766509D01*
X196483491Y-148496987D01*
X196166566Y-148285225D01*
X195814419Y-148139361D01*
X195440581Y-148065000D01*
X195059419Y-148065000D01*
X194685581Y-148139361D01*
X194333434Y-148285225D01*
X194016509Y-148496987D01*
X193746987Y-148766509D01*
X193535225Y-149083434D01*
X193389361Y-149435581D01*
X193315000Y-149809419D01*
X182127000Y-149809419D01*
X182127000Y-144809419D01*
X193315000Y-144809419D01*
X193315000Y-145190581D01*
X193389361Y-145564419D01*
X193535225Y-145916566D01*
X193746987Y-146233491D01*
X194016509Y-146503013D01*
X194333434Y-146714775D01*
X194685581Y-146860639D01*
X195059419Y-146935000D01*
X195440581Y-146935000D01*
X195814419Y-146860639D01*
X196166566Y-146714775D01*
X196483491Y-146503013D01*
X196753013Y-146233491D01*
X196964775Y-145916566D01*
X197110639Y-145564419D01*
X197185000Y-145190581D01*
X197185000Y-144809419D01*
X204815000Y-144809419D01*
X204815000Y-145190581D01*
X204889361Y-145564419D01*
X205035225Y-145916566D01*
X205246987Y-146233491D01*
X205516509Y-146503013D01*
X205833434Y-146714775D01*
X206185581Y-146860639D01*
X206559419Y-146935000D01*
X206940581Y-146935000D01*
X207314419Y-146860639D01*
X207666566Y-146714775D01*
X207983491Y-146503013D01*
X208253013Y-146233491D01*
X208464775Y-145916566D01*
X208610639Y-145564419D01*
X208685000Y-145190581D01*
X208685000Y-144809419D01*
X208610639Y-144435581D01*
X208464775Y-144083434D01*
X208253013Y-143766509D01*
X207983491Y-143496987D01*
X207666566Y-143285225D01*
X207314419Y-143139361D01*
X206940581Y-143065000D01*
X206559419Y-143065000D01*
X206185581Y-143139361D01*
X205833434Y-143285225D01*
X205516509Y-143496987D01*
X205246987Y-143766509D01*
X205035225Y-144083434D01*
X204889361Y-144435581D01*
X204815000Y-144809419D01*
X197185000Y-144809419D01*
X197110639Y-144435581D01*
X196964775Y-144083434D01*
X196753013Y-143766509D01*
X196483491Y-143496987D01*
X196166566Y-143285225D01*
X195814419Y-143139361D01*
X195440581Y-143065000D01*
X195059419Y-143065000D01*
X194685581Y-143139361D01*
X194333434Y-143285225D01*
X194016509Y-143496987D01*
X193746987Y-143766509D01*
X193535225Y-144083434D01*
X193389361Y-144435581D01*
X193315000Y-144809419D01*
X182127000Y-144809419D01*
X182127000Y-128800000D01*
X192561928Y-128800000D01*
X192574188Y-128924482D01*
X192610498Y-129044180D01*
X192669463Y-129154494D01*
X192748815Y-129251185D01*
X192845506Y-129330537D01*
X192955820Y-129389502D01*
X193075518Y-129425812D01*
X193200000Y-129438072D01*
X193714250Y-129435000D01*
X193873000Y-129276250D01*
X193873000Y-128127000D01*
X192723750Y-128127000D01*
X192565000Y-128285750D01*
X192561928Y-128800000D01*
X182127000Y-128800000D01*
X182127000Y-127200000D01*
X192561928Y-127200000D01*
X192565000Y-127714250D01*
X192723750Y-127873000D01*
X193873000Y-127873000D01*
X193873000Y-126723750D01*
X194127000Y-126723750D01*
X194127000Y-127873000D01*
X194147000Y-127873000D01*
X194147000Y-128127000D01*
X194127000Y-128127000D01*
X194127000Y-129276250D01*
X194285750Y-129435000D01*
X194800000Y-129438072D01*
X194924482Y-129425812D01*
X195044180Y-129389502D01*
X195154494Y-129330537D01*
X195251185Y-129251185D01*
X195264790Y-129234607D01*
X195320273Y-129271680D01*
X195581426Y-129379853D01*
X195858665Y-129435000D01*
X196141335Y-129435000D01*
X196418574Y-129379853D01*
X196679727Y-129271680D01*
X196914759Y-129114637D01*
X197114637Y-128914759D01*
X197271680Y-128679727D01*
X197379853Y-128418574D01*
X197435000Y-128141335D01*
X197435000Y-127858665D01*
X197379853Y-127581426D01*
X197271680Y-127320273D01*
X197191317Y-127200000D01*
X204561928Y-127200000D01*
X204561928Y-128800000D01*
X204574188Y-128924482D01*
X204610498Y-129044180D01*
X204669463Y-129154494D01*
X204748815Y-129251185D01*
X204845506Y-129330537D01*
X204955820Y-129389502D01*
X205075518Y-129425812D01*
X205200000Y-129438072D01*
X206800000Y-129438072D01*
X206924482Y-129425812D01*
X207044180Y-129389502D01*
X207154494Y-129330537D01*
X207251185Y-129251185D01*
X207261807Y-129238242D01*
X207513996Y-129357571D01*
X207788184Y-129426300D01*
X208070512Y-129440217D01*
X208350130Y-129398787D01*
X208616292Y-129303603D01*
X208741514Y-129236671D01*
X208813097Y-128992702D01*
X208000000Y-128179605D01*
X207985858Y-128193748D01*
X207806253Y-128014143D01*
X207820395Y-128000000D01*
X208179605Y-128000000D01*
X208992702Y-128813097D01*
X209236671Y-128741514D01*
X209357571Y-128486004D01*
X209426300Y-128211816D01*
X209440217Y-127929488D01*
X209398787Y-127649870D01*
X209303603Y-127383708D01*
X209236671Y-127258486D01*
X208992702Y-127186903D01*
X208179605Y-128000000D01*
X207820395Y-128000000D01*
X207806253Y-127985858D01*
X207985858Y-127806253D01*
X208000000Y-127820395D01*
X208813097Y-127007298D01*
X208741514Y-126763329D01*
X208486004Y-126642429D01*
X208211816Y-126573700D01*
X207929488Y-126559783D01*
X207649870Y-126601213D01*
X207383708Y-126696397D01*
X207261691Y-126761616D01*
X207251185Y-126748815D01*
X207154494Y-126669463D01*
X207044180Y-126610498D01*
X206924482Y-126574188D01*
X206800000Y-126561928D01*
X205200000Y-126561928D01*
X205075518Y-126574188D01*
X204955820Y-126610498D01*
X204845506Y-126669463D01*
X204748815Y-126748815D01*
X204669463Y-126845506D01*
X204610498Y-126955820D01*
X204574188Y-127075518D01*
X204561928Y-127200000D01*
X197191317Y-127200000D01*
X197114637Y-127085241D01*
X196914759Y-126885363D01*
X196679727Y-126728320D01*
X196418574Y-126620147D01*
X196141335Y-126565000D01*
X195858665Y-126565000D01*
X195581426Y-126620147D01*
X195320273Y-126728320D01*
X195264790Y-126765393D01*
X195251185Y-126748815D01*
X195154494Y-126669463D01*
X195044180Y-126610498D01*
X194924482Y-126574188D01*
X194800000Y-126561928D01*
X194285750Y-126565000D01*
X194127000Y-126723750D01*
X193873000Y-126723750D01*
X193714250Y-126565000D01*
X193200000Y-126561928D01*
X193075518Y-126574188D01*
X192955820Y-126610498D01*
X192845506Y-126669463D01*
X192748815Y-126748815D01*
X192669463Y-126845506D01*
X192610498Y-126955820D01*
X192574188Y-127075518D01*
X192561928Y-127200000D01*
X182127000Y-127200000D01*
X182127000Y-118578363D01*
X198265000Y-118578363D01*
X198265000Y-118821637D01*
X198312460Y-119060236D01*
X198405557Y-119284992D01*
X198540713Y-119487267D01*
X198712733Y-119659287D01*
X198915008Y-119794443D01*
X199139764Y-119887540D01*
X199378363Y-119935000D01*
X199621637Y-119935000D01*
X199860236Y-119887540D01*
X200084992Y-119794443D01*
X200252344Y-119682622D01*
X200455659Y-119808572D01*
X200682390Y-119893467D01*
X200873000Y-119769709D01*
X200873000Y-118827000D01*
X200853000Y-118827000D01*
X200853000Y-118573000D01*
X200873000Y-118573000D01*
X200873000Y-117630291D01*
X201127000Y-117630291D01*
X201127000Y-118573000D01*
X201147000Y-118573000D01*
X201147000Y-118827000D01*
X201127000Y-118827000D01*
X201127000Y-119769709D01*
X201317610Y-119893467D01*
X201544341Y-119808572D01*
X201595070Y-119777146D01*
X201623904Y-119800809D01*
X201764715Y-119876074D01*
X201917504Y-119922422D01*
X202076400Y-119938072D01*
X202923600Y-119938072D01*
X203082496Y-119922422D01*
X203235285Y-119876074D01*
X203376096Y-119800809D01*
X203499519Y-119699519D01*
X203600809Y-119576096D01*
X203676074Y-119435285D01*
X203722422Y-119282496D01*
X203738072Y-119123600D01*
X203738072Y-118276400D01*
X203722422Y-118117504D01*
X203676074Y-117964715D01*
X203600809Y-117823904D01*
X203499519Y-117700481D01*
X203376096Y-117599191D01*
X203235285Y-117523926D01*
X203082496Y-117477578D01*
X202923600Y-117461928D01*
X202076400Y-117461928D01*
X201917504Y-117477578D01*
X201764715Y-117523926D01*
X201623904Y-117599191D01*
X201595070Y-117622854D01*
X201544341Y-117591428D01*
X201317610Y-117506533D01*
X201127000Y-117630291D01*
X200873000Y-117630291D01*
X200682390Y-117506533D01*
X200455659Y-117591428D01*
X200252344Y-117717378D01*
X200084992Y-117605557D01*
X199860236Y-117512460D01*
X199621637Y-117465000D01*
X199378363Y-117465000D01*
X199139764Y-117512460D01*
X198915008Y-117605557D01*
X198712733Y-117740713D01*
X198540713Y-117912733D01*
X198405557Y-118115008D01*
X198312460Y-118339764D01*
X198265000Y-118578363D01*
X182127000Y-118578363D01*
X182127000Y-115010001D01*
X202306530Y-115010001D01*
X202349999Y-115014282D01*
X202393468Y-115010001D01*
X202393476Y-115010001D01*
X202523489Y-114997196D01*
X202690312Y-114946590D01*
X202844058Y-114864412D01*
X202978816Y-114753818D01*
X203006533Y-114720045D01*
X203095044Y-114631534D01*
X203128817Y-114603817D01*
X203239411Y-114469059D01*
X203321589Y-114315313D01*
X203372195Y-114148490D01*
X203385000Y-114018477D01*
X203385000Y-114018467D01*
X203389281Y-113975001D01*
X203385000Y-113931535D01*
X203385000Y-113622985D01*
X203474519Y-113549519D01*
X203575809Y-113426096D01*
X203651074Y-113285285D01*
X203697422Y-113132496D01*
X203713072Y-112973600D01*
X203713072Y-112126400D01*
X203697422Y-111967504D01*
X203651074Y-111814715D01*
X203575809Y-111673904D01*
X203474519Y-111550481D01*
X203351096Y-111449191D01*
X203210285Y-111373926D01*
X203057496Y-111327578D01*
X202898600Y-111311928D01*
X202051400Y-111311928D01*
X201892504Y-111327578D01*
X201739715Y-111373926D01*
X201598904Y-111449191D01*
X201570070Y-111472854D01*
X201519341Y-111441428D01*
X201292610Y-111356533D01*
X201102000Y-111480291D01*
X201102000Y-112423000D01*
X201122000Y-112423000D01*
X201122000Y-112677000D01*
X201102000Y-112677000D01*
X201102000Y-112697000D01*
X200848000Y-112697000D01*
X200848000Y-112677000D01*
X200828000Y-112677000D01*
X200828000Y-112423000D01*
X200848000Y-112423000D01*
X200848000Y-111480291D01*
X200657390Y-111356533D01*
X200430659Y-111441428D01*
X200227344Y-111567378D01*
X200059992Y-111455557D01*
X199835236Y-111362460D01*
X199596637Y-111315000D01*
X199353363Y-111315000D01*
X199114764Y-111362460D01*
X198890008Y-111455557D01*
X198687733Y-111590713D01*
X198613446Y-111665000D01*
X182127000Y-111665000D01*
X182127000Y-101651400D01*
X183786928Y-101651400D01*
X183786928Y-102498600D01*
X183802578Y-102657496D01*
X183848926Y-102810285D01*
X183924191Y-102951096D01*
X184025481Y-103074519D01*
X184148904Y-103175809D01*
X184289715Y-103251074D01*
X184442504Y-103297422D01*
X184601400Y-103313072D01*
X185448600Y-103313072D01*
X185607496Y-103297422D01*
X185760285Y-103251074D01*
X185901096Y-103175809D01*
X185929930Y-103152146D01*
X185980659Y-103183572D01*
X186207390Y-103268467D01*
X186398000Y-103144709D01*
X186398000Y-102202000D01*
X186378000Y-102202000D01*
X186378000Y-101948000D01*
X186398000Y-101948000D01*
X186398000Y-101005291D01*
X186652000Y-101005291D01*
X186652000Y-101948000D01*
X186672000Y-101948000D01*
X186672000Y-102202000D01*
X186652000Y-102202000D01*
X186652000Y-103144709D01*
X186842610Y-103268467D01*
X187069341Y-103183572D01*
X187272656Y-103057622D01*
X187440008Y-103169443D01*
X187664764Y-103262540D01*
X187903363Y-103310000D01*
X188146637Y-103310000D01*
X188385236Y-103262540D01*
X188609992Y-103169443D01*
X188812267Y-103034287D01*
X188984287Y-102862267D01*
X189119443Y-102659992D01*
X189212540Y-102435236D01*
X189260000Y-102196637D01*
X189260000Y-101953363D01*
X189212540Y-101714764D01*
X189119443Y-101490008D01*
X188984287Y-101287733D01*
X188812267Y-101115713D01*
X188609992Y-100980557D01*
X188385236Y-100887460D01*
X188146637Y-100840000D01*
X187903363Y-100840000D01*
X187664764Y-100887460D01*
X187440008Y-100980557D01*
X187272656Y-101092378D01*
X187069341Y-100966428D01*
X186842610Y-100881533D01*
X186652000Y-101005291D01*
X186398000Y-101005291D01*
X186207390Y-100881533D01*
X185980659Y-100966428D01*
X185929930Y-100997854D01*
X185901096Y-100974191D01*
X185760285Y-100898926D01*
X185607496Y-100852578D01*
X185448600Y-100836928D01*
X184601400Y-100836928D01*
X184442504Y-100852578D01*
X184289715Y-100898926D01*
X184148904Y-100974191D01*
X184025481Y-101075481D01*
X183924191Y-101198904D01*
X183848926Y-101339715D01*
X183802578Y-101492504D01*
X183786928Y-101651400D01*
X182127000Y-101651400D01*
X182127000Y-98410000D01*
X214590000Y-98410000D01*
X214590001Y-147967572D01*
G37*
X214590001Y-147967572D02*
X214590000Y-147967582D01*
X214590000Y-148717582D01*
X214590001Y-168840000D01*
X203638072Y-168840000D01*
X203638072Y-167000000D01*
X203625812Y-166875518D01*
X203589502Y-166755820D01*
X203530537Y-166645506D01*
X203451185Y-166548815D01*
X203354494Y-166469463D01*
X203244180Y-166410498D01*
X203124482Y-166374188D01*
X203000000Y-166361928D01*
X199000000Y-166361928D01*
X198875518Y-166374188D01*
X198755820Y-166410498D01*
X198645506Y-166469463D01*
X198548815Y-166548815D01*
X198469463Y-166645506D01*
X198410498Y-166755820D01*
X198374188Y-166875518D01*
X198361928Y-167000000D01*
X198361928Y-168840000D01*
X182127000Y-168840000D01*
X182127000Y-160169678D01*
X194865000Y-160169678D01*
X194865000Y-161830321D01*
X194888657Y-162070515D01*
X194982148Y-162378714D01*
X195133969Y-162662751D01*
X195338286Y-162911714D01*
X195587248Y-163116031D01*
X195871285Y-163267852D01*
X196179484Y-163361343D01*
X196500000Y-163392911D01*
X196820515Y-163361343D01*
X197128714Y-163267852D01*
X197412751Y-163116031D01*
X197661714Y-162911714D01*
X197866031Y-162662752D01*
X198017852Y-162378715D01*
X198111343Y-162070516D01*
X198118288Y-162000000D01*
X198707089Y-162000000D01*
X198738657Y-162320516D01*
X198832148Y-162628715D01*
X198983969Y-162912752D01*
X199188286Y-163161714D01*
X199437248Y-163366031D01*
X199721285Y-163517852D01*
X200029484Y-163611343D01*
X200269678Y-163635000D01*
X201730322Y-163635000D01*
X201970516Y-163611343D01*
X202278715Y-163517852D01*
X202562752Y-163366031D01*
X202811714Y-163161714D01*
X203016031Y-162912752D01*
X203167852Y-162628715D01*
X203261343Y-162320516D01*
X203292911Y-162000000D01*
X203261343Y-161679484D01*
X203167852Y-161371285D01*
X203016031Y-161087248D01*
X202811714Y-160838286D01*
X202562752Y-160633969D01*
X202278715Y-160482148D01*
X201970516Y-160388657D01*
X201730322Y-160365000D01*
X201454432Y-160365000D01*
X201679727Y-160271680D01*
X201832384Y-160169678D01*
X203865000Y-160169678D01*
X203865000Y-161830321D01*
X203888657Y-162070515D01*
X203982148Y-162378714D01*
X204133969Y-162662751D01*
X204338286Y-162911714D01*
X204587248Y-163116031D01*
X204871285Y-163267852D01*
X205179484Y-163361343D01*
X205500000Y-163392911D01*
X205820515Y-163361343D01*
X206128714Y-163267852D01*
X206412751Y-163116031D01*
X206661714Y-162911714D01*
X206866031Y-162662752D01*
X207017852Y-162378715D01*
X207111343Y-162070516D01*
X207135000Y-161830322D01*
X207135000Y-160169678D01*
X207111343Y-159929484D01*
X207017852Y-159621285D01*
X206866031Y-159337248D01*
X206661714Y-159088286D01*
X206412752Y-158883969D01*
X206128715Y-158732148D01*
X205820516Y-158638657D01*
X205500000Y-158607089D01*
X205179485Y-158638657D01*
X204871286Y-158732148D01*
X204587249Y-158883969D01*
X204338287Y-159088286D01*
X204133970Y-159337248D01*
X203982149Y-159621285D01*
X203888657Y-159929484D01*
X203865000Y-160169678D01*
X201832384Y-160169678D01*
X201914759Y-160114637D01*
X202114637Y-159914759D01*
X202271680Y-159679727D01*
X202379853Y-159418574D01*
X202435000Y-159141335D01*
X202435000Y-158858665D01*
X202379853Y-158581426D01*
X202271680Y-158320273D01*
X202114637Y-158085241D01*
X201914759Y-157885363D01*
X201679727Y-157728320D01*
X201418574Y-157620147D01*
X201141335Y-157565000D01*
X200858665Y-157565000D01*
X200581426Y-157620147D01*
X200320273Y-157728320D01*
X200085241Y-157885363D01*
X199885363Y-158085241D01*
X199728320Y-158320273D01*
X199620147Y-158581426D01*
X199565000Y-158858665D01*
X199565000Y-159141335D01*
X199620147Y-159418574D01*
X199728320Y-159679727D01*
X199885363Y-159914759D01*
X200085241Y-160114637D01*
X200320273Y-160271680D01*
X200545568Y-160365000D01*
X200269678Y-160365000D01*
X200029484Y-160388657D01*
X199721285Y-160482148D01*
X199437248Y-160633969D01*
X199188286Y-160838286D01*
X198983969Y-161087248D01*
X198832148Y-161371285D01*
X198738657Y-161679484D01*
X198707089Y-162000000D01*
X198118288Y-162000000D01*
X198135000Y-161830322D01*
X198135000Y-160169678D01*
X198111343Y-159929484D01*
X198017852Y-159621285D01*
X197866031Y-159337248D01*
X197661714Y-159088286D01*
X197412752Y-158883969D01*
X197128715Y-158732148D01*
X196820516Y-158638657D01*
X196500000Y-158607089D01*
X196179485Y-158638657D01*
X195871286Y-158732148D01*
X195587249Y-158883969D01*
X195338287Y-159088286D01*
X195133970Y-159337248D01*
X194982149Y-159621285D01*
X194888657Y-159929484D01*
X194865000Y-160169678D01*
X182127000Y-160169678D01*
X182127000Y-149809419D01*
X193315000Y-149809419D01*
X193315000Y-150190581D01*
X193389361Y-150564419D01*
X193535225Y-150916566D01*
X193746987Y-151233491D01*
X194016509Y-151503013D01*
X194333434Y-151714775D01*
X194685581Y-151860639D01*
X195059419Y-151935000D01*
X195440581Y-151935000D01*
X195814419Y-151860639D01*
X196166566Y-151714775D01*
X196483491Y-151503013D01*
X196753013Y-151233491D01*
X196964775Y-150916566D01*
X197110639Y-150564419D01*
X197185000Y-150190581D01*
X197185000Y-149809419D01*
X204815000Y-149809419D01*
X204815000Y-150190581D01*
X204889361Y-150564419D01*
X205035225Y-150916566D01*
X205246987Y-151233491D01*
X205516509Y-151503013D01*
X205833434Y-151714775D01*
X206185581Y-151860639D01*
X206559419Y-151935000D01*
X206940581Y-151935000D01*
X207314419Y-151860639D01*
X207666566Y-151714775D01*
X207983491Y-151503013D01*
X208253013Y-151233491D01*
X208464775Y-150916566D01*
X208610639Y-150564419D01*
X208685000Y-150190581D01*
X208685000Y-149809419D01*
X208610639Y-149435581D01*
X208464775Y-149083434D01*
X208253013Y-148766509D01*
X207983491Y-148496987D01*
X207666566Y-148285225D01*
X207314419Y-148139361D01*
X206940581Y-148065000D01*
X206559419Y-148065000D01*
X206185581Y-148139361D01*
X205833434Y-148285225D01*
X205516509Y-148496987D01*
X205246987Y-148766509D01*
X205035225Y-149083434D01*
X204889361Y-149435581D01*
X204815000Y-149809419D01*
X197185000Y-149809419D01*
X197110639Y-149435581D01*
X196964775Y-149083434D01*
X196753013Y-148766509D01*
X196483491Y-148496987D01*
X196166566Y-148285225D01*
X195814419Y-148139361D01*
X195440581Y-148065000D01*
X195059419Y-148065000D01*
X194685581Y-148139361D01*
X194333434Y-148285225D01*
X194016509Y-148496987D01*
X193746987Y-148766509D01*
X193535225Y-149083434D01*
X193389361Y-149435581D01*
X193315000Y-149809419D01*
X182127000Y-149809419D01*
X182127000Y-144809419D01*
X193315000Y-144809419D01*
X193315000Y-145190581D01*
X193389361Y-145564419D01*
X193535225Y-145916566D01*
X193746987Y-146233491D01*
X194016509Y-146503013D01*
X194333434Y-146714775D01*
X194685581Y-146860639D01*
X195059419Y-146935000D01*
X195440581Y-146935000D01*
X195814419Y-146860639D01*
X196166566Y-146714775D01*
X196483491Y-146503013D01*
X196753013Y-146233491D01*
X196964775Y-145916566D01*
X197110639Y-145564419D01*
X197185000Y-145190581D01*
X197185000Y-144809419D01*
X204815000Y-144809419D01*
X204815000Y-145190581D01*
X204889361Y-145564419D01*
X205035225Y-145916566D01*
X205246987Y-146233491D01*
X205516509Y-146503013D01*
X205833434Y-146714775D01*
X206185581Y-146860639D01*
X206559419Y-146935000D01*
X206940581Y-146935000D01*
X207314419Y-146860639D01*
X207666566Y-146714775D01*
X207983491Y-146503013D01*
X208253013Y-146233491D01*
X208464775Y-145916566D01*
X208610639Y-145564419D01*
X208685000Y-145190581D01*
X208685000Y-144809419D01*
X208610639Y-144435581D01*
X208464775Y-144083434D01*
X208253013Y-143766509D01*
X207983491Y-143496987D01*
X207666566Y-143285225D01*
X207314419Y-143139361D01*
X206940581Y-143065000D01*
X206559419Y-143065000D01*
X206185581Y-143139361D01*
X205833434Y-143285225D01*
X205516509Y-143496987D01*
X205246987Y-143766509D01*
X205035225Y-144083434D01*
X204889361Y-144435581D01*
X204815000Y-144809419D01*
X197185000Y-144809419D01*
X197110639Y-144435581D01*
X196964775Y-144083434D01*
X196753013Y-143766509D01*
X196483491Y-143496987D01*
X196166566Y-143285225D01*
X195814419Y-143139361D01*
X195440581Y-143065000D01*
X195059419Y-143065000D01*
X194685581Y-143139361D01*
X194333434Y-143285225D01*
X194016509Y-143496987D01*
X193746987Y-143766509D01*
X193535225Y-144083434D01*
X193389361Y-144435581D01*
X193315000Y-144809419D01*
X182127000Y-144809419D01*
X182127000Y-128800000D01*
X192561928Y-128800000D01*
X192574188Y-128924482D01*
X192610498Y-129044180D01*
X192669463Y-129154494D01*
X192748815Y-129251185D01*
X192845506Y-129330537D01*
X192955820Y-129389502D01*
X193075518Y-129425812D01*
X193200000Y-129438072D01*
X193714250Y-129435000D01*
X193873000Y-129276250D01*
X193873000Y-128127000D01*
X192723750Y-128127000D01*
X192565000Y-128285750D01*
X192561928Y-128800000D01*
X182127000Y-128800000D01*
X182127000Y-127200000D01*
X192561928Y-127200000D01*
X192565000Y-127714250D01*
X192723750Y-127873000D01*
X193873000Y-127873000D01*
X193873000Y-126723750D01*
X194127000Y-126723750D01*
X194127000Y-127873000D01*
X194147000Y-127873000D01*
X194147000Y-128127000D01*
X194127000Y-128127000D01*
X194127000Y-129276250D01*
X194285750Y-129435000D01*
X194800000Y-129438072D01*
X194924482Y-129425812D01*
X195044180Y-129389502D01*
X195154494Y-129330537D01*
X195251185Y-129251185D01*
X195264790Y-129234607D01*
X195320273Y-129271680D01*
X195581426Y-129379853D01*
X195858665Y-129435000D01*
X196141335Y-129435000D01*
X196418574Y-129379853D01*
X196679727Y-129271680D01*
X196914759Y-129114637D01*
X197114637Y-128914759D01*
X197271680Y-128679727D01*
X197379853Y-128418574D01*
X197435000Y-128141335D01*
X197435000Y-127858665D01*
X197379853Y-127581426D01*
X197271680Y-127320273D01*
X197191317Y-127200000D01*
X204561928Y-127200000D01*
X204561928Y-128800000D01*
X204574188Y-128924482D01*
X204610498Y-129044180D01*
X204669463Y-129154494D01*
X204748815Y-129251185D01*
X204845506Y-129330537D01*
X204955820Y-129389502D01*
X205075518Y-129425812D01*
X205200000Y-129438072D01*
X206800000Y-129438072D01*
X206924482Y-129425812D01*
X207044180Y-129389502D01*
X207154494Y-129330537D01*
X207251185Y-129251185D01*
X207261807Y-129238242D01*
X207513996Y-129357571D01*
X207788184Y-129426300D01*
X208070512Y-129440217D01*
X208350130Y-129398787D01*
X208616292Y-129303603D01*
X208741514Y-129236671D01*
X208813097Y-128992702D01*
X208000000Y-128179605D01*
X207985858Y-128193748D01*
X207806253Y-128014143D01*
X207820395Y-128000000D01*
X208179605Y-128000000D01*
X208992702Y-128813097D01*
X209236671Y-128741514D01*
X209357571Y-128486004D01*
X209426300Y-128211816D01*
X209440217Y-127929488D01*
X209398787Y-127649870D01*
X209303603Y-127383708D01*
X209236671Y-127258486D01*
X208992702Y-127186903D01*
X208179605Y-128000000D01*
X207820395Y-128000000D01*
X207806253Y-127985858D01*
X207985858Y-127806253D01*
X208000000Y-127820395D01*
X208813097Y-127007298D01*
X208741514Y-126763329D01*
X208486004Y-126642429D01*
X208211816Y-126573700D01*
X207929488Y-126559783D01*
X207649870Y-126601213D01*
X207383708Y-126696397D01*
X207261691Y-126761616D01*
X207251185Y-126748815D01*
X207154494Y-126669463D01*
X207044180Y-126610498D01*
X206924482Y-126574188D01*
X206800000Y-126561928D01*
X205200000Y-126561928D01*
X205075518Y-126574188D01*
X204955820Y-126610498D01*
X204845506Y-126669463D01*
X204748815Y-126748815D01*
X204669463Y-126845506D01*
X204610498Y-126955820D01*
X204574188Y-127075518D01*
X204561928Y-127200000D01*
X197191317Y-127200000D01*
X197114637Y-127085241D01*
X196914759Y-126885363D01*
X196679727Y-126728320D01*
X196418574Y-126620147D01*
X196141335Y-126565000D01*
X195858665Y-126565000D01*
X195581426Y-126620147D01*
X195320273Y-126728320D01*
X195264790Y-126765393D01*
X195251185Y-126748815D01*
X195154494Y-126669463D01*
X195044180Y-126610498D01*
X194924482Y-126574188D01*
X194800000Y-126561928D01*
X194285750Y-126565000D01*
X194127000Y-126723750D01*
X193873000Y-126723750D01*
X193714250Y-126565000D01*
X193200000Y-126561928D01*
X193075518Y-126574188D01*
X192955820Y-126610498D01*
X192845506Y-126669463D01*
X192748815Y-126748815D01*
X192669463Y-126845506D01*
X192610498Y-126955820D01*
X192574188Y-127075518D01*
X192561928Y-127200000D01*
X182127000Y-127200000D01*
X182127000Y-118578363D01*
X198265000Y-118578363D01*
X198265000Y-118821637D01*
X198312460Y-119060236D01*
X198405557Y-119284992D01*
X198540713Y-119487267D01*
X198712733Y-119659287D01*
X198915008Y-119794443D01*
X199139764Y-119887540D01*
X199378363Y-119935000D01*
X199621637Y-119935000D01*
X199860236Y-119887540D01*
X200084992Y-119794443D01*
X200252344Y-119682622D01*
X200455659Y-119808572D01*
X200682390Y-119893467D01*
X200873000Y-119769709D01*
X200873000Y-118827000D01*
X200853000Y-118827000D01*
X200853000Y-118573000D01*
X200873000Y-118573000D01*
X200873000Y-117630291D01*
X201127000Y-117630291D01*
X201127000Y-118573000D01*
X201147000Y-118573000D01*
X201147000Y-118827000D01*
X201127000Y-118827000D01*
X201127000Y-119769709D01*
X201317610Y-119893467D01*
X201544341Y-119808572D01*
X201595070Y-119777146D01*
X201623904Y-119800809D01*
X201764715Y-119876074D01*
X201917504Y-119922422D01*
X202076400Y-119938072D01*
X202923600Y-119938072D01*
X203082496Y-119922422D01*
X203235285Y-119876074D01*
X203376096Y-119800809D01*
X203499519Y-119699519D01*
X203600809Y-119576096D01*
X203676074Y-119435285D01*
X203722422Y-119282496D01*
X203738072Y-119123600D01*
X203738072Y-118276400D01*
X203722422Y-118117504D01*
X203676074Y-117964715D01*
X203600809Y-117823904D01*
X203499519Y-117700481D01*
X203376096Y-117599191D01*
X203235285Y-117523926D01*
X203082496Y-117477578D01*
X202923600Y-117461928D01*
X202076400Y-117461928D01*
X201917504Y-117477578D01*
X201764715Y-117523926D01*
X201623904Y-117599191D01*
X201595070Y-117622854D01*
X201544341Y-117591428D01*
X201317610Y-117506533D01*
X201127000Y-117630291D01*
X200873000Y-117630291D01*
X200682390Y-117506533D01*
X200455659Y-117591428D01*
X200252344Y-117717378D01*
X200084992Y-117605557D01*
X199860236Y-117512460D01*
X199621637Y-117465000D01*
X199378363Y-117465000D01*
X199139764Y-117512460D01*
X198915008Y-117605557D01*
X198712733Y-117740713D01*
X198540713Y-117912733D01*
X198405557Y-118115008D01*
X198312460Y-118339764D01*
X198265000Y-118578363D01*
X182127000Y-118578363D01*
X182127000Y-115010001D01*
X202306530Y-115010001D01*
X202349999Y-115014282D01*
X202393468Y-115010001D01*
X202393476Y-115010001D01*
X202523489Y-114997196D01*
X202690312Y-114946590D01*
X202844058Y-114864412D01*
X202978816Y-114753818D01*
X203006533Y-114720045D01*
X203095044Y-114631534D01*
X203128817Y-114603817D01*
X203239411Y-114469059D01*
X203321589Y-114315313D01*
X203372195Y-114148490D01*
X203385000Y-114018477D01*
X203385000Y-114018467D01*
X203389281Y-113975001D01*
X203385000Y-113931535D01*
X203385000Y-113622985D01*
X203474519Y-113549519D01*
X203575809Y-113426096D01*
X203651074Y-113285285D01*
X203697422Y-113132496D01*
X203713072Y-112973600D01*
X203713072Y-112126400D01*
X203697422Y-111967504D01*
X203651074Y-111814715D01*
X203575809Y-111673904D01*
X203474519Y-111550481D01*
X203351096Y-111449191D01*
X203210285Y-111373926D01*
X203057496Y-111327578D01*
X202898600Y-111311928D01*
X202051400Y-111311928D01*
X201892504Y-111327578D01*
X201739715Y-111373926D01*
X201598904Y-111449191D01*
X201570070Y-111472854D01*
X201519341Y-111441428D01*
X201292610Y-111356533D01*
X201102000Y-111480291D01*
X201102000Y-112423000D01*
X201122000Y-112423000D01*
X201122000Y-112677000D01*
X201102000Y-112677000D01*
X201102000Y-112697000D01*
X200848000Y-112697000D01*
X200848000Y-112677000D01*
X200828000Y-112677000D01*
X200828000Y-112423000D01*
X200848000Y-112423000D01*
X200848000Y-111480291D01*
X200657390Y-111356533D01*
X200430659Y-111441428D01*
X200227344Y-111567378D01*
X200059992Y-111455557D01*
X199835236Y-111362460D01*
X199596637Y-111315000D01*
X199353363Y-111315000D01*
X199114764Y-111362460D01*
X198890008Y-111455557D01*
X198687733Y-111590713D01*
X198613446Y-111665000D01*
X182127000Y-111665000D01*
X182127000Y-101651400D01*
X183786928Y-101651400D01*
X183786928Y-102498600D01*
X183802578Y-102657496D01*
X183848926Y-102810285D01*
X183924191Y-102951096D01*
X184025481Y-103074519D01*
X184148904Y-103175809D01*
X184289715Y-103251074D01*
X184442504Y-103297422D01*
X184601400Y-103313072D01*
X185448600Y-103313072D01*
X185607496Y-103297422D01*
X185760285Y-103251074D01*
X185901096Y-103175809D01*
X185929930Y-103152146D01*
X185980659Y-103183572D01*
X186207390Y-103268467D01*
X186398000Y-103144709D01*
X186398000Y-102202000D01*
X186378000Y-102202000D01*
X186378000Y-101948000D01*
X186398000Y-101948000D01*
X186398000Y-101005291D01*
X186652000Y-101005291D01*
X186652000Y-101948000D01*
X186672000Y-101948000D01*
X186672000Y-102202000D01*
X186652000Y-102202000D01*
X186652000Y-103144709D01*
X186842610Y-103268467D01*
X187069341Y-103183572D01*
X187272656Y-103057622D01*
X187440008Y-103169443D01*
X187664764Y-103262540D01*
X187903363Y-103310000D01*
X188146637Y-103310000D01*
X188385236Y-103262540D01*
X188609992Y-103169443D01*
X188812267Y-103034287D01*
X188984287Y-102862267D01*
X189119443Y-102659992D01*
X189212540Y-102435236D01*
X189260000Y-102196637D01*
X189260000Y-101953363D01*
X189212540Y-101714764D01*
X189119443Y-101490008D01*
X188984287Y-101287733D01*
X188812267Y-101115713D01*
X188609992Y-100980557D01*
X188385236Y-100887460D01*
X188146637Y-100840000D01*
X187903363Y-100840000D01*
X187664764Y-100887460D01*
X187440008Y-100980557D01*
X187272656Y-101092378D01*
X187069341Y-100966428D01*
X186842610Y-100881533D01*
X186652000Y-101005291D01*
X186398000Y-101005291D01*
X186207390Y-100881533D01*
X185980659Y-100966428D01*
X185929930Y-100997854D01*
X185901096Y-100974191D01*
X185760285Y-100898926D01*
X185607496Y-100852578D01*
X185448600Y-100836928D01*
X184601400Y-100836928D01*
X184442504Y-100852578D01*
X184289715Y-100898926D01*
X184148904Y-100974191D01*
X184025481Y-101075481D01*
X183924191Y-101198904D01*
X183848926Y-101339715D01*
X183802578Y-101492504D01*
X183786928Y-101651400D01*
X182127000Y-101651400D01*
X182127000Y-98410000D01*
X214590000Y-98410000D01*
X214590001Y-147967572D01*
G36*
X122065001Y-102216343D02*
G01*
X122061686Y-102250000D01*
X122074912Y-102384283D01*
X122114081Y-102513406D01*
X122177688Y-102632407D01*
X122263289Y-102736711D01*
X122367593Y-102822312D01*
X122486594Y-102885919D01*
X122615717Y-102925088D01*
X122716353Y-102935000D01*
X122750000Y-102938314D01*
X122783647Y-102935000D01*
X126216353Y-102935000D01*
X126250000Y-102938314D01*
X126283647Y-102935000D01*
X126384283Y-102925088D01*
X126513406Y-102885919D01*
X126632407Y-102822312D01*
X126736711Y-102736711D01*
X126822312Y-102632407D01*
X126885919Y-102513406D01*
X126925088Y-102384283D01*
X126938314Y-102250000D01*
X126935000Y-102216353D01*
X126935000Y-98410000D01*
X135790000Y-98410000D01*
X135790001Y-102216343D01*
X135786686Y-102250000D01*
X135799912Y-102384283D01*
X135839081Y-102513406D01*
X135902688Y-102632407D01*
X135988289Y-102736711D01*
X136092593Y-102822312D01*
X136211594Y-102885919D01*
X136340717Y-102925088D01*
X136441353Y-102935000D01*
X136475000Y-102938314D01*
X136508647Y-102935000D01*
X139941353Y-102935000D01*
X139975000Y-102938314D01*
X140008647Y-102935000D01*
X140109283Y-102925088D01*
X140238406Y-102885919D01*
X140357407Y-102822312D01*
X140461711Y-102736711D01*
X140547312Y-102632407D01*
X140610919Y-102513406D01*
X140650088Y-102384283D01*
X140663314Y-102250000D01*
X140660000Y-102216353D01*
X140660000Y-98410000D01*
X155640000Y-98410000D01*
X155640001Y-102216343D01*
X155636686Y-102250000D01*
X155649912Y-102384283D01*
X155689081Y-102513406D01*
X155752688Y-102632407D01*
X155838289Y-102736711D01*
X155942593Y-102822312D01*
X156061594Y-102885919D01*
X156190717Y-102925088D01*
X156291353Y-102935000D01*
X156325000Y-102938314D01*
X156358647Y-102935000D01*
X159791353Y-102935000D01*
X159825000Y-102938314D01*
X159858647Y-102935000D01*
X159959283Y-102925088D01*
X160088406Y-102885919D01*
X160207407Y-102822312D01*
X160311711Y-102736711D01*
X160397312Y-102632407D01*
X160460919Y-102513406D01*
X160500088Y-102384283D01*
X160513314Y-102250000D01*
X160510000Y-102216353D01*
X160510000Y-98410000D01*
X180873000Y-98410000D01*
X180873000Y-111665000D01*
X175210000Y-111665000D01*
X175210000Y-111663454D01*
X175242205Y-111615256D01*
X175320226Y-111426898D01*
X175360000Y-111226939D01*
X175360000Y-111023061D01*
X175320226Y-110823102D01*
X175242205Y-110634744D01*
X175128937Y-110465226D01*
X174984774Y-110321063D01*
X174815256Y-110207795D01*
X174626898Y-110129774D01*
X174426939Y-110090000D01*
X174223061Y-110090000D01*
X174023102Y-110129774D01*
X173834744Y-110207795D01*
X173665226Y-110321063D01*
X173521063Y-110465226D01*
X173407795Y-110634744D01*
X173329774Y-110823102D01*
X173290000Y-111023061D01*
X173290000Y-111226939D01*
X173329774Y-111426898D01*
X173407795Y-111615256D01*
X173440000Y-111663455D01*
X173440000Y-111665000D01*
X161322456Y-111665000D01*
X161335000Y-111601939D01*
X161335000Y-111398061D01*
X161295226Y-111198102D01*
X161217205Y-111009744D01*
X161103937Y-110840226D01*
X160959774Y-110696063D01*
X160790256Y-110582795D01*
X160601898Y-110504774D01*
X160401939Y-110465000D01*
X160198061Y-110465000D01*
X159998102Y-110504774D01*
X159809744Y-110582795D01*
X159640226Y-110696063D01*
X159496063Y-110840226D01*
X159382795Y-111009744D01*
X159304774Y-111198102D01*
X159265000Y-111398061D01*
X159265000Y-111601939D01*
X159277544Y-111665000D01*
X159110000Y-111665000D01*
X159110000Y-111473061D01*
X159070226Y-111273102D01*
X158992205Y-111084744D01*
X158878937Y-110915226D01*
X158734774Y-110771063D01*
X158565256Y-110657795D01*
X158376898Y-110579774D01*
X158176939Y-110540000D01*
X157973061Y-110540000D01*
X157773102Y-110579774D01*
X157584744Y-110657795D01*
X157415226Y-110771063D01*
X157371289Y-110815000D01*
X153878711Y-110815000D01*
X153859774Y-110796063D01*
X153690256Y-110682795D01*
X153501898Y-110604774D01*
X153301939Y-110565000D01*
X153098061Y-110565000D01*
X152898102Y-110604774D01*
X152709744Y-110682795D01*
X152540226Y-110796063D01*
X152396063Y-110940226D01*
X152282795Y-111109744D01*
X152204774Y-111298102D01*
X152165000Y-111498061D01*
X152165000Y-111665000D01*
X144152666Y-111665000D01*
X144220226Y-111501898D01*
X144260000Y-111301939D01*
X144260000Y-111098061D01*
X144220226Y-110898102D01*
X144142205Y-110709744D01*
X144028937Y-110540226D01*
X143884774Y-110396063D01*
X143715256Y-110282795D01*
X143526898Y-110204774D01*
X143326939Y-110165000D01*
X143123061Y-110165000D01*
X142923102Y-110204774D01*
X142734744Y-110282795D01*
X142565226Y-110396063D01*
X142421063Y-110540226D01*
X142307795Y-110709744D01*
X142229774Y-110898102D01*
X142190000Y-111098061D01*
X142190000Y-111301939D01*
X142229774Y-111501898D01*
X142297334Y-111665000D01*
X118688454Y-111665000D01*
X118640256Y-111632795D01*
X118451898Y-111554774D01*
X118251939Y-111515000D01*
X118048061Y-111515000D01*
X117848102Y-111554774D01*
X117659744Y-111632795D01*
X117490226Y-111746063D01*
X117346063Y-111890226D01*
X117232795Y-112059744D01*
X117154774Y-112248102D01*
X117115000Y-112448061D01*
X117115000Y-112651939D01*
X117154774Y-112851898D01*
X117232795Y-113040256D01*
X117346063Y-113209774D01*
X117376290Y-113240001D01*
X108616580Y-113240001D01*
X105635000Y-110258422D01*
X105635000Y-109613454D01*
X105667205Y-109565256D01*
X105745226Y-109376898D01*
X105785000Y-109176939D01*
X105785000Y-108973061D01*
X105745226Y-108773102D01*
X105667205Y-108584744D01*
X105633967Y-108535000D01*
X128836494Y-108535000D01*
X128854774Y-108626898D01*
X128932795Y-108815256D01*
X129046063Y-108984774D01*
X129190226Y-109128937D01*
X129359744Y-109242205D01*
X129548102Y-109320226D01*
X129748061Y-109360000D01*
X129951939Y-109360000D01*
X130151898Y-109320226D01*
X130340256Y-109242205D01*
X130509774Y-109128937D01*
X130653937Y-108984774D01*
X130767205Y-108815256D01*
X130845226Y-108626898D01*
X130863506Y-108535000D01*
X146410199Y-108535000D01*
X146815000Y-108939802D01*
X146815000Y-109001939D01*
X146854774Y-109201898D01*
X146932795Y-109390256D01*
X147046063Y-109559774D01*
X147190226Y-109703937D01*
X147359744Y-109817205D01*
X147548102Y-109895226D01*
X147748061Y-109935000D01*
X147951939Y-109935000D01*
X148151898Y-109895226D01*
X148340256Y-109817205D01*
X148509774Y-109703937D01*
X148653937Y-109559774D01*
X148767205Y-109390256D01*
X148845226Y-109201898D01*
X148885000Y-109001939D01*
X148885000Y-108798061D01*
X148845226Y-108598102D01*
X148767205Y-108409744D01*
X148653937Y-108240226D01*
X148509774Y-108096063D01*
X148340256Y-107982795D01*
X148151898Y-107904774D01*
X147951939Y-107865000D01*
X147889802Y-107865000D01*
X147288804Y-107264002D01*
X147265001Y-107234999D01*
X147149276Y-107140026D01*
X147017247Y-107069454D01*
X146873986Y-107025997D01*
X146762333Y-107015000D01*
X146762322Y-107015000D01*
X146725000Y-107011324D01*
X146687678Y-107015000D01*
X129887333Y-107015000D01*
X129850000Y-107011323D01*
X129812667Y-107015000D01*
X99889802Y-107015000D01*
X99535000Y-106660199D01*
X99535000Y-106598061D01*
X99495226Y-106398102D01*
X99417205Y-106209744D01*
X99303937Y-106040226D01*
X99159774Y-105896063D01*
X98990256Y-105782795D01*
X98801898Y-105704774D01*
X98601939Y-105665000D01*
X98398061Y-105665000D01*
X98198102Y-105704774D01*
X98009744Y-105782795D01*
X97840226Y-105896063D01*
X97696063Y-106040226D01*
X97582795Y-106209744D01*
X97504774Y-106398102D01*
X97465000Y-106598061D01*
X97465000Y-106801939D01*
X97504774Y-107001898D01*
X97582795Y-107190256D01*
X97696063Y-107359774D01*
X97840226Y-107503937D01*
X98009744Y-107617205D01*
X98198102Y-107695226D01*
X98398061Y-107735000D01*
X98460199Y-107735000D01*
X99011200Y-108286002D01*
X99034999Y-108315001D01*
X99063997Y-108338799D01*
X99150724Y-108409974D01*
X99282753Y-108480546D01*
X99426014Y-108524003D01*
X99575000Y-108538677D01*
X99612333Y-108535000D01*
X103866033Y-108535000D01*
X103832795Y-108584744D01*
X103754774Y-108773102D01*
X103715000Y-108973061D01*
X103715000Y-109176939D01*
X103754774Y-109376898D01*
X103832795Y-109565256D01*
X103865001Y-109613455D01*
X103865000Y-110581530D01*
X103860719Y-110625000D01*
X103865000Y-110668469D01*
X103865000Y-110668476D01*
X103874072Y-110760589D01*
X103877805Y-110798490D01*
X103886150Y-110825998D01*
X103928411Y-110965312D01*
X104010589Y-111119058D01*
X104121183Y-111253817D01*
X104154956Y-111281534D01*
X107593471Y-114720050D01*
X107621184Y-114753818D01*
X107654952Y-114781531D01*
X107654954Y-114781533D01*
X107719721Y-114834686D01*
X107755942Y-114864412D01*
X107909688Y-114946590D01*
X108076511Y-114997196D01*
X108206524Y-115010001D01*
X108206532Y-115010001D01*
X108250001Y-115014282D01*
X108293470Y-115010001D01*
X118389707Y-115010001D01*
X118446184Y-115078818D01*
X118479957Y-115106535D01*
X118793465Y-115420044D01*
X118804774Y-115476898D01*
X118882795Y-115665256D01*
X118996063Y-115834774D01*
X119140226Y-115978937D01*
X119309744Y-116092205D01*
X119498102Y-116170226D01*
X119698061Y-116210000D01*
X119901939Y-116210000D01*
X120101898Y-116170226D01*
X120290256Y-116092205D01*
X120459774Y-115978937D01*
X120603937Y-115834774D01*
X120717205Y-115665256D01*
X120795226Y-115476898D01*
X120835000Y-115276939D01*
X120835000Y-115073061D01*
X120822457Y-115010001D01*
X131712489Y-115010001D01*
X131690000Y-115123061D01*
X131690000Y-115326939D01*
X131729774Y-115526898D01*
X131807795Y-115715256D01*
X131921063Y-115884774D01*
X132065226Y-116028937D01*
X132234744Y-116142205D01*
X132423102Y-116220226D01*
X132623061Y-116260000D01*
X132826939Y-116260000D01*
X133026898Y-116220226D01*
X133215256Y-116142205D01*
X133384774Y-116028937D01*
X133528937Y-115884774D01*
X133642205Y-115715256D01*
X133720226Y-115526898D01*
X133760000Y-115326939D01*
X133760000Y-115123061D01*
X133737511Y-115010001D01*
X148215001Y-115010001D01*
X148215000Y-115186545D01*
X148182795Y-115234744D01*
X148104774Y-115423102D01*
X148065000Y-115623061D01*
X148065000Y-115826939D01*
X148104774Y-116026898D01*
X148182795Y-116215256D01*
X148296063Y-116384774D01*
X148440226Y-116528937D01*
X148609744Y-116642205D01*
X148798102Y-116720226D01*
X148998061Y-116760000D01*
X149201939Y-116760000D01*
X149401898Y-116720226D01*
X149590256Y-116642205D01*
X149759774Y-116528937D01*
X149903937Y-116384774D01*
X150017205Y-116215256D01*
X150095226Y-116026898D01*
X150135000Y-115826939D01*
X150135000Y-115623061D01*
X150095226Y-115423102D01*
X150017205Y-115234744D01*
X149985000Y-115186546D01*
X149985000Y-115010001D01*
X177915000Y-115010001D01*
X177914999Y-115713422D01*
X175816652Y-117811770D01*
X175767932Y-117566842D01*
X175655990Y-117296589D01*
X175493475Y-117053368D01*
X175286632Y-116846525D01*
X175043411Y-116684010D01*
X174773158Y-116572068D01*
X174486260Y-116515000D01*
X174193740Y-116515000D01*
X173906842Y-116572068D01*
X173636589Y-116684010D01*
X173393368Y-116846525D01*
X173186525Y-117053368D01*
X173070000Y-117227760D01*
X172953475Y-117053368D01*
X172746632Y-116846525D01*
X172503411Y-116684010D01*
X172233158Y-116572068D01*
X171946260Y-116515000D01*
X171653740Y-116515000D01*
X171366842Y-116572068D01*
X171096589Y-116684010D01*
X170853368Y-116846525D01*
X170646525Y-117053368D01*
X170530000Y-117227760D01*
X170413475Y-117053368D01*
X170206632Y-116846525D01*
X169963411Y-116684010D01*
X169693158Y-116572068D01*
X169406260Y-116515000D01*
X169113740Y-116515000D01*
X168826842Y-116572068D01*
X168556589Y-116684010D01*
X168313368Y-116846525D01*
X168106525Y-117053368D01*
X167990000Y-117227760D01*
X167873475Y-117053368D01*
X167666632Y-116846525D01*
X167423411Y-116684010D01*
X167153158Y-116572068D01*
X166866260Y-116515000D01*
X166573740Y-116515000D01*
X166286842Y-116572068D01*
X166016589Y-116684010D01*
X165773368Y-116846525D01*
X165566525Y-117053368D01*
X165404010Y-117296589D01*
X165292068Y-117566842D01*
X165235000Y-117853740D01*
X165235000Y-118146260D01*
X165288456Y-118415001D01*
X148402324Y-118415001D01*
X148364999Y-118411325D01*
X148327674Y-118415001D01*
X148327666Y-118415001D01*
X148216013Y-118425998D01*
X148072752Y-118469455D01*
X147940723Y-118540027D01*
X147824998Y-118635000D01*
X147801200Y-118663998D01*
X140831571Y-125633628D01*
X140677592Y-125603000D01*
X140402408Y-125603000D01*
X140132510Y-125656686D01*
X139878273Y-125761995D01*
X139649465Y-125914880D01*
X139454880Y-126109465D01*
X139301995Y-126338273D01*
X139270000Y-126415515D01*
X139238005Y-126338273D01*
X139085120Y-126109465D01*
X138890535Y-125914880D01*
X138661727Y-125761995D01*
X138407490Y-125656686D01*
X138137592Y-125603000D01*
X137862408Y-125603000D01*
X137592510Y-125656686D01*
X137338273Y-125761995D01*
X137109465Y-125914880D01*
X136914880Y-126109465D01*
X136761995Y-126338273D01*
X136730000Y-126415515D01*
X136698005Y-126338273D01*
X136545120Y-126109465D01*
X136350535Y-125914880D01*
X136121727Y-125761995D01*
X135867490Y-125656686D01*
X135597592Y-125603000D01*
X135322408Y-125603000D01*
X135052510Y-125656686D01*
X134798273Y-125761995D01*
X134569465Y-125914880D01*
X134543954Y-125940391D01*
X128567566Y-119964003D01*
X128543763Y-119934999D01*
X128428038Y-119840026D01*
X128296009Y-119769454D01*
X128152748Y-119725997D01*
X128041095Y-119715000D01*
X128041084Y-119715000D01*
X128003762Y-119711324D01*
X127966440Y-119715000D01*
X127614802Y-119715000D01*
X127072863Y-119173061D01*
X128965000Y-119173061D01*
X128965000Y-119376939D01*
X129004774Y-119576898D01*
X129082795Y-119765256D01*
X129196063Y-119934774D01*
X129340226Y-120078937D01*
X129509744Y-120192205D01*
X129698102Y-120270226D01*
X129898061Y-120310000D01*
X129975773Y-120310000D01*
X130107753Y-120380546D01*
X130251014Y-120424003D01*
X130362667Y-120435000D01*
X130362676Y-120435000D01*
X130399999Y-120438676D01*
X130437322Y-120435000D01*
X132396289Y-120435000D01*
X132440226Y-120478937D01*
X132609744Y-120592205D01*
X132798102Y-120670226D01*
X132998061Y-120710000D01*
X133201939Y-120710000D01*
X133401898Y-120670226D01*
X133590256Y-120592205D01*
X133759774Y-120478937D01*
X133903937Y-120334774D01*
X134017205Y-120165256D01*
X134095226Y-119976898D01*
X134135000Y-119776939D01*
X134135000Y-119573061D01*
X134095226Y-119373102D01*
X134017205Y-119184744D01*
X133903937Y-119015226D01*
X133759774Y-118871063D01*
X133590256Y-118757795D01*
X133401898Y-118679774D01*
X133201939Y-118640000D01*
X132998061Y-118640000D01*
X132798102Y-118679774D01*
X132609744Y-118757795D01*
X132440226Y-118871063D01*
X132396289Y-118915000D01*
X130971159Y-118915000D01*
X130917205Y-118784744D01*
X130803937Y-118615226D01*
X130659774Y-118471063D01*
X130490256Y-118357795D01*
X130301898Y-118279774D01*
X130101939Y-118240000D01*
X129898061Y-118240000D01*
X129698102Y-118279774D01*
X129509744Y-118357795D01*
X129340226Y-118471063D01*
X129196063Y-118615226D01*
X129082795Y-118784744D01*
X129004774Y-118973102D01*
X128965000Y-119173061D01*
X127072863Y-119173061D01*
X124735000Y-116835199D01*
X124735000Y-116773061D01*
X124695226Y-116573102D01*
X124617205Y-116384744D01*
X124503937Y-116215226D01*
X124359774Y-116071063D01*
X124190256Y-115957795D01*
X124001898Y-115879774D01*
X123801939Y-115840000D01*
X123598061Y-115840000D01*
X123398102Y-115879774D01*
X123209744Y-115957795D01*
X123040226Y-116071063D01*
X122896063Y-116215226D01*
X122782795Y-116384744D01*
X122704774Y-116573102D01*
X122665000Y-116773061D01*
X122665000Y-116976939D01*
X122704774Y-117176898D01*
X122782795Y-117365256D01*
X122896063Y-117534774D01*
X123040226Y-117678937D01*
X123209744Y-117792205D01*
X123398102Y-117870226D01*
X123598061Y-117910000D01*
X123660199Y-117910000D01*
X126736200Y-120986002D01*
X126759999Y-121015001D01*
X126875724Y-121109974D01*
X127007753Y-121180546D01*
X127151014Y-121224003D01*
X127262667Y-121235000D01*
X127262677Y-121235000D01*
X127300000Y-121238676D01*
X127337323Y-121235000D01*
X127688961Y-121235000D01*
X132232905Y-125778945D01*
X132029465Y-125914880D01*
X131834880Y-126109465D01*
X131681995Y-126338273D01*
X131650000Y-126415515D01*
X131618005Y-126338273D01*
X131465120Y-126109465D01*
X131270535Y-125914880D01*
X131041727Y-125761995D01*
X130787490Y-125656686D01*
X130517592Y-125603000D01*
X130242408Y-125603000D01*
X129972510Y-125656686D01*
X129718273Y-125761995D01*
X129489465Y-125914880D01*
X129294880Y-126109465D01*
X129141995Y-126338273D01*
X129110000Y-126415515D01*
X129078005Y-126338273D01*
X128925120Y-126109465D01*
X128730535Y-125914880D01*
X128501727Y-125761995D01*
X128247490Y-125656686D01*
X127977592Y-125603000D01*
X127702408Y-125603000D01*
X127432510Y-125656686D01*
X127178273Y-125761995D01*
X126949465Y-125914880D01*
X126754880Y-126109465D01*
X126601995Y-126338273D01*
X126570000Y-126415515D01*
X126538005Y-126338273D01*
X126385120Y-126109465D01*
X126190535Y-125914880D01*
X125961727Y-125761995D01*
X125707490Y-125656686D01*
X125437592Y-125603000D01*
X125162408Y-125603000D01*
X124892510Y-125656686D01*
X124638273Y-125761995D01*
X124409465Y-125914880D01*
X124214880Y-126109465D01*
X124061995Y-126338273D01*
X124030000Y-126415515D01*
X123998005Y-126338273D01*
X123845120Y-126109465D01*
X123650535Y-125914880D01*
X123421727Y-125761995D01*
X123167490Y-125656686D01*
X122897592Y-125603000D01*
X122622408Y-125603000D01*
X122352510Y-125656686D01*
X122098273Y-125761995D01*
X121869465Y-125914880D01*
X121674880Y-126109465D01*
X121521995Y-126338273D01*
X121490000Y-126415515D01*
X121458005Y-126338273D01*
X121305120Y-126109465D01*
X121110535Y-125914880D01*
X120881727Y-125761995D01*
X120627490Y-125656686D01*
X120357592Y-125603000D01*
X120082408Y-125603000D01*
X119812510Y-125656686D01*
X119558273Y-125761995D01*
X119329465Y-125914880D01*
X119134880Y-126109465D01*
X118981995Y-126338273D01*
X118950000Y-126415515D01*
X118918005Y-126338273D01*
X118765120Y-126109465D01*
X118570535Y-125914880D01*
X118341727Y-125761995D01*
X118087490Y-125656686D01*
X117817592Y-125603000D01*
X117542408Y-125603000D01*
X117272510Y-125656686D01*
X117018273Y-125761995D01*
X116789465Y-125914880D01*
X116594880Y-126109465D01*
X116441995Y-126338273D01*
X116410000Y-126415515D01*
X116378005Y-126338273D01*
X116225120Y-126109465D01*
X116030535Y-125914880D01*
X115801727Y-125761995D01*
X115547490Y-125656686D01*
X115277592Y-125603000D01*
X115002408Y-125603000D01*
X114732510Y-125656686D01*
X114478273Y-125761995D01*
X114249465Y-125914880D01*
X114054880Y-126109465D01*
X113901995Y-126338273D01*
X113796686Y-126592510D01*
X113743000Y-126862408D01*
X113743000Y-127137592D01*
X113796686Y-127407490D01*
X113901995Y-127661727D01*
X114054880Y-127890535D01*
X114249465Y-128085120D01*
X114478273Y-128238005D01*
X114732510Y-128343314D01*
X115002408Y-128397000D01*
X115277592Y-128397000D01*
X115547490Y-128343314D01*
X115801727Y-128238005D01*
X116030535Y-128085120D01*
X116225120Y-127890535D01*
X116378005Y-127661727D01*
X116410000Y-127584485D01*
X116441995Y-127661727D01*
X116594880Y-127890535D01*
X116789465Y-128085120D01*
X117018273Y-128238005D01*
X117272510Y-128343314D01*
X117542408Y-128397000D01*
X117817592Y-128397000D01*
X118087490Y-128343314D01*
X118341727Y-128238005D01*
X118570535Y-128085120D01*
X118765120Y-127890535D01*
X118918005Y-127661727D01*
X118950000Y-127584485D01*
X118981995Y-127661727D01*
X119134880Y-127890535D01*
X119329465Y-128085120D01*
X119558273Y-128238005D01*
X119812510Y-128343314D01*
X120082408Y-128397000D01*
X120357592Y-128397000D01*
X120627490Y-128343314D01*
X120881727Y-128238005D01*
X121110535Y-128085120D01*
X121305120Y-127890535D01*
X121458005Y-127661727D01*
X121490000Y-127584485D01*
X121521995Y-127661727D01*
X121674880Y-127890535D01*
X121869465Y-128085120D01*
X122098273Y-128238005D01*
X122352510Y-128343314D01*
X122622408Y-128397000D01*
X122897592Y-128397000D01*
X123167490Y-128343314D01*
X123421727Y-128238005D01*
X123650535Y-128085120D01*
X123845120Y-127890535D01*
X123998005Y-127661727D01*
X124030000Y-127584485D01*
X124061995Y-127661727D01*
X124214880Y-127890535D01*
X124409465Y-128085120D01*
X124638273Y-128238005D01*
X124892510Y-128343314D01*
X125162408Y-128397000D01*
X125437592Y-128397000D01*
X125707490Y-128343314D01*
X125961727Y-128238005D01*
X126190535Y-128085120D01*
X126385120Y-127890535D01*
X126538005Y-127661727D01*
X126570000Y-127584485D01*
X126601995Y-127661727D01*
X126754880Y-127890535D01*
X126949465Y-128085120D01*
X127178273Y-128238005D01*
X127432510Y-128343314D01*
X127702408Y-128397000D01*
X127977592Y-128397000D01*
X128247490Y-128343314D01*
X128501727Y-128238005D01*
X128730535Y-128085120D01*
X128925120Y-127890535D01*
X129078005Y-127661727D01*
X129110000Y-127584485D01*
X129141995Y-127661727D01*
X129294880Y-127890535D01*
X129489465Y-128085120D01*
X129718273Y-128238005D01*
X129972510Y-128343314D01*
X130242408Y-128397000D01*
X130517592Y-128397000D01*
X130787490Y-128343314D01*
X131041727Y-128238005D01*
X131270535Y-128085120D01*
X131465120Y-127890535D01*
X131618005Y-127661727D01*
X131650000Y-127584485D01*
X131681995Y-127661727D01*
X131834880Y-127890535D01*
X132029465Y-128085120D01*
X132258273Y-128238005D01*
X132512510Y-128343314D01*
X132782408Y-128397000D01*
X133057592Y-128397000D01*
X133327490Y-128343314D01*
X133581727Y-128238005D01*
X133613000Y-128217109D01*
X133612999Y-141022890D01*
X133581727Y-141001995D01*
X133327490Y-140896686D01*
X133057592Y-140843000D01*
X132782408Y-140843000D01*
X132512510Y-140896686D01*
X132258273Y-141001995D01*
X132029465Y-141154880D01*
X131834880Y-141349465D01*
X131681995Y-141578273D01*
X131650000Y-141655515D01*
X131618005Y-141578273D01*
X131465120Y-141349465D01*
X131270535Y-141154880D01*
X131041727Y-141001995D01*
X130787490Y-140896686D01*
X130517592Y-140843000D01*
X130242408Y-140843000D01*
X129972510Y-140896686D01*
X129718273Y-141001995D01*
X129489465Y-141154880D01*
X129294880Y-141349465D01*
X129141995Y-141578273D01*
X129110000Y-141655515D01*
X129078005Y-141578273D01*
X128925120Y-141349465D01*
X128730535Y-141154880D01*
X128501727Y-141001995D01*
X128247490Y-140896686D01*
X127977592Y-140843000D01*
X127702408Y-140843000D01*
X127432510Y-140896686D01*
X127178273Y-141001995D01*
X126949465Y-141154880D01*
X126754880Y-141349465D01*
X126601995Y-141578273D01*
X126570000Y-141655515D01*
X126538005Y-141578273D01*
X126385120Y-141349465D01*
X126190535Y-141154880D01*
X125961727Y-141001995D01*
X125707490Y-140896686D01*
X125437592Y-140843000D01*
X125162408Y-140843000D01*
X124892510Y-140896686D01*
X124638273Y-141001995D01*
X124409465Y-141154880D01*
X124214880Y-141349465D01*
X124061995Y-141578273D01*
X124030000Y-141655515D01*
X123998005Y-141578273D01*
X123845120Y-141349465D01*
X123650535Y-141154880D01*
X123421727Y-141001995D01*
X123167490Y-140896686D01*
X122897592Y-140843000D01*
X122622408Y-140843000D01*
X122352510Y-140896686D01*
X122098273Y-141001995D01*
X121869465Y-141154880D01*
X121674880Y-141349465D01*
X121521995Y-141578273D01*
X121490000Y-141655515D01*
X121458005Y-141578273D01*
X121305120Y-141349465D01*
X121110535Y-141154880D01*
X120881727Y-141001995D01*
X120627490Y-140896686D01*
X120357592Y-140843000D01*
X120082408Y-140843000D01*
X119812510Y-140896686D01*
X119558273Y-141001995D01*
X119329465Y-141154880D01*
X119134880Y-141349465D01*
X118981995Y-141578273D01*
X118950000Y-141655515D01*
X118918005Y-141578273D01*
X118765120Y-141349465D01*
X118570535Y-141154880D01*
X118341727Y-141001995D01*
X118087490Y-140896686D01*
X117817592Y-140843000D01*
X117542408Y-140843000D01*
X117272510Y-140896686D01*
X117018273Y-141001995D01*
X116789465Y-141154880D01*
X116594880Y-141349465D01*
X116441995Y-141578273D01*
X116410000Y-141655515D01*
X116378005Y-141578273D01*
X116225120Y-141349465D01*
X116030535Y-141154880D01*
X115801727Y-141001995D01*
X115547490Y-140896686D01*
X115277592Y-140843000D01*
X115002408Y-140843000D01*
X114732510Y-140896686D01*
X114478273Y-141001995D01*
X114249465Y-141154880D01*
X114054880Y-141349465D01*
X113901995Y-141578273D01*
X113796686Y-141832510D01*
X113743000Y-142102408D01*
X113743000Y-142377592D01*
X113796686Y-142647490D01*
X113901995Y-142901727D01*
X114054880Y-143130535D01*
X114249465Y-143325120D01*
X114478273Y-143478005D01*
X114732510Y-143583314D01*
X115002408Y-143637000D01*
X115277592Y-143637000D01*
X115547490Y-143583314D01*
X115801727Y-143478005D01*
X116030535Y-143325120D01*
X116225120Y-143130535D01*
X116378005Y-142901727D01*
X116410000Y-142824485D01*
X116441995Y-142901727D01*
X116594880Y-143130535D01*
X116789465Y-143325120D01*
X117018273Y-143478005D01*
X117272510Y-143583314D01*
X117542408Y-143637000D01*
X117817592Y-143637000D01*
X118087490Y-143583314D01*
X118341727Y-143478005D01*
X118570535Y-143325120D01*
X118765120Y-143130535D01*
X118918005Y-142901727D01*
X118950000Y-142824485D01*
X118981995Y-142901727D01*
X119134880Y-143130535D01*
X119329465Y-143325120D01*
X119558273Y-143478005D01*
X119812510Y-143583314D01*
X120082408Y-143637000D01*
X120357592Y-143637000D01*
X120627490Y-143583314D01*
X120881727Y-143478005D01*
X121110535Y-143325120D01*
X121305120Y-143130535D01*
X121458005Y-142901727D01*
X121490000Y-142824485D01*
X121521995Y-142901727D01*
X121674880Y-143130535D01*
X121869465Y-143325120D01*
X122098273Y-143478005D01*
X122352510Y-143583314D01*
X122622408Y-143637000D01*
X122897592Y-143637000D01*
X123167490Y-143583314D01*
X123421727Y-143478005D01*
X123650535Y-143325120D01*
X123845120Y-143130535D01*
X123998005Y-142901727D01*
X124030000Y-142824485D01*
X124061995Y-142901727D01*
X124214880Y-143130535D01*
X124409465Y-143325120D01*
X124638273Y-143478005D01*
X124892510Y-143583314D01*
X125162408Y-143637000D01*
X125437592Y-143637000D01*
X125707490Y-143583314D01*
X125961727Y-143478005D01*
X126190535Y-143325120D01*
X126385120Y-143130535D01*
X126538005Y-142901727D01*
X126570000Y-142824485D01*
X126601995Y-142901727D01*
X126754880Y-143130535D01*
X126949465Y-143325120D01*
X127178273Y-143478005D01*
X127432510Y-143583314D01*
X127702408Y-143637000D01*
X127977592Y-143637000D01*
X128247490Y-143583314D01*
X128501727Y-143478005D01*
X128730535Y-143325120D01*
X128925120Y-143130535D01*
X129078005Y-142901727D01*
X129110000Y-142824485D01*
X129141995Y-142901727D01*
X129294880Y-143130535D01*
X129489465Y-143325120D01*
X129718273Y-143478005D01*
X129972510Y-143583314D01*
X130242408Y-143637000D01*
X130517592Y-143637000D01*
X130787490Y-143583314D01*
X131041727Y-143478005D01*
X131270535Y-143325120D01*
X131465120Y-143130535D01*
X131618005Y-142901727D01*
X131650000Y-142824485D01*
X131681995Y-142901727D01*
X131834880Y-143130535D01*
X132029465Y-143325120D01*
X132258273Y-143478005D01*
X132512510Y-143583314D01*
X132782408Y-143637000D01*
X133057592Y-143637000D01*
X133327490Y-143583314D01*
X133581727Y-143478005D01*
X133810535Y-143325120D01*
X134005120Y-143130535D01*
X134158005Y-142901727D01*
X134190000Y-142824485D01*
X134221995Y-142901727D01*
X134374880Y-143130535D01*
X134569465Y-143325120D01*
X134798273Y-143478005D01*
X135052510Y-143583314D01*
X135322408Y-143637000D01*
X135597592Y-143637000D01*
X135867490Y-143583314D01*
X136121727Y-143478005D01*
X136350535Y-143325120D01*
X136470090Y-143205565D01*
X137214040Y-143205565D01*
X137281020Y-143445656D01*
X137530048Y-143562756D01*
X137797135Y-143629023D01*
X138072017Y-143641910D01*
X138344133Y-143600922D01*
X138603023Y-143507636D01*
X138718980Y-143445656D01*
X138785960Y-143205565D01*
X138000000Y-142419605D01*
X137214040Y-143205565D01*
X136470090Y-143205565D01*
X136545120Y-143130535D01*
X136698005Y-142901727D01*
X136727692Y-142830057D01*
X136732364Y-142843023D01*
X136794344Y-142958980D01*
X137034435Y-143025960D01*
X137820395Y-142240000D01*
X137034435Y-141454040D01*
X136794344Y-141521020D01*
X136730515Y-141656760D01*
X136698005Y-141578273D01*
X136545120Y-141349465D01*
X136470090Y-141274435D01*
X137214040Y-141274435D01*
X138000000Y-142060395D01*
X138785960Y-141274435D01*
X138718980Y-141034344D01*
X138469952Y-140917244D01*
X138202865Y-140850977D01*
X137927983Y-140838090D01*
X137655867Y-140879078D01*
X137396977Y-140972364D01*
X137281020Y-141034344D01*
X137214040Y-141274435D01*
X136470090Y-141274435D01*
X136350535Y-141154880D01*
X136121727Y-141001995D01*
X135867490Y-140896686D01*
X135597592Y-140843000D01*
X135322408Y-140843000D01*
X135168429Y-140873628D01*
X135132999Y-140838198D01*
X135132999Y-128359324D01*
X135322408Y-128397000D01*
X135597592Y-128397000D01*
X135867490Y-128343314D01*
X136121727Y-128238005D01*
X136350535Y-128085120D01*
X136545120Y-127890535D01*
X136698005Y-127661727D01*
X136730000Y-127584485D01*
X136761995Y-127661727D01*
X136914880Y-127890535D01*
X137109465Y-128085120D01*
X137338273Y-128238005D01*
X137592510Y-128343314D01*
X137862408Y-128397000D01*
X138137592Y-128397000D01*
X138407490Y-128343314D01*
X138661727Y-128238005D01*
X138890535Y-128085120D01*
X139085120Y-127890535D01*
X139238005Y-127661727D01*
X139270000Y-127584485D01*
X139301995Y-127661727D01*
X139454880Y-127890535D01*
X139649465Y-128085120D01*
X139878273Y-128238005D01*
X140132510Y-128343314D01*
X140402408Y-128397000D01*
X140677592Y-128397000D01*
X140867001Y-128359324D01*
X140867002Y-140838196D01*
X140831570Y-140873628D01*
X140677592Y-140843000D01*
X140402408Y-140843000D01*
X140132510Y-140896686D01*
X139878273Y-141001995D01*
X139649465Y-141154880D01*
X139454880Y-141349465D01*
X139301995Y-141578273D01*
X139272308Y-141649943D01*
X139267636Y-141636977D01*
X139205656Y-141521020D01*
X138965565Y-141454040D01*
X138179605Y-142240000D01*
X138965565Y-143025960D01*
X139205656Y-142958980D01*
X139269485Y-142823240D01*
X139301995Y-142901727D01*
X139454880Y-143130535D01*
X139649465Y-143325120D01*
X139878273Y-143478005D01*
X140132510Y-143583314D01*
X140402408Y-143637000D01*
X140677592Y-143637000D01*
X140947490Y-143583314D01*
X141201727Y-143478005D01*
X141430535Y-143325120D01*
X141625120Y-143130535D01*
X141778005Y-142901727D01*
X141810000Y-142824485D01*
X141841995Y-142901727D01*
X141994880Y-143130535D01*
X142189465Y-143325120D01*
X142418273Y-143478005D01*
X142672510Y-143583314D01*
X142942408Y-143637000D01*
X143217592Y-143637000D01*
X143487490Y-143583314D01*
X143741727Y-143478005D01*
X143970535Y-143325120D01*
X144165120Y-143130535D01*
X144318005Y-142901727D01*
X144350000Y-142824485D01*
X144381995Y-142901727D01*
X144534880Y-143130535D01*
X144729465Y-143325120D01*
X144958273Y-143478005D01*
X145212510Y-143583314D01*
X145482408Y-143637000D01*
X145757592Y-143637000D01*
X146027490Y-143583314D01*
X146281727Y-143478005D01*
X146510535Y-143325120D01*
X146705120Y-143130535D01*
X146858005Y-142901727D01*
X146890000Y-142824485D01*
X146921995Y-142901727D01*
X147074880Y-143130535D01*
X147269465Y-143325120D01*
X147498273Y-143478005D01*
X147752510Y-143583314D01*
X148022408Y-143637000D01*
X148297592Y-143637000D01*
X148567490Y-143583314D01*
X148821727Y-143478005D01*
X149050535Y-143325120D01*
X149245120Y-143130535D01*
X149398005Y-142901727D01*
X149430000Y-142824485D01*
X149461995Y-142901727D01*
X149614880Y-143130535D01*
X149809465Y-143325120D01*
X150038273Y-143478005D01*
X150292510Y-143583314D01*
X150562408Y-143637000D01*
X150837592Y-143637000D01*
X151107490Y-143583314D01*
X151361727Y-143478005D01*
X151590535Y-143325120D01*
X151785120Y-143130535D01*
X151938005Y-142901727D01*
X151970000Y-142824485D01*
X152001995Y-142901727D01*
X152154880Y-143130535D01*
X152349465Y-143325120D01*
X152578273Y-143478005D01*
X152832510Y-143583314D01*
X153102408Y-143637000D01*
X153377592Y-143637000D01*
X153647490Y-143583314D01*
X153901727Y-143478005D01*
X154130535Y-143325120D01*
X154325120Y-143130535D01*
X154478005Y-142901727D01*
X154510000Y-142824485D01*
X154541995Y-142901727D01*
X154694880Y-143130535D01*
X154889465Y-143325120D01*
X155118273Y-143478005D01*
X155372510Y-143583314D01*
X155642408Y-143637000D01*
X155917592Y-143637000D01*
X156187490Y-143583314D01*
X156441727Y-143478005D01*
X156670535Y-143325120D01*
X156865120Y-143130535D01*
X157018005Y-142901727D01*
X157050000Y-142824485D01*
X157081995Y-142901727D01*
X157234880Y-143130535D01*
X157429465Y-143325120D01*
X157658273Y-143478005D01*
X157912510Y-143583314D01*
X158182408Y-143637000D01*
X158457592Y-143637000D01*
X158727490Y-143583314D01*
X158981727Y-143478005D01*
X159210535Y-143325120D01*
X159405120Y-143130535D01*
X159558005Y-142901727D01*
X159590000Y-142824485D01*
X159621995Y-142901727D01*
X159774880Y-143130535D01*
X159969465Y-143325120D01*
X160198273Y-143478005D01*
X160452510Y-143583314D01*
X160722408Y-143637000D01*
X160997592Y-143637000D01*
X161267490Y-143583314D01*
X161521727Y-143478005D01*
X161750535Y-143325120D01*
X161945120Y-143130535D01*
X162098005Y-142901727D01*
X162130000Y-142824485D01*
X162161995Y-142901727D01*
X162314880Y-143130535D01*
X162509465Y-143325120D01*
X162738273Y-143478005D01*
X162992510Y-143583314D01*
X163262408Y-143637000D01*
X163537592Y-143637000D01*
X163807490Y-143583314D01*
X164061727Y-143478005D01*
X164290535Y-143325120D01*
X164485120Y-143130535D01*
X164638005Y-142901727D01*
X164670000Y-142824485D01*
X164701995Y-142901727D01*
X164854880Y-143130535D01*
X165049465Y-143325120D01*
X165278273Y-143478005D01*
X165532510Y-143583314D01*
X165802408Y-143637000D01*
X166077592Y-143637000D01*
X166347490Y-143583314D01*
X166601727Y-143478005D01*
X166830535Y-143325120D01*
X167025120Y-143130535D01*
X167178005Y-142901727D01*
X167210000Y-142824485D01*
X167241995Y-142901727D01*
X167394880Y-143130535D01*
X167589465Y-143325120D01*
X167818273Y-143478005D01*
X168072510Y-143583314D01*
X168342408Y-143637000D01*
X168617592Y-143637000D01*
X168887490Y-143583314D01*
X169141727Y-143478005D01*
X169370535Y-143325120D01*
X169490090Y-143205565D01*
X170234040Y-143205565D01*
X170301020Y-143445656D01*
X170550048Y-143562756D01*
X170817135Y-143629023D01*
X171092017Y-143641910D01*
X171364133Y-143600922D01*
X171623023Y-143507636D01*
X171738980Y-143445656D01*
X171805960Y-143205565D01*
X171020000Y-142419605D01*
X170234040Y-143205565D01*
X169490090Y-143205565D01*
X169565120Y-143130535D01*
X169718005Y-142901727D01*
X169747692Y-142830057D01*
X169752364Y-142843023D01*
X169814344Y-142958980D01*
X170054435Y-143025960D01*
X170840395Y-142240000D01*
X171199605Y-142240000D01*
X171985565Y-143025960D01*
X172225656Y-142958980D01*
X172289485Y-142823240D01*
X172321995Y-142901727D01*
X172474880Y-143130535D01*
X172669465Y-143325120D01*
X172898273Y-143478005D01*
X173152510Y-143583314D01*
X173422408Y-143637000D01*
X173697592Y-143637000D01*
X173967490Y-143583314D01*
X174221727Y-143478005D01*
X174450535Y-143325120D01*
X174645120Y-143130535D01*
X174798005Y-142901727D01*
X174903314Y-142647490D01*
X174957000Y-142377592D01*
X174957000Y-142102408D01*
X174903314Y-141832510D01*
X174798005Y-141578273D01*
X174645120Y-141349465D01*
X174450535Y-141154880D01*
X174221727Y-141001995D01*
X173967490Y-140896686D01*
X173697592Y-140843000D01*
X173422408Y-140843000D01*
X173152510Y-140896686D01*
X172898273Y-141001995D01*
X172669465Y-141154880D01*
X172474880Y-141349465D01*
X172321995Y-141578273D01*
X172292308Y-141649943D01*
X172287636Y-141636977D01*
X172225656Y-141521020D01*
X171985565Y-141454040D01*
X171199605Y-142240000D01*
X170840395Y-142240000D01*
X170054435Y-141454040D01*
X169814344Y-141521020D01*
X169750515Y-141656760D01*
X169718005Y-141578273D01*
X169565120Y-141349465D01*
X169490090Y-141274435D01*
X170234040Y-141274435D01*
X171020000Y-142060395D01*
X171805960Y-141274435D01*
X171738980Y-141034344D01*
X171489952Y-140917244D01*
X171222865Y-140850977D01*
X170947983Y-140838090D01*
X170675867Y-140879078D01*
X170416977Y-140972364D01*
X170301020Y-141034344D01*
X170234040Y-141274435D01*
X169490090Y-141274435D01*
X169370535Y-141154880D01*
X169141727Y-141001995D01*
X168887490Y-140896686D01*
X168617592Y-140843000D01*
X168342408Y-140843000D01*
X168072510Y-140896686D01*
X167818273Y-141001995D01*
X167589465Y-141154880D01*
X167394880Y-141349465D01*
X167241995Y-141578273D01*
X167210000Y-141655515D01*
X167178005Y-141578273D01*
X167025120Y-141349465D01*
X166830535Y-141154880D01*
X166601727Y-141001995D01*
X166347490Y-140896686D01*
X166077592Y-140843000D01*
X165802408Y-140843000D01*
X165532510Y-140896686D01*
X165278273Y-141001995D01*
X165049465Y-141154880D01*
X164854880Y-141349465D01*
X164701995Y-141578273D01*
X164670000Y-141655515D01*
X164638005Y-141578273D01*
X164485120Y-141349465D01*
X164290535Y-141154880D01*
X164061727Y-141001995D01*
X163807490Y-140896686D01*
X163537592Y-140843000D01*
X163262408Y-140843000D01*
X162992510Y-140896686D01*
X162738273Y-141001995D01*
X162509465Y-141154880D01*
X162314880Y-141349465D01*
X162161995Y-141578273D01*
X162130000Y-141655515D01*
X162098005Y-141578273D01*
X161945120Y-141349465D01*
X161750535Y-141154880D01*
X161521727Y-141001995D01*
X161267490Y-140896686D01*
X160997592Y-140843000D01*
X160722408Y-140843000D01*
X160452510Y-140896686D01*
X160198273Y-141001995D01*
X159969465Y-141154880D01*
X159774880Y-141349465D01*
X159621995Y-141578273D01*
X159590000Y-141655515D01*
X159558005Y-141578273D01*
X159405120Y-141349465D01*
X159210535Y-141154880D01*
X158981727Y-141001995D01*
X158727490Y-140896686D01*
X158457592Y-140843000D01*
X158182408Y-140843000D01*
X157912510Y-140896686D01*
X157658273Y-141001995D01*
X157429465Y-141154880D01*
X157234880Y-141349465D01*
X157081995Y-141578273D01*
X157050000Y-141655515D01*
X157018005Y-141578273D01*
X156865120Y-141349465D01*
X156670535Y-141154880D01*
X156441727Y-141001995D01*
X156187490Y-140896686D01*
X155917592Y-140843000D01*
X155642408Y-140843000D01*
X155372510Y-140896686D01*
X155118273Y-141001995D01*
X154889465Y-141154880D01*
X154694880Y-141349465D01*
X154541995Y-141578273D01*
X154510000Y-141655515D01*
X154478005Y-141578273D01*
X154325120Y-141349465D01*
X154130535Y-141154880D01*
X153901727Y-141001995D01*
X153647490Y-140896686D01*
X153377592Y-140843000D01*
X153102408Y-140843000D01*
X152832510Y-140896686D01*
X152578273Y-141001995D01*
X152349465Y-141154880D01*
X152154880Y-141349465D01*
X152001995Y-141578273D01*
X151970000Y-141655515D01*
X151938005Y-141578273D01*
X151785120Y-141349465D01*
X151590535Y-141154880D01*
X151361727Y-141001995D01*
X151107490Y-140896686D01*
X150837592Y-140843000D01*
X150562408Y-140843000D01*
X150292510Y-140896686D01*
X150038273Y-141001995D01*
X149809465Y-141154880D01*
X149614880Y-141349465D01*
X149461995Y-141578273D01*
X149430000Y-141655515D01*
X149398005Y-141578273D01*
X149245120Y-141349465D01*
X149050535Y-141154880D01*
X148821727Y-141001995D01*
X148567490Y-140896686D01*
X148297592Y-140843000D01*
X148022408Y-140843000D01*
X147752510Y-140896686D01*
X147498273Y-141001995D01*
X147269465Y-141154880D01*
X147074880Y-141349465D01*
X146921995Y-141578273D01*
X146890000Y-141655515D01*
X146858005Y-141578273D01*
X146705120Y-141349465D01*
X146510535Y-141154880D01*
X146281727Y-141001995D01*
X146027490Y-140896686D01*
X145757592Y-140843000D01*
X145482408Y-140843000D01*
X145212510Y-140896686D01*
X144958273Y-141001995D01*
X144729465Y-141154880D01*
X144534880Y-141349465D01*
X144381995Y-141578273D01*
X144350000Y-141655515D01*
X144318005Y-141578273D01*
X144165120Y-141349465D01*
X143970535Y-141154880D01*
X143741727Y-141001995D01*
X143487490Y-140896686D01*
X143217592Y-140843000D01*
X142942408Y-140843000D01*
X142672510Y-140896686D01*
X142418273Y-141001995D01*
X142387001Y-141022890D01*
X142387001Y-128217110D01*
X142418273Y-128238005D01*
X142672510Y-128343314D01*
X142942408Y-128397000D01*
X143217592Y-128397000D01*
X143487490Y-128343314D01*
X143741727Y-128238005D01*
X143970535Y-128085120D01*
X144165120Y-127890535D01*
X144318005Y-127661727D01*
X144350000Y-127584485D01*
X144381995Y-127661727D01*
X144534880Y-127890535D01*
X144729465Y-128085120D01*
X144958273Y-128238005D01*
X145212510Y-128343314D01*
X145482408Y-128397000D01*
X145757592Y-128397000D01*
X146027490Y-128343314D01*
X146281727Y-128238005D01*
X146510535Y-128085120D01*
X146705120Y-127890535D01*
X146858005Y-127661727D01*
X146890000Y-127584485D01*
X146921995Y-127661727D01*
X147074880Y-127890535D01*
X147269465Y-128085120D01*
X147498273Y-128238005D01*
X147752510Y-128343314D01*
X148022408Y-128397000D01*
X148297592Y-128397000D01*
X148567490Y-128343314D01*
X148821727Y-128238005D01*
X149050535Y-128085120D01*
X149245120Y-127890535D01*
X149398005Y-127661727D01*
X149430000Y-127584485D01*
X149461995Y-127661727D01*
X149614880Y-127890535D01*
X149809465Y-128085120D01*
X150038273Y-128238005D01*
X150292510Y-128343314D01*
X150562408Y-128397000D01*
X150837592Y-128397000D01*
X151107490Y-128343314D01*
X151361727Y-128238005D01*
X151590535Y-128085120D01*
X151785120Y-127890535D01*
X151938005Y-127661727D01*
X151970000Y-127584485D01*
X152001995Y-127661727D01*
X152154880Y-127890535D01*
X152349465Y-128085120D01*
X152578273Y-128238005D01*
X152832510Y-128343314D01*
X153102408Y-128397000D01*
X153377592Y-128397000D01*
X153647490Y-128343314D01*
X153901727Y-128238005D01*
X154130535Y-128085120D01*
X154325120Y-127890535D01*
X154478005Y-127661727D01*
X154510000Y-127584485D01*
X154541995Y-127661727D01*
X154694880Y-127890535D01*
X154889465Y-128085120D01*
X155118273Y-128238005D01*
X155372510Y-128343314D01*
X155642408Y-128397000D01*
X155917592Y-128397000D01*
X156187490Y-128343314D01*
X156441727Y-128238005D01*
X156670535Y-128085120D01*
X156865120Y-127890535D01*
X157018005Y-127661727D01*
X157050000Y-127584485D01*
X157081995Y-127661727D01*
X157234880Y-127890535D01*
X157429465Y-128085120D01*
X157658273Y-128238005D01*
X157912510Y-128343314D01*
X158182408Y-128397000D01*
X158457592Y-128397000D01*
X158727490Y-128343314D01*
X158981727Y-128238005D01*
X159210535Y-128085120D01*
X159405120Y-127890535D01*
X159558005Y-127661727D01*
X159590000Y-127584485D01*
X159621995Y-127661727D01*
X159774880Y-127890535D01*
X159969465Y-128085120D01*
X160198273Y-128238005D01*
X160452510Y-128343314D01*
X160722408Y-128397000D01*
X160997592Y-128397000D01*
X161267490Y-128343314D01*
X161521727Y-128238005D01*
X161750535Y-128085120D01*
X161945120Y-127890535D01*
X162098005Y-127661727D01*
X162130000Y-127584485D01*
X162161995Y-127661727D01*
X162314880Y-127890535D01*
X162509465Y-128085120D01*
X162738273Y-128238005D01*
X162992510Y-128343314D01*
X163262408Y-128397000D01*
X163537592Y-128397000D01*
X163807490Y-128343314D01*
X164061727Y-128238005D01*
X164290535Y-128085120D01*
X164485120Y-127890535D01*
X164638005Y-127661727D01*
X164670000Y-127584485D01*
X164701995Y-127661727D01*
X164854880Y-127890535D01*
X165049465Y-128085120D01*
X165278273Y-128238005D01*
X165532510Y-128343314D01*
X165802408Y-128397000D01*
X166077592Y-128397000D01*
X166347490Y-128343314D01*
X166601727Y-128238005D01*
X166830535Y-128085120D01*
X167025120Y-127890535D01*
X167178005Y-127661727D01*
X167210000Y-127584485D01*
X167241995Y-127661727D01*
X167394880Y-127890535D01*
X167589465Y-128085120D01*
X167818273Y-128238005D01*
X168072510Y-128343314D01*
X168342408Y-128397000D01*
X168617592Y-128397000D01*
X168887490Y-128343314D01*
X169141727Y-128238005D01*
X169370535Y-128085120D01*
X169565120Y-127890535D01*
X169718005Y-127661727D01*
X169750000Y-127584485D01*
X169781995Y-127661727D01*
X169934880Y-127890535D01*
X170129465Y-128085120D01*
X170358273Y-128238005D01*
X170612510Y-128343314D01*
X170882408Y-128397000D01*
X171157592Y-128397000D01*
X171427490Y-128343314D01*
X171681727Y-128238005D01*
X171910535Y-128085120D01*
X172030090Y-127965565D01*
X172774040Y-127965565D01*
X172841020Y-128205656D01*
X173090048Y-128322756D01*
X173357135Y-128389023D01*
X173632017Y-128401910D01*
X173904133Y-128360922D01*
X174163023Y-128267636D01*
X174278980Y-128205656D01*
X174345960Y-127965565D01*
X173560000Y-127179605D01*
X172774040Y-127965565D01*
X172030090Y-127965565D01*
X172105120Y-127890535D01*
X172258005Y-127661727D01*
X172287692Y-127590057D01*
X172292364Y-127603023D01*
X172354344Y-127718980D01*
X172594435Y-127785960D01*
X173380395Y-127000000D01*
X173739605Y-127000000D01*
X174525565Y-127785960D01*
X174765656Y-127718980D01*
X174882756Y-127469952D01*
X174949023Y-127202865D01*
X174961910Y-126927983D01*
X174920922Y-126655867D01*
X174827636Y-126396977D01*
X174765656Y-126281020D01*
X174525565Y-126214040D01*
X173739605Y-127000000D01*
X173380395Y-127000000D01*
X172594435Y-126214040D01*
X172354344Y-126281020D01*
X172290515Y-126416760D01*
X172258005Y-126338273D01*
X172105120Y-126109465D01*
X172030090Y-126034435D01*
X172774040Y-126034435D01*
X173560000Y-126820395D01*
X174345960Y-126034435D01*
X174278980Y-125794344D01*
X174029952Y-125677244D01*
X173762865Y-125610977D01*
X173487983Y-125598090D01*
X173215867Y-125639078D01*
X172956977Y-125732364D01*
X172841020Y-125794344D01*
X172774040Y-126034435D01*
X172030090Y-126034435D01*
X171910535Y-125914880D01*
X171681727Y-125761995D01*
X171427490Y-125656686D01*
X171157592Y-125603000D01*
X170882408Y-125603000D01*
X170612510Y-125656686D01*
X170358273Y-125761995D01*
X170129465Y-125914880D01*
X169934880Y-126109465D01*
X169781995Y-126338273D01*
X169750000Y-126415515D01*
X169718005Y-126338273D01*
X169565120Y-126109465D01*
X169370535Y-125914880D01*
X169141727Y-125761995D01*
X168887490Y-125656686D01*
X168617592Y-125603000D01*
X168342408Y-125603000D01*
X168072510Y-125656686D01*
X167818273Y-125761995D01*
X167589465Y-125914880D01*
X167394880Y-126109465D01*
X167241995Y-126338273D01*
X167210000Y-126415515D01*
X167178005Y-126338273D01*
X167025120Y-126109465D01*
X166830535Y-125914880D01*
X166601727Y-125761995D01*
X166347490Y-125656686D01*
X166077592Y-125603000D01*
X165802408Y-125603000D01*
X165532510Y-125656686D01*
X165278273Y-125761995D01*
X165049465Y-125914880D01*
X164854880Y-126109465D01*
X164701995Y-126338273D01*
X164670000Y-126415515D01*
X164638005Y-126338273D01*
X164485120Y-126109465D01*
X164290535Y-125914880D01*
X164061727Y-125761995D01*
X163807490Y-125656686D01*
X163537592Y-125603000D01*
X163262408Y-125603000D01*
X162992510Y-125656686D01*
X162738273Y-125761995D01*
X162509465Y-125914880D01*
X162314880Y-126109465D01*
X162161995Y-126338273D01*
X162130000Y-126415515D01*
X162098005Y-126338273D01*
X161945120Y-126109465D01*
X161750535Y-125914880D01*
X161521727Y-125761995D01*
X161267490Y-125656686D01*
X160997592Y-125603000D01*
X160722408Y-125603000D01*
X160452510Y-125656686D01*
X160198273Y-125761995D01*
X159969465Y-125914880D01*
X159774880Y-126109465D01*
X159621995Y-126338273D01*
X159590000Y-126415515D01*
X159558005Y-126338273D01*
X159405120Y-126109465D01*
X159210535Y-125914880D01*
X158981727Y-125761995D01*
X158727490Y-125656686D01*
X158457592Y-125603000D01*
X158182408Y-125603000D01*
X157912510Y-125656686D01*
X157658273Y-125761995D01*
X157429465Y-125914880D01*
X157234880Y-126109465D01*
X157081995Y-126338273D01*
X157050000Y-126415515D01*
X157018005Y-126338273D01*
X156865120Y-126109465D01*
X156670535Y-125914880D01*
X156441727Y-125761995D01*
X156187490Y-125656686D01*
X155917592Y-125603000D01*
X155642408Y-125603000D01*
X155372510Y-125656686D01*
X155118273Y-125761995D01*
X154889465Y-125914880D01*
X154694880Y-126109465D01*
X154541995Y-126338273D01*
X154510000Y-126415515D01*
X154478005Y-126338273D01*
X154325120Y-126109465D01*
X154130535Y-125914880D01*
X153901727Y-125761995D01*
X153647490Y-125656686D01*
X153377592Y-125603000D01*
X153102408Y-125603000D01*
X152832510Y-125656686D01*
X152578273Y-125761995D01*
X152349465Y-125914880D01*
X152154880Y-126109465D01*
X152001995Y-126338273D01*
X151970000Y-126415515D01*
X151938005Y-126338273D01*
X151785120Y-126109465D01*
X151590535Y-125914880D01*
X151361727Y-125761995D01*
X151107490Y-125656686D01*
X150837592Y-125603000D01*
X150562408Y-125603000D01*
X150292510Y-125656686D01*
X150038273Y-125761995D01*
X149809465Y-125914880D01*
X149614880Y-126109465D01*
X149461995Y-126338273D01*
X149430000Y-126415515D01*
X149398005Y-126338273D01*
X149245120Y-126109465D01*
X149050535Y-125914880D01*
X148821727Y-125761995D01*
X148567490Y-125656686D01*
X148297592Y-125603000D01*
X148022408Y-125603000D01*
X147752510Y-125656686D01*
X147498273Y-125761995D01*
X147269465Y-125914880D01*
X147074880Y-126109465D01*
X146921995Y-126338273D01*
X146890000Y-126415515D01*
X146858005Y-126338273D01*
X146705120Y-126109465D01*
X146510535Y-125914880D01*
X146380000Y-125827659D01*
X146380000Y-124869801D01*
X148314802Y-122935000D01*
X169326680Y-122935000D01*
X169364002Y-122938676D01*
X169401324Y-122935000D01*
X169401335Y-122935000D01*
X169512988Y-122924003D01*
X169656249Y-122880546D01*
X169788278Y-122809974D01*
X169904003Y-122715001D01*
X169927806Y-122685998D01*
X170900817Y-121712987D01*
X171033080Y-121811641D01*
X171295901Y-121936825D01*
X171443110Y-121981476D01*
X171673000Y-121860155D01*
X171673000Y-120667000D01*
X171653000Y-120667000D01*
X171653000Y-120413000D01*
X171673000Y-120413000D01*
X171673000Y-120393000D01*
X171927000Y-120393000D01*
X171927000Y-120413000D01*
X171947000Y-120413000D01*
X171947000Y-120667000D01*
X171927000Y-120667000D01*
X171927000Y-121860155D01*
X172156890Y-121981476D01*
X172304099Y-121936825D01*
X172566920Y-121811641D01*
X172800269Y-121637588D01*
X172995178Y-121421355D01*
X173064805Y-121304466D01*
X173186525Y-121486632D01*
X173393368Y-121693475D01*
X173636589Y-121855990D01*
X173906842Y-121967932D01*
X174193740Y-122025000D01*
X174486260Y-122025000D01*
X174773158Y-121967932D01*
X175043411Y-121855990D01*
X175286632Y-121693475D01*
X175493475Y-121486632D01*
X175655990Y-121243411D01*
X175767932Y-120973158D01*
X175825000Y-120686260D01*
X175825000Y-120393740D01*
X175810539Y-120321039D01*
X179395049Y-116736529D01*
X179428816Y-116708818D01*
X179483485Y-116642205D01*
X179539409Y-116574061D01*
X179539410Y-116574060D01*
X179621588Y-116420314D01*
X179672194Y-116253491D01*
X179684999Y-116123478D01*
X179684999Y-116123468D01*
X179689280Y-116080002D01*
X179684999Y-116036535D01*
X179684999Y-115010001D01*
X180873000Y-115010001D01*
X180873000Y-168840000D01*
X93135000Y-168840000D01*
X93135000Y-163311157D01*
X95710300Y-163311157D01*
X95710300Y-163588843D01*
X95764474Y-163861194D01*
X95870740Y-164117743D01*
X96025014Y-164348631D01*
X96221369Y-164544986D01*
X96452257Y-164699260D01*
X96708806Y-164805526D01*
X96981157Y-164859700D01*
X97258843Y-164859700D01*
X97531194Y-164805526D01*
X97787743Y-164699260D01*
X98018631Y-164544986D01*
X98214986Y-164348631D01*
X98369260Y-164117743D01*
X98475526Y-163861194D01*
X98529700Y-163588843D01*
X98529700Y-163311157D01*
X98525722Y-163291157D01*
X105820300Y-163291157D01*
X105820300Y-163568843D01*
X105874474Y-163841194D01*
X105980740Y-164097743D01*
X106135014Y-164328631D01*
X106331369Y-164524986D01*
X106562257Y-164679260D01*
X106818806Y-164785526D01*
X107091157Y-164839700D01*
X107368843Y-164839700D01*
X107641194Y-164785526D01*
X107897743Y-164679260D01*
X108128631Y-164524986D01*
X108324986Y-164328631D01*
X108479260Y-164097743D01*
X108585526Y-163841194D01*
X108639700Y-163568843D01*
X108639700Y-163291157D01*
X108585526Y-163018806D01*
X108479260Y-162762257D01*
X108324986Y-162531369D01*
X108128631Y-162335014D01*
X107897743Y-162180740D01*
X107641194Y-162074474D01*
X107368843Y-162020300D01*
X107091157Y-162020300D01*
X106818806Y-162074474D01*
X106562257Y-162180740D01*
X106331369Y-162335014D01*
X106135014Y-162531369D01*
X105980740Y-162762257D01*
X105874474Y-163018806D01*
X105820300Y-163291157D01*
X98525722Y-163291157D01*
X98475526Y-163038806D01*
X98369260Y-162782257D01*
X98214986Y-162551369D01*
X98018631Y-162355014D01*
X97787743Y-162200740D01*
X97531194Y-162094474D01*
X97258843Y-162040300D01*
X96981157Y-162040300D01*
X96708806Y-162094474D01*
X96452257Y-162200740D01*
X96221369Y-162355014D01*
X96025014Y-162551369D01*
X95870740Y-162782257D01*
X95764474Y-163038806D01*
X95710300Y-163311157D01*
X93135000Y-163311157D01*
X93135000Y-155153638D01*
X93880902Y-155153638D01*
X93880902Y-155486362D01*
X93945813Y-155812692D01*
X94073141Y-156120089D01*
X94257992Y-156396739D01*
X94493263Y-156632010D01*
X94769913Y-156816861D01*
X95077310Y-156944189D01*
X95403640Y-157009100D01*
X95615040Y-157009100D01*
X95501590Y-157178890D01*
X95312035Y-157636518D01*
X95215400Y-158122334D01*
X95215400Y-158617666D01*
X95312035Y-159103482D01*
X95501590Y-159561110D01*
X95776783Y-159972964D01*
X96127036Y-160323217D01*
X96538890Y-160598410D01*
X96996518Y-160787965D01*
X97482334Y-160884600D01*
X97977666Y-160884600D01*
X98463482Y-160787965D01*
X98710903Y-160685480D01*
X98565014Y-160831369D01*
X98410740Y-161062257D01*
X98304474Y-161318806D01*
X98250300Y-161591157D01*
X98250300Y-161868843D01*
X98304474Y-162141194D01*
X98410740Y-162397743D01*
X98565014Y-162628631D01*
X98761369Y-162824986D01*
X98992257Y-162979260D01*
X99248806Y-163085526D01*
X99521157Y-163139700D01*
X99798843Y-163139700D01*
X100071194Y-163085526D01*
X100327743Y-162979260D01*
X100558631Y-162824986D01*
X100754986Y-162628631D01*
X100909260Y-162397743D01*
X101015526Y-162141194D01*
X101069700Y-161868843D01*
X101069700Y-161591157D01*
X101015526Y-161318806D01*
X100909260Y-161062257D01*
X100754986Y-160831369D01*
X100558631Y-160635014D01*
X100327743Y-160480740D01*
X100071194Y-160374474D01*
X99798843Y-160320300D01*
X99521157Y-160320300D01*
X99259409Y-160372365D01*
X99332964Y-160323217D01*
X99683217Y-159972964D01*
X99958410Y-159561110D01*
X100147965Y-159103482D01*
X100244600Y-158617666D01*
X100244600Y-158122334D01*
X106645400Y-158122334D01*
X106645400Y-158617666D01*
X106742035Y-159103482D01*
X106931590Y-159561110D01*
X107206783Y-159972964D01*
X107557036Y-160323217D01*
X107968890Y-160598410D01*
X108426518Y-160787965D01*
X108671461Y-160836687D01*
X108520740Y-161062257D01*
X108414474Y-161318806D01*
X108360300Y-161591157D01*
X108360300Y-161868843D01*
X108414474Y-162141194D01*
X108520740Y-162397743D01*
X108675014Y-162628631D01*
X108871369Y-162824986D01*
X109102257Y-162979260D01*
X109358806Y-163085526D01*
X109631157Y-163139700D01*
X109908843Y-163139700D01*
X110181194Y-163085526D01*
X110437743Y-162979260D01*
X110668631Y-162824986D01*
X110864986Y-162628631D01*
X111019260Y-162397743D01*
X111125526Y-162141194D01*
X111179700Y-161868843D01*
X111179700Y-161591157D01*
X111125526Y-161318806D01*
X111019260Y-161062257D01*
X110864986Y-160831369D01*
X110668631Y-160635014D01*
X110482479Y-160510632D01*
X110762964Y-160323217D01*
X111113217Y-159972964D01*
X111388410Y-159561110D01*
X111577965Y-159103482D01*
X111674600Y-158617666D01*
X111674600Y-158122334D01*
X111577965Y-157636518D01*
X111388410Y-157178890D01*
X111274960Y-157009100D01*
X111486360Y-157009100D01*
X111812690Y-156944189D01*
X112120087Y-156816861D01*
X112396737Y-156632010D01*
X112632008Y-156396739D01*
X112816859Y-156120089D01*
X112944187Y-155812692D01*
X113009098Y-155486362D01*
X113009098Y-155153638D01*
X112944187Y-154827308D01*
X112816859Y-154519911D01*
X112632008Y-154243261D01*
X112396737Y-154007990D01*
X112120087Y-153823139D01*
X111812690Y-153695811D01*
X111486360Y-153630900D01*
X111153636Y-153630900D01*
X110827306Y-153695811D01*
X110519909Y-153823139D01*
X110243259Y-154007990D01*
X110007988Y-154243261D01*
X109823137Y-154519911D01*
X109695809Y-154827308D01*
X109630898Y-155153638D01*
X109630898Y-155486362D01*
X109695809Y-155812692D01*
X109740960Y-155921696D01*
X109407666Y-155855400D01*
X108912334Y-155855400D01*
X108426518Y-155952035D01*
X107968890Y-156141590D01*
X107557036Y-156416783D01*
X107206783Y-156767036D01*
X106931590Y-157178890D01*
X106742035Y-157636518D01*
X106645400Y-158122334D01*
X100244600Y-158122334D01*
X100147965Y-157636518D01*
X99958410Y-157178890D01*
X99683217Y-156767036D01*
X99332964Y-156416783D01*
X98921110Y-156141590D01*
X98463482Y-155952035D01*
X97977666Y-155855400D01*
X97482334Y-155855400D01*
X97149040Y-155921696D01*
X97194191Y-155812692D01*
X97259102Y-155486362D01*
X97259102Y-155153638D01*
X97194191Y-154827308D01*
X97176181Y-154783828D01*
X97861546Y-155469193D01*
X97884562Y-155497238D01*
X97996480Y-155589087D01*
X98124167Y-155657337D01*
X98262715Y-155699365D01*
X98370695Y-155710000D01*
X98370704Y-155710000D01*
X98406799Y-155713555D01*
X98442894Y-155710000D01*
X99307095Y-155710000D01*
X99343200Y-155713556D01*
X99379305Y-155710000D01*
X99487285Y-155699365D01*
X99625833Y-155657337D01*
X99753520Y-155589087D01*
X99865438Y-155497238D01*
X99888458Y-155469188D01*
X100989193Y-154368454D01*
X101017238Y-154345438D01*
X101109087Y-154233520D01*
X101177337Y-154105833D01*
X101219365Y-153967285D01*
X101230000Y-153859305D01*
X101230000Y-153859298D01*
X101233555Y-153823201D01*
X101230000Y-153787104D01*
X101230000Y-153349446D01*
X101272943Y-153306504D01*
X101408662Y-153333500D01*
X101671338Y-153333500D01*
X101928968Y-153282254D01*
X102171649Y-153181732D01*
X102390057Y-153035797D01*
X102575797Y-152850057D01*
X102721732Y-152631649D01*
X102810000Y-152418552D01*
X102898268Y-152631649D01*
X103044203Y-152850057D01*
X103229943Y-153035797D01*
X103448351Y-153181732D01*
X103691032Y-153282254D01*
X103948662Y-153333500D01*
X104211338Y-153333500D01*
X104468968Y-153282254D01*
X104711649Y-153181732D01*
X104930057Y-153035797D01*
X105115797Y-152850057D01*
X105261732Y-152631649D01*
X105350000Y-152418552D01*
X105438268Y-152631649D01*
X105584203Y-152850057D01*
X105769943Y-153035797D01*
X105988351Y-153181732D01*
X106231032Y-153282254D01*
X106488662Y-153333500D01*
X106751338Y-153333500D01*
X107008968Y-153282254D01*
X107251649Y-153181732D01*
X107470057Y-153035797D01*
X107655797Y-152850057D01*
X107801732Y-152631649D01*
X107902254Y-152388968D01*
X107953500Y-152131338D01*
X107953500Y-151868662D01*
X107902254Y-151611032D01*
X107801732Y-151368351D01*
X107655797Y-151149943D01*
X107470057Y-150964203D01*
X107251649Y-150818268D01*
X107008968Y-150717746D01*
X106751338Y-150666500D01*
X106697729Y-150666500D01*
X106867693Y-150496535D01*
X106895739Y-150473519D01*
X106950698Y-150406552D01*
X107039943Y-150495797D01*
X107258351Y-150641732D01*
X107501032Y-150742254D01*
X107758662Y-150793500D01*
X108021338Y-150793500D01*
X108278968Y-150742254D01*
X108521649Y-150641732D01*
X108740057Y-150495797D01*
X108925797Y-150310057D01*
X109071732Y-150091649D01*
X109172254Y-149848968D01*
X109223500Y-149591338D01*
X109223500Y-149328662D01*
X109172254Y-149071032D01*
X109071732Y-148828351D01*
X108925797Y-148609943D01*
X108740057Y-148424203D01*
X108567143Y-148308666D01*
X108605438Y-148277238D01*
X108628459Y-148249188D01*
X111119193Y-145758454D01*
X111147238Y-145735438D01*
X111239087Y-145623520D01*
X111307337Y-145495833D01*
X111344074Y-145374727D01*
X111349365Y-145357286D01*
X111363556Y-145213201D01*
X111360000Y-145177096D01*
X111360000Y-141907644D01*
X111589122Y-141678521D01*
X111593703Y-141673940D01*
X111597984Y-141670992D01*
X111644837Y-141622806D01*
X111666743Y-141600900D01*
X111670023Y-141596904D01*
X111673623Y-141593201D01*
X111692925Y-141568998D01*
X111735577Y-141517026D01*
X111738028Y-141512441D01*
X111765569Y-141477906D01*
X111797113Y-141443589D01*
X111820396Y-141405354D01*
X111860186Y-141438013D01*
X111864792Y-141440475D01*
X111899345Y-141468030D01*
X111933656Y-141499569D01*
X111986681Y-141531859D01*
X112038785Y-141565626D01*
X112082086Y-141582854D01*
X112159196Y-141619988D01*
X112199669Y-141643104D01*
X112258554Y-141662786D01*
X112316849Y-141684107D01*
X112362903Y-141691269D01*
X112446343Y-141710314D01*
X112490946Y-141723844D01*
X112552745Y-141729931D01*
X112614318Y-141737744D01*
X112660799Y-141734479D01*
X112746406Y-141734479D01*
X112792887Y-141737744D01*
X112854456Y-141729931D01*
X112916260Y-141723844D01*
X112960866Y-141710313D01*
X113044302Y-141691269D01*
X113090352Y-141684108D01*
X113148657Y-141662784D01*
X113207537Y-141643104D01*
X113248006Y-141619991D01*
X113325123Y-141582853D01*
X113368428Y-141565623D01*
X113420524Y-141531860D01*
X113473546Y-141499573D01*
X113507858Y-141468033D01*
X113542407Y-141440482D01*
X113546997Y-141438028D01*
X113598937Y-141395400D01*
X113623161Y-141376082D01*
X113626873Y-141372472D01*
X113630869Y-141369193D01*
X113652750Y-141347311D01*
X113662903Y-141337439D01*
X113666276Y-141335116D01*
X113683335Y-141317572D01*
X113700952Y-141300442D01*
X113703284Y-141297055D01*
X113713157Y-141286902D01*
X113735045Y-141265013D01*
X113738315Y-141261029D01*
X113741916Y-141257325D01*
X113761252Y-141233079D01*
X113803876Y-141181139D01*
X113806322Y-141176562D01*
X113833863Y-141142028D01*
X113865404Y-141107714D01*
X113897690Y-141054694D01*
X113931455Y-141002594D01*
X113948687Y-140959283D01*
X113985817Y-140882181D01*
X114008935Y-140841704D01*
X114028624Y-140782800D01*
X114049939Y-140724519D01*
X114057100Y-140678471D01*
X114076146Y-140595026D01*
X114089675Y-140550426D01*
X114095761Y-140488631D01*
X114103575Y-140427055D01*
X114100310Y-140380574D01*
X114100310Y-140294966D01*
X114103575Y-140248485D01*
X114095762Y-140186912D01*
X114089675Y-140125113D01*
X114076145Y-140080510D01*
X114057100Y-139997069D01*
X114049939Y-139951021D01*
X114028624Y-139892740D01*
X114008935Y-139833836D01*
X113985817Y-139793359D01*
X113948684Y-139716250D01*
X113931451Y-139672939D01*
X113897696Y-139620857D01*
X113865404Y-139567826D01*
X113833854Y-139533503D01*
X113806327Y-139498986D01*
X113803889Y-139494424D01*
X113771182Y-139454566D01*
X113809425Y-139431278D01*
X113843737Y-139399738D01*
X113878273Y-139372197D01*
X113882860Y-139369745D01*
X113934823Y-139327100D01*
X113959032Y-139307794D01*
X113962738Y-139304191D01*
X113966733Y-139300912D01*
X113988627Y-139279018D01*
X114036824Y-139232155D01*
X114039774Y-139227871D01*
X114307646Y-138960000D01*
X129357095Y-138960000D01*
X129393200Y-138963556D01*
X129429305Y-138960000D01*
X129537285Y-138949365D01*
X129675833Y-138907337D01*
X129803520Y-138839087D01*
X129915438Y-138747238D01*
X129938459Y-138719188D01*
X132449193Y-136208454D01*
X132477238Y-136185438D01*
X132569087Y-136073520D01*
X132637337Y-135945833D01*
X132679365Y-135807285D01*
X132690000Y-135699305D01*
X132690000Y-135699296D01*
X132693555Y-135663201D01*
X132690000Y-135627106D01*
X132690000Y-130572905D01*
X132693556Y-130536800D01*
X132679365Y-130392715D01*
X132637337Y-130254166D01*
X132569087Y-130126480D01*
X132500253Y-130042606D01*
X132500250Y-130042603D01*
X132477237Y-130014562D01*
X132449197Y-129991550D01*
X131763458Y-129305812D01*
X131740438Y-129277762D01*
X131628520Y-129185913D01*
X131500833Y-129117663D01*
X131362285Y-129075635D01*
X131302162Y-129069713D01*
X131013259Y-128780811D01*
X130990239Y-128752761D01*
X130878321Y-128660912D01*
X130750634Y-128592662D01*
X130612086Y-128550634D01*
X130504106Y-128539999D01*
X130468001Y-128536443D01*
X130431896Y-128539999D01*
X129568104Y-128539999D01*
X129531999Y-128536443D01*
X129387914Y-128550634D01*
X129249365Y-128592662D01*
X129121679Y-128660912D01*
X129009761Y-128752761D01*
X128986745Y-128780807D01*
X128813969Y-128953583D01*
X128799482Y-128949188D01*
X128675000Y-128936928D01*
X127325000Y-128936928D01*
X127200518Y-128949188D01*
X127080820Y-128985498D01*
X126970506Y-129044463D01*
X126873815Y-129123815D01*
X126794463Y-129220506D01*
X126735498Y-129330820D01*
X126699188Y-129450518D01*
X126686928Y-129575000D01*
X126686928Y-130925000D01*
X126699188Y-131049482D01*
X126735498Y-131169180D01*
X126794463Y-131279494D01*
X126873815Y-131376185D01*
X126960697Y-131447487D01*
X126839093Y-131629482D01*
X126740342Y-131867887D01*
X126690000Y-132120976D01*
X126690000Y-132379024D01*
X126740342Y-132632113D01*
X126839093Y-132870518D01*
X126982456Y-133085077D01*
X127147379Y-133250000D01*
X126982456Y-133414923D01*
X126915587Y-133515000D01*
X109467905Y-133515000D01*
X109431800Y-133511444D01*
X109395695Y-133515000D01*
X109287715Y-133525635D01*
X109149167Y-133567663D01*
X109021480Y-133635913D01*
X108909562Y-133727762D01*
X108886546Y-133755807D01*
X97844963Y-144797391D01*
X97844957Y-144797396D01*
X97560695Y-145081660D01*
X97557340Y-145079866D01*
X97522796Y-145052319D01*
X97488485Y-145020780D01*
X97435463Y-144988493D01*
X97383363Y-144954728D01*
X97340062Y-144937500D01*
X97262946Y-144900363D01*
X97222482Y-144877252D01*
X97163603Y-144857571D01*
X97105291Y-144836245D01*
X97059244Y-144829084D01*
X96975809Y-144810040D01*
X96931200Y-144796508D01*
X96869403Y-144790422D01*
X96807833Y-144782608D01*
X96761348Y-144785873D01*
X96675743Y-144785873D01*
X96629252Y-144782608D01*
X96567678Y-144790422D01*
X96505886Y-144796508D01*
X96461279Y-144810039D01*
X96377842Y-144829084D01*
X96331795Y-144836245D01*
X96273501Y-144857565D01*
X96214604Y-144877252D01*
X96174132Y-144900367D01*
X96097027Y-144937499D01*
X96053723Y-144954728D01*
X96001630Y-144988488D01*
X95948600Y-145020780D01*
X95914285Y-145052323D01*
X95879751Y-145079862D01*
X95875168Y-145082312D01*
X95823226Y-145124940D01*
X95798991Y-145144266D01*
X95795283Y-145147871D01*
X95791294Y-145151145D01*
X95769420Y-145173019D01*
X95759252Y-145182906D01*
X95755869Y-145185235D01*
X95738773Y-145202817D01*
X95721199Y-145219905D01*
X95718871Y-145223286D01*
X95709002Y-145233436D01*
X95687116Y-145255321D01*
X95683837Y-145259317D01*
X95680230Y-145263026D01*
X95660917Y-145287243D01*
X95618281Y-145339194D01*
X95615828Y-145343783D01*
X95588281Y-145378325D01*
X95556742Y-145412637D01*
X95524460Y-145465650D01*
X95490691Y-145517756D01*
X95473460Y-145561064D01*
X95436324Y-145638177D01*
X95413211Y-145678646D01*
X95393531Y-145737526D01*
X95372207Y-145795831D01*
X95365046Y-145841881D01*
X95346001Y-145925322D01*
X95332470Y-145969929D01*
X95326385Y-146031721D01*
X95318571Y-146093296D01*
X95321837Y-146139786D01*
X95321837Y-146225375D01*
X95318572Y-146271862D01*
X95326389Y-146333464D01*
X95332474Y-146395240D01*
X95346000Y-146439829D01*
X95365047Y-146523277D01*
X95372208Y-146569327D01*
X95393532Y-146627632D01*
X95413212Y-146686512D01*
X95436325Y-146726981D01*
X95473460Y-146804093D01*
X95490689Y-146847396D01*
X95524456Y-146899500D01*
X95556743Y-146952521D01*
X95588281Y-146986831D01*
X95615828Y-147021375D01*
X95618279Y-147025960D01*
X95636657Y-147048354D01*
X95596476Y-147072822D01*
X95562171Y-147104356D01*
X95527627Y-147131904D01*
X95523042Y-147134354D01*
X95471083Y-147176996D01*
X95446868Y-147196306D01*
X95443163Y-147199908D01*
X95439168Y-147203187D01*
X95417268Y-147225086D01*
X95369076Y-147271945D01*
X95366127Y-147276227D01*
X95280805Y-147361548D01*
X95252763Y-147384562D01*
X95229752Y-147412601D01*
X95229748Y-147412605D01*
X95191148Y-147459640D01*
X95160914Y-147496480D01*
X95092664Y-147624167D01*
X95090619Y-147630909D01*
X95050636Y-147762713D01*
X95036444Y-147906798D01*
X95040001Y-147942913D01*
X95040000Y-152307095D01*
X95036444Y-152343200D01*
X95040000Y-152379304D01*
X95050635Y-152487284D01*
X95092663Y-152625832D01*
X95160913Y-152753519D01*
X95252762Y-152865437D01*
X95280808Y-152888454D01*
X96106175Y-153713821D01*
X96062694Y-153695811D01*
X95736364Y-153630900D01*
X95403640Y-153630900D01*
X95077310Y-153695811D01*
X94769913Y-153823139D01*
X94493263Y-154007990D01*
X94257992Y-154243261D01*
X94073141Y-154519911D01*
X93945813Y-154827308D01*
X93880902Y-155153638D01*
X93135000Y-155153638D01*
X93135000Y-98410000D01*
X122065000Y-98410000D01*
X122065001Y-102216343D01*
G37*
X122065001Y-102216343D02*
X122061686Y-102250000D01*
X122074912Y-102384283D01*
X122114081Y-102513406D01*
X122177688Y-102632407D01*
X122263289Y-102736711D01*
X122367593Y-102822312D01*
X122486594Y-102885919D01*
X122615717Y-102925088D01*
X122716353Y-102935000D01*
X122750000Y-102938314D01*
X122783647Y-102935000D01*
X126216353Y-102935000D01*
X126250000Y-102938314D01*
X126283647Y-102935000D01*
X126384283Y-102925088D01*
X126513406Y-102885919D01*
X126632407Y-102822312D01*
X126736711Y-102736711D01*
X126822312Y-102632407D01*
X126885919Y-102513406D01*
X126925088Y-102384283D01*
X126938314Y-102250000D01*
X126935000Y-102216353D01*
X126935000Y-98410000D01*
X135790000Y-98410000D01*
X135790001Y-102216343D01*
X135786686Y-102250000D01*
X135799912Y-102384283D01*
X135839081Y-102513406D01*
X135902688Y-102632407D01*
X135988289Y-102736711D01*
X136092593Y-102822312D01*
X136211594Y-102885919D01*
X136340717Y-102925088D01*
X136441353Y-102935000D01*
X136475000Y-102938314D01*
X136508647Y-102935000D01*
X139941353Y-102935000D01*
X139975000Y-102938314D01*
X140008647Y-102935000D01*
X140109283Y-102925088D01*
X140238406Y-102885919D01*
X140357407Y-102822312D01*
X140461711Y-102736711D01*
X140547312Y-102632407D01*
X140610919Y-102513406D01*
X140650088Y-102384283D01*
X140663314Y-102250000D01*
X140660000Y-102216353D01*
X140660000Y-98410000D01*
X155640000Y-98410000D01*
X155640001Y-102216343D01*
X155636686Y-102250000D01*
X155649912Y-102384283D01*
X155689081Y-102513406D01*
X155752688Y-102632407D01*
X155838289Y-102736711D01*
X155942593Y-102822312D01*
X156061594Y-102885919D01*
X156190717Y-102925088D01*
X156291353Y-102935000D01*
X156325000Y-102938314D01*
X156358647Y-102935000D01*
X159791353Y-102935000D01*
X159825000Y-102938314D01*
X159858647Y-102935000D01*
X159959283Y-102925088D01*
X160088406Y-102885919D01*
X160207407Y-102822312D01*
X160311711Y-102736711D01*
X160397312Y-102632407D01*
X160460919Y-102513406D01*
X160500088Y-102384283D01*
X160513314Y-102250000D01*
X160510000Y-102216353D01*
X160510000Y-98410000D01*
X180873000Y-98410000D01*
X180873000Y-111665000D01*
X175210000Y-111665000D01*
X175210000Y-111663454D01*
X175242205Y-111615256D01*
X175320226Y-111426898D01*
X175360000Y-111226939D01*
X175360000Y-111023061D01*
X175320226Y-110823102D01*
X175242205Y-110634744D01*
X175128937Y-110465226D01*
X174984774Y-110321063D01*
X174815256Y-110207795D01*
X174626898Y-110129774D01*
X174426939Y-110090000D01*
X174223061Y-110090000D01*
X174023102Y-110129774D01*
X173834744Y-110207795D01*
X173665226Y-110321063D01*
X173521063Y-110465226D01*
X173407795Y-110634744D01*
X173329774Y-110823102D01*
X173290000Y-111023061D01*
X173290000Y-111226939D01*
X173329774Y-111426898D01*
X173407795Y-111615256D01*
X173440000Y-111663455D01*
X173440000Y-111665000D01*
X161322456Y-111665000D01*
X161335000Y-111601939D01*
X161335000Y-111398061D01*
X161295226Y-111198102D01*
X161217205Y-111009744D01*
X161103937Y-110840226D01*
X160959774Y-110696063D01*
X160790256Y-110582795D01*
X160601898Y-110504774D01*
X160401939Y-110465000D01*
X160198061Y-110465000D01*
X159998102Y-110504774D01*
X159809744Y-110582795D01*
X159640226Y-110696063D01*
X159496063Y-110840226D01*
X159382795Y-111009744D01*
X159304774Y-111198102D01*
X159265000Y-111398061D01*
X159265000Y-111601939D01*
X159277544Y-111665000D01*
X159110000Y-111665000D01*
X159110000Y-111473061D01*
X159070226Y-111273102D01*
X158992205Y-111084744D01*
X158878937Y-110915226D01*
X158734774Y-110771063D01*
X158565256Y-110657795D01*
X158376898Y-110579774D01*
X158176939Y-110540000D01*
X157973061Y-110540000D01*
X157773102Y-110579774D01*
X157584744Y-110657795D01*
X157415226Y-110771063D01*
X157371289Y-110815000D01*
X153878711Y-110815000D01*
X153859774Y-110796063D01*
X153690256Y-110682795D01*
X153501898Y-110604774D01*
X153301939Y-110565000D01*
X153098061Y-110565000D01*
X152898102Y-110604774D01*
X152709744Y-110682795D01*
X152540226Y-110796063D01*
X152396063Y-110940226D01*
X152282795Y-111109744D01*
X152204774Y-111298102D01*
X152165000Y-111498061D01*
X152165000Y-111665000D01*
X144152666Y-111665000D01*
X144220226Y-111501898D01*
X144260000Y-111301939D01*
X144260000Y-111098061D01*
X144220226Y-110898102D01*
X144142205Y-110709744D01*
X144028937Y-110540226D01*
X143884774Y-110396063D01*
X143715256Y-110282795D01*
X143526898Y-110204774D01*
X143326939Y-110165000D01*
X143123061Y-110165000D01*
X142923102Y-110204774D01*
X142734744Y-110282795D01*
X142565226Y-110396063D01*
X142421063Y-110540226D01*
X142307795Y-110709744D01*
X142229774Y-110898102D01*
X142190000Y-111098061D01*
X142190000Y-111301939D01*
X142229774Y-111501898D01*
X142297334Y-111665000D01*
X118688454Y-111665000D01*
X118640256Y-111632795D01*
X118451898Y-111554774D01*
X118251939Y-111515000D01*
X118048061Y-111515000D01*
X117848102Y-111554774D01*
X117659744Y-111632795D01*
X117490226Y-111746063D01*
X117346063Y-111890226D01*
X117232795Y-112059744D01*
X117154774Y-112248102D01*
X117115000Y-112448061D01*
X117115000Y-112651939D01*
X117154774Y-112851898D01*
X117232795Y-113040256D01*
X117346063Y-113209774D01*
X117376290Y-113240001D01*
X108616580Y-113240001D01*
X105635000Y-110258422D01*
X105635000Y-109613454D01*
X105667205Y-109565256D01*
X105745226Y-109376898D01*
X105785000Y-109176939D01*
X105785000Y-108973061D01*
X105745226Y-108773102D01*
X105667205Y-108584744D01*
X105633967Y-108535000D01*
X128836494Y-108535000D01*
X128854774Y-108626898D01*
X128932795Y-108815256D01*
X129046063Y-108984774D01*
X129190226Y-109128937D01*
X129359744Y-109242205D01*
X129548102Y-109320226D01*
X129748061Y-109360000D01*
X129951939Y-109360000D01*
X130151898Y-109320226D01*
X130340256Y-109242205D01*
X130509774Y-109128937D01*
X130653937Y-108984774D01*
X130767205Y-108815256D01*
X130845226Y-108626898D01*
X130863506Y-108535000D01*
X146410199Y-108535000D01*
X146815000Y-108939802D01*
X146815000Y-109001939D01*
X146854774Y-109201898D01*
X146932795Y-109390256D01*
X147046063Y-109559774D01*
X147190226Y-109703937D01*
X147359744Y-109817205D01*
X147548102Y-109895226D01*
X147748061Y-109935000D01*
X147951939Y-109935000D01*
X148151898Y-109895226D01*
X148340256Y-109817205D01*
X148509774Y-109703937D01*
X148653937Y-109559774D01*
X148767205Y-109390256D01*
X148845226Y-109201898D01*
X148885000Y-109001939D01*
X148885000Y-108798061D01*
X148845226Y-108598102D01*
X148767205Y-108409744D01*
X148653937Y-108240226D01*
X148509774Y-108096063D01*
X148340256Y-107982795D01*
X148151898Y-107904774D01*
X147951939Y-107865000D01*
X147889802Y-107865000D01*
X147288804Y-107264002D01*
X147265001Y-107234999D01*
X147149276Y-107140026D01*
X147017247Y-107069454D01*
X146873986Y-107025997D01*
X146762333Y-107015000D01*
X146762322Y-107015000D01*
X146725000Y-107011324D01*
X146687678Y-107015000D01*
X129887333Y-107015000D01*
X129850000Y-107011323D01*
X129812667Y-107015000D01*
X99889802Y-107015000D01*
X99535000Y-106660199D01*
X99535000Y-106598061D01*
X99495226Y-106398102D01*
X99417205Y-106209744D01*
X99303937Y-106040226D01*
X99159774Y-105896063D01*
X98990256Y-105782795D01*
X98801898Y-105704774D01*
X98601939Y-105665000D01*
X98398061Y-105665000D01*
X98198102Y-105704774D01*
X98009744Y-105782795D01*
X97840226Y-105896063D01*
X97696063Y-106040226D01*
X97582795Y-106209744D01*
X97504774Y-106398102D01*
X97465000Y-106598061D01*
X97465000Y-106801939D01*
X97504774Y-107001898D01*
X97582795Y-107190256D01*
X97696063Y-107359774D01*
X97840226Y-107503937D01*
X98009744Y-107617205D01*
X98198102Y-107695226D01*
X98398061Y-107735000D01*
X98460199Y-107735000D01*
X99011200Y-108286002D01*
X99034999Y-108315001D01*
X99063997Y-108338799D01*
X99150724Y-108409974D01*
X99282753Y-108480546D01*
X99426014Y-108524003D01*
X99575000Y-108538677D01*
X99612333Y-108535000D01*
X103866033Y-108535000D01*
X103832795Y-108584744D01*
X103754774Y-108773102D01*
X103715000Y-108973061D01*
X103715000Y-109176939D01*
X103754774Y-109376898D01*
X103832795Y-109565256D01*
X103865001Y-109613455D01*
X103865000Y-110581530D01*
X103860719Y-110625000D01*
X103865000Y-110668469D01*
X103865000Y-110668476D01*
X103874072Y-110760589D01*
X103877805Y-110798490D01*
X103886150Y-110825998D01*
X103928411Y-110965312D01*
X104010589Y-111119058D01*
X104121183Y-111253817D01*
X104154956Y-111281534D01*
X107593471Y-114720050D01*
X107621184Y-114753818D01*
X107654952Y-114781531D01*
X107654954Y-114781533D01*
X107719721Y-114834686D01*
X107755942Y-114864412D01*
X107909688Y-114946590D01*
X108076511Y-114997196D01*
X108206524Y-115010001D01*
X108206532Y-115010001D01*
X108250001Y-115014282D01*
X108293470Y-115010001D01*
X118389707Y-115010001D01*
X118446184Y-115078818D01*
X118479957Y-115106535D01*
X118793465Y-115420044D01*
X118804774Y-115476898D01*
X118882795Y-115665256D01*
X118996063Y-115834774D01*
X119140226Y-115978937D01*
X119309744Y-116092205D01*
X119498102Y-116170226D01*
X119698061Y-116210000D01*
X119901939Y-116210000D01*
X120101898Y-116170226D01*
X120290256Y-116092205D01*
X120459774Y-115978937D01*
X120603937Y-115834774D01*
X120717205Y-115665256D01*
X120795226Y-115476898D01*
X120835000Y-115276939D01*
X120835000Y-115073061D01*
X120822457Y-115010001D01*
X131712489Y-115010001D01*
X131690000Y-115123061D01*
X131690000Y-115326939D01*
X131729774Y-115526898D01*
X131807795Y-115715256D01*
X131921063Y-115884774D01*
X132065226Y-116028937D01*
X132234744Y-116142205D01*
X132423102Y-116220226D01*
X132623061Y-116260000D01*
X132826939Y-116260000D01*
X133026898Y-116220226D01*
X133215256Y-116142205D01*
X133384774Y-116028937D01*
X133528937Y-115884774D01*
X133642205Y-115715256D01*
X133720226Y-115526898D01*
X133760000Y-115326939D01*
X133760000Y-115123061D01*
X133737511Y-115010001D01*
X148215001Y-115010001D01*
X148215000Y-115186545D01*
X148182795Y-115234744D01*
X148104774Y-115423102D01*
X148065000Y-115623061D01*
X148065000Y-115826939D01*
X148104774Y-116026898D01*
X148182795Y-116215256D01*
X148296063Y-116384774D01*
X148440226Y-116528937D01*
X148609744Y-116642205D01*
X148798102Y-116720226D01*
X148998061Y-116760000D01*
X149201939Y-116760000D01*
X149401898Y-116720226D01*
X149590256Y-116642205D01*
X149759774Y-116528937D01*
X149903937Y-116384774D01*
X150017205Y-116215256D01*
X150095226Y-116026898D01*
X150135000Y-115826939D01*
X150135000Y-115623061D01*
X150095226Y-115423102D01*
X150017205Y-115234744D01*
X149985000Y-115186546D01*
X149985000Y-115010001D01*
X177915000Y-115010001D01*
X177914999Y-115713422D01*
X175816652Y-117811770D01*
X175767932Y-117566842D01*
X175655990Y-117296589D01*
X175493475Y-117053368D01*
X175286632Y-116846525D01*
X175043411Y-116684010D01*
X174773158Y-116572068D01*
X174486260Y-116515000D01*
X174193740Y-116515000D01*
X173906842Y-116572068D01*
X173636589Y-116684010D01*
X173393368Y-116846525D01*
X173186525Y-117053368D01*
X173070000Y-117227760D01*
X172953475Y-117053368D01*
X172746632Y-116846525D01*
X172503411Y-116684010D01*
X172233158Y-116572068D01*
X171946260Y-116515000D01*
X171653740Y-116515000D01*
X171366842Y-116572068D01*
X171096589Y-116684010D01*
X170853368Y-116846525D01*
X170646525Y-117053368D01*
X170530000Y-117227760D01*
X170413475Y-117053368D01*
X170206632Y-116846525D01*
X169963411Y-116684010D01*
X169693158Y-116572068D01*
X169406260Y-116515000D01*
X169113740Y-116515000D01*
X168826842Y-116572068D01*
X168556589Y-116684010D01*
X168313368Y-116846525D01*
X168106525Y-117053368D01*
X167990000Y-117227760D01*
X167873475Y-117053368D01*
X167666632Y-116846525D01*
X167423411Y-116684010D01*
X167153158Y-116572068D01*
X166866260Y-116515000D01*
X166573740Y-116515000D01*
X166286842Y-116572068D01*
X166016589Y-116684010D01*
X165773368Y-116846525D01*
X165566525Y-117053368D01*
X165404010Y-117296589D01*
X165292068Y-117566842D01*
X165235000Y-117853740D01*
X165235000Y-118146260D01*
X165288456Y-118415001D01*
X148402324Y-118415001D01*
X148364999Y-118411325D01*
X148327674Y-118415001D01*
X148327666Y-118415001D01*
X148216013Y-118425998D01*
X148072752Y-118469455D01*
X147940723Y-118540027D01*
X147824998Y-118635000D01*
X147801200Y-118663998D01*
X140831571Y-125633628D01*
X140677592Y-125603000D01*
X140402408Y-125603000D01*
X140132510Y-125656686D01*
X139878273Y-125761995D01*
X139649465Y-125914880D01*
X139454880Y-126109465D01*
X139301995Y-126338273D01*
X139270000Y-126415515D01*
X139238005Y-126338273D01*
X139085120Y-126109465D01*
X138890535Y-125914880D01*
X138661727Y-125761995D01*
X138407490Y-125656686D01*
X138137592Y-125603000D01*
X137862408Y-125603000D01*
X137592510Y-125656686D01*
X137338273Y-125761995D01*
X137109465Y-125914880D01*
X136914880Y-126109465D01*
X136761995Y-126338273D01*
X136730000Y-126415515D01*
X136698005Y-126338273D01*
X136545120Y-126109465D01*
X136350535Y-125914880D01*
X136121727Y-125761995D01*
X135867490Y-125656686D01*
X135597592Y-125603000D01*
X135322408Y-125603000D01*
X135052510Y-125656686D01*
X134798273Y-125761995D01*
X134569465Y-125914880D01*
X134543954Y-125940391D01*
X128567566Y-119964003D01*
X128543763Y-119934999D01*
X128428038Y-119840026D01*
X128296009Y-119769454D01*
X128152748Y-119725997D01*
X128041095Y-119715000D01*
X128041084Y-119715000D01*
X128003762Y-119711324D01*
X127966440Y-119715000D01*
X127614802Y-119715000D01*
X127072863Y-119173061D01*
X128965000Y-119173061D01*
X128965000Y-119376939D01*
X129004774Y-119576898D01*
X129082795Y-119765256D01*
X129196063Y-119934774D01*
X129340226Y-120078937D01*
X129509744Y-120192205D01*
X129698102Y-120270226D01*
X129898061Y-120310000D01*
X129975773Y-120310000D01*
X130107753Y-120380546D01*
X130251014Y-120424003D01*
X130362667Y-120435000D01*
X130362676Y-120435000D01*
X130399999Y-120438676D01*
X130437322Y-120435000D01*
X132396289Y-120435000D01*
X132440226Y-120478937D01*
X132609744Y-120592205D01*
X132798102Y-120670226D01*
X132998061Y-120710000D01*
X133201939Y-120710000D01*
X133401898Y-120670226D01*
X133590256Y-120592205D01*
X133759774Y-120478937D01*
X133903937Y-120334774D01*
X134017205Y-120165256D01*
X134095226Y-119976898D01*
X134135000Y-119776939D01*
X134135000Y-119573061D01*
X134095226Y-119373102D01*
X134017205Y-119184744D01*
X133903937Y-119015226D01*
X133759774Y-118871063D01*
X133590256Y-118757795D01*
X133401898Y-118679774D01*
X133201939Y-118640000D01*
X132998061Y-118640000D01*
X132798102Y-118679774D01*
X132609744Y-118757795D01*
X132440226Y-118871063D01*
X132396289Y-118915000D01*
X130971159Y-118915000D01*
X130917205Y-118784744D01*
X130803937Y-118615226D01*
X130659774Y-118471063D01*
X130490256Y-118357795D01*
X130301898Y-118279774D01*
X130101939Y-118240000D01*
X129898061Y-118240000D01*
X129698102Y-118279774D01*
X129509744Y-118357795D01*
X129340226Y-118471063D01*
X129196063Y-118615226D01*
X129082795Y-118784744D01*
X129004774Y-118973102D01*
X128965000Y-119173061D01*
X127072863Y-119173061D01*
X124735000Y-116835199D01*
X124735000Y-116773061D01*
X124695226Y-116573102D01*
X124617205Y-116384744D01*
X124503937Y-116215226D01*
X124359774Y-116071063D01*
X124190256Y-115957795D01*
X124001898Y-115879774D01*
X123801939Y-115840000D01*
X123598061Y-115840000D01*
X123398102Y-115879774D01*
X123209744Y-115957795D01*
X123040226Y-116071063D01*
X122896063Y-116215226D01*
X122782795Y-116384744D01*
X122704774Y-116573102D01*
X122665000Y-116773061D01*
X122665000Y-116976939D01*
X122704774Y-117176898D01*
X122782795Y-117365256D01*
X122896063Y-117534774D01*
X123040226Y-117678937D01*
X123209744Y-117792205D01*
X123398102Y-117870226D01*
X123598061Y-117910000D01*
X123660199Y-117910000D01*
X126736200Y-120986002D01*
X126759999Y-121015001D01*
X126875724Y-121109974D01*
X127007753Y-121180546D01*
X127151014Y-121224003D01*
X127262667Y-121235000D01*
X127262677Y-121235000D01*
X127300000Y-121238676D01*
X127337323Y-121235000D01*
X127688961Y-121235000D01*
X132232905Y-125778945D01*
X132029465Y-125914880D01*
X131834880Y-126109465D01*
X131681995Y-126338273D01*
X131650000Y-126415515D01*
X131618005Y-126338273D01*
X131465120Y-126109465D01*
X131270535Y-125914880D01*
X131041727Y-125761995D01*
X130787490Y-125656686D01*
X130517592Y-125603000D01*
X130242408Y-125603000D01*
X129972510Y-125656686D01*
X129718273Y-125761995D01*
X129489465Y-125914880D01*
X129294880Y-126109465D01*
X129141995Y-126338273D01*
X129110000Y-126415515D01*
X129078005Y-126338273D01*
X128925120Y-126109465D01*
X128730535Y-125914880D01*
X128501727Y-125761995D01*
X128247490Y-125656686D01*
X127977592Y-125603000D01*
X127702408Y-125603000D01*
X127432510Y-125656686D01*
X127178273Y-125761995D01*
X126949465Y-125914880D01*
X126754880Y-126109465D01*
X126601995Y-126338273D01*
X126570000Y-126415515D01*
X126538005Y-126338273D01*
X126385120Y-126109465D01*
X126190535Y-125914880D01*
X125961727Y-125761995D01*
X125707490Y-125656686D01*
X125437592Y-125603000D01*
X125162408Y-125603000D01*
X124892510Y-125656686D01*
X124638273Y-125761995D01*
X124409465Y-125914880D01*
X124214880Y-126109465D01*
X124061995Y-126338273D01*
X124030000Y-126415515D01*
X123998005Y-126338273D01*
X123845120Y-126109465D01*
X123650535Y-125914880D01*
X123421727Y-125761995D01*
X123167490Y-125656686D01*
X122897592Y-125603000D01*
X122622408Y-125603000D01*
X122352510Y-125656686D01*
X122098273Y-125761995D01*
X121869465Y-125914880D01*
X121674880Y-126109465D01*
X121521995Y-126338273D01*
X121490000Y-126415515D01*
X121458005Y-126338273D01*
X121305120Y-126109465D01*
X121110535Y-125914880D01*
X120881727Y-125761995D01*
X120627490Y-125656686D01*
X120357592Y-125603000D01*
X120082408Y-125603000D01*
X119812510Y-125656686D01*
X119558273Y-125761995D01*
X119329465Y-125914880D01*
X119134880Y-126109465D01*
X118981995Y-126338273D01*
X118950000Y-126415515D01*
X118918005Y-126338273D01*
X118765120Y-126109465D01*
X118570535Y-125914880D01*
X118341727Y-125761995D01*
X118087490Y-125656686D01*
X117817592Y-125603000D01*
X117542408Y-125603000D01*
X117272510Y-125656686D01*
X117018273Y-125761995D01*
X116789465Y-125914880D01*
X116594880Y-126109465D01*
X116441995Y-126338273D01*
X116410000Y-126415515D01*
X116378005Y-126338273D01*
X116225120Y-126109465D01*
X116030535Y-125914880D01*
X115801727Y-125761995D01*
X115547490Y-125656686D01*
X115277592Y-125603000D01*
X115002408Y-125603000D01*
X114732510Y-125656686D01*
X114478273Y-125761995D01*
X114249465Y-125914880D01*
X114054880Y-126109465D01*
X113901995Y-126338273D01*
X113796686Y-126592510D01*
X113743000Y-126862408D01*
X113743000Y-127137592D01*
X113796686Y-127407490D01*
X113901995Y-127661727D01*
X114054880Y-127890535D01*
X114249465Y-128085120D01*
X114478273Y-128238005D01*
X114732510Y-128343314D01*
X115002408Y-128397000D01*
X115277592Y-128397000D01*
X115547490Y-128343314D01*
X115801727Y-128238005D01*
X116030535Y-128085120D01*
X116225120Y-127890535D01*
X116378005Y-127661727D01*
X116410000Y-127584485D01*
X116441995Y-127661727D01*
X116594880Y-127890535D01*
X116789465Y-128085120D01*
X117018273Y-128238005D01*
X117272510Y-128343314D01*
X117542408Y-128397000D01*
X117817592Y-128397000D01*
X118087490Y-128343314D01*
X118341727Y-128238005D01*
X118570535Y-128085120D01*
X118765120Y-127890535D01*
X118918005Y-127661727D01*
X118950000Y-127584485D01*
X118981995Y-127661727D01*
X119134880Y-127890535D01*
X119329465Y-128085120D01*
X119558273Y-128238005D01*
X119812510Y-128343314D01*
X120082408Y-128397000D01*
X120357592Y-128397000D01*
X120627490Y-128343314D01*
X120881727Y-128238005D01*
X121110535Y-128085120D01*
X121305120Y-127890535D01*
X121458005Y-127661727D01*
X121490000Y-127584485D01*
X121521995Y-127661727D01*
X121674880Y-127890535D01*
X121869465Y-128085120D01*
X122098273Y-128238005D01*
X122352510Y-128343314D01*
X122622408Y-128397000D01*
X122897592Y-128397000D01*
X123167490Y-128343314D01*
X123421727Y-128238005D01*
X123650535Y-128085120D01*
X123845120Y-127890535D01*
X123998005Y-127661727D01*
X124030000Y-127584485D01*
X124061995Y-127661727D01*
X124214880Y-127890535D01*
X124409465Y-128085120D01*
X124638273Y-128238005D01*
X124892510Y-128343314D01*
X125162408Y-128397000D01*
X125437592Y-128397000D01*
X125707490Y-128343314D01*
X125961727Y-128238005D01*
X126190535Y-128085120D01*
X126385120Y-127890535D01*
X126538005Y-127661727D01*
X126570000Y-127584485D01*
X126601995Y-127661727D01*
X126754880Y-127890535D01*
X126949465Y-128085120D01*
X127178273Y-128238005D01*
X127432510Y-128343314D01*
X127702408Y-128397000D01*
X127977592Y-128397000D01*
X128247490Y-128343314D01*
X128501727Y-128238005D01*
X128730535Y-128085120D01*
X128925120Y-127890535D01*
X129078005Y-127661727D01*
X129110000Y-127584485D01*
X129141995Y-127661727D01*
X129294880Y-127890535D01*
X129489465Y-128085120D01*
X129718273Y-128238005D01*
X129972510Y-128343314D01*
X130242408Y-128397000D01*
X130517592Y-128397000D01*
X130787490Y-128343314D01*
X131041727Y-128238005D01*
X131270535Y-128085120D01*
X131465120Y-127890535D01*
X131618005Y-127661727D01*
X131650000Y-127584485D01*
X131681995Y-127661727D01*
X131834880Y-127890535D01*
X132029465Y-128085120D01*
X132258273Y-128238005D01*
X132512510Y-128343314D01*
X132782408Y-128397000D01*
X133057592Y-128397000D01*
X133327490Y-128343314D01*
X133581727Y-128238005D01*
X133613000Y-128217109D01*
X133612999Y-141022890D01*
X133581727Y-141001995D01*
X133327490Y-140896686D01*
X133057592Y-140843000D01*
X132782408Y-140843000D01*
X132512510Y-140896686D01*
X132258273Y-141001995D01*
X132029465Y-141154880D01*
X131834880Y-141349465D01*
X131681995Y-141578273D01*
X131650000Y-141655515D01*
X131618005Y-141578273D01*
X131465120Y-141349465D01*
X131270535Y-141154880D01*
X131041727Y-141001995D01*
X130787490Y-140896686D01*
X130517592Y-140843000D01*
X130242408Y-140843000D01*
X129972510Y-140896686D01*
X129718273Y-141001995D01*
X129489465Y-141154880D01*
X129294880Y-141349465D01*
X129141995Y-141578273D01*
X129110000Y-141655515D01*
X129078005Y-141578273D01*
X128925120Y-141349465D01*
X128730535Y-141154880D01*
X128501727Y-141001995D01*
X128247490Y-140896686D01*
X127977592Y-140843000D01*
X127702408Y-140843000D01*
X127432510Y-140896686D01*
X127178273Y-141001995D01*
X126949465Y-141154880D01*
X126754880Y-141349465D01*
X126601995Y-141578273D01*
X126570000Y-141655515D01*
X126538005Y-141578273D01*
X126385120Y-141349465D01*
X126190535Y-141154880D01*
X125961727Y-141001995D01*
X125707490Y-140896686D01*
X125437592Y-140843000D01*
X125162408Y-140843000D01*
X124892510Y-140896686D01*
X124638273Y-141001995D01*
X124409465Y-141154880D01*
X124214880Y-141349465D01*
X124061995Y-141578273D01*
X124030000Y-141655515D01*
X123998005Y-141578273D01*
X123845120Y-141349465D01*
X123650535Y-141154880D01*
X123421727Y-141001995D01*
X123167490Y-140896686D01*
X122897592Y-140843000D01*
X122622408Y-140843000D01*
X122352510Y-140896686D01*
X122098273Y-141001995D01*
X121869465Y-141154880D01*
X121674880Y-141349465D01*
X121521995Y-141578273D01*
X121490000Y-141655515D01*
X121458005Y-141578273D01*
X121305120Y-141349465D01*
X121110535Y-141154880D01*
X120881727Y-141001995D01*
X120627490Y-140896686D01*
X120357592Y-140843000D01*
X120082408Y-140843000D01*
X119812510Y-140896686D01*
X119558273Y-141001995D01*
X119329465Y-141154880D01*
X119134880Y-141349465D01*
X118981995Y-141578273D01*
X118950000Y-141655515D01*
X118918005Y-141578273D01*
X118765120Y-141349465D01*
X118570535Y-141154880D01*
X118341727Y-141001995D01*
X118087490Y-140896686D01*
X117817592Y-140843000D01*
X117542408Y-140843000D01*
X117272510Y-140896686D01*
X117018273Y-141001995D01*
X116789465Y-141154880D01*
X116594880Y-141349465D01*
X116441995Y-141578273D01*
X116410000Y-141655515D01*
X116378005Y-141578273D01*
X116225120Y-141349465D01*
X116030535Y-141154880D01*
X115801727Y-141001995D01*
X115547490Y-140896686D01*
X115277592Y-140843000D01*
X115002408Y-140843000D01*
X114732510Y-140896686D01*
X114478273Y-141001995D01*
X114249465Y-141154880D01*
X114054880Y-141349465D01*
X113901995Y-141578273D01*
X113796686Y-141832510D01*
X113743000Y-142102408D01*
X113743000Y-142377592D01*
X113796686Y-142647490D01*
X113901995Y-142901727D01*
X114054880Y-143130535D01*
X114249465Y-143325120D01*
X114478273Y-143478005D01*
X114732510Y-143583314D01*
X115002408Y-143637000D01*
X115277592Y-143637000D01*
X115547490Y-143583314D01*
X115801727Y-143478005D01*
X116030535Y-143325120D01*
X116225120Y-143130535D01*
X116378005Y-142901727D01*
X116410000Y-142824485D01*
X116441995Y-142901727D01*
X116594880Y-143130535D01*
X116789465Y-143325120D01*
X117018273Y-143478005D01*
X117272510Y-143583314D01*
X117542408Y-143637000D01*
X117817592Y-143637000D01*
X118087490Y-143583314D01*
X118341727Y-143478005D01*
X118570535Y-143325120D01*
X118765120Y-143130535D01*
X118918005Y-142901727D01*
X118950000Y-142824485D01*
X118981995Y-142901727D01*
X119134880Y-143130535D01*
X119329465Y-143325120D01*
X119558273Y-143478005D01*
X119812510Y-143583314D01*
X120082408Y-143637000D01*
X120357592Y-143637000D01*
X120627490Y-143583314D01*
X120881727Y-143478005D01*
X121110535Y-143325120D01*
X121305120Y-143130535D01*
X121458005Y-142901727D01*
X121490000Y-142824485D01*
X121521995Y-142901727D01*
X121674880Y-143130535D01*
X121869465Y-143325120D01*
X122098273Y-143478005D01*
X122352510Y-143583314D01*
X122622408Y-143637000D01*
X122897592Y-143637000D01*
X123167490Y-143583314D01*
X123421727Y-143478005D01*
X123650535Y-143325120D01*
X123845120Y-143130535D01*
X123998005Y-142901727D01*
X124030000Y-142824485D01*
X124061995Y-142901727D01*
X124214880Y-143130535D01*
X124409465Y-143325120D01*
X124638273Y-143478005D01*
X124892510Y-143583314D01*
X125162408Y-143637000D01*
X125437592Y-143637000D01*
X125707490Y-143583314D01*
X125961727Y-143478005D01*
X126190535Y-143325120D01*
X126385120Y-143130535D01*
X126538005Y-142901727D01*
X126570000Y-142824485D01*
X126601995Y-142901727D01*
X126754880Y-143130535D01*
X126949465Y-143325120D01*
X127178273Y-143478005D01*
X127432510Y-143583314D01*
X127702408Y-143637000D01*
X127977592Y-143637000D01*
X128247490Y-143583314D01*
X128501727Y-143478005D01*
X128730535Y-143325120D01*
X128925120Y-143130535D01*
X129078005Y-142901727D01*
X129110000Y-142824485D01*
X129141995Y-142901727D01*
X129294880Y-143130535D01*
X129489465Y-143325120D01*
X129718273Y-143478005D01*
X129972510Y-143583314D01*
X130242408Y-143637000D01*
X130517592Y-143637000D01*
X130787490Y-143583314D01*
X131041727Y-143478005D01*
X131270535Y-143325120D01*
X131465120Y-143130535D01*
X131618005Y-142901727D01*
X131650000Y-142824485D01*
X131681995Y-142901727D01*
X131834880Y-143130535D01*
X132029465Y-143325120D01*
X132258273Y-143478005D01*
X132512510Y-143583314D01*
X132782408Y-143637000D01*
X133057592Y-143637000D01*
X133327490Y-143583314D01*
X133581727Y-143478005D01*
X133810535Y-143325120D01*
X134005120Y-143130535D01*
X134158005Y-142901727D01*
X134190000Y-142824485D01*
X134221995Y-142901727D01*
X134374880Y-143130535D01*
X134569465Y-143325120D01*
X134798273Y-143478005D01*
X135052510Y-143583314D01*
X135322408Y-143637000D01*
X135597592Y-143637000D01*
X135867490Y-143583314D01*
X136121727Y-143478005D01*
X136350535Y-143325120D01*
X136470090Y-143205565D01*
X137214040Y-143205565D01*
X137281020Y-143445656D01*
X137530048Y-143562756D01*
X137797135Y-143629023D01*
X138072017Y-143641910D01*
X138344133Y-143600922D01*
X138603023Y-143507636D01*
X138718980Y-143445656D01*
X138785960Y-143205565D01*
X138000000Y-142419605D01*
X137214040Y-143205565D01*
X136470090Y-143205565D01*
X136545120Y-143130535D01*
X136698005Y-142901727D01*
X136727692Y-142830057D01*
X136732364Y-142843023D01*
X136794344Y-142958980D01*
X137034435Y-143025960D01*
X137820395Y-142240000D01*
X137034435Y-141454040D01*
X136794344Y-141521020D01*
X136730515Y-141656760D01*
X136698005Y-141578273D01*
X136545120Y-141349465D01*
X136470090Y-141274435D01*
X137214040Y-141274435D01*
X138000000Y-142060395D01*
X138785960Y-141274435D01*
X138718980Y-141034344D01*
X138469952Y-140917244D01*
X138202865Y-140850977D01*
X137927983Y-140838090D01*
X137655867Y-140879078D01*
X137396977Y-140972364D01*
X137281020Y-141034344D01*
X137214040Y-141274435D01*
X136470090Y-141274435D01*
X136350535Y-141154880D01*
X136121727Y-141001995D01*
X135867490Y-140896686D01*
X135597592Y-140843000D01*
X135322408Y-140843000D01*
X135168429Y-140873628D01*
X135132999Y-140838198D01*
X135132999Y-128359324D01*
X135322408Y-128397000D01*
X135597592Y-128397000D01*
X135867490Y-128343314D01*
X136121727Y-128238005D01*
X136350535Y-128085120D01*
X136545120Y-127890535D01*
X136698005Y-127661727D01*
X136730000Y-127584485D01*
X136761995Y-127661727D01*
X136914880Y-127890535D01*
X137109465Y-128085120D01*
X137338273Y-128238005D01*
X137592510Y-128343314D01*
X137862408Y-128397000D01*
X138137592Y-128397000D01*
X138407490Y-128343314D01*
X138661727Y-128238005D01*
X138890535Y-128085120D01*
X139085120Y-127890535D01*
X139238005Y-127661727D01*
X139270000Y-127584485D01*
X139301995Y-127661727D01*
X139454880Y-127890535D01*
X139649465Y-128085120D01*
X139878273Y-128238005D01*
X140132510Y-128343314D01*
X140402408Y-128397000D01*
X140677592Y-128397000D01*
X140867001Y-128359324D01*
X140867002Y-140838196D01*
X140831570Y-140873628D01*
X140677592Y-140843000D01*
X140402408Y-140843000D01*
X140132510Y-140896686D01*
X139878273Y-141001995D01*
X139649465Y-141154880D01*
X139454880Y-141349465D01*
X139301995Y-141578273D01*
X139272308Y-141649943D01*
X139267636Y-141636977D01*
X139205656Y-141521020D01*
X138965565Y-141454040D01*
X138179605Y-142240000D01*
X138965565Y-143025960D01*
X139205656Y-142958980D01*
X139269485Y-142823240D01*
X139301995Y-142901727D01*
X139454880Y-143130535D01*
X139649465Y-143325120D01*
X139878273Y-143478005D01*
X140132510Y-143583314D01*
X140402408Y-143637000D01*
X140677592Y-143637000D01*
X140947490Y-143583314D01*
X141201727Y-143478005D01*
X141430535Y-143325120D01*
X141625120Y-143130535D01*
X141778005Y-142901727D01*
X141810000Y-142824485D01*
X141841995Y-142901727D01*
X141994880Y-143130535D01*
X142189465Y-143325120D01*
X142418273Y-143478005D01*
X142672510Y-143583314D01*
X142942408Y-143637000D01*
X143217592Y-143637000D01*
X143487490Y-143583314D01*
X143741727Y-143478005D01*
X143970535Y-143325120D01*
X144165120Y-143130535D01*
X144318005Y-142901727D01*
X144350000Y-142824485D01*
X144381995Y-142901727D01*
X144534880Y-143130535D01*
X144729465Y-143325120D01*
X144958273Y-143478005D01*
X145212510Y-143583314D01*
X145482408Y-143637000D01*
X145757592Y-143637000D01*
X146027490Y-143583314D01*
X146281727Y-143478005D01*
X146510535Y-143325120D01*
X146705120Y-143130535D01*
X146858005Y-142901727D01*
X146890000Y-142824485D01*
X146921995Y-142901727D01*
X147074880Y-143130535D01*
X147269465Y-143325120D01*
X147498273Y-143478005D01*
X147752510Y-143583314D01*
X148022408Y-143637000D01*
X148297592Y-143637000D01*
X148567490Y-143583314D01*
X148821727Y-143478005D01*
X149050535Y-143325120D01*
X149245120Y-143130535D01*
X149398005Y-142901727D01*
X149430000Y-142824485D01*
X149461995Y-142901727D01*
X149614880Y-143130535D01*
X149809465Y-143325120D01*
X150038273Y-143478005D01*
X150292510Y-143583314D01*
X150562408Y-143637000D01*
X150837592Y-143637000D01*
X151107490Y-143583314D01*
X151361727Y-143478005D01*
X151590535Y-143325120D01*
X151785120Y-143130535D01*
X151938005Y-142901727D01*
X151970000Y-142824485D01*
X152001995Y-142901727D01*
X152154880Y-143130535D01*
X152349465Y-143325120D01*
X152578273Y-143478005D01*
X152832510Y-143583314D01*
X153102408Y-143637000D01*
X153377592Y-143637000D01*
X153647490Y-143583314D01*
X153901727Y-143478005D01*
X154130535Y-143325120D01*
X154325120Y-143130535D01*
X154478005Y-142901727D01*
X154510000Y-142824485D01*
X154541995Y-142901727D01*
X154694880Y-143130535D01*
X154889465Y-143325120D01*
X155118273Y-143478005D01*
X155372510Y-143583314D01*
X155642408Y-143637000D01*
X155917592Y-143637000D01*
X156187490Y-143583314D01*
X156441727Y-143478005D01*
X156670535Y-143325120D01*
X156865120Y-143130535D01*
X157018005Y-142901727D01*
X157050000Y-142824485D01*
X157081995Y-142901727D01*
X157234880Y-143130535D01*
X157429465Y-143325120D01*
X157658273Y-143478005D01*
X157912510Y-143583314D01*
X158182408Y-143637000D01*
X158457592Y-143637000D01*
X158727490Y-143583314D01*
X158981727Y-143478005D01*
X159210535Y-143325120D01*
X159405120Y-143130535D01*
X159558005Y-142901727D01*
X159590000Y-142824485D01*
X159621995Y-142901727D01*
X159774880Y-143130535D01*
X159969465Y-143325120D01*
X160198273Y-143478005D01*
X160452510Y-143583314D01*
X160722408Y-143637000D01*
X160997592Y-143637000D01*
X161267490Y-143583314D01*
X161521727Y-143478005D01*
X161750535Y-143325120D01*
X161945120Y-143130535D01*
X162098005Y-142901727D01*
X162130000Y-142824485D01*
X162161995Y-142901727D01*
X162314880Y-143130535D01*
X162509465Y-143325120D01*
X162738273Y-143478005D01*
X162992510Y-143583314D01*
X163262408Y-143637000D01*
X163537592Y-143637000D01*
X163807490Y-143583314D01*
X164061727Y-143478005D01*
X164290535Y-143325120D01*
X164485120Y-143130535D01*
X164638005Y-142901727D01*
X164670000Y-142824485D01*
X164701995Y-142901727D01*
X164854880Y-143130535D01*
X165049465Y-143325120D01*
X165278273Y-143478005D01*
X165532510Y-143583314D01*
X165802408Y-143637000D01*
X166077592Y-143637000D01*
X166347490Y-143583314D01*
X166601727Y-143478005D01*
X166830535Y-143325120D01*
X167025120Y-143130535D01*
X167178005Y-142901727D01*
X167210000Y-142824485D01*
X167241995Y-142901727D01*
X167394880Y-143130535D01*
X167589465Y-143325120D01*
X167818273Y-143478005D01*
X168072510Y-143583314D01*
X168342408Y-143637000D01*
X168617592Y-143637000D01*
X168887490Y-143583314D01*
X169141727Y-143478005D01*
X169370535Y-143325120D01*
X169490090Y-143205565D01*
X170234040Y-143205565D01*
X170301020Y-143445656D01*
X170550048Y-143562756D01*
X170817135Y-143629023D01*
X171092017Y-143641910D01*
X171364133Y-143600922D01*
X171623023Y-143507636D01*
X171738980Y-143445656D01*
X171805960Y-143205565D01*
X171020000Y-142419605D01*
X170234040Y-143205565D01*
X169490090Y-143205565D01*
X169565120Y-143130535D01*
X169718005Y-142901727D01*
X169747692Y-142830057D01*
X169752364Y-142843023D01*
X169814344Y-142958980D01*
X170054435Y-143025960D01*
X170840395Y-142240000D01*
X171199605Y-142240000D01*
X171985565Y-143025960D01*
X172225656Y-142958980D01*
X172289485Y-142823240D01*
X172321995Y-142901727D01*
X172474880Y-143130535D01*
X172669465Y-143325120D01*
X172898273Y-143478005D01*
X173152510Y-143583314D01*
X173422408Y-143637000D01*
X173697592Y-143637000D01*
X173967490Y-143583314D01*
X174221727Y-143478005D01*
X174450535Y-143325120D01*
X174645120Y-143130535D01*
X174798005Y-142901727D01*
X174903314Y-142647490D01*
X174957000Y-142377592D01*
X174957000Y-142102408D01*
X174903314Y-141832510D01*
X174798005Y-141578273D01*
X174645120Y-141349465D01*
X174450535Y-141154880D01*
X174221727Y-141001995D01*
X173967490Y-140896686D01*
X173697592Y-140843000D01*
X173422408Y-140843000D01*
X173152510Y-140896686D01*
X172898273Y-141001995D01*
X172669465Y-141154880D01*
X172474880Y-141349465D01*
X172321995Y-141578273D01*
X172292308Y-141649943D01*
X172287636Y-141636977D01*
X172225656Y-141521020D01*
X171985565Y-141454040D01*
X171199605Y-142240000D01*
X170840395Y-142240000D01*
X170054435Y-141454040D01*
X169814344Y-141521020D01*
X169750515Y-141656760D01*
X169718005Y-141578273D01*
X169565120Y-141349465D01*
X169490090Y-141274435D01*
X170234040Y-141274435D01*
X171020000Y-142060395D01*
X171805960Y-141274435D01*
X171738980Y-141034344D01*
X171489952Y-140917244D01*
X171222865Y-140850977D01*
X170947983Y-140838090D01*
X170675867Y-140879078D01*
X170416977Y-140972364D01*
X170301020Y-141034344D01*
X170234040Y-141274435D01*
X169490090Y-141274435D01*
X169370535Y-141154880D01*
X169141727Y-141001995D01*
X168887490Y-140896686D01*
X168617592Y-140843000D01*
X168342408Y-140843000D01*
X168072510Y-140896686D01*
X167818273Y-141001995D01*
X167589465Y-141154880D01*
X167394880Y-141349465D01*
X167241995Y-141578273D01*
X167210000Y-141655515D01*
X167178005Y-141578273D01*
X167025120Y-141349465D01*
X166830535Y-141154880D01*
X166601727Y-141001995D01*
X166347490Y-140896686D01*
X166077592Y-140843000D01*
X165802408Y-140843000D01*
X165532510Y-140896686D01*
X165278273Y-141001995D01*
X165049465Y-141154880D01*
X164854880Y-141349465D01*
X164701995Y-141578273D01*
X164670000Y-141655515D01*
X164638005Y-141578273D01*
X164485120Y-141349465D01*
X164290535Y-141154880D01*
X164061727Y-141001995D01*
X163807490Y-140896686D01*
X163537592Y-140843000D01*
X163262408Y-140843000D01*
X162992510Y-140896686D01*
X162738273Y-141001995D01*
X162509465Y-141154880D01*
X162314880Y-141349465D01*
X162161995Y-141578273D01*
X162130000Y-141655515D01*
X162098005Y-141578273D01*
X161945120Y-141349465D01*
X161750535Y-141154880D01*
X161521727Y-141001995D01*
X161267490Y-140896686D01*
X160997592Y-140843000D01*
X160722408Y-140843000D01*
X160452510Y-140896686D01*
X160198273Y-141001995D01*
X159969465Y-141154880D01*
X159774880Y-141349465D01*
X159621995Y-141578273D01*
X159590000Y-141655515D01*
X159558005Y-141578273D01*
X159405120Y-141349465D01*
X159210535Y-141154880D01*
X158981727Y-141001995D01*
X158727490Y-140896686D01*
X158457592Y-140843000D01*
X158182408Y-140843000D01*
X157912510Y-140896686D01*
X157658273Y-141001995D01*
X157429465Y-141154880D01*
X157234880Y-141349465D01*
X157081995Y-141578273D01*
X157050000Y-141655515D01*
X157018005Y-141578273D01*
X156865120Y-141349465D01*
X156670535Y-141154880D01*
X156441727Y-141001995D01*
X156187490Y-140896686D01*
X155917592Y-140843000D01*
X155642408Y-140843000D01*
X155372510Y-140896686D01*
X155118273Y-141001995D01*
X154889465Y-141154880D01*
X154694880Y-141349465D01*
X154541995Y-141578273D01*
X154510000Y-141655515D01*
X154478005Y-141578273D01*
X154325120Y-141349465D01*
X154130535Y-141154880D01*
X153901727Y-141001995D01*
X153647490Y-140896686D01*
X153377592Y-140843000D01*
X153102408Y-140843000D01*
X152832510Y-140896686D01*
X152578273Y-141001995D01*
X152349465Y-141154880D01*
X152154880Y-141349465D01*
X152001995Y-141578273D01*
X151970000Y-141655515D01*
X151938005Y-141578273D01*
X151785120Y-141349465D01*
X151590535Y-141154880D01*
X151361727Y-141001995D01*
X151107490Y-140896686D01*
X150837592Y-140843000D01*
X150562408Y-140843000D01*
X150292510Y-140896686D01*
X150038273Y-141001995D01*
X149809465Y-141154880D01*
X149614880Y-141349465D01*
X149461995Y-141578273D01*
X149430000Y-141655515D01*
X149398005Y-141578273D01*
X149245120Y-141349465D01*
X149050535Y-141154880D01*
X148821727Y-141001995D01*
X148567490Y-140896686D01*
X148297592Y-140843000D01*
X148022408Y-140843000D01*
X147752510Y-140896686D01*
X147498273Y-141001995D01*
X147269465Y-141154880D01*
X147074880Y-141349465D01*
X146921995Y-141578273D01*
X146890000Y-141655515D01*
X146858005Y-141578273D01*
X146705120Y-141349465D01*
X146510535Y-141154880D01*
X146281727Y-141001995D01*
X146027490Y-140896686D01*
X145757592Y-140843000D01*
X145482408Y-140843000D01*
X145212510Y-140896686D01*
X144958273Y-141001995D01*
X144729465Y-141154880D01*
X144534880Y-141349465D01*
X144381995Y-141578273D01*
X144350000Y-141655515D01*
X144318005Y-141578273D01*
X144165120Y-141349465D01*
X143970535Y-141154880D01*
X143741727Y-141001995D01*
X143487490Y-140896686D01*
X143217592Y-140843000D01*
X142942408Y-140843000D01*
X142672510Y-140896686D01*
X142418273Y-141001995D01*
X142387001Y-141022890D01*
X142387001Y-128217110D01*
X142418273Y-128238005D01*
X142672510Y-128343314D01*
X142942408Y-128397000D01*
X143217592Y-128397000D01*
X143487490Y-128343314D01*
X143741727Y-128238005D01*
X143970535Y-128085120D01*
X144165120Y-127890535D01*
X144318005Y-127661727D01*
X144350000Y-127584485D01*
X144381995Y-127661727D01*
X144534880Y-127890535D01*
X144729465Y-128085120D01*
X144958273Y-128238005D01*
X145212510Y-128343314D01*
X145482408Y-128397000D01*
X145757592Y-128397000D01*
X146027490Y-128343314D01*
X146281727Y-128238005D01*
X146510535Y-128085120D01*
X146705120Y-127890535D01*
X146858005Y-127661727D01*
X146890000Y-127584485D01*
X146921995Y-127661727D01*
X147074880Y-127890535D01*
X147269465Y-128085120D01*
X147498273Y-128238005D01*
X147752510Y-128343314D01*
X148022408Y-128397000D01*
X148297592Y-128397000D01*
X148567490Y-128343314D01*
X148821727Y-128238005D01*
X149050535Y-128085120D01*
X149245120Y-127890535D01*
X149398005Y-127661727D01*
X149430000Y-127584485D01*
X149461995Y-127661727D01*
X149614880Y-127890535D01*
X149809465Y-128085120D01*
X150038273Y-128238005D01*
X150292510Y-128343314D01*
X150562408Y-128397000D01*
X150837592Y-128397000D01*
X151107490Y-128343314D01*
X151361727Y-128238005D01*
X151590535Y-128085120D01*
X151785120Y-127890535D01*
X151938005Y-127661727D01*
X151970000Y-127584485D01*
X152001995Y-127661727D01*
X152154880Y-127890535D01*
X152349465Y-128085120D01*
X152578273Y-128238005D01*
X152832510Y-128343314D01*
X153102408Y-128397000D01*
X153377592Y-128397000D01*
X153647490Y-128343314D01*
X153901727Y-128238005D01*
X154130535Y-128085120D01*
X154325120Y-127890535D01*
X154478005Y-127661727D01*
X154510000Y-127584485D01*
X154541995Y-127661727D01*
X154694880Y-127890535D01*
X154889465Y-128085120D01*
X155118273Y-128238005D01*
X155372510Y-128343314D01*
X155642408Y-128397000D01*
X155917592Y-128397000D01*
X156187490Y-128343314D01*
X156441727Y-128238005D01*
X156670535Y-128085120D01*
X156865120Y-127890535D01*
X157018005Y-127661727D01*
X157050000Y-127584485D01*
X157081995Y-127661727D01*
X157234880Y-127890535D01*
X157429465Y-128085120D01*
X157658273Y-128238005D01*
X157912510Y-128343314D01*
X158182408Y-128397000D01*
X158457592Y-128397000D01*
X158727490Y-128343314D01*
X158981727Y-128238005D01*
X159210535Y-128085120D01*
X159405120Y-127890535D01*
X159558005Y-127661727D01*
X159590000Y-127584485D01*
X159621995Y-127661727D01*
X159774880Y-127890535D01*
X159969465Y-128085120D01*
X160198273Y-128238005D01*
X160452510Y-128343314D01*
X160722408Y-128397000D01*
X160997592Y-128397000D01*
X161267490Y-128343314D01*
X161521727Y-128238005D01*
X161750535Y-128085120D01*
X161945120Y-127890535D01*
X162098005Y-127661727D01*
X162130000Y-127584485D01*
X162161995Y-127661727D01*
X162314880Y-127890535D01*
X162509465Y-128085120D01*
X162738273Y-128238005D01*
X162992510Y-128343314D01*
X163262408Y-128397000D01*
X163537592Y-128397000D01*
X163807490Y-128343314D01*
X164061727Y-128238005D01*
X164290535Y-128085120D01*
X164485120Y-127890535D01*
X164638005Y-127661727D01*
X164670000Y-127584485D01*
X164701995Y-127661727D01*
X164854880Y-127890535D01*
X165049465Y-128085120D01*
X165278273Y-128238005D01*
X165532510Y-128343314D01*
X165802408Y-128397000D01*
X166077592Y-128397000D01*
X166347490Y-128343314D01*
X166601727Y-128238005D01*
X166830535Y-128085120D01*
X167025120Y-127890535D01*
X167178005Y-127661727D01*
X167210000Y-127584485D01*
X167241995Y-127661727D01*
X167394880Y-127890535D01*
X167589465Y-128085120D01*
X167818273Y-128238005D01*
X168072510Y-128343314D01*
X168342408Y-128397000D01*
X168617592Y-128397000D01*
X168887490Y-128343314D01*
X169141727Y-128238005D01*
X169370535Y-128085120D01*
X169565120Y-127890535D01*
X169718005Y-127661727D01*
X169750000Y-127584485D01*
X169781995Y-127661727D01*
X169934880Y-127890535D01*
X170129465Y-128085120D01*
X170358273Y-128238005D01*
X170612510Y-128343314D01*
X170882408Y-128397000D01*
X171157592Y-128397000D01*
X171427490Y-128343314D01*
X171681727Y-128238005D01*
X171910535Y-128085120D01*
X172030090Y-127965565D01*
X172774040Y-127965565D01*
X172841020Y-128205656D01*
X173090048Y-128322756D01*
X173357135Y-128389023D01*
X173632017Y-128401910D01*
X173904133Y-128360922D01*
X174163023Y-128267636D01*
X174278980Y-128205656D01*
X174345960Y-127965565D01*
X173560000Y-127179605D01*
X172774040Y-127965565D01*
X172030090Y-127965565D01*
X172105120Y-127890535D01*
X172258005Y-127661727D01*
X172287692Y-127590057D01*
X172292364Y-127603023D01*
X172354344Y-127718980D01*
X172594435Y-127785960D01*
X173380395Y-127000000D01*
X173739605Y-127000000D01*
X174525565Y-127785960D01*
X174765656Y-127718980D01*
X174882756Y-127469952D01*
X174949023Y-127202865D01*
X174961910Y-126927983D01*
X174920922Y-126655867D01*
X174827636Y-126396977D01*
X174765656Y-126281020D01*
X174525565Y-126214040D01*
X173739605Y-127000000D01*
X173380395Y-127000000D01*
X172594435Y-126214040D01*
X172354344Y-126281020D01*
X172290515Y-126416760D01*
X172258005Y-126338273D01*
X172105120Y-126109465D01*
X172030090Y-126034435D01*
X172774040Y-126034435D01*
X173560000Y-126820395D01*
X174345960Y-126034435D01*
X174278980Y-125794344D01*
X174029952Y-125677244D01*
X173762865Y-125610977D01*
X173487983Y-125598090D01*
X173215867Y-125639078D01*
X172956977Y-125732364D01*
X172841020Y-125794344D01*
X172774040Y-126034435D01*
X172030090Y-126034435D01*
X171910535Y-125914880D01*
X171681727Y-125761995D01*
X171427490Y-125656686D01*
X171157592Y-125603000D01*
X170882408Y-125603000D01*
X170612510Y-125656686D01*
X170358273Y-125761995D01*
X170129465Y-125914880D01*
X169934880Y-126109465D01*
X169781995Y-126338273D01*
X169750000Y-126415515D01*
X169718005Y-126338273D01*
X169565120Y-126109465D01*
X169370535Y-125914880D01*
X169141727Y-125761995D01*
X168887490Y-125656686D01*
X168617592Y-125603000D01*
X168342408Y-125603000D01*
X168072510Y-125656686D01*
X167818273Y-125761995D01*
X167589465Y-125914880D01*
X167394880Y-126109465D01*
X167241995Y-126338273D01*
X167210000Y-126415515D01*
X167178005Y-126338273D01*
X167025120Y-126109465D01*
X166830535Y-125914880D01*
X166601727Y-125761995D01*
X166347490Y-125656686D01*
X166077592Y-125603000D01*
X165802408Y-125603000D01*
X165532510Y-125656686D01*
X165278273Y-125761995D01*
X165049465Y-125914880D01*
X164854880Y-126109465D01*
X164701995Y-126338273D01*
X164670000Y-126415515D01*
X164638005Y-126338273D01*
X164485120Y-126109465D01*
X164290535Y-125914880D01*
X164061727Y-125761995D01*
X163807490Y-125656686D01*
X163537592Y-125603000D01*
X163262408Y-125603000D01*
X162992510Y-125656686D01*
X162738273Y-125761995D01*
X162509465Y-125914880D01*
X162314880Y-126109465D01*
X162161995Y-126338273D01*
X162130000Y-126415515D01*
X162098005Y-126338273D01*
X161945120Y-126109465D01*
X161750535Y-125914880D01*
X161521727Y-125761995D01*
X161267490Y-125656686D01*
X160997592Y-125603000D01*
X160722408Y-125603000D01*
X160452510Y-125656686D01*
X160198273Y-125761995D01*
X159969465Y-125914880D01*
X159774880Y-126109465D01*
X159621995Y-126338273D01*
X159590000Y-126415515D01*
X159558005Y-126338273D01*
X159405120Y-126109465D01*
X159210535Y-125914880D01*
X158981727Y-125761995D01*
X158727490Y-125656686D01*
X158457592Y-125603000D01*
X158182408Y-125603000D01*
X157912510Y-125656686D01*
X157658273Y-125761995D01*
X157429465Y-125914880D01*
X157234880Y-126109465D01*
X157081995Y-126338273D01*
X157050000Y-126415515D01*
X157018005Y-126338273D01*
X156865120Y-126109465D01*
X156670535Y-125914880D01*
X156441727Y-125761995D01*
X156187490Y-125656686D01*
X155917592Y-125603000D01*
X155642408Y-125603000D01*
X155372510Y-125656686D01*
X155118273Y-125761995D01*
X154889465Y-125914880D01*
X154694880Y-126109465D01*
X154541995Y-126338273D01*
X154510000Y-126415515D01*
X154478005Y-126338273D01*
X154325120Y-126109465D01*
X154130535Y-125914880D01*
X153901727Y-125761995D01*
X153647490Y-125656686D01*
X153377592Y-125603000D01*
X153102408Y-125603000D01*
X152832510Y-125656686D01*
X152578273Y-125761995D01*
X152349465Y-125914880D01*
X152154880Y-126109465D01*
X152001995Y-126338273D01*
X151970000Y-126415515D01*
X151938005Y-126338273D01*
X151785120Y-126109465D01*
X151590535Y-125914880D01*
X151361727Y-125761995D01*
X151107490Y-125656686D01*
X150837592Y-125603000D01*
X150562408Y-125603000D01*
X150292510Y-125656686D01*
X150038273Y-125761995D01*
X149809465Y-125914880D01*
X149614880Y-126109465D01*
X149461995Y-126338273D01*
X149430000Y-126415515D01*
X149398005Y-126338273D01*
X149245120Y-126109465D01*
X149050535Y-125914880D01*
X148821727Y-125761995D01*
X148567490Y-125656686D01*
X148297592Y-125603000D01*
X148022408Y-125603000D01*
X147752510Y-125656686D01*
X147498273Y-125761995D01*
X147269465Y-125914880D01*
X147074880Y-126109465D01*
X146921995Y-126338273D01*
X146890000Y-126415515D01*
X146858005Y-126338273D01*
X146705120Y-126109465D01*
X146510535Y-125914880D01*
X146380000Y-125827659D01*
X146380000Y-124869801D01*
X148314802Y-122935000D01*
X169326680Y-122935000D01*
X169364002Y-122938676D01*
X169401324Y-122935000D01*
X169401335Y-122935000D01*
X169512988Y-122924003D01*
X169656249Y-122880546D01*
X169788278Y-122809974D01*
X169904003Y-122715001D01*
X169927806Y-122685998D01*
X170900817Y-121712987D01*
X171033080Y-121811641D01*
X171295901Y-121936825D01*
X171443110Y-121981476D01*
X171673000Y-121860155D01*
X171673000Y-120667000D01*
X171653000Y-120667000D01*
X171653000Y-120413000D01*
X171673000Y-120413000D01*
X171673000Y-120393000D01*
X171927000Y-120393000D01*
X171927000Y-120413000D01*
X171947000Y-120413000D01*
X171947000Y-120667000D01*
X171927000Y-120667000D01*
X171927000Y-121860155D01*
X172156890Y-121981476D01*
X172304099Y-121936825D01*
X172566920Y-121811641D01*
X172800269Y-121637588D01*
X172995178Y-121421355D01*
X173064805Y-121304466D01*
X173186525Y-121486632D01*
X173393368Y-121693475D01*
X173636589Y-121855990D01*
X173906842Y-121967932D01*
X174193740Y-122025000D01*
X174486260Y-122025000D01*
X174773158Y-121967932D01*
X175043411Y-121855990D01*
X175286632Y-121693475D01*
X175493475Y-121486632D01*
X175655990Y-121243411D01*
X175767932Y-120973158D01*
X175825000Y-120686260D01*
X175825000Y-120393740D01*
X175810539Y-120321039D01*
X179395049Y-116736529D01*
X179428816Y-116708818D01*
X179483485Y-116642205D01*
X179539409Y-116574061D01*
X179539410Y-116574060D01*
X179621588Y-116420314D01*
X179672194Y-116253491D01*
X179684999Y-116123478D01*
X179684999Y-116123468D01*
X179689280Y-116080002D01*
X179684999Y-116036535D01*
X179684999Y-115010001D01*
X180873000Y-115010001D01*
X180873000Y-168840000D01*
X93135000Y-168840000D01*
X93135000Y-163311157D01*
X95710300Y-163311157D01*
X95710300Y-163588843D01*
X95764474Y-163861194D01*
X95870740Y-164117743D01*
X96025014Y-164348631D01*
X96221369Y-164544986D01*
X96452257Y-164699260D01*
X96708806Y-164805526D01*
X96981157Y-164859700D01*
X97258843Y-164859700D01*
X97531194Y-164805526D01*
X97787743Y-164699260D01*
X98018631Y-164544986D01*
X98214986Y-164348631D01*
X98369260Y-164117743D01*
X98475526Y-163861194D01*
X98529700Y-163588843D01*
X98529700Y-163311157D01*
X98525722Y-163291157D01*
X105820300Y-163291157D01*
X105820300Y-163568843D01*
X105874474Y-163841194D01*
X105980740Y-164097743D01*
X106135014Y-164328631D01*
X106331369Y-164524986D01*
X106562257Y-164679260D01*
X106818806Y-164785526D01*
X107091157Y-164839700D01*
X107368843Y-164839700D01*
X107641194Y-164785526D01*
X107897743Y-164679260D01*
X108128631Y-164524986D01*
X108324986Y-164328631D01*
X108479260Y-164097743D01*
X108585526Y-163841194D01*
X108639700Y-163568843D01*
X108639700Y-163291157D01*
X108585526Y-163018806D01*
X108479260Y-162762257D01*
X108324986Y-162531369D01*
X108128631Y-162335014D01*
X107897743Y-162180740D01*
X107641194Y-162074474D01*
X107368843Y-162020300D01*
X107091157Y-162020300D01*
X106818806Y-162074474D01*
X106562257Y-162180740D01*
X106331369Y-162335014D01*
X106135014Y-162531369D01*
X105980740Y-162762257D01*
X105874474Y-163018806D01*
X105820300Y-163291157D01*
X98525722Y-163291157D01*
X98475526Y-163038806D01*
X98369260Y-162782257D01*
X98214986Y-162551369D01*
X98018631Y-162355014D01*
X97787743Y-162200740D01*
X97531194Y-162094474D01*
X97258843Y-162040300D01*
X96981157Y-162040300D01*
X96708806Y-162094474D01*
X96452257Y-162200740D01*
X96221369Y-162355014D01*
X96025014Y-162551369D01*
X95870740Y-162782257D01*
X95764474Y-163038806D01*
X95710300Y-163311157D01*
X93135000Y-163311157D01*
X93135000Y-155153638D01*
X93880902Y-155153638D01*
X93880902Y-155486362D01*
X93945813Y-155812692D01*
X94073141Y-156120089D01*
X94257992Y-156396739D01*
X94493263Y-156632010D01*
X94769913Y-156816861D01*
X95077310Y-156944189D01*
X95403640Y-157009100D01*
X95615040Y-157009100D01*
X95501590Y-157178890D01*
X95312035Y-157636518D01*
X95215400Y-158122334D01*
X95215400Y-158617666D01*
X95312035Y-159103482D01*
X95501590Y-159561110D01*
X95776783Y-159972964D01*
X96127036Y-160323217D01*
X96538890Y-160598410D01*
X96996518Y-160787965D01*
X97482334Y-160884600D01*
X97977666Y-160884600D01*
X98463482Y-160787965D01*
X98710903Y-160685480D01*
X98565014Y-160831369D01*
X98410740Y-161062257D01*
X98304474Y-161318806D01*
X98250300Y-161591157D01*
X98250300Y-161868843D01*
X98304474Y-162141194D01*
X98410740Y-162397743D01*
X98565014Y-162628631D01*
X98761369Y-162824986D01*
X98992257Y-162979260D01*
X99248806Y-163085526D01*
X99521157Y-163139700D01*
X99798843Y-163139700D01*
X100071194Y-163085526D01*
X100327743Y-162979260D01*
X100558631Y-162824986D01*
X100754986Y-162628631D01*
X100909260Y-162397743D01*
X101015526Y-162141194D01*
X101069700Y-161868843D01*
X101069700Y-161591157D01*
X101015526Y-161318806D01*
X100909260Y-161062257D01*
X100754986Y-160831369D01*
X100558631Y-160635014D01*
X100327743Y-160480740D01*
X100071194Y-160374474D01*
X99798843Y-160320300D01*
X99521157Y-160320300D01*
X99259409Y-160372365D01*
X99332964Y-160323217D01*
X99683217Y-159972964D01*
X99958410Y-159561110D01*
X100147965Y-159103482D01*
X100244600Y-158617666D01*
X100244600Y-158122334D01*
X106645400Y-158122334D01*
X106645400Y-158617666D01*
X106742035Y-159103482D01*
X106931590Y-159561110D01*
X107206783Y-159972964D01*
X107557036Y-160323217D01*
X107968890Y-160598410D01*
X108426518Y-160787965D01*
X108671461Y-160836687D01*
X108520740Y-161062257D01*
X108414474Y-161318806D01*
X108360300Y-161591157D01*
X108360300Y-161868843D01*
X108414474Y-162141194D01*
X108520740Y-162397743D01*
X108675014Y-162628631D01*
X108871369Y-162824986D01*
X109102257Y-162979260D01*
X109358806Y-163085526D01*
X109631157Y-163139700D01*
X109908843Y-163139700D01*
X110181194Y-163085526D01*
X110437743Y-162979260D01*
X110668631Y-162824986D01*
X110864986Y-162628631D01*
X111019260Y-162397743D01*
X111125526Y-162141194D01*
X111179700Y-161868843D01*
X111179700Y-161591157D01*
X111125526Y-161318806D01*
X111019260Y-161062257D01*
X110864986Y-160831369D01*
X110668631Y-160635014D01*
X110482479Y-160510632D01*
X110762964Y-160323217D01*
X111113217Y-159972964D01*
X111388410Y-159561110D01*
X111577965Y-159103482D01*
X111674600Y-158617666D01*
X111674600Y-158122334D01*
X111577965Y-157636518D01*
X111388410Y-157178890D01*
X111274960Y-157009100D01*
X111486360Y-157009100D01*
X111812690Y-156944189D01*
X112120087Y-156816861D01*
X112396737Y-156632010D01*
X112632008Y-156396739D01*
X112816859Y-156120089D01*
X112944187Y-155812692D01*
X113009098Y-155486362D01*
X113009098Y-155153638D01*
X112944187Y-154827308D01*
X112816859Y-154519911D01*
X112632008Y-154243261D01*
X112396737Y-154007990D01*
X112120087Y-153823139D01*
X111812690Y-153695811D01*
X111486360Y-153630900D01*
X111153636Y-153630900D01*
X110827306Y-153695811D01*
X110519909Y-153823139D01*
X110243259Y-154007990D01*
X110007988Y-154243261D01*
X109823137Y-154519911D01*
X109695809Y-154827308D01*
X109630898Y-155153638D01*
X109630898Y-155486362D01*
X109695809Y-155812692D01*
X109740960Y-155921696D01*
X109407666Y-155855400D01*
X108912334Y-155855400D01*
X108426518Y-155952035D01*
X107968890Y-156141590D01*
X107557036Y-156416783D01*
X107206783Y-156767036D01*
X106931590Y-157178890D01*
X106742035Y-157636518D01*
X106645400Y-158122334D01*
X100244600Y-158122334D01*
X100147965Y-157636518D01*
X99958410Y-157178890D01*
X99683217Y-156767036D01*
X99332964Y-156416783D01*
X98921110Y-156141590D01*
X98463482Y-155952035D01*
X97977666Y-155855400D01*
X97482334Y-155855400D01*
X97149040Y-155921696D01*
X97194191Y-155812692D01*
X97259102Y-155486362D01*
X97259102Y-155153638D01*
X97194191Y-154827308D01*
X97176181Y-154783828D01*
X97861546Y-155469193D01*
X97884562Y-155497238D01*
X97996480Y-155589087D01*
X98124167Y-155657337D01*
X98262715Y-155699365D01*
X98370695Y-155710000D01*
X98370704Y-155710000D01*
X98406799Y-155713555D01*
X98442894Y-155710000D01*
X99307095Y-155710000D01*
X99343200Y-155713556D01*
X99379305Y-155710000D01*
X99487285Y-155699365D01*
X99625833Y-155657337D01*
X99753520Y-155589087D01*
X99865438Y-155497238D01*
X99888458Y-155469188D01*
X100989193Y-154368454D01*
X101017238Y-154345438D01*
X101109087Y-154233520D01*
X101177337Y-154105833D01*
X101219365Y-153967285D01*
X101230000Y-153859305D01*
X101230000Y-153859298D01*
X101233555Y-153823201D01*
X101230000Y-153787104D01*
X101230000Y-153349446D01*
X101272943Y-153306504D01*
X101408662Y-153333500D01*
X101671338Y-153333500D01*
X101928968Y-153282254D01*
X102171649Y-153181732D01*
X102390057Y-153035797D01*
X102575797Y-152850057D01*
X102721732Y-152631649D01*
X102810000Y-152418552D01*
X102898268Y-152631649D01*
X103044203Y-152850057D01*
X103229943Y-153035797D01*
X103448351Y-153181732D01*
X103691032Y-153282254D01*
X103948662Y-153333500D01*
X104211338Y-153333500D01*
X104468968Y-153282254D01*
X104711649Y-153181732D01*
X104930057Y-153035797D01*
X105115797Y-152850057D01*
X105261732Y-152631649D01*
X105350000Y-152418552D01*
X105438268Y-152631649D01*
X105584203Y-152850057D01*
X105769943Y-153035797D01*
X105988351Y-153181732D01*
X106231032Y-153282254D01*
X106488662Y-153333500D01*
X106751338Y-153333500D01*
X107008968Y-153282254D01*
X107251649Y-153181732D01*
X107470057Y-153035797D01*
X107655797Y-152850057D01*
X107801732Y-152631649D01*
X107902254Y-152388968D01*
X107953500Y-152131338D01*
X107953500Y-151868662D01*
X107902254Y-151611032D01*
X107801732Y-151368351D01*
X107655797Y-151149943D01*
X107470057Y-150964203D01*
X107251649Y-150818268D01*
X107008968Y-150717746D01*
X106751338Y-150666500D01*
X106697729Y-150666500D01*
X106867693Y-150496535D01*
X106895739Y-150473519D01*
X106950698Y-150406552D01*
X107039943Y-150495797D01*
X107258351Y-150641732D01*
X107501032Y-150742254D01*
X107758662Y-150793500D01*
X108021338Y-150793500D01*
X108278968Y-150742254D01*
X108521649Y-150641732D01*
X108740057Y-150495797D01*
X108925797Y-150310057D01*
X109071732Y-150091649D01*
X109172254Y-149848968D01*
X109223500Y-149591338D01*
X109223500Y-149328662D01*
X109172254Y-149071032D01*
X109071732Y-148828351D01*
X108925797Y-148609943D01*
X108740057Y-148424203D01*
X108567143Y-148308666D01*
X108605438Y-148277238D01*
X108628459Y-148249188D01*
X111119193Y-145758454D01*
X111147238Y-145735438D01*
X111239087Y-145623520D01*
X111307337Y-145495833D01*
X111344074Y-145374727D01*
X111349365Y-145357286D01*
X111363556Y-145213201D01*
X111360000Y-145177096D01*
X111360000Y-141907644D01*
X111589122Y-141678521D01*
X111593703Y-141673940D01*
X111597984Y-141670992D01*
X111644837Y-141622806D01*
X111666743Y-141600900D01*
X111670023Y-141596904D01*
X111673623Y-141593201D01*
X111692925Y-141568998D01*
X111735577Y-141517026D01*
X111738028Y-141512441D01*
X111765569Y-141477906D01*
X111797113Y-141443589D01*
X111820396Y-141405354D01*
X111860186Y-141438013D01*
X111864792Y-141440475D01*
X111899345Y-141468030D01*
X111933656Y-141499569D01*
X111986681Y-141531859D01*
X112038785Y-141565626D01*
X112082086Y-141582854D01*
X112159196Y-141619988D01*
X112199669Y-141643104D01*
X112258554Y-141662786D01*
X112316849Y-141684107D01*
X112362903Y-141691269D01*
X112446343Y-141710314D01*
X112490946Y-141723844D01*
X112552745Y-141729931D01*
X112614318Y-141737744D01*
X112660799Y-141734479D01*
X112746406Y-141734479D01*
X112792887Y-141737744D01*
X112854456Y-141729931D01*
X112916260Y-141723844D01*
X112960866Y-141710313D01*
X113044302Y-141691269D01*
X113090352Y-141684108D01*
X113148657Y-141662784D01*
X113207537Y-141643104D01*
X113248006Y-141619991D01*
X113325123Y-141582853D01*
X113368428Y-141565623D01*
X113420524Y-141531860D01*
X113473546Y-141499573D01*
X113507858Y-141468033D01*
X113542407Y-141440482D01*
X113546997Y-141438028D01*
X113598937Y-141395400D01*
X113623161Y-141376082D01*
X113626873Y-141372472D01*
X113630869Y-141369193D01*
X113652750Y-141347311D01*
X113662903Y-141337439D01*
X113666276Y-141335116D01*
X113683335Y-141317572D01*
X113700952Y-141300442D01*
X113703284Y-141297055D01*
X113713157Y-141286902D01*
X113735045Y-141265013D01*
X113738315Y-141261029D01*
X113741916Y-141257325D01*
X113761252Y-141233079D01*
X113803876Y-141181139D01*
X113806322Y-141176562D01*
X113833863Y-141142028D01*
X113865404Y-141107714D01*
X113897690Y-141054694D01*
X113931455Y-141002594D01*
X113948687Y-140959283D01*
X113985817Y-140882181D01*
X114008935Y-140841704D01*
X114028624Y-140782800D01*
X114049939Y-140724519D01*
X114057100Y-140678471D01*
X114076146Y-140595026D01*
X114089675Y-140550426D01*
X114095761Y-140488631D01*
X114103575Y-140427055D01*
X114100310Y-140380574D01*
X114100310Y-140294966D01*
X114103575Y-140248485D01*
X114095762Y-140186912D01*
X114089675Y-140125113D01*
X114076145Y-140080510D01*
X114057100Y-139997069D01*
X114049939Y-139951021D01*
X114028624Y-139892740D01*
X114008935Y-139833836D01*
X113985817Y-139793359D01*
X113948684Y-139716250D01*
X113931451Y-139672939D01*
X113897696Y-139620857D01*
X113865404Y-139567826D01*
X113833854Y-139533503D01*
X113806327Y-139498986D01*
X113803889Y-139494424D01*
X113771182Y-139454566D01*
X113809425Y-139431278D01*
X113843737Y-139399738D01*
X113878273Y-139372197D01*
X113882860Y-139369745D01*
X113934823Y-139327100D01*
X113959032Y-139307794D01*
X113962738Y-139304191D01*
X113966733Y-139300912D01*
X113988627Y-139279018D01*
X114036824Y-139232155D01*
X114039774Y-139227871D01*
X114307646Y-138960000D01*
X129357095Y-138960000D01*
X129393200Y-138963556D01*
X129429305Y-138960000D01*
X129537285Y-138949365D01*
X129675833Y-138907337D01*
X129803520Y-138839087D01*
X129915438Y-138747238D01*
X129938459Y-138719188D01*
X132449193Y-136208454D01*
X132477238Y-136185438D01*
X132569087Y-136073520D01*
X132637337Y-135945833D01*
X132679365Y-135807285D01*
X132690000Y-135699305D01*
X132690000Y-135699296D01*
X132693555Y-135663201D01*
X132690000Y-135627106D01*
X132690000Y-130572905D01*
X132693556Y-130536800D01*
X132679365Y-130392715D01*
X132637337Y-130254166D01*
X132569087Y-130126480D01*
X132500253Y-130042606D01*
X132500250Y-130042603D01*
X132477237Y-130014562D01*
X132449197Y-129991550D01*
X131763458Y-129305812D01*
X131740438Y-129277762D01*
X131628520Y-129185913D01*
X131500833Y-129117663D01*
X131362285Y-129075635D01*
X131302162Y-129069713D01*
X131013259Y-128780811D01*
X130990239Y-128752761D01*
X130878321Y-128660912D01*
X130750634Y-128592662D01*
X130612086Y-128550634D01*
X130504106Y-128539999D01*
X130468001Y-128536443D01*
X130431896Y-128539999D01*
X129568104Y-128539999D01*
X129531999Y-128536443D01*
X129387914Y-128550634D01*
X129249365Y-128592662D01*
X129121679Y-128660912D01*
X129009761Y-128752761D01*
X128986745Y-128780807D01*
X128813969Y-128953583D01*
X128799482Y-128949188D01*
X128675000Y-128936928D01*
X127325000Y-128936928D01*
X127200518Y-128949188D01*
X127080820Y-128985498D01*
X126970506Y-129044463D01*
X126873815Y-129123815D01*
X126794463Y-129220506D01*
X126735498Y-129330820D01*
X126699188Y-129450518D01*
X126686928Y-129575000D01*
X126686928Y-130925000D01*
X126699188Y-131049482D01*
X126735498Y-131169180D01*
X126794463Y-131279494D01*
X126873815Y-131376185D01*
X126960697Y-131447487D01*
X126839093Y-131629482D01*
X126740342Y-131867887D01*
X126690000Y-132120976D01*
X126690000Y-132379024D01*
X126740342Y-132632113D01*
X126839093Y-132870518D01*
X126982456Y-133085077D01*
X127147379Y-133250000D01*
X126982456Y-133414923D01*
X126915587Y-133515000D01*
X109467905Y-133515000D01*
X109431800Y-133511444D01*
X109395695Y-133515000D01*
X109287715Y-133525635D01*
X109149167Y-133567663D01*
X109021480Y-133635913D01*
X108909562Y-133727762D01*
X108886546Y-133755807D01*
X97844963Y-144797391D01*
X97844957Y-144797396D01*
X97560695Y-145081660D01*
X97557340Y-145079866D01*
X97522796Y-145052319D01*
X97488485Y-145020780D01*
X97435463Y-144988493D01*
X97383363Y-144954728D01*
X97340062Y-144937500D01*
X97262946Y-144900363D01*
X97222482Y-144877252D01*
X97163603Y-144857571D01*
X97105291Y-144836245D01*
X97059244Y-144829084D01*
X96975809Y-144810040D01*
X96931200Y-144796508D01*
X96869403Y-144790422D01*
X96807833Y-144782608D01*
X96761348Y-144785873D01*
X96675743Y-144785873D01*
X96629252Y-144782608D01*
X96567678Y-144790422D01*
X96505886Y-144796508D01*
X96461279Y-144810039D01*
X96377842Y-144829084D01*
X96331795Y-144836245D01*
X96273501Y-144857565D01*
X96214604Y-144877252D01*
X96174132Y-144900367D01*
X96097027Y-144937499D01*
X96053723Y-144954728D01*
X96001630Y-144988488D01*
X95948600Y-145020780D01*
X95914285Y-145052323D01*
X95879751Y-145079862D01*
X95875168Y-145082312D01*
X95823226Y-145124940D01*
X95798991Y-145144266D01*
X95795283Y-145147871D01*
X95791294Y-145151145D01*
X95769420Y-145173019D01*
X95759252Y-145182906D01*
X95755869Y-145185235D01*
X95738773Y-145202817D01*
X95721199Y-145219905D01*
X95718871Y-145223286D01*
X95709002Y-145233436D01*
X95687116Y-145255321D01*
X95683837Y-145259317D01*
X95680230Y-145263026D01*
X95660917Y-145287243D01*
X95618281Y-145339194D01*
X95615828Y-145343783D01*
X95588281Y-145378325D01*
X95556742Y-145412637D01*
X95524460Y-145465650D01*
X95490691Y-145517756D01*
X95473460Y-145561064D01*
X95436324Y-145638177D01*
X95413211Y-145678646D01*
X95393531Y-145737526D01*
X95372207Y-145795831D01*
X95365046Y-145841881D01*
X95346001Y-145925322D01*
X95332470Y-145969929D01*
X95326385Y-146031721D01*
X95318571Y-146093296D01*
X95321837Y-146139786D01*
X95321837Y-146225375D01*
X95318572Y-146271862D01*
X95326389Y-146333464D01*
X95332474Y-146395240D01*
X95346000Y-146439829D01*
X95365047Y-146523277D01*
X95372208Y-146569327D01*
X95393532Y-146627632D01*
X95413212Y-146686512D01*
X95436325Y-146726981D01*
X95473460Y-146804093D01*
X95490689Y-146847396D01*
X95524456Y-146899500D01*
X95556743Y-146952521D01*
X95588281Y-146986831D01*
X95615828Y-147021375D01*
X95618279Y-147025960D01*
X95636657Y-147048354D01*
X95596476Y-147072822D01*
X95562171Y-147104356D01*
X95527627Y-147131904D01*
X95523042Y-147134354D01*
X95471083Y-147176996D01*
X95446868Y-147196306D01*
X95443163Y-147199908D01*
X95439168Y-147203187D01*
X95417268Y-147225086D01*
X95369076Y-147271945D01*
X95366127Y-147276227D01*
X95280805Y-147361548D01*
X95252763Y-147384562D01*
X95229752Y-147412601D01*
X95229748Y-147412605D01*
X95191148Y-147459640D01*
X95160914Y-147496480D01*
X95092664Y-147624167D01*
X95090619Y-147630909D01*
X95050636Y-147762713D01*
X95036444Y-147906798D01*
X95040001Y-147942913D01*
X95040000Y-152307095D01*
X95036444Y-152343200D01*
X95040000Y-152379304D01*
X95050635Y-152487284D01*
X95092663Y-152625832D01*
X95160913Y-152753519D01*
X95252762Y-152865437D01*
X95280808Y-152888454D01*
X96106175Y-153713821D01*
X96062694Y-153695811D01*
X95736364Y-153630900D01*
X95403640Y-153630900D01*
X95077310Y-153695811D01*
X94769913Y-153823139D01*
X94493263Y-154007990D01*
X94257992Y-154243261D01*
X94073141Y-154519911D01*
X93945813Y-154827308D01*
X93880902Y-155153638D01*
X93135000Y-155153638D01*
X93135000Y-98410000D01*
X122065000Y-98410000D01*
X122065001Y-102216343D01*
M02*
