G04 #@! TF.GenerationSoftware,KiCad,Pcbnew,(5.1.6-0-10_14)*
G04 #@! TF.CreationDate,2020-09-02T00:25:13+09:00*
G04 #@! TF.ProjectId,teabiscuits_compute,74656162-6973-4637-9569-74735f636f6d,rev?*
G04 #@! TF.SameCoordinates,Original*
G04 #@! TF.FileFunction,Paste,Top*
G04 #@! TF.FilePolarity,Positive*
%FSLAX46Y46*%
G04 Gerber Fmt 4.6, Leading zero omitted, Abs format (unit mm)*
G04 Created by KiCad (PCBNEW (5.1.6-0-10_14)) date 2020-09-02 00:25:13*
%MOMM*%
%LPD*%
G01*
G04 APERTURE LIST*
%ADD10R,1.100000X2.100000*%
%ADD11C,0.100000*%
G04 APERTURE END LIST*
G36*
G01*
X105281250Y-106175000D02*
X104368750Y-106175000D01*
G75*
G02*
X104125000Y-105931250I0J243750D01*
G01*
X104125000Y-105443750D01*
G75*
G02*
X104368750Y-105200000I243750J0D01*
G01*
X105281250Y-105200000D01*
G75*
G02*
X105525000Y-105443750I0J-243750D01*
G01*
X105525000Y-105931250D01*
G75*
G02*
X105281250Y-106175000I-243750J0D01*
G01*
G37*
G36*
G01*
X105281250Y-108050000D02*
X104368750Y-108050000D01*
G75*
G02*
X104125000Y-107806250I0J243750D01*
G01*
X104125000Y-107318750D01*
G75*
G02*
X104368750Y-107075000I243750J0D01*
G01*
X105281250Y-107075000D01*
G75*
G02*
X105525000Y-107318750I0J-243750D01*
G01*
X105525000Y-107806250D01*
G75*
G02*
X105281250Y-108050000I-243750J0D01*
G01*
G37*
G36*
G01*
X98325000Y-109130000D02*
X98325000Y-109430000D01*
G75*
G02*
X98175000Y-109580000I-150000J0D01*
G01*
X96525000Y-109580000D01*
G75*
G02*
X96375000Y-109430000I0J150000D01*
G01*
X96375000Y-109130000D01*
G75*
G02*
X96525000Y-108980000I150000J0D01*
G01*
X98175000Y-108980000D01*
G75*
G02*
X98325000Y-109130000I0J-150000D01*
G01*
G37*
G36*
G01*
X98325000Y-107860000D02*
X98325000Y-108160000D01*
G75*
G02*
X98175000Y-108310000I-150000J0D01*
G01*
X96525000Y-108310000D01*
G75*
G02*
X96375000Y-108160000I0J150000D01*
G01*
X96375000Y-107860000D01*
G75*
G02*
X96525000Y-107710000I150000J0D01*
G01*
X98175000Y-107710000D01*
G75*
G02*
X98325000Y-107860000I0J-150000D01*
G01*
G37*
G36*
G01*
X98325000Y-106590000D02*
X98325000Y-106890000D01*
G75*
G02*
X98175000Y-107040000I-150000J0D01*
G01*
X96525000Y-107040000D01*
G75*
G02*
X96375000Y-106890000I0J150000D01*
G01*
X96375000Y-106590000D01*
G75*
G02*
X96525000Y-106440000I150000J0D01*
G01*
X98175000Y-106440000D01*
G75*
G02*
X98325000Y-106590000I0J-150000D01*
G01*
G37*
G36*
G01*
X98325000Y-105320000D02*
X98325000Y-105620000D01*
G75*
G02*
X98175000Y-105770000I-150000J0D01*
G01*
X96525000Y-105770000D01*
G75*
G02*
X96375000Y-105620000I0J150000D01*
G01*
X96375000Y-105320000D01*
G75*
G02*
X96525000Y-105170000I150000J0D01*
G01*
X98175000Y-105170000D01*
G75*
G02*
X98325000Y-105320000I0J-150000D01*
G01*
G37*
G36*
G01*
X103275000Y-105320000D02*
X103275000Y-105620000D01*
G75*
G02*
X103125000Y-105770000I-150000J0D01*
G01*
X101475000Y-105770000D01*
G75*
G02*
X101325000Y-105620000I0J150000D01*
G01*
X101325000Y-105320000D01*
G75*
G02*
X101475000Y-105170000I150000J0D01*
G01*
X103125000Y-105170000D01*
G75*
G02*
X103275000Y-105320000I0J-150000D01*
G01*
G37*
G36*
G01*
X103275000Y-106590000D02*
X103275000Y-106890000D01*
G75*
G02*
X103125000Y-107040000I-150000J0D01*
G01*
X101475000Y-107040000D01*
G75*
G02*
X101325000Y-106890000I0J150000D01*
G01*
X101325000Y-106590000D01*
G75*
G02*
X101475000Y-106440000I150000J0D01*
G01*
X103125000Y-106440000D01*
G75*
G02*
X103275000Y-106590000I0J-150000D01*
G01*
G37*
G36*
G01*
X103275000Y-107860000D02*
X103275000Y-108160000D01*
G75*
G02*
X103125000Y-108310000I-150000J0D01*
G01*
X101475000Y-108310000D01*
G75*
G02*
X101325000Y-108160000I0J150000D01*
G01*
X101325000Y-107860000D01*
G75*
G02*
X101475000Y-107710000I150000J0D01*
G01*
X103125000Y-107710000D01*
G75*
G02*
X103275000Y-107860000I0J-150000D01*
G01*
G37*
G36*
G01*
X103275000Y-109130000D02*
X103275000Y-109430000D01*
G75*
G02*
X103125000Y-109580000I-150000J0D01*
G01*
X101475000Y-109580000D01*
G75*
G02*
X101325000Y-109430000I0J150000D01*
G01*
X101325000Y-109130000D01*
G75*
G02*
X101475000Y-108980000I150000J0D01*
G01*
X103125000Y-108980000D01*
G75*
G02*
X103275000Y-109130000I0J-150000D01*
G01*
G37*
G36*
G01*
X94368750Y-108387500D02*
X95281250Y-108387500D01*
G75*
G02*
X95525000Y-108631250I0J-243750D01*
G01*
X95525000Y-109118750D01*
G75*
G02*
X95281250Y-109362500I-243750J0D01*
G01*
X94368750Y-109362500D01*
G75*
G02*
X94125000Y-109118750I0J243750D01*
G01*
X94125000Y-108631250D01*
G75*
G02*
X94368750Y-108387500I243750J0D01*
G01*
G37*
G36*
G01*
X94368750Y-106512500D02*
X95281250Y-106512500D01*
G75*
G02*
X95525000Y-106756250I0J-243750D01*
G01*
X95525000Y-107243750D01*
G75*
G02*
X95281250Y-107487500I-243750J0D01*
G01*
X94368750Y-107487500D01*
G75*
G02*
X94125000Y-107243750I0J243750D01*
G01*
X94125000Y-106756250D01*
G75*
G02*
X94368750Y-106512500I243750J0D01*
G01*
G37*
G36*
G01*
X157237500Y-116493750D02*
X157237500Y-117406250D01*
G75*
G02*
X156993750Y-117650000I-243750J0D01*
G01*
X156506250Y-117650000D01*
G75*
G02*
X156262500Y-117406250I0J243750D01*
G01*
X156262500Y-116493750D01*
G75*
G02*
X156506250Y-116250000I243750J0D01*
G01*
X156993750Y-116250000D01*
G75*
G02*
X157237500Y-116493750I0J-243750D01*
G01*
G37*
G36*
G01*
X155362500Y-116493750D02*
X155362500Y-117406250D01*
G75*
G02*
X155118750Y-117650000I-243750J0D01*
G01*
X154631250Y-117650000D01*
G75*
G02*
X154387500Y-117406250I0J243750D01*
G01*
X154387500Y-116493750D01*
G75*
G02*
X154631250Y-116250000I243750J0D01*
G01*
X155118750Y-116250000D01*
G75*
G02*
X155362500Y-116493750I0J-243750D01*
G01*
G37*
G36*
G01*
X157987500Y-117406250D02*
X157987500Y-116493750D01*
G75*
G02*
X158231250Y-116250000I243750J0D01*
G01*
X158718750Y-116250000D01*
G75*
G02*
X158962500Y-116493750I0J-243750D01*
G01*
X158962500Y-117406250D01*
G75*
G02*
X158718750Y-117650000I-243750J0D01*
G01*
X158231250Y-117650000D01*
G75*
G02*
X157987500Y-117406250I0J243750D01*
G01*
G37*
G36*
G01*
X159862500Y-117406250D02*
X159862500Y-116493750D01*
G75*
G02*
X160106250Y-116250000I243750J0D01*
G01*
X160593750Y-116250000D01*
G75*
G02*
X160837500Y-116493750I0J-243750D01*
G01*
X160837500Y-117406250D01*
G75*
G02*
X160593750Y-117650000I-243750J0D01*
G01*
X160106250Y-117650000D01*
G75*
G02*
X159862500Y-117406250I0J243750D01*
G01*
G37*
G36*
G01*
X151687500Y-106743750D02*
X151687500Y-107656250D01*
G75*
G02*
X151443750Y-107900000I-243750J0D01*
G01*
X150956250Y-107900000D01*
G75*
G02*
X150712500Y-107656250I0J243750D01*
G01*
X150712500Y-106743750D01*
G75*
G02*
X150956250Y-106500000I243750J0D01*
G01*
X151443750Y-106500000D01*
G75*
G02*
X151687500Y-106743750I0J-243750D01*
G01*
G37*
G36*
G01*
X153562500Y-106743750D02*
X153562500Y-107656250D01*
G75*
G02*
X153318750Y-107900000I-243750J0D01*
G01*
X152831250Y-107900000D01*
G75*
G02*
X152587500Y-107656250I0J243750D01*
G01*
X152587500Y-106743750D01*
G75*
G02*
X152831250Y-106500000I243750J0D01*
G01*
X153318750Y-106500000D01*
G75*
G02*
X153562500Y-106743750I0J-243750D01*
G01*
G37*
G36*
G01*
X120018750Y-109962500D02*
X120931250Y-109962500D01*
G75*
G02*
X121175000Y-110206250I0J-243750D01*
G01*
X121175000Y-110693750D01*
G75*
G02*
X120931250Y-110937500I-243750J0D01*
G01*
X120018750Y-110937500D01*
G75*
G02*
X119775000Y-110693750I0J243750D01*
G01*
X119775000Y-110206250D01*
G75*
G02*
X120018750Y-109962500I243750J0D01*
G01*
G37*
G36*
G01*
X120018750Y-111837500D02*
X120931250Y-111837500D01*
G75*
G02*
X121175000Y-112081250I0J-243750D01*
G01*
X121175000Y-112568750D01*
G75*
G02*
X120931250Y-112812500I-243750J0D01*
G01*
X120018750Y-112812500D01*
G75*
G02*
X119775000Y-112568750I0J243750D01*
G01*
X119775000Y-112081250D01*
G75*
G02*
X120018750Y-111837500I243750J0D01*
G01*
G37*
G36*
G01*
X126437500Y-119081250D02*
X126437500Y-118168750D01*
G75*
G02*
X126681250Y-117925000I243750J0D01*
G01*
X127168750Y-117925000D01*
G75*
G02*
X127412500Y-118168750I0J-243750D01*
G01*
X127412500Y-119081250D01*
G75*
G02*
X127168750Y-119325000I-243750J0D01*
G01*
X126681250Y-119325000D01*
G75*
G02*
X126437500Y-119081250I0J243750D01*
G01*
G37*
G36*
G01*
X124562500Y-119081250D02*
X124562500Y-118168750D01*
G75*
G02*
X124806250Y-117925000I243750J0D01*
G01*
X125293750Y-117925000D01*
G75*
G02*
X125537500Y-118168750I0J-243750D01*
G01*
X125537500Y-119081250D01*
G75*
G02*
X125293750Y-119325000I-243750J0D01*
G01*
X124806250Y-119325000D01*
G75*
G02*
X124562500Y-119081250I0J243750D01*
G01*
G37*
G36*
G01*
X134412500Y-121218750D02*
X134412500Y-122131250D01*
G75*
G02*
X134168750Y-122375000I-243750J0D01*
G01*
X133681250Y-122375000D01*
G75*
G02*
X133437500Y-122131250I0J243750D01*
G01*
X133437500Y-121218750D01*
G75*
G02*
X133681250Y-120975000I243750J0D01*
G01*
X134168750Y-120975000D01*
G75*
G02*
X134412500Y-121218750I0J-243750D01*
G01*
G37*
G36*
G01*
X136287500Y-121218750D02*
X136287500Y-122131250D01*
G75*
G02*
X136043750Y-122375000I-243750J0D01*
G01*
X135556250Y-122375000D01*
G75*
G02*
X135312500Y-122131250I0J243750D01*
G01*
X135312500Y-121218750D01*
G75*
G02*
X135556250Y-120975000I243750J0D01*
G01*
X136043750Y-120975000D01*
G75*
G02*
X136287500Y-121218750I0J-243750D01*
G01*
G37*
G36*
G01*
X139637500Y-117106250D02*
X139637500Y-116193750D01*
G75*
G02*
X139881250Y-115950000I243750J0D01*
G01*
X140368750Y-115950000D01*
G75*
G02*
X140612500Y-116193750I0J-243750D01*
G01*
X140612500Y-117106250D01*
G75*
G02*
X140368750Y-117350000I-243750J0D01*
G01*
X139881250Y-117350000D01*
G75*
G02*
X139637500Y-117106250I0J243750D01*
G01*
G37*
G36*
G01*
X137762500Y-117106250D02*
X137762500Y-116193750D01*
G75*
G02*
X138006250Y-115950000I243750J0D01*
G01*
X138493750Y-115950000D01*
G75*
G02*
X138737500Y-116193750I0J-243750D01*
G01*
X138737500Y-117106250D01*
G75*
G02*
X138493750Y-117350000I-243750J0D01*
G01*
X138006250Y-117350000D01*
G75*
G02*
X137762500Y-117106250I0J243750D01*
G01*
G37*
G36*
G01*
X134912500Y-116168750D02*
X134912500Y-117081250D01*
G75*
G02*
X134668750Y-117325000I-243750J0D01*
G01*
X134181250Y-117325000D01*
G75*
G02*
X133937500Y-117081250I0J243750D01*
G01*
X133937500Y-116168750D01*
G75*
G02*
X134181250Y-115925000I243750J0D01*
G01*
X134668750Y-115925000D01*
G75*
G02*
X134912500Y-116168750I0J-243750D01*
G01*
G37*
G36*
G01*
X133037500Y-116168750D02*
X133037500Y-117081250D01*
G75*
G02*
X132793750Y-117325000I-243750J0D01*
G01*
X132306250Y-117325000D01*
G75*
G02*
X132062500Y-117081250I0J243750D01*
G01*
X132062500Y-116168750D01*
G75*
G02*
X132306250Y-115925000I243750J0D01*
G01*
X132793750Y-115925000D01*
G75*
G02*
X133037500Y-116168750I0J-243750D01*
G01*
G37*
G36*
G01*
X139768750Y-110412500D02*
X140681250Y-110412500D01*
G75*
G02*
X140925000Y-110656250I0J-243750D01*
G01*
X140925000Y-111143750D01*
G75*
G02*
X140681250Y-111387500I-243750J0D01*
G01*
X139768750Y-111387500D01*
G75*
G02*
X139525000Y-111143750I0J243750D01*
G01*
X139525000Y-110656250D01*
G75*
G02*
X139768750Y-110412500I243750J0D01*
G01*
G37*
G36*
G01*
X139768750Y-112287500D02*
X140681250Y-112287500D01*
G75*
G02*
X140925000Y-112531250I0J-243750D01*
G01*
X140925000Y-113018750D01*
G75*
G02*
X140681250Y-113262500I-243750J0D01*
G01*
X139768750Y-113262500D01*
G75*
G02*
X139525000Y-113018750I0J243750D01*
G01*
X139525000Y-112531250D01*
G75*
G02*
X139768750Y-112287500I243750J0D01*
G01*
G37*
D10*
X158075000Y-104200000D03*
D11*
G36*
X158895000Y-105250000D02*
G01*
X158895000Y-102250000D01*
X159825000Y-102250000D01*
X159825000Y-97750000D01*
X160375000Y-97750000D01*
X160375000Y-105250000D01*
X158895000Y-105250000D01*
G37*
G36*
X155775000Y-105250000D02*
G01*
X155775000Y-97750000D01*
X156325000Y-97750000D01*
X156325000Y-102250000D01*
X157255000Y-102250000D01*
X157255000Y-105250000D01*
X155775000Y-105250000D01*
G37*
G36*
X122200000Y-105250000D02*
G01*
X122200000Y-97750000D01*
X122750000Y-97750000D01*
X122750000Y-102250000D01*
X123680000Y-102250000D01*
X123680000Y-105250000D01*
X122200000Y-105250000D01*
G37*
G36*
X125320000Y-105250000D02*
G01*
X125320000Y-102250000D01*
X126250000Y-102250000D01*
X126250000Y-97750000D01*
X126800000Y-97750000D01*
X126800000Y-105250000D01*
X125320000Y-105250000D01*
G37*
D10*
X124500000Y-104200000D03*
G36*
G01*
X152206250Y-116812500D02*
X151293750Y-116812500D01*
G75*
G02*
X151050000Y-116568750I0J243750D01*
G01*
X151050000Y-116081250D01*
G75*
G02*
X151293750Y-115837500I243750J0D01*
G01*
X152206250Y-115837500D01*
G75*
G02*
X152450000Y-116081250I0J-243750D01*
G01*
X152450000Y-116568750D01*
G75*
G02*
X152206250Y-116812500I-243750J0D01*
G01*
G37*
G36*
G01*
X152206250Y-114937500D02*
X151293750Y-114937500D01*
G75*
G02*
X151050000Y-114693750I0J243750D01*
G01*
X151050000Y-114206250D01*
G75*
G02*
X151293750Y-113962500I243750J0D01*
G01*
X152206250Y-113962500D01*
G75*
G02*
X152450000Y-114206250I0J-243750D01*
G01*
X152450000Y-114693750D01*
G75*
G02*
X152206250Y-114937500I-243750J0D01*
G01*
G37*
G36*
G01*
X152206250Y-111512500D02*
X151293750Y-111512500D01*
G75*
G02*
X151050000Y-111268750I0J243750D01*
G01*
X151050000Y-110781250D01*
G75*
G02*
X151293750Y-110537500I243750J0D01*
G01*
X152206250Y-110537500D01*
G75*
G02*
X152450000Y-110781250I0J-243750D01*
G01*
X152450000Y-111268750D01*
G75*
G02*
X152206250Y-111512500I-243750J0D01*
G01*
G37*
G36*
G01*
X152206250Y-113387500D02*
X151293750Y-113387500D01*
G75*
G02*
X151050000Y-113143750I0J243750D01*
G01*
X151050000Y-112656250D01*
G75*
G02*
X151293750Y-112412500I243750J0D01*
G01*
X152206250Y-112412500D01*
G75*
G02*
X152450000Y-112656250I0J-243750D01*
G01*
X152450000Y-113143750D01*
G75*
G02*
X152206250Y-113387500I-243750J0D01*
G01*
G37*
G36*
G01*
X123287500Y-108706250D02*
X123287500Y-107793750D01*
G75*
G02*
X123531250Y-107550000I243750J0D01*
G01*
X124018750Y-107550000D01*
G75*
G02*
X124262500Y-107793750I0J-243750D01*
G01*
X124262500Y-108706250D01*
G75*
G02*
X124018750Y-108950000I-243750J0D01*
G01*
X123531250Y-108950000D01*
G75*
G02*
X123287500Y-108706250I0J243750D01*
G01*
G37*
G36*
G01*
X121412500Y-108706250D02*
X121412500Y-107793750D01*
G75*
G02*
X121656250Y-107550000I243750J0D01*
G01*
X122143750Y-107550000D01*
G75*
G02*
X122387500Y-107793750I0J-243750D01*
G01*
X122387500Y-108706250D01*
G75*
G02*
X122143750Y-108950000I-243750J0D01*
G01*
X121656250Y-108950000D01*
G75*
G02*
X121412500Y-108706250I0J243750D01*
G01*
G37*
G36*
G01*
X134412500Y-119218750D02*
X134412500Y-120131250D01*
G75*
G02*
X134168750Y-120375000I-243750J0D01*
G01*
X133681250Y-120375000D01*
G75*
G02*
X133437500Y-120131250I0J243750D01*
G01*
X133437500Y-119218750D01*
G75*
G02*
X133681250Y-118975000I243750J0D01*
G01*
X134168750Y-118975000D01*
G75*
G02*
X134412500Y-119218750I0J-243750D01*
G01*
G37*
G36*
G01*
X136287500Y-119218750D02*
X136287500Y-120131250D01*
G75*
G02*
X136043750Y-120375000I-243750J0D01*
G01*
X135556250Y-120375000D01*
G75*
G02*
X135312500Y-120131250I0J243750D01*
G01*
X135312500Y-119218750D01*
G75*
G02*
X135556250Y-118975000I243750J0D01*
G01*
X136043750Y-118975000D01*
G75*
G02*
X136287500Y-119218750I0J-243750D01*
G01*
G37*
G36*
G01*
X136912500Y-120131250D02*
X136912500Y-119218750D01*
G75*
G02*
X137156250Y-118975000I243750J0D01*
G01*
X137643750Y-118975000D01*
G75*
G02*
X137887500Y-119218750I0J-243750D01*
G01*
X137887500Y-120131250D01*
G75*
G02*
X137643750Y-120375000I-243750J0D01*
G01*
X137156250Y-120375000D01*
G75*
G02*
X136912500Y-120131250I0J243750D01*
G01*
G37*
G36*
G01*
X138787500Y-120131250D02*
X138787500Y-119218750D01*
G75*
G02*
X139031250Y-118975000I243750J0D01*
G01*
X139518750Y-118975000D01*
G75*
G02*
X139762500Y-119218750I0J-243750D01*
G01*
X139762500Y-120131250D01*
G75*
G02*
X139518750Y-120375000I-243750J0D01*
G01*
X139031250Y-120375000D01*
G75*
G02*
X138787500Y-120131250I0J243750D01*
G01*
G37*
G36*
G01*
X124912500Y-108706250D02*
X124912500Y-107793750D01*
G75*
G02*
X125156250Y-107550000I243750J0D01*
G01*
X125643750Y-107550000D01*
G75*
G02*
X125887500Y-107793750I0J-243750D01*
G01*
X125887500Y-108706250D01*
G75*
G02*
X125643750Y-108950000I-243750J0D01*
G01*
X125156250Y-108950000D01*
G75*
G02*
X124912500Y-108706250I0J243750D01*
G01*
G37*
G36*
G01*
X126787500Y-108706250D02*
X126787500Y-107793750D01*
G75*
G02*
X127031250Y-107550000I243750J0D01*
G01*
X127518750Y-107550000D01*
G75*
G02*
X127762500Y-107793750I0J-243750D01*
G01*
X127762500Y-108706250D01*
G75*
G02*
X127518750Y-108950000I-243750J0D01*
G01*
X127031250Y-108950000D01*
G75*
G02*
X126787500Y-108706250I0J243750D01*
G01*
G37*
G36*
G01*
X154810000Y-110475000D02*
X154510000Y-110475000D01*
G75*
G02*
X154360000Y-110325000I0J150000D01*
G01*
X154360000Y-108675000D01*
G75*
G02*
X154510000Y-108525000I150000J0D01*
G01*
X154810000Y-108525000D01*
G75*
G02*
X154960000Y-108675000I0J-150000D01*
G01*
X154960000Y-110325000D01*
G75*
G02*
X154810000Y-110475000I-150000J0D01*
G01*
G37*
G36*
G01*
X156080000Y-110475000D02*
X155780000Y-110475000D01*
G75*
G02*
X155630000Y-110325000I0J150000D01*
G01*
X155630000Y-108675000D01*
G75*
G02*
X155780000Y-108525000I150000J0D01*
G01*
X156080000Y-108525000D01*
G75*
G02*
X156230000Y-108675000I0J-150000D01*
G01*
X156230000Y-110325000D01*
G75*
G02*
X156080000Y-110475000I-150000J0D01*
G01*
G37*
G36*
G01*
X157350000Y-110475000D02*
X157050000Y-110475000D01*
G75*
G02*
X156900000Y-110325000I0J150000D01*
G01*
X156900000Y-108675000D01*
G75*
G02*
X157050000Y-108525000I150000J0D01*
G01*
X157350000Y-108525000D01*
G75*
G02*
X157500000Y-108675000I0J-150000D01*
G01*
X157500000Y-110325000D01*
G75*
G02*
X157350000Y-110475000I-150000J0D01*
G01*
G37*
G36*
G01*
X158620000Y-110475000D02*
X158320000Y-110475000D01*
G75*
G02*
X158170000Y-110325000I0J150000D01*
G01*
X158170000Y-108675000D01*
G75*
G02*
X158320000Y-108525000I150000J0D01*
G01*
X158620000Y-108525000D01*
G75*
G02*
X158770000Y-108675000I0J-150000D01*
G01*
X158770000Y-110325000D01*
G75*
G02*
X158620000Y-110475000I-150000J0D01*
G01*
G37*
G36*
G01*
X158620000Y-115425000D02*
X158320000Y-115425000D01*
G75*
G02*
X158170000Y-115275000I0J150000D01*
G01*
X158170000Y-113625000D01*
G75*
G02*
X158320000Y-113475000I150000J0D01*
G01*
X158620000Y-113475000D01*
G75*
G02*
X158770000Y-113625000I0J-150000D01*
G01*
X158770000Y-115275000D01*
G75*
G02*
X158620000Y-115425000I-150000J0D01*
G01*
G37*
G36*
G01*
X157350000Y-115425000D02*
X157050000Y-115425000D01*
G75*
G02*
X156900000Y-115275000I0J150000D01*
G01*
X156900000Y-113625000D01*
G75*
G02*
X157050000Y-113475000I150000J0D01*
G01*
X157350000Y-113475000D01*
G75*
G02*
X157500000Y-113625000I0J-150000D01*
G01*
X157500000Y-115275000D01*
G75*
G02*
X157350000Y-115425000I-150000J0D01*
G01*
G37*
G36*
G01*
X156080000Y-115425000D02*
X155780000Y-115425000D01*
G75*
G02*
X155630000Y-115275000I0J150000D01*
G01*
X155630000Y-113625000D01*
G75*
G02*
X155780000Y-113475000I150000J0D01*
G01*
X156080000Y-113475000D01*
G75*
G02*
X156230000Y-113625000I0J-150000D01*
G01*
X156230000Y-115275000D01*
G75*
G02*
X156080000Y-115425000I-150000J0D01*
G01*
G37*
G36*
G01*
X154810000Y-115425000D02*
X154510000Y-115425000D01*
G75*
G02*
X154360000Y-115275000I0J150000D01*
G01*
X154360000Y-113625000D01*
G75*
G02*
X154510000Y-113475000I150000J0D01*
G01*
X154810000Y-113475000D01*
G75*
G02*
X154960000Y-113625000I0J-150000D01*
G01*
X154960000Y-115275000D01*
G75*
G02*
X154810000Y-115425000I-150000J0D01*
G01*
G37*
G36*
G01*
X126165000Y-109975000D02*
X126465000Y-109975000D01*
G75*
G02*
X126615000Y-110125000I0J-150000D01*
G01*
X126615000Y-111775000D01*
G75*
G02*
X126465000Y-111925000I-150000J0D01*
G01*
X126165000Y-111925000D01*
G75*
G02*
X126015000Y-111775000I0J150000D01*
G01*
X126015000Y-110125000D01*
G75*
G02*
X126165000Y-109975000I150000J0D01*
G01*
G37*
G36*
G01*
X124895000Y-109975000D02*
X125195000Y-109975000D01*
G75*
G02*
X125345000Y-110125000I0J-150000D01*
G01*
X125345000Y-111775000D01*
G75*
G02*
X125195000Y-111925000I-150000J0D01*
G01*
X124895000Y-111925000D01*
G75*
G02*
X124745000Y-111775000I0J150000D01*
G01*
X124745000Y-110125000D01*
G75*
G02*
X124895000Y-109975000I150000J0D01*
G01*
G37*
G36*
G01*
X123625000Y-109975000D02*
X123925000Y-109975000D01*
G75*
G02*
X124075000Y-110125000I0J-150000D01*
G01*
X124075000Y-111775000D01*
G75*
G02*
X123925000Y-111925000I-150000J0D01*
G01*
X123625000Y-111925000D01*
G75*
G02*
X123475000Y-111775000I0J150000D01*
G01*
X123475000Y-110125000D01*
G75*
G02*
X123625000Y-109975000I150000J0D01*
G01*
G37*
G36*
G01*
X122355000Y-109975000D02*
X122655000Y-109975000D01*
G75*
G02*
X122805000Y-110125000I0J-150000D01*
G01*
X122805000Y-111775000D01*
G75*
G02*
X122655000Y-111925000I-150000J0D01*
G01*
X122355000Y-111925000D01*
G75*
G02*
X122205000Y-111775000I0J150000D01*
G01*
X122205000Y-110125000D01*
G75*
G02*
X122355000Y-109975000I150000J0D01*
G01*
G37*
G36*
G01*
X122355000Y-114925000D02*
X122655000Y-114925000D01*
G75*
G02*
X122805000Y-115075000I0J-150000D01*
G01*
X122805000Y-116725000D01*
G75*
G02*
X122655000Y-116875000I-150000J0D01*
G01*
X122355000Y-116875000D01*
G75*
G02*
X122205000Y-116725000I0J150000D01*
G01*
X122205000Y-115075000D01*
G75*
G02*
X122355000Y-114925000I150000J0D01*
G01*
G37*
G36*
G01*
X123625000Y-114925000D02*
X123925000Y-114925000D01*
G75*
G02*
X124075000Y-115075000I0J-150000D01*
G01*
X124075000Y-116725000D01*
G75*
G02*
X123925000Y-116875000I-150000J0D01*
G01*
X123625000Y-116875000D01*
G75*
G02*
X123475000Y-116725000I0J150000D01*
G01*
X123475000Y-115075000D01*
G75*
G02*
X123625000Y-114925000I150000J0D01*
G01*
G37*
G36*
G01*
X124895000Y-114925000D02*
X125195000Y-114925000D01*
G75*
G02*
X125345000Y-115075000I0J-150000D01*
G01*
X125345000Y-116725000D01*
G75*
G02*
X125195000Y-116875000I-150000J0D01*
G01*
X124895000Y-116875000D01*
G75*
G02*
X124745000Y-116725000I0J150000D01*
G01*
X124745000Y-115075000D01*
G75*
G02*
X124895000Y-114925000I150000J0D01*
G01*
G37*
G36*
G01*
X126165000Y-114925000D02*
X126465000Y-114925000D01*
G75*
G02*
X126615000Y-115075000I0J-150000D01*
G01*
X126615000Y-116725000D01*
G75*
G02*
X126465000Y-116875000I-150000J0D01*
G01*
X126165000Y-116875000D01*
G75*
G02*
X126015000Y-116725000I0J150000D01*
G01*
X126015000Y-115075000D01*
G75*
G02*
X126165000Y-114925000I150000J0D01*
G01*
G37*
G36*
G01*
X199245000Y-140450000D02*
X198945000Y-140450000D01*
G75*
G02*
X198795000Y-140300000I0J150000D01*
G01*
X198795000Y-138650000D01*
G75*
G02*
X198945000Y-138500000I150000J0D01*
G01*
X199245000Y-138500000D01*
G75*
G02*
X199395000Y-138650000I0J-150000D01*
G01*
X199395000Y-140300000D01*
G75*
G02*
X199245000Y-140450000I-150000J0D01*
G01*
G37*
G36*
G01*
X200515000Y-140450000D02*
X200215000Y-140450000D01*
G75*
G02*
X200065000Y-140300000I0J150000D01*
G01*
X200065000Y-138650000D01*
G75*
G02*
X200215000Y-138500000I150000J0D01*
G01*
X200515000Y-138500000D01*
G75*
G02*
X200665000Y-138650000I0J-150000D01*
G01*
X200665000Y-140300000D01*
G75*
G02*
X200515000Y-140450000I-150000J0D01*
G01*
G37*
G36*
G01*
X201785000Y-140450000D02*
X201485000Y-140450000D01*
G75*
G02*
X201335000Y-140300000I0J150000D01*
G01*
X201335000Y-138650000D01*
G75*
G02*
X201485000Y-138500000I150000J0D01*
G01*
X201785000Y-138500000D01*
G75*
G02*
X201935000Y-138650000I0J-150000D01*
G01*
X201935000Y-140300000D01*
G75*
G02*
X201785000Y-140450000I-150000J0D01*
G01*
G37*
G36*
G01*
X203055000Y-140450000D02*
X202755000Y-140450000D01*
G75*
G02*
X202605000Y-140300000I0J150000D01*
G01*
X202605000Y-138650000D01*
G75*
G02*
X202755000Y-138500000I150000J0D01*
G01*
X203055000Y-138500000D01*
G75*
G02*
X203205000Y-138650000I0J-150000D01*
G01*
X203205000Y-140300000D01*
G75*
G02*
X203055000Y-140450000I-150000J0D01*
G01*
G37*
G36*
G01*
X203055000Y-135500000D02*
X202755000Y-135500000D01*
G75*
G02*
X202605000Y-135350000I0J150000D01*
G01*
X202605000Y-133700000D01*
G75*
G02*
X202755000Y-133550000I150000J0D01*
G01*
X203055000Y-133550000D01*
G75*
G02*
X203205000Y-133700000I0J-150000D01*
G01*
X203205000Y-135350000D01*
G75*
G02*
X203055000Y-135500000I-150000J0D01*
G01*
G37*
G36*
G01*
X201785000Y-135500000D02*
X201485000Y-135500000D01*
G75*
G02*
X201335000Y-135350000I0J150000D01*
G01*
X201335000Y-133700000D01*
G75*
G02*
X201485000Y-133550000I150000J0D01*
G01*
X201785000Y-133550000D01*
G75*
G02*
X201935000Y-133700000I0J-150000D01*
G01*
X201935000Y-135350000D01*
G75*
G02*
X201785000Y-135500000I-150000J0D01*
G01*
G37*
G36*
G01*
X200515000Y-135500000D02*
X200215000Y-135500000D01*
G75*
G02*
X200065000Y-135350000I0J150000D01*
G01*
X200065000Y-133700000D01*
G75*
G02*
X200215000Y-133550000I150000J0D01*
G01*
X200515000Y-133550000D01*
G75*
G02*
X200665000Y-133700000I0J-150000D01*
G01*
X200665000Y-135350000D01*
G75*
G02*
X200515000Y-135500000I-150000J0D01*
G01*
G37*
G36*
G01*
X199245000Y-135500000D02*
X198945000Y-135500000D01*
G75*
G02*
X198795000Y-135350000I0J150000D01*
G01*
X198795000Y-133700000D01*
G75*
G02*
X198945000Y-133550000I150000J0D01*
G01*
X199245000Y-133550000D01*
G75*
G02*
X199395000Y-133700000I0J-150000D01*
G01*
X199395000Y-135350000D01*
G75*
G02*
X199245000Y-135500000I-150000J0D01*
G01*
G37*
G36*
G01*
X134575000Y-110225000D02*
X134275000Y-110225000D01*
G75*
G02*
X134125000Y-110075000I0J150000D01*
G01*
X134125000Y-108425000D01*
G75*
G02*
X134275000Y-108275000I150000J0D01*
G01*
X134575000Y-108275000D01*
G75*
G02*
X134725000Y-108425000I0J-150000D01*
G01*
X134725000Y-110075000D01*
G75*
G02*
X134575000Y-110225000I-150000J0D01*
G01*
G37*
G36*
G01*
X135845000Y-110225000D02*
X135545000Y-110225000D01*
G75*
G02*
X135395000Y-110075000I0J150000D01*
G01*
X135395000Y-108425000D01*
G75*
G02*
X135545000Y-108275000I150000J0D01*
G01*
X135845000Y-108275000D01*
G75*
G02*
X135995000Y-108425000I0J-150000D01*
G01*
X135995000Y-110075000D01*
G75*
G02*
X135845000Y-110225000I-150000J0D01*
G01*
G37*
G36*
G01*
X137115000Y-110225000D02*
X136815000Y-110225000D01*
G75*
G02*
X136665000Y-110075000I0J150000D01*
G01*
X136665000Y-108425000D01*
G75*
G02*
X136815000Y-108275000I150000J0D01*
G01*
X137115000Y-108275000D01*
G75*
G02*
X137265000Y-108425000I0J-150000D01*
G01*
X137265000Y-110075000D01*
G75*
G02*
X137115000Y-110225000I-150000J0D01*
G01*
G37*
G36*
G01*
X138385000Y-110225000D02*
X138085000Y-110225000D01*
G75*
G02*
X137935000Y-110075000I0J150000D01*
G01*
X137935000Y-108425000D01*
G75*
G02*
X138085000Y-108275000I150000J0D01*
G01*
X138385000Y-108275000D01*
G75*
G02*
X138535000Y-108425000I0J-150000D01*
G01*
X138535000Y-110075000D01*
G75*
G02*
X138385000Y-110225000I-150000J0D01*
G01*
G37*
G36*
G01*
X138385000Y-115175000D02*
X138085000Y-115175000D01*
G75*
G02*
X137935000Y-115025000I0J150000D01*
G01*
X137935000Y-113375000D01*
G75*
G02*
X138085000Y-113225000I150000J0D01*
G01*
X138385000Y-113225000D01*
G75*
G02*
X138535000Y-113375000I0J-150000D01*
G01*
X138535000Y-115025000D01*
G75*
G02*
X138385000Y-115175000I-150000J0D01*
G01*
G37*
G36*
G01*
X137115000Y-115175000D02*
X136815000Y-115175000D01*
G75*
G02*
X136665000Y-115025000I0J150000D01*
G01*
X136665000Y-113375000D01*
G75*
G02*
X136815000Y-113225000I150000J0D01*
G01*
X137115000Y-113225000D01*
G75*
G02*
X137265000Y-113375000I0J-150000D01*
G01*
X137265000Y-115025000D01*
G75*
G02*
X137115000Y-115175000I-150000J0D01*
G01*
G37*
G36*
G01*
X135845000Y-115175000D02*
X135545000Y-115175000D01*
G75*
G02*
X135395000Y-115025000I0J150000D01*
G01*
X135395000Y-113375000D01*
G75*
G02*
X135545000Y-113225000I150000J0D01*
G01*
X135845000Y-113225000D01*
G75*
G02*
X135995000Y-113375000I0J-150000D01*
G01*
X135995000Y-115025000D01*
G75*
G02*
X135845000Y-115175000I-150000J0D01*
G01*
G37*
G36*
G01*
X134575000Y-115175000D02*
X134275000Y-115175000D01*
G75*
G02*
X134125000Y-115025000I0J150000D01*
G01*
X134125000Y-113375000D01*
G75*
G02*
X134275000Y-113225000I150000J0D01*
G01*
X134575000Y-113225000D01*
G75*
G02*
X134725000Y-113375000I0J-150000D01*
G01*
X134725000Y-115025000D01*
G75*
G02*
X134575000Y-115175000I-150000J0D01*
G01*
G37*
X138225000Y-104200000D03*
D11*
G36*
X139045000Y-105250000D02*
G01*
X139045000Y-102250000D01*
X139975000Y-102250000D01*
X139975000Y-97750000D01*
X140525000Y-97750000D01*
X140525000Y-105250000D01*
X139045000Y-105250000D01*
G37*
G36*
X135925000Y-105250000D02*
G01*
X135925000Y-97750000D01*
X136475000Y-97750000D01*
X136475000Y-102250000D01*
X137405000Y-102250000D01*
X137405000Y-105250000D01*
X135925000Y-105250000D01*
G37*
M02*
