G04 #@! TF.GenerationSoftware,KiCad,Pcbnew,(5.1.6-0-10_14)*
G04 #@! TF.CreationDate,2020-09-02T00:25:13+09:00*
G04 #@! TF.ProjectId,teabiscuits_compute,74656162-6973-4637-9569-74735f636f6d,rev?*
G04 #@! TF.SameCoordinates,Original*
G04 #@! TF.FileFunction,Soldermask,Bot*
G04 #@! TF.FilePolarity,Negative*
%FSLAX46Y46*%
G04 Gerber Fmt 4.6, Leading zero omitted, Abs format (unit mm)*
G04 Created by KiCad (PCBNEW (5.1.6-0-10_14)) date 2020-09-02 00:25:13*
%MOMM*%
%LPD*%
G01*
G04 APERTURE LIST*
%ADD10C,0.100000*%
G04 APERTURE END LIST*
D10*
G36*
X203051000Y-169051000D02*
G01*
X198949000Y-169051000D01*
X198949000Y-166949000D01*
X203051000Y-166949000D01*
X203051000Y-169051000D01*
G37*
G36*
X97360848Y-162656031D02*
G01*
X97462830Y-162698273D01*
X97511116Y-162718274D01*
X97646353Y-162808637D01*
X97761363Y-162923647D01*
X97846458Y-163051000D01*
X97851727Y-163058886D01*
X97913969Y-163209152D01*
X97941722Y-163348674D01*
X97945700Y-163368676D01*
X97945700Y-163531324D01*
X97913969Y-163690848D01*
X97851726Y-163841116D01*
X97761363Y-163976353D01*
X97646353Y-164091363D01*
X97511116Y-164181726D01*
X97511115Y-164181727D01*
X97511114Y-164181727D01*
X97360848Y-164243969D01*
X97201326Y-164275700D01*
X97038674Y-164275700D01*
X96879152Y-164243969D01*
X96728886Y-164181727D01*
X96728885Y-164181727D01*
X96728884Y-164181726D01*
X96593647Y-164091363D01*
X96478637Y-163976353D01*
X96388274Y-163841116D01*
X96326031Y-163690848D01*
X96294300Y-163531324D01*
X96294300Y-163368676D01*
X96298279Y-163348674D01*
X96326031Y-163209152D01*
X96388273Y-163058886D01*
X96393542Y-163051000D01*
X96478637Y-162923647D01*
X96593647Y-162808637D01*
X96728884Y-162718274D01*
X96777171Y-162698273D01*
X96879152Y-162656031D01*
X97038674Y-162624300D01*
X97201326Y-162624300D01*
X97360848Y-162656031D01*
G37*
G36*
X107411872Y-162624300D02*
G01*
X107470848Y-162636031D01*
X107621116Y-162698274D01*
X107756353Y-162788637D01*
X107871363Y-162903647D01*
X107961726Y-163038884D01*
X107961727Y-163038886D01*
X108023969Y-163189152D01*
X108055700Y-163348674D01*
X108055700Y-163511326D01*
X108023969Y-163670848D01*
X107961726Y-163821116D01*
X107871363Y-163956353D01*
X107756353Y-164071363D01*
X107621116Y-164161726D01*
X107621115Y-164161727D01*
X107621114Y-164161727D01*
X107470848Y-164223969D01*
X107311326Y-164255700D01*
X107148674Y-164255700D01*
X106989152Y-164223969D01*
X106838886Y-164161727D01*
X106838885Y-164161727D01*
X106838884Y-164161726D01*
X106703647Y-164071363D01*
X106588637Y-163956353D01*
X106498274Y-163821116D01*
X106436031Y-163670848D01*
X106404300Y-163511326D01*
X106404300Y-163348674D01*
X106436031Y-163189152D01*
X106498273Y-163038886D01*
X106498274Y-163038884D01*
X106588637Y-162903647D01*
X106703647Y-162788637D01*
X106838884Y-162698274D01*
X106989152Y-162636031D01*
X107048128Y-162624300D01*
X107148674Y-162604300D01*
X107311326Y-162604300D01*
X107411872Y-162624300D01*
G37*
G36*
X201753097Y-160954069D02*
G01*
X201856032Y-160964207D01*
X202054146Y-161024305D01*
X202054149Y-161024306D01*
X202150975Y-161076061D01*
X202236729Y-161121897D01*
X202396765Y-161253235D01*
X202528103Y-161413271D01*
X202568662Y-161489152D01*
X202625694Y-161595851D01*
X202625695Y-161595854D01*
X202685793Y-161793968D01*
X202706085Y-162000000D01*
X202685793Y-162206032D01*
X202646146Y-162336728D01*
X202625694Y-162404149D01*
X202594918Y-162461726D01*
X202528103Y-162586729D01*
X202396765Y-162746765D01*
X202236729Y-162878103D01*
X202188939Y-162903647D01*
X202054149Y-162975694D01*
X202054146Y-162975695D01*
X201856032Y-163035793D01*
X201753097Y-163045931D01*
X201701631Y-163051000D01*
X200298369Y-163051000D01*
X200246903Y-163045931D01*
X200143968Y-163035793D01*
X199945854Y-162975695D01*
X199945851Y-162975694D01*
X199811061Y-162903647D01*
X199763271Y-162878103D01*
X199603235Y-162746765D01*
X199471897Y-162586729D01*
X199405082Y-162461726D01*
X199374306Y-162404149D01*
X199353854Y-162336728D01*
X199314207Y-162206032D01*
X199293915Y-162000000D01*
X199314207Y-161793968D01*
X199374305Y-161595854D01*
X199374306Y-161595851D01*
X199431338Y-161489152D01*
X199471897Y-161413271D01*
X199603235Y-161253235D01*
X199763271Y-161121897D01*
X199849025Y-161076061D01*
X199945851Y-161024306D01*
X199945854Y-161024305D01*
X200143968Y-160964207D01*
X200246903Y-160954069D01*
X200298369Y-160949000D01*
X201701631Y-160949000D01*
X201753097Y-160954069D01*
G37*
G36*
X196706032Y-159214207D02*
G01*
X196904146Y-159274305D01*
X196904149Y-159274306D01*
X197000975Y-159326061D01*
X197086729Y-159371897D01*
X197246765Y-159503235D01*
X197378103Y-159663271D01*
X197423939Y-159749025D01*
X197475694Y-159845851D01*
X197475695Y-159845854D01*
X197535793Y-160043968D01*
X197551000Y-160198370D01*
X197551000Y-161801630D01*
X197535793Y-161956032D01*
X197475695Y-162154145D01*
X197475694Y-162154149D01*
X197447963Y-162206030D01*
X197378103Y-162336729D01*
X197246765Y-162496765D01*
X197086729Y-162628103D01*
X196970030Y-162690479D01*
X196904148Y-162725694D01*
X196904145Y-162725695D01*
X196706031Y-162785793D01*
X196500000Y-162806085D01*
X196293968Y-162785793D01*
X196095854Y-162725695D01*
X196095851Y-162725694D01*
X195965521Y-162656031D01*
X195913271Y-162628103D01*
X195753235Y-162496765D01*
X195621897Y-162336729D01*
X195524307Y-162154149D01*
X195524306Y-162154148D01*
X195514285Y-162121114D01*
X195464207Y-161956031D01*
X195449000Y-161801629D01*
X195449000Y-160198369D01*
X195464207Y-160043967D01*
X195524305Y-159845854D01*
X195587904Y-159726870D01*
X195621898Y-159663271D01*
X195753236Y-159503235D01*
X195913272Y-159371897D01*
X195999026Y-159326061D01*
X196095852Y-159274306D01*
X196095855Y-159274305D01*
X196293969Y-159214207D01*
X196500000Y-159193915D01*
X196706032Y-159214207D01*
G37*
G36*
X205706032Y-159214207D02*
G01*
X205904146Y-159274305D01*
X205904149Y-159274306D01*
X206000975Y-159326061D01*
X206086729Y-159371897D01*
X206246765Y-159503235D01*
X206378103Y-159663271D01*
X206423939Y-159749025D01*
X206475694Y-159845851D01*
X206475695Y-159845854D01*
X206535793Y-160043968D01*
X206551000Y-160198370D01*
X206551000Y-161801630D01*
X206535793Y-161956032D01*
X206475695Y-162154145D01*
X206475694Y-162154149D01*
X206447963Y-162206030D01*
X206378103Y-162336729D01*
X206246765Y-162496765D01*
X206086729Y-162628103D01*
X205970030Y-162690479D01*
X205904148Y-162725694D01*
X205904145Y-162725695D01*
X205706031Y-162785793D01*
X205500000Y-162806085D01*
X205293968Y-162785793D01*
X205095854Y-162725695D01*
X205095851Y-162725694D01*
X204965521Y-162656031D01*
X204913271Y-162628103D01*
X204753235Y-162496765D01*
X204621897Y-162336729D01*
X204524307Y-162154149D01*
X204524306Y-162154148D01*
X204514285Y-162121114D01*
X204464207Y-161956031D01*
X204449000Y-161801629D01*
X204449000Y-160198369D01*
X204464207Y-160043967D01*
X204524305Y-159845854D01*
X204587904Y-159726870D01*
X204621898Y-159663271D01*
X204753236Y-159503235D01*
X204913272Y-159371897D01*
X204999026Y-159326061D01*
X205095852Y-159274306D01*
X205095855Y-159274305D01*
X205293969Y-159214207D01*
X205500000Y-159193915D01*
X205706032Y-159214207D01*
G37*
G36*
X99900848Y-160936031D02*
G01*
X100051116Y-160998274D01*
X100186353Y-161088637D01*
X100301363Y-161203647D01*
X100391726Y-161338884D01*
X100391727Y-161338886D01*
X100453969Y-161489152D01*
X100485700Y-161648676D01*
X100485700Y-161811324D01*
X100453969Y-161970848D01*
X100391726Y-162121116D01*
X100301363Y-162256353D01*
X100186353Y-162371363D01*
X100051116Y-162461726D01*
X100051115Y-162461727D01*
X100051114Y-162461727D01*
X99900848Y-162523969D01*
X99741326Y-162555700D01*
X99578674Y-162555700D01*
X99419152Y-162523969D01*
X99268886Y-162461727D01*
X99268885Y-162461727D01*
X99268884Y-162461726D01*
X99133647Y-162371363D01*
X99018637Y-162256353D01*
X98928274Y-162121116D01*
X98866031Y-161970848D01*
X98834300Y-161811324D01*
X98834300Y-161648676D01*
X98866031Y-161489152D01*
X98928273Y-161338886D01*
X98928274Y-161338884D01*
X99018637Y-161203647D01*
X99133647Y-161088637D01*
X99268884Y-160998274D01*
X99419152Y-160936031D01*
X99578674Y-160904300D01*
X99741326Y-160904300D01*
X99900848Y-160936031D01*
G37*
G36*
X110010848Y-160936031D02*
G01*
X110161116Y-160998274D01*
X110296353Y-161088637D01*
X110411363Y-161203647D01*
X110501726Y-161338884D01*
X110501727Y-161338886D01*
X110563969Y-161489152D01*
X110595700Y-161648676D01*
X110595700Y-161811324D01*
X110563969Y-161970848D01*
X110501726Y-162121116D01*
X110411363Y-162256353D01*
X110296353Y-162371363D01*
X110161116Y-162461726D01*
X110161115Y-162461727D01*
X110161114Y-162461727D01*
X110010848Y-162523969D01*
X109851326Y-162555700D01*
X109688674Y-162555700D01*
X109529152Y-162523969D01*
X109378886Y-162461727D01*
X109378885Y-162461727D01*
X109378884Y-162461726D01*
X109243647Y-162371363D01*
X109128637Y-162256353D01*
X109038274Y-162121116D01*
X108976031Y-161970848D01*
X108944300Y-161811324D01*
X108944300Y-161648676D01*
X108976031Y-161489152D01*
X109038273Y-161338886D01*
X109038274Y-161338884D01*
X109128637Y-161203647D01*
X109243647Y-161088637D01*
X109378884Y-160998274D01*
X109529152Y-160936031D01*
X109688674Y-160904300D01*
X109851326Y-160904300D01*
X110010848Y-160936031D01*
G37*
G36*
X109598806Y-156488861D02*
G01*
X109723135Y-156513592D01*
X110074482Y-156659125D01*
X110390686Y-156870405D01*
X110659595Y-157139314D01*
X110870875Y-157455518D01*
X110870876Y-157455520D01*
X111016408Y-157806866D01*
X111090600Y-158179851D01*
X111090600Y-158560149D01*
X111083289Y-158596903D01*
X111019780Y-158916185D01*
X111016408Y-158933134D01*
X110875091Y-159274305D01*
X110870875Y-159284482D01*
X110659595Y-159600686D01*
X110390686Y-159869595D01*
X110074482Y-160080875D01*
X109723135Y-160226408D01*
X109598806Y-160251139D01*
X109350149Y-160300600D01*
X108969851Y-160300600D01*
X108721194Y-160251139D01*
X108596865Y-160226408D01*
X108245518Y-160080875D01*
X107929314Y-159869595D01*
X107660405Y-159600686D01*
X107449125Y-159284482D01*
X107444910Y-159274305D01*
X107303592Y-158933134D01*
X107300221Y-158916185D01*
X107236711Y-158596903D01*
X107229400Y-158560149D01*
X107229400Y-158179851D01*
X107303592Y-157806866D01*
X107449124Y-157455520D01*
X107449125Y-157455518D01*
X107660405Y-157139314D01*
X107929314Y-156870405D01*
X108245518Y-156659125D01*
X108596865Y-156513592D01*
X108721194Y-156488861D01*
X108969851Y-156439400D01*
X109350149Y-156439400D01*
X109598806Y-156488861D01*
G37*
G36*
X98168806Y-156488861D02*
G01*
X98293135Y-156513592D01*
X98644482Y-156659125D01*
X98960686Y-156870405D01*
X99229595Y-157139314D01*
X99440875Y-157455518D01*
X99440876Y-157455520D01*
X99586408Y-157806866D01*
X99660600Y-158179851D01*
X99660600Y-158560149D01*
X99653289Y-158596903D01*
X99589780Y-158916185D01*
X99586408Y-158933134D01*
X99445091Y-159274305D01*
X99440875Y-159284482D01*
X99229595Y-159600686D01*
X98960686Y-159869595D01*
X98644482Y-160080875D01*
X98293135Y-160226408D01*
X98168806Y-160251139D01*
X97920149Y-160300600D01*
X97539851Y-160300600D01*
X97291194Y-160251139D01*
X97166865Y-160226408D01*
X96815518Y-160080875D01*
X96499314Y-159869595D01*
X96230405Y-159600686D01*
X96019125Y-159284482D01*
X96014910Y-159274305D01*
X95873592Y-158933134D01*
X95870221Y-158916185D01*
X95806711Y-158596903D01*
X95799400Y-158560149D01*
X95799400Y-158179851D01*
X95873592Y-157806866D01*
X96019124Y-157455520D01*
X96019125Y-157455518D01*
X96230405Y-157139314D01*
X96499314Y-156870405D01*
X96815518Y-156659125D01*
X97166865Y-156513592D01*
X97291194Y-156488861D01*
X97539851Y-156439400D01*
X97920149Y-156439400D01*
X98168806Y-156488861D01*
G37*
G36*
X201248228Y-158181703D02*
G01*
X201403100Y-158245853D01*
X201542481Y-158338985D01*
X201661015Y-158457519D01*
X201754147Y-158596900D01*
X201818297Y-158751772D01*
X201851000Y-158916184D01*
X201851000Y-159083816D01*
X201818297Y-159248228D01*
X201754147Y-159403100D01*
X201661015Y-159542481D01*
X201542481Y-159661015D01*
X201403100Y-159754147D01*
X201248228Y-159818297D01*
X201083816Y-159851000D01*
X200916184Y-159851000D01*
X200751772Y-159818297D01*
X200596900Y-159754147D01*
X200457519Y-159661015D01*
X200338985Y-159542481D01*
X200245853Y-159403100D01*
X200181703Y-159248228D01*
X200149000Y-159083816D01*
X200149000Y-158916184D01*
X200181703Y-158751772D01*
X200245853Y-158596900D01*
X200338985Y-158457519D01*
X200457519Y-158338985D01*
X200596900Y-158245853D01*
X200751772Y-158181703D01*
X200916184Y-158149000D01*
X201083816Y-158149000D01*
X201248228Y-158181703D01*
G37*
G36*
X111642344Y-154257368D02*
G01*
X111843459Y-154340673D01*
X112024458Y-154461613D01*
X112178385Y-154615540D01*
X112299325Y-154796539D01*
X112382630Y-154997654D01*
X112425098Y-155211157D01*
X112425098Y-155428843D01*
X112382630Y-155642346D01*
X112299325Y-155843461D01*
X112178385Y-156024460D01*
X112024458Y-156178387D01*
X111843459Y-156299327D01*
X111642344Y-156382632D01*
X111428842Y-156425100D01*
X111211154Y-156425100D01*
X110997652Y-156382632D01*
X110796537Y-156299327D01*
X110615538Y-156178387D01*
X110461611Y-156024460D01*
X110340671Y-155843461D01*
X110257366Y-155642346D01*
X110214898Y-155428843D01*
X110214898Y-155211157D01*
X110257366Y-154997654D01*
X110340671Y-154796539D01*
X110461611Y-154615540D01*
X110615538Y-154461613D01*
X110796537Y-154340673D01*
X110997652Y-154257368D01*
X111211154Y-154214900D01*
X111428842Y-154214900D01*
X111642344Y-154257368D01*
G37*
G36*
X95892348Y-154257368D02*
G01*
X96093463Y-154340673D01*
X96274462Y-154461613D01*
X96428389Y-154615540D01*
X96549329Y-154796539D01*
X96632634Y-154997654D01*
X96675102Y-155211157D01*
X96675102Y-155428843D01*
X96632634Y-155642346D01*
X96549329Y-155843461D01*
X96428389Y-156024460D01*
X96274462Y-156178387D01*
X96093463Y-156299327D01*
X95892348Y-156382632D01*
X95678846Y-156425100D01*
X95461158Y-156425100D01*
X95247656Y-156382632D01*
X95046541Y-156299327D01*
X94865542Y-156178387D01*
X94711615Y-156024460D01*
X94590675Y-155843461D01*
X94507370Y-155642346D01*
X94464902Y-155428843D01*
X94464902Y-155211157D01*
X94507370Y-154997654D01*
X94590675Y-154796539D01*
X94711615Y-154615540D01*
X94865542Y-154461613D01*
X95046541Y-154340673D01*
X95247656Y-154257368D01*
X95461158Y-154214900D01*
X95678846Y-154214900D01*
X95892348Y-154257368D01*
G37*
G36*
X106714425Y-151254599D02*
G01*
X106838621Y-151279302D01*
X106975022Y-151335801D01*
X107097779Y-151417825D01*
X107202175Y-151522221D01*
X107284199Y-151644978D01*
X107340698Y-151781379D01*
X107369500Y-151926181D01*
X107369500Y-152073819D01*
X107340698Y-152218621D01*
X107284199Y-152355022D01*
X107202175Y-152477779D01*
X107097779Y-152582175D01*
X106975022Y-152664199D01*
X106838621Y-152720698D01*
X106714425Y-152745401D01*
X106693820Y-152749500D01*
X106546180Y-152749500D01*
X106525575Y-152745401D01*
X106401379Y-152720698D01*
X106264978Y-152664199D01*
X106142221Y-152582175D01*
X106037825Y-152477779D01*
X105955801Y-152355022D01*
X105899302Y-152218621D01*
X105870500Y-152073819D01*
X105870500Y-151926181D01*
X105899302Y-151781379D01*
X105955801Y-151644978D01*
X106037825Y-151522221D01*
X106142221Y-151417825D01*
X106264978Y-151335801D01*
X106401379Y-151279302D01*
X106525575Y-151254599D01*
X106546180Y-151250500D01*
X106693820Y-151250500D01*
X106714425Y-151254599D01*
G37*
G36*
X104174425Y-151254599D02*
G01*
X104298621Y-151279302D01*
X104435022Y-151335801D01*
X104557779Y-151417825D01*
X104662175Y-151522221D01*
X104744199Y-151644978D01*
X104800698Y-151781379D01*
X104829500Y-151926181D01*
X104829500Y-152073819D01*
X104800698Y-152218621D01*
X104744199Y-152355022D01*
X104662175Y-152477779D01*
X104557779Y-152582175D01*
X104435022Y-152664199D01*
X104298621Y-152720698D01*
X104174425Y-152745401D01*
X104153820Y-152749500D01*
X104006180Y-152749500D01*
X103985575Y-152745401D01*
X103861379Y-152720698D01*
X103724978Y-152664199D01*
X103602221Y-152582175D01*
X103497825Y-152477779D01*
X103415801Y-152355022D01*
X103359302Y-152218621D01*
X103330500Y-152073819D01*
X103330500Y-151926181D01*
X103359302Y-151781379D01*
X103415801Y-151644978D01*
X103497825Y-151522221D01*
X103602221Y-151417825D01*
X103724978Y-151335801D01*
X103861379Y-151279302D01*
X103985575Y-151254599D01*
X104006180Y-151250500D01*
X104153820Y-151250500D01*
X104174425Y-151254599D01*
G37*
G36*
X101634425Y-151254599D02*
G01*
X101758621Y-151279302D01*
X101895022Y-151335801D01*
X102017779Y-151417825D01*
X102122175Y-151522221D01*
X102204199Y-151644978D01*
X102260698Y-151781379D01*
X102289500Y-151926181D01*
X102289500Y-152073819D01*
X102260698Y-152218621D01*
X102204199Y-152355022D01*
X102122175Y-152477779D01*
X102017779Y-152582175D01*
X101895022Y-152664199D01*
X101758621Y-152720698D01*
X101634425Y-152745401D01*
X101613820Y-152749500D01*
X101466180Y-152749500D01*
X101445575Y-152745401D01*
X101321379Y-152720698D01*
X101184978Y-152664199D01*
X101062221Y-152582175D01*
X100957825Y-152477779D01*
X100875801Y-152355022D01*
X100819302Y-152218621D01*
X100790500Y-152073819D01*
X100790500Y-151926181D01*
X100819302Y-151781379D01*
X100875801Y-151644978D01*
X100957825Y-151522221D01*
X101062221Y-151417825D01*
X101184978Y-151335801D01*
X101321379Y-151279302D01*
X101445575Y-151254599D01*
X101466180Y-151250500D01*
X101613820Y-151250500D01*
X101634425Y-151254599D01*
G37*
G36*
X99094425Y-151254599D02*
G01*
X99218621Y-151279302D01*
X99355022Y-151335801D01*
X99477779Y-151417825D01*
X99582175Y-151522221D01*
X99664199Y-151644978D01*
X99720698Y-151781379D01*
X99749500Y-151926181D01*
X99749500Y-152073819D01*
X99720698Y-152218621D01*
X99664199Y-152355022D01*
X99582175Y-152477779D01*
X99477779Y-152582175D01*
X99355022Y-152664199D01*
X99218621Y-152720698D01*
X99094425Y-152745401D01*
X99073820Y-152749500D01*
X98926180Y-152749500D01*
X98905575Y-152745401D01*
X98781379Y-152720698D01*
X98644978Y-152664199D01*
X98522221Y-152582175D01*
X98417825Y-152477779D01*
X98335801Y-152355022D01*
X98279302Y-152218621D01*
X98250500Y-152073819D01*
X98250500Y-151926181D01*
X98279302Y-151781379D01*
X98335801Y-151644978D01*
X98417825Y-151522221D01*
X98522221Y-151417825D01*
X98644978Y-151335801D01*
X98781379Y-151279302D01*
X98905575Y-151254599D01*
X98926180Y-151250500D01*
X99073820Y-151250500D01*
X99094425Y-151254599D01*
G37*
G36*
X195644072Y-148700918D02*
G01*
X195889939Y-148802759D01*
X196111212Y-148950610D01*
X196299390Y-149138788D01*
X196447241Y-149360061D01*
X196549082Y-149605928D01*
X196601000Y-149866938D01*
X196601000Y-150133062D01*
X196549082Y-150394072D01*
X196447241Y-150639939D01*
X196299390Y-150861212D01*
X196111212Y-151049390D01*
X195889939Y-151197241D01*
X195889938Y-151197242D01*
X195889937Y-151197242D01*
X195644072Y-151299082D01*
X195383063Y-151351000D01*
X195116937Y-151351000D01*
X194855928Y-151299082D01*
X194610063Y-151197242D01*
X194610062Y-151197242D01*
X194610061Y-151197241D01*
X194388788Y-151049390D01*
X194200610Y-150861212D01*
X194052759Y-150639939D01*
X193950918Y-150394072D01*
X193899000Y-150133062D01*
X193899000Y-149866938D01*
X193950918Y-149605928D01*
X194052759Y-149360061D01*
X194200610Y-149138788D01*
X194388788Y-148950610D01*
X194610061Y-148802759D01*
X194855928Y-148700918D01*
X195116937Y-148649000D01*
X195383063Y-148649000D01*
X195644072Y-148700918D01*
G37*
G36*
X207144072Y-148700918D02*
G01*
X207389939Y-148802759D01*
X207611212Y-148950610D01*
X207799390Y-149138788D01*
X207947241Y-149360061D01*
X208049082Y-149605928D01*
X208101000Y-149866938D01*
X208101000Y-150133062D01*
X208049082Y-150394072D01*
X207947241Y-150639939D01*
X207799390Y-150861212D01*
X207611212Y-151049390D01*
X207389939Y-151197241D01*
X207389938Y-151197242D01*
X207389937Y-151197242D01*
X207144072Y-151299082D01*
X206883063Y-151351000D01*
X206616937Y-151351000D01*
X206355928Y-151299082D01*
X206110063Y-151197242D01*
X206110062Y-151197242D01*
X206110061Y-151197241D01*
X205888788Y-151049390D01*
X205700610Y-150861212D01*
X205552759Y-150639939D01*
X205450918Y-150394072D01*
X205399000Y-150133062D01*
X205399000Y-149866938D01*
X205450918Y-149605928D01*
X205552759Y-149360061D01*
X205700610Y-149138788D01*
X205888788Y-148950610D01*
X206110061Y-148802759D01*
X206355928Y-148700918D01*
X206616937Y-148649000D01*
X206883063Y-148649000D01*
X207144072Y-148700918D01*
G37*
G36*
X105444425Y-148714599D02*
G01*
X105568621Y-148739302D01*
X105705022Y-148795801D01*
X105827779Y-148877825D01*
X105932175Y-148982221D01*
X106014199Y-149104978D01*
X106070698Y-149241379D01*
X106099500Y-149386181D01*
X106099500Y-149533819D01*
X106070698Y-149678621D01*
X106014199Y-149815022D01*
X105932175Y-149937779D01*
X105827779Y-150042175D01*
X105705022Y-150124199D01*
X105568621Y-150180698D01*
X105444425Y-150205401D01*
X105423820Y-150209500D01*
X105276180Y-150209500D01*
X105255575Y-150205401D01*
X105131379Y-150180698D01*
X104994978Y-150124199D01*
X104872221Y-150042175D01*
X104767825Y-149937779D01*
X104685801Y-149815022D01*
X104629302Y-149678621D01*
X104600500Y-149533819D01*
X104600500Y-149386181D01*
X104629302Y-149241379D01*
X104685801Y-149104978D01*
X104767825Y-148982221D01*
X104872221Y-148877825D01*
X104994978Y-148795801D01*
X105131379Y-148739302D01*
X105255575Y-148714599D01*
X105276180Y-148710500D01*
X105423820Y-148710500D01*
X105444425Y-148714599D01*
G37*
G36*
X107984425Y-148714599D02*
G01*
X108108621Y-148739302D01*
X108245022Y-148795801D01*
X108367779Y-148877825D01*
X108472175Y-148982221D01*
X108554199Y-149104978D01*
X108610698Y-149241379D01*
X108639500Y-149386181D01*
X108639500Y-149533819D01*
X108610698Y-149678621D01*
X108554199Y-149815022D01*
X108472175Y-149937779D01*
X108367779Y-150042175D01*
X108245022Y-150124199D01*
X108108621Y-150180698D01*
X107984425Y-150205401D01*
X107963820Y-150209500D01*
X107816180Y-150209500D01*
X107795575Y-150205401D01*
X107671379Y-150180698D01*
X107534978Y-150124199D01*
X107412221Y-150042175D01*
X107307825Y-149937779D01*
X107225801Y-149815022D01*
X107169302Y-149678621D01*
X107140500Y-149533819D01*
X107140500Y-149386181D01*
X107169302Y-149241379D01*
X107225801Y-149104978D01*
X107307825Y-148982221D01*
X107412221Y-148877825D01*
X107534978Y-148795801D01*
X107671379Y-148739302D01*
X107795575Y-148714599D01*
X107816180Y-148710500D01*
X107963820Y-148710500D01*
X107984425Y-148714599D01*
G37*
G36*
X100364425Y-148714599D02*
G01*
X100488621Y-148739302D01*
X100625022Y-148795801D01*
X100747779Y-148877825D01*
X100852175Y-148982221D01*
X100934199Y-149104978D01*
X100990698Y-149241379D01*
X101019500Y-149386181D01*
X101019500Y-149533819D01*
X100990698Y-149678621D01*
X100934199Y-149815022D01*
X100852175Y-149937779D01*
X100747779Y-150042175D01*
X100625022Y-150124199D01*
X100488621Y-150180698D01*
X100364425Y-150205401D01*
X100343820Y-150209500D01*
X100196180Y-150209500D01*
X100175575Y-150205401D01*
X100051379Y-150180698D01*
X99914978Y-150124199D01*
X99792221Y-150042175D01*
X99687825Y-149937779D01*
X99605801Y-149815022D01*
X99549302Y-149678621D01*
X99520500Y-149533819D01*
X99520500Y-149386181D01*
X99549302Y-149241379D01*
X99605801Y-149104978D01*
X99687825Y-148982221D01*
X99792221Y-148877825D01*
X99914978Y-148795801D01*
X100051379Y-148739302D01*
X100175575Y-148714599D01*
X100196180Y-148710500D01*
X100343820Y-148710500D01*
X100364425Y-148714599D01*
G37*
G36*
X102904425Y-148714599D02*
G01*
X103028621Y-148739302D01*
X103165022Y-148795801D01*
X103287779Y-148877825D01*
X103392175Y-148982221D01*
X103474199Y-149104978D01*
X103530698Y-149241379D01*
X103559500Y-149386181D01*
X103559500Y-149533819D01*
X103530698Y-149678621D01*
X103474199Y-149815022D01*
X103392175Y-149937779D01*
X103287779Y-150042175D01*
X103165022Y-150124199D01*
X103028621Y-150180698D01*
X102904425Y-150205401D01*
X102883820Y-150209500D01*
X102736180Y-150209500D01*
X102715575Y-150205401D01*
X102591379Y-150180698D01*
X102454978Y-150124199D01*
X102332221Y-150042175D01*
X102227825Y-149937779D01*
X102145801Y-149815022D01*
X102089302Y-149678621D01*
X102060500Y-149533819D01*
X102060500Y-149386181D01*
X102089302Y-149241379D01*
X102145801Y-149104978D01*
X102227825Y-148982221D01*
X102332221Y-148877825D01*
X102454978Y-148795801D01*
X102591379Y-148739302D01*
X102715575Y-148714599D01*
X102736180Y-148710500D01*
X102883820Y-148710500D01*
X102904425Y-148714599D01*
G37*
G36*
X195644072Y-143700918D02*
G01*
X195889939Y-143802759D01*
X196001328Y-143877187D01*
X196111211Y-143950609D01*
X196299391Y-144138789D01*
X196447242Y-144360063D01*
X196549082Y-144605928D01*
X196594412Y-144833815D01*
X196601000Y-144866938D01*
X196601000Y-145133062D01*
X196549082Y-145394072D01*
X196447241Y-145639939D01*
X196299390Y-145861212D01*
X196111212Y-146049390D01*
X195889939Y-146197241D01*
X195889938Y-146197242D01*
X195889937Y-146197242D01*
X195644072Y-146299082D01*
X195383063Y-146351000D01*
X195116937Y-146351000D01*
X194855928Y-146299082D01*
X194610063Y-146197242D01*
X194610062Y-146197242D01*
X194610061Y-146197241D01*
X194388788Y-146049390D01*
X194200610Y-145861212D01*
X194052759Y-145639939D01*
X193950918Y-145394072D01*
X193899000Y-145133062D01*
X193899000Y-144866938D01*
X193905589Y-144833815D01*
X193950918Y-144605928D01*
X194052758Y-144360063D01*
X194200609Y-144138789D01*
X194388789Y-143950609D01*
X194498672Y-143877187D01*
X194610061Y-143802759D01*
X194855928Y-143700918D01*
X195116937Y-143649000D01*
X195383063Y-143649000D01*
X195644072Y-143700918D01*
G37*
G36*
X207144072Y-143700918D02*
G01*
X207389939Y-143802759D01*
X207501328Y-143877187D01*
X207611211Y-143950609D01*
X207799391Y-144138789D01*
X207947242Y-144360063D01*
X208049082Y-144605928D01*
X208094412Y-144833815D01*
X208101000Y-144866938D01*
X208101000Y-145133062D01*
X208049082Y-145394072D01*
X207947241Y-145639939D01*
X207799390Y-145861212D01*
X207611212Y-146049390D01*
X207389939Y-146197241D01*
X207389938Y-146197242D01*
X207389937Y-146197242D01*
X207144072Y-146299082D01*
X206883063Y-146351000D01*
X206616937Y-146351000D01*
X206355928Y-146299082D01*
X206110063Y-146197242D01*
X206110062Y-146197242D01*
X206110061Y-146197241D01*
X205888788Y-146049390D01*
X205700610Y-145861212D01*
X205552759Y-145639939D01*
X205450918Y-145394072D01*
X205399000Y-145133062D01*
X205399000Y-144866938D01*
X205405589Y-144833815D01*
X205450918Y-144605928D01*
X205552758Y-144360063D01*
X205700609Y-144138789D01*
X205888789Y-143950609D01*
X205998672Y-143877187D01*
X206110061Y-143802759D01*
X206355928Y-143700918D01*
X206616937Y-143649000D01*
X206883063Y-143649000D01*
X207144072Y-143700918D01*
G37*
G36*
X107998228Y-143931703D02*
G01*
X108153100Y-143995853D01*
X108292481Y-144088985D01*
X108411015Y-144207519D01*
X108504147Y-144346900D01*
X108568297Y-144501772D01*
X108601000Y-144666184D01*
X108601000Y-144833816D01*
X108568297Y-144998228D01*
X108504147Y-145153100D01*
X108411015Y-145292481D01*
X108292481Y-145411015D01*
X108153100Y-145504147D01*
X107998228Y-145568297D01*
X107833816Y-145601000D01*
X107666184Y-145601000D01*
X107501772Y-145568297D01*
X107346900Y-145504147D01*
X107207519Y-145411015D01*
X107088985Y-145292481D01*
X106995853Y-145153100D01*
X106931703Y-144998228D01*
X106899000Y-144833816D01*
X106899000Y-144666184D01*
X106931703Y-144501772D01*
X106995853Y-144346900D01*
X107088985Y-144207519D01*
X107207519Y-144088985D01*
X107346900Y-143995853D01*
X107501772Y-143931703D01*
X107666184Y-143899000D01*
X107833816Y-143899000D01*
X107998228Y-143931703D01*
G37*
G36*
X105498228Y-143931703D02*
G01*
X105653100Y-143995853D01*
X105792481Y-144088985D01*
X105911015Y-144207519D01*
X106004147Y-144346900D01*
X106068297Y-144501772D01*
X106101000Y-144666184D01*
X106101000Y-144833816D01*
X106068297Y-144998228D01*
X106004147Y-145153100D01*
X105911015Y-145292481D01*
X105792481Y-145411015D01*
X105653100Y-145504147D01*
X105498228Y-145568297D01*
X105333816Y-145601000D01*
X105166184Y-145601000D01*
X105001772Y-145568297D01*
X104846900Y-145504147D01*
X104707519Y-145411015D01*
X104588985Y-145292481D01*
X104495853Y-145153100D01*
X104431703Y-144998228D01*
X104399000Y-144833816D01*
X104399000Y-144666184D01*
X104431703Y-144501772D01*
X104495853Y-144346900D01*
X104588985Y-144207519D01*
X104707519Y-144088985D01*
X104846900Y-143995853D01*
X105001772Y-143931703D01*
X105166184Y-143899000D01*
X105333816Y-143899000D01*
X105498228Y-143931703D01*
G37*
G36*
X130617142Y-141458242D02*
G01*
X130765101Y-141519529D01*
X130898255Y-141608499D01*
X131011501Y-141721745D01*
X131100471Y-141854899D01*
X131161758Y-142002858D01*
X131193000Y-142159925D01*
X131193000Y-142320075D01*
X131161758Y-142477142D01*
X131100471Y-142625101D01*
X131011501Y-142758255D01*
X130898255Y-142871501D01*
X130765101Y-142960471D01*
X130617142Y-143021758D01*
X130460075Y-143053000D01*
X130299925Y-143053000D01*
X130142858Y-143021758D01*
X129994899Y-142960471D01*
X129861745Y-142871501D01*
X129748499Y-142758255D01*
X129659529Y-142625101D01*
X129598242Y-142477142D01*
X129567000Y-142320075D01*
X129567000Y-142159925D01*
X129598242Y-142002858D01*
X129659529Y-141854899D01*
X129748499Y-141721745D01*
X129861745Y-141608499D01*
X129994899Y-141519529D01*
X130142858Y-141458242D01*
X130299925Y-141427000D01*
X130460075Y-141427000D01*
X130617142Y-141458242D01*
G37*
G36*
X133157142Y-141458242D02*
G01*
X133305101Y-141519529D01*
X133438255Y-141608499D01*
X133551501Y-141721745D01*
X133640471Y-141854899D01*
X133701758Y-142002858D01*
X133733000Y-142159925D01*
X133733000Y-142320075D01*
X133701758Y-142477142D01*
X133640471Y-142625101D01*
X133551501Y-142758255D01*
X133438255Y-142871501D01*
X133305101Y-142960471D01*
X133157142Y-143021758D01*
X133000075Y-143053000D01*
X132839925Y-143053000D01*
X132682858Y-143021758D01*
X132534899Y-142960471D01*
X132401745Y-142871501D01*
X132288499Y-142758255D01*
X132199529Y-142625101D01*
X132138242Y-142477142D01*
X132107000Y-142320075D01*
X132107000Y-142159925D01*
X132138242Y-142002858D01*
X132199529Y-141854899D01*
X132288499Y-141721745D01*
X132401745Y-141608499D01*
X132534899Y-141519529D01*
X132682858Y-141458242D01*
X132839925Y-141427000D01*
X133000075Y-141427000D01*
X133157142Y-141458242D01*
G37*
G36*
X135697142Y-141458242D02*
G01*
X135845101Y-141519529D01*
X135978255Y-141608499D01*
X136091501Y-141721745D01*
X136180471Y-141854899D01*
X136241758Y-142002858D01*
X136273000Y-142159925D01*
X136273000Y-142320075D01*
X136241758Y-142477142D01*
X136180471Y-142625101D01*
X136091501Y-142758255D01*
X135978255Y-142871501D01*
X135845101Y-142960471D01*
X135697142Y-143021758D01*
X135540075Y-143053000D01*
X135379925Y-143053000D01*
X135222858Y-143021758D01*
X135074899Y-142960471D01*
X134941745Y-142871501D01*
X134828499Y-142758255D01*
X134739529Y-142625101D01*
X134678242Y-142477142D01*
X134647000Y-142320075D01*
X134647000Y-142159925D01*
X134678242Y-142002858D01*
X134739529Y-141854899D01*
X134828499Y-141721745D01*
X134941745Y-141608499D01*
X135074899Y-141519529D01*
X135222858Y-141458242D01*
X135379925Y-141427000D01*
X135540075Y-141427000D01*
X135697142Y-141458242D01*
G37*
G36*
X138237142Y-141458242D02*
G01*
X138385101Y-141519529D01*
X138518255Y-141608499D01*
X138631501Y-141721745D01*
X138720471Y-141854899D01*
X138781758Y-142002858D01*
X138813000Y-142159925D01*
X138813000Y-142320075D01*
X138781758Y-142477142D01*
X138720471Y-142625101D01*
X138631501Y-142758255D01*
X138518255Y-142871501D01*
X138385101Y-142960471D01*
X138237142Y-143021758D01*
X138080075Y-143053000D01*
X137919925Y-143053000D01*
X137762858Y-143021758D01*
X137614899Y-142960471D01*
X137481745Y-142871501D01*
X137368499Y-142758255D01*
X137279529Y-142625101D01*
X137218242Y-142477142D01*
X137187000Y-142320075D01*
X137187000Y-142159925D01*
X137218242Y-142002858D01*
X137279529Y-141854899D01*
X137368499Y-141721745D01*
X137481745Y-141608499D01*
X137614899Y-141519529D01*
X137762858Y-141458242D01*
X137919925Y-141427000D01*
X138080075Y-141427000D01*
X138237142Y-141458242D01*
G37*
G36*
X140777142Y-141458242D02*
G01*
X140925101Y-141519529D01*
X141058255Y-141608499D01*
X141171501Y-141721745D01*
X141260471Y-141854899D01*
X141321758Y-142002858D01*
X141353000Y-142159925D01*
X141353000Y-142320075D01*
X141321758Y-142477142D01*
X141260471Y-142625101D01*
X141171501Y-142758255D01*
X141058255Y-142871501D01*
X140925101Y-142960471D01*
X140777142Y-143021758D01*
X140620075Y-143053000D01*
X140459925Y-143053000D01*
X140302858Y-143021758D01*
X140154899Y-142960471D01*
X140021745Y-142871501D01*
X139908499Y-142758255D01*
X139819529Y-142625101D01*
X139758242Y-142477142D01*
X139727000Y-142320075D01*
X139727000Y-142159925D01*
X139758242Y-142002858D01*
X139819529Y-141854899D01*
X139908499Y-141721745D01*
X140021745Y-141608499D01*
X140154899Y-141519529D01*
X140302858Y-141458242D01*
X140459925Y-141427000D01*
X140620075Y-141427000D01*
X140777142Y-141458242D01*
G37*
G36*
X143317142Y-141458242D02*
G01*
X143465101Y-141519529D01*
X143598255Y-141608499D01*
X143711501Y-141721745D01*
X143800471Y-141854899D01*
X143861758Y-142002858D01*
X143893000Y-142159925D01*
X143893000Y-142320075D01*
X143861758Y-142477142D01*
X143800471Y-142625101D01*
X143711501Y-142758255D01*
X143598255Y-142871501D01*
X143465101Y-142960471D01*
X143317142Y-143021758D01*
X143160075Y-143053000D01*
X142999925Y-143053000D01*
X142842858Y-143021758D01*
X142694899Y-142960471D01*
X142561745Y-142871501D01*
X142448499Y-142758255D01*
X142359529Y-142625101D01*
X142298242Y-142477142D01*
X142267000Y-142320075D01*
X142267000Y-142159925D01*
X142298242Y-142002858D01*
X142359529Y-141854899D01*
X142448499Y-141721745D01*
X142561745Y-141608499D01*
X142694899Y-141519529D01*
X142842858Y-141458242D01*
X142999925Y-141427000D01*
X143160075Y-141427000D01*
X143317142Y-141458242D01*
G37*
G36*
X145857142Y-141458242D02*
G01*
X146005101Y-141519529D01*
X146138255Y-141608499D01*
X146251501Y-141721745D01*
X146340471Y-141854899D01*
X146401758Y-142002858D01*
X146433000Y-142159925D01*
X146433000Y-142320075D01*
X146401758Y-142477142D01*
X146340471Y-142625101D01*
X146251501Y-142758255D01*
X146138255Y-142871501D01*
X146005101Y-142960471D01*
X145857142Y-143021758D01*
X145700075Y-143053000D01*
X145539925Y-143053000D01*
X145382858Y-143021758D01*
X145234899Y-142960471D01*
X145101745Y-142871501D01*
X144988499Y-142758255D01*
X144899529Y-142625101D01*
X144838242Y-142477142D01*
X144807000Y-142320075D01*
X144807000Y-142159925D01*
X144838242Y-142002858D01*
X144899529Y-141854899D01*
X144988499Y-141721745D01*
X145101745Y-141608499D01*
X145234899Y-141519529D01*
X145382858Y-141458242D01*
X145539925Y-141427000D01*
X145700075Y-141427000D01*
X145857142Y-141458242D01*
G37*
G36*
X148397142Y-141458242D02*
G01*
X148545101Y-141519529D01*
X148678255Y-141608499D01*
X148791501Y-141721745D01*
X148880471Y-141854899D01*
X148941758Y-142002858D01*
X148973000Y-142159925D01*
X148973000Y-142320075D01*
X148941758Y-142477142D01*
X148880471Y-142625101D01*
X148791501Y-142758255D01*
X148678255Y-142871501D01*
X148545101Y-142960471D01*
X148397142Y-143021758D01*
X148240075Y-143053000D01*
X148079925Y-143053000D01*
X147922858Y-143021758D01*
X147774899Y-142960471D01*
X147641745Y-142871501D01*
X147528499Y-142758255D01*
X147439529Y-142625101D01*
X147378242Y-142477142D01*
X147347000Y-142320075D01*
X147347000Y-142159925D01*
X147378242Y-142002858D01*
X147439529Y-141854899D01*
X147528499Y-141721745D01*
X147641745Y-141608499D01*
X147774899Y-141519529D01*
X147922858Y-141458242D01*
X148079925Y-141427000D01*
X148240075Y-141427000D01*
X148397142Y-141458242D01*
G37*
G36*
X150937142Y-141458242D02*
G01*
X151085101Y-141519529D01*
X151218255Y-141608499D01*
X151331501Y-141721745D01*
X151420471Y-141854899D01*
X151481758Y-142002858D01*
X151513000Y-142159925D01*
X151513000Y-142320075D01*
X151481758Y-142477142D01*
X151420471Y-142625101D01*
X151331501Y-142758255D01*
X151218255Y-142871501D01*
X151085101Y-142960471D01*
X150937142Y-143021758D01*
X150780075Y-143053000D01*
X150619925Y-143053000D01*
X150462858Y-143021758D01*
X150314899Y-142960471D01*
X150181745Y-142871501D01*
X150068499Y-142758255D01*
X149979529Y-142625101D01*
X149918242Y-142477142D01*
X149887000Y-142320075D01*
X149887000Y-142159925D01*
X149918242Y-142002858D01*
X149979529Y-141854899D01*
X150068499Y-141721745D01*
X150181745Y-141608499D01*
X150314899Y-141519529D01*
X150462858Y-141458242D01*
X150619925Y-141427000D01*
X150780075Y-141427000D01*
X150937142Y-141458242D01*
G37*
G36*
X153477142Y-141458242D02*
G01*
X153625101Y-141519529D01*
X153758255Y-141608499D01*
X153871501Y-141721745D01*
X153960471Y-141854899D01*
X154021758Y-142002858D01*
X154053000Y-142159925D01*
X154053000Y-142320075D01*
X154021758Y-142477142D01*
X153960471Y-142625101D01*
X153871501Y-142758255D01*
X153758255Y-142871501D01*
X153625101Y-142960471D01*
X153477142Y-143021758D01*
X153320075Y-143053000D01*
X153159925Y-143053000D01*
X153002858Y-143021758D01*
X152854899Y-142960471D01*
X152721745Y-142871501D01*
X152608499Y-142758255D01*
X152519529Y-142625101D01*
X152458242Y-142477142D01*
X152427000Y-142320075D01*
X152427000Y-142159925D01*
X152458242Y-142002858D01*
X152519529Y-141854899D01*
X152608499Y-141721745D01*
X152721745Y-141608499D01*
X152854899Y-141519529D01*
X153002858Y-141458242D01*
X153159925Y-141427000D01*
X153320075Y-141427000D01*
X153477142Y-141458242D01*
G37*
G36*
X156017142Y-141458242D02*
G01*
X156165101Y-141519529D01*
X156298255Y-141608499D01*
X156411501Y-141721745D01*
X156500471Y-141854899D01*
X156561758Y-142002858D01*
X156593000Y-142159925D01*
X156593000Y-142320075D01*
X156561758Y-142477142D01*
X156500471Y-142625101D01*
X156411501Y-142758255D01*
X156298255Y-142871501D01*
X156165101Y-142960471D01*
X156017142Y-143021758D01*
X155860075Y-143053000D01*
X155699925Y-143053000D01*
X155542858Y-143021758D01*
X155394899Y-142960471D01*
X155261745Y-142871501D01*
X155148499Y-142758255D01*
X155059529Y-142625101D01*
X154998242Y-142477142D01*
X154967000Y-142320075D01*
X154967000Y-142159925D01*
X154998242Y-142002858D01*
X155059529Y-141854899D01*
X155148499Y-141721745D01*
X155261745Y-141608499D01*
X155394899Y-141519529D01*
X155542858Y-141458242D01*
X155699925Y-141427000D01*
X155860075Y-141427000D01*
X156017142Y-141458242D01*
G37*
G36*
X158557142Y-141458242D02*
G01*
X158705101Y-141519529D01*
X158838255Y-141608499D01*
X158951501Y-141721745D01*
X159040471Y-141854899D01*
X159101758Y-142002858D01*
X159133000Y-142159925D01*
X159133000Y-142320075D01*
X159101758Y-142477142D01*
X159040471Y-142625101D01*
X158951501Y-142758255D01*
X158838255Y-142871501D01*
X158705101Y-142960471D01*
X158557142Y-143021758D01*
X158400075Y-143053000D01*
X158239925Y-143053000D01*
X158082858Y-143021758D01*
X157934899Y-142960471D01*
X157801745Y-142871501D01*
X157688499Y-142758255D01*
X157599529Y-142625101D01*
X157538242Y-142477142D01*
X157507000Y-142320075D01*
X157507000Y-142159925D01*
X157538242Y-142002858D01*
X157599529Y-141854899D01*
X157688499Y-141721745D01*
X157801745Y-141608499D01*
X157934899Y-141519529D01*
X158082858Y-141458242D01*
X158239925Y-141427000D01*
X158400075Y-141427000D01*
X158557142Y-141458242D01*
G37*
G36*
X161097142Y-141458242D02*
G01*
X161245101Y-141519529D01*
X161378255Y-141608499D01*
X161491501Y-141721745D01*
X161580471Y-141854899D01*
X161641758Y-142002858D01*
X161673000Y-142159925D01*
X161673000Y-142320075D01*
X161641758Y-142477142D01*
X161580471Y-142625101D01*
X161491501Y-142758255D01*
X161378255Y-142871501D01*
X161245101Y-142960471D01*
X161097142Y-143021758D01*
X160940075Y-143053000D01*
X160779925Y-143053000D01*
X160622858Y-143021758D01*
X160474899Y-142960471D01*
X160341745Y-142871501D01*
X160228499Y-142758255D01*
X160139529Y-142625101D01*
X160078242Y-142477142D01*
X160047000Y-142320075D01*
X160047000Y-142159925D01*
X160078242Y-142002858D01*
X160139529Y-141854899D01*
X160228499Y-141721745D01*
X160341745Y-141608499D01*
X160474899Y-141519529D01*
X160622858Y-141458242D01*
X160779925Y-141427000D01*
X160940075Y-141427000D01*
X161097142Y-141458242D01*
G37*
G36*
X163637142Y-141458242D02*
G01*
X163785101Y-141519529D01*
X163918255Y-141608499D01*
X164031501Y-141721745D01*
X164120471Y-141854899D01*
X164181758Y-142002858D01*
X164213000Y-142159925D01*
X164213000Y-142320075D01*
X164181758Y-142477142D01*
X164120471Y-142625101D01*
X164031501Y-142758255D01*
X163918255Y-142871501D01*
X163785101Y-142960471D01*
X163637142Y-143021758D01*
X163480075Y-143053000D01*
X163319925Y-143053000D01*
X163162858Y-143021758D01*
X163014899Y-142960471D01*
X162881745Y-142871501D01*
X162768499Y-142758255D01*
X162679529Y-142625101D01*
X162618242Y-142477142D01*
X162587000Y-142320075D01*
X162587000Y-142159925D01*
X162618242Y-142002858D01*
X162679529Y-141854899D01*
X162768499Y-141721745D01*
X162881745Y-141608499D01*
X163014899Y-141519529D01*
X163162858Y-141458242D01*
X163319925Y-141427000D01*
X163480075Y-141427000D01*
X163637142Y-141458242D01*
G37*
G36*
X166177142Y-141458242D02*
G01*
X166325101Y-141519529D01*
X166458255Y-141608499D01*
X166571501Y-141721745D01*
X166660471Y-141854899D01*
X166721758Y-142002858D01*
X166753000Y-142159925D01*
X166753000Y-142320075D01*
X166721758Y-142477142D01*
X166660471Y-142625101D01*
X166571501Y-142758255D01*
X166458255Y-142871501D01*
X166325101Y-142960471D01*
X166177142Y-143021758D01*
X166020075Y-143053000D01*
X165859925Y-143053000D01*
X165702858Y-143021758D01*
X165554899Y-142960471D01*
X165421745Y-142871501D01*
X165308499Y-142758255D01*
X165219529Y-142625101D01*
X165158242Y-142477142D01*
X165127000Y-142320075D01*
X165127000Y-142159925D01*
X165158242Y-142002858D01*
X165219529Y-141854899D01*
X165308499Y-141721745D01*
X165421745Y-141608499D01*
X165554899Y-141519529D01*
X165702858Y-141458242D01*
X165859925Y-141427000D01*
X166020075Y-141427000D01*
X166177142Y-141458242D01*
G37*
G36*
X168717142Y-141458242D02*
G01*
X168865101Y-141519529D01*
X168998255Y-141608499D01*
X169111501Y-141721745D01*
X169200471Y-141854899D01*
X169261758Y-142002858D01*
X169293000Y-142159925D01*
X169293000Y-142320075D01*
X169261758Y-142477142D01*
X169200471Y-142625101D01*
X169111501Y-142758255D01*
X168998255Y-142871501D01*
X168865101Y-142960471D01*
X168717142Y-143021758D01*
X168560075Y-143053000D01*
X168399925Y-143053000D01*
X168242858Y-143021758D01*
X168094899Y-142960471D01*
X167961745Y-142871501D01*
X167848499Y-142758255D01*
X167759529Y-142625101D01*
X167698242Y-142477142D01*
X167667000Y-142320075D01*
X167667000Y-142159925D01*
X167698242Y-142002858D01*
X167759529Y-141854899D01*
X167848499Y-141721745D01*
X167961745Y-141608499D01*
X168094899Y-141519529D01*
X168242858Y-141458242D01*
X168399925Y-141427000D01*
X168560075Y-141427000D01*
X168717142Y-141458242D01*
G37*
G36*
X171257142Y-141458242D02*
G01*
X171405101Y-141519529D01*
X171538255Y-141608499D01*
X171651501Y-141721745D01*
X171740471Y-141854899D01*
X171801758Y-142002858D01*
X171833000Y-142159925D01*
X171833000Y-142320075D01*
X171801758Y-142477142D01*
X171740471Y-142625101D01*
X171651501Y-142758255D01*
X171538255Y-142871501D01*
X171405101Y-142960471D01*
X171257142Y-143021758D01*
X171100075Y-143053000D01*
X170939925Y-143053000D01*
X170782858Y-143021758D01*
X170634899Y-142960471D01*
X170501745Y-142871501D01*
X170388499Y-142758255D01*
X170299529Y-142625101D01*
X170238242Y-142477142D01*
X170207000Y-142320075D01*
X170207000Y-142159925D01*
X170238242Y-142002858D01*
X170299529Y-141854899D01*
X170388499Y-141721745D01*
X170501745Y-141608499D01*
X170634899Y-141519529D01*
X170782858Y-141458242D01*
X170939925Y-141427000D01*
X171100075Y-141427000D01*
X171257142Y-141458242D01*
G37*
G36*
X173797142Y-141458242D02*
G01*
X173945101Y-141519529D01*
X174078255Y-141608499D01*
X174191501Y-141721745D01*
X174280471Y-141854899D01*
X174341758Y-142002858D01*
X174373000Y-142159925D01*
X174373000Y-142320075D01*
X174341758Y-142477142D01*
X174280471Y-142625101D01*
X174191501Y-142758255D01*
X174078255Y-142871501D01*
X173945101Y-142960471D01*
X173797142Y-143021758D01*
X173640075Y-143053000D01*
X173479925Y-143053000D01*
X173322858Y-143021758D01*
X173174899Y-142960471D01*
X173041745Y-142871501D01*
X172928499Y-142758255D01*
X172839529Y-142625101D01*
X172778242Y-142477142D01*
X172747000Y-142320075D01*
X172747000Y-142159925D01*
X172778242Y-142002858D01*
X172839529Y-141854899D01*
X172928499Y-141721745D01*
X173041745Y-141608499D01*
X173174899Y-141519529D01*
X173322858Y-141458242D01*
X173479925Y-141427000D01*
X173640075Y-141427000D01*
X173797142Y-141458242D01*
G37*
G36*
X128077142Y-141458242D02*
G01*
X128225101Y-141519529D01*
X128358255Y-141608499D01*
X128471501Y-141721745D01*
X128560471Y-141854899D01*
X128621758Y-142002858D01*
X128653000Y-142159925D01*
X128653000Y-142320075D01*
X128621758Y-142477142D01*
X128560471Y-142625101D01*
X128471501Y-142758255D01*
X128358255Y-142871501D01*
X128225101Y-142960471D01*
X128077142Y-143021758D01*
X127920075Y-143053000D01*
X127759925Y-143053000D01*
X127602858Y-143021758D01*
X127454899Y-142960471D01*
X127321745Y-142871501D01*
X127208499Y-142758255D01*
X127119529Y-142625101D01*
X127058242Y-142477142D01*
X127027000Y-142320075D01*
X127027000Y-142159925D01*
X127058242Y-142002858D01*
X127119529Y-141854899D01*
X127208499Y-141721745D01*
X127321745Y-141608499D01*
X127454899Y-141519529D01*
X127602858Y-141458242D01*
X127759925Y-141427000D01*
X127920075Y-141427000D01*
X128077142Y-141458242D01*
G37*
G36*
X125537142Y-141458242D02*
G01*
X125685101Y-141519529D01*
X125818255Y-141608499D01*
X125931501Y-141721745D01*
X126020471Y-141854899D01*
X126081758Y-142002858D01*
X126113000Y-142159925D01*
X126113000Y-142320075D01*
X126081758Y-142477142D01*
X126020471Y-142625101D01*
X125931501Y-142758255D01*
X125818255Y-142871501D01*
X125685101Y-142960471D01*
X125537142Y-143021758D01*
X125380075Y-143053000D01*
X125219925Y-143053000D01*
X125062858Y-143021758D01*
X124914899Y-142960471D01*
X124781745Y-142871501D01*
X124668499Y-142758255D01*
X124579529Y-142625101D01*
X124518242Y-142477142D01*
X124487000Y-142320075D01*
X124487000Y-142159925D01*
X124518242Y-142002858D01*
X124579529Y-141854899D01*
X124668499Y-141721745D01*
X124781745Y-141608499D01*
X124914899Y-141519529D01*
X125062858Y-141458242D01*
X125219925Y-141427000D01*
X125380075Y-141427000D01*
X125537142Y-141458242D01*
G37*
G36*
X122997142Y-141458242D02*
G01*
X123145101Y-141519529D01*
X123278255Y-141608499D01*
X123391501Y-141721745D01*
X123480471Y-141854899D01*
X123541758Y-142002858D01*
X123573000Y-142159925D01*
X123573000Y-142320075D01*
X123541758Y-142477142D01*
X123480471Y-142625101D01*
X123391501Y-142758255D01*
X123278255Y-142871501D01*
X123145101Y-142960471D01*
X122997142Y-143021758D01*
X122840075Y-143053000D01*
X122679925Y-143053000D01*
X122522858Y-143021758D01*
X122374899Y-142960471D01*
X122241745Y-142871501D01*
X122128499Y-142758255D01*
X122039529Y-142625101D01*
X121978242Y-142477142D01*
X121947000Y-142320075D01*
X121947000Y-142159925D01*
X121978242Y-142002858D01*
X122039529Y-141854899D01*
X122128499Y-141721745D01*
X122241745Y-141608499D01*
X122374899Y-141519529D01*
X122522858Y-141458242D01*
X122679925Y-141427000D01*
X122840075Y-141427000D01*
X122997142Y-141458242D01*
G37*
G36*
X115377142Y-141458242D02*
G01*
X115525101Y-141519529D01*
X115658255Y-141608499D01*
X115771501Y-141721745D01*
X115860471Y-141854899D01*
X115921758Y-142002858D01*
X115953000Y-142159925D01*
X115953000Y-142320075D01*
X115921758Y-142477142D01*
X115860471Y-142625101D01*
X115771501Y-142758255D01*
X115658255Y-142871501D01*
X115525101Y-142960471D01*
X115377142Y-143021758D01*
X115220075Y-143053000D01*
X115059925Y-143053000D01*
X114902858Y-143021758D01*
X114754899Y-142960471D01*
X114621745Y-142871501D01*
X114508499Y-142758255D01*
X114419529Y-142625101D01*
X114358242Y-142477142D01*
X114327000Y-142320075D01*
X114327000Y-142159925D01*
X114358242Y-142002858D01*
X114419529Y-141854899D01*
X114508499Y-141721745D01*
X114621745Y-141608499D01*
X114754899Y-141519529D01*
X114902858Y-141458242D01*
X115059925Y-141427000D01*
X115220075Y-141427000D01*
X115377142Y-141458242D01*
G37*
G36*
X117917142Y-141458242D02*
G01*
X118065101Y-141519529D01*
X118198255Y-141608499D01*
X118311501Y-141721745D01*
X118400471Y-141854899D01*
X118461758Y-142002858D01*
X118493000Y-142159925D01*
X118493000Y-142320075D01*
X118461758Y-142477142D01*
X118400471Y-142625101D01*
X118311501Y-142758255D01*
X118198255Y-142871501D01*
X118065101Y-142960471D01*
X117917142Y-143021758D01*
X117760075Y-143053000D01*
X117599925Y-143053000D01*
X117442858Y-143021758D01*
X117294899Y-142960471D01*
X117161745Y-142871501D01*
X117048499Y-142758255D01*
X116959529Y-142625101D01*
X116898242Y-142477142D01*
X116867000Y-142320075D01*
X116867000Y-142159925D01*
X116898242Y-142002858D01*
X116959529Y-141854899D01*
X117048499Y-141721745D01*
X117161745Y-141608499D01*
X117294899Y-141519529D01*
X117442858Y-141458242D01*
X117599925Y-141427000D01*
X117760075Y-141427000D01*
X117917142Y-141458242D01*
G37*
G36*
X120457142Y-141458242D02*
G01*
X120605101Y-141519529D01*
X120738255Y-141608499D01*
X120851501Y-141721745D01*
X120940471Y-141854899D01*
X121001758Y-142002858D01*
X121033000Y-142159925D01*
X121033000Y-142320075D01*
X121001758Y-142477142D01*
X120940471Y-142625101D01*
X120851501Y-142758255D01*
X120738255Y-142871501D01*
X120605101Y-142960471D01*
X120457142Y-143021758D01*
X120300075Y-143053000D01*
X120139925Y-143053000D01*
X119982858Y-143021758D01*
X119834899Y-142960471D01*
X119701745Y-142871501D01*
X119588499Y-142758255D01*
X119499529Y-142625101D01*
X119438242Y-142477142D01*
X119407000Y-142320075D01*
X119407000Y-142159925D01*
X119438242Y-142002858D01*
X119499529Y-141854899D01*
X119588499Y-141721745D01*
X119701745Y-141608499D01*
X119834899Y-141519529D01*
X119982858Y-141458242D01*
X120139925Y-141427000D01*
X120300075Y-141427000D01*
X120457142Y-141458242D01*
G37*
G36*
X130211766Y-133551899D02*
G01*
X130343888Y-133606626D01*
X130343890Y-133606627D01*
X130462798Y-133686079D01*
X130563921Y-133787202D01*
X130563922Y-133787204D01*
X130643374Y-133906112D01*
X130698101Y-134038234D01*
X130726000Y-134178494D01*
X130726000Y-134321506D01*
X130698101Y-134461766D01*
X130643374Y-134593888D01*
X130643373Y-134593890D01*
X130563921Y-134712798D01*
X130462798Y-134813921D01*
X130343890Y-134893373D01*
X130343889Y-134893374D01*
X130343888Y-134893374D01*
X130211766Y-134948101D01*
X130071506Y-134976000D01*
X129928494Y-134976000D01*
X129788234Y-134948101D01*
X129656112Y-134893374D01*
X129656111Y-134893374D01*
X129656110Y-134893373D01*
X129537202Y-134813921D01*
X129436079Y-134712798D01*
X129356627Y-134593890D01*
X129356626Y-134593888D01*
X129301899Y-134461766D01*
X129274000Y-134321506D01*
X129274000Y-134178494D01*
X129301899Y-134038234D01*
X129356626Y-133906112D01*
X129436078Y-133787204D01*
X129436079Y-133787202D01*
X129537202Y-133686079D01*
X129656110Y-133606627D01*
X129656112Y-133606626D01*
X129788234Y-133551899D01*
X129928494Y-133524000D01*
X130071506Y-133524000D01*
X130211766Y-133551899D01*
G37*
G36*
X128211766Y-133551899D02*
G01*
X128343888Y-133606626D01*
X128343890Y-133606627D01*
X128462798Y-133686079D01*
X128563921Y-133787202D01*
X128563922Y-133787204D01*
X128643374Y-133906112D01*
X128698101Y-134038234D01*
X128726000Y-134178494D01*
X128726000Y-134321506D01*
X128698101Y-134461766D01*
X128643374Y-134593888D01*
X128643373Y-134593890D01*
X128563921Y-134712798D01*
X128462798Y-134813921D01*
X128343890Y-134893373D01*
X128343889Y-134893374D01*
X128343888Y-134893374D01*
X128211766Y-134948101D01*
X128071506Y-134976000D01*
X127928494Y-134976000D01*
X127788234Y-134948101D01*
X127656112Y-134893374D01*
X127656111Y-134893374D01*
X127656110Y-134893373D01*
X127537202Y-134813921D01*
X127436079Y-134712798D01*
X127356627Y-134593890D01*
X127356626Y-134593888D01*
X127301899Y-134461766D01*
X127274000Y-134321506D01*
X127274000Y-134178494D01*
X127301899Y-134038234D01*
X127356626Y-133906112D01*
X127436078Y-133787204D01*
X127436079Y-133787202D01*
X127537202Y-133686079D01*
X127656110Y-133606627D01*
X127656112Y-133606626D01*
X127788234Y-133551899D01*
X127928494Y-133524000D01*
X128071506Y-133524000D01*
X128211766Y-133551899D01*
G37*
G36*
X130211766Y-131551899D02*
G01*
X130343888Y-131606626D01*
X130343890Y-131606627D01*
X130462798Y-131686079D01*
X130563921Y-131787202D01*
X130563922Y-131787204D01*
X130643374Y-131906112D01*
X130698101Y-132038234D01*
X130726000Y-132178494D01*
X130726000Y-132321506D01*
X130698101Y-132461766D01*
X130643374Y-132593888D01*
X130643373Y-132593890D01*
X130563921Y-132712798D01*
X130462798Y-132813921D01*
X130343890Y-132893373D01*
X130343889Y-132893374D01*
X130343888Y-132893374D01*
X130211766Y-132948101D01*
X130071506Y-132976000D01*
X129928494Y-132976000D01*
X129788234Y-132948101D01*
X129656112Y-132893374D01*
X129656111Y-132893374D01*
X129656110Y-132893373D01*
X129537202Y-132813921D01*
X129436079Y-132712798D01*
X129356627Y-132593890D01*
X129356626Y-132593888D01*
X129301899Y-132461766D01*
X129274000Y-132321506D01*
X129274000Y-132178494D01*
X129301899Y-132038234D01*
X129356626Y-131906112D01*
X129436078Y-131787204D01*
X129436079Y-131787202D01*
X129537202Y-131686079D01*
X129656110Y-131606627D01*
X129656112Y-131606626D01*
X129788234Y-131551899D01*
X129928494Y-131524000D01*
X130071506Y-131524000D01*
X130211766Y-131551899D01*
G37*
G36*
X128211766Y-131551899D02*
G01*
X128343888Y-131606626D01*
X128343890Y-131606627D01*
X128462798Y-131686079D01*
X128563921Y-131787202D01*
X128563922Y-131787204D01*
X128643374Y-131906112D01*
X128698101Y-132038234D01*
X128726000Y-132178494D01*
X128726000Y-132321506D01*
X128698101Y-132461766D01*
X128643374Y-132593888D01*
X128643373Y-132593890D01*
X128563921Y-132712798D01*
X128462798Y-132813921D01*
X128343890Y-132893373D01*
X128343889Y-132893374D01*
X128343888Y-132893374D01*
X128211766Y-132948101D01*
X128071506Y-132976000D01*
X127928494Y-132976000D01*
X127788234Y-132948101D01*
X127656112Y-132893374D01*
X127656111Y-132893374D01*
X127656110Y-132893373D01*
X127537202Y-132813921D01*
X127436079Y-132712798D01*
X127356627Y-132593890D01*
X127356626Y-132593888D01*
X127301899Y-132461766D01*
X127274000Y-132321506D01*
X127274000Y-132178494D01*
X127301899Y-132038234D01*
X127356626Y-131906112D01*
X127436078Y-131787204D01*
X127436079Y-131787202D01*
X127537202Y-131686079D01*
X127656110Y-131606627D01*
X127656112Y-131606626D01*
X127788234Y-131551899D01*
X127928494Y-131524000D01*
X128071506Y-131524000D01*
X128211766Y-131551899D01*
G37*
G36*
X128726000Y-130976000D02*
G01*
X127274000Y-130976000D01*
X127274000Y-129524000D01*
X128726000Y-129524000D01*
X128726000Y-130976000D01*
G37*
G36*
X130211766Y-129551899D02*
G01*
X130343888Y-129606626D01*
X130343890Y-129606627D01*
X130462798Y-129686079D01*
X130563921Y-129787202D01*
X130563922Y-129787204D01*
X130643374Y-129906112D01*
X130698101Y-130038234D01*
X130726000Y-130178494D01*
X130726000Y-130321506D01*
X130698101Y-130461766D01*
X130643374Y-130593888D01*
X130643373Y-130593890D01*
X130563921Y-130712798D01*
X130462798Y-130813921D01*
X130343890Y-130893373D01*
X130343889Y-130893374D01*
X130343888Y-130893374D01*
X130211766Y-130948101D01*
X130071506Y-130976000D01*
X129928494Y-130976000D01*
X129788234Y-130948101D01*
X129656112Y-130893374D01*
X129656111Y-130893374D01*
X129656110Y-130893373D01*
X129537202Y-130813921D01*
X129436079Y-130712798D01*
X129356627Y-130593890D01*
X129356626Y-130593888D01*
X129301899Y-130461766D01*
X129274000Y-130321506D01*
X129274000Y-130178494D01*
X129301899Y-130038234D01*
X129356626Y-129906112D01*
X129436078Y-129787204D01*
X129436079Y-129787202D01*
X129537202Y-129686079D01*
X129656110Y-129606627D01*
X129656112Y-129606626D01*
X129788234Y-129551899D01*
X129928494Y-129524000D01*
X130071506Y-129524000D01*
X130211766Y-129551899D01*
G37*
G36*
X194851000Y-128851000D02*
G01*
X193149000Y-128851000D01*
X193149000Y-127149000D01*
X194851000Y-127149000D01*
X194851000Y-128851000D01*
G37*
G36*
X196248228Y-127181703D02*
G01*
X196403100Y-127245853D01*
X196542481Y-127338985D01*
X196661015Y-127457519D01*
X196754147Y-127596900D01*
X196818297Y-127751772D01*
X196851000Y-127916184D01*
X196851000Y-128083816D01*
X196818297Y-128248228D01*
X196754147Y-128403100D01*
X196661015Y-128542481D01*
X196542481Y-128661015D01*
X196403100Y-128754147D01*
X196248228Y-128818297D01*
X196083816Y-128851000D01*
X195916184Y-128851000D01*
X195751772Y-128818297D01*
X195596900Y-128754147D01*
X195457519Y-128661015D01*
X195338985Y-128542481D01*
X195245853Y-128403100D01*
X195181703Y-128248228D01*
X195149000Y-128083816D01*
X195149000Y-127916184D01*
X195181703Y-127751772D01*
X195245853Y-127596900D01*
X195338985Y-127457519D01*
X195457519Y-127338985D01*
X195596900Y-127245853D01*
X195751772Y-127181703D01*
X195916184Y-127149000D01*
X196083816Y-127149000D01*
X196248228Y-127181703D01*
G37*
G36*
X208248228Y-127181703D02*
G01*
X208403100Y-127245853D01*
X208542481Y-127338985D01*
X208661015Y-127457519D01*
X208754147Y-127596900D01*
X208818297Y-127751772D01*
X208851000Y-127916184D01*
X208851000Y-128083816D01*
X208818297Y-128248228D01*
X208754147Y-128403100D01*
X208661015Y-128542481D01*
X208542481Y-128661015D01*
X208403100Y-128754147D01*
X208248228Y-128818297D01*
X208083816Y-128851000D01*
X207916184Y-128851000D01*
X207751772Y-128818297D01*
X207596900Y-128754147D01*
X207457519Y-128661015D01*
X207338985Y-128542481D01*
X207245853Y-128403100D01*
X207181703Y-128248228D01*
X207149000Y-128083816D01*
X207149000Y-127916184D01*
X207181703Y-127751772D01*
X207245853Y-127596900D01*
X207338985Y-127457519D01*
X207457519Y-127338985D01*
X207596900Y-127245853D01*
X207751772Y-127181703D01*
X207916184Y-127149000D01*
X208083816Y-127149000D01*
X208248228Y-127181703D01*
G37*
G36*
X206851000Y-128851000D02*
G01*
X205149000Y-128851000D01*
X205149000Y-127149000D01*
X206851000Y-127149000D01*
X206851000Y-128851000D01*
G37*
G36*
X138237142Y-126218242D02*
G01*
X138385101Y-126279529D01*
X138518255Y-126368499D01*
X138631501Y-126481745D01*
X138720471Y-126614899D01*
X138781758Y-126762858D01*
X138813000Y-126919925D01*
X138813000Y-127080075D01*
X138781758Y-127237142D01*
X138720471Y-127385101D01*
X138631501Y-127518255D01*
X138518255Y-127631501D01*
X138385101Y-127720471D01*
X138237142Y-127781758D01*
X138080075Y-127813000D01*
X137919925Y-127813000D01*
X137762858Y-127781758D01*
X137614899Y-127720471D01*
X137481745Y-127631501D01*
X137368499Y-127518255D01*
X137279529Y-127385101D01*
X137218242Y-127237142D01*
X137187000Y-127080075D01*
X137187000Y-126919925D01*
X137218242Y-126762858D01*
X137279529Y-126614899D01*
X137368499Y-126481745D01*
X137481745Y-126368499D01*
X137614899Y-126279529D01*
X137762858Y-126218242D01*
X137919925Y-126187000D01*
X138080075Y-126187000D01*
X138237142Y-126218242D01*
G37*
G36*
X135697142Y-126218242D02*
G01*
X135845101Y-126279529D01*
X135978255Y-126368499D01*
X136091501Y-126481745D01*
X136180471Y-126614899D01*
X136241758Y-126762858D01*
X136273000Y-126919925D01*
X136273000Y-127080075D01*
X136241758Y-127237142D01*
X136180471Y-127385101D01*
X136091501Y-127518255D01*
X135978255Y-127631501D01*
X135845101Y-127720471D01*
X135697142Y-127781758D01*
X135540075Y-127813000D01*
X135379925Y-127813000D01*
X135222858Y-127781758D01*
X135074899Y-127720471D01*
X134941745Y-127631501D01*
X134828499Y-127518255D01*
X134739529Y-127385101D01*
X134678242Y-127237142D01*
X134647000Y-127080075D01*
X134647000Y-126919925D01*
X134678242Y-126762858D01*
X134739529Y-126614899D01*
X134828499Y-126481745D01*
X134941745Y-126368499D01*
X135074899Y-126279529D01*
X135222858Y-126218242D01*
X135379925Y-126187000D01*
X135540075Y-126187000D01*
X135697142Y-126218242D01*
G37*
G36*
X133157142Y-126218242D02*
G01*
X133305101Y-126279529D01*
X133438255Y-126368499D01*
X133551501Y-126481745D01*
X133640471Y-126614899D01*
X133701758Y-126762858D01*
X133733000Y-126919925D01*
X133733000Y-127080075D01*
X133701758Y-127237142D01*
X133640471Y-127385101D01*
X133551501Y-127518255D01*
X133438255Y-127631501D01*
X133305101Y-127720471D01*
X133157142Y-127781758D01*
X133000075Y-127813000D01*
X132839925Y-127813000D01*
X132682858Y-127781758D01*
X132534899Y-127720471D01*
X132401745Y-127631501D01*
X132288499Y-127518255D01*
X132199529Y-127385101D01*
X132138242Y-127237142D01*
X132107000Y-127080075D01*
X132107000Y-126919925D01*
X132138242Y-126762858D01*
X132199529Y-126614899D01*
X132288499Y-126481745D01*
X132401745Y-126368499D01*
X132534899Y-126279529D01*
X132682858Y-126218242D01*
X132839925Y-126187000D01*
X133000075Y-126187000D01*
X133157142Y-126218242D01*
G37*
G36*
X130617142Y-126218242D02*
G01*
X130765101Y-126279529D01*
X130898255Y-126368499D01*
X131011501Y-126481745D01*
X131100471Y-126614899D01*
X131161758Y-126762858D01*
X131193000Y-126919925D01*
X131193000Y-127080075D01*
X131161758Y-127237142D01*
X131100471Y-127385101D01*
X131011501Y-127518255D01*
X130898255Y-127631501D01*
X130765101Y-127720471D01*
X130617142Y-127781758D01*
X130460075Y-127813000D01*
X130299925Y-127813000D01*
X130142858Y-127781758D01*
X129994899Y-127720471D01*
X129861745Y-127631501D01*
X129748499Y-127518255D01*
X129659529Y-127385101D01*
X129598242Y-127237142D01*
X129567000Y-127080075D01*
X129567000Y-126919925D01*
X129598242Y-126762858D01*
X129659529Y-126614899D01*
X129748499Y-126481745D01*
X129861745Y-126368499D01*
X129994899Y-126279529D01*
X130142858Y-126218242D01*
X130299925Y-126187000D01*
X130460075Y-126187000D01*
X130617142Y-126218242D01*
G37*
G36*
X128077142Y-126218242D02*
G01*
X128225101Y-126279529D01*
X128358255Y-126368499D01*
X128471501Y-126481745D01*
X128560471Y-126614899D01*
X128621758Y-126762858D01*
X128653000Y-126919925D01*
X128653000Y-127080075D01*
X128621758Y-127237142D01*
X128560471Y-127385101D01*
X128471501Y-127518255D01*
X128358255Y-127631501D01*
X128225101Y-127720471D01*
X128077142Y-127781758D01*
X127920075Y-127813000D01*
X127759925Y-127813000D01*
X127602858Y-127781758D01*
X127454899Y-127720471D01*
X127321745Y-127631501D01*
X127208499Y-127518255D01*
X127119529Y-127385101D01*
X127058242Y-127237142D01*
X127027000Y-127080075D01*
X127027000Y-126919925D01*
X127058242Y-126762858D01*
X127119529Y-126614899D01*
X127208499Y-126481745D01*
X127321745Y-126368499D01*
X127454899Y-126279529D01*
X127602858Y-126218242D01*
X127759925Y-126187000D01*
X127920075Y-126187000D01*
X128077142Y-126218242D01*
G37*
G36*
X125537142Y-126218242D02*
G01*
X125685101Y-126279529D01*
X125818255Y-126368499D01*
X125931501Y-126481745D01*
X126020471Y-126614899D01*
X126081758Y-126762858D01*
X126113000Y-126919925D01*
X126113000Y-127080075D01*
X126081758Y-127237142D01*
X126020471Y-127385101D01*
X125931501Y-127518255D01*
X125818255Y-127631501D01*
X125685101Y-127720471D01*
X125537142Y-127781758D01*
X125380075Y-127813000D01*
X125219925Y-127813000D01*
X125062858Y-127781758D01*
X124914899Y-127720471D01*
X124781745Y-127631501D01*
X124668499Y-127518255D01*
X124579529Y-127385101D01*
X124518242Y-127237142D01*
X124487000Y-127080075D01*
X124487000Y-126919925D01*
X124518242Y-126762858D01*
X124579529Y-126614899D01*
X124668499Y-126481745D01*
X124781745Y-126368499D01*
X124914899Y-126279529D01*
X125062858Y-126218242D01*
X125219925Y-126187000D01*
X125380075Y-126187000D01*
X125537142Y-126218242D01*
G37*
G36*
X122997142Y-126218242D02*
G01*
X123145101Y-126279529D01*
X123278255Y-126368499D01*
X123391501Y-126481745D01*
X123480471Y-126614899D01*
X123541758Y-126762858D01*
X123573000Y-126919925D01*
X123573000Y-127080075D01*
X123541758Y-127237142D01*
X123480471Y-127385101D01*
X123391501Y-127518255D01*
X123278255Y-127631501D01*
X123145101Y-127720471D01*
X122997142Y-127781758D01*
X122840075Y-127813000D01*
X122679925Y-127813000D01*
X122522858Y-127781758D01*
X122374899Y-127720471D01*
X122241745Y-127631501D01*
X122128499Y-127518255D01*
X122039529Y-127385101D01*
X121978242Y-127237142D01*
X121947000Y-127080075D01*
X121947000Y-126919925D01*
X121978242Y-126762858D01*
X122039529Y-126614899D01*
X122128499Y-126481745D01*
X122241745Y-126368499D01*
X122374899Y-126279529D01*
X122522858Y-126218242D01*
X122679925Y-126187000D01*
X122840075Y-126187000D01*
X122997142Y-126218242D01*
G37*
G36*
X120457142Y-126218242D02*
G01*
X120605101Y-126279529D01*
X120738255Y-126368499D01*
X120851501Y-126481745D01*
X120940471Y-126614899D01*
X121001758Y-126762858D01*
X121033000Y-126919925D01*
X121033000Y-127080075D01*
X121001758Y-127237142D01*
X120940471Y-127385101D01*
X120851501Y-127518255D01*
X120738255Y-127631501D01*
X120605101Y-127720471D01*
X120457142Y-127781758D01*
X120300075Y-127813000D01*
X120139925Y-127813000D01*
X119982858Y-127781758D01*
X119834899Y-127720471D01*
X119701745Y-127631501D01*
X119588499Y-127518255D01*
X119499529Y-127385101D01*
X119438242Y-127237142D01*
X119407000Y-127080075D01*
X119407000Y-126919925D01*
X119438242Y-126762858D01*
X119499529Y-126614899D01*
X119588499Y-126481745D01*
X119701745Y-126368499D01*
X119834899Y-126279529D01*
X119982858Y-126218242D01*
X120139925Y-126187000D01*
X120300075Y-126187000D01*
X120457142Y-126218242D01*
G37*
G36*
X117917142Y-126218242D02*
G01*
X118065101Y-126279529D01*
X118198255Y-126368499D01*
X118311501Y-126481745D01*
X118400471Y-126614899D01*
X118461758Y-126762858D01*
X118493000Y-126919925D01*
X118493000Y-127080075D01*
X118461758Y-127237142D01*
X118400471Y-127385101D01*
X118311501Y-127518255D01*
X118198255Y-127631501D01*
X118065101Y-127720471D01*
X117917142Y-127781758D01*
X117760075Y-127813000D01*
X117599925Y-127813000D01*
X117442858Y-127781758D01*
X117294899Y-127720471D01*
X117161745Y-127631501D01*
X117048499Y-127518255D01*
X116959529Y-127385101D01*
X116898242Y-127237142D01*
X116867000Y-127080075D01*
X116867000Y-126919925D01*
X116898242Y-126762858D01*
X116959529Y-126614899D01*
X117048499Y-126481745D01*
X117161745Y-126368499D01*
X117294899Y-126279529D01*
X117442858Y-126218242D01*
X117599925Y-126187000D01*
X117760075Y-126187000D01*
X117917142Y-126218242D01*
G37*
G36*
X115377142Y-126218242D02*
G01*
X115525101Y-126279529D01*
X115658255Y-126368499D01*
X115771501Y-126481745D01*
X115860471Y-126614899D01*
X115921758Y-126762858D01*
X115953000Y-126919925D01*
X115953000Y-127080075D01*
X115921758Y-127237142D01*
X115860471Y-127385101D01*
X115771501Y-127518255D01*
X115658255Y-127631501D01*
X115525101Y-127720471D01*
X115377142Y-127781758D01*
X115220075Y-127813000D01*
X115059925Y-127813000D01*
X114902858Y-127781758D01*
X114754899Y-127720471D01*
X114621745Y-127631501D01*
X114508499Y-127518255D01*
X114419529Y-127385101D01*
X114358242Y-127237142D01*
X114327000Y-127080075D01*
X114327000Y-126919925D01*
X114358242Y-126762858D01*
X114419529Y-126614899D01*
X114508499Y-126481745D01*
X114621745Y-126368499D01*
X114754899Y-126279529D01*
X114902858Y-126218242D01*
X115059925Y-126187000D01*
X115220075Y-126187000D01*
X115377142Y-126218242D01*
G37*
G36*
X161097142Y-126218242D02*
G01*
X161245101Y-126279529D01*
X161378255Y-126368499D01*
X161491501Y-126481745D01*
X161580471Y-126614899D01*
X161641758Y-126762858D01*
X161673000Y-126919925D01*
X161673000Y-127080075D01*
X161641758Y-127237142D01*
X161580471Y-127385101D01*
X161491501Y-127518255D01*
X161378255Y-127631501D01*
X161245101Y-127720471D01*
X161097142Y-127781758D01*
X160940075Y-127813000D01*
X160779925Y-127813000D01*
X160622858Y-127781758D01*
X160474899Y-127720471D01*
X160341745Y-127631501D01*
X160228499Y-127518255D01*
X160139529Y-127385101D01*
X160078242Y-127237142D01*
X160047000Y-127080075D01*
X160047000Y-126919925D01*
X160078242Y-126762858D01*
X160139529Y-126614899D01*
X160228499Y-126481745D01*
X160341745Y-126368499D01*
X160474899Y-126279529D01*
X160622858Y-126218242D01*
X160779925Y-126187000D01*
X160940075Y-126187000D01*
X161097142Y-126218242D01*
G37*
G36*
X163637142Y-126218242D02*
G01*
X163785101Y-126279529D01*
X163918255Y-126368499D01*
X164031501Y-126481745D01*
X164120471Y-126614899D01*
X164181758Y-126762858D01*
X164213000Y-126919925D01*
X164213000Y-127080075D01*
X164181758Y-127237142D01*
X164120471Y-127385101D01*
X164031501Y-127518255D01*
X163918255Y-127631501D01*
X163785101Y-127720471D01*
X163637142Y-127781758D01*
X163480075Y-127813000D01*
X163319925Y-127813000D01*
X163162858Y-127781758D01*
X163014899Y-127720471D01*
X162881745Y-127631501D01*
X162768499Y-127518255D01*
X162679529Y-127385101D01*
X162618242Y-127237142D01*
X162587000Y-127080075D01*
X162587000Y-126919925D01*
X162618242Y-126762858D01*
X162679529Y-126614899D01*
X162768499Y-126481745D01*
X162881745Y-126368499D01*
X163014899Y-126279529D01*
X163162858Y-126218242D01*
X163319925Y-126187000D01*
X163480075Y-126187000D01*
X163637142Y-126218242D01*
G37*
G36*
X166177142Y-126218242D02*
G01*
X166325101Y-126279529D01*
X166458255Y-126368499D01*
X166571501Y-126481745D01*
X166660471Y-126614899D01*
X166721758Y-126762858D01*
X166753000Y-126919925D01*
X166753000Y-127080075D01*
X166721758Y-127237142D01*
X166660471Y-127385101D01*
X166571501Y-127518255D01*
X166458255Y-127631501D01*
X166325101Y-127720471D01*
X166177142Y-127781758D01*
X166020075Y-127813000D01*
X165859925Y-127813000D01*
X165702858Y-127781758D01*
X165554899Y-127720471D01*
X165421745Y-127631501D01*
X165308499Y-127518255D01*
X165219529Y-127385101D01*
X165158242Y-127237142D01*
X165127000Y-127080075D01*
X165127000Y-126919925D01*
X165158242Y-126762858D01*
X165219529Y-126614899D01*
X165308499Y-126481745D01*
X165421745Y-126368499D01*
X165554899Y-126279529D01*
X165702858Y-126218242D01*
X165859925Y-126187000D01*
X166020075Y-126187000D01*
X166177142Y-126218242D01*
G37*
G36*
X168717142Y-126218242D02*
G01*
X168865101Y-126279529D01*
X168998255Y-126368499D01*
X169111501Y-126481745D01*
X169200471Y-126614899D01*
X169261758Y-126762858D01*
X169293000Y-126919925D01*
X169293000Y-127080075D01*
X169261758Y-127237142D01*
X169200471Y-127385101D01*
X169111501Y-127518255D01*
X168998255Y-127631501D01*
X168865101Y-127720471D01*
X168717142Y-127781758D01*
X168560075Y-127813000D01*
X168399925Y-127813000D01*
X168242858Y-127781758D01*
X168094899Y-127720471D01*
X167961745Y-127631501D01*
X167848499Y-127518255D01*
X167759529Y-127385101D01*
X167698242Y-127237142D01*
X167667000Y-127080075D01*
X167667000Y-126919925D01*
X167698242Y-126762858D01*
X167759529Y-126614899D01*
X167848499Y-126481745D01*
X167961745Y-126368499D01*
X168094899Y-126279529D01*
X168242858Y-126218242D01*
X168399925Y-126187000D01*
X168560075Y-126187000D01*
X168717142Y-126218242D01*
G37*
G36*
X171257142Y-126218242D02*
G01*
X171405101Y-126279529D01*
X171538255Y-126368499D01*
X171651501Y-126481745D01*
X171740471Y-126614899D01*
X171801758Y-126762858D01*
X171833000Y-126919925D01*
X171833000Y-127080075D01*
X171801758Y-127237142D01*
X171740471Y-127385101D01*
X171651501Y-127518255D01*
X171538255Y-127631501D01*
X171405101Y-127720471D01*
X171257142Y-127781758D01*
X171100075Y-127813000D01*
X170939925Y-127813000D01*
X170782858Y-127781758D01*
X170634899Y-127720471D01*
X170501745Y-127631501D01*
X170388499Y-127518255D01*
X170299529Y-127385101D01*
X170238242Y-127237142D01*
X170207000Y-127080075D01*
X170207000Y-126919925D01*
X170238242Y-126762858D01*
X170299529Y-126614899D01*
X170388499Y-126481745D01*
X170501745Y-126368499D01*
X170634899Y-126279529D01*
X170782858Y-126218242D01*
X170939925Y-126187000D01*
X171100075Y-126187000D01*
X171257142Y-126218242D01*
G37*
G36*
X140777142Y-126218242D02*
G01*
X140925101Y-126279529D01*
X141058255Y-126368499D01*
X141171501Y-126481745D01*
X141260471Y-126614899D01*
X141321758Y-126762858D01*
X141353000Y-126919925D01*
X141353000Y-127080075D01*
X141321758Y-127237142D01*
X141260471Y-127385101D01*
X141171501Y-127518255D01*
X141058255Y-127631501D01*
X140925101Y-127720471D01*
X140777142Y-127781758D01*
X140620075Y-127813000D01*
X140459925Y-127813000D01*
X140302858Y-127781758D01*
X140154899Y-127720471D01*
X140021745Y-127631501D01*
X139908499Y-127518255D01*
X139819529Y-127385101D01*
X139758242Y-127237142D01*
X139727000Y-127080075D01*
X139727000Y-126919925D01*
X139758242Y-126762858D01*
X139819529Y-126614899D01*
X139908499Y-126481745D01*
X140021745Y-126368499D01*
X140154899Y-126279529D01*
X140302858Y-126218242D01*
X140459925Y-126187000D01*
X140620075Y-126187000D01*
X140777142Y-126218242D01*
G37*
G36*
X143317142Y-126218242D02*
G01*
X143465101Y-126279529D01*
X143598255Y-126368499D01*
X143711501Y-126481745D01*
X143800471Y-126614899D01*
X143861758Y-126762858D01*
X143893000Y-126919925D01*
X143893000Y-127080075D01*
X143861758Y-127237142D01*
X143800471Y-127385101D01*
X143711501Y-127518255D01*
X143598255Y-127631501D01*
X143465101Y-127720471D01*
X143317142Y-127781758D01*
X143160075Y-127813000D01*
X142999925Y-127813000D01*
X142842858Y-127781758D01*
X142694899Y-127720471D01*
X142561745Y-127631501D01*
X142448499Y-127518255D01*
X142359529Y-127385101D01*
X142298242Y-127237142D01*
X142267000Y-127080075D01*
X142267000Y-126919925D01*
X142298242Y-126762858D01*
X142359529Y-126614899D01*
X142448499Y-126481745D01*
X142561745Y-126368499D01*
X142694899Y-126279529D01*
X142842858Y-126218242D01*
X142999925Y-126187000D01*
X143160075Y-126187000D01*
X143317142Y-126218242D01*
G37*
G36*
X145857142Y-126218242D02*
G01*
X146005101Y-126279529D01*
X146138255Y-126368499D01*
X146251501Y-126481745D01*
X146340471Y-126614899D01*
X146401758Y-126762858D01*
X146433000Y-126919925D01*
X146433000Y-127080075D01*
X146401758Y-127237142D01*
X146340471Y-127385101D01*
X146251501Y-127518255D01*
X146138255Y-127631501D01*
X146005101Y-127720471D01*
X145857142Y-127781758D01*
X145700075Y-127813000D01*
X145539925Y-127813000D01*
X145382858Y-127781758D01*
X145234899Y-127720471D01*
X145101745Y-127631501D01*
X144988499Y-127518255D01*
X144899529Y-127385101D01*
X144838242Y-127237142D01*
X144807000Y-127080075D01*
X144807000Y-126919925D01*
X144838242Y-126762858D01*
X144899529Y-126614899D01*
X144988499Y-126481745D01*
X145101745Y-126368499D01*
X145234899Y-126279529D01*
X145382858Y-126218242D01*
X145539925Y-126187000D01*
X145700075Y-126187000D01*
X145857142Y-126218242D01*
G37*
G36*
X158557142Y-126218242D02*
G01*
X158705101Y-126279529D01*
X158838255Y-126368499D01*
X158951501Y-126481745D01*
X159040471Y-126614899D01*
X159101758Y-126762858D01*
X159133000Y-126919925D01*
X159133000Y-127080075D01*
X159101758Y-127237142D01*
X159040471Y-127385101D01*
X158951501Y-127518255D01*
X158838255Y-127631501D01*
X158705101Y-127720471D01*
X158557142Y-127781758D01*
X158400075Y-127813000D01*
X158239925Y-127813000D01*
X158082858Y-127781758D01*
X157934899Y-127720471D01*
X157801745Y-127631501D01*
X157688499Y-127518255D01*
X157599529Y-127385101D01*
X157538242Y-127237142D01*
X157507000Y-127080075D01*
X157507000Y-126919925D01*
X157538242Y-126762858D01*
X157599529Y-126614899D01*
X157688499Y-126481745D01*
X157801745Y-126368499D01*
X157934899Y-126279529D01*
X158082858Y-126218242D01*
X158239925Y-126187000D01*
X158400075Y-126187000D01*
X158557142Y-126218242D01*
G37*
G36*
X173797142Y-126218242D02*
G01*
X173945101Y-126279529D01*
X174078255Y-126368499D01*
X174191501Y-126481745D01*
X174280471Y-126614899D01*
X174341758Y-126762858D01*
X174373000Y-126919925D01*
X174373000Y-127080075D01*
X174341758Y-127237142D01*
X174280471Y-127385101D01*
X174191501Y-127518255D01*
X174078255Y-127631501D01*
X173945101Y-127720471D01*
X173797142Y-127781758D01*
X173640075Y-127813000D01*
X173479925Y-127813000D01*
X173322858Y-127781758D01*
X173174899Y-127720471D01*
X173041745Y-127631501D01*
X172928499Y-127518255D01*
X172839529Y-127385101D01*
X172778242Y-127237142D01*
X172747000Y-127080075D01*
X172747000Y-126919925D01*
X172778242Y-126762858D01*
X172839529Y-126614899D01*
X172928499Y-126481745D01*
X173041745Y-126368499D01*
X173174899Y-126279529D01*
X173322858Y-126218242D01*
X173479925Y-126187000D01*
X173640075Y-126187000D01*
X173797142Y-126218242D01*
G37*
G36*
X150937142Y-126218242D02*
G01*
X151085101Y-126279529D01*
X151218255Y-126368499D01*
X151331501Y-126481745D01*
X151420471Y-126614899D01*
X151481758Y-126762858D01*
X151513000Y-126919925D01*
X151513000Y-127080075D01*
X151481758Y-127237142D01*
X151420471Y-127385101D01*
X151331501Y-127518255D01*
X151218255Y-127631501D01*
X151085101Y-127720471D01*
X150937142Y-127781758D01*
X150780075Y-127813000D01*
X150619925Y-127813000D01*
X150462858Y-127781758D01*
X150314899Y-127720471D01*
X150181745Y-127631501D01*
X150068499Y-127518255D01*
X149979529Y-127385101D01*
X149918242Y-127237142D01*
X149887000Y-127080075D01*
X149887000Y-126919925D01*
X149918242Y-126762858D01*
X149979529Y-126614899D01*
X150068499Y-126481745D01*
X150181745Y-126368499D01*
X150314899Y-126279529D01*
X150462858Y-126218242D01*
X150619925Y-126187000D01*
X150780075Y-126187000D01*
X150937142Y-126218242D01*
G37*
G36*
X153477142Y-126218242D02*
G01*
X153625101Y-126279529D01*
X153758255Y-126368499D01*
X153871501Y-126481745D01*
X153960471Y-126614899D01*
X154021758Y-126762858D01*
X154053000Y-126919925D01*
X154053000Y-127080075D01*
X154021758Y-127237142D01*
X153960471Y-127385101D01*
X153871501Y-127518255D01*
X153758255Y-127631501D01*
X153625101Y-127720471D01*
X153477142Y-127781758D01*
X153320075Y-127813000D01*
X153159925Y-127813000D01*
X153002858Y-127781758D01*
X152854899Y-127720471D01*
X152721745Y-127631501D01*
X152608499Y-127518255D01*
X152519529Y-127385101D01*
X152458242Y-127237142D01*
X152427000Y-127080075D01*
X152427000Y-126919925D01*
X152458242Y-126762858D01*
X152519529Y-126614899D01*
X152608499Y-126481745D01*
X152721745Y-126368499D01*
X152854899Y-126279529D01*
X153002858Y-126218242D01*
X153159925Y-126187000D01*
X153320075Y-126187000D01*
X153477142Y-126218242D01*
G37*
G36*
X156017142Y-126218242D02*
G01*
X156165101Y-126279529D01*
X156298255Y-126368499D01*
X156411501Y-126481745D01*
X156500471Y-126614899D01*
X156561758Y-126762858D01*
X156593000Y-126919925D01*
X156593000Y-127080075D01*
X156561758Y-127237142D01*
X156500471Y-127385101D01*
X156411501Y-127518255D01*
X156298255Y-127631501D01*
X156165101Y-127720471D01*
X156017142Y-127781758D01*
X155860075Y-127813000D01*
X155699925Y-127813000D01*
X155542858Y-127781758D01*
X155394899Y-127720471D01*
X155261745Y-127631501D01*
X155148499Y-127518255D01*
X155059529Y-127385101D01*
X154998242Y-127237142D01*
X154967000Y-127080075D01*
X154967000Y-126919925D01*
X154998242Y-126762858D01*
X155059529Y-126614899D01*
X155148499Y-126481745D01*
X155261745Y-126368499D01*
X155394899Y-126279529D01*
X155542858Y-126218242D01*
X155699925Y-126187000D01*
X155860075Y-126187000D01*
X156017142Y-126218242D01*
G37*
G36*
X148397142Y-126218242D02*
G01*
X148545101Y-126279529D01*
X148678255Y-126368499D01*
X148791501Y-126481745D01*
X148880471Y-126614899D01*
X148941758Y-126762858D01*
X148973000Y-126919925D01*
X148973000Y-127080075D01*
X148941758Y-127237142D01*
X148880471Y-127385101D01*
X148791501Y-127518255D01*
X148678255Y-127631501D01*
X148545101Y-127720471D01*
X148397142Y-127781758D01*
X148240075Y-127813000D01*
X148079925Y-127813000D01*
X147922858Y-127781758D01*
X147774899Y-127720471D01*
X147641745Y-127631501D01*
X147528499Y-127518255D01*
X147439529Y-127385101D01*
X147378242Y-127237142D01*
X147347000Y-127080075D01*
X147347000Y-126919925D01*
X147378242Y-126762858D01*
X147439529Y-126614899D01*
X147528499Y-126481745D01*
X147641745Y-126368499D01*
X147774899Y-126279529D01*
X147922858Y-126218242D01*
X148079925Y-126187000D01*
X148240075Y-126187000D01*
X148397142Y-126218242D01*
G37*
G36*
X167621000Y-121441000D02*
G01*
X165819000Y-121441000D01*
X165819000Y-119639000D01*
X167621000Y-119639000D01*
X167621000Y-121441000D01*
G37*
G36*
X174453512Y-119643927D02*
G01*
X174602812Y-119673624D01*
X174766784Y-119741544D01*
X174914354Y-119840147D01*
X175039853Y-119965646D01*
X175138456Y-120113216D01*
X175206376Y-120277188D01*
X175241000Y-120451259D01*
X175241000Y-120628741D01*
X175206376Y-120802812D01*
X175138456Y-120966784D01*
X175039853Y-121114354D01*
X174914354Y-121239853D01*
X174766784Y-121338456D01*
X174602812Y-121406376D01*
X174453512Y-121436073D01*
X174428742Y-121441000D01*
X174251258Y-121441000D01*
X174226488Y-121436073D01*
X174077188Y-121406376D01*
X173913216Y-121338456D01*
X173765646Y-121239853D01*
X173640147Y-121114354D01*
X173541544Y-120966784D01*
X173473624Y-120802812D01*
X173439000Y-120628741D01*
X173439000Y-120451259D01*
X173473624Y-120277188D01*
X173541544Y-120113216D01*
X173640147Y-119965646D01*
X173765646Y-119840147D01*
X173913216Y-119741544D01*
X174077188Y-119673624D01*
X174226488Y-119643927D01*
X174251258Y-119639000D01*
X174428742Y-119639000D01*
X174453512Y-119643927D01*
G37*
G36*
X169373512Y-119643927D02*
G01*
X169522812Y-119673624D01*
X169686784Y-119741544D01*
X169834354Y-119840147D01*
X169959853Y-119965646D01*
X170058456Y-120113216D01*
X170126376Y-120277188D01*
X170161000Y-120451259D01*
X170161000Y-120628741D01*
X170126376Y-120802812D01*
X170058456Y-120966784D01*
X169959853Y-121114354D01*
X169834354Y-121239853D01*
X169686784Y-121338456D01*
X169522812Y-121406376D01*
X169373512Y-121436073D01*
X169348742Y-121441000D01*
X169171258Y-121441000D01*
X169146488Y-121436073D01*
X168997188Y-121406376D01*
X168833216Y-121338456D01*
X168685646Y-121239853D01*
X168560147Y-121114354D01*
X168461544Y-120966784D01*
X168393624Y-120802812D01*
X168359000Y-120628741D01*
X168359000Y-120451259D01*
X168393624Y-120277188D01*
X168461544Y-120113216D01*
X168560147Y-119965646D01*
X168685646Y-119840147D01*
X168833216Y-119741544D01*
X168997188Y-119673624D01*
X169146488Y-119643927D01*
X169171258Y-119639000D01*
X169348742Y-119639000D01*
X169373512Y-119643927D01*
G37*
G36*
X171913512Y-119643927D02*
G01*
X172062812Y-119673624D01*
X172226784Y-119741544D01*
X172374354Y-119840147D01*
X172499853Y-119965646D01*
X172598456Y-120113216D01*
X172666376Y-120277188D01*
X172701000Y-120451259D01*
X172701000Y-120628741D01*
X172666376Y-120802812D01*
X172598456Y-120966784D01*
X172499853Y-121114354D01*
X172374354Y-121239853D01*
X172226784Y-121338456D01*
X172062812Y-121406376D01*
X171913512Y-121436073D01*
X171888742Y-121441000D01*
X171711258Y-121441000D01*
X171686488Y-121436073D01*
X171537188Y-121406376D01*
X171373216Y-121338456D01*
X171225646Y-121239853D01*
X171100147Y-121114354D01*
X171001544Y-120966784D01*
X170933624Y-120802812D01*
X170899000Y-120628741D01*
X170899000Y-120451259D01*
X170933624Y-120277188D01*
X171001544Y-120113216D01*
X171100147Y-119965646D01*
X171225646Y-119840147D01*
X171373216Y-119741544D01*
X171537188Y-119673624D01*
X171686488Y-119643927D01*
X171711258Y-119639000D01*
X171888742Y-119639000D01*
X171913512Y-119643927D01*
G37*
G36*
X199689890Y-118074017D02*
G01*
X199783769Y-118112903D01*
X199808364Y-118123091D01*
X199914988Y-118194335D01*
X200005665Y-118285012D01*
X200076909Y-118391636D01*
X200125315Y-118508497D01*
X200125983Y-118510111D01*
X200127403Y-118517249D01*
X200134516Y-118540698D01*
X200146067Y-118562309D01*
X200161612Y-118581251D01*
X200180554Y-118596797D01*
X200202164Y-118608348D01*
X200225613Y-118615461D01*
X200249999Y-118617863D01*
X200274385Y-118615461D01*
X200297834Y-118608348D01*
X200319445Y-118596797D01*
X200338387Y-118581252D01*
X200353933Y-118562310D01*
X200365484Y-118540700D01*
X200372597Y-118517249D01*
X200374017Y-118510111D01*
X200374686Y-118508497D01*
X200423091Y-118391636D01*
X200494335Y-118285012D01*
X200585012Y-118194335D01*
X200691636Y-118123091D01*
X200716232Y-118112903D01*
X200810110Y-118074017D01*
X200935881Y-118049000D01*
X201064119Y-118049000D01*
X201189890Y-118074017D01*
X201283769Y-118112903D01*
X201308364Y-118123091D01*
X201361035Y-118158285D01*
X201414988Y-118194335D01*
X201505665Y-118285012D01*
X201576910Y-118391638D01*
X201608517Y-118467944D01*
X201620068Y-118489555D01*
X201635613Y-118508497D01*
X201654555Y-118524042D01*
X201676166Y-118535593D01*
X201699615Y-118542706D01*
X201724001Y-118545108D01*
X201748387Y-118542706D01*
X201771836Y-118535593D01*
X201793447Y-118524042D01*
X201812389Y-118508497D01*
X201827934Y-118489555D01*
X201839485Y-118467944D01*
X201846598Y-118444495D01*
X201849000Y-118420109D01*
X201849000Y-118158285D01*
X201851575Y-118132138D01*
X201857410Y-118112903D01*
X201866884Y-118095178D01*
X201879638Y-118079638D01*
X201895178Y-118066884D01*
X201912903Y-118057410D01*
X201932138Y-118051575D01*
X201958285Y-118049000D01*
X203041715Y-118049000D01*
X203067862Y-118051575D01*
X203087097Y-118057410D01*
X203104822Y-118066884D01*
X203120362Y-118079638D01*
X203133116Y-118095178D01*
X203142590Y-118112903D01*
X203148425Y-118132138D01*
X203151000Y-118158285D01*
X203151000Y-119241715D01*
X203148425Y-119267862D01*
X203142590Y-119287097D01*
X203133116Y-119304822D01*
X203120362Y-119320362D01*
X203104822Y-119333116D01*
X203087097Y-119342590D01*
X203067862Y-119348425D01*
X203041715Y-119351000D01*
X201958285Y-119351000D01*
X201932138Y-119348425D01*
X201912903Y-119342590D01*
X201895178Y-119333116D01*
X201879638Y-119320362D01*
X201866884Y-119304822D01*
X201857410Y-119287097D01*
X201851575Y-119267862D01*
X201849000Y-119241715D01*
X201849000Y-118979891D01*
X201846598Y-118955505D01*
X201839485Y-118932056D01*
X201827934Y-118910445D01*
X201812389Y-118891503D01*
X201793447Y-118875958D01*
X201771836Y-118864407D01*
X201748387Y-118857294D01*
X201724001Y-118854892D01*
X201699615Y-118857294D01*
X201676166Y-118864407D01*
X201654555Y-118875958D01*
X201635613Y-118891503D01*
X201620068Y-118910445D01*
X201608517Y-118932055D01*
X201576909Y-119008364D01*
X201505665Y-119114988D01*
X201414988Y-119205665D01*
X201308364Y-119276909D01*
X201308363Y-119276910D01*
X201308362Y-119276910D01*
X201189890Y-119325983D01*
X201064119Y-119351000D01*
X200935881Y-119351000D01*
X200810110Y-119325983D01*
X200691638Y-119276910D01*
X200691637Y-119276910D01*
X200691636Y-119276909D01*
X200585012Y-119205665D01*
X200494335Y-119114988D01*
X200423091Y-119008364D01*
X200374017Y-118889890D01*
X200372597Y-118882751D01*
X200365484Y-118859302D01*
X200353933Y-118837691D01*
X200338388Y-118818749D01*
X200319446Y-118803203D01*
X200297836Y-118791652D01*
X200274387Y-118784539D01*
X200250001Y-118782137D01*
X200225615Y-118784539D01*
X200202166Y-118791652D01*
X200180555Y-118803203D01*
X200161613Y-118818748D01*
X200146067Y-118837690D01*
X200134516Y-118859300D01*
X200127403Y-118882751D01*
X200125983Y-118889890D01*
X200076909Y-119008364D01*
X200005665Y-119114988D01*
X199914988Y-119205665D01*
X199808364Y-119276909D01*
X199808363Y-119276910D01*
X199808362Y-119276910D01*
X199689890Y-119325983D01*
X199564119Y-119351000D01*
X199435881Y-119351000D01*
X199310110Y-119325983D01*
X199191638Y-119276910D01*
X199191637Y-119276910D01*
X199191636Y-119276909D01*
X199085012Y-119205665D01*
X198994335Y-119114988D01*
X198923091Y-119008364D01*
X198874017Y-118889890D01*
X198863634Y-118837690D01*
X198849000Y-118764119D01*
X198849000Y-118635881D01*
X198874017Y-118510110D01*
X198923090Y-118391638D01*
X198994335Y-118285012D01*
X199085012Y-118194335D01*
X199138965Y-118158285D01*
X199191636Y-118123091D01*
X199216232Y-118112903D01*
X199310110Y-118074017D01*
X199435881Y-118049000D01*
X199564119Y-118049000D01*
X199689890Y-118074017D01*
G37*
G36*
X171913512Y-117103927D02*
G01*
X172062812Y-117133624D01*
X172226784Y-117201544D01*
X172374354Y-117300147D01*
X172499853Y-117425646D01*
X172598456Y-117573216D01*
X172666376Y-117737188D01*
X172701000Y-117911259D01*
X172701000Y-118088741D01*
X172666376Y-118262812D01*
X172598456Y-118426784D01*
X172499853Y-118574354D01*
X172374354Y-118699853D01*
X172226784Y-118798456D01*
X172062812Y-118866376D01*
X171913512Y-118896073D01*
X171888742Y-118901000D01*
X171711258Y-118901000D01*
X171686488Y-118896073D01*
X171537188Y-118866376D01*
X171373216Y-118798456D01*
X171225646Y-118699853D01*
X171100147Y-118574354D01*
X171001544Y-118426784D01*
X170933624Y-118262812D01*
X170899000Y-118088741D01*
X170899000Y-117911259D01*
X170933624Y-117737188D01*
X171001544Y-117573216D01*
X171100147Y-117425646D01*
X171225646Y-117300147D01*
X171373216Y-117201544D01*
X171537188Y-117133624D01*
X171686488Y-117103927D01*
X171711258Y-117099000D01*
X171888742Y-117099000D01*
X171913512Y-117103927D01*
G37*
G36*
X169373512Y-117103927D02*
G01*
X169522812Y-117133624D01*
X169686784Y-117201544D01*
X169834354Y-117300147D01*
X169959853Y-117425646D01*
X170058456Y-117573216D01*
X170126376Y-117737188D01*
X170161000Y-117911259D01*
X170161000Y-118088741D01*
X170126376Y-118262812D01*
X170058456Y-118426784D01*
X169959853Y-118574354D01*
X169834354Y-118699853D01*
X169686784Y-118798456D01*
X169522812Y-118866376D01*
X169373512Y-118896073D01*
X169348742Y-118901000D01*
X169171258Y-118901000D01*
X169146488Y-118896073D01*
X168997188Y-118866376D01*
X168833216Y-118798456D01*
X168685646Y-118699853D01*
X168560147Y-118574354D01*
X168461544Y-118426784D01*
X168393624Y-118262812D01*
X168359000Y-118088741D01*
X168359000Y-117911259D01*
X168393624Y-117737188D01*
X168461544Y-117573216D01*
X168560147Y-117425646D01*
X168685646Y-117300147D01*
X168833216Y-117201544D01*
X168997188Y-117133624D01*
X169146488Y-117103927D01*
X169171258Y-117099000D01*
X169348742Y-117099000D01*
X169373512Y-117103927D01*
G37*
G36*
X166833512Y-117103927D02*
G01*
X166982812Y-117133624D01*
X167146784Y-117201544D01*
X167294354Y-117300147D01*
X167419853Y-117425646D01*
X167518456Y-117573216D01*
X167586376Y-117737188D01*
X167621000Y-117911259D01*
X167621000Y-118088741D01*
X167586376Y-118262812D01*
X167518456Y-118426784D01*
X167419853Y-118574354D01*
X167294354Y-118699853D01*
X167146784Y-118798456D01*
X166982812Y-118866376D01*
X166833512Y-118896073D01*
X166808742Y-118901000D01*
X166631258Y-118901000D01*
X166606488Y-118896073D01*
X166457188Y-118866376D01*
X166293216Y-118798456D01*
X166145646Y-118699853D01*
X166020147Y-118574354D01*
X165921544Y-118426784D01*
X165853624Y-118262812D01*
X165819000Y-118088741D01*
X165819000Y-117911259D01*
X165853624Y-117737188D01*
X165921544Y-117573216D01*
X166020147Y-117425646D01*
X166145646Y-117300147D01*
X166293216Y-117201544D01*
X166457188Y-117133624D01*
X166606488Y-117103927D01*
X166631258Y-117099000D01*
X166808742Y-117099000D01*
X166833512Y-117103927D01*
G37*
G36*
X174453512Y-117103927D02*
G01*
X174602812Y-117133624D01*
X174766784Y-117201544D01*
X174914354Y-117300147D01*
X175039853Y-117425646D01*
X175138456Y-117573216D01*
X175206376Y-117737188D01*
X175241000Y-117911259D01*
X175241000Y-118088741D01*
X175206376Y-118262812D01*
X175138456Y-118426784D01*
X175039853Y-118574354D01*
X174914354Y-118699853D01*
X174766784Y-118798456D01*
X174602812Y-118866376D01*
X174453512Y-118896073D01*
X174428742Y-118901000D01*
X174251258Y-118901000D01*
X174226488Y-118896073D01*
X174077188Y-118866376D01*
X173913216Y-118798456D01*
X173765646Y-118699853D01*
X173640147Y-118574354D01*
X173541544Y-118426784D01*
X173473624Y-118262812D01*
X173439000Y-118088741D01*
X173439000Y-117911259D01*
X173473624Y-117737188D01*
X173541544Y-117573216D01*
X173640147Y-117425646D01*
X173765646Y-117300147D01*
X173913216Y-117201544D01*
X174077188Y-117133624D01*
X174226488Y-117103927D01*
X174251258Y-117099000D01*
X174428742Y-117099000D01*
X174453512Y-117103927D01*
G37*
G36*
X199664890Y-111924017D02*
G01*
X199758769Y-111962903D01*
X199783364Y-111973091D01*
X199889988Y-112044335D01*
X199980665Y-112135012D01*
X200051909Y-112241636D01*
X200100315Y-112358497D01*
X200100983Y-112360111D01*
X200102403Y-112367249D01*
X200109516Y-112390698D01*
X200121067Y-112412309D01*
X200136612Y-112431251D01*
X200155554Y-112446797D01*
X200177164Y-112458348D01*
X200200613Y-112465461D01*
X200224999Y-112467863D01*
X200249385Y-112465461D01*
X200272834Y-112458348D01*
X200294445Y-112446797D01*
X200313387Y-112431252D01*
X200328933Y-112412310D01*
X200340484Y-112390700D01*
X200347597Y-112367249D01*
X200349017Y-112360111D01*
X200349686Y-112358497D01*
X200398091Y-112241636D01*
X200469335Y-112135012D01*
X200560012Y-112044335D01*
X200666636Y-111973091D01*
X200691232Y-111962903D01*
X200785110Y-111924017D01*
X200910881Y-111899000D01*
X201039119Y-111899000D01*
X201164890Y-111924017D01*
X201258769Y-111962903D01*
X201283364Y-111973091D01*
X201336035Y-112008285D01*
X201389988Y-112044335D01*
X201480665Y-112135012D01*
X201551910Y-112241638D01*
X201583517Y-112317944D01*
X201595068Y-112339555D01*
X201610613Y-112358497D01*
X201629555Y-112374042D01*
X201651166Y-112385593D01*
X201674615Y-112392706D01*
X201699001Y-112395108D01*
X201723387Y-112392706D01*
X201746836Y-112385593D01*
X201768447Y-112374042D01*
X201787389Y-112358497D01*
X201802934Y-112339555D01*
X201814485Y-112317944D01*
X201821598Y-112294495D01*
X201824000Y-112270109D01*
X201824000Y-112008285D01*
X201826575Y-111982138D01*
X201832410Y-111962903D01*
X201841884Y-111945178D01*
X201854638Y-111929638D01*
X201870178Y-111916884D01*
X201887903Y-111907410D01*
X201907138Y-111901575D01*
X201933285Y-111899000D01*
X203016715Y-111899000D01*
X203042862Y-111901575D01*
X203062097Y-111907410D01*
X203079822Y-111916884D01*
X203095362Y-111929638D01*
X203108116Y-111945178D01*
X203117590Y-111962903D01*
X203123425Y-111982138D01*
X203126000Y-112008285D01*
X203126000Y-113091715D01*
X203123425Y-113117862D01*
X203117590Y-113137097D01*
X203108116Y-113154822D01*
X203095362Y-113170362D01*
X203079822Y-113183116D01*
X203062097Y-113192590D01*
X203042862Y-113198425D01*
X203016715Y-113201000D01*
X201933285Y-113201000D01*
X201907138Y-113198425D01*
X201887903Y-113192590D01*
X201870178Y-113183116D01*
X201854638Y-113170362D01*
X201841884Y-113154822D01*
X201832410Y-113137097D01*
X201826575Y-113117862D01*
X201824000Y-113091715D01*
X201824000Y-112829891D01*
X201821598Y-112805505D01*
X201814485Y-112782056D01*
X201802934Y-112760445D01*
X201787389Y-112741503D01*
X201768447Y-112725958D01*
X201746836Y-112714407D01*
X201723387Y-112707294D01*
X201699001Y-112704892D01*
X201674615Y-112707294D01*
X201651166Y-112714407D01*
X201629555Y-112725958D01*
X201610613Y-112741503D01*
X201595068Y-112760445D01*
X201583517Y-112782055D01*
X201551909Y-112858364D01*
X201480665Y-112964988D01*
X201389988Y-113055665D01*
X201283364Y-113126909D01*
X201283363Y-113126910D01*
X201283362Y-113126910D01*
X201164890Y-113175983D01*
X201039119Y-113201000D01*
X200910881Y-113201000D01*
X200785110Y-113175983D01*
X200666638Y-113126910D01*
X200666637Y-113126910D01*
X200666636Y-113126909D01*
X200560012Y-113055665D01*
X200469335Y-112964988D01*
X200398091Y-112858364D01*
X200349017Y-112739890D01*
X200347597Y-112732751D01*
X200340484Y-112709302D01*
X200328933Y-112687691D01*
X200313388Y-112668749D01*
X200294446Y-112653203D01*
X200272836Y-112641652D01*
X200249387Y-112634539D01*
X200225001Y-112632137D01*
X200200615Y-112634539D01*
X200177166Y-112641652D01*
X200155555Y-112653203D01*
X200136613Y-112668748D01*
X200121067Y-112687690D01*
X200109516Y-112709300D01*
X200102403Y-112732751D01*
X200100983Y-112739890D01*
X200051909Y-112858364D01*
X199980665Y-112964988D01*
X199889988Y-113055665D01*
X199783364Y-113126909D01*
X199783363Y-113126910D01*
X199783362Y-113126910D01*
X199664890Y-113175983D01*
X199539119Y-113201000D01*
X199410881Y-113201000D01*
X199285110Y-113175983D01*
X199166638Y-113126910D01*
X199166637Y-113126910D01*
X199166636Y-113126909D01*
X199060012Y-113055665D01*
X198969335Y-112964988D01*
X198898091Y-112858364D01*
X198849017Y-112739890D01*
X198838634Y-112687690D01*
X198824000Y-112614119D01*
X198824000Y-112485881D01*
X198849017Y-112360110D01*
X198898090Y-112241638D01*
X198969335Y-112135012D01*
X199060012Y-112044335D01*
X199113965Y-112008285D01*
X199166636Y-111973091D01*
X199191232Y-111962903D01*
X199285110Y-111924017D01*
X199410881Y-111899000D01*
X199539119Y-111899000D01*
X199664890Y-111924017D01*
G37*
G36*
X185592862Y-101426575D02*
G01*
X185612097Y-101432410D01*
X185629822Y-101441884D01*
X185645362Y-101454638D01*
X185658116Y-101470178D01*
X185667590Y-101487903D01*
X185673425Y-101507138D01*
X185676000Y-101533285D01*
X185676000Y-101795109D01*
X185678402Y-101819495D01*
X185685515Y-101842944D01*
X185697066Y-101864555D01*
X185712611Y-101883497D01*
X185731553Y-101899042D01*
X185753164Y-101910593D01*
X185776613Y-101917706D01*
X185800999Y-101920108D01*
X185825385Y-101917706D01*
X185848834Y-101910593D01*
X185870445Y-101899042D01*
X185889387Y-101883497D01*
X185904932Y-101864555D01*
X185916483Y-101842944D01*
X185948090Y-101766638D01*
X186019335Y-101660012D01*
X186110012Y-101569335D01*
X186163965Y-101533285D01*
X186216636Y-101498091D01*
X186241232Y-101487903D01*
X186335110Y-101449017D01*
X186460881Y-101424000D01*
X186589119Y-101424000D01*
X186714890Y-101449017D01*
X186808769Y-101487903D01*
X186833364Y-101498091D01*
X186939988Y-101569335D01*
X187030665Y-101660012D01*
X187101909Y-101766636D01*
X187150315Y-101883497D01*
X187150983Y-101885111D01*
X187152403Y-101892249D01*
X187159516Y-101915698D01*
X187171067Y-101937309D01*
X187186612Y-101956251D01*
X187205554Y-101971797D01*
X187227164Y-101983348D01*
X187250613Y-101990461D01*
X187274999Y-101992863D01*
X187299385Y-101990461D01*
X187322834Y-101983348D01*
X187344445Y-101971797D01*
X187363387Y-101956252D01*
X187378933Y-101937310D01*
X187390484Y-101915700D01*
X187397597Y-101892249D01*
X187399017Y-101885111D01*
X187399686Y-101883497D01*
X187448091Y-101766636D01*
X187519335Y-101660012D01*
X187610012Y-101569335D01*
X187716636Y-101498091D01*
X187741232Y-101487903D01*
X187835110Y-101449017D01*
X187960881Y-101424000D01*
X188089119Y-101424000D01*
X188214890Y-101449017D01*
X188308769Y-101487903D01*
X188333364Y-101498091D01*
X188386035Y-101533285D01*
X188439988Y-101569335D01*
X188530665Y-101660012D01*
X188601910Y-101766638D01*
X188650983Y-101885110D01*
X188676000Y-102010881D01*
X188676000Y-102139119D01*
X188661366Y-102212690D01*
X188650983Y-102264890D01*
X188601909Y-102383364D01*
X188530665Y-102489988D01*
X188439988Y-102580665D01*
X188333364Y-102651909D01*
X188333363Y-102651910D01*
X188333362Y-102651910D01*
X188214890Y-102700983D01*
X188089119Y-102726000D01*
X187960881Y-102726000D01*
X187835110Y-102700983D01*
X187716638Y-102651910D01*
X187716637Y-102651910D01*
X187716636Y-102651909D01*
X187610012Y-102580665D01*
X187519335Y-102489988D01*
X187448091Y-102383364D01*
X187399017Y-102264890D01*
X187397597Y-102257751D01*
X187390484Y-102234302D01*
X187378933Y-102212691D01*
X187363388Y-102193749D01*
X187344446Y-102178203D01*
X187322836Y-102166652D01*
X187299387Y-102159539D01*
X187275001Y-102157137D01*
X187250615Y-102159539D01*
X187227166Y-102166652D01*
X187205555Y-102178203D01*
X187186613Y-102193748D01*
X187171067Y-102212690D01*
X187159516Y-102234300D01*
X187152403Y-102257751D01*
X187150983Y-102264890D01*
X187101909Y-102383364D01*
X187030665Y-102489988D01*
X186939988Y-102580665D01*
X186833364Y-102651909D01*
X186833363Y-102651910D01*
X186833362Y-102651910D01*
X186714890Y-102700983D01*
X186589119Y-102726000D01*
X186460881Y-102726000D01*
X186335110Y-102700983D01*
X186216638Y-102651910D01*
X186216637Y-102651910D01*
X186216636Y-102651909D01*
X186110012Y-102580665D01*
X186019335Y-102489988D01*
X185948091Y-102383364D01*
X185916483Y-102307055D01*
X185904932Y-102285445D01*
X185889387Y-102266503D01*
X185870445Y-102250958D01*
X185848834Y-102239407D01*
X185825385Y-102232294D01*
X185800999Y-102229892D01*
X185776613Y-102232294D01*
X185753164Y-102239407D01*
X185731553Y-102250958D01*
X185712611Y-102266503D01*
X185697066Y-102285445D01*
X185685515Y-102307056D01*
X185678402Y-102330505D01*
X185676000Y-102354891D01*
X185676000Y-102616715D01*
X185673425Y-102642862D01*
X185667590Y-102662097D01*
X185658116Y-102679822D01*
X185645362Y-102695362D01*
X185629822Y-102708116D01*
X185612097Y-102717590D01*
X185592862Y-102723425D01*
X185566715Y-102726000D01*
X184483285Y-102726000D01*
X184457138Y-102723425D01*
X184437903Y-102717590D01*
X184420178Y-102708116D01*
X184404638Y-102695362D01*
X184391884Y-102679822D01*
X184382410Y-102662097D01*
X184376575Y-102642862D01*
X184374000Y-102616715D01*
X184374000Y-101533285D01*
X184376575Y-101507138D01*
X184382410Y-101487903D01*
X184391884Y-101470178D01*
X184404638Y-101454638D01*
X184420178Y-101441884D01*
X184437903Y-101432410D01*
X184457138Y-101426575D01*
X184483285Y-101424000D01*
X185566715Y-101424000D01*
X185592862Y-101426575D01*
G37*
M02*
