M48
; DRILL file {KiCad (5.1.6-0-10_14)} date Wednesday, September 02, 2020 at 12:25:11 AM
; FORMAT={-:-/ absolute / inch / decimal}
; #@! TF.CreationDate,2020-09-02T00:25:11+09:00
; #@! TF.GenerationSoftware,Kicad,Pcbnew,(5.1.6-0-10_14)
FMAT,2
INCH
T1C0.0157
T2C0.0276
T3C0.0300
T4C0.0315
T5C0.0350
T6C0.0394
T7C0.0410
T8C0.0512
T9C0.0630
T10C0.1280
T11C0.0630
%
G90
G05
T1
X3.878Y-4.2008
X4.124Y-4.2943
X4.6516Y-4.4311
X4.7165Y-4.5344
X4.811Y-4.0866
X4.8701Y-4.6014
X5.0315Y-4.0787
X5.1122Y-4.2648
X5.1181Y-4.6959
X5.2254Y-4.5364
X5.2402Y-4.7116
X5.2756Y-4.8425
X5.5512Y-4.6063
X5.6388Y-4.378
X5.8209Y-4.2874
X5.8701Y-4.5561
X6.0315Y-4.3937
X6.2234Y-4.3927
X6.311Y-4.3898
X6.8632Y-4.375
T2
X7.8543Y-4.6732
X7.9134Y-4.6732
X7.9724Y-4.6732
X7.8533Y-4.4311
X7.9124Y-4.4311
X7.9715Y-4.4311
X7.2844Y-4.0187
X7.3435Y-4.0187
X7.4026Y-4.0187
T3
X4.5331Y-5.0
X4.5331Y-5.6
X4.6331Y-5.0
X4.6331Y-5.6
X4.7331Y-5.0
X4.7331Y-5.6
X4.8331Y-5.0
X4.8331Y-5.6
X4.9331Y-5.0
X4.9331Y-5.6
X5.0331Y-5.0
X5.0331Y-5.6
X5.1331Y-5.0
X5.1331Y-5.6
X5.2331Y-5.0
X5.2331Y-5.6
X5.3331Y-5.0
X5.3331Y-5.6
X5.4331Y-5.0
X5.4331Y-5.6
X5.5331Y-5.0
X5.5331Y-5.6
X5.6331Y-5.0
X5.6331Y-5.6
X5.7331Y-5.0
X5.7331Y-5.6
X5.8331Y-5.0
X5.8331Y-5.6
X5.9331Y-5.0
X5.9331Y-5.6
X6.0331Y-5.0
X6.0331Y-5.6
X6.1331Y-5.0
X6.1331Y-5.6
X6.2331Y-5.0
X6.2331Y-5.6
X6.3331Y-5.0
X6.3331Y-5.6
X6.4331Y-5.0
X6.4331Y-5.6
X6.5331Y-5.0
X6.5331Y-5.6
X6.6331Y-5.0
X6.6331Y-5.6
X6.7331Y-5.0
X6.7331Y-5.6
X6.8331Y-5.0
X6.8331Y-5.6
T4
X4.1437Y-5.6988
X4.2421Y-5.6988
X5.0394Y-5.128
X5.0394Y-5.2067
X5.0394Y-5.2854
X5.1181Y-5.128
X5.1181Y-5.2067
X5.1181Y-5.2854
X8.1102Y-5.0394
X8.189Y-5.0394
X7.6378Y-5.0394
X7.7165Y-5.0394
T5
X3.8976Y-5.9843
X3.9476Y-5.8843
X3.9976Y-5.9843
X4.0476Y-5.8843
X4.0976Y-5.9843
X4.1476Y-5.8843
X4.1976Y-5.9843
X4.2476Y-5.8843
T6
X6.5638Y-4.6457
X6.5638Y-4.7457
X6.6638Y-4.6457
X6.6638Y-4.7457
X6.7638Y-4.6457
X6.7638Y-4.7457
X6.8638Y-4.6457
X6.8638Y-4.7457
T7
X3.8236Y-6.435
X3.9236Y-6.3673
X4.2217Y-6.4343
X4.3217Y-6.3673
T8
X7.687Y-5.7087
X7.687Y-5.9055
X8.1398Y-5.7087
X8.1398Y-5.9055
T9
X3.7626Y-6.115
X4.3827Y-6.115
T10
X3.8476Y-6.235
X4.2976Y-6.235
T11
X7.9134Y-6.2598
T6
G00X7.7362Y-6.3681
M15
G01X7.7362Y-6.3091
M16
G05
G00X7.939Y-6.378
M15
G01X7.8878Y-6.378
M16
G05
G00X7.9528Y-6.6142
M15
G01X7.874Y-6.6142
M16
G05
G00X8.0906Y-6.3681
M15
G01X8.0906Y-6.3091
M16
G05
T0
M30
