G04 #@! TF.GenerationSoftware,KiCad,Pcbnew,(5.1.6-0-10_14)*
G04 #@! TF.CreationDate,2020-10-13T19:53:42+09:00*
G04 #@! TF.ProjectId,teabiscuits_compute,74656162-6973-4637-9569-74735f636f6d,rev?*
G04 #@! TF.SameCoordinates,Original*
G04 #@! TF.FileFunction,Copper,L1,Top*
G04 #@! TF.FilePolarity,Positive*
%FSLAX46Y46*%
G04 Gerber Fmt 4.6, Leading zero omitted, Abs format (unit mm)*
G04 Created by KiCad (PCBNEW (5.1.6-0-10_14)) date 2020-10-13 19:53:42*
%MOMM*%
%LPD*%
G01*
G04 APERTURE LIST*
G04 #@! TA.AperFunction,ComponentPad*
%ADD10C,2.500000*%
G04 #@! TD*
G04 #@! TA.AperFunction,ComponentPad*
%ADD11C,7.500000*%
G04 #@! TD*
G04 #@! TA.AperFunction,SMDPad,CuDef*
%ADD12C,0.100000*%
G04 #@! TD*
G04 #@! TA.AperFunction,SMDPad,CuDef*
%ADD13R,2.100000X1.100000*%
G04 #@! TD*
G04 #@! TA.AperFunction,ComponentPad*
%ADD14O,1.700000X1.700000*%
G04 #@! TD*
G04 #@! TA.AperFunction,ComponentPad*
%ADD15R,1.700000X1.700000*%
G04 #@! TD*
G04 #@! TA.AperFunction,ViaPad*
%ADD16C,2.200000*%
G04 #@! TD*
G04 #@! TA.AperFunction,ViaPad*
%ADD17C,0.800000*%
G04 #@! TD*
G04 #@! TA.AperFunction,Conductor*
%ADD18C,0.500000*%
G04 #@! TD*
G04 #@! TA.AperFunction,Conductor*
%ADD19C,0.250000*%
G04 #@! TD*
G04 #@! TA.AperFunction,Conductor*
%ADD20C,0.254000*%
G04 #@! TD*
G04 APERTURE END LIST*
D10*
X156500000Y-165750000D03*
X161500000Y-165750000D03*
X151500000Y-165750000D03*
D11*
X156500000Y-153250000D03*
G04 #@! TA.AperFunction,SMDPad,CuDef*
G36*
G01*
X153975000Y-175390000D02*
X153975000Y-175690000D01*
G75*
G02*
X153825000Y-175840000I-150000J0D01*
G01*
X152175000Y-175840000D01*
G75*
G02*
X152025000Y-175690000I0J150000D01*
G01*
X152025000Y-175390000D01*
G75*
G02*
X152175000Y-175240000I150000J0D01*
G01*
X153825000Y-175240000D01*
G75*
G02*
X153975000Y-175390000I0J-150000D01*
G01*
G37*
G04 #@! TD.AperFunction*
G04 #@! TA.AperFunction,SMDPad,CuDef*
G36*
G01*
X153975000Y-174120000D02*
X153975000Y-174420000D01*
G75*
G02*
X153825000Y-174570000I-150000J0D01*
G01*
X152175000Y-174570000D01*
G75*
G02*
X152025000Y-174420000I0J150000D01*
G01*
X152025000Y-174120000D01*
G75*
G02*
X152175000Y-173970000I150000J0D01*
G01*
X153825000Y-173970000D01*
G75*
G02*
X153975000Y-174120000I0J-150000D01*
G01*
G37*
G04 #@! TD.AperFunction*
G04 #@! TA.AperFunction,SMDPad,CuDef*
G36*
G01*
X153975000Y-172850000D02*
X153975000Y-173150000D01*
G75*
G02*
X153825000Y-173300000I-150000J0D01*
G01*
X152175000Y-173300000D01*
G75*
G02*
X152025000Y-173150000I0J150000D01*
G01*
X152025000Y-172850000D01*
G75*
G02*
X152175000Y-172700000I150000J0D01*
G01*
X153825000Y-172700000D01*
G75*
G02*
X153975000Y-172850000I0J-150000D01*
G01*
G37*
G04 #@! TD.AperFunction*
G04 #@! TA.AperFunction,SMDPad,CuDef*
G36*
G01*
X153975000Y-171580000D02*
X153975000Y-171880000D01*
G75*
G02*
X153825000Y-172030000I-150000J0D01*
G01*
X152175000Y-172030000D01*
G75*
G02*
X152025000Y-171880000I0J150000D01*
G01*
X152025000Y-171580000D01*
G75*
G02*
X152175000Y-171430000I150000J0D01*
G01*
X153825000Y-171430000D01*
G75*
G02*
X153975000Y-171580000I0J-150000D01*
G01*
G37*
G04 #@! TD.AperFunction*
G04 #@! TA.AperFunction,SMDPad,CuDef*
G36*
G01*
X158925000Y-171580000D02*
X158925000Y-171880000D01*
G75*
G02*
X158775000Y-172030000I-150000J0D01*
G01*
X157125000Y-172030000D01*
G75*
G02*
X156975000Y-171880000I0J150000D01*
G01*
X156975000Y-171580000D01*
G75*
G02*
X157125000Y-171430000I150000J0D01*
G01*
X158775000Y-171430000D01*
G75*
G02*
X158925000Y-171580000I0J-150000D01*
G01*
G37*
G04 #@! TD.AperFunction*
G04 #@! TA.AperFunction,SMDPad,CuDef*
G36*
G01*
X158925000Y-172850000D02*
X158925000Y-173150000D01*
G75*
G02*
X158775000Y-173300000I-150000J0D01*
G01*
X157125000Y-173300000D01*
G75*
G02*
X156975000Y-173150000I0J150000D01*
G01*
X156975000Y-172850000D01*
G75*
G02*
X157125000Y-172700000I150000J0D01*
G01*
X158775000Y-172700000D01*
G75*
G02*
X158925000Y-172850000I0J-150000D01*
G01*
G37*
G04 #@! TD.AperFunction*
G04 #@! TA.AperFunction,SMDPad,CuDef*
G36*
G01*
X158925000Y-174120000D02*
X158925000Y-174420000D01*
G75*
G02*
X158775000Y-174570000I-150000J0D01*
G01*
X157125000Y-174570000D01*
G75*
G02*
X156975000Y-174420000I0J150000D01*
G01*
X156975000Y-174120000D01*
G75*
G02*
X157125000Y-173970000I150000J0D01*
G01*
X158775000Y-173970000D01*
G75*
G02*
X158925000Y-174120000I0J-150000D01*
G01*
G37*
G04 #@! TD.AperFunction*
G04 #@! TA.AperFunction,SMDPad,CuDef*
G36*
G01*
X158925000Y-175390000D02*
X158925000Y-175690000D01*
G75*
G02*
X158775000Y-175840000I-150000J0D01*
G01*
X157125000Y-175840000D01*
G75*
G02*
X156975000Y-175690000I0J150000D01*
G01*
X156975000Y-175390000D01*
G75*
G02*
X157125000Y-175240000I150000J0D01*
G01*
X158775000Y-175240000D01*
G75*
G02*
X158925000Y-175390000I0J-150000D01*
G01*
G37*
G04 #@! TD.AperFunction*
G04 #@! TA.AperFunction,SMDPad,CuDef*
G36*
G01*
X140745000Y-171500000D02*
X140445000Y-171500000D01*
G75*
G02*
X140295000Y-171350000I0J150000D01*
G01*
X140295000Y-169700000D01*
G75*
G02*
X140445000Y-169550000I150000J0D01*
G01*
X140745000Y-169550000D01*
G75*
G02*
X140895000Y-169700000I0J-150000D01*
G01*
X140895000Y-171350000D01*
G75*
G02*
X140745000Y-171500000I-150000J0D01*
G01*
G37*
G04 #@! TD.AperFunction*
G04 #@! TA.AperFunction,SMDPad,CuDef*
G36*
G01*
X142015000Y-171500000D02*
X141715000Y-171500000D01*
G75*
G02*
X141565000Y-171350000I0J150000D01*
G01*
X141565000Y-169700000D01*
G75*
G02*
X141715000Y-169550000I150000J0D01*
G01*
X142015000Y-169550000D01*
G75*
G02*
X142165000Y-169700000I0J-150000D01*
G01*
X142165000Y-171350000D01*
G75*
G02*
X142015000Y-171500000I-150000J0D01*
G01*
G37*
G04 #@! TD.AperFunction*
G04 #@! TA.AperFunction,SMDPad,CuDef*
G36*
G01*
X143285000Y-171500000D02*
X142985000Y-171500000D01*
G75*
G02*
X142835000Y-171350000I0J150000D01*
G01*
X142835000Y-169700000D01*
G75*
G02*
X142985000Y-169550000I150000J0D01*
G01*
X143285000Y-169550000D01*
G75*
G02*
X143435000Y-169700000I0J-150000D01*
G01*
X143435000Y-171350000D01*
G75*
G02*
X143285000Y-171500000I-150000J0D01*
G01*
G37*
G04 #@! TD.AperFunction*
G04 #@! TA.AperFunction,SMDPad,CuDef*
G36*
G01*
X144555000Y-171500000D02*
X144255000Y-171500000D01*
G75*
G02*
X144105000Y-171350000I0J150000D01*
G01*
X144105000Y-169700000D01*
G75*
G02*
X144255000Y-169550000I150000J0D01*
G01*
X144555000Y-169550000D01*
G75*
G02*
X144705000Y-169700000I0J-150000D01*
G01*
X144705000Y-171350000D01*
G75*
G02*
X144555000Y-171500000I-150000J0D01*
G01*
G37*
G04 #@! TD.AperFunction*
G04 #@! TA.AperFunction,SMDPad,CuDef*
G36*
G01*
X144555000Y-176450000D02*
X144255000Y-176450000D01*
G75*
G02*
X144105000Y-176300000I0J150000D01*
G01*
X144105000Y-174650000D01*
G75*
G02*
X144255000Y-174500000I150000J0D01*
G01*
X144555000Y-174500000D01*
G75*
G02*
X144705000Y-174650000I0J-150000D01*
G01*
X144705000Y-176300000D01*
G75*
G02*
X144555000Y-176450000I-150000J0D01*
G01*
G37*
G04 #@! TD.AperFunction*
G04 #@! TA.AperFunction,SMDPad,CuDef*
G36*
G01*
X143285000Y-176450000D02*
X142985000Y-176450000D01*
G75*
G02*
X142835000Y-176300000I0J150000D01*
G01*
X142835000Y-174650000D01*
G75*
G02*
X142985000Y-174500000I150000J0D01*
G01*
X143285000Y-174500000D01*
G75*
G02*
X143435000Y-174650000I0J-150000D01*
G01*
X143435000Y-176300000D01*
G75*
G02*
X143285000Y-176450000I-150000J0D01*
G01*
G37*
G04 #@! TD.AperFunction*
G04 #@! TA.AperFunction,SMDPad,CuDef*
G36*
G01*
X142015000Y-176450000D02*
X141715000Y-176450000D01*
G75*
G02*
X141565000Y-176300000I0J150000D01*
G01*
X141565000Y-174650000D01*
G75*
G02*
X141715000Y-174500000I150000J0D01*
G01*
X142015000Y-174500000D01*
G75*
G02*
X142165000Y-174650000I0J-150000D01*
G01*
X142165000Y-176300000D01*
G75*
G02*
X142015000Y-176450000I-150000J0D01*
G01*
G37*
G04 #@! TD.AperFunction*
G04 #@! TA.AperFunction,SMDPad,CuDef*
G36*
G01*
X140745000Y-176450000D02*
X140445000Y-176450000D01*
G75*
G02*
X140295000Y-176300000I0J150000D01*
G01*
X140295000Y-174650000D01*
G75*
G02*
X140445000Y-174500000I150000J0D01*
G01*
X140745000Y-174500000D01*
G75*
G02*
X140895000Y-174650000I0J-150000D01*
G01*
X140895000Y-176300000D01*
G75*
G02*
X140745000Y-176450000I-150000J0D01*
G01*
G37*
G04 #@! TD.AperFunction*
G04 #@! TA.AperFunction,SMDPad,CuDef*
G36*
G01*
X147456250Y-170487500D02*
X146543750Y-170487500D01*
G75*
G02*
X146300000Y-170243750I0J243750D01*
G01*
X146300000Y-169756250D01*
G75*
G02*
X146543750Y-169512500I243750J0D01*
G01*
X147456250Y-169512500D01*
G75*
G02*
X147700000Y-169756250I0J-243750D01*
G01*
X147700000Y-170243750D01*
G75*
G02*
X147456250Y-170487500I-243750J0D01*
G01*
G37*
G04 #@! TD.AperFunction*
G04 #@! TA.AperFunction,SMDPad,CuDef*
G36*
G01*
X147456250Y-172362500D02*
X146543750Y-172362500D01*
G75*
G02*
X146300000Y-172118750I0J243750D01*
G01*
X146300000Y-171631250D01*
G75*
G02*
X146543750Y-171387500I243750J0D01*
G01*
X147456250Y-171387500D01*
G75*
G02*
X147700000Y-171631250I0J-243750D01*
G01*
X147700000Y-172118750D01*
G75*
G02*
X147456250Y-172362500I-243750J0D01*
G01*
G37*
G04 #@! TD.AperFunction*
G04 #@! TA.AperFunction,SMDPad,CuDef*
D12*
G36*
X145000000Y-167050000D02*
G01*
X137500000Y-167050000D01*
X137500000Y-166500000D01*
X142000000Y-166500000D01*
X142000000Y-165570000D01*
X145000000Y-165570000D01*
X145000000Y-167050000D01*
G37*
G04 #@! TD.AperFunction*
G04 #@! TA.AperFunction,SMDPad,CuDef*
G36*
X145000000Y-163930000D02*
G01*
X142000000Y-163930000D01*
X142000000Y-163000000D01*
X137500000Y-163000000D01*
X137500000Y-162450000D01*
X145000000Y-162450000D01*
X145000000Y-163930000D01*
G37*
G04 #@! TD.AperFunction*
D13*
X143950000Y-164750000D03*
D14*
X166500000Y-171670000D03*
D15*
X166500000Y-174210000D03*
G04 #@! TA.AperFunction,SMDPad,CuDef*
G36*
G01*
X149543750Y-175387500D02*
X150456250Y-175387500D01*
G75*
G02*
X150700000Y-175631250I0J-243750D01*
G01*
X150700000Y-176118750D01*
G75*
G02*
X150456250Y-176362500I-243750J0D01*
G01*
X149543750Y-176362500D01*
G75*
G02*
X149300000Y-176118750I0J243750D01*
G01*
X149300000Y-175631250D01*
G75*
G02*
X149543750Y-175387500I243750J0D01*
G01*
G37*
G04 #@! TD.AperFunction*
G04 #@! TA.AperFunction,SMDPad,CuDef*
G36*
G01*
X149543750Y-173512500D02*
X150456250Y-173512500D01*
G75*
G02*
X150700000Y-173756250I0J-243750D01*
G01*
X150700000Y-174243750D01*
G75*
G02*
X150456250Y-174487500I-243750J0D01*
G01*
X149543750Y-174487500D01*
G75*
G02*
X149300000Y-174243750I0J243750D01*
G01*
X149300000Y-173756250D01*
G75*
G02*
X149543750Y-173512500I243750J0D01*
G01*
G37*
G04 #@! TD.AperFunction*
G04 #@! TA.AperFunction,SMDPad,CuDef*
G36*
G01*
X160956250Y-172800000D02*
X160043750Y-172800000D01*
G75*
G02*
X159800000Y-172556250I0J243750D01*
G01*
X159800000Y-172068750D01*
G75*
G02*
X160043750Y-171825000I243750J0D01*
G01*
X160956250Y-171825000D01*
G75*
G02*
X161200000Y-172068750I0J-243750D01*
G01*
X161200000Y-172556250D01*
G75*
G02*
X160956250Y-172800000I-243750J0D01*
G01*
G37*
G04 #@! TD.AperFunction*
G04 #@! TA.AperFunction,SMDPad,CuDef*
G36*
G01*
X160956250Y-174675000D02*
X160043750Y-174675000D01*
G75*
G02*
X159800000Y-174431250I0J243750D01*
G01*
X159800000Y-173943750D01*
G75*
G02*
X160043750Y-173700000I243750J0D01*
G01*
X160956250Y-173700000D01*
G75*
G02*
X161200000Y-173943750I0J-243750D01*
G01*
X161200000Y-174431250D01*
G75*
G02*
X160956250Y-174675000I-243750J0D01*
G01*
G37*
G04 #@! TD.AperFunction*
G04 #@! TA.AperFunction,SMDPad,CuDef*
G36*
G01*
X138043750Y-171262500D02*
X138956250Y-171262500D01*
G75*
G02*
X139200000Y-171506250I0J-243750D01*
G01*
X139200000Y-171993750D01*
G75*
G02*
X138956250Y-172237500I-243750J0D01*
G01*
X138043750Y-172237500D01*
G75*
G02*
X137800000Y-171993750I0J243750D01*
G01*
X137800000Y-171506250D01*
G75*
G02*
X138043750Y-171262500I243750J0D01*
G01*
G37*
G04 #@! TD.AperFunction*
G04 #@! TA.AperFunction,SMDPad,CuDef*
G36*
G01*
X138043750Y-169387500D02*
X138956250Y-169387500D01*
G75*
G02*
X139200000Y-169631250I0J-243750D01*
G01*
X139200000Y-170118750D01*
G75*
G02*
X138956250Y-170362500I-243750J0D01*
G01*
X138043750Y-170362500D01*
G75*
G02*
X137800000Y-170118750I0J243750D01*
G01*
X137800000Y-169631250D01*
G75*
G02*
X138043750Y-169387500I243750J0D01*
G01*
G37*
G04 #@! TD.AperFunction*
G04 #@! TA.AperFunction,SMDPad,CuDef*
G36*
G01*
X149456250Y-170487500D02*
X148543750Y-170487500D01*
G75*
G02*
X148300000Y-170243750I0J243750D01*
G01*
X148300000Y-169756250D01*
G75*
G02*
X148543750Y-169512500I243750J0D01*
G01*
X149456250Y-169512500D01*
G75*
G02*
X149700000Y-169756250I0J-243750D01*
G01*
X149700000Y-170243750D01*
G75*
G02*
X149456250Y-170487500I-243750J0D01*
G01*
G37*
G04 #@! TD.AperFunction*
G04 #@! TA.AperFunction,SMDPad,CuDef*
G36*
G01*
X149456250Y-172362500D02*
X148543750Y-172362500D01*
G75*
G02*
X148300000Y-172118750I0J243750D01*
G01*
X148300000Y-171631250D01*
G75*
G02*
X148543750Y-171387500I243750J0D01*
G01*
X149456250Y-171387500D01*
G75*
G02*
X149700000Y-171631250I0J-243750D01*
G01*
X149700000Y-172118750D01*
G75*
G02*
X149456250Y-172362500I-243750J0D01*
G01*
G37*
G04 #@! TD.AperFunction*
D16*
X166500000Y-148000000D03*
X139500000Y-148000000D03*
X166500000Y-158500000D03*
X139500000Y-158500000D03*
D17*
X143000000Y-167250000D03*
X138500000Y-172750000D03*
X144250000Y-176750000D03*
X143000000Y-174250000D03*
X146750000Y-172500000D03*
X141750000Y-176500000D03*
X143135000Y-169500000D03*
D18*
X160522500Y-174210000D02*
X160500000Y-174187500D01*
X166500000Y-174210000D02*
X160522500Y-174210000D01*
X158032500Y-174187500D02*
X157950000Y-174270000D01*
X160500000Y-174187500D02*
X158032500Y-174187500D01*
X160500000Y-174187500D02*
X160500000Y-175250000D01*
X160500000Y-175250000D02*
X158750000Y-177000000D01*
X145155010Y-174401466D02*
X141865000Y-171111456D01*
X141865000Y-171111456D02*
X141865000Y-170525000D01*
X145155010Y-175711136D02*
X145155010Y-174401466D01*
X146443874Y-177000000D02*
X145155010Y-175711136D01*
X158750000Y-177000000D02*
X146443874Y-177000000D01*
X141414990Y-169099990D02*
X141865000Y-169550000D01*
X141865000Y-169550000D02*
X141865000Y-170525000D01*
X139275010Y-169099990D02*
X141414990Y-169099990D01*
X138500000Y-169875000D02*
X139275010Y-169099990D01*
X143500000Y-166750000D02*
X143000000Y-167250000D01*
X143500000Y-166310000D02*
X143500000Y-166750000D01*
X138500000Y-171750000D02*
X138500000Y-172750000D01*
X144405000Y-176595000D02*
X144250000Y-176750000D01*
X144405000Y-175475000D02*
X144405000Y-176595000D01*
D19*
X143135000Y-174385000D02*
X143000000Y-174250000D01*
X143135000Y-175475000D02*
X143135000Y-174385000D01*
X146750000Y-172125000D02*
X147000000Y-171875000D01*
X146750000Y-172500000D02*
X146750000Y-172125000D01*
X149000000Y-171875000D02*
X147000000Y-171875000D01*
X143135000Y-169365000D02*
X143135000Y-170525000D01*
X144000000Y-168500000D02*
X143135000Y-169365000D01*
X143950000Y-164750000D02*
X144639636Y-164750000D01*
X145750000Y-165860364D02*
X145750000Y-168250000D01*
X145750000Y-168250000D02*
X145500000Y-168500000D01*
X145500000Y-168500000D02*
X144000000Y-168500000D01*
X144639636Y-164750000D02*
X145750000Y-165860364D01*
X141865000Y-176385000D02*
X141750000Y-176500000D01*
X141865000Y-175475000D02*
X141865000Y-176385000D01*
X151000000Y-173000000D02*
X153000000Y-173000000D01*
X150000000Y-174000000D02*
X151000000Y-173000000D01*
X150000000Y-174000000D02*
X151250000Y-172750000D01*
X151250000Y-172750000D02*
X151250000Y-169250000D01*
X151250000Y-169250000D02*
X152750000Y-167750000D01*
X154500000Y-167750000D02*
X156500000Y-165750000D01*
X152750000Y-167750000D02*
X154500000Y-167750000D01*
D20*
G36*
X138627000Y-171623000D02*
G01*
X138647000Y-171623000D01*
X138647000Y-171877000D01*
X138627000Y-171877000D01*
X138627000Y-172713750D01*
X138785750Y-172872500D01*
X139200000Y-172875572D01*
X139324482Y-172863312D01*
X139444180Y-172827002D01*
X139554494Y-172768037D01*
X139651185Y-172688685D01*
X139730537Y-172591994D01*
X139789502Y-172481680D01*
X139825812Y-172361982D01*
X139838072Y-172237500D01*
X139835000Y-172035750D01*
X139676252Y-171877002D01*
X139835000Y-171877002D01*
X139835000Y-171842976D01*
X139887749Y-171907251D01*
X140007171Y-172005258D01*
X140143418Y-172078084D01*
X140291255Y-172122929D01*
X140445000Y-172138072D01*
X140745000Y-172138072D01*
X140898745Y-172122929D01*
X141046582Y-172078084D01*
X141182829Y-172005258D01*
X141230000Y-171966546D01*
X141277171Y-172005258D01*
X141413418Y-172078084D01*
X141561255Y-172122929D01*
X141631848Y-172129882D01*
X142747011Y-173245045D01*
X142698102Y-173254774D01*
X142509744Y-173332795D01*
X142340226Y-173446063D01*
X142196063Y-173590226D01*
X142082795Y-173759744D01*
X142039470Y-173864338D01*
X142015000Y-173861928D01*
X141715000Y-173861928D01*
X141561255Y-173877071D01*
X141413418Y-173921916D01*
X141277171Y-173994742D01*
X141230000Y-174033454D01*
X141182829Y-173994742D01*
X141046582Y-173921916D01*
X140898745Y-173877071D01*
X140745000Y-173861928D01*
X140445000Y-173861928D01*
X140291255Y-173877071D01*
X140143418Y-173921916D01*
X140007171Y-173994742D01*
X139887749Y-174092749D01*
X139789742Y-174212171D01*
X139716916Y-174348418D01*
X139672071Y-174496255D01*
X139656928Y-174650000D01*
X139656928Y-176300000D01*
X139672071Y-176453745D01*
X139716916Y-176601582D01*
X139789742Y-176737829D01*
X139873591Y-176840000D01*
X138160000Y-176840000D01*
X138160000Y-172872902D01*
X138214250Y-172872500D01*
X138373000Y-172713750D01*
X138373000Y-171877000D01*
X138353000Y-171877000D01*
X138353000Y-171623000D01*
X138373000Y-171623000D01*
X138373000Y-171603000D01*
X138627000Y-171603000D01*
X138627000Y-171623000D01*
G37*
X138627000Y-171623000D02*
X138647000Y-171623000D01*
X138647000Y-171877000D01*
X138627000Y-171877000D01*
X138627000Y-172713750D01*
X138785750Y-172872500D01*
X139200000Y-172875572D01*
X139324482Y-172863312D01*
X139444180Y-172827002D01*
X139554494Y-172768037D01*
X139651185Y-172688685D01*
X139730537Y-172591994D01*
X139789502Y-172481680D01*
X139825812Y-172361982D01*
X139838072Y-172237500D01*
X139835000Y-172035750D01*
X139676252Y-171877002D01*
X139835000Y-171877002D01*
X139835000Y-171842976D01*
X139887749Y-171907251D01*
X140007171Y-172005258D01*
X140143418Y-172078084D01*
X140291255Y-172122929D01*
X140445000Y-172138072D01*
X140745000Y-172138072D01*
X140898745Y-172122929D01*
X141046582Y-172078084D01*
X141182829Y-172005258D01*
X141230000Y-171966546D01*
X141277171Y-172005258D01*
X141413418Y-172078084D01*
X141561255Y-172122929D01*
X141631848Y-172129882D01*
X142747011Y-173245045D01*
X142698102Y-173254774D01*
X142509744Y-173332795D01*
X142340226Y-173446063D01*
X142196063Y-173590226D01*
X142082795Y-173759744D01*
X142039470Y-173864338D01*
X142015000Y-173861928D01*
X141715000Y-173861928D01*
X141561255Y-173877071D01*
X141413418Y-173921916D01*
X141277171Y-173994742D01*
X141230000Y-174033454D01*
X141182829Y-173994742D01*
X141046582Y-173921916D01*
X140898745Y-173877071D01*
X140745000Y-173861928D01*
X140445000Y-173861928D01*
X140291255Y-173877071D01*
X140143418Y-173921916D01*
X140007171Y-173994742D01*
X139887749Y-174092749D01*
X139789742Y-174212171D01*
X139716916Y-174348418D01*
X139672071Y-174496255D01*
X139656928Y-174650000D01*
X139656928Y-176300000D01*
X139672071Y-176453745D01*
X139716916Y-176601582D01*
X139789742Y-176737829D01*
X139873591Y-176840000D01*
X138160000Y-176840000D01*
X138160000Y-172872902D01*
X138214250Y-172872500D01*
X138373000Y-172713750D01*
X138373000Y-171877000D01*
X138353000Y-171877000D01*
X138353000Y-171623000D01*
X138373000Y-171623000D01*
X138373000Y-171603000D01*
X138627000Y-171603000D01*
X138627000Y-171623000D01*
G36*
X138678169Y-160037537D02*
G01*
X138993919Y-160168325D01*
X139329117Y-160235000D01*
X139670883Y-160235000D01*
X140006081Y-160168325D01*
X140321831Y-160037537D01*
X140562092Y-159877000D01*
X165437908Y-159877000D01*
X165678169Y-160037537D01*
X165993919Y-160168325D01*
X166329117Y-160235000D01*
X166670883Y-160235000D01*
X167006081Y-160168325D01*
X167321831Y-160037537D01*
X167562092Y-159877000D01*
X167840001Y-159877000D01*
X167840000Y-171046599D01*
X167771641Y-170903080D01*
X167597588Y-170669731D01*
X167381355Y-170474822D01*
X167131252Y-170325843D01*
X166856891Y-170228519D01*
X166627000Y-170349186D01*
X166627000Y-171543000D01*
X166647000Y-171543000D01*
X166647000Y-171797000D01*
X166627000Y-171797000D01*
X166627000Y-171817000D01*
X166373000Y-171817000D01*
X166373000Y-171797000D01*
X165179845Y-171797000D01*
X165058524Y-172026890D01*
X165103175Y-172174099D01*
X165228359Y-172436920D01*
X165402412Y-172670269D01*
X165486466Y-172746034D01*
X165405820Y-172770498D01*
X165295506Y-172829463D01*
X165198815Y-172908815D01*
X165119463Y-173005506D01*
X165060498Y-173115820D01*
X165024188Y-173235518D01*
X165015375Y-173325000D01*
X161583725Y-173325000D01*
X161579792Y-173320208D01*
X161573436Y-173314992D01*
X161651185Y-173251185D01*
X161730537Y-173154494D01*
X161789502Y-173044180D01*
X161825812Y-172924482D01*
X161838072Y-172800000D01*
X161835000Y-172598250D01*
X161676250Y-172439500D01*
X160627000Y-172439500D01*
X160627000Y-172459500D01*
X160373000Y-172459500D01*
X160373000Y-172439500D01*
X160353000Y-172439500D01*
X160353000Y-172185500D01*
X160373000Y-172185500D01*
X160373000Y-171348750D01*
X160627000Y-171348750D01*
X160627000Y-172185500D01*
X161676250Y-172185500D01*
X161835000Y-172026750D01*
X161838072Y-171825000D01*
X161825812Y-171700518D01*
X161789502Y-171580820D01*
X161730537Y-171470506D01*
X161651185Y-171373815D01*
X161577216Y-171313110D01*
X165058524Y-171313110D01*
X165179845Y-171543000D01*
X166373000Y-171543000D01*
X166373000Y-170349186D01*
X166143109Y-170228519D01*
X165868748Y-170325843D01*
X165618645Y-170474822D01*
X165402412Y-170669731D01*
X165228359Y-170903080D01*
X165103175Y-171165901D01*
X165058524Y-171313110D01*
X161577216Y-171313110D01*
X161554494Y-171294463D01*
X161444180Y-171235498D01*
X161324482Y-171199188D01*
X161200000Y-171186928D01*
X160785750Y-171190000D01*
X160627000Y-171348750D01*
X160373000Y-171348750D01*
X160214250Y-171190000D01*
X159800000Y-171186928D01*
X159675518Y-171199188D01*
X159555820Y-171235498D01*
X159533234Y-171247571D01*
X159514502Y-171185820D01*
X159455537Y-171075506D01*
X159376185Y-170978815D01*
X159279494Y-170899463D01*
X159169180Y-170840498D01*
X159049482Y-170804188D01*
X158925000Y-170791928D01*
X158235750Y-170795000D01*
X158077000Y-170953750D01*
X158077000Y-171603000D01*
X158097000Y-171603000D01*
X158097000Y-171857000D01*
X158077000Y-171857000D01*
X158077000Y-171877000D01*
X157823000Y-171877000D01*
X157823000Y-171857000D01*
X156498750Y-171857000D01*
X156340000Y-172015750D01*
X156336928Y-172030000D01*
X156349188Y-172154482D01*
X156385498Y-172274180D01*
X156444463Y-172384494D01*
X156468730Y-172414064D01*
X156396916Y-172548418D01*
X156352071Y-172696255D01*
X156336928Y-172850000D01*
X156336928Y-173150000D01*
X156352071Y-173303745D01*
X156396916Y-173451582D01*
X156469742Y-173587829D01*
X156508454Y-173635000D01*
X156469742Y-173682171D01*
X156396916Y-173818418D01*
X156352071Y-173966255D01*
X156336928Y-174120000D01*
X156336928Y-174420000D01*
X156352071Y-174573745D01*
X156396916Y-174721582D01*
X156469742Y-174857829D01*
X156508454Y-174905000D01*
X156469742Y-174952171D01*
X156396916Y-175088418D01*
X156352071Y-175236255D01*
X156336928Y-175390000D01*
X156336928Y-175690000D01*
X156352071Y-175843745D01*
X156396916Y-175991582D01*
X156462885Y-176115000D01*
X154487115Y-176115000D01*
X154553084Y-175991582D01*
X154597929Y-175843745D01*
X154613072Y-175690000D01*
X154613072Y-175390000D01*
X154597929Y-175236255D01*
X154553084Y-175088418D01*
X154480258Y-174952171D01*
X154441546Y-174905000D01*
X154480258Y-174857829D01*
X154553084Y-174721582D01*
X154597929Y-174573745D01*
X154613072Y-174420000D01*
X154613072Y-174120000D01*
X154597929Y-173966255D01*
X154553084Y-173818418D01*
X154480258Y-173682171D01*
X154441546Y-173635000D01*
X154480258Y-173587829D01*
X154553084Y-173451582D01*
X154597929Y-173303745D01*
X154613072Y-173150000D01*
X154613072Y-172850000D01*
X154597929Y-172696255D01*
X154553084Y-172548418D01*
X154480258Y-172412171D01*
X154441546Y-172365000D01*
X154480258Y-172317829D01*
X154553084Y-172181582D01*
X154597929Y-172033745D01*
X154613072Y-171880000D01*
X154613072Y-171580000D01*
X154598298Y-171430000D01*
X156336928Y-171430000D01*
X156340000Y-171444250D01*
X156498750Y-171603000D01*
X157823000Y-171603000D01*
X157823000Y-170953750D01*
X157664250Y-170795000D01*
X156975000Y-170791928D01*
X156850518Y-170804188D01*
X156730820Y-170840498D01*
X156620506Y-170899463D01*
X156523815Y-170978815D01*
X156444463Y-171075506D01*
X156385498Y-171185820D01*
X156349188Y-171305518D01*
X156336928Y-171430000D01*
X154598298Y-171430000D01*
X154597929Y-171426255D01*
X154553084Y-171278418D01*
X154480258Y-171142171D01*
X154382251Y-171022749D01*
X154262829Y-170924742D01*
X154126582Y-170851916D01*
X153978745Y-170807071D01*
X153825000Y-170791928D01*
X152175000Y-170791928D01*
X152021255Y-170807071D01*
X152010000Y-170810485D01*
X152010000Y-169564801D01*
X153064802Y-168510000D01*
X154462678Y-168510000D01*
X154500000Y-168513676D01*
X154537322Y-168510000D01*
X154537333Y-168510000D01*
X154648986Y-168499003D01*
X154792247Y-168455546D01*
X154924276Y-168384974D01*
X155040001Y-168290001D01*
X155063804Y-168260997D01*
X155817282Y-167507519D01*
X155950166Y-167562561D01*
X156314344Y-167635000D01*
X156685656Y-167635000D01*
X157049834Y-167562561D01*
X157392882Y-167420466D01*
X157701618Y-167214175D01*
X157964175Y-166951618D01*
X158170466Y-166642882D01*
X158312561Y-166299834D01*
X158385000Y-165935656D01*
X158385000Y-165564344D01*
X159615000Y-165564344D01*
X159615000Y-165935656D01*
X159687439Y-166299834D01*
X159829534Y-166642882D01*
X160035825Y-166951618D01*
X160298382Y-167214175D01*
X160607118Y-167420466D01*
X160950166Y-167562561D01*
X161314344Y-167635000D01*
X161685656Y-167635000D01*
X162049834Y-167562561D01*
X162392882Y-167420466D01*
X162701618Y-167214175D01*
X162964175Y-166951618D01*
X163170466Y-166642882D01*
X163312561Y-166299834D01*
X163385000Y-165935656D01*
X163385000Y-165564344D01*
X163312561Y-165200166D01*
X163170466Y-164857118D01*
X162964175Y-164548382D01*
X162701618Y-164285825D01*
X162392882Y-164079534D01*
X162049834Y-163937439D01*
X161685656Y-163865000D01*
X161314344Y-163865000D01*
X160950166Y-163937439D01*
X160607118Y-164079534D01*
X160298382Y-164285825D01*
X160035825Y-164548382D01*
X159829534Y-164857118D01*
X159687439Y-165200166D01*
X159615000Y-165564344D01*
X158385000Y-165564344D01*
X158312561Y-165200166D01*
X158170466Y-164857118D01*
X157964175Y-164548382D01*
X157701618Y-164285825D01*
X157392882Y-164079534D01*
X157049834Y-163937439D01*
X156685656Y-163865000D01*
X156314344Y-163865000D01*
X155950166Y-163937439D01*
X155607118Y-164079534D01*
X155298382Y-164285825D01*
X155035825Y-164548382D01*
X154829534Y-164857118D01*
X154687439Y-165200166D01*
X154615000Y-165564344D01*
X154615000Y-165935656D01*
X154687439Y-166299834D01*
X154742481Y-166432718D01*
X154185199Y-166990000D01*
X152925793Y-166990000D01*
X152964175Y-166951618D01*
X153170466Y-166642882D01*
X153312561Y-166299834D01*
X153385000Y-165935656D01*
X153385000Y-165564344D01*
X153312561Y-165200166D01*
X153170466Y-164857118D01*
X152964175Y-164548382D01*
X152701618Y-164285825D01*
X152392882Y-164079534D01*
X152049834Y-163937439D01*
X151685656Y-163865000D01*
X151314344Y-163865000D01*
X150950166Y-163937439D01*
X150607118Y-164079534D01*
X150298382Y-164285825D01*
X150035825Y-164548382D01*
X149829534Y-164857118D01*
X149687439Y-165200166D01*
X149615000Y-165564344D01*
X149615000Y-165935656D01*
X149687439Y-166299834D01*
X149829534Y-166642882D01*
X150035825Y-166951618D01*
X150298382Y-167214175D01*
X150607118Y-167420466D01*
X150950166Y-167562561D01*
X151314344Y-167635000D01*
X151685656Y-167635000D01*
X151816156Y-167609042D01*
X150738998Y-168686201D01*
X150710000Y-168709999D01*
X150686202Y-168738997D01*
X150686201Y-168738998D01*
X150615026Y-168825724D01*
X150544454Y-168957754D01*
X150514670Y-169055942D01*
X150509571Y-169072754D01*
X150500998Y-169101015D01*
X150486324Y-169250000D01*
X150490001Y-169287332D01*
X150490000Y-172435198D01*
X150488998Y-172436200D01*
X150459999Y-172459999D01*
X150436201Y-172488997D01*
X150050770Y-172874428D01*
X149904126Y-172874428D01*
X149946164Y-172851958D01*
X150079792Y-172742292D01*
X150189458Y-172608664D01*
X150270947Y-172456209D01*
X150321128Y-172290785D01*
X150338072Y-172118750D01*
X150338072Y-171631250D01*
X150321128Y-171459215D01*
X150270947Y-171293791D01*
X150189458Y-171141336D01*
X150079792Y-171007708D01*
X150073436Y-171002492D01*
X150151185Y-170938685D01*
X150230537Y-170841994D01*
X150289502Y-170731680D01*
X150325812Y-170611982D01*
X150338072Y-170487500D01*
X150335000Y-170285750D01*
X150176250Y-170127000D01*
X149127000Y-170127000D01*
X149127000Y-170147000D01*
X148873000Y-170147000D01*
X148873000Y-170127000D01*
X147127000Y-170127000D01*
X147127000Y-170147000D01*
X146873000Y-170147000D01*
X146873000Y-170127000D01*
X145823750Y-170127000D01*
X145665000Y-170285750D01*
X145661928Y-170487500D01*
X145674188Y-170611982D01*
X145710498Y-170731680D01*
X145769463Y-170841994D01*
X145848815Y-170938685D01*
X145926564Y-171002492D01*
X145920208Y-171007708D01*
X145810542Y-171141336D01*
X145729053Y-171293791D01*
X145678872Y-171459215D01*
X145661928Y-171631250D01*
X145661928Y-172118750D01*
X145678872Y-172290785D01*
X145715000Y-172409883D01*
X145715000Y-172601939D01*
X145754774Y-172801898D01*
X145832795Y-172990256D01*
X145946063Y-173159774D01*
X146090226Y-173303937D01*
X146259744Y-173417205D01*
X146448102Y-173495226D01*
X146648061Y-173535000D01*
X146851939Y-173535000D01*
X147051898Y-173495226D01*
X147240256Y-173417205D01*
X147409774Y-173303937D01*
X147553937Y-173159774D01*
X147667205Y-172990256D01*
X147675938Y-172969173D01*
X147793709Y-172933447D01*
X147946164Y-172851958D01*
X148000000Y-172807776D01*
X148053836Y-172851958D01*
X148206291Y-172933447D01*
X148371715Y-172983628D01*
X148543750Y-173000572D01*
X149095874Y-173000572D01*
X149053836Y-173023042D01*
X148920208Y-173132708D01*
X148810542Y-173266336D01*
X148729053Y-173418791D01*
X148678872Y-173584215D01*
X148661928Y-173756250D01*
X148661928Y-174243750D01*
X148678872Y-174415785D01*
X148729053Y-174581209D01*
X148810542Y-174733664D01*
X148920208Y-174867292D01*
X148926564Y-174872508D01*
X148848815Y-174936315D01*
X148769463Y-175033006D01*
X148710498Y-175143320D01*
X148674188Y-175263018D01*
X148661928Y-175387500D01*
X148665000Y-175589250D01*
X148823750Y-175748000D01*
X149873000Y-175748000D01*
X149873000Y-175728000D01*
X150127000Y-175728000D01*
X150127000Y-175748000D01*
X151176250Y-175748000D01*
X151335000Y-175589250D01*
X151338072Y-175387500D01*
X151325812Y-175263018D01*
X151289502Y-175143320D01*
X151230537Y-175033006D01*
X151151185Y-174936315D01*
X151073436Y-174872508D01*
X151079792Y-174867292D01*
X151189458Y-174733664D01*
X151270947Y-174581209D01*
X151321128Y-174415785D01*
X151338072Y-174243750D01*
X151338072Y-173760000D01*
X151478141Y-173760000D01*
X151446916Y-173818418D01*
X151402071Y-173966255D01*
X151386928Y-174120000D01*
X151386928Y-174420000D01*
X151402071Y-174573745D01*
X151446916Y-174721582D01*
X151519742Y-174857829D01*
X151558454Y-174905000D01*
X151519742Y-174952171D01*
X151446916Y-175088418D01*
X151402071Y-175236255D01*
X151386928Y-175390000D01*
X151386928Y-175690000D01*
X151402071Y-175843745D01*
X151446916Y-175991582D01*
X151512885Y-176115000D01*
X151289250Y-176115000D01*
X151176250Y-176002000D01*
X150127000Y-176002000D01*
X150127000Y-176022000D01*
X149873000Y-176022000D01*
X149873000Y-176002000D01*
X148823750Y-176002000D01*
X148710750Y-176115000D01*
X146810453Y-176115000D01*
X146040010Y-175344558D01*
X146040010Y-174444935D01*
X146044291Y-174401466D01*
X146040010Y-174357997D01*
X146040010Y-174357989D01*
X146027205Y-174227976D01*
X145976599Y-174061153D01*
X145894421Y-173907407D01*
X145845000Y-173847188D01*
X145811542Y-173806419D01*
X145811540Y-173806417D01*
X145783827Y-173772649D01*
X145750059Y-173744936D01*
X144130979Y-172125857D01*
X144255000Y-172138072D01*
X144555000Y-172138072D01*
X144708745Y-172122929D01*
X144856582Y-172078084D01*
X144992829Y-172005258D01*
X145112251Y-171907251D01*
X145210258Y-171787829D01*
X145283084Y-171651582D01*
X145327929Y-171503745D01*
X145343072Y-171350000D01*
X145343072Y-169700000D01*
X145327929Y-169546255D01*
X145283084Y-169398418D01*
X145210258Y-169262171D01*
X145208476Y-169260000D01*
X145462678Y-169260000D01*
X145500000Y-169263676D01*
X145537322Y-169260000D01*
X145537333Y-169260000D01*
X145648986Y-169249003D01*
X145734725Y-169222995D01*
X145710498Y-169268320D01*
X145674188Y-169388018D01*
X145661928Y-169512500D01*
X145665000Y-169714250D01*
X145823750Y-169873000D01*
X146873000Y-169873000D01*
X146873000Y-169036250D01*
X147127000Y-169036250D01*
X147127000Y-169873000D01*
X148873000Y-169873000D01*
X148873000Y-169036250D01*
X149127000Y-169036250D01*
X149127000Y-169873000D01*
X150176250Y-169873000D01*
X150335000Y-169714250D01*
X150338072Y-169512500D01*
X150325812Y-169388018D01*
X150289502Y-169268320D01*
X150230537Y-169158006D01*
X150151185Y-169061315D01*
X150054494Y-168981963D01*
X149944180Y-168922998D01*
X149824482Y-168886688D01*
X149700000Y-168874428D01*
X149285750Y-168877500D01*
X149127000Y-169036250D01*
X148873000Y-169036250D01*
X148714250Y-168877500D01*
X148300000Y-168874428D01*
X148175518Y-168886688D01*
X148055820Y-168922998D01*
X148000000Y-168952835D01*
X147944180Y-168922998D01*
X147824482Y-168886688D01*
X147700000Y-168874428D01*
X147285750Y-168877500D01*
X147127000Y-169036250D01*
X146873000Y-169036250D01*
X146714250Y-168877500D01*
X146300000Y-168874428D01*
X146189490Y-168885312D01*
X146261002Y-168813800D01*
X146290001Y-168790001D01*
X146384974Y-168674276D01*
X146455546Y-168542247D01*
X146499003Y-168398986D01*
X146510000Y-168287333D01*
X146510000Y-168287324D01*
X146513676Y-168250001D01*
X146510000Y-168212678D01*
X146510000Y-165897687D01*
X146513676Y-165860364D01*
X146510000Y-165823041D01*
X146510000Y-165823031D01*
X146499003Y-165711378D01*
X146455546Y-165568117D01*
X146384974Y-165436088D01*
X146290001Y-165320363D01*
X146261004Y-165296566D01*
X145638072Y-164673635D01*
X145638072Y-164200000D01*
X145625812Y-164075518D01*
X145589502Y-163955820D01*
X145530537Y-163845506D01*
X145451185Y-163748815D01*
X145354494Y-163669463D01*
X145244180Y-163610498D01*
X145124482Y-163574188D01*
X145000000Y-163561928D01*
X142900000Y-163561928D01*
X142775518Y-163574188D01*
X142685000Y-163601646D01*
X142685000Y-163033647D01*
X142688314Y-163000000D01*
X142675088Y-162865717D01*
X142635919Y-162736594D01*
X142572312Y-162617593D01*
X142486711Y-162513289D01*
X142382407Y-162427688D01*
X142263406Y-162364081D01*
X142134283Y-162324912D01*
X142033647Y-162315000D01*
X142000000Y-162311686D01*
X141966353Y-162315000D01*
X138160000Y-162315000D01*
X138160000Y-159877000D01*
X138437908Y-159877000D01*
X138678169Y-160037537D01*
G37*
X138678169Y-160037537D02*
X138993919Y-160168325D01*
X139329117Y-160235000D01*
X139670883Y-160235000D01*
X140006081Y-160168325D01*
X140321831Y-160037537D01*
X140562092Y-159877000D01*
X165437908Y-159877000D01*
X165678169Y-160037537D01*
X165993919Y-160168325D01*
X166329117Y-160235000D01*
X166670883Y-160235000D01*
X167006081Y-160168325D01*
X167321831Y-160037537D01*
X167562092Y-159877000D01*
X167840001Y-159877000D01*
X167840000Y-171046599D01*
X167771641Y-170903080D01*
X167597588Y-170669731D01*
X167381355Y-170474822D01*
X167131252Y-170325843D01*
X166856891Y-170228519D01*
X166627000Y-170349186D01*
X166627000Y-171543000D01*
X166647000Y-171543000D01*
X166647000Y-171797000D01*
X166627000Y-171797000D01*
X166627000Y-171817000D01*
X166373000Y-171817000D01*
X166373000Y-171797000D01*
X165179845Y-171797000D01*
X165058524Y-172026890D01*
X165103175Y-172174099D01*
X165228359Y-172436920D01*
X165402412Y-172670269D01*
X165486466Y-172746034D01*
X165405820Y-172770498D01*
X165295506Y-172829463D01*
X165198815Y-172908815D01*
X165119463Y-173005506D01*
X165060498Y-173115820D01*
X165024188Y-173235518D01*
X165015375Y-173325000D01*
X161583725Y-173325000D01*
X161579792Y-173320208D01*
X161573436Y-173314992D01*
X161651185Y-173251185D01*
X161730537Y-173154494D01*
X161789502Y-173044180D01*
X161825812Y-172924482D01*
X161838072Y-172800000D01*
X161835000Y-172598250D01*
X161676250Y-172439500D01*
X160627000Y-172439500D01*
X160627000Y-172459500D01*
X160373000Y-172459500D01*
X160373000Y-172439500D01*
X160353000Y-172439500D01*
X160353000Y-172185500D01*
X160373000Y-172185500D01*
X160373000Y-171348750D01*
X160627000Y-171348750D01*
X160627000Y-172185500D01*
X161676250Y-172185500D01*
X161835000Y-172026750D01*
X161838072Y-171825000D01*
X161825812Y-171700518D01*
X161789502Y-171580820D01*
X161730537Y-171470506D01*
X161651185Y-171373815D01*
X161577216Y-171313110D01*
X165058524Y-171313110D01*
X165179845Y-171543000D01*
X166373000Y-171543000D01*
X166373000Y-170349186D01*
X166143109Y-170228519D01*
X165868748Y-170325843D01*
X165618645Y-170474822D01*
X165402412Y-170669731D01*
X165228359Y-170903080D01*
X165103175Y-171165901D01*
X165058524Y-171313110D01*
X161577216Y-171313110D01*
X161554494Y-171294463D01*
X161444180Y-171235498D01*
X161324482Y-171199188D01*
X161200000Y-171186928D01*
X160785750Y-171190000D01*
X160627000Y-171348750D01*
X160373000Y-171348750D01*
X160214250Y-171190000D01*
X159800000Y-171186928D01*
X159675518Y-171199188D01*
X159555820Y-171235498D01*
X159533234Y-171247571D01*
X159514502Y-171185820D01*
X159455537Y-171075506D01*
X159376185Y-170978815D01*
X159279494Y-170899463D01*
X159169180Y-170840498D01*
X159049482Y-170804188D01*
X158925000Y-170791928D01*
X158235750Y-170795000D01*
X158077000Y-170953750D01*
X158077000Y-171603000D01*
X158097000Y-171603000D01*
X158097000Y-171857000D01*
X158077000Y-171857000D01*
X158077000Y-171877000D01*
X157823000Y-171877000D01*
X157823000Y-171857000D01*
X156498750Y-171857000D01*
X156340000Y-172015750D01*
X156336928Y-172030000D01*
X156349188Y-172154482D01*
X156385498Y-172274180D01*
X156444463Y-172384494D01*
X156468730Y-172414064D01*
X156396916Y-172548418D01*
X156352071Y-172696255D01*
X156336928Y-172850000D01*
X156336928Y-173150000D01*
X156352071Y-173303745D01*
X156396916Y-173451582D01*
X156469742Y-173587829D01*
X156508454Y-173635000D01*
X156469742Y-173682171D01*
X156396916Y-173818418D01*
X156352071Y-173966255D01*
X156336928Y-174120000D01*
X156336928Y-174420000D01*
X156352071Y-174573745D01*
X156396916Y-174721582D01*
X156469742Y-174857829D01*
X156508454Y-174905000D01*
X156469742Y-174952171D01*
X156396916Y-175088418D01*
X156352071Y-175236255D01*
X156336928Y-175390000D01*
X156336928Y-175690000D01*
X156352071Y-175843745D01*
X156396916Y-175991582D01*
X156462885Y-176115000D01*
X154487115Y-176115000D01*
X154553084Y-175991582D01*
X154597929Y-175843745D01*
X154613072Y-175690000D01*
X154613072Y-175390000D01*
X154597929Y-175236255D01*
X154553084Y-175088418D01*
X154480258Y-174952171D01*
X154441546Y-174905000D01*
X154480258Y-174857829D01*
X154553084Y-174721582D01*
X154597929Y-174573745D01*
X154613072Y-174420000D01*
X154613072Y-174120000D01*
X154597929Y-173966255D01*
X154553084Y-173818418D01*
X154480258Y-173682171D01*
X154441546Y-173635000D01*
X154480258Y-173587829D01*
X154553084Y-173451582D01*
X154597929Y-173303745D01*
X154613072Y-173150000D01*
X154613072Y-172850000D01*
X154597929Y-172696255D01*
X154553084Y-172548418D01*
X154480258Y-172412171D01*
X154441546Y-172365000D01*
X154480258Y-172317829D01*
X154553084Y-172181582D01*
X154597929Y-172033745D01*
X154613072Y-171880000D01*
X154613072Y-171580000D01*
X154598298Y-171430000D01*
X156336928Y-171430000D01*
X156340000Y-171444250D01*
X156498750Y-171603000D01*
X157823000Y-171603000D01*
X157823000Y-170953750D01*
X157664250Y-170795000D01*
X156975000Y-170791928D01*
X156850518Y-170804188D01*
X156730820Y-170840498D01*
X156620506Y-170899463D01*
X156523815Y-170978815D01*
X156444463Y-171075506D01*
X156385498Y-171185820D01*
X156349188Y-171305518D01*
X156336928Y-171430000D01*
X154598298Y-171430000D01*
X154597929Y-171426255D01*
X154553084Y-171278418D01*
X154480258Y-171142171D01*
X154382251Y-171022749D01*
X154262829Y-170924742D01*
X154126582Y-170851916D01*
X153978745Y-170807071D01*
X153825000Y-170791928D01*
X152175000Y-170791928D01*
X152021255Y-170807071D01*
X152010000Y-170810485D01*
X152010000Y-169564801D01*
X153064802Y-168510000D01*
X154462678Y-168510000D01*
X154500000Y-168513676D01*
X154537322Y-168510000D01*
X154537333Y-168510000D01*
X154648986Y-168499003D01*
X154792247Y-168455546D01*
X154924276Y-168384974D01*
X155040001Y-168290001D01*
X155063804Y-168260997D01*
X155817282Y-167507519D01*
X155950166Y-167562561D01*
X156314344Y-167635000D01*
X156685656Y-167635000D01*
X157049834Y-167562561D01*
X157392882Y-167420466D01*
X157701618Y-167214175D01*
X157964175Y-166951618D01*
X158170466Y-166642882D01*
X158312561Y-166299834D01*
X158385000Y-165935656D01*
X158385000Y-165564344D01*
X159615000Y-165564344D01*
X159615000Y-165935656D01*
X159687439Y-166299834D01*
X159829534Y-166642882D01*
X160035825Y-166951618D01*
X160298382Y-167214175D01*
X160607118Y-167420466D01*
X160950166Y-167562561D01*
X161314344Y-167635000D01*
X161685656Y-167635000D01*
X162049834Y-167562561D01*
X162392882Y-167420466D01*
X162701618Y-167214175D01*
X162964175Y-166951618D01*
X163170466Y-166642882D01*
X163312561Y-166299834D01*
X163385000Y-165935656D01*
X163385000Y-165564344D01*
X163312561Y-165200166D01*
X163170466Y-164857118D01*
X162964175Y-164548382D01*
X162701618Y-164285825D01*
X162392882Y-164079534D01*
X162049834Y-163937439D01*
X161685656Y-163865000D01*
X161314344Y-163865000D01*
X160950166Y-163937439D01*
X160607118Y-164079534D01*
X160298382Y-164285825D01*
X160035825Y-164548382D01*
X159829534Y-164857118D01*
X159687439Y-165200166D01*
X159615000Y-165564344D01*
X158385000Y-165564344D01*
X158312561Y-165200166D01*
X158170466Y-164857118D01*
X157964175Y-164548382D01*
X157701618Y-164285825D01*
X157392882Y-164079534D01*
X157049834Y-163937439D01*
X156685656Y-163865000D01*
X156314344Y-163865000D01*
X155950166Y-163937439D01*
X155607118Y-164079534D01*
X155298382Y-164285825D01*
X155035825Y-164548382D01*
X154829534Y-164857118D01*
X154687439Y-165200166D01*
X154615000Y-165564344D01*
X154615000Y-165935656D01*
X154687439Y-166299834D01*
X154742481Y-166432718D01*
X154185199Y-166990000D01*
X152925793Y-166990000D01*
X152964175Y-166951618D01*
X153170466Y-166642882D01*
X153312561Y-166299834D01*
X153385000Y-165935656D01*
X153385000Y-165564344D01*
X153312561Y-165200166D01*
X153170466Y-164857118D01*
X152964175Y-164548382D01*
X152701618Y-164285825D01*
X152392882Y-164079534D01*
X152049834Y-163937439D01*
X151685656Y-163865000D01*
X151314344Y-163865000D01*
X150950166Y-163937439D01*
X150607118Y-164079534D01*
X150298382Y-164285825D01*
X150035825Y-164548382D01*
X149829534Y-164857118D01*
X149687439Y-165200166D01*
X149615000Y-165564344D01*
X149615000Y-165935656D01*
X149687439Y-166299834D01*
X149829534Y-166642882D01*
X150035825Y-166951618D01*
X150298382Y-167214175D01*
X150607118Y-167420466D01*
X150950166Y-167562561D01*
X151314344Y-167635000D01*
X151685656Y-167635000D01*
X151816156Y-167609042D01*
X150738998Y-168686201D01*
X150710000Y-168709999D01*
X150686202Y-168738997D01*
X150686201Y-168738998D01*
X150615026Y-168825724D01*
X150544454Y-168957754D01*
X150514670Y-169055942D01*
X150509571Y-169072754D01*
X150500998Y-169101015D01*
X150486324Y-169250000D01*
X150490001Y-169287332D01*
X150490000Y-172435198D01*
X150488998Y-172436200D01*
X150459999Y-172459999D01*
X150436201Y-172488997D01*
X150050770Y-172874428D01*
X149904126Y-172874428D01*
X149946164Y-172851958D01*
X150079792Y-172742292D01*
X150189458Y-172608664D01*
X150270947Y-172456209D01*
X150321128Y-172290785D01*
X150338072Y-172118750D01*
X150338072Y-171631250D01*
X150321128Y-171459215D01*
X150270947Y-171293791D01*
X150189458Y-171141336D01*
X150079792Y-171007708D01*
X150073436Y-171002492D01*
X150151185Y-170938685D01*
X150230537Y-170841994D01*
X150289502Y-170731680D01*
X150325812Y-170611982D01*
X150338072Y-170487500D01*
X150335000Y-170285750D01*
X150176250Y-170127000D01*
X149127000Y-170127000D01*
X149127000Y-170147000D01*
X148873000Y-170147000D01*
X148873000Y-170127000D01*
X147127000Y-170127000D01*
X147127000Y-170147000D01*
X146873000Y-170147000D01*
X146873000Y-170127000D01*
X145823750Y-170127000D01*
X145665000Y-170285750D01*
X145661928Y-170487500D01*
X145674188Y-170611982D01*
X145710498Y-170731680D01*
X145769463Y-170841994D01*
X145848815Y-170938685D01*
X145926564Y-171002492D01*
X145920208Y-171007708D01*
X145810542Y-171141336D01*
X145729053Y-171293791D01*
X145678872Y-171459215D01*
X145661928Y-171631250D01*
X145661928Y-172118750D01*
X145678872Y-172290785D01*
X145715000Y-172409883D01*
X145715000Y-172601939D01*
X145754774Y-172801898D01*
X145832795Y-172990256D01*
X145946063Y-173159774D01*
X146090226Y-173303937D01*
X146259744Y-173417205D01*
X146448102Y-173495226D01*
X146648061Y-173535000D01*
X146851939Y-173535000D01*
X147051898Y-173495226D01*
X147240256Y-173417205D01*
X147409774Y-173303937D01*
X147553937Y-173159774D01*
X147667205Y-172990256D01*
X147675938Y-172969173D01*
X147793709Y-172933447D01*
X147946164Y-172851958D01*
X148000000Y-172807776D01*
X148053836Y-172851958D01*
X148206291Y-172933447D01*
X148371715Y-172983628D01*
X148543750Y-173000572D01*
X149095874Y-173000572D01*
X149053836Y-173023042D01*
X148920208Y-173132708D01*
X148810542Y-173266336D01*
X148729053Y-173418791D01*
X148678872Y-173584215D01*
X148661928Y-173756250D01*
X148661928Y-174243750D01*
X148678872Y-174415785D01*
X148729053Y-174581209D01*
X148810542Y-174733664D01*
X148920208Y-174867292D01*
X148926564Y-174872508D01*
X148848815Y-174936315D01*
X148769463Y-175033006D01*
X148710498Y-175143320D01*
X148674188Y-175263018D01*
X148661928Y-175387500D01*
X148665000Y-175589250D01*
X148823750Y-175748000D01*
X149873000Y-175748000D01*
X149873000Y-175728000D01*
X150127000Y-175728000D01*
X150127000Y-175748000D01*
X151176250Y-175748000D01*
X151335000Y-175589250D01*
X151338072Y-175387500D01*
X151325812Y-175263018D01*
X151289502Y-175143320D01*
X151230537Y-175033006D01*
X151151185Y-174936315D01*
X151073436Y-174872508D01*
X151079792Y-174867292D01*
X151189458Y-174733664D01*
X151270947Y-174581209D01*
X151321128Y-174415785D01*
X151338072Y-174243750D01*
X151338072Y-173760000D01*
X151478141Y-173760000D01*
X151446916Y-173818418D01*
X151402071Y-173966255D01*
X151386928Y-174120000D01*
X151386928Y-174420000D01*
X151402071Y-174573745D01*
X151446916Y-174721582D01*
X151519742Y-174857829D01*
X151558454Y-174905000D01*
X151519742Y-174952171D01*
X151446916Y-175088418D01*
X151402071Y-175236255D01*
X151386928Y-175390000D01*
X151386928Y-175690000D01*
X151402071Y-175843745D01*
X151446916Y-175991582D01*
X151512885Y-176115000D01*
X151289250Y-176115000D01*
X151176250Y-176002000D01*
X150127000Y-176002000D01*
X150127000Y-176022000D01*
X149873000Y-176022000D01*
X149873000Y-176002000D01*
X148823750Y-176002000D01*
X148710750Y-176115000D01*
X146810453Y-176115000D01*
X146040010Y-175344558D01*
X146040010Y-174444935D01*
X146044291Y-174401466D01*
X146040010Y-174357997D01*
X146040010Y-174357989D01*
X146027205Y-174227976D01*
X145976599Y-174061153D01*
X145894421Y-173907407D01*
X145845000Y-173847188D01*
X145811542Y-173806419D01*
X145811540Y-173806417D01*
X145783827Y-173772649D01*
X145750059Y-173744936D01*
X144130979Y-172125857D01*
X144255000Y-172138072D01*
X144555000Y-172138072D01*
X144708745Y-172122929D01*
X144856582Y-172078084D01*
X144992829Y-172005258D01*
X145112251Y-171907251D01*
X145210258Y-171787829D01*
X145283084Y-171651582D01*
X145327929Y-171503745D01*
X145343072Y-171350000D01*
X145343072Y-169700000D01*
X145327929Y-169546255D01*
X145283084Y-169398418D01*
X145210258Y-169262171D01*
X145208476Y-169260000D01*
X145462678Y-169260000D01*
X145500000Y-169263676D01*
X145537322Y-169260000D01*
X145537333Y-169260000D01*
X145648986Y-169249003D01*
X145734725Y-169222995D01*
X145710498Y-169268320D01*
X145674188Y-169388018D01*
X145661928Y-169512500D01*
X145665000Y-169714250D01*
X145823750Y-169873000D01*
X146873000Y-169873000D01*
X146873000Y-169036250D01*
X147127000Y-169036250D01*
X147127000Y-169873000D01*
X148873000Y-169873000D01*
X148873000Y-169036250D01*
X149127000Y-169036250D01*
X149127000Y-169873000D01*
X150176250Y-169873000D01*
X150335000Y-169714250D01*
X150338072Y-169512500D01*
X150325812Y-169388018D01*
X150289502Y-169268320D01*
X150230537Y-169158006D01*
X150151185Y-169061315D01*
X150054494Y-168981963D01*
X149944180Y-168922998D01*
X149824482Y-168886688D01*
X149700000Y-168874428D01*
X149285750Y-168877500D01*
X149127000Y-169036250D01*
X148873000Y-169036250D01*
X148714250Y-168877500D01*
X148300000Y-168874428D01*
X148175518Y-168886688D01*
X148055820Y-168922998D01*
X148000000Y-168952835D01*
X147944180Y-168922998D01*
X147824482Y-168886688D01*
X147700000Y-168874428D01*
X147285750Y-168877500D01*
X147127000Y-169036250D01*
X146873000Y-169036250D01*
X146714250Y-168877500D01*
X146300000Y-168874428D01*
X146189490Y-168885312D01*
X146261002Y-168813800D01*
X146290001Y-168790001D01*
X146384974Y-168674276D01*
X146455546Y-168542247D01*
X146499003Y-168398986D01*
X146510000Y-168287333D01*
X146510000Y-168287324D01*
X146513676Y-168250001D01*
X146510000Y-168212678D01*
X146510000Y-165897687D01*
X146513676Y-165860364D01*
X146510000Y-165823041D01*
X146510000Y-165823031D01*
X146499003Y-165711378D01*
X146455546Y-165568117D01*
X146384974Y-165436088D01*
X146290001Y-165320363D01*
X146261004Y-165296566D01*
X145638072Y-164673635D01*
X145638072Y-164200000D01*
X145625812Y-164075518D01*
X145589502Y-163955820D01*
X145530537Y-163845506D01*
X145451185Y-163748815D01*
X145354494Y-163669463D01*
X145244180Y-163610498D01*
X145124482Y-163574188D01*
X145000000Y-163561928D01*
X142900000Y-163561928D01*
X142775518Y-163574188D01*
X142685000Y-163601646D01*
X142685000Y-163033647D01*
X142688314Y-163000000D01*
X142675088Y-162865717D01*
X142635919Y-162736594D01*
X142572312Y-162617593D01*
X142486711Y-162513289D01*
X142382407Y-162427688D01*
X142263406Y-162364081D01*
X142134283Y-162324912D01*
X142033647Y-162315000D01*
X142000000Y-162311686D01*
X141966353Y-162315000D01*
X138160000Y-162315000D01*
X138160000Y-159877000D01*
X138437908Y-159877000D01*
X138678169Y-160037537D01*
M02*
