G04 #@! TF.GenerationSoftware,KiCad,Pcbnew,(5.1.6-0-10_14)*
G04 #@! TF.CreationDate,2020-10-13T19:53:42+09:00*
G04 #@! TF.ProjectId,teabiscuits_compute,74656162-6973-4637-9569-74735f636f6d,rev?*
G04 #@! TF.SameCoordinates,Original*
G04 #@! TF.FileFunction,Copper,L2,Bot*
G04 #@! TF.FilePolarity,Positive*
%FSLAX46Y46*%
G04 Gerber Fmt 4.6, Leading zero omitted, Abs format (unit mm)*
G04 Created by KiCad (PCBNEW (5.1.6-0-10_14)) date 2020-10-13 19:53:42*
%MOMM*%
%LPD*%
G01*
G04 APERTURE LIST*
G04 #@! TA.AperFunction,ComponentPad*
%ADD10C,2.500000*%
G04 #@! TD*
G04 #@! TA.AperFunction,ComponentPad*
%ADD11C,7.500000*%
G04 #@! TD*
G04 #@! TA.AperFunction,ComponentPad*
%ADD12O,1.700000X1.700000*%
G04 #@! TD*
G04 #@! TA.AperFunction,ComponentPad*
%ADD13R,1.700000X1.700000*%
G04 #@! TD*
G04 #@! TA.AperFunction,ViaPad*
%ADD14C,2.200000*%
G04 #@! TD*
G04 #@! TA.AperFunction,ViaPad*
%ADD15C,0.800000*%
G04 #@! TD*
G04 #@! TA.AperFunction,Conductor*
%ADD16C,0.250000*%
G04 #@! TD*
G04 #@! TA.AperFunction,Conductor*
%ADD17C,0.254000*%
G04 #@! TD*
G04 APERTURE END LIST*
D10*
X156500000Y-165750000D03*
X161500000Y-165750000D03*
X151500000Y-165750000D03*
D11*
X156500000Y-153250000D03*
D12*
X166500000Y-171670000D03*
D13*
X166500000Y-174210000D03*
D14*
X166500000Y-148000000D03*
X139500000Y-148000000D03*
X166500000Y-158500000D03*
X139500000Y-158500000D03*
D15*
X143000000Y-167250000D03*
X138500000Y-172750000D03*
X144250000Y-176750000D03*
X143000000Y-174250000D03*
X146750000Y-172500000D03*
X141750000Y-176500000D03*
X143135000Y-169500000D03*
D16*
X144750000Y-172500000D02*
X146750000Y-172500000D01*
X143000000Y-174250000D02*
X144750000Y-172500000D01*
X161500000Y-165750000D02*
X158500000Y-168750000D01*
X158500000Y-168750000D02*
X152500000Y-168750000D01*
X148750000Y-172500000D02*
X146750000Y-172500000D01*
X152500000Y-168750000D02*
X148750000Y-172500000D01*
X141750000Y-176500000D02*
X141750000Y-171250000D01*
X142410000Y-171250000D02*
X143135000Y-170525000D01*
X141750000Y-171250000D02*
X142410000Y-171250000D01*
X143135000Y-170525000D02*
X143135000Y-169500000D01*
D17*
G36*
X138678169Y-160037537D02*
G01*
X138993919Y-160168325D01*
X139329117Y-160235000D01*
X139670883Y-160235000D01*
X140006081Y-160168325D01*
X140321831Y-160037537D01*
X140562092Y-159877000D01*
X165437908Y-159877000D01*
X165678169Y-160037537D01*
X165993919Y-160168325D01*
X166329117Y-160235000D01*
X166670883Y-160235000D01*
X167006081Y-160168325D01*
X167321831Y-160037537D01*
X167562092Y-159877000D01*
X167840001Y-159877000D01*
X167840000Y-171046599D01*
X167771641Y-170903080D01*
X167597588Y-170669731D01*
X167381355Y-170474822D01*
X167131252Y-170325843D01*
X166856891Y-170228519D01*
X166627000Y-170349186D01*
X166627000Y-171543000D01*
X166647000Y-171543000D01*
X166647000Y-171797000D01*
X166627000Y-171797000D01*
X166627000Y-171817000D01*
X166373000Y-171817000D01*
X166373000Y-171797000D01*
X165179845Y-171797000D01*
X165058524Y-172026890D01*
X165103175Y-172174099D01*
X165228359Y-172436920D01*
X165402412Y-172670269D01*
X165486466Y-172746034D01*
X165405820Y-172770498D01*
X165295506Y-172829463D01*
X165198815Y-172908815D01*
X165119463Y-173005506D01*
X165060498Y-173115820D01*
X165024188Y-173235518D01*
X165011928Y-173360000D01*
X165011928Y-175060000D01*
X165024188Y-175184482D01*
X165060498Y-175304180D01*
X165119463Y-175414494D01*
X165198815Y-175511185D01*
X165295506Y-175590537D01*
X165405820Y-175649502D01*
X165525518Y-175685812D01*
X165650000Y-175698072D01*
X167350000Y-175698072D01*
X167474482Y-175685812D01*
X167594180Y-175649502D01*
X167704494Y-175590537D01*
X167801185Y-175511185D01*
X167840000Y-175463889D01*
X167840000Y-176840000D01*
X142729444Y-176840000D01*
X142745226Y-176801898D01*
X142785000Y-176601939D01*
X142785000Y-176398061D01*
X142745226Y-176198102D01*
X142667205Y-176009744D01*
X142553937Y-175840226D01*
X142510000Y-175796289D01*
X142510000Y-175167311D01*
X142698102Y-175245226D01*
X142898061Y-175285000D01*
X143101939Y-175285000D01*
X143301898Y-175245226D01*
X143490256Y-175167205D01*
X143659774Y-175053937D01*
X143803937Y-174909774D01*
X143917205Y-174740256D01*
X143995226Y-174551898D01*
X144035000Y-174351939D01*
X144035000Y-174289801D01*
X145064802Y-173260000D01*
X146046289Y-173260000D01*
X146090226Y-173303937D01*
X146259744Y-173417205D01*
X146448102Y-173495226D01*
X146648061Y-173535000D01*
X146851939Y-173535000D01*
X147051898Y-173495226D01*
X147240256Y-173417205D01*
X147409774Y-173303937D01*
X147453711Y-173260000D01*
X148712678Y-173260000D01*
X148750000Y-173263676D01*
X148787322Y-173260000D01*
X148787333Y-173260000D01*
X148898986Y-173249003D01*
X149042247Y-173205546D01*
X149174276Y-173134974D01*
X149290001Y-173040001D01*
X149313804Y-173010997D01*
X151011691Y-171313110D01*
X165058524Y-171313110D01*
X165179845Y-171543000D01*
X166373000Y-171543000D01*
X166373000Y-170349186D01*
X166143109Y-170228519D01*
X165868748Y-170325843D01*
X165618645Y-170474822D01*
X165402412Y-170669731D01*
X165228359Y-170903080D01*
X165103175Y-171165901D01*
X165058524Y-171313110D01*
X151011691Y-171313110D01*
X152814802Y-169510000D01*
X158462678Y-169510000D01*
X158500000Y-169513676D01*
X158537322Y-169510000D01*
X158537333Y-169510000D01*
X158648986Y-169499003D01*
X158792247Y-169455546D01*
X158924276Y-169384974D01*
X159040001Y-169290001D01*
X159063804Y-169260997D01*
X160817283Y-167507519D01*
X160950166Y-167562561D01*
X161314344Y-167635000D01*
X161685656Y-167635000D01*
X162049834Y-167562561D01*
X162392882Y-167420466D01*
X162701618Y-167214175D01*
X162964175Y-166951618D01*
X163170466Y-166642882D01*
X163312561Y-166299834D01*
X163385000Y-165935656D01*
X163385000Y-165564344D01*
X163312561Y-165200166D01*
X163170466Y-164857118D01*
X162964175Y-164548382D01*
X162701618Y-164285825D01*
X162392882Y-164079534D01*
X162049834Y-163937439D01*
X161685656Y-163865000D01*
X161314344Y-163865000D01*
X160950166Y-163937439D01*
X160607118Y-164079534D01*
X160298382Y-164285825D01*
X160035825Y-164548382D01*
X159829534Y-164857118D01*
X159687439Y-165200166D01*
X159615000Y-165564344D01*
X159615000Y-165935656D01*
X159687439Y-166299834D01*
X159742481Y-166432717D01*
X158185199Y-167990000D01*
X152537323Y-167990000D01*
X152500000Y-167986324D01*
X152462677Y-167990000D01*
X152462667Y-167990000D01*
X152351014Y-168000997D01*
X152207753Y-168044454D01*
X152075724Y-168115026D01*
X151959999Y-168209999D01*
X151936201Y-168238997D01*
X148435199Y-171740000D01*
X147453711Y-171740000D01*
X147409774Y-171696063D01*
X147240256Y-171582795D01*
X147051898Y-171504774D01*
X146851939Y-171465000D01*
X146648061Y-171465000D01*
X146448102Y-171504774D01*
X146259744Y-171582795D01*
X146090226Y-171696063D01*
X146046289Y-171740000D01*
X144787325Y-171740000D01*
X144750000Y-171736324D01*
X144712675Y-171740000D01*
X144712667Y-171740000D01*
X144601014Y-171750997D01*
X144457753Y-171794454D01*
X144325724Y-171865026D01*
X144209999Y-171959999D01*
X144186201Y-171988997D01*
X142960199Y-173215000D01*
X142898061Y-173215000D01*
X142698102Y-173254774D01*
X142510000Y-173332689D01*
X142510000Y-172003828D01*
X142558986Y-171999003D01*
X142702247Y-171955546D01*
X142834276Y-171884974D01*
X142950001Y-171790001D01*
X142973803Y-171760998D01*
X143646004Y-171088798D01*
X143675001Y-171065001D01*
X143769974Y-170949276D01*
X143840546Y-170817247D01*
X143884003Y-170673986D01*
X143895000Y-170562333D01*
X143895000Y-170562323D01*
X143898676Y-170525000D01*
X143895000Y-170487677D01*
X143895000Y-170203711D01*
X143938937Y-170159774D01*
X144052205Y-169990256D01*
X144130226Y-169801898D01*
X144170000Y-169601939D01*
X144170000Y-169398061D01*
X144130226Y-169198102D01*
X144052205Y-169009744D01*
X143938937Y-168840226D01*
X143794774Y-168696063D01*
X143625256Y-168582795D01*
X143436898Y-168504774D01*
X143236939Y-168465000D01*
X143033061Y-168465000D01*
X142833102Y-168504774D01*
X142644744Y-168582795D01*
X142475226Y-168696063D01*
X142331063Y-168840226D01*
X142217795Y-169009744D01*
X142139774Y-169198102D01*
X142100000Y-169398061D01*
X142100000Y-169601939D01*
X142139774Y-169801898D01*
X142217795Y-169990256D01*
X142331063Y-170159774D01*
X142375000Y-170203711D01*
X142375000Y-170210198D01*
X142095199Y-170490000D01*
X141787333Y-170490000D01*
X141750000Y-170486323D01*
X141712667Y-170490000D01*
X141601014Y-170500997D01*
X141457753Y-170544454D01*
X141325724Y-170615026D01*
X141209999Y-170709999D01*
X141115026Y-170825724D01*
X141044454Y-170957753D01*
X141000997Y-171101014D01*
X140986323Y-171250000D01*
X140990001Y-171287343D01*
X140990000Y-175796289D01*
X140946063Y-175840226D01*
X140832795Y-176009744D01*
X140754774Y-176198102D01*
X140715000Y-176398061D01*
X140715000Y-176601939D01*
X140754774Y-176801898D01*
X140770556Y-176840000D01*
X138160000Y-176840000D01*
X138160000Y-167185000D01*
X141966353Y-167185000D01*
X142000000Y-167188314D01*
X142033647Y-167185000D01*
X142134283Y-167175088D01*
X142263406Y-167135919D01*
X142382407Y-167072312D01*
X142486711Y-166986711D01*
X142572312Y-166882407D01*
X142635919Y-166763406D01*
X142675088Y-166634283D01*
X142688314Y-166500000D01*
X142685000Y-166466353D01*
X142685000Y-165564344D01*
X149615000Y-165564344D01*
X149615000Y-165935656D01*
X149687439Y-166299834D01*
X149829534Y-166642882D01*
X150035825Y-166951618D01*
X150298382Y-167214175D01*
X150607118Y-167420466D01*
X150950166Y-167562561D01*
X151314344Y-167635000D01*
X151685656Y-167635000D01*
X152049834Y-167562561D01*
X152392882Y-167420466D01*
X152701618Y-167214175D01*
X152964175Y-166951618D01*
X153170466Y-166642882D01*
X153312561Y-166299834D01*
X153385000Y-165935656D01*
X153385000Y-165564344D01*
X154615000Y-165564344D01*
X154615000Y-165935656D01*
X154687439Y-166299834D01*
X154829534Y-166642882D01*
X155035825Y-166951618D01*
X155298382Y-167214175D01*
X155607118Y-167420466D01*
X155950166Y-167562561D01*
X156314344Y-167635000D01*
X156685656Y-167635000D01*
X157049834Y-167562561D01*
X157392882Y-167420466D01*
X157701618Y-167214175D01*
X157964175Y-166951618D01*
X158170466Y-166642882D01*
X158312561Y-166299834D01*
X158385000Y-165935656D01*
X158385000Y-165564344D01*
X158312561Y-165200166D01*
X158170466Y-164857118D01*
X157964175Y-164548382D01*
X157701618Y-164285825D01*
X157392882Y-164079534D01*
X157049834Y-163937439D01*
X156685656Y-163865000D01*
X156314344Y-163865000D01*
X155950166Y-163937439D01*
X155607118Y-164079534D01*
X155298382Y-164285825D01*
X155035825Y-164548382D01*
X154829534Y-164857118D01*
X154687439Y-165200166D01*
X154615000Y-165564344D01*
X153385000Y-165564344D01*
X153312561Y-165200166D01*
X153170466Y-164857118D01*
X152964175Y-164548382D01*
X152701618Y-164285825D01*
X152392882Y-164079534D01*
X152049834Y-163937439D01*
X151685656Y-163865000D01*
X151314344Y-163865000D01*
X150950166Y-163937439D01*
X150607118Y-164079534D01*
X150298382Y-164285825D01*
X150035825Y-164548382D01*
X149829534Y-164857118D01*
X149687439Y-165200166D01*
X149615000Y-165564344D01*
X142685000Y-165564344D01*
X142685000Y-163033647D01*
X142688314Y-163000000D01*
X142675088Y-162865717D01*
X142635919Y-162736594D01*
X142572312Y-162617593D01*
X142486711Y-162513289D01*
X142382407Y-162427688D01*
X142263406Y-162364081D01*
X142134283Y-162324912D01*
X142033647Y-162315000D01*
X142000000Y-162311686D01*
X141966353Y-162315000D01*
X138160000Y-162315000D01*
X138160000Y-159877000D01*
X138437908Y-159877000D01*
X138678169Y-160037537D01*
G37*
X138678169Y-160037537D02*
X138993919Y-160168325D01*
X139329117Y-160235000D01*
X139670883Y-160235000D01*
X140006081Y-160168325D01*
X140321831Y-160037537D01*
X140562092Y-159877000D01*
X165437908Y-159877000D01*
X165678169Y-160037537D01*
X165993919Y-160168325D01*
X166329117Y-160235000D01*
X166670883Y-160235000D01*
X167006081Y-160168325D01*
X167321831Y-160037537D01*
X167562092Y-159877000D01*
X167840001Y-159877000D01*
X167840000Y-171046599D01*
X167771641Y-170903080D01*
X167597588Y-170669731D01*
X167381355Y-170474822D01*
X167131252Y-170325843D01*
X166856891Y-170228519D01*
X166627000Y-170349186D01*
X166627000Y-171543000D01*
X166647000Y-171543000D01*
X166647000Y-171797000D01*
X166627000Y-171797000D01*
X166627000Y-171817000D01*
X166373000Y-171817000D01*
X166373000Y-171797000D01*
X165179845Y-171797000D01*
X165058524Y-172026890D01*
X165103175Y-172174099D01*
X165228359Y-172436920D01*
X165402412Y-172670269D01*
X165486466Y-172746034D01*
X165405820Y-172770498D01*
X165295506Y-172829463D01*
X165198815Y-172908815D01*
X165119463Y-173005506D01*
X165060498Y-173115820D01*
X165024188Y-173235518D01*
X165011928Y-173360000D01*
X165011928Y-175060000D01*
X165024188Y-175184482D01*
X165060498Y-175304180D01*
X165119463Y-175414494D01*
X165198815Y-175511185D01*
X165295506Y-175590537D01*
X165405820Y-175649502D01*
X165525518Y-175685812D01*
X165650000Y-175698072D01*
X167350000Y-175698072D01*
X167474482Y-175685812D01*
X167594180Y-175649502D01*
X167704494Y-175590537D01*
X167801185Y-175511185D01*
X167840000Y-175463889D01*
X167840000Y-176840000D01*
X142729444Y-176840000D01*
X142745226Y-176801898D01*
X142785000Y-176601939D01*
X142785000Y-176398061D01*
X142745226Y-176198102D01*
X142667205Y-176009744D01*
X142553937Y-175840226D01*
X142510000Y-175796289D01*
X142510000Y-175167311D01*
X142698102Y-175245226D01*
X142898061Y-175285000D01*
X143101939Y-175285000D01*
X143301898Y-175245226D01*
X143490256Y-175167205D01*
X143659774Y-175053937D01*
X143803937Y-174909774D01*
X143917205Y-174740256D01*
X143995226Y-174551898D01*
X144035000Y-174351939D01*
X144035000Y-174289801D01*
X145064802Y-173260000D01*
X146046289Y-173260000D01*
X146090226Y-173303937D01*
X146259744Y-173417205D01*
X146448102Y-173495226D01*
X146648061Y-173535000D01*
X146851939Y-173535000D01*
X147051898Y-173495226D01*
X147240256Y-173417205D01*
X147409774Y-173303937D01*
X147453711Y-173260000D01*
X148712678Y-173260000D01*
X148750000Y-173263676D01*
X148787322Y-173260000D01*
X148787333Y-173260000D01*
X148898986Y-173249003D01*
X149042247Y-173205546D01*
X149174276Y-173134974D01*
X149290001Y-173040001D01*
X149313804Y-173010997D01*
X151011691Y-171313110D01*
X165058524Y-171313110D01*
X165179845Y-171543000D01*
X166373000Y-171543000D01*
X166373000Y-170349186D01*
X166143109Y-170228519D01*
X165868748Y-170325843D01*
X165618645Y-170474822D01*
X165402412Y-170669731D01*
X165228359Y-170903080D01*
X165103175Y-171165901D01*
X165058524Y-171313110D01*
X151011691Y-171313110D01*
X152814802Y-169510000D01*
X158462678Y-169510000D01*
X158500000Y-169513676D01*
X158537322Y-169510000D01*
X158537333Y-169510000D01*
X158648986Y-169499003D01*
X158792247Y-169455546D01*
X158924276Y-169384974D01*
X159040001Y-169290001D01*
X159063804Y-169260997D01*
X160817283Y-167507519D01*
X160950166Y-167562561D01*
X161314344Y-167635000D01*
X161685656Y-167635000D01*
X162049834Y-167562561D01*
X162392882Y-167420466D01*
X162701618Y-167214175D01*
X162964175Y-166951618D01*
X163170466Y-166642882D01*
X163312561Y-166299834D01*
X163385000Y-165935656D01*
X163385000Y-165564344D01*
X163312561Y-165200166D01*
X163170466Y-164857118D01*
X162964175Y-164548382D01*
X162701618Y-164285825D01*
X162392882Y-164079534D01*
X162049834Y-163937439D01*
X161685656Y-163865000D01*
X161314344Y-163865000D01*
X160950166Y-163937439D01*
X160607118Y-164079534D01*
X160298382Y-164285825D01*
X160035825Y-164548382D01*
X159829534Y-164857118D01*
X159687439Y-165200166D01*
X159615000Y-165564344D01*
X159615000Y-165935656D01*
X159687439Y-166299834D01*
X159742481Y-166432717D01*
X158185199Y-167990000D01*
X152537323Y-167990000D01*
X152500000Y-167986324D01*
X152462677Y-167990000D01*
X152462667Y-167990000D01*
X152351014Y-168000997D01*
X152207753Y-168044454D01*
X152075724Y-168115026D01*
X151959999Y-168209999D01*
X151936201Y-168238997D01*
X148435199Y-171740000D01*
X147453711Y-171740000D01*
X147409774Y-171696063D01*
X147240256Y-171582795D01*
X147051898Y-171504774D01*
X146851939Y-171465000D01*
X146648061Y-171465000D01*
X146448102Y-171504774D01*
X146259744Y-171582795D01*
X146090226Y-171696063D01*
X146046289Y-171740000D01*
X144787325Y-171740000D01*
X144750000Y-171736324D01*
X144712675Y-171740000D01*
X144712667Y-171740000D01*
X144601014Y-171750997D01*
X144457753Y-171794454D01*
X144325724Y-171865026D01*
X144209999Y-171959999D01*
X144186201Y-171988997D01*
X142960199Y-173215000D01*
X142898061Y-173215000D01*
X142698102Y-173254774D01*
X142510000Y-173332689D01*
X142510000Y-172003828D01*
X142558986Y-171999003D01*
X142702247Y-171955546D01*
X142834276Y-171884974D01*
X142950001Y-171790001D01*
X142973803Y-171760998D01*
X143646004Y-171088798D01*
X143675001Y-171065001D01*
X143769974Y-170949276D01*
X143840546Y-170817247D01*
X143884003Y-170673986D01*
X143895000Y-170562333D01*
X143895000Y-170562323D01*
X143898676Y-170525000D01*
X143895000Y-170487677D01*
X143895000Y-170203711D01*
X143938937Y-170159774D01*
X144052205Y-169990256D01*
X144130226Y-169801898D01*
X144170000Y-169601939D01*
X144170000Y-169398061D01*
X144130226Y-169198102D01*
X144052205Y-169009744D01*
X143938937Y-168840226D01*
X143794774Y-168696063D01*
X143625256Y-168582795D01*
X143436898Y-168504774D01*
X143236939Y-168465000D01*
X143033061Y-168465000D01*
X142833102Y-168504774D01*
X142644744Y-168582795D01*
X142475226Y-168696063D01*
X142331063Y-168840226D01*
X142217795Y-169009744D01*
X142139774Y-169198102D01*
X142100000Y-169398061D01*
X142100000Y-169601939D01*
X142139774Y-169801898D01*
X142217795Y-169990256D01*
X142331063Y-170159774D01*
X142375000Y-170203711D01*
X142375000Y-170210198D01*
X142095199Y-170490000D01*
X141787333Y-170490000D01*
X141750000Y-170486323D01*
X141712667Y-170490000D01*
X141601014Y-170500997D01*
X141457753Y-170544454D01*
X141325724Y-170615026D01*
X141209999Y-170709999D01*
X141115026Y-170825724D01*
X141044454Y-170957753D01*
X141000997Y-171101014D01*
X140986323Y-171250000D01*
X140990001Y-171287343D01*
X140990000Y-175796289D01*
X140946063Y-175840226D01*
X140832795Y-176009744D01*
X140754774Y-176198102D01*
X140715000Y-176398061D01*
X140715000Y-176601939D01*
X140754774Y-176801898D01*
X140770556Y-176840000D01*
X138160000Y-176840000D01*
X138160000Y-167185000D01*
X141966353Y-167185000D01*
X142000000Y-167188314D01*
X142033647Y-167185000D01*
X142134283Y-167175088D01*
X142263406Y-167135919D01*
X142382407Y-167072312D01*
X142486711Y-166986711D01*
X142572312Y-166882407D01*
X142635919Y-166763406D01*
X142675088Y-166634283D01*
X142688314Y-166500000D01*
X142685000Y-166466353D01*
X142685000Y-165564344D01*
X149615000Y-165564344D01*
X149615000Y-165935656D01*
X149687439Y-166299834D01*
X149829534Y-166642882D01*
X150035825Y-166951618D01*
X150298382Y-167214175D01*
X150607118Y-167420466D01*
X150950166Y-167562561D01*
X151314344Y-167635000D01*
X151685656Y-167635000D01*
X152049834Y-167562561D01*
X152392882Y-167420466D01*
X152701618Y-167214175D01*
X152964175Y-166951618D01*
X153170466Y-166642882D01*
X153312561Y-166299834D01*
X153385000Y-165935656D01*
X153385000Y-165564344D01*
X154615000Y-165564344D01*
X154615000Y-165935656D01*
X154687439Y-166299834D01*
X154829534Y-166642882D01*
X155035825Y-166951618D01*
X155298382Y-167214175D01*
X155607118Y-167420466D01*
X155950166Y-167562561D01*
X156314344Y-167635000D01*
X156685656Y-167635000D01*
X157049834Y-167562561D01*
X157392882Y-167420466D01*
X157701618Y-167214175D01*
X157964175Y-166951618D01*
X158170466Y-166642882D01*
X158312561Y-166299834D01*
X158385000Y-165935656D01*
X158385000Y-165564344D01*
X158312561Y-165200166D01*
X158170466Y-164857118D01*
X157964175Y-164548382D01*
X157701618Y-164285825D01*
X157392882Y-164079534D01*
X157049834Y-163937439D01*
X156685656Y-163865000D01*
X156314344Y-163865000D01*
X155950166Y-163937439D01*
X155607118Y-164079534D01*
X155298382Y-164285825D01*
X155035825Y-164548382D01*
X154829534Y-164857118D01*
X154687439Y-165200166D01*
X154615000Y-165564344D01*
X153385000Y-165564344D01*
X153312561Y-165200166D01*
X153170466Y-164857118D01*
X152964175Y-164548382D01*
X152701618Y-164285825D01*
X152392882Y-164079534D01*
X152049834Y-163937439D01*
X151685656Y-163865000D01*
X151314344Y-163865000D01*
X150950166Y-163937439D01*
X150607118Y-164079534D01*
X150298382Y-164285825D01*
X150035825Y-164548382D01*
X149829534Y-164857118D01*
X149687439Y-165200166D01*
X149615000Y-165564344D01*
X142685000Y-165564344D01*
X142685000Y-163033647D01*
X142688314Y-163000000D01*
X142675088Y-162865717D01*
X142635919Y-162736594D01*
X142572312Y-162617593D01*
X142486711Y-162513289D01*
X142382407Y-162427688D01*
X142263406Y-162364081D01*
X142134283Y-162324912D01*
X142033647Y-162315000D01*
X142000000Y-162311686D01*
X141966353Y-162315000D01*
X138160000Y-162315000D01*
X138160000Y-159877000D01*
X138437908Y-159877000D01*
X138678169Y-160037537D01*
M02*
