G04 #@! TF.GenerationSoftware,KiCad,Pcbnew,5.1.5*
G04 #@! TF.CreationDate,2020-06-30T22:23:49+09:00*
G04 #@! TF.ProjectId,teabiscuits,74656162-6973-4637-9569-74732e6b6963,rev?*
G04 #@! TF.SameCoordinates,Original*
G04 #@! TF.FileFunction,Legend,Bot*
G04 #@! TF.FilePolarity,Positive*
%FSLAX46Y46*%
G04 Gerber Fmt 4.6, Leading zero omitted, Abs format (unit mm)*
G04 Created by KiCad (PCBNEW 5.1.5) date 2020-06-30 22:23:49*
%MOMM*%
%LPD*%
G04 APERTURE LIST*
%ADD10C,0.120000*%
%ADD11C,0.150000*%
G04 APERTURE END LIST*
D10*
X161960000Y-138928922D02*
X161960000Y-139446078D01*
X160540000Y-138928922D02*
X160540000Y-139446078D01*
X161803922Y-143210000D02*
X162321078Y-143210000D01*
X161803922Y-141790000D02*
X162321078Y-141790000D01*
X155540000Y-138928922D02*
X155540000Y-139446078D01*
X156960000Y-138928922D02*
X156960000Y-139446078D01*
X165571078Y-137710000D02*
X165053922Y-137710000D01*
X165571078Y-136290000D02*
X165053922Y-136290000D01*
X168210000Y-140571078D02*
X168210000Y-140053922D01*
X166790000Y-140571078D02*
X166790000Y-140053922D01*
X165710000Y-141491422D02*
X165710000Y-142008578D01*
X164290000Y-141491422D02*
X164290000Y-142008578D01*
D11*
X161416666Y-136607142D02*
X161464285Y-136654761D01*
X161607142Y-136702380D01*
X161702380Y-136702380D01*
X161845238Y-136654761D01*
X161940476Y-136559523D01*
X161988095Y-136464285D01*
X162035714Y-136273809D01*
X162035714Y-136130952D01*
X161988095Y-135940476D01*
X161940476Y-135845238D01*
X161845238Y-135750000D01*
X161702380Y-135702380D01*
X161607142Y-135702380D01*
X161464285Y-135750000D01*
X161416666Y-135797619D01*
X161035714Y-135797619D02*
X160988095Y-135750000D01*
X160892857Y-135702380D01*
X160654761Y-135702380D01*
X160559523Y-135750000D01*
X160511904Y-135797619D01*
X160464285Y-135892857D01*
X160464285Y-135988095D01*
X160511904Y-136130952D01*
X161083333Y-136702380D01*
X160464285Y-136702380D01*
X159416666Y-142952380D02*
X159750000Y-142476190D01*
X159988095Y-142952380D02*
X159988095Y-141952380D01*
X159607142Y-141952380D01*
X159511904Y-142000000D01*
X159464285Y-142047619D01*
X159416666Y-142142857D01*
X159416666Y-142285714D01*
X159464285Y-142380952D01*
X159511904Y-142428571D01*
X159607142Y-142476190D01*
X159988095Y-142476190D01*
X159083333Y-141952380D02*
X158464285Y-141952380D01*
X158797619Y-142333333D01*
X158654761Y-142333333D01*
X158559523Y-142380952D01*
X158511904Y-142428571D01*
X158464285Y-142523809D01*
X158464285Y-142761904D01*
X158511904Y-142857142D01*
X158559523Y-142904761D01*
X158654761Y-142952380D01*
X158940476Y-142952380D01*
X159035714Y-142904761D01*
X159083333Y-142857142D01*
X156416666Y-142357142D02*
X156464285Y-142404761D01*
X156607142Y-142452380D01*
X156702380Y-142452380D01*
X156845238Y-142404761D01*
X156940476Y-142309523D01*
X156988095Y-142214285D01*
X157035714Y-142023809D01*
X157035714Y-141880952D01*
X156988095Y-141690476D01*
X156940476Y-141595238D01*
X156845238Y-141500000D01*
X156702380Y-141452380D01*
X156607142Y-141452380D01*
X156464285Y-141500000D01*
X156416666Y-141547619D01*
X156083333Y-141452380D02*
X155464285Y-141452380D01*
X155797619Y-141833333D01*
X155654761Y-141833333D01*
X155559523Y-141880952D01*
X155511904Y-141928571D01*
X155464285Y-142023809D01*
X155464285Y-142261904D01*
X155511904Y-142357142D01*
X155559523Y-142404761D01*
X155654761Y-142452380D01*
X155940476Y-142452380D01*
X156035714Y-142404761D01*
X156083333Y-142357142D01*
X168282142Y-136833333D02*
X168329761Y-136785714D01*
X168377380Y-136642857D01*
X168377380Y-136547619D01*
X168329761Y-136404761D01*
X168234523Y-136309523D01*
X168139285Y-136261904D01*
X167948809Y-136214285D01*
X167805952Y-136214285D01*
X167615476Y-136261904D01*
X167520238Y-136309523D01*
X167425000Y-136404761D01*
X167377380Y-136547619D01*
X167377380Y-136642857D01*
X167425000Y-136785714D01*
X167472619Y-136833333D01*
X167710714Y-137690476D02*
X168377380Y-137690476D01*
X167329761Y-137452380D02*
X168044047Y-137214285D01*
X168044047Y-137833333D01*
X169607142Y-140583333D02*
X169654761Y-140535714D01*
X169702380Y-140392857D01*
X169702380Y-140297619D01*
X169654761Y-140154761D01*
X169559523Y-140059523D01*
X169464285Y-140011904D01*
X169273809Y-139964285D01*
X169130952Y-139964285D01*
X168940476Y-140011904D01*
X168845238Y-140059523D01*
X168750000Y-140154761D01*
X168702380Y-140297619D01*
X168702380Y-140392857D01*
X168750000Y-140535714D01*
X168797619Y-140583333D01*
X168702380Y-141488095D02*
X168702380Y-141011904D01*
X169178571Y-140964285D01*
X169130952Y-141011904D01*
X169083333Y-141107142D01*
X169083333Y-141345238D01*
X169130952Y-141440476D01*
X169178571Y-141488095D01*
X169273809Y-141535714D01*
X169511904Y-141535714D01*
X169607142Y-141488095D01*
X169654761Y-141440476D01*
X169702380Y-141345238D01*
X169702380Y-141107142D01*
X169654761Y-141011904D01*
X169607142Y-140964285D01*
X165166666Y-139952380D02*
X165500000Y-139476190D01*
X165738095Y-139952380D02*
X165738095Y-138952380D01*
X165357142Y-138952380D01*
X165261904Y-139000000D01*
X165214285Y-139047619D01*
X165166666Y-139142857D01*
X165166666Y-139285714D01*
X165214285Y-139380952D01*
X165261904Y-139428571D01*
X165357142Y-139476190D01*
X165738095Y-139476190D01*
X164309523Y-139285714D02*
X164309523Y-139952380D01*
X164547619Y-138904761D02*
X164785714Y-139619047D01*
X164166666Y-139619047D01*
M02*
