G04 #@! TF.GenerationSoftware,KiCad,Pcbnew,(5.1.6-0-10_14)*
G04 #@! TF.CreationDate,2020-09-02T22:45:38+09:00*
G04 #@! TF.ProjectId,teabiscuits,74656162-6973-4637-9569-74732e6b6963,rev?*
G04 #@! TF.SameCoordinates,Original*
G04 #@! TF.FileFunction,Paste,Bot*
G04 #@! TF.FilePolarity,Positive*
%FSLAX46Y46*%
G04 Gerber Fmt 4.6, Leading zero omitted, Abs format (unit mm)*
G04 Created by KiCad (PCBNEW (5.1.6-0-10_14)) date 2020-09-02 22:45:38*
%MOMM*%
%LPD*%
G01*
G04 APERTURE LIST*
G04 APERTURE END LIST*
G36*
G01*
X160793750Y-139287500D02*
X161706250Y-139287500D01*
G75*
G02*
X161950000Y-139531250I0J-243750D01*
G01*
X161950000Y-140018750D01*
G75*
G02*
X161706250Y-140262500I-243750J0D01*
G01*
X160793750Y-140262500D01*
G75*
G02*
X160550000Y-140018750I0J243750D01*
G01*
X160550000Y-139531250D01*
G75*
G02*
X160793750Y-139287500I243750J0D01*
G01*
G37*
G36*
G01*
X160793750Y-137412500D02*
X161706250Y-137412500D01*
G75*
G02*
X161950000Y-137656250I0J-243750D01*
G01*
X161950000Y-138143750D01*
G75*
G02*
X161706250Y-138387500I-243750J0D01*
G01*
X160793750Y-138387500D01*
G75*
G02*
X160550000Y-138143750I0J243750D01*
G01*
X160550000Y-137656250D01*
G75*
G02*
X160793750Y-137412500I243750J0D01*
G01*
G37*
G36*
G01*
X160637500Y-142756250D02*
X160637500Y-141843750D01*
G75*
G02*
X160881250Y-141600000I243750J0D01*
G01*
X161368750Y-141600000D01*
G75*
G02*
X161612500Y-141843750I0J-243750D01*
G01*
X161612500Y-142756250D01*
G75*
G02*
X161368750Y-143000000I-243750J0D01*
G01*
X160881250Y-143000000D01*
G75*
G02*
X160637500Y-142756250I0J243750D01*
G01*
G37*
G36*
G01*
X162512500Y-142756250D02*
X162512500Y-141843750D01*
G75*
G02*
X162756250Y-141600000I243750J0D01*
G01*
X163243750Y-141600000D01*
G75*
G02*
X163487500Y-141843750I0J-243750D01*
G01*
X163487500Y-142756250D01*
G75*
G02*
X163243750Y-143000000I-243750J0D01*
G01*
X162756250Y-143000000D01*
G75*
G02*
X162512500Y-142756250I0J243750D01*
G01*
G37*
G36*
G01*
X155793750Y-137412500D02*
X156706250Y-137412500D01*
G75*
G02*
X156950000Y-137656250I0J-243750D01*
G01*
X156950000Y-138143750D01*
G75*
G02*
X156706250Y-138387500I-243750J0D01*
G01*
X155793750Y-138387500D01*
G75*
G02*
X155550000Y-138143750I0J243750D01*
G01*
X155550000Y-137656250D01*
G75*
G02*
X155793750Y-137412500I243750J0D01*
G01*
G37*
G36*
G01*
X155793750Y-139287500D02*
X156706250Y-139287500D01*
G75*
G02*
X156950000Y-139531250I0J-243750D01*
G01*
X156950000Y-140018750D01*
G75*
G02*
X156706250Y-140262500I-243750J0D01*
G01*
X155793750Y-140262500D01*
G75*
G02*
X155550000Y-140018750I0J243750D01*
G01*
X155550000Y-139531250D01*
G75*
G02*
X155793750Y-139287500I243750J0D01*
G01*
G37*
G36*
G01*
X164862500Y-136543750D02*
X164862500Y-137456250D01*
G75*
G02*
X164618750Y-137700000I-243750J0D01*
G01*
X164131250Y-137700000D01*
G75*
G02*
X163887500Y-137456250I0J243750D01*
G01*
X163887500Y-136543750D01*
G75*
G02*
X164131250Y-136300000I243750J0D01*
G01*
X164618750Y-136300000D01*
G75*
G02*
X164862500Y-136543750I0J-243750D01*
G01*
G37*
G36*
G01*
X166737500Y-136543750D02*
X166737500Y-137456250D01*
G75*
G02*
X166493750Y-137700000I-243750J0D01*
G01*
X166006250Y-137700000D01*
G75*
G02*
X165762500Y-137456250I0J243750D01*
G01*
X165762500Y-136543750D01*
G75*
G02*
X166006250Y-136300000I243750J0D01*
G01*
X166493750Y-136300000D01*
G75*
G02*
X166737500Y-136543750I0J-243750D01*
G01*
G37*
G36*
G01*
X167956250Y-141737500D02*
X167043750Y-141737500D01*
G75*
G02*
X166800000Y-141493750I0J243750D01*
G01*
X166800000Y-141006250D01*
G75*
G02*
X167043750Y-140762500I243750J0D01*
G01*
X167956250Y-140762500D01*
G75*
G02*
X168200000Y-141006250I0J-243750D01*
G01*
X168200000Y-141493750D01*
G75*
G02*
X167956250Y-141737500I-243750J0D01*
G01*
G37*
G36*
G01*
X167956250Y-139862500D02*
X167043750Y-139862500D01*
G75*
G02*
X166800000Y-139618750I0J243750D01*
G01*
X166800000Y-139131250D01*
G75*
G02*
X167043750Y-138887500I243750J0D01*
G01*
X167956250Y-138887500D01*
G75*
G02*
X168200000Y-139131250I0J-243750D01*
G01*
X168200000Y-139618750D01*
G75*
G02*
X167956250Y-139862500I-243750J0D01*
G01*
G37*
G36*
G01*
X164543750Y-142012500D02*
X165456250Y-142012500D01*
G75*
G02*
X165700000Y-142256250I0J-243750D01*
G01*
X165700000Y-142743750D01*
G75*
G02*
X165456250Y-142987500I-243750J0D01*
G01*
X164543750Y-142987500D01*
G75*
G02*
X164300000Y-142743750I0J243750D01*
G01*
X164300000Y-142256250D01*
G75*
G02*
X164543750Y-142012500I243750J0D01*
G01*
G37*
G36*
G01*
X164543750Y-140137500D02*
X165456250Y-140137500D01*
G75*
G02*
X165700000Y-140381250I0J-243750D01*
G01*
X165700000Y-140868750D01*
G75*
G02*
X165456250Y-141112500I-243750J0D01*
G01*
X164543750Y-141112500D01*
G75*
G02*
X164300000Y-140868750I0J243750D01*
G01*
X164300000Y-140381250D01*
G75*
G02*
X164543750Y-140137500I243750J0D01*
G01*
G37*
M02*
