G04 #@! TF.GenerationSoftware,KiCad,Pcbnew,5.1.5*
G04 #@! TF.CreationDate,2020-06-30T22:23:49+09:00*
G04 #@! TF.ProjectId,teabiscuits,74656162-6973-4637-9569-74732e6b6963,rev?*
G04 #@! TF.SameCoordinates,Original*
G04 #@! TF.FileFunction,Soldermask,Bot*
G04 #@! TF.FilePolarity,Negative*
%FSLAX46Y46*%
G04 Gerber Fmt 4.6, Leading zero omitted, Abs format (unit mm)*
G04 Created by KiCad (PCBNEW 5.1.5) date 2020-06-30 22:23:49*
%MOMM*%
%LPD*%
G04 APERTURE LIST*
%ADD10C,0.100000*%
G04 APERTURE END LIST*
D10*
G36*
X177000000Y-145750000D02*
G01*
X152000000Y-145750000D01*
X152000000Y-132250000D01*
X154000000Y-132250000D01*
X154000000Y-143625001D01*
X154002402Y-143649387D01*
X154009515Y-143672836D01*
X154021066Y-143694447D01*
X154036611Y-143713389D01*
X154055553Y-143728934D01*
X154077164Y-143740485D01*
X154100613Y-143747598D01*
X154124999Y-143750000D01*
X174875001Y-143750000D01*
X174899387Y-143747598D01*
X174922836Y-143740485D01*
X174944447Y-143728934D01*
X174963389Y-143713389D01*
X174978934Y-143694447D01*
X174990485Y-143672836D01*
X174997598Y-143649387D01*
X175000000Y-143625001D01*
X175000000Y-127874999D01*
X174997598Y-127850613D01*
X174990485Y-127827164D01*
X174978934Y-127805553D01*
X174963389Y-127786611D01*
X174944447Y-127771066D01*
X174922836Y-127759515D01*
X174899387Y-127752402D01*
X174875001Y-127750000D01*
X154124999Y-127750000D01*
X154100613Y-127752402D01*
X154077164Y-127759515D01*
X154055553Y-127771066D01*
X154036611Y-127786611D01*
X154021066Y-127805553D01*
X154009515Y-127827164D01*
X154002402Y-127850613D01*
X154000000Y-127874999D01*
X154000000Y-128750000D01*
X152000000Y-128750000D01*
X152000000Y-125750000D01*
X177000000Y-125750000D01*
X177000000Y-145750000D01*
G37*
G36*
X163371968Y-141753565D02*
G01*
X163410638Y-141765296D01*
X163446277Y-141784346D01*
X163477517Y-141809983D01*
X163503154Y-141841223D01*
X163522204Y-141876862D01*
X163533935Y-141915532D01*
X163538500Y-141961888D01*
X163538500Y-143038112D01*
X163533935Y-143084468D01*
X163522204Y-143123138D01*
X163503154Y-143158777D01*
X163477517Y-143190017D01*
X163446277Y-143215654D01*
X163410638Y-143234704D01*
X163371968Y-143246435D01*
X163325612Y-143251000D01*
X162674388Y-143251000D01*
X162628032Y-143246435D01*
X162589362Y-143234704D01*
X162553723Y-143215654D01*
X162522483Y-143190017D01*
X162496846Y-143158777D01*
X162477796Y-143123138D01*
X162466065Y-143084468D01*
X162461500Y-143038112D01*
X162461500Y-141961888D01*
X162466065Y-141915532D01*
X162477796Y-141876862D01*
X162496846Y-141841223D01*
X162522483Y-141809983D01*
X162553723Y-141784346D01*
X162589362Y-141765296D01*
X162628032Y-141753565D01*
X162674388Y-141749000D01*
X163325612Y-141749000D01*
X163371968Y-141753565D01*
G37*
G36*
X161496968Y-141753565D02*
G01*
X161535638Y-141765296D01*
X161571277Y-141784346D01*
X161602517Y-141809983D01*
X161628154Y-141841223D01*
X161647204Y-141876862D01*
X161658935Y-141915532D01*
X161663500Y-141961888D01*
X161663500Y-143038112D01*
X161658935Y-143084468D01*
X161647204Y-143123138D01*
X161628154Y-143158777D01*
X161602517Y-143190017D01*
X161571277Y-143215654D01*
X161535638Y-143234704D01*
X161496968Y-143246435D01*
X161450612Y-143251000D01*
X160799388Y-143251000D01*
X160753032Y-143246435D01*
X160714362Y-143234704D01*
X160678723Y-143215654D01*
X160647483Y-143190017D01*
X160621846Y-143158777D01*
X160602796Y-143123138D01*
X160591065Y-143084468D01*
X160586500Y-143038112D01*
X160586500Y-141961888D01*
X160591065Y-141915532D01*
X160602796Y-141876862D01*
X160621846Y-141841223D01*
X160647483Y-141809983D01*
X160678723Y-141784346D01*
X160714362Y-141765296D01*
X160753032Y-141753565D01*
X160799388Y-141749000D01*
X161450612Y-141749000D01*
X161496968Y-141753565D01*
G37*
G36*
X165584468Y-142153565D02*
G01*
X165623138Y-142165296D01*
X165658777Y-142184346D01*
X165690017Y-142209983D01*
X165715654Y-142241223D01*
X165734704Y-142276862D01*
X165746435Y-142315532D01*
X165751000Y-142361888D01*
X165751000Y-143013112D01*
X165746435Y-143059468D01*
X165734704Y-143098138D01*
X165715654Y-143133777D01*
X165690017Y-143165017D01*
X165658777Y-143190654D01*
X165623138Y-143209704D01*
X165584468Y-143221435D01*
X165538112Y-143226000D01*
X164461888Y-143226000D01*
X164415532Y-143221435D01*
X164376862Y-143209704D01*
X164341223Y-143190654D01*
X164309983Y-143165017D01*
X164284346Y-143133777D01*
X164265296Y-143098138D01*
X164253565Y-143059468D01*
X164249000Y-143013112D01*
X164249000Y-142361888D01*
X164253565Y-142315532D01*
X164265296Y-142276862D01*
X164284346Y-142241223D01*
X164309983Y-142209983D01*
X164341223Y-142184346D01*
X164376862Y-142165296D01*
X164415532Y-142153565D01*
X164461888Y-142149000D01*
X165538112Y-142149000D01*
X165584468Y-142153565D01*
G37*
G36*
X170945721Y-140970174D02*
G01*
X171045995Y-141011709D01*
X171045996Y-141011710D01*
X171136242Y-141072010D01*
X171212990Y-141148758D01*
X171212991Y-141148760D01*
X171273291Y-141239005D01*
X171304516Y-141314389D01*
X171316067Y-141336000D01*
X171331612Y-141354941D01*
X171350554Y-141370487D01*
X171372165Y-141382038D01*
X171395614Y-141389151D01*
X171420000Y-141391553D01*
X171444386Y-141389151D01*
X171467835Y-141382038D01*
X171489446Y-141370487D01*
X171508387Y-141354942D01*
X171523933Y-141336000D01*
X171535484Y-141314389D01*
X171566709Y-141239005D01*
X171627009Y-141148760D01*
X171627010Y-141148758D01*
X171703758Y-141072010D01*
X171794004Y-141011710D01*
X171794005Y-141011709D01*
X171894279Y-140970174D01*
X172000730Y-140949000D01*
X172109270Y-140949000D01*
X172215721Y-140970174D01*
X172315995Y-141011709D01*
X172315996Y-141011710D01*
X172406242Y-141072010D01*
X172482990Y-141148758D01*
X172482991Y-141148760D01*
X172545068Y-141241664D01*
X172560614Y-141260606D01*
X172579556Y-141276151D01*
X172601167Y-141287702D01*
X172624615Y-141294815D01*
X172649002Y-141297217D01*
X172673388Y-141294815D01*
X172696837Y-141287702D01*
X172718447Y-141276151D01*
X172737389Y-141260605D01*
X172752934Y-141241663D01*
X172764485Y-141220052D01*
X172771598Y-141196604D01*
X172774000Y-141172218D01*
X172774000Y-140949000D01*
X173876000Y-140949000D01*
X173876000Y-142051000D01*
X172774000Y-142051000D01*
X172774000Y-141827782D01*
X172771598Y-141803396D01*
X172764485Y-141779947D01*
X172752934Y-141758336D01*
X172737389Y-141739394D01*
X172718447Y-141723849D01*
X172696836Y-141712298D01*
X172673387Y-141705185D01*
X172649001Y-141702783D01*
X172624615Y-141705185D01*
X172601166Y-141712298D01*
X172579555Y-141723849D01*
X172560613Y-141739394D01*
X172545068Y-141758336D01*
X172510558Y-141809983D01*
X172482990Y-141851242D01*
X172406242Y-141927990D01*
X172360812Y-141958345D01*
X172315995Y-141988291D01*
X172215721Y-142029826D01*
X172109270Y-142051000D01*
X172000730Y-142051000D01*
X171894279Y-142029826D01*
X171794005Y-141988291D01*
X171749188Y-141958345D01*
X171703758Y-141927990D01*
X171627010Y-141851242D01*
X171581630Y-141783326D01*
X171566709Y-141760995D01*
X171535484Y-141685611D01*
X171523933Y-141664000D01*
X171508388Y-141645059D01*
X171489446Y-141629513D01*
X171467835Y-141617962D01*
X171444386Y-141610849D01*
X171420000Y-141608447D01*
X171395614Y-141610849D01*
X171372165Y-141617962D01*
X171350554Y-141629513D01*
X171331613Y-141645058D01*
X171316067Y-141664000D01*
X171304516Y-141685611D01*
X171273291Y-141760995D01*
X171258370Y-141783326D01*
X171212990Y-141851242D01*
X171136242Y-141927990D01*
X171090812Y-141958345D01*
X171045995Y-141988291D01*
X170945721Y-142029826D01*
X170839270Y-142051000D01*
X170730730Y-142051000D01*
X170624279Y-142029826D01*
X170524005Y-141988291D01*
X170479188Y-141958345D01*
X170433758Y-141927990D01*
X170357010Y-141851242D01*
X170311630Y-141783326D01*
X170296709Y-141760995D01*
X170255174Y-141660721D01*
X170234000Y-141554270D01*
X170234000Y-141445730D01*
X170255174Y-141339279D01*
X170296709Y-141239005D01*
X170357009Y-141148760D01*
X170357010Y-141148758D01*
X170433758Y-141072010D01*
X170524004Y-141011710D01*
X170524005Y-141011709D01*
X170624279Y-140970174D01*
X170730730Y-140949000D01*
X170839270Y-140949000D01*
X170945721Y-140970174D01*
G37*
G36*
X168084468Y-140716065D02*
G01*
X168123138Y-140727796D01*
X168158777Y-140746846D01*
X168190017Y-140772483D01*
X168215654Y-140803723D01*
X168234704Y-140839362D01*
X168246435Y-140878032D01*
X168251000Y-140924388D01*
X168251000Y-141575612D01*
X168246435Y-141621968D01*
X168234704Y-141660638D01*
X168215654Y-141696277D01*
X168190017Y-141727517D01*
X168158777Y-141753154D01*
X168123138Y-141772204D01*
X168084468Y-141783935D01*
X168038112Y-141788500D01*
X166961888Y-141788500D01*
X166915532Y-141783935D01*
X166876862Y-141772204D01*
X166841223Y-141753154D01*
X166809983Y-141727517D01*
X166784346Y-141696277D01*
X166765296Y-141660638D01*
X166753565Y-141621968D01*
X166749000Y-141575612D01*
X166749000Y-140924388D01*
X166753565Y-140878032D01*
X166765296Y-140839362D01*
X166784346Y-140803723D01*
X166809983Y-140772483D01*
X166841223Y-140746846D01*
X166876862Y-140727796D01*
X166915532Y-140716065D01*
X166961888Y-140711500D01*
X168038112Y-140711500D01*
X168084468Y-140716065D01*
G37*
G36*
X165584468Y-140278565D02*
G01*
X165623138Y-140290296D01*
X165658777Y-140309346D01*
X165690017Y-140334983D01*
X165715654Y-140366223D01*
X165734704Y-140401862D01*
X165746435Y-140440532D01*
X165751000Y-140486888D01*
X165751000Y-141138112D01*
X165746435Y-141184468D01*
X165734704Y-141223138D01*
X165715654Y-141258777D01*
X165690017Y-141290017D01*
X165658777Y-141315654D01*
X165623138Y-141334704D01*
X165584468Y-141346435D01*
X165538112Y-141351000D01*
X164461888Y-141351000D01*
X164415532Y-141346435D01*
X164376862Y-141334704D01*
X164341223Y-141315654D01*
X164309983Y-141290017D01*
X164284346Y-141258777D01*
X164265296Y-141223138D01*
X164253565Y-141184468D01*
X164249000Y-141138112D01*
X164249000Y-140486888D01*
X164253565Y-140440532D01*
X164265296Y-140401862D01*
X164284346Y-140366223D01*
X164309983Y-140334983D01*
X164341223Y-140309346D01*
X164376862Y-140290296D01*
X164415532Y-140278565D01*
X164461888Y-140274000D01*
X165538112Y-140274000D01*
X165584468Y-140278565D01*
G37*
G36*
X156834468Y-139591065D02*
G01*
X156873138Y-139602796D01*
X156908777Y-139621846D01*
X156940017Y-139647483D01*
X156965654Y-139678723D01*
X156984704Y-139714362D01*
X156996435Y-139753032D01*
X157001000Y-139799388D01*
X157001000Y-140450612D01*
X156996435Y-140496968D01*
X156984704Y-140535638D01*
X156965654Y-140571277D01*
X156940017Y-140602517D01*
X156908777Y-140628154D01*
X156873138Y-140647204D01*
X156834468Y-140658935D01*
X156788112Y-140663500D01*
X155711888Y-140663500D01*
X155665532Y-140658935D01*
X155626862Y-140647204D01*
X155591223Y-140628154D01*
X155559983Y-140602517D01*
X155534346Y-140571277D01*
X155515296Y-140535638D01*
X155503565Y-140496968D01*
X155499000Y-140450612D01*
X155499000Y-139799388D01*
X155503565Y-139753032D01*
X155515296Y-139714362D01*
X155534346Y-139678723D01*
X155559983Y-139647483D01*
X155591223Y-139621846D01*
X155626862Y-139602796D01*
X155665532Y-139591065D01*
X155711888Y-139586500D01*
X156788112Y-139586500D01*
X156834468Y-139591065D01*
G37*
G36*
X161834468Y-139591065D02*
G01*
X161873138Y-139602796D01*
X161908777Y-139621846D01*
X161940017Y-139647483D01*
X161965654Y-139678723D01*
X161984704Y-139714362D01*
X161996435Y-139753032D01*
X162001000Y-139799388D01*
X162001000Y-140450612D01*
X161996435Y-140496968D01*
X161984704Y-140535638D01*
X161965654Y-140571277D01*
X161940017Y-140602517D01*
X161908777Y-140628154D01*
X161873138Y-140647204D01*
X161834468Y-140658935D01*
X161788112Y-140663500D01*
X160711888Y-140663500D01*
X160665532Y-140658935D01*
X160626862Y-140647204D01*
X160591223Y-140628154D01*
X160559983Y-140602517D01*
X160534346Y-140571277D01*
X160515296Y-140535638D01*
X160503565Y-140496968D01*
X160499000Y-140450612D01*
X160499000Y-139799388D01*
X160503565Y-139753032D01*
X160515296Y-139714362D01*
X160534346Y-139678723D01*
X160559983Y-139647483D01*
X160591223Y-139621846D01*
X160626862Y-139602796D01*
X160665532Y-139591065D01*
X160711888Y-139586500D01*
X161788112Y-139586500D01*
X161834468Y-139591065D01*
G37*
G36*
X168084468Y-138841065D02*
G01*
X168123138Y-138852796D01*
X168158777Y-138871846D01*
X168190017Y-138897483D01*
X168215654Y-138928723D01*
X168234704Y-138964362D01*
X168246435Y-139003032D01*
X168251000Y-139049388D01*
X168251000Y-139700612D01*
X168246435Y-139746968D01*
X168234704Y-139785638D01*
X168215654Y-139821277D01*
X168190017Y-139852517D01*
X168158777Y-139878154D01*
X168123138Y-139897204D01*
X168084468Y-139908935D01*
X168038112Y-139913500D01*
X166961888Y-139913500D01*
X166915532Y-139908935D01*
X166876862Y-139897204D01*
X166841223Y-139878154D01*
X166809983Y-139852517D01*
X166784346Y-139821277D01*
X166765296Y-139785638D01*
X166753565Y-139746968D01*
X166749000Y-139700612D01*
X166749000Y-139049388D01*
X166753565Y-139003032D01*
X166765296Y-138964362D01*
X166784346Y-138928723D01*
X166809983Y-138897483D01*
X166841223Y-138871846D01*
X166876862Y-138852796D01*
X166915532Y-138841065D01*
X166961888Y-138836500D01*
X168038112Y-138836500D01*
X168084468Y-138841065D01*
G37*
G36*
X156834468Y-137716065D02*
G01*
X156873138Y-137727796D01*
X156908777Y-137746846D01*
X156940017Y-137772483D01*
X156965654Y-137803723D01*
X156984704Y-137839362D01*
X156996435Y-137878032D01*
X157001000Y-137924388D01*
X157001000Y-138575612D01*
X156996435Y-138621968D01*
X156984704Y-138660638D01*
X156965654Y-138696277D01*
X156940017Y-138727517D01*
X156908777Y-138753154D01*
X156873138Y-138772204D01*
X156834468Y-138783935D01*
X156788112Y-138788500D01*
X155711888Y-138788500D01*
X155665532Y-138783935D01*
X155626862Y-138772204D01*
X155591223Y-138753154D01*
X155559983Y-138727517D01*
X155534346Y-138696277D01*
X155515296Y-138660638D01*
X155503565Y-138621968D01*
X155499000Y-138575612D01*
X155499000Y-137924388D01*
X155503565Y-137878032D01*
X155515296Y-137839362D01*
X155534346Y-137803723D01*
X155559983Y-137772483D01*
X155591223Y-137746846D01*
X155626862Y-137727796D01*
X155665532Y-137716065D01*
X155711888Y-137711500D01*
X156788112Y-137711500D01*
X156834468Y-137716065D01*
G37*
G36*
X161834468Y-137716065D02*
G01*
X161873138Y-137727796D01*
X161908777Y-137746846D01*
X161940017Y-137772483D01*
X161965654Y-137803723D01*
X161984704Y-137839362D01*
X161996435Y-137878032D01*
X162001000Y-137924388D01*
X162001000Y-138575612D01*
X161996435Y-138621968D01*
X161984704Y-138660638D01*
X161965654Y-138696277D01*
X161940017Y-138727517D01*
X161908777Y-138753154D01*
X161873138Y-138772204D01*
X161834468Y-138783935D01*
X161788112Y-138788500D01*
X160711888Y-138788500D01*
X160665532Y-138783935D01*
X160626862Y-138772204D01*
X160591223Y-138753154D01*
X160559983Y-138727517D01*
X160534346Y-138696277D01*
X160515296Y-138660638D01*
X160503565Y-138621968D01*
X160499000Y-138575612D01*
X160499000Y-137924388D01*
X160503565Y-137878032D01*
X160515296Y-137839362D01*
X160534346Y-137803723D01*
X160559983Y-137772483D01*
X160591223Y-137746846D01*
X160626862Y-137727796D01*
X160665532Y-137716065D01*
X160711888Y-137711500D01*
X161788112Y-137711500D01*
X161834468Y-137716065D01*
G37*
G36*
X166621968Y-136253565D02*
G01*
X166660638Y-136265296D01*
X166696277Y-136284346D01*
X166727517Y-136309983D01*
X166753154Y-136341223D01*
X166772204Y-136376862D01*
X166783935Y-136415532D01*
X166788500Y-136461888D01*
X166788500Y-137538112D01*
X166783935Y-137584468D01*
X166772204Y-137623138D01*
X166753154Y-137658777D01*
X166727517Y-137690017D01*
X166696277Y-137715654D01*
X166660638Y-137734704D01*
X166621968Y-137746435D01*
X166575612Y-137751000D01*
X165924388Y-137751000D01*
X165878032Y-137746435D01*
X165839362Y-137734704D01*
X165803723Y-137715654D01*
X165772483Y-137690017D01*
X165746846Y-137658777D01*
X165727796Y-137623138D01*
X165716065Y-137584468D01*
X165711500Y-137538112D01*
X165711500Y-136461888D01*
X165716065Y-136415532D01*
X165727796Y-136376862D01*
X165746846Y-136341223D01*
X165772483Y-136309983D01*
X165803723Y-136284346D01*
X165839362Y-136265296D01*
X165878032Y-136253565D01*
X165924388Y-136249000D01*
X166575612Y-136249000D01*
X166621968Y-136253565D01*
G37*
G36*
X164746968Y-136253565D02*
G01*
X164785638Y-136265296D01*
X164821277Y-136284346D01*
X164852517Y-136309983D01*
X164878154Y-136341223D01*
X164897204Y-136376862D01*
X164908935Y-136415532D01*
X164913500Y-136461888D01*
X164913500Y-137538112D01*
X164908935Y-137584468D01*
X164897204Y-137623138D01*
X164878154Y-137658777D01*
X164852517Y-137690017D01*
X164821277Y-137715654D01*
X164785638Y-137734704D01*
X164746968Y-137746435D01*
X164700612Y-137751000D01*
X164049388Y-137751000D01*
X164003032Y-137746435D01*
X163964362Y-137734704D01*
X163928723Y-137715654D01*
X163897483Y-137690017D01*
X163871846Y-137658777D01*
X163852796Y-137623138D01*
X163841065Y-137584468D01*
X163836500Y-137538112D01*
X163836500Y-136461888D01*
X163841065Y-136415532D01*
X163852796Y-136376862D01*
X163871846Y-136341223D01*
X163897483Y-136309983D01*
X163928723Y-136284346D01*
X163964362Y-136265296D01*
X164003032Y-136253565D01*
X164049388Y-136249000D01*
X164700612Y-136249000D01*
X164746968Y-136253565D01*
G37*
M02*
