G04 #@! TF.GenerationSoftware,KiCad,Pcbnew,(5.1.6-0-10_14)*
G04 #@! TF.CreationDate,2020-08-03T23:41:52+09:00*
G04 #@! TF.ProjectId,teabiscuits,74656162-6973-4637-9569-74732e6b6963,rev?*
G04 #@! TF.SameCoordinates,Original*
G04 #@! TF.FileFunction,Paste,Top*
G04 #@! TF.FilePolarity,Positive*
%FSLAX46Y46*%
G04 Gerber Fmt 4.6, Leading zero omitted, Abs format (unit mm)*
G04 Created by KiCad (PCBNEW (5.1.6-0-10_14)) date 2020-08-03 23:41:52*
%MOMM*%
%LPD*%
G01*
G04 APERTURE LIST*
%ADD10C,0.100000*%
%ADD11R,2.100000X1.100000*%
G04 APERTURE END LIST*
G36*
G01*
X167550000Y-130956250D02*
X167550000Y-130043750D01*
G75*
G02*
X167793750Y-129800000I243750J0D01*
G01*
X168281250Y-129800000D01*
G75*
G02*
X168525000Y-130043750I0J-243750D01*
G01*
X168525000Y-130956250D01*
G75*
G02*
X168281250Y-131200000I-243750J0D01*
G01*
X167793750Y-131200000D01*
G75*
G02*
X167550000Y-130956250I0J243750D01*
G01*
G37*
G36*
G01*
X165675000Y-130956250D02*
X165675000Y-130043750D01*
G75*
G02*
X165918750Y-129800000I243750J0D01*
G01*
X166406250Y-129800000D01*
G75*
G02*
X166650000Y-130043750I0J-243750D01*
G01*
X166650000Y-130956250D01*
G75*
G02*
X166406250Y-131200000I-243750J0D01*
G01*
X165918750Y-131200000D01*
G75*
G02*
X165675000Y-130956250I0J243750D01*
G01*
G37*
G36*
G01*
X167550000Y-132856250D02*
X167550000Y-131943750D01*
G75*
G02*
X167793750Y-131700000I243750J0D01*
G01*
X168281250Y-131700000D01*
G75*
G02*
X168525000Y-131943750I0J-243750D01*
G01*
X168525000Y-132856250D01*
G75*
G02*
X168281250Y-133100000I-243750J0D01*
G01*
X167793750Y-133100000D01*
G75*
G02*
X167550000Y-132856250I0J243750D01*
G01*
G37*
G36*
G01*
X165675000Y-132856250D02*
X165675000Y-131943750D01*
G75*
G02*
X165918750Y-131700000I243750J0D01*
G01*
X166406250Y-131700000D01*
G75*
G02*
X166650000Y-131943750I0J-243750D01*
G01*
X166650000Y-132856250D01*
G75*
G02*
X166406250Y-133100000I-243750J0D01*
G01*
X165918750Y-133100000D01*
G75*
G02*
X165675000Y-132856250I0J243750D01*
G01*
G37*
G36*
G01*
X156987500Y-142243750D02*
X156987500Y-143156250D01*
G75*
G02*
X156743750Y-143400000I-243750J0D01*
G01*
X156256250Y-143400000D01*
G75*
G02*
X156012500Y-143156250I0J243750D01*
G01*
X156012500Y-142243750D01*
G75*
G02*
X156256250Y-142000000I243750J0D01*
G01*
X156743750Y-142000000D01*
G75*
G02*
X156987500Y-142243750I0J-243750D01*
G01*
G37*
G36*
G01*
X158862500Y-142243750D02*
X158862500Y-143156250D01*
G75*
G02*
X158618750Y-143400000I-243750J0D01*
G01*
X158131250Y-143400000D01*
G75*
G02*
X157887500Y-143156250I0J243750D01*
G01*
X157887500Y-142243750D01*
G75*
G02*
X158131250Y-142000000I243750J0D01*
G01*
X158618750Y-142000000D01*
G75*
G02*
X158862500Y-142243750I0J-243750D01*
G01*
G37*
D10*
G36*
X169500000Y-134000000D02*
G01*
X177000000Y-134000000D01*
X177000000Y-134550000D01*
X172500000Y-134550000D01*
X172500000Y-135480000D01*
X169500000Y-135480000D01*
X169500000Y-134000000D01*
G37*
G36*
X169500000Y-137120000D02*
G01*
X172500000Y-137120000D01*
X172500000Y-138050000D01*
X177000000Y-138050000D01*
X177000000Y-138600000D01*
X169500000Y-138600000D01*
X169500000Y-137120000D01*
G37*
D11*
X170550000Y-136300000D03*
D10*
G36*
X159500000Y-132860000D02*
G01*
X152000000Y-132860000D01*
X152000000Y-132310000D01*
X156500000Y-132310000D01*
X156500000Y-131380000D01*
X159500000Y-131380000D01*
X159500000Y-132860000D01*
G37*
G36*
X159500000Y-129740000D02*
G01*
X156500000Y-129740000D01*
X156500000Y-128810000D01*
X152000000Y-128810000D01*
X152000000Y-128260000D01*
X159500000Y-128260000D01*
X159500000Y-129740000D01*
G37*
D11*
X158450000Y-130560000D03*
D10*
G36*
X169500000Y-128260000D02*
G01*
X177000000Y-128260000D01*
X177000000Y-128810000D01*
X172500000Y-128810000D01*
X172500000Y-129740000D01*
X169500000Y-129740000D01*
X169500000Y-128260000D01*
G37*
G36*
X169500000Y-131380000D02*
G01*
X172500000Y-131380000D01*
X172500000Y-132310000D01*
X177000000Y-132310000D01*
X177000000Y-132860000D01*
X169500000Y-132860000D01*
X169500000Y-131380000D01*
G37*
D11*
X170550000Y-130560000D03*
G36*
G01*
X164380000Y-142950000D02*
X164080000Y-142950000D01*
G75*
G02*
X163930000Y-142800000I0J150000D01*
G01*
X163930000Y-141150000D01*
G75*
G02*
X164080000Y-141000000I150000J0D01*
G01*
X164380000Y-141000000D01*
G75*
G02*
X164530000Y-141150000I0J-150000D01*
G01*
X164530000Y-142800000D01*
G75*
G02*
X164380000Y-142950000I-150000J0D01*
G01*
G37*
G36*
G01*
X165650000Y-142950000D02*
X165350000Y-142950000D01*
G75*
G02*
X165200000Y-142800000I0J150000D01*
G01*
X165200000Y-141150000D01*
G75*
G02*
X165350000Y-141000000I150000J0D01*
G01*
X165650000Y-141000000D01*
G75*
G02*
X165800000Y-141150000I0J-150000D01*
G01*
X165800000Y-142800000D01*
G75*
G02*
X165650000Y-142950000I-150000J0D01*
G01*
G37*
G36*
G01*
X166920000Y-142950000D02*
X166620000Y-142950000D01*
G75*
G02*
X166470000Y-142800000I0J150000D01*
G01*
X166470000Y-141150000D01*
G75*
G02*
X166620000Y-141000000I150000J0D01*
G01*
X166920000Y-141000000D01*
G75*
G02*
X167070000Y-141150000I0J-150000D01*
G01*
X167070000Y-142800000D01*
G75*
G02*
X166920000Y-142950000I-150000J0D01*
G01*
G37*
G36*
G01*
X168190000Y-142950000D02*
X167890000Y-142950000D01*
G75*
G02*
X167740000Y-142800000I0J150000D01*
G01*
X167740000Y-141150000D01*
G75*
G02*
X167890000Y-141000000I150000J0D01*
G01*
X168190000Y-141000000D01*
G75*
G02*
X168340000Y-141150000I0J-150000D01*
G01*
X168340000Y-142800000D01*
G75*
G02*
X168190000Y-142950000I-150000J0D01*
G01*
G37*
G36*
G01*
X168190000Y-138000000D02*
X167890000Y-138000000D01*
G75*
G02*
X167740000Y-137850000I0J150000D01*
G01*
X167740000Y-136200000D01*
G75*
G02*
X167890000Y-136050000I150000J0D01*
G01*
X168190000Y-136050000D01*
G75*
G02*
X168340000Y-136200000I0J-150000D01*
G01*
X168340000Y-137850000D01*
G75*
G02*
X168190000Y-138000000I-150000J0D01*
G01*
G37*
G36*
G01*
X166920000Y-138000000D02*
X166620000Y-138000000D01*
G75*
G02*
X166470000Y-137850000I0J150000D01*
G01*
X166470000Y-136200000D01*
G75*
G02*
X166620000Y-136050000I150000J0D01*
G01*
X166920000Y-136050000D01*
G75*
G02*
X167070000Y-136200000I0J-150000D01*
G01*
X167070000Y-137850000D01*
G75*
G02*
X166920000Y-138000000I-150000J0D01*
G01*
G37*
G36*
G01*
X165650000Y-138000000D02*
X165350000Y-138000000D01*
G75*
G02*
X165200000Y-137850000I0J150000D01*
G01*
X165200000Y-136200000D01*
G75*
G02*
X165350000Y-136050000I150000J0D01*
G01*
X165650000Y-136050000D01*
G75*
G02*
X165800000Y-136200000I0J-150000D01*
G01*
X165800000Y-137850000D01*
G75*
G02*
X165650000Y-138000000I-150000J0D01*
G01*
G37*
G36*
G01*
X164380000Y-138000000D02*
X164080000Y-138000000D01*
G75*
G02*
X163930000Y-137850000I0J150000D01*
G01*
X163930000Y-136200000D01*
G75*
G02*
X164080000Y-136050000I150000J0D01*
G01*
X164380000Y-136050000D01*
G75*
G02*
X164530000Y-136200000I0J-150000D01*
G01*
X164530000Y-137850000D01*
G75*
G02*
X164380000Y-138000000I-150000J0D01*
G01*
G37*
G36*
G01*
X160250000Y-134745000D02*
X160250000Y-134445000D01*
G75*
G02*
X160400000Y-134295000I150000J0D01*
G01*
X162050000Y-134295000D01*
G75*
G02*
X162200000Y-134445000I0J-150000D01*
G01*
X162200000Y-134745000D01*
G75*
G02*
X162050000Y-134895000I-150000J0D01*
G01*
X160400000Y-134895000D01*
G75*
G02*
X160250000Y-134745000I0J150000D01*
G01*
G37*
G36*
G01*
X160250000Y-136015000D02*
X160250000Y-135715000D01*
G75*
G02*
X160400000Y-135565000I150000J0D01*
G01*
X162050000Y-135565000D01*
G75*
G02*
X162200000Y-135715000I0J-150000D01*
G01*
X162200000Y-136015000D01*
G75*
G02*
X162050000Y-136165000I-150000J0D01*
G01*
X160400000Y-136165000D01*
G75*
G02*
X160250000Y-136015000I0J150000D01*
G01*
G37*
G36*
G01*
X160250000Y-137285000D02*
X160250000Y-136985000D01*
G75*
G02*
X160400000Y-136835000I150000J0D01*
G01*
X162050000Y-136835000D01*
G75*
G02*
X162200000Y-136985000I0J-150000D01*
G01*
X162200000Y-137285000D01*
G75*
G02*
X162050000Y-137435000I-150000J0D01*
G01*
X160400000Y-137435000D01*
G75*
G02*
X160250000Y-137285000I0J150000D01*
G01*
G37*
G36*
G01*
X160250000Y-138555000D02*
X160250000Y-138255000D01*
G75*
G02*
X160400000Y-138105000I150000J0D01*
G01*
X162050000Y-138105000D01*
G75*
G02*
X162200000Y-138255000I0J-150000D01*
G01*
X162200000Y-138555000D01*
G75*
G02*
X162050000Y-138705000I-150000J0D01*
G01*
X160400000Y-138705000D01*
G75*
G02*
X160250000Y-138555000I0J150000D01*
G01*
G37*
G36*
G01*
X155300000Y-138555000D02*
X155300000Y-138255000D01*
G75*
G02*
X155450000Y-138105000I150000J0D01*
G01*
X157100000Y-138105000D01*
G75*
G02*
X157250000Y-138255000I0J-150000D01*
G01*
X157250000Y-138555000D01*
G75*
G02*
X157100000Y-138705000I-150000J0D01*
G01*
X155450000Y-138705000D01*
G75*
G02*
X155300000Y-138555000I0J150000D01*
G01*
G37*
G36*
G01*
X155300000Y-137285000D02*
X155300000Y-136985000D01*
G75*
G02*
X155450000Y-136835000I150000J0D01*
G01*
X157100000Y-136835000D01*
G75*
G02*
X157250000Y-136985000I0J-150000D01*
G01*
X157250000Y-137285000D01*
G75*
G02*
X157100000Y-137435000I-150000J0D01*
G01*
X155450000Y-137435000D01*
G75*
G02*
X155300000Y-137285000I0J150000D01*
G01*
G37*
G36*
G01*
X155300000Y-136015000D02*
X155300000Y-135715000D01*
G75*
G02*
X155450000Y-135565000I150000J0D01*
G01*
X157100000Y-135565000D01*
G75*
G02*
X157250000Y-135715000I0J-150000D01*
G01*
X157250000Y-136015000D01*
G75*
G02*
X157100000Y-136165000I-150000J0D01*
G01*
X155450000Y-136165000D01*
G75*
G02*
X155300000Y-136015000I0J150000D01*
G01*
G37*
G36*
G01*
X155300000Y-134745000D02*
X155300000Y-134445000D01*
G75*
G02*
X155450000Y-134295000I150000J0D01*
G01*
X157100000Y-134295000D01*
G75*
G02*
X157250000Y-134445000I0J-150000D01*
G01*
X157250000Y-134745000D01*
G75*
G02*
X157100000Y-134895000I-150000J0D01*
G01*
X155450000Y-134895000D01*
G75*
G02*
X155300000Y-134745000I0J150000D01*
G01*
G37*
G36*
G01*
X163043750Y-131637500D02*
X163956250Y-131637500D01*
G75*
G02*
X164200000Y-131881250I0J-243750D01*
G01*
X164200000Y-132368750D01*
G75*
G02*
X163956250Y-132612500I-243750J0D01*
G01*
X163043750Y-132612500D01*
G75*
G02*
X162800000Y-132368750I0J243750D01*
G01*
X162800000Y-131881250D01*
G75*
G02*
X163043750Y-131637500I243750J0D01*
G01*
G37*
G36*
G01*
X163043750Y-129762500D02*
X163956250Y-129762500D01*
G75*
G02*
X164200000Y-130006250I0J-243750D01*
G01*
X164200000Y-130493750D01*
G75*
G02*
X163956250Y-130737500I-243750J0D01*
G01*
X163043750Y-130737500D01*
G75*
G02*
X162800000Y-130493750I0J243750D01*
G01*
X162800000Y-130006250D01*
G75*
G02*
X163043750Y-129762500I243750J0D01*
G01*
G37*
G36*
G01*
X160625000Y-128625000D02*
X161875000Y-128625000D01*
G75*
G02*
X162125000Y-128875000I0J-250000D01*
G01*
X162125000Y-129625000D01*
G75*
G02*
X161875000Y-129875000I-250000J0D01*
G01*
X160625000Y-129875000D01*
G75*
G02*
X160375000Y-129625000I0J250000D01*
G01*
X160375000Y-128875000D01*
G75*
G02*
X160625000Y-128625000I250000J0D01*
G01*
G37*
G36*
G01*
X160625000Y-131425000D02*
X161875000Y-131425000D01*
G75*
G02*
X162125000Y-131675000I0J-250000D01*
G01*
X162125000Y-132425000D01*
G75*
G02*
X161875000Y-132675000I-250000J0D01*
G01*
X160625000Y-132675000D01*
G75*
G02*
X160375000Y-132425000I0J250000D01*
G01*
X160375000Y-131675000D01*
G75*
G02*
X160625000Y-131425000I250000J0D01*
G01*
G37*
G36*
G01*
X158862500Y-140293750D02*
X158862500Y-141206250D01*
G75*
G02*
X158618750Y-141450000I-243750J0D01*
G01*
X158131250Y-141450000D01*
G75*
G02*
X157887500Y-141206250I0J243750D01*
G01*
X157887500Y-140293750D01*
G75*
G02*
X158131250Y-140050000I243750J0D01*
G01*
X158618750Y-140050000D01*
G75*
G02*
X158862500Y-140293750I0J-243750D01*
G01*
G37*
G36*
G01*
X156987500Y-140293750D02*
X156987500Y-141206250D01*
G75*
G02*
X156743750Y-141450000I-243750J0D01*
G01*
X156256250Y-141450000D01*
G75*
G02*
X156012500Y-141206250I0J243750D01*
G01*
X156012500Y-140293750D01*
G75*
G02*
X156256250Y-140050000I243750J0D01*
G01*
X156743750Y-140050000D01*
G75*
G02*
X156987500Y-140293750I0J-243750D01*
G01*
G37*
M02*
