G04 #@! TF.GenerationSoftware,KiCad,Pcbnew,5.1.5*
G04 #@! TF.CreationDate,2020-06-30T22:23:49+09:00*
G04 #@! TF.ProjectId,teabiscuits,74656162-6973-4637-9569-74732e6b6963,rev?*
G04 #@! TF.SameCoordinates,Original*
G04 #@! TF.FileFunction,Paste,Bot*
G04 #@! TF.FilePolarity,Positive*
%FSLAX46Y46*%
G04 Gerber Fmt 4.6, Leading zero omitted, Abs format (unit mm)*
G04 Created by KiCad (PCBNEW 5.1.5) date 2020-06-30 22:23:49*
%MOMM*%
%LPD*%
G04 APERTURE LIST*
%ADD10C,0.100000*%
G04 APERTURE END LIST*
D10*
G36*
X161730142Y-139638674D02*
G01*
X161753803Y-139642184D01*
X161777007Y-139647996D01*
X161799529Y-139656054D01*
X161821153Y-139666282D01*
X161841670Y-139678579D01*
X161860883Y-139692829D01*
X161878607Y-139708893D01*
X161894671Y-139726617D01*
X161908921Y-139745830D01*
X161921218Y-139766347D01*
X161931446Y-139787971D01*
X161939504Y-139810493D01*
X161945316Y-139833697D01*
X161948826Y-139857358D01*
X161950000Y-139881250D01*
X161950000Y-140368750D01*
X161948826Y-140392642D01*
X161945316Y-140416303D01*
X161939504Y-140439507D01*
X161931446Y-140462029D01*
X161921218Y-140483653D01*
X161908921Y-140504170D01*
X161894671Y-140523383D01*
X161878607Y-140541107D01*
X161860883Y-140557171D01*
X161841670Y-140571421D01*
X161821153Y-140583718D01*
X161799529Y-140593946D01*
X161777007Y-140602004D01*
X161753803Y-140607816D01*
X161730142Y-140611326D01*
X161706250Y-140612500D01*
X160793750Y-140612500D01*
X160769858Y-140611326D01*
X160746197Y-140607816D01*
X160722993Y-140602004D01*
X160700471Y-140593946D01*
X160678847Y-140583718D01*
X160658330Y-140571421D01*
X160639117Y-140557171D01*
X160621393Y-140541107D01*
X160605329Y-140523383D01*
X160591079Y-140504170D01*
X160578782Y-140483653D01*
X160568554Y-140462029D01*
X160560496Y-140439507D01*
X160554684Y-140416303D01*
X160551174Y-140392642D01*
X160550000Y-140368750D01*
X160550000Y-139881250D01*
X160551174Y-139857358D01*
X160554684Y-139833697D01*
X160560496Y-139810493D01*
X160568554Y-139787971D01*
X160578782Y-139766347D01*
X160591079Y-139745830D01*
X160605329Y-139726617D01*
X160621393Y-139708893D01*
X160639117Y-139692829D01*
X160658330Y-139678579D01*
X160678847Y-139666282D01*
X160700471Y-139656054D01*
X160722993Y-139647996D01*
X160746197Y-139642184D01*
X160769858Y-139638674D01*
X160793750Y-139637500D01*
X161706250Y-139637500D01*
X161730142Y-139638674D01*
G37*
G36*
X161730142Y-137763674D02*
G01*
X161753803Y-137767184D01*
X161777007Y-137772996D01*
X161799529Y-137781054D01*
X161821153Y-137791282D01*
X161841670Y-137803579D01*
X161860883Y-137817829D01*
X161878607Y-137833893D01*
X161894671Y-137851617D01*
X161908921Y-137870830D01*
X161921218Y-137891347D01*
X161931446Y-137912971D01*
X161939504Y-137935493D01*
X161945316Y-137958697D01*
X161948826Y-137982358D01*
X161950000Y-138006250D01*
X161950000Y-138493750D01*
X161948826Y-138517642D01*
X161945316Y-138541303D01*
X161939504Y-138564507D01*
X161931446Y-138587029D01*
X161921218Y-138608653D01*
X161908921Y-138629170D01*
X161894671Y-138648383D01*
X161878607Y-138666107D01*
X161860883Y-138682171D01*
X161841670Y-138696421D01*
X161821153Y-138708718D01*
X161799529Y-138718946D01*
X161777007Y-138727004D01*
X161753803Y-138732816D01*
X161730142Y-138736326D01*
X161706250Y-138737500D01*
X160793750Y-138737500D01*
X160769858Y-138736326D01*
X160746197Y-138732816D01*
X160722993Y-138727004D01*
X160700471Y-138718946D01*
X160678847Y-138708718D01*
X160658330Y-138696421D01*
X160639117Y-138682171D01*
X160621393Y-138666107D01*
X160605329Y-138648383D01*
X160591079Y-138629170D01*
X160578782Y-138608653D01*
X160568554Y-138587029D01*
X160560496Y-138564507D01*
X160554684Y-138541303D01*
X160551174Y-138517642D01*
X160550000Y-138493750D01*
X160550000Y-138006250D01*
X160551174Y-137982358D01*
X160554684Y-137958697D01*
X160560496Y-137935493D01*
X160568554Y-137912971D01*
X160578782Y-137891347D01*
X160591079Y-137870830D01*
X160605329Y-137851617D01*
X160621393Y-137833893D01*
X160639117Y-137817829D01*
X160658330Y-137803579D01*
X160678847Y-137791282D01*
X160700471Y-137781054D01*
X160722993Y-137772996D01*
X160746197Y-137767184D01*
X160769858Y-137763674D01*
X160793750Y-137762500D01*
X161706250Y-137762500D01*
X161730142Y-137763674D01*
G37*
G36*
X161392642Y-141801174D02*
G01*
X161416303Y-141804684D01*
X161439507Y-141810496D01*
X161462029Y-141818554D01*
X161483653Y-141828782D01*
X161504170Y-141841079D01*
X161523383Y-141855329D01*
X161541107Y-141871393D01*
X161557171Y-141889117D01*
X161571421Y-141908330D01*
X161583718Y-141928847D01*
X161593946Y-141950471D01*
X161602004Y-141972993D01*
X161607816Y-141996197D01*
X161611326Y-142019858D01*
X161612500Y-142043750D01*
X161612500Y-142956250D01*
X161611326Y-142980142D01*
X161607816Y-143003803D01*
X161602004Y-143027007D01*
X161593946Y-143049529D01*
X161583718Y-143071153D01*
X161571421Y-143091670D01*
X161557171Y-143110883D01*
X161541107Y-143128607D01*
X161523383Y-143144671D01*
X161504170Y-143158921D01*
X161483653Y-143171218D01*
X161462029Y-143181446D01*
X161439507Y-143189504D01*
X161416303Y-143195316D01*
X161392642Y-143198826D01*
X161368750Y-143200000D01*
X160881250Y-143200000D01*
X160857358Y-143198826D01*
X160833697Y-143195316D01*
X160810493Y-143189504D01*
X160787971Y-143181446D01*
X160766347Y-143171218D01*
X160745830Y-143158921D01*
X160726617Y-143144671D01*
X160708893Y-143128607D01*
X160692829Y-143110883D01*
X160678579Y-143091670D01*
X160666282Y-143071153D01*
X160656054Y-143049529D01*
X160647996Y-143027007D01*
X160642184Y-143003803D01*
X160638674Y-142980142D01*
X160637500Y-142956250D01*
X160637500Y-142043750D01*
X160638674Y-142019858D01*
X160642184Y-141996197D01*
X160647996Y-141972993D01*
X160656054Y-141950471D01*
X160666282Y-141928847D01*
X160678579Y-141908330D01*
X160692829Y-141889117D01*
X160708893Y-141871393D01*
X160726617Y-141855329D01*
X160745830Y-141841079D01*
X160766347Y-141828782D01*
X160787971Y-141818554D01*
X160810493Y-141810496D01*
X160833697Y-141804684D01*
X160857358Y-141801174D01*
X160881250Y-141800000D01*
X161368750Y-141800000D01*
X161392642Y-141801174D01*
G37*
G36*
X163267642Y-141801174D02*
G01*
X163291303Y-141804684D01*
X163314507Y-141810496D01*
X163337029Y-141818554D01*
X163358653Y-141828782D01*
X163379170Y-141841079D01*
X163398383Y-141855329D01*
X163416107Y-141871393D01*
X163432171Y-141889117D01*
X163446421Y-141908330D01*
X163458718Y-141928847D01*
X163468946Y-141950471D01*
X163477004Y-141972993D01*
X163482816Y-141996197D01*
X163486326Y-142019858D01*
X163487500Y-142043750D01*
X163487500Y-142956250D01*
X163486326Y-142980142D01*
X163482816Y-143003803D01*
X163477004Y-143027007D01*
X163468946Y-143049529D01*
X163458718Y-143071153D01*
X163446421Y-143091670D01*
X163432171Y-143110883D01*
X163416107Y-143128607D01*
X163398383Y-143144671D01*
X163379170Y-143158921D01*
X163358653Y-143171218D01*
X163337029Y-143181446D01*
X163314507Y-143189504D01*
X163291303Y-143195316D01*
X163267642Y-143198826D01*
X163243750Y-143200000D01*
X162756250Y-143200000D01*
X162732358Y-143198826D01*
X162708697Y-143195316D01*
X162685493Y-143189504D01*
X162662971Y-143181446D01*
X162641347Y-143171218D01*
X162620830Y-143158921D01*
X162601617Y-143144671D01*
X162583893Y-143128607D01*
X162567829Y-143110883D01*
X162553579Y-143091670D01*
X162541282Y-143071153D01*
X162531054Y-143049529D01*
X162522996Y-143027007D01*
X162517184Y-143003803D01*
X162513674Y-142980142D01*
X162512500Y-142956250D01*
X162512500Y-142043750D01*
X162513674Y-142019858D01*
X162517184Y-141996197D01*
X162522996Y-141972993D01*
X162531054Y-141950471D01*
X162541282Y-141928847D01*
X162553579Y-141908330D01*
X162567829Y-141889117D01*
X162583893Y-141871393D01*
X162601617Y-141855329D01*
X162620830Y-141841079D01*
X162641347Y-141828782D01*
X162662971Y-141818554D01*
X162685493Y-141810496D01*
X162708697Y-141804684D01*
X162732358Y-141801174D01*
X162756250Y-141800000D01*
X163243750Y-141800000D01*
X163267642Y-141801174D01*
G37*
G36*
X156730142Y-137763674D02*
G01*
X156753803Y-137767184D01*
X156777007Y-137772996D01*
X156799529Y-137781054D01*
X156821153Y-137791282D01*
X156841670Y-137803579D01*
X156860883Y-137817829D01*
X156878607Y-137833893D01*
X156894671Y-137851617D01*
X156908921Y-137870830D01*
X156921218Y-137891347D01*
X156931446Y-137912971D01*
X156939504Y-137935493D01*
X156945316Y-137958697D01*
X156948826Y-137982358D01*
X156950000Y-138006250D01*
X156950000Y-138493750D01*
X156948826Y-138517642D01*
X156945316Y-138541303D01*
X156939504Y-138564507D01*
X156931446Y-138587029D01*
X156921218Y-138608653D01*
X156908921Y-138629170D01*
X156894671Y-138648383D01*
X156878607Y-138666107D01*
X156860883Y-138682171D01*
X156841670Y-138696421D01*
X156821153Y-138708718D01*
X156799529Y-138718946D01*
X156777007Y-138727004D01*
X156753803Y-138732816D01*
X156730142Y-138736326D01*
X156706250Y-138737500D01*
X155793750Y-138737500D01*
X155769858Y-138736326D01*
X155746197Y-138732816D01*
X155722993Y-138727004D01*
X155700471Y-138718946D01*
X155678847Y-138708718D01*
X155658330Y-138696421D01*
X155639117Y-138682171D01*
X155621393Y-138666107D01*
X155605329Y-138648383D01*
X155591079Y-138629170D01*
X155578782Y-138608653D01*
X155568554Y-138587029D01*
X155560496Y-138564507D01*
X155554684Y-138541303D01*
X155551174Y-138517642D01*
X155550000Y-138493750D01*
X155550000Y-138006250D01*
X155551174Y-137982358D01*
X155554684Y-137958697D01*
X155560496Y-137935493D01*
X155568554Y-137912971D01*
X155578782Y-137891347D01*
X155591079Y-137870830D01*
X155605329Y-137851617D01*
X155621393Y-137833893D01*
X155639117Y-137817829D01*
X155658330Y-137803579D01*
X155678847Y-137791282D01*
X155700471Y-137781054D01*
X155722993Y-137772996D01*
X155746197Y-137767184D01*
X155769858Y-137763674D01*
X155793750Y-137762500D01*
X156706250Y-137762500D01*
X156730142Y-137763674D01*
G37*
G36*
X156730142Y-139638674D02*
G01*
X156753803Y-139642184D01*
X156777007Y-139647996D01*
X156799529Y-139656054D01*
X156821153Y-139666282D01*
X156841670Y-139678579D01*
X156860883Y-139692829D01*
X156878607Y-139708893D01*
X156894671Y-139726617D01*
X156908921Y-139745830D01*
X156921218Y-139766347D01*
X156931446Y-139787971D01*
X156939504Y-139810493D01*
X156945316Y-139833697D01*
X156948826Y-139857358D01*
X156950000Y-139881250D01*
X156950000Y-140368750D01*
X156948826Y-140392642D01*
X156945316Y-140416303D01*
X156939504Y-140439507D01*
X156931446Y-140462029D01*
X156921218Y-140483653D01*
X156908921Y-140504170D01*
X156894671Y-140523383D01*
X156878607Y-140541107D01*
X156860883Y-140557171D01*
X156841670Y-140571421D01*
X156821153Y-140583718D01*
X156799529Y-140593946D01*
X156777007Y-140602004D01*
X156753803Y-140607816D01*
X156730142Y-140611326D01*
X156706250Y-140612500D01*
X155793750Y-140612500D01*
X155769858Y-140611326D01*
X155746197Y-140607816D01*
X155722993Y-140602004D01*
X155700471Y-140593946D01*
X155678847Y-140583718D01*
X155658330Y-140571421D01*
X155639117Y-140557171D01*
X155621393Y-140541107D01*
X155605329Y-140523383D01*
X155591079Y-140504170D01*
X155578782Y-140483653D01*
X155568554Y-140462029D01*
X155560496Y-140439507D01*
X155554684Y-140416303D01*
X155551174Y-140392642D01*
X155550000Y-140368750D01*
X155550000Y-139881250D01*
X155551174Y-139857358D01*
X155554684Y-139833697D01*
X155560496Y-139810493D01*
X155568554Y-139787971D01*
X155578782Y-139766347D01*
X155591079Y-139745830D01*
X155605329Y-139726617D01*
X155621393Y-139708893D01*
X155639117Y-139692829D01*
X155658330Y-139678579D01*
X155678847Y-139666282D01*
X155700471Y-139656054D01*
X155722993Y-139647996D01*
X155746197Y-139642184D01*
X155769858Y-139638674D01*
X155793750Y-139637500D01*
X156706250Y-139637500D01*
X156730142Y-139638674D01*
G37*
G36*
X164642642Y-136301174D02*
G01*
X164666303Y-136304684D01*
X164689507Y-136310496D01*
X164712029Y-136318554D01*
X164733653Y-136328782D01*
X164754170Y-136341079D01*
X164773383Y-136355329D01*
X164791107Y-136371393D01*
X164807171Y-136389117D01*
X164821421Y-136408330D01*
X164833718Y-136428847D01*
X164843946Y-136450471D01*
X164852004Y-136472993D01*
X164857816Y-136496197D01*
X164861326Y-136519858D01*
X164862500Y-136543750D01*
X164862500Y-137456250D01*
X164861326Y-137480142D01*
X164857816Y-137503803D01*
X164852004Y-137527007D01*
X164843946Y-137549529D01*
X164833718Y-137571153D01*
X164821421Y-137591670D01*
X164807171Y-137610883D01*
X164791107Y-137628607D01*
X164773383Y-137644671D01*
X164754170Y-137658921D01*
X164733653Y-137671218D01*
X164712029Y-137681446D01*
X164689507Y-137689504D01*
X164666303Y-137695316D01*
X164642642Y-137698826D01*
X164618750Y-137700000D01*
X164131250Y-137700000D01*
X164107358Y-137698826D01*
X164083697Y-137695316D01*
X164060493Y-137689504D01*
X164037971Y-137681446D01*
X164016347Y-137671218D01*
X163995830Y-137658921D01*
X163976617Y-137644671D01*
X163958893Y-137628607D01*
X163942829Y-137610883D01*
X163928579Y-137591670D01*
X163916282Y-137571153D01*
X163906054Y-137549529D01*
X163897996Y-137527007D01*
X163892184Y-137503803D01*
X163888674Y-137480142D01*
X163887500Y-137456250D01*
X163887500Y-136543750D01*
X163888674Y-136519858D01*
X163892184Y-136496197D01*
X163897996Y-136472993D01*
X163906054Y-136450471D01*
X163916282Y-136428847D01*
X163928579Y-136408330D01*
X163942829Y-136389117D01*
X163958893Y-136371393D01*
X163976617Y-136355329D01*
X163995830Y-136341079D01*
X164016347Y-136328782D01*
X164037971Y-136318554D01*
X164060493Y-136310496D01*
X164083697Y-136304684D01*
X164107358Y-136301174D01*
X164131250Y-136300000D01*
X164618750Y-136300000D01*
X164642642Y-136301174D01*
G37*
G36*
X166517642Y-136301174D02*
G01*
X166541303Y-136304684D01*
X166564507Y-136310496D01*
X166587029Y-136318554D01*
X166608653Y-136328782D01*
X166629170Y-136341079D01*
X166648383Y-136355329D01*
X166666107Y-136371393D01*
X166682171Y-136389117D01*
X166696421Y-136408330D01*
X166708718Y-136428847D01*
X166718946Y-136450471D01*
X166727004Y-136472993D01*
X166732816Y-136496197D01*
X166736326Y-136519858D01*
X166737500Y-136543750D01*
X166737500Y-137456250D01*
X166736326Y-137480142D01*
X166732816Y-137503803D01*
X166727004Y-137527007D01*
X166718946Y-137549529D01*
X166708718Y-137571153D01*
X166696421Y-137591670D01*
X166682171Y-137610883D01*
X166666107Y-137628607D01*
X166648383Y-137644671D01*
X166629170Y-137658921D01*
X166608653Y-137671218D01*
X166587029Y-137681446D01*
X166564507Y-137689504D01*
X166541303Y-137695316D01*
X166517642Y-137698826D01*
X166493750Y-137700000D01*
X166006250Y-137700000D01*
X165982358Y-137698826D01*
X165958697Y-137695316D01*
X165935493Y-137689504D01*
X165912971Y-137681446D01*
X165891347Y-137671218D01*
X165870830Y-137658921D01*
X165851617Y-137644671D01*
X165833893Y-137628607D01*
X165817829Y-137610883D01*
X165803579Y-137591670D01*
X165791282Y-137571153D01*
X165781054Y-137549529D01*
X165772996Y-137527007D01*
X165767184Y-137503803D01*
X165763674Y-137480142D01*
X165762500Y-137456250D01*
X165762500Y-136543750D01*
X165763674Y-136519858D01*
X165767184Y-136496197D01*
X165772996Y-136472993D01*
X165781054Y-136450471D01*
X165791282Y-136428847D01*
X165803579Y-136408330D01*
X165817829Y-136389117D01*
X165833893Y-136371393D01*
X165851617Y-136355329D01*
X165870830Y-136341079D01*
X165891347Y-136328782D01*
X165912971Y-136318554D01*
X165935493Y-136310496D01*
X165958697Y-136304684D01*
X165982358Y-136301174D01*
X166006250Y-136300000D01*
X166493750Y-136300000D01*
X166517642Y-136301174D01*
G37*
G36*
X167980142Y-140763674D02*
G01*
X168003803Y-140767184D01*
X168027007Y-140772996D01*
X168049529Y-140781054D01*
X168071153Y-140791282D01*
X168091670Y-140803579D01*
X168110883Y-140817829D01*
X168128607Y-140833893D01*
X168144671Y-140851617D01*
X168158921Y-140870830D01*
X168171218Y-140891347D01*
X168181446Y-140912971D01*
X168189504Y-140935493D01*
X168195316Y-140958697D01*
X168198826Y-140982358D01*
X168200000Y-141006250D01*
X168200000Y-141493750D01*
X168198826Y-141517642D01*
X168195316Y-141541303D01*
X168189504Y-141564507D01*
X168181446Y-141587029D01*
X168171218Y-141608653D01*
X168158921Y-141629170D01*
X168144671Y-141648383D01*
X168128607Y-141666107D01*
X168110883Y-141682171D01*
X168091670Y-141696421D01*
X168071153Y-141708718D01*
X168049529Y-141718946D01*
X168027007Y-141727004D01*
X168003803Y-141732816D01*
X167980142Y-141736326D01*
X167956250Y-141737500D01*
X167043750Y-141737500D01*
X167019858Y-141736326D01*
X166996197Y-141732816D01*
X166972993Y-141727004D01*
X166950471Y-141718946D01*
X166928847Y-141708718D01*
X166908330Y-141696421D01*
X166889117Y-141682171D01*
X166871393Y-141666107D01*
X166855329Y-141648383D01*
X166841079Y-141629170D01*
X166828782Y-141608653D01*
X166818554Y-141587029D01*
X166810496Y-141564507D01*
X166804684Y-141541303D01*
X166801174Y-141517642D01*
X166800000Y-141493750D01*
X166800000Y-141006250D01*
X166801174Y-140982358D01*
X166804684Y-140958697D01*
X166810496Y-140935493D01*
X166818554Y-140912971D01*
X166828782Y-140891347D01*
X166841079Y-140870830D01*
X166855329Y-140851617D01*
X166871393Y-140833893D01*
X166889117Y-140817829D01*
X166908330Y-140803579D01*
X166928847Y-140791282D01*
X166950471Y-140781054D01*
X166972993Y-140772996D01*
X166996197Y-140767184D01*
X167019858Y-140763674D01*
X167043750Y-140762500D01*
X167956250Y-140762500D01*
X167980142Y-140763674D01*
G37*
G36*
X167980142Y-138888674D02*
G01*
X168003803Y-138892184D01*
X168027007Y-138897996D01*
X168049529Y-138906054D01*
X168071153Y-138916282D01*
X168091670Y-138928579D01*
X168110883Y-138942829D01*
X168128607Y-138958893D01*
X168144671Y-138976617D01*
X168158921Y-138995830D01*
X168171218Y-139016347D01*
X168181446Y-139037971D01*
X168189504Y-139060493D01*
X168195316Y-139083697D01*
X168198826Y-139107358D01*
X168200000Y-139131250D01*
X168200000Y-139618750D01*
X168198826Y-139642642D01*
X168195316Y-139666303D01*
X168189504Y-139689507D01*
X168181446Y-139712029D01*
X168171218Y-139733653D01*
X168158921Y-139754170D01*
X168144671Y-139773383D01*
X168128607Y-139791107D01*
X168110883Y-139807171D01*
X168091670Y-139821421D01*
X168071153Y-139833718D01*
X168049529Y-139843946D01*
X168027007Y-139852004D01*
X168003803Y-139857816D01*
X167980142Y-139861326D01*
X167956250Y-139862500D01*
X167043750Y-139862500D01*
X167019858Y-139861326D01*
X166996197Y-139857816D01*
X166972993Y-139852004D01*
X166950471Y-139843946D01*
X166928847Y-139833718D01*
X166908330Y-139821421D01*
X166889117Y-139807171D01*
X166871393Y-139791107D01*
X166855329Y-139773383D01*
X166841079Y-139754170D01*
X166828782Y-139733653D01*
X166818554Y-139712029D01*
X166810496Y-139689507D01*
X166804684Y-139666303D01*
X166801174Y-139642642D01*
X166800000Y-139618750D01*
X166800000Y-139131250D01*
X166801174Y-139107358D01*
X166804684Y-139083697D01*
X166810496Y-139060493D01*
X166818554Y-139037971D01*
X166828782Y-139016347D01*
X166841079Y-138995830D01*
X166855329Y-138976617D01*
X166871393Y-138958893D01*
X166889117Y-138942829D01*
X166908330Y-138928579D01*
X166928847Y-138916282D01*
X166950471Y-138906054D01*
X166972993Y-138897996D01*
X166996197Y-138892184D01*
X167019858Y-138888674D01*
X167043750Y-138887500D01*
X167956250Y-138887500D01*
X167980142Y-138888674D01*
G37*
G36*
X165480142Y-142201174D02*
G01*
X165503803Y-142204684D01*
X165527007Y-142210496D01*
X165549529Y-142218554D01*
X165571153Y-142228782D01*
X165591670Y-142241079D01*
X165610883Y-142255329D01*
X165628607Y-142271393D01*
X165644671Y-142289117D01*
X165658921Y-142308330D01*
X165671218Y-142328847D01*
X165681446Y-142350471D01*
X165689504Y-142372993D01*
X165695316Y-142396197D01*
X165698826Y-142419858D01*
X165700000Y-142443750D01*
X165700000Y-142931250D01*
X165698826Y-142955142D01*
X165695316Y-142978803D01*
X165689504Y-143002007D01*
X165681446Y-143024529D01*
X165671218Y-143046153D01*
X165658921Y-143066670D01*
X165644671Y-143085883D01*
X165628607Y-143103607D01*
X165610883Y-143119671D01*
X165591670Y-143133921D01*
X165571153Y-143146218D01*
X165549529Y-143156446D01*
X165527007Y-143164504D01*
X165503803Y-143170316D01*
X165480142Y-143173826D01*
X165456250Y-143175000D01*
X164543750Y-143175000D01*
X164519858Y-143173826D01*
X164496197Y-143170316D01*
X164472993Y-143164504D01*
X164450471Y-143156446D01*
X164428847Y-143146218D01*
X164408330Y-143133921D01*
X164389117Y-143119671D01*
X164371393Y-143103607D01*
X164355329Y-143085883D01*
X164341079Y-143066670D01*
X164328782Y-143046153D01*
X164318554Y-143024529D01*
X164310496Y-143002007D01*
X164304684Y-142978803D01*
X164301174Y-142955142D01*
X164300000Y-142931250D01*
X164300000Y-142443750D01*
X164301174Y-142419858D01*
X164304684Y-142396197D01*
X164310496Y-142372993D01*
X164318554Y-142350471D01*
X164328782Y-142328847D01*
X164341079Y-142308330D01*
X164355329Y-142289117D01*
X164371393Y-142271393D01*
X164389117Y-142255329D01*
X164408330Y-142241079D01*
X164428847Y-142228782D01*
X164450471Y-142218554D01*
X164472993Y-142210496D01*
X164496197Y-142204684D01*
X164519858Y-142201174D01*
X164543750Y-142200000D01*
X165456250Y-142200000D01*
X165480142Y-142201174D01*
G37*
G36*
X165480142Y-140326174D02*
G01*
X165503803Y-140329684D01*
X165527007Y-140335496D01*
X165549529Y-140343554D01*
X165571153Y-140353782D01*
X165591670Y-140366079D01*
X165610883Y-140380329D01*
X165628607Y-140396393D01*
X165644671Y-140414117D01*
X165658921Y-140433330D01*
X165671218Y-140453847D01*
X165681446Y-140475471D01*
X165689504Y-140497993D01*
X165695316Y-140521197D01*
X165698826Y-140544858D01*
X165700000Y-140568750D01*
X165700000Y-141056250D01*
X165698826Y-141080142D01*
X165695316Y-141103803D01*
X165689504Y-141127007D01*
X165681446Y-141149529D01*
X165671218Y-141171153D01*
X165658921Y-141191670D01*
X165644671Y-141210883D01*
X165628607Y-141228607D01*
X165610883Y-141244671D01*
X165591670Y-141258921D01*
X165571153Y-141271218D01*
X165549529Y-141281446D01*
X165527007Y-141289504D01*
X165503803Y-141295316D01*
X165480142Y-141298826D01*
X165456250Y-141300000D01*
X164543750Y-141300000D01*
X164519858Y-141298826D01*
X164496197Y-141295316D01*
X164472993Y-141289504D01*
X164450471Y-141281446D01*
X164428847Y-141271218D01*
X164408330Y-141258921D01*
X164389117Y-141244671D01*
X164371393Y-141228607D01*
X164355329Y-141210883D01*
X164341079Y-141191670D01*
X164328782Y-141171153D01*
X164318554Y-141149529D01*
X164310496Y-141127007D01*
X164304684Y-141103803D01*
X164301174Y-141080142D01*
X164300000Y-141056250D01*
X164300000Y-140568750D01*
X164301174Y-140544858D01*
X164304684Y-140521197D01*
X164310496Y-140497993D01*
X164318554Y-140475471D01*
X164328782Y-140453847D01*
X164341079Y-140433330D01*
X164355329Y-140414117D01*
X164371393Y-140396393D01*
X164389117Y-140380329D01*
X164408330Y-140366079D01*
X164428847Y-140353782D01*
X164450471Y-140343554D01*
X164472993Y-140335496D01*
X164496197Y-140329684D01*
X164519858Y-140326174D01*
X164543750Y-140325000D01*
X165456250Y-140325000D01*
X165480142Y-140326174D01*
G37*
M02*
