G04 #@! TF.GenerationSoftware,KiCad,Pcbnew,5.1.5*
G04 #@! TF.CreationDate,2020-06-30T22:23:49+09:00*
G04 #@! TF.ProjectId,teabiscuits,74656162-6973-4637-9569-74732e6b6963,rev?*
G04 #@! TF.SameCoordinates,Original*
G04 #@! TF.FileFunction,Soldermask,Top*
G04 #@! TF.FilePolarity,Negative*
%FSLAX46Y46*%
G04 Gerber Fmt 4.6, Leading zero omitted, Abs format (unit mm)*
G04 Created by KiCad (PCBNEW 5.1.5) date 2020-06-30 22:23:49*
%MOMM*%
%LPD*%
G04 APERTURE LIST*
%ADD10C,0.100000*%
G04 APERTURE END LIST*
D10*
G36*
X177000000Y-128134903D02*
G01*
X177002402Y-128159289D01*
X177009515Y-128182738D01*
X177021066Y-128204349D01*
X177028880Y-128213870D01*
X177028425Y-128214243D01*
X177042610Y-128231528D01*
X177047348Y-128240392D01*
X177050263Y-128250001D01*
X177051852Y-128266140D01*
X177051852Y-128803860D01*
X177050263Y-128819999D01*
X177047348Y-128829608D01*
X177042610Y-128838472D01*
X177028742Y-128855370D01*
X177028653Y-128855459D01*
X177028577Y-128855571D01*
X177028425Y-128855757D01*
X177028443Y-128855771D01*
X177014967Y-128875786D01*
X177005511Y-128898392D01*
X177000646Y-128922408D01*
X177000000Y-128935097D01*
X177000000Y-132184903D01*
X177002402Y-132209289D01*
X177009515Y-132232738D01*
X177021066Y-132254349D01*
X177028880Y-132263870D01*
X177028425Y-132264243D01*
X177042610Y-132281528D01*
X177047348Y-132290392D01*
X177050263Y-132300001D01*
X177051852Y-132316140D01*
X177051852Y-132853860D01*
X177050263Y-132869999D01*
X177047348Y-132879608D01*
X177042610Y-132888472D01*
X177028742Y-132905370D01*
X177028653Y-132905459D01*
X177028577Y-132905571D01*
X177028425Y-132905757D01*
X177028443Y-132905771D01*
X177014967Y-132925786D01*
X177005511Y-132948392D01*
X177000646Y-132972408D01*
X177000000Y-132985097D01*
X177000000Y-133874903D01*
X177002402Y-133899289D01*
X177009515Y-133922738D01*
X177021066Y-133944349D01*
X177028880Y-133953870D01*
X177028425Y-133954243D01*
X177042610Y-133971528D01*
X177047348Y-133980392D01*
X177050263Y-133990001D01*
X177051852Y-134006140D01*
X177051852Y-134543860D01*
X177050263Y-134559999D01*
X177047348Y-134569608D01*
X177042610Y-134578472D01*
X177028742Y-134595370D01*
X177028653Y-134595459D01*
X177028577Y-134595571D01*
X177028425Y-134595757D01*
X177028443Y-134595771D01*
X177014967Y-134615786D01*
X177005511Y-134638392D01*
X177000646Y-134662408D01*
X177000000Y-134675097D01*
X177000000Y-137924903D01*
X177002402Y-137949289D01*
X177009515Y-137972738D01*
X177021066Y-137994349D01*
X177028880Y-138003870D01*
X177028425Y-138004243D01*
X177042610Y-138021528D01*
X177047348Y-138030392D01*
X177050263Y-138040001D01*
X177051852Y-138056140D01*
X177051852Y-138593860D01*
X177050263Y-138609999D01*
X177047348Y-138619608D01*
X177042610Y-138628472D01*
X177028742Y-138645370D01*
X177028653Y-138645459D01*
X177028577Y-138645571D01*
X177028425Y-138645757D01*
X177028443Y-138645771D01*
X177014967Y-138665786D01*
X177005511Y-138688392D01*
X177000646Y-138712408D01*
X177000000Y-138725097D01*
X177000000Y-145750000D01*
X152000000Y-145750000D01*
X152000000Y-132985097D01*
X151997598Y-132960711D01*
X151990485Y-132937262D01*
X151978934Y-132915651D01*
X151971120Y-132906130D01*
X151971575Y-132905757D01*
X151957390Y-132888472D01*
X151952652Y-132879608D01*
X151949737Y-132869999D01*
X151948148Y-132853860D01*
X151948148Y-132316140D01*
X151949737Y-132300001D01*
X151952652Y-132290392D01*
X151957390Y-132281528D01*
X151963763Y-132273763D01*
X151971528Y-132267390D01*
X151980392Y-132262652D01*
X151990001Y-132259737D01*
X152006140Y-132258148D01*
X156323149Y-132258148D01*
X156347535Y-132255746D01*
X156370984Y-132248633D01*
X156392595Y-132237082D01*
X156411537Y-132221537D01*
X156427082Y-132202595D01*
X156438633Y-132180984D01*
X156445746Y-132157535D01*
X156448148Y-132133149D01*
X156448148Y-131386140D01*
X156449737Y-131370001D01*
X156452652Y-131360392D01*
X156457390Y-131351528D01*
X156463763Y-131343763D01*
X156471528Y-131337390D01*
X156480392Y-131332652D01*
X156490001Y-131329737D01*
X156506140Y-131328148D01*
X157224001Y-131328148D01*
X157248387Y-131325746D01*
X157271836Y-131318633D01*
X157293447Y-131307082D01*
X157312389Y-131291537D01*
X157327934Y-131272595D01*
X157339485Y-131250984D01*
X157346598Y-131227535D01*
X157349000Y-131203149D01*
X157349000Y-129916851D01*
X157346598Y-129892465D01*
X157339485Y-129869016D01*
X157327934Y-129847405D01*
X157312389Y-129828463D01*
X157293447Y-129812918D01*
X157271836Y-129801367D01*
X157248387Y-129794254D01*
X157224001Y-129791852D01*
X156506140Y-129791852D01*
X156490001Y-129790263D01*
X156480392Y-129787348D01*
X156471528Y-129782610D01*
X156463763Y-129776237D01*
X156457390Y-129768472D01*
X156452652Y-129759608D01*
X156449737Y-129749999D01*
X156448148Y-129733860D01*
X156448148Y-128986851D01*
X156445746Y-128962465D01*
X156438633Y-128939016D01*
X156427082Y-128917405D01*
X156411537Y-128898463D01*
X156392595Y-128882918D01*
X156370984Y-128871367D01*
X156347535Y-128864254D01*
X156323149Y-128861852D01*
X152006140Y-128861852D01*
X151990001Y-128860263D01*
X151980392Y-128857348D01*
X151971528Y-128852610D01*
X151963763Y-128846237D01*
X151957390Y-128838472D01*
X151952652Y-128829608D01*
X151949737Y-128819999D01*
X151948148Y-128803860D01*
X151948148Y-128266140D01*
X151949737Y-128250001D01*
X151952652Y-128240392D01*
X151957390Y-128231528D01*
X151971258Y-128214630D01*
X151971347Y-128214541D01*
X151971423Y-128214429D01*
X151971575Y-128214243D01*
X151971557Y-128214229D01*
X151985033Y-128194214D01*
X151994489Y-128171608D01*
X151999354Y-128147592D01*
X152000000Y-128134903D01*
X152000000Y-127874999D01*
X154000000Y-127874999D01*
X154000000Y-128083149D01*
X154002402Y-128107535D01*
X154009515Y-128130984D01*
X154021066Y-128152595D01*
X154036611Y-128171537D01*
X154055553Y-128187082D01*
X154077164Y-128198633D01*
X154100613Y-128205746D01*
X154124999Y-128208148D01*
X159493860Y-128208148D01*
X159509999Y-128209737D01*
X159519608Y-128212652D01*
X159528472Y-128217390D01*
X159536237Y-128223763D01*
X159542610Y-128231528D01*
X159547348Y-128240392D01*
X159550263Y-128250001D01*
X159551852Y-128266140D01*
X159551852Y-129733860D01*
X159550263Y-129749999D01*
X159547347Y-129759611D01*
X159539080Y-129775077D01*
X159529702Y-129797715D01*
X159524922Y-129821749D01*
X159524922Y-129846253D01*
X159529702Y-129870286D01*
X159539080Y-129892925D01*
X159551000Y-129910765D01*
X159551000Y-131209712D01*
X159545386Y-131216553D01*
X159533835Y-131238164D01*
X159526722Y-131261613D01*
X159524320Y-131285999D01*
X159526722Y-131310385D01*
X159533835Y-131333834D01*
X159539080Y-131344923D01*
X159547347Y-131360389D01*
X159550263Y-131370001D01*
X159551852Y-131386140D01*
X159551852Y-132853860D01*
X159550263Y-132869999D01*
X159547348Y-132879608D01*
X159542610Y-132888472D01*
X159536237Y-132896237D01*
X159528472Y-132902610D01*
X159519608Y-132907348D01*
X159509999Y-132910263D01*
X159493860Y-132911852D01*
X154124999Y-132911852D01*
X154100613Y-132914254D01*
X154077164Y-132921367D01*
X154055553Y-132932918D01*
X154036611Y-132948463D01*
X154021066Y-132967405D01*
X154009515Y-132989016D01*
X154002402Y-133012465D01*
X154000000Y-133036851D01*
X154000000Y-143625001D01*
X154002402Y-143649387D01*
X154009515Y-143672836D01*
X154021066Y-143694447D01*
X154036611Y-143713389D01*
X154055553Y-143728934D01*
X154077164Y-143740485D01*
X154100613Y-143747598D01*
X154124999Y-143750000D01*
X174875001Y-143750000D01*
X174899387Y-143747598D01*
X174922836Y-143740485D01*
X174944447Y-143728934D01*
X174963389Y-143713389D01*
X174978934Y-143694447D01*
X174990485Y-143672836D01*
X174997598Y-143649387D01*
X175000000Y-143625001D01*
X175000000Y-138776851D01*
X174997598Y-138752465D01*
X174990485Y-138729016D01*
X174978934Y-138707405D01*
X174963389Y-138688463D01*
X174944447Y-138672918D01*
X174922836Y-138661367D01*
X174899387Y-138654254D01*
X174875001Y-138651852D01*
X169506140Y-138651852D01*
X169490001Y-138650263D01*
X169480392Y-138647348D01*
X169471528Y-138642610D01*
X169463763Y-138636237D01*
X169457390Y-138628472D01*
X169452652Y-138619608D01*
X169449737Y-138609999D01*
X169448148Y-138593860D01*
X169448148Y-137126140D01*
X169449737Y-137110001D01*
X169452653Y-137100389D01*
X169460920Y-137084923D01*
X169470298Y-137062285D01*
X169475078Y-137038251D01*
X169475078Y-137013747D01*
X169470298Y-136989714D01*
X169460920Y-136967075D01*
X169449000Y-136949235D01*
X169449000Y-135656851D01*
X171651000Y-135656851D01*
X171651000Y-136943149D01*
X171653402Y-136967535D01*
X171660515Y-136990984D01*
X171672066Y-137012595D01*
X171687611Y-137031537D01*
X171706553Y-137047082D01*
X171728164Y-137058633D01*
X171751613Y-137065746D01*
X171775999Y-137068148D01*
X172493860Y-137068148D01*
X172509999Y-137069737D01*
X172519608Y-137072652D01*
X172528472Y-137077390D01*
X172536237Y-137083763D01*
X172542610Y-137091528D01*
X172547348Y-137100392D01*
X172550263Y-137110001D01*
X172551852Y-137126140D01*
X172551852Y-137873149D01*
X172554254Y-137897535D01*
X172561367Y-137920984D01*
X172572918Y-137942595D01*
X172588463Y-137961537D01*
X172607405Y-137977082D01*
X172629016Y-137988633D01*
X172652465Y-137995746D01*
X172676851Y-137998148D01*
X174875001Y-137998148D01*
X174899387Y-137995746D01*
X174922836Y-137988633D01*
X174944447Y-137977082D01*
X174963389Y-137961537D01*
X174978934Y-137942595D01*
X174990485Y-137920984D01*
X174997598Y-137897535D01*
X175000000Y-137873149D01*
X175000000Y-134726851D01*
X174997598Y-134702465D01*
X174990485Y-134679016D01*
X174978934Y-134657405D01*
X174963389Y-134638463D01*
X174944447Y-134622918D01*
X174922836Y-134611367D01*
X174899387Y-134604254D01*
X174875001Y-134601852D01*
X172676851Y-134601852D01*
X172652465Y-134604254D01*
X172629016Y-134611367D01*
X172607405Y-134622918D01*
X172588463Y-134638463D01*
X172572918Y-134657405D01*
X172561367Y-134679016D01*
X172554254Y-134702465D01*
X172551852Y-134726851D01*
X172551852Y-135473860D01*
X172550263Y-135489999D01*
X172547348Y-135499608D01*
X172542610Y-135508472D01*
X172536237Y-135516237D01*
X172528472Y-135522610D01*
X172519608Y-135527348D01*
X172509999Y-135530263D01*
X172493860Y-135531852D01*
X171775999Y-135531852D01*
X171751613Y-135534254D01*
X171728164Y-135541367D01*
X171706553Y-135552918D01*
X171687611Y-135568463D01*
X171672066Y-135587405D01*
X171660515Y-135609016D01*
X171653402Y-135632465D01*
X171651000Y-135656851D01*
X169449000Y-135656851D01*
X169449000Y-135650288D01*
X169454614Y-135643447D01*
X169466165Y-135621836D01*
X169473278Y-135598387D01*
X169475680Y-135574001D01*
X169473278Y-135549615D01*
X169466165Y-135526166D01*
X169460920Y-135515077D01*
X169452653Y-135499611D01*
X169449737Y-135489999D01*
X169448148Y-135473860D01*
X169448148Y-134006140D01*
X169449737Y-133990001D01*
X169452652Y-133980392D01*
X169457390Y-133971528D01*
X169463763Y-133963763D01*
X169471528Y-133957390D01*
X169480392Y-133952652D01*
X169490001Y-133949737D01*
X169506140Y-133948148D01*
X174875001Y-133948148D01*
X174899387Y-133945746D01*
X174922836Y-133938633D01*
X174944447Y-133927082D01*
X174963389Y-133911537D01*
X174978934Y-133892595D01*
X174990485Y-133870984D01*
X174997598Y-133847535D01*
X175000000Y-133823149D01*
X175000000Y-133036851D01*
X174997598Y-133012465D01*
X174990485Y-132989016D01*
X174978934Y-132967405D01*
X174963389Y-132948463D01*
X174944447Y-132932918D01*
X174922836Y-132921367D01*
X174899387Y-132914254D01*
X174875001Y-132911852D01*
X169506140Y-132911852D01*
X169490001Y-132910263D01*
X169480392Y-132907348D01*
X169471528Y-132902610D01*
X169463763Y-132896237D01*
X169457390Y-132888472D01*
X169452652Y-132879608D01*
X169449737Y-132869999D01*
X169448148Y-132853860D01*
X169448148Y-131386140D01*
X169449737Y-131370001D01*
X169452653Y-131360389D01*
X169460920Y-131344923D01*
X169470298Y-131322285D01*
X169475078Y-131298251D01*
X169475078Y-131273747D01*
X169470298Y-131249714D01*
X169460920Y-131227075D01*
X169449000Y-131209235D01*
X169449000Y-129916851D01*
X171651000Y-129916851D01*
X171651000Y-131203149D01*
X171653402Y-131227535D01*
X171660515Y-131250984D01*
X171672066Y-131272595D01*
X171687611Y-131291537D01*
X171706553Y-131307082D01*
X171728164Y-131318633D01*
X171751613Y-131325746D01*
X171775999Y-131328148D01*
X172493860Y-131328148D01*
X172509999Y-131329737D01*
X172519608Y-131332652D01*
X172528472Y-131337390D01*
X172536237Y-131343763D01*
X172542610Y-131351528D01*
X172547348Y-131360392D01*
X172550263Y-131370001D01*
X172551852Y-131386140D01*
X172551852Y-132133149D01*
X172554254Y-132157535D01*
X172561367Y-132180984D01*
X172572918Y-132202595D01*
X172588463Y-132221537D01*
X172607405Y-132237082D01*
X172629016Y-132248633D01*
X172652465Y-132255746D01*
X172676851Y-132258148D01*
X174875001Y-132258148D01*
X174899387Y-132255746D01*
X174922836Y-132248633D01*
X174944447Y-132237082D01*
X174963389Y-132221537D01*
X174978934Y-132202595D01*
X174990485Y-132180984D01*
X174997598Y-132157535D01*
X175000000Y-132133149D01*
X175000000Y-128986851D01*
X174997598Y-128962465D01*
X174990485Y-128939016D01*
X174978934Y-128917405D01*
X174963389Y-128898463D01*
X174944447Y-128882918D01*
X174922836Y-128871367D01*
X174899387Y-128864254D01*
X174875001Y-128861852D01*
X172676851Y-128861852D01*
X172652465Y-128864254D01*
X172629016Y-128871367D01*
X172607405Y-128882918D01*
X172588463Y-128898463D01*
X172572918Y-128917405D01*
X172561367Y-128939016D01*
X172554254Y-128962465D01*
X172551852Y-128986851D01*
X172551852Y-129733860D01*
X172550263Y-129749999D01*
X172547348Y-129759608D01*
X172542610Y-129768472D01*
X172536237Y-129776237D01*
X172528472Y-129782610D01*
X172519608Y-129787348D01*
X172509999Y-129790263D01*
X172493860Y-129791852D01*
X171775999Y-129791852D01*
X171751613Y-129794254D01*
X171728164Y-129801367D01*
X171706553Y-129812918D01*
X171687611Y-129828463D01*
X171672066Y-129847405D01*
X171660515Y-129869016D01*
X171653402Y-129892465D01*
X171651000Y-129916851D01*
X169449000Y-129916851D01*
X169449000Y-129910288D01*
X169454614Y-129903447D01*
X169466165Y-129881836D01*
X169473278Y-129858387D01*
X169475680Y-129834001D01*
X169473278Y-129809615D01*
X169466165Y-129786166D01*
X169460920Y-129775077D01*
X169452653Y-129759611D01*
X169449737Y-129749999D01*
X169448148Y-129733860D01*
X169448148Y-128266140D01*
X169449737Y-128250001D01*
X169452652Y-128240392D01*
X169457390Y-128231528D01*
X169463763Y-128223763D01*
X169471528Y-128217390D01*
X169480392Y-128212652D01*
X169490001Y-128209737D01*
X169506140Y-128208148D01*
X174875001Y-128208148D01*
X174899387Y-128205746D01*
X174922836Y-128198633D01*
X174944447Y-128187082D01*
X174963389Y-128171537D01*
X174978934Y-128152595D01*
X174990485Y-128130984D01*
X174997598Y-128107535D01*
X175000000Y-128083149D01*
X175000000Y-127874999D01*
X174997598Y-127850613D01*
X174990485Y-127827164D01*
X174978934Y-127805553D01*
X174963389Y-127786611D01*
X174944447Y-127771066D01*
X174922836Y-127759515D01*
X174899387Y-127752402D01*
X174875001Y-127750000D01*
X154124999Y-127750000D01*
X154100613Y-127752402D01*
X154077164Y-127759515D01*
X154055553Y-127771066D01*
X154036611Y-127786611D01*
X154021066Y-127805553D01*
X154009515Y-127827164D01*
X154002402Y-127850613D01*
X154000000Y-127874999D01*
X152000000Y-127874999D01*
X152000000Y-125750000D01*
X177000000Y-125750000D01*
X177000000Y-128134903D01*
G37*
G36*
X167029928Y-140951764D02*
G01*
X167051009Y-140958160D01*
X167070445Y-140968548D01*
X167087476Y-140982524D01*
X167101452Y-140999555D01*
X167111840Y-141018991D01*
X167118236Y-141040072D01*
X167121000Y-141068140D01*
X167121000Y-142881860D01*
X167118236Y-142909928D01*
X167111840Y-142931009D01*
X167101452Y-142950445D01*
X167087476Y-142967476D01*
X167070445Y-142981452D01*
X167051009Y-142991840D01*
X167029928Y-142998236D01*
X167001860Y-143001000D01*
X166538140Y-143001000D01*
X166510072Y-142998236D01*
X166488991Y-142991840D01*
X166469555Y-142981452D01*
X166452524Y-142967476D01*
X166438548Y-142950445D01*
X166428160Y-142931009D01*
X166421764Y-142909928D01*
X166419000Y-142881860D01*
X166419000Y-141068140D01*
X166421764Y-141040072D01*
X166428160Y-141018991D01*
X166438548Y-140999555D01*
X166452524Y-140982524D01*
X166469555Y-140968548D01*
X166488991Y-140958160D01*
X166510072Y-140951764D01*
X166538140Y-140949000D01*
X167001860Y-140949000D01*
X167029928Y-140951764D01*
G37*
G36*
X165759928Y-140951764D02*
G01*
X165781009Y-140958160D01*
X165800445Y-140968548D01*
X165817476Y-140982524D01*
X165831452Y-140999555D01*
X165841840Y-141018991D01*
X165848236Y-141040072D01*
X165851000Y-141068140D01*
X165851000Y-142881860D01*
X165848236Y-142909928D01*
X165841840Y-142931009D01*
X165831452Y-142950445D01*
X165817476Y-142967476D01*
X165800445Y-142981452D01*
X165781009Y-142991840D01*
X165759928Y-142998236D01*
X165731860Y-143001000D01*
X165268140Y-143001000D01*
X165240072Y-142998236D01*
X165218991Y-142991840D01*
X165199555Y-142981452D01*
X165182524Y-142967476D01*
X165168548Y-142950445D01*
X165158160Y-142931009D01*
X165151764Y-142909928D01*
X165149000Y-142881860D01*
X165149000Y-141068140D01*
X165151764Y-141040072D01*
X165158160Y-141018991D01*
X165168548Y-140999555D01*
X165182524Y-140982524D01*
X165199555Y-140968548D01*
X165218991Y-140958160D01*
X165240072Y-140951764D01*
X165268140Y-140949000D01*
X165731860Y-140949000D01*
X165759928Y-140951764D01*
G37*
G36*
X164489928Y-140951764D02*
G01*
X164511009Y-140958160D01*
X164530445Y-140968548D01*
X164547476Y-140982524D01*
X164561452Y-140999555D01*
X164571840Y-141018991D01*
X164578236Y-141040072D01*
X164581000Y-141068140D01*
X164581000Y-142881860D01*
X164578236Y-142909928D01*
X164571840Y-142931009D01*
X164561452Y-142950445D01*
X164547476Y-142967476D01*
X164530445Y-142981452D01*
X164511009Y-142991840D01*
X164489928Y-142998236D01*
X164461860Y-143001000D01*
X163998140Y-143001000D01*
X163970072Y-142998236D01*
X163948991Y-142991840D01*
X163929555Y-142981452D01*
X163912524Y-142967476D01*
X163898548Y-142950445D01*
X163888160Y-142931009D01*
X163881764Y-142909928D01*
X163879000Y-142881860D01*
X163879000Y-141068140D01*
X163881764Y-141040072D01*
X163888160Y-141018991D01*
X163898548Y-140999555D01*
X163912524Y-140982524D01*
X163929555Y-140968548D01*
X163948991Y-140958160D01*
X163970072Y-140951764D01*
X163998140Y-140949000D01*
X164461860Y-140949000D01*
X164489928Y-140951764D01*
G37*
G36*
X168299928Y-140951764D02*
G01*
X168321009Y-140958160D01*
X168340445Y-140968548D01*
X168357476Y-140982524D01*
X168371452Y-140999555D01*
X168381840Y-141018991D01*
X168388236Y-141040072D01*
X168391000Y-141068140D01*
X168391000Y-142881860D01*
X168388236Y-142909928D01*
X168381840Y-142931009D01*
X168371452Y-142950445D01*
X168357476Y-142967476D01*
X168340445Y-142981452D01*
X168321009Y-142991840D01*
X168299928Y-142998236D01*
X168271860Y-143001000D01*
X167808140Y-143001000D01*
X167780072Y-142998236D01*
X167758991Y-142991840D01*
X167739555Y-142981452D01*
X167722524Y-142967476D01*
X167708548Y-142950445D01*
X167698160Y-142931009D01*
X167691764Y-142909928D01*
X167689000Y-142881860D01*
X167689000Y-141068140D01*
X167691764Y-141040072D01*
X167698160Y-141018991D01*
X167708548Y-140999555D01*
X167722524Y-140982524D01*
X167739555Y-140968548D01*
X167758991Y-140958160D01*
X167780072Y-140951764D01*
X167808140Y-140949000D01*
X168271860Y-140949000D01*
X168299928Y-140951764D01*
G37*
G36*
X170945721Y-140970174D02*
G01*
X171045995Y-141011709D01*
X171045996Y-141011710D01*
X171136242Y-141072010D01*
X171212990Y-141148758D01*
X171212991Y-141148760D01*
X171273291Y-141239005D01*
X171304516Y-141314389D01*
X171316067Y-141336000D01*
X171331612Y-141354941D01*
X171350554Y-141370487D01*
X171372165Y-141382038D01*
X171395614Y-141389151D01*
X171420000Y-141391553D01*
X171444386Y-141389151D01*
X171467835Y-141382038D01*
X171489446Y-141370487D01*
X171508387Y-141354942D01*
X171523933Y-141336000D01*
X171535484Y-141314389D01*
X171566709Y-141239005D01*
X171627009Y-141148760D01*
X171627010Y-141148758D01*
X171703758Y-141072010D01*
X171794004Y-141011710D01*
X171794005Y-141011709D01*
X171894279Y-140970174D01*
X172000730Y-140949000D01*
X172109270Y-140949000D01*
X172215721Y-140970174D01*
X172315995Y-141011709D01*
X172315996Y-141011710D01*
X172406242Y-141072010D01*
X172482990Y-141148758D01*
X172482991Y-141148760D01*
X172545068Y-141241664D01*
X172560614Y-141260606D01*
X172579556Y-141276151D01*
X172601167Y-141287702D01*
X172624615Y-141294815D01*
X172649002Y-141297217D01*
X172673388Y-141294815D01*
X172696837Y-141287702D01*
X172718447Y-141276151D01*
X172737389Y-141260605D01*
X172752934Y-141241663D01*
X172764485Y-141220052D01*
X172771598Y-141196604D01*
X172774000Y-141172218D01*
X172774000Y-140949000D01*
X173876000Y-140949000D01*
X173876000Y-142051000D01*
X172774000Y-142051000D01*
X172774000Y-141827782D01*
X172771598Y-141803396D01*
X172764485Y-141779947D01*
X172752934Y-141758336D01*
X172737389Y-141739394D01*
X172718447Y-141723849D01*
X172696836Y-141712298D01*
X172673387Y-141705185D01*
X172649001Y-141702783D01*
X172624615Y-141705185D01*
X172601166Y-141712298D01*
X172579555Y-141723849D01*
X172560613Y-141739394D01*
X172545068Y-141758336D01*
X172503988Y-141819816D01*
X172482990Y-141851242D01*
X172406242Y-141927990D01*
X172360812Y-141958345D01*
X172315995Y-141988291D01*
X172215721Y-142029826D01*
X172109270Y-142051000D01*
X172000730Y-142051000D01*
X171894279Y-142029826D01*
X171794005Y-141988291D01*
X171749188Y-141958345D01*
X171703758Y-141927990D01*
X171627010Y-141851242D01*
X171595041Y-141803396D01*
X171566709Y-141760995D01*
X171535484Y-141685611D01*
X171523933Y-141664000D01*
X171508388Y-141645059D01*
X171489446Y-141629513D01*
X171467835Y-141617962D01*
X171444386Y-141610849D01*
X171420000Y-141608447D01*
X171395614Y-141610849D01*
X171372165Y-141617962D01*
X171350554Y-141629513D01*
X171331613Y-141645058D01*
X171316067Y-141664000D01*
X171304516Y-141685611D01*
X171273291Y-141760995D01*
X171244959Y-141803396D01*
X171212990Y-141851242D01*
X171136242Y-141927990D01*
X171090812Y-141958345D01*
X171045995Y-141988291D01*
X170945721Y-142029826D01*
X170839270Y-142051000D01*
X170730730Y-142051000D01*
X170624279Y-142029826D01*
X170524005Y-141988291D01*
X170479188Y-141958345D01*
X170433758Y-141927990D01*
X170357010Y-141851242D01*
X170325041Y-141803396D01*
X170296709Y-141760995D01*
X170255174Y-141660721D01*
X170234000Y-141554270D01*
X170234000Y-141445730D01*
X170255174Y-141339279D01*
X170296709Y-141239005D01*
X170357009Y-141148760D01*
X170357010Y-141148758D01*
X170433758Y-141072010D01*
X170524004Y-141011710D01*
X170524005Y-141011709D01*
X170624279Y-140970174D01*
X170730730Y-140949000D01*
X170839270Y-140949000D01*
X170945721Y-140970174D01*
G37*
G36*
X158746968Y-140003565D02*
G01*
X158785638Y-140015296D01*
X158821277Y-140034346D01*
X158852517Y-140059983D01*
X158878154Y-140091223D01*
X158897204Y-140126862D01*
X158908935Y-140165532D01*
X158913500Y-140211888D01*
X158913500Y-141288112D01*
X158908935Y-141334468D01*
X158897204Y-141373138D01*
X158878154Y-141408777D01*
X158852517Y-141440017D01*
X158821277Y-141465654D01*
X158785638Y-141484704D01*
X158746968Y-141496435D01*
X158700612Y-141501000D01*
X158049388Y-141501000D01*
X158003032Y-141496435D01*
X157964362Y-141484704D01*
X157928723Y-141465654D01*
X157897483Y-141440017D01*
X157871846Y-141408777D01*
X157852796Y-141373138D01*
X157841065Y-141334468D01*
X157836500Y-141288112D01*
X157836500Y-140211888D01*
X157841065Y-140165532D01*
X157852796Y-140126862D01*
X157871846Y-140091223D01*
X157897483Y-140059983D01*
X157928723Y-140034346D01*
X157964362Y-140015296D01*
X158003032Y-140003565D01*
X158049388Y-139999000D01*
X158700612Y-139999000D01*
X158746968Y-140003565D01*
G37*
G36*
X156871968Y-140003565D02*
G01*
X156910638Y-140015296D01*
X156946277Y-140034346D01*
X156977517Y-140059983D01*
X157003154Y-140091223D01*
X157022204Y-140126862D01*
X157033935Y-140165532D01*
X157038500Y-140211888D01*
X157038500Y-141288112D01*
X157033935Y-141334468D01*
X157022204Y-141373138D01*
X157003154Y-141408777D01*
X156977517Y-141440017D01*
X156946277Y-141465654D01*
X156910638Y-141484704D01*
X156871968Y-141496435D01*
X156825612Y-141501000D01*
X156174388Y-141501000D01*
X156128032Y-141496435D01*
X156089362Y-141484704D01*
X156053723Y-141465654D01*
X156022483Y-141440017D01*
X155996846Y-141408777D01*
X155977796Y-141373138D01*
X155966065Y-141334468D01*
X155961500Y-141288112D01*
X155961500Y-140211888D01*
X155966065Y-140165532D01*
X155977796Y-140126862D01*
X155996846Y-140091223D01*
X156022483Y-140059983D01*
X156053723Y-140034346D01*
X156089362Y-140015296D01*
X156128032Y-140003565D01*
X156174388Y-139999000D01*
X156825612Y-139999000D01*
X156871968Y-140003565D01*
G37*
G36*
X157209928Y-138056764D02*
G01*
X157231009Y-138063160D01*
X157250445Y-138073548D01*
X157267476Y-138087524D01*
X157281452Y-138104555D01*
X157291840Y-138123991D01*
X157298236Y-138145072D01*
X157301000Y-138173140D01*
X157301000Y-138636860D01*
X157298236Y-138664928D01*
X157291840Y-138686009D01*
X157281452Y-138705445D01*
X157267476Y-138722476D01*
X157250445Y-138736452D01*
X157231009Y-138746840D01*
X157209928Y-138753236D01*
X157181860Y-138756000D01*
X155368140Y-138756000D01*
X155340072Y-138753236D01*
X155318991Y-138746840D01*
X155299555Y-138736452D01*
X155282524Y-138722476D01*
X155268548Y-138705445D01*
X155258160Y-138686009D01*
X155251764Y-138664928D01*
X155249000Y-138636860D01*
X155249000Y-138173140D01*
X155251764Y-138145072D01*
X155258160Y-138123991D01*
X155268548Y-138104555D01*
X155282524Y-138087524D01*
X155299555Y-138073548D01*
X155318991Y-138063160D01*
X155340072Y-138056764D01*
X155368140Y-138054000D01*
X157181860Y-138054000D01*
X157209928Y-138056764D01*
G37*
G36*
X162159928Y-138056764D02*
G01*
X162181009Y-138063160D01*
X162200445Y-138073548D01*
X162217476Y-138087524D01*
X162231452Y-138104555D01*
X162241840Y-138123991D01*
X162248236Y-138145072D01*
X162251000Y-138173140D01*
X162251000Y-138636860D01*
X162248236Y-138664928D01*
X162241840Y-138686009D01*
X162231452Y-138705445D01*
X162217476Y-138722476D01*
X162200445Y-138736452D01*
X162181009Y-138746840D01*
X162159928Y-138753236D01*
X162131860Y-138756000D01*
X160318140Y-138756000D01*
X160290072Y-138753236D01*
X160268991Y-138746840D01*
X160249555Y-138736452D01*
X160232524Y-138722476D01*
X160218548Y-138705445D01*
X160208160Y-138686009D01*
X160201764Y-138664928D01*
X160199000Y-138636860D01*
X160199000Y-138173140D01*
X160201764Y-138145072D01*
X160208160Y-138123991D01*
X160218548Y-138104555D01*
X160232524Y-138087524D01*
X160249555Y-138073548D01*
X160268991Y-138063160D01*
X160290072Y-138056764D01*
X160318140Y-138054000D01*
X162131860Y-138054000D01*
X162159928Y-138056764D01*
G37*
G36*
X164489928Y-136001764D02*
G01*
X164511009Y-136008160D01*
X164530445Y-136018548D01*
X164547476Y-136032524D01*
X164561452Y-136049555D01*
X164571840Y-136068991D01*
X164578236Y-136090072D01*
X164581000Y-136118140D01*
X164581000Y-137931860D01*
X164578236Y-137959928D01*
X164571840Y-137981009D01*
X164561452Y-138000445D01*
X164547476Y-138017476D01*
X164530445Y-138031452D01*
X164511009Y-138041840D01*
X164489928Y-138048236D01*
X164461860Y-138051000D01*
X163998140Y-138051000D01*
X163970072Y-138048236D01*
X163948991Y-138041840D01*
X163929555Y-138031452D01*
X163912524Y-138017476D01*
X163898548Y-138000445D01*
X163888160Y-137981009D01*
X163881764Y-137959928D01*
X163879000Y-137931860D01*
X163879000Y-136118140D01*
X163881764Y-136090072D01*
X163888160Y-136068991D01*
X163898548Y-136049555D01*
X163912524Y-136032524D01*
X163929555Y-136018548D01*
X163948991Y-136008160D01*
X163970072Y-136001764D01*
X163998140Y-135999000D01*
X164461860Y-135999000D01*
X164489928Y-136001764D01*
G37*
G36*
X165759928Y-136001764D02*
G01*
X165781009Y-136008160D01*
X165800445Y-136018548D01*
X165817476Y-136032524D01*
X165831452Y-136049555D01*
X165841840Y-136068991D01*
X165848236Y-136090072D01*
X165851000Y-136118140D01*
X165851000Y-137931860D01*
X165848236Y-137959928D01*
X165841840Y-137981009D01*
X165831452Y-138000445D01*
X165817476Y-138017476D01*
X165800445Y-138031452D01*
X165781009Y-138041840D01*
X165759928Y-138048236D01*
X165731860Y-138051000D01*
X165268140Y-138051000D01*
X165240072Y-138048236D01*
X165218991Y-138041840D01*
X165199555Y-138031452D01*
X165182524Y-138017476D01*
X165168548Y-138000445D01*
X165158160Y-137981009D01*
X165151764Y-137959928D01*
X165149000Y-137931860D01*
X165149000Y-136118140D01*
X165151764Y-136090072D01*
X165158160Y-136068991D01*
X165168548Y-136049555D01*
X165182524Y-136032524D01*
X165199555Y-136018548D01*
X165218991Y-136008160D01*
X165240072Y-136001764D01*
X165268140Y-135999000D01*
X165731860Y-135999000D01*
X165759928Y-136001764D01*
G37*
G36*
X167029928Y-136001764D02*
G01*
X167051009Y-136008160D01*
X167070445Y-136018548D01*
X167087476Y-136032524D01*
X167101452Y-136049555D01*
X167111840Y-136068991D01*
X167118236Y-136090072D01*
X167121000Y-136118140D01*
X167121000Y-137931860D01*
X167118236Y-137959928D01*
X167111840Y-137981009D01*
X167101452Y-138000445D01*
X167087476Y-138017476D01*
X167070445Y-138031452D01*
X167051009Y-138041840D01*
X167029928Y-138048236D01*
X167001860Y-138051000D01*
X166538140Y-138051000D01*
X166510072Y-138048236D01*
X166488991Y-138041840D01*
X166469555Y-138031452D01*
X166452524Y-138017476D01*
X166438548Y-138000445D01*
X166428160Y-137981009D01*
X166421764Y-137959928D01*
X166419000Y-137931860D01*
X166419000Y-136118140D01*
X166421764Y-136090072D01*
X166428160Y-136068991D01*
X166438548Y-136049555D01*
X166452524Y-136032524D01*
X166469555Y-136018548D01*
X166488991Y-136008160D01*
X166510072Y-136001764D01*
X166538140Y-135999000D01*
X167001860Y-135999000D01*
X167029928Y-136001764D01*
G37*
G36*
X168299928Y-136001764D02*
G01*
X168321009Y-136008160D01*
X168340445Y-136018548D01*
X168357476Y-136032524D01*
X168371452Y-136049555D01*
X168381840Y-136068991D01*
X168388236Y-136090072D01*
X168391000Y-136118140D01*
X168391000Y-137931860D01*
X168388236Y-137959928D01*
X168381840Y-137981009D01*
X168371452Y-138000445D01*
X168357476Y-138017476D01*
X168340445Y-138031452D01*
X168321009Y-138041840D01*
X168299928Y-138048236D01*
X168271860Y-138051000D01*
X167808140Y-138051000D01*
X167780072Y-138048236D01*
X167758991Y-138041840D01*
X167739555Y-138031452D01*
X167722524Y-138017476D01*
X167708548Y-138000445D01*
X167698160Y-137981009D01*
X167691764Y-137959928D01*
X167689000Y-137931860D01*
X167689000Y-136118140D01*
X167691764Y-136090072D01*
X167698160Y-136068991D01*
X167708548Y-136049555D01*
X167722524Y-136032524D01*
X167739555Y-136018548D01*
X167758991Y-136008160D01*
X167780072Y-136001764D01*
X167808140Y-135999000D01*
X168271860Y-135999000D01*
X168299928Y-136001764D01*
G37*
G36*
X162159928Y-136786764D02*
G01*
X162181009Y-136793160D01*
X162200445Y-136803548D01*
X162217476Y-136817524D01*
X162231452Y-136834555D01*
X162241840Y-136853991D01*
X162248236Y-136875072D01*
X162251000Y-136903140D01*
X162251000Y-137366860D01*
X162248236Y-137394928D01*
X162241840Y-137416009D01*
X162231452Y-137435445D01*
X162217476Y-137452476D01*
X162200445Y-137466452D01*
X162181009Y-137476840D01*
X162159928Y-137483236D01*
X162131860Y-137486000D01*
X160318140Y-137486000D01*
X160290072Y-137483236D01*
X160268991Y-137476840D01*
X160249555Y-137466452D01*
X160232524Y-137452476D01*
X160218548Y-137435445D01*
X160208160Y-137416009D01*
X160201764Y-137394928D01*
X160199000Y-137366860D01*
X160199000Y-136903140D01*
X160201764Y-136875072D01*
X160208160Y-136853991D01*
X160218548Y-136834555D01*
X160232524Y-136817524D01*
X160249555Y-136803548D01*
X160268991Y-136793160D01*
X160290072Y-136786764D01*
X160318140Y-136784000D01*
X162131860Y-136784000D01*
X162159928Y-136786764D01*
G37*
G36*
X157209928Y-136786764D02*
G01*
X157231009Y-136793160D01*
X157250445Y-136803548D01*
X157267476Y-136817524D01*
X157281452Y-136834555D01*
X157291840Y-136853991D01*
X157298236Y-136875072D01*
X157301000Y-136903140D01*
X157301000Y-137366860D01*
X157298236Y-137394928D01*
X157291840Y-137416009D01*
X157281452Y-137435445D01*
X157267476Y-137452476D01*
X157250445Y-137466452D01*
X157231009Y-137476840D01*
X157209928Y-137483236D01*
X157181860Y-137486000D01*
X155368140Y-137486000D01*
X155340072Y-137483236D01*
X155318991Y-137476840D01*
X155299555Y-137466452D01*
X155282524Y-137452476D01*
X155268548Y-137435445D01*
X155258160Y-137416009D01*
X155251764Y-137394928D01*
X155249000Y-137366860D01*
X155249000Y-136903140D01*
X155251764Y-136875072D01*
X155258160Y-136853991D01*
X155268548Y-136834555D01*
X155282524Y-136817524D01*
X155299555Y-136803548D01*
X155318991Y-136793160D01*
X155340072Y-136786764D01*
X155368140Y-136784000D01*
X157181860Y-136784000D01*
X157209928Y-136786764D01*
G37*
G36*
X162159928Y-135516764D02*
G01*
X162181009Y-135523160D01*
X162200445Y-135533548D01*
X162217476Y-135547524D01*
X162231452Y-135564555D01*
X162241840Y-135583991D01*
X162248236Y-135605072D01*
X162251000Y-135633140D01*
X162251000Y-136096860D01*
X162248236Y-136124928D01*
X162241840Y-136146009D01*
X162231452Y-136165445D01*
X162217476Y-136182476D01*
X162200445Y-136196452D01*
X162181009Y-136206840D01*
X162159928Y-136213236D01*
X162131860Y-136216000D01*
X160318140Y-136216000D01*
X160290072Y-136213236D01*
X160268991Y-136206840D01*
X160249555Y-136196452D01*
X160232524Y-136182476D01*
X160218548Y-136165445D01*
X160208160Y-136146009D01*
X160201764Y-136124928D01*
X160199000Y-136096860D01*
X160199000Y-135633140D01*
X160201764Y-135605072D01*
X160208160Y-135583991D01*
X160218548Y-135564555D01*
X160232524Y-135547524D01*
X160249555Y-135533548D01*
X160268991Y-135523160D01*
X160290072Y-135516764D01*
X160318140Y-135514000D01*
X162131860Y-135514000D01*
X162159928Y-135516764D01*
G37*
G36*
X157209928Y-135516764D02*
G01*
X157231009Y-135523160D01*
X157250445Y-135533548D01*
X157267476Y-135547524D01*
X157281452Y-135564555D01*
X157291840Y-135583991D01*
X157298236Y-135605072D01*
X157301000Y-135633140D01*
X157301000Y-136096860D01*
X157298236Y-136124928D01*
X157291840Y-136146009D01*
X157281452Y-136165445D01*
X157267476Y-136182476D01*
X157250445Y-136196452D01*
X157231009Y-136206840D01*
X157209928Y-136213236D01*
X157181860Y-136216000D01*
X155368140Y-136216000D01*
X155340072Y-136213236D01*
X155318991Y-136206840D01*
X155299555Y-136196452D01*
X155282524Y-136182476D01*
X155268548Y-136165445D01*
X155258160Y-136146009D01*
X155251764Y-136124928D01*
X155249000Y-136096860D01*
X155249000Y-135633140D01*
X155251764Y-135605072D01*
X155258160Y-135583991D01*
X155268548Y-135564555D01*
X155282524Y-135547524D01*
X155299555Y-135533548D01*
X155318991Y-135523160D01*
X155340072Y-135516764D01*
X155368140Y-135514000D01*
X157181860Y-135514000D01*
X157209928Y-135516764D01*
G37*
G36*
X157209928Y-134246764D02*
G01*
X157231009Y-134253160D01*
X157250445Y-134263548D01*
X157267476Y-134277524D01*
X157281452Y-134294555D01*
X157291840Y-134313991D01*
X157298236Y-134335072D01*
X157301000Y-134363140D01*
X157301000Y-134826860D01*
X157298236Y-134854928D01*
X157291840Y-134876009D01*
X157281452Y-134895445D01*
X157267476Y-134912476D01*
X157250445Y-134926452D01*
X157231009Y-134936840D01*
X157209928Y-134943236D01*
X157181860Y-134946000D01*
X155368140Y-134946000D01*
X155340072Y-134943236D01*
X155318991Y-134936840D01*
X155299555Y-134926452D01*
X155282524Y-134912476D01*
X155268548Y-134895445D01*
X155258160Y-134876009D01*
X155251764Y-134854928D01*
X155249000Y-134826860D01*
X155249000Y-134363140D01*
X155251764Y-134335072D01*
X155258160Y-134313991D01*
X155268548Y-134294555D01*
X155282524Y-134277524D01*
X155299555Y-134263548D01*
X155318991Y-134253160D01*
X155340072Y-134246764D01*
X155368140Y-134244000D01*
X157181860Y-134244000D01*
X157209928Y-134246764D01*
G37*
G36*
X162159928Y-134246764D02*
G01*
X162181009Y-134253160D01*
X162200445Y-134263548D01*
X162217476Y-134277524D01*
X162231452Y-134294555D01*
X162241840Y-134313991D01*
X162248236Y-134335072D01*
X162251000Y-134363140D01*
X162251000Y-134826860D01*
X162248236Y-134854928D01*
X162241840Y-134876009D01*
X162231452Y-134895445D01*
X162217476Y-134912476D01*
X162200445Y-134926452D01*
X162181009Y-134936840D01*
X162159928Y-134943236D01*
X162131860Y-134946000D01*
X160318140Y-134946000D01*
X160290072Y-134943236D01*
X160268991Y-134936840D01*
X160249555Y-134926452D01*
X160232524Y-134912476D01*
X160218548Y-134895445D01*
X160208160Y-134876009D01*
X160201764Y-134854928D01*
X160199000Y-134826860D01*
X160199000Y-134363140D01*
X160201764Y-134335072D01*
X160208160Y-134313991D01*
X160218548Y-134294555D01*
X160232524Y-134277524D01*
X160249555Y-134263548D01*
X160268991Y-134253160D01*
X160290072Y-134246764D01*
X160318140Y-134244000D01*
X162131860Y-134244000D01*
X162159928Y-134246764D01*
G37*
G36*
X162018604Y-131378347D02*
G01*
X162055144Y-131389432D01*
X162088821Y-131407433D01*
X162118341Y-131431659D01*
X162142567Y-131461179D01*
X162160568Y-131494856D01*
X162171653Y-131531396D01*
X162176000Y-131575538D01*
X162176000Y-132524462D01*
X162171653Y-132568604D01*
X162160568Y-132605144D01*
X162142567Y-132638821D01*
X162118341Y-132668341D01*
X162088821Y-132692567D01*
X162055144Y-132710568D01*
X162018604Y-132721653D01*
X161974462Y-132726000D01*
X160525538Y-132726000D01*
X160481396Y-132721653D01*
X160444856Y-132710568D01*
X160411179Y-132692567D01*
X160381659Y-132668341D01*
X160357433Y-132638821D01*
X160339432Y-132605144D01*
X160328347Y-132568604D01*
X160324000Y-132524462D01*
X160324000Y-131575538D01*
X160328347Y-131531396D01*
X160339432Y-131494856D01*
X160357433Y-131461179D01*
X160381659Y-131431659D01*
X160411179Y-131407433D01*
X160444856Y-131389432D01*
X160481396Y-131378347D01*
X160525538Y-131374000D01*
X161974462Y-131374000D01*
X162018604Y-131378347D01*
G37*
G36*
X164084468Y-131591065D02*
G01*
X164123138Y-131602796D01*
X164158777Y-131621846D01*
X164190017Y-131647483D01*
X164215654Y-131678723D01*
X164234704Y-131714362D01*
X164246435Y-131753032D01*
X164251000Y-131799388D01*
X164251000Y-132450612D01*
X164246435Y-132496968D01*
X164234704Y-132535638D01*
X164215654Y-132571277D01*
X164190017Y-132602517D01*
X164158777Y-132628154D01*
X164123138Y-132647204D01*
X164084468Y-132658935D01*
X164038112Y-132663500D01*
X162961888Y-132663500D01*
X162915532Y-132658935D01*
X162876862Y-132647204D01*
X162841223Y-132628154D01*
X162809983Y-132602517D01*
X162784346Y-132571277D01*
X162765296Y-132535638D01*
X162753565Y-132496968D01*
X162749000Y-132450612D01*
X162749000Y-131799388D01*
X162753565Y-131753032D01*
X162765296Y-131714362D01*
X162784346Y-131678723D01*
X162809983Y-131647483D01*
X162841223Y-131621846D01*
X162876862Y-131602796D01*
X162915532Y-131591065D01*
X162961888Y-131586500D01*
X164038112Y-131586500D01*
X164084468Y-131591065D01*
G37*
G36*
X164084468Y-129716065D02*
G01*
X164123138Y-129727796D01*
X164158777Y-129746846D01*
X164190017Y-129772483D01*
X164215654Y-129803723D01*
X164234704Y-129839362D01*
X164246435Y-129878032D01*
X164251000Y-129924388D01*
X164251000Y-130575612D01*
X164246435Y-130621968D01*
X164234704Y-130660638D01*
X164215654Y-130696277D01*
X164190017Y-130727517D01*
X164158777Y-130753154D01*
X164123138Y-130772204D01*
X164084468Y-130783935D01*
X164038112Y-130788500D01*
X162961888Y-130788500D01*
X162915532Y-130783935D01*
X162876862Y-130772204D01*
X162841223Y-130753154D01*
X162809983Y-130727517D01*
X162784346Y-130696277D01*
X162765296Y-130660638D01*
X162753565Y-130621968D01*
X162749000Y-130575612D01*
X162749000Y-129924388D01*
X162753565Y-129878032D01*
X162765296Y-129839362D01*
X162784346Y-129803723D01*
X162809983Y-129772483D01*
X162841223Y-129746846D01*
X162876862Y-129727796D01*
X162915532Y-129716065D01*
X162961888Y-129711500D01*
X164038112Y-129711500D01*
X164084468Y-129716065D01*
G37*
G36*
X162018604Y-128578347D02*
G01*
X162055144Y-128589432D01*
X162088821Y-128607433D01*
X162118341Y-128631659D01*
X162142567Y-128661179D01*
X162160568Y-128694856D01*
X162171653Y-128731396D01*
X162176000Y-128775538D01*
X162176000Y-129724462D01*
X162171653Y-129768604D01*
X162160568Y-129805144D01*
X162142567Y-129838821D01*
X162118341Y-129868341D01*
X162088821Y-129892567D01*
X162055144Y-129910568D01*
X162018604Y-129921653D01*
X161974462Y-129926000D01*
X160525538Y-129926000D01*
X160481396Y-129921653D01*
X160444856Y-129910568D01*
X160411179Y-129892567D01*
X160381659Y-129868341D01*
X160357433Y-129838821D01*
X160339432Y-129805144D01*
X160328347Y-129768604D01*
X160324000Y-129724462D01*
X160324000Y-128775538D01*
X160328347Y-128731396D01*
X160339432Y-128694856D01*
X160357433Y-128661179D01*
X160381659Y-128631659D01*
X160411179Y-128607433D01*
X160444856Y-128589432D01*
X160481396Y-128578347D01*
X160525538Y-128574000D01*
X161974462Y-128574000D01*
X162018604Y-128578347D01*
G37*
M02*
