G04 #@! TF.GenerationSoftware,KiCad,Pcbnew,5.1.5*
G04 #@! TF.CreationDate,2020-06-30T22:23:49+09:00*
G04 #@! TF.ProjectId,teabiscuits,74656162-6973-4637-9569-74732e6b6963,rev?*
G04 #@! TF.SameCoordinates,Original*
G04 #@! TF.FileFunction,Legend,Top*
G04 #@! TF.FilePolarity,Positive*
%FSLAX46Y46*%
G04 Gerber Fmt 4.6, Leading zero omitted, Abs format (unit mm)*
G04 Created by KiCad (PCBNEW 5.1.5) date 2020-06-30 22:23:49*
%MOMM*%
%LPD*%
G04 APERTURE LIST*
%ADD10C,0.125000*%
%ADD11C,0.120000*%
%ADD12C,0.150000*%
G04 APERTURE END LIST*
D10*
X154226190Y-142976190D02*
X154511904Y-142976190D01*
X154369047Y-143476190D02*
X154369047Y-142976190D01*
X154869047Y-143452380D02*
X154821428Y-143476190D01*
X154726190Y-143476190D01*
X154678571Y-143452380D01*
X154654761Y-143404761D01*
X154654761Y-143214285D01*
X154678571Y-143166666D01*
X154726190Y-143142857D01*
X154821428Y-143142857D01*
X154869047Y-143166666D01*
X154892857Y-143214285D01*
X154892857Y-143261904D01*
X154654761Y-143309523D01*
X155321428Y-143476190D02*
X155321428Y-143214285D01*
X155297619Y-143166666D01*
X155250000Y-143142857D01*
X155154761Y-143142857D01*
X155107142Y-143166666D01*
X155321428Y-143452380D02*
X155273809Y-143476190D01*
X155154761Y-143476190D01*
X155107142Y-143452380D01*
X155083333Y-143404761D01*
X155083333Y-143357142D01*
X155107142Y-143309523D01*
X155154761Y-143285714D01*
X155273809Y-143285714D01*
X155321428Y-143261904D01*
X155726190Y-143214285D02*
X155797619Y-143238095D01*
X155821428Y-143261904D01*
X155845238Y-143309523D01*
X155845238Y-143380952D01*
X155821428Y-143428571D01*
X155797619Y-143452380D01*
X155750000Y-143476190D01*
X155559523Y-143476190D01*
X155559523Y-142976190D01*
X155726190Y-142976190D01*
X155773809Y-143000000D01*
X155797619Y-143023809D01*
X155821428Y-143071428D01*
X155821428Y-143119047D01*
X155797619Y-143166666D01*
X155773809Y-143190476D01*
X155726190Y-143214285D01*
X155559523Y-143214285D01*
X156059523Y-143476190D02*
X156059523Y-143142857D01*
X156059523Y-142976190D02*
X156035714Y-143000000D01*
X156059523Y-143023809D01*
X156083333Y-143000000D01*
X156059523Y-142976190D01*
X156059523Y-143023809D01*
X156273809Y-143452380D02*
X156321428Y-143476190D01*
X156416666Y-143476190D01*
X156464285Y-143452380D01*
X156488095Y-143404761D01*
X156488095Y-143380952D01*
X156464285Y-143333333D01*
X156416666Y-143309523D01*
X156345238Y-143309523D01*
X156297619Y-143285714D01*
X156273809Y-143238095D01*
X156273809Y-143214285D01*
X156297619Y-143166666D01*
X156345238Y-143142857D01*
X156416666Y-143142857D01*
X156464285Y-143166666D01*
X156702380Y-143476190D02*
X156702380Y-142976190D01*
X156869047Y-143333333D01*
X157035714Y-142976190D01*
X157035714Y-143476190D01*
X157440476Y-143214285D02*
X157511904Y-143238095D01*
X157535714Y-143261904D01*
X157559523Y-143309523D01*
X157559523Y-143380952D01*
X157535714Y-143428571D01*
X157511904Y-143452380D01*
X157464285Y-143476190D01*
X157273809Y-143476190D01*
X157273809Y-142976190D01*
X157440476Y-142976190D01*
X157488095Y-143000000D01*
X157511904Y-143023809D01*
X157535714Y-143071428D01*
X157535714Y-143119047D01*
X157511904Y-143166666D01*
X157488095Y-143190476D01*
X157440476Y-143214285D01*
X157273809Y-143214285D01*
X158154761Y-143476190D02*
X158154761Y-143142857D01*
X158154761Y-143238095D02*
X158178571Y-143190476D01*
X158202380Y-143166666D01*
X158250000Y-143142857D01*
X158297619Y-143142857D01*
X158726190Y-143476190D02*
X158440476Y-143476190D01*
X158583333Y-143476190D02*
X158583333Y-142976190D01*
X158535714Y-143047619D01*
X158488095Y-143095238D01*
X158440476Y-143119047D01*
D11*
X169040000Y-136850000D02*
X169040000Y-135750000D01*
X176940000Y-133740000D02*
X169240000Y-133740000D01*
X169240000Y-133740000D02*
X169240000Y-138860000D01*
X176940000Y-138860000D02*
X169240000Y-138860000D01*
X174085000Y-141500000D02*
X174085000Y-142830000D01*
X174085000Y-142830000D02*
X173325000Y-142830000D01*
X172690000Y-142830000D02*
X170090000Y-142830000D01*
X170090000Y-141807530D02*
X170090000Y-142830000D01*
X170090000Y-140170000D02*
X170090000Y-141192470D01*
X172690000Y-140170000D02*
X170090000Y-140170000D01*
X172690000Y-142260000D02*
X172690000Y-142830000D01*
X172690000Y-140170000D02*
X172690000Y-140740000D01*
X159960000Y-130010000D02*
X159960000Y-131110000D01*
X152060000Y-133120000D02*
X159760000Y-133120000D01*
X159760000Y-133120000D02*
X159760000Y-128000000D01*
X152060000Y-128000000D02*
X159760000Y-128000000D01*
X169040000Y-131110000D02*
X169040000Y-130010000D01*
X176940000Y-128000000D02*
X169240000Y-128000000D01*
X169240000Y-128000000D02*
X169240000Y-133120000D01*
X176940000Y-133120000D02*
X169240000Y-133120000D01*
X168695000Y-139500000D02*
X168695000Y-137550000D01*
X168695000Y-139500000D02*
X168695000Y-141450000D01*
X163575000Y-139500000D02*
X163575000Y-137550000D01*
X163575000Y-139500000D02*
X163575000Y-142950000D01*
X158750000Y-133940000D02*
X155300000Y-133940000D01*
X158750000Y-133940000D02*
X160700000Y-133940000D01*
X158750000Y-139060000D02*
X156800000Y-139060000D01*
X158750000Y-139060000D02*
X160700000Y-139060000D01*
X162790000Y-130928922D02*
X162790000Y-131446078D01*
X164210000Y-130928922D02*
X164210000Y-131446078D01*
X162160000Y-130047936D02*
X162160000Y-131252064D01*
X160340000Y-130047936D02*
X160340000Y-131252064D01*
X157696078Y-141460000D02*
X157178922Y-141460000D01*
X157696078Y-140040000D02*
X157178922Y-140040000D01*
D12*
X173166666Y-139452380D02*
X173166666Y-140166666D01*
X173119047Y-140309523D01*
X173023809Y-140404761D01*
X172880952Y-140452380D01*
X172785714Y-140452380D01*
X173547619Y-139452380D02*
X174166666Y-139452380D01*
X173833333Y-139833333D01*
X173976190Y-139833333D01*
X174071428Y-139880952D01*
X174119047Y-139928571D01*
X174166666Y-140023809D01*
X174166666Y-140261904D01*
X174119047Y-140357142D01*
X174071428Y-140404761D01*
X173976190Y-140452380D01*
X173690476Y-140452380D01*
X173595238Y-140404761D01*
X173547619Y-140357142D01*
X166488095Y-134452380D02*
X166488095Y-135261904D01*
X166535714Y-135357142D01*
X166583333Y-135404761D01*
X166678571Y-135452380D01*
X166869047Y-135452380D01*
X166964285Y-135404761D01*
X167011904Y-135357142D01*
X167059523Y-135261904D01*
X167059523Y-134452380D01*
X167440476Y-134452380D02*
X168059523Y-134452380D01*
X167726190Y-134833333D01*
X167869047Y-134833333D01*
X167964285Y-134880952D01*
X168011904Y-134928571D01*
X168059523Y-135023809D01*
X168059523Y-135261904D01*
X168011904Y-135357142D01*
X167964285Y-135404761D01*
X167869047Y-135452380D01*
X167583333Y-135452380D01*
X167488095Y-135404761D01*
X167440476Y-135357142D01*
X160238095Y-139452380D02*
X160238095Y-140261904D01*
X160285714Y-140357142D01*
X160333333Y-140404761D01*
X160428571Y-140452380D01*
X160619047Y-140452380D01*
X160714285Y-140404761D01*
X160761904Y-140357142D01*
X160809523Y-140261904D01*
X160809523Y-139452380D01*
X161238095Y-139547619D02*
X161285714Y-139500000D01*
X161380952Y-139452380D01*
X161619047Y-139452380D01*
X161714285Y-139500000D01*
X161761904Y-139547619D01*
X161809523Y-139642857D01*
X161809523Y-139738095D01*
X161761904Y-139880952D01*
X161190476Y-140452380D01*
X161809523Y-140452380D01*
X163583333Y-134107142D02*
X163535714Y-134154761D01*
X163392857Y-134202380D01*
X163297619Y-134202380D01*
X163154761Y-134154761D01*
X163059523Y-134059523D01*
X163011904Y-133964285D01*
X162964285Y-133773809D01*
X162964285Y-133630952D01*
X163011904Y-133440476D01*
X163059523Y-133345238D01*
X163154761Y-133250000D01*
X163297619Y-133202380D01*
X163392857Y-133202380D01*
X163535714Y-133250000D01*
X163583333Y-133297619D01*
X164535714Y-134202380D02*
X163964285Y-134202380D01*
X164250000Y-134202380D02*
X164250000Y-133202380D01*
X164154761Y-133345238D01*
X164059523Y-133440476D01*
X163964285Y-133488095D01*
X163333333Y-128952380D02*
X163000000Y-128476190D01*
X162761904Y-128952380D02*
X162761904Y-127952380D01*
X163142857Y-127952380D01*
X163238095Y-128000000D01*
X163285714Y-128047619D01*
X163333333Y-128142857D01*
X163333333Y-128285714D01*
X163285714Y-128380952D01*
X163238095Y-128428571D01*
X163142857Y-128476190D01*
X162761904Y-128476190D01*
X164285714Y-128952380D02*
X163714285Y-128952380D01*
X164000000Y-128952380D02*
X164000000Y-127952380D01*
X163904761Y-128095238D01*
X163809523Y-128190476D01*
X163714285Y-128238095D01*
X155227380Y-140916666D02*
X154751190Y-141250000D01*
X155227380Y-141488095D02*
X154227380Y-141488095D01*
X154227380Y-141107142D01*
X154275000Y-141011904D01*
X154322619Y-140964285D01*
X154417857Y-140916666D01*
X154560714Y-140916666D01*
X154655952Y-140964285D01*
X154703571Y-141011904D01*
X154751190Y-141107142D01*
X154751190Y-141488095D01*
X154322619Y-140535714D02*
X154275000Y-140488095D01*
X154227380Y-140392857D01*
X154227380Y-140154761D01*
X154275000Y-140059523D01*
X154322619Y-140011904D01*
X154417857Y-139964285D01*
X154513095Y-139964285D01*
X154655952Y-140011904D01*
X155227380Y-140583333D01*
X155227380Y-139964285D01*
M02*
