G04 #@! TF.GenerationSoftware,KiCad,Pcbnew,5.1.5*
G04 #@! TF.CreationDate,2020-06-30T22:23:49+09:00*
G04 #@! TF.ProjectId,teabiscuits,74656162-6973-4637-9569-74732e6b6963,rev?*
G04 #@! TF.SameCoordinates,Original*
G04 #@! TF.FileFunction,Copper,L1,Top*
G04 #@! TF.FilePolarity,Positive*
%FSLAX46Y46*%
G04 Gerber Fmt 4.6, Leading zero omitted, Abs format (unit mm)*
G04 Created by KiCad (PCBNEW 5.1.5) date 2020-06-30 22:23:49*
%MOMM*%
%LPD*%
G04 APERTURE LIST*
%ADD10C,0.100000*%
%ADD11R,2.100000X1.100000*%
%ADD12O,1.000000X1.000000*%
%ADD13R,1.000000X1.000000*%
%ADD14C,0.800000*%
%ADD15C,1.110000*%
%ADD16C,0.250000*%
%ADD17C,0.254000*%
G04 APERTURE END LIST*
G04 #@! TA.AperFunction,SMDPad,CuDef*
D10*
G36*
X169500000Y-134000000D02*
G01*
X177000000Y-134000000D01*
X177000000Y-134550000D01*
X172500000Y-134550000D01*
X172500000Y-135480000D01*
X169500000Y-135480000D01*
X169500000Y-134000000D01*
G37*
G04 #@! TD.AperFunction*
G04 #@! TA.AperFunction,SMDPad,CuDef*
G36*
X169500000Y-137120000D02*
G01*
X172500000Y-137120000D01*
X172500000Y-138050000D01*
X177000000Y-138050000D01*
X177000000Y-138600000D01*
X169500000Y-138600000D01*
X169500000Y-137120000D01*
G37*
G04 #@! TD.AperFunction*
D11*
X170550000Y-136300000D03*
D12*
X170785000Y-141500000D03*
X172055000Y-141500000D03*
D13*
X173325000Y-141500000D03*
G04 #@! TA.AperFunction,SMDPad,CuDef*
D10*
G36*
X159500000Y-132860000D02*
G01*
X152000000Y-132860000D01*
X152000000Y-132310000D01*
X156500000Y-132310000D01*
X156500000Y-131380000D01*
X159500000Y-131380000D01*
X159500000Y-132860000D01*
G37*
G04 #@! TD.AperFunction*
G04 #@! TA.AperFunction,SMDPad,CuDef*
G36*
X159500000Y-129740000D02*
G01*
X156500000Y-129740000D01*
X156500000Y-128810000D01*
X152000000Y-128810000D01*
X152000000Y-128260000D01*
X159500000Y-128260000D01*
X159500000Y-129740000D01*
G37*
G04 #@! TD.AperFunction*
D11*
X158450000Y-130560000D03*
G04 #@! TA.AperFunction,SMDPad,CuDef*
D10*
G36*
X169500000Y-128260000D02*
G01*
X177000000Y-128260000D01*
X177000000Y-128810000D01*
X172500000Y-128810000D01*
X172500000Y-129740000D01*
X169500000Y-129740000D01*
X169500000Y-128260000D01*
G37*
G04 #@! TD.AperFunction*
G04 #@! TA.AperFunction,SMDPad,CuDef*
G36*
X169500000Y-131380000D02*
G01*
X172500000Y-131380000D01*
X172500000Y-132310000D01*
X177000000Y-132310000D01*
X177000000Y-132860000D01*
X169500000Y-132860000D01*
X169500000Y-131380000D01*
G37*
G04 #@! TD.AperFunction*
D11*
X170550000Y-130560000D03*
G04 #@! TA.AperFunction,SMDPad,CuDef*
D10*
G36*
X164394703Y-141000722D02*
G01*
X164409264Y-141002882D01*
X164423543Y-141006459D01*
X164437403Y-141011418D01*
X164450710Y-141017712D01*
X164463336Y-141025280D01*
X164475159Y-141034048D01*
X164486066Y-141043934D01*
X164495952Y-141054841D01*
X164504720Y-141066664D01*
X164512288Y-141079290D01*
X164518582Y-141092597D01*
X164523541Y-141106457D01*
X164527118Y-141120736D01*
X164529278Y-141135297D01*
X164530000Y-141150000D01*
X164530000Y-142800000D01*
X164529278Y-142814703D01*
X164527118Y-142829264D01*
X164523541Y-142843543D01*
X164518582Y-142857403D01*
X164512288Y-142870710D01*
X164504720Y-142883336D01*
X164495952Y-142895159D01*
X164486066Y-142906066D01*
X164475159Y-142915952D01*
X164463336Y-142924720D01*
X164450710Y-142932288D01*
X164437403Y-142938582D01*
X164423543Y-142943541D01*
X164409264Y-142947118D01*
X164394703Y-142949278D01*
X164380000Y-142950000D01*
X164080000Y-142950000D01*
X164065297Y-142949278D01*
X164050736Y-142947118D01*
X164036457Y-142943541D01*
X164022597Y-142938582D01*
X164009290Y-142932288D01*
X163996664Y-142924720D01*
X163984841Y-142915952D01*
X163973934Y-142906066D01*
X163964048Y-142895159D01*
X163955280Y-142883336D01*
X163947712Y-142870710D01*
X163941418Y-142857403D01*
X163936459Y-142843543D01*
X163932882Y-142829264D01*
X163930722Y-142814703D01*
X163930000Y-142800000D01*
X163930000Y-141150000D01*
X163930722Y-141135297D01*
X163932882Y-141120736D01*
X163936459Y-141106457D01*
X163941418Y-141092597D01*
X163947712Y-141079290D01*
X163955280Y-141066664D01*
X163964048Y-141054841D01*
X163973934Y-141043934D01*
X163984841Y-141034048D01*
X163996664Y-141025280D01*
X164009290Y-141017712D01*
X164022597Y-141011418D01*
X164036457Y-141006459D01*
X164050736Y-141002882D01*
X164065297Y-141000722D01*
X164080000Y-141000000D01*
X164380000Y-141000000D01*
X164394703Y-141000722D01*
G37*
G04 #@! TD.AperFunction*
G04 #@! TA.AperFunction,SMDPad,CuDef*
G36*
X165664703Y-141000722D02*
G01*
X165679264Y-141002882D01*
X165693543Y-141006459D01*
X165707403Y-141011418D01*
X165720710Y-141017712D01*
X165733336Y-141025280D01*
X165745159Y-141034048D01*
X165756066Y-141043934D01*
X165765952Y-141054841D01*
X165774720Y-141066664D01*
X165782288Y-141079290D01*
X165788582Y-141092597D01*
X165793541Y-141106457D01*
X165797118Y-141120736D01*
X165799278Y-141135297D01*
X165800000Y-141150000D01*
X165800000Y-142800000D01*
X165799278Y-142814703D01*
X165797118Y-142829264D01*
X165793541Y-142843543D01*
X165788582Y-142857403D01*
X165782288Y-142870710D01*
X165774720Y-142883336D01*
X165765952Y-142895159D01*
X165756066Y-142906066D01*
X165745159Y-142915952D01*
X165733336Y-142924720D01*
X165720710Y-142932288D01*
X165707403Y-142938582D01*
X165693543Y-142943541D01*
X165679264Y-142947118D01*
X165664703Y-142949278D01*
X165650000Y-142950000D01*
X165350000Y-142950000D01*
X165335297Y-142949278D01*
X165320736Y-142947118D01*
X165306457Y-142943541D01*
X165292597Y-142938582D01*
X165279290Y-142932288D01*
X165266664Y-142924720D01*
X165254841Y-142915952D01*
X165243934Y-142906066D01*
X165234048Y-142895159D01*
X165225280Y-142883336D01*
X165217712Y-142870710D01*
X165211418Y-142857403D01*
X165206459Y-142843543D01*
X165202882Y-142829264D01*
X165200722Y-142814703D01*
X165200000Y-142800000D01*
X165200000Y-141150000D01*
X165200722Y-141135297D01*
X165202882Y-141120736D01*
X165206459Y-141106457D01*
X165211418Y-141092597D01*
X165217712Y-141079290D01*
X165225280Y-141066664D01*
X165234048Y-141054841D01*
X165243934Y-141043934D01*
X165254841Y-141034048D01*
X165266664Y-141025280D01*
X165279290Y-141017712D01*
X165292597Y-141011418D01*
X165306457Y-141006459D01*
X165320736Y-141002882D01*
X165335297Y-141000722D01*
X165350000Y-141000000D01*
X165650000Y-141000000D01*
X165664703Y-141000722D01*
G37*
G04 #@! TD.AperFunction*
G04 #@! TA.AperFunction,SMDPad,CuDef*
G36*
X166934703Y-141000722D02*
G01*
X166949264Y-141002882D01*
X166963543Y-141006459D01*
X166977403Y-141011418D01*
X166990710Y-141017712D01*
X167003336Y-141025280D01*
X167015159Y-141034048D01*
X167026066Y-141043934D01*
X167035952Y-141054841D01*
X167044720Y-141066664D01*
X167052288Y-141079290D01*
X167058582Y-141092597D01*
X167063541Y-141106457D01*
X167067118Y-141120736D01*
X167069278Y-141135297D01*
X167070000Y-141150000D01*
X167070000Y-142800000D01*
X167069278Y-142814703D01*
X167067118Y-142829264D01*
X167063541Y-142843543D01*
X167058582Y-142857403D01*
X167052288Y-142870710D01*
X167044720Y-142883336D01*
X167035952Y-142895159D01*
X167026066Y-142906066D01*
X167015159Y-142915952D01*
X167003336Y-142924720D01*
X166990710Y-142932288D01*
X166977403Y-142938582D01*
X166963543Y-142943541D01*
X166949264Y-142947118D01*
X166934703Y-142949278D01*
X166920000Y-142950000D01*
X166620000Y-142950000D01*
X166605297Y-142949278D01*
X166590736Y-142947118D01*
X166576457Y-142943541D01*
X166562597Y-142938582D01*
X166549290Y-142932288D01*
X166536664Y-142924720D01*
X166524841Y-142915952D01*
X166513934Y-142906066D01*
X166504048Y-142895159D01*
X166495280Y-142883336D01*
X166487712Y-142870710D01*
X166481418Y-142857403D01*
X166476459Y-142843543D01*
X166472882Y-142829264D01*
X166470722Y-142814703D01*
X166470000Y-142800000D01*
X166470000Y-141150000D01*
X166470722Y-141135297D01*
X166472882Y-141120736D01*
X166476459Y-141106457D01*
X166481418Y-141092597D01*
X166487712Y-141079290D01*
X166495280Y-141066664D01*
X166504048Y-141054841D01*
X166513934Y-141043934D01*
X166524841Y-141034048D01*
X166536664Y-141025280D01*
X166549290Y-141017712D01*
X166562597Y-141011418D01*
X166576457Y-141006459D01*
X166590736Y-141002882D01*
X166605297Y-141000722D01*
X166620000Y-141000000D01*
X166920000Y-141000000D01*
X166934703Y-141000722D01*
G37*
G04 #@! TD.AperFunction*
G04 #@! TA.AperFunction,SMDPad,CuDef*
G36*
X168204703Y-141000722D02*
G01*
X168219264Y-141002882D01*
X168233543Y-141006459D01*
X168247403Y-141011418D01*
X168260710Y-141017712D01*
X168273336Y-141025280D01*
X168285159Y-141034048D01*
X168296066Y-141043934D01*
X168305952Y-141054841D01*
X168314720Y-141066664D01*
X168322288Y-141079290D01*
X168328582Y-141092597D01*
X168333541Y-141106457D01*
X168337118Y-141120736D01*
X168339278Y-141135297D01*
X168340000Y-141150000D01*
X168340000Y-142800000D01*
X168339278Y-142814703D01*
X168337118Y-142829264D01*
X168333541Y-142843543D01*
X168328582Y-142857403D01*
X168322288Y-142870710D01*
X168314720Y-142883336D01*
X168305952Y-142895159D01*
X168296066Y-142906066D01*
X168285159Y-142915952D01*
X168273336Y-142924720D01*
X168260710Y-142932288D01*
X168247403Y-142938582D01*
X168233543Y-142943541D01*
X168219264Y-142947118D01*
X168204703Y-142949278D01*
X168190000Y-142950000D01*
X167890000Y-142950000D01*
X167875297Y-142949278D01*
X167860736Y-142947118D01*
X167846457Y-142943541D01*
X167832597Y-142938582D01*
X167819290Y-142932288D01*
X167806664Y-142924720D01*
X167794841Y-142915952D01*
X167783934Y-142906066D01*
X167774048Y-142895159D01*
X167765280Y-142883336D01*
X167757712Y-142870710D01*
X167751418Y-142857403D01*
X167746459Y-142843543D01*
X167742882Y-142829264D01*
X167740722Y-142814703D01*
X167740000Y-142800000D01*
X167740000Y-141150000D01*
X167740722Y-141135297D01*
X167742882Y-141120736D01*
X167746459Y-141106457D01*
X167751418Y-141092597D01*
X167757712Y-141079290D01*
X167765280Y-141066664D01*
X167774048Y-141054841D01*
X167783934Y-141043934D01*
X167794841Y-141034048D01*
X167806664Y-141025280D01*
X167819290Y-141017712D01*
X167832597Y-141011418D01*
X167846457Y-141006459D01*
X167860736Y-141002882D01*
X167875297Y-141000722D01*
X167890000Y-141000000D01*
X168190000Y-141000000D01*
X168204703Y-141000722D01*
G37*
G04 #@! TD.AperFunction*
G04 #@! TA.AperFunction,SMDPad,CuDef*
G36*
X168204703Y-136050722D02*
G01*
X168219264Y-136052882D01*
X168233543Y-136056459D01*
X168247403Y-136061418D01*
X168260710Y-136067712D01*
X168273336Y-136075280D01*
X168285159Y-136084048D01*
X168296066Y-136093934D01*
X168305952Y-136104841D01*
X168314720Y-136116664D01*
X168322288Y-136129290D01*
X168328582Y-136142597D01*
X168333541Y-136156457D01*
X168337118Y-136170736D01*
X168339278Y-136185297D01*
X168340000Y-136200000D01*
X168340000Y-137850000D01*
X168339278Y-137864703D01*
X168337118Y-137879264D01*
X168333541Y-137893543D01*
X168328582Y-137907403D01*
X168322288Y-137920710D01*
X168314720Y-137933336D01*
X168305952Y-137945159D01*
X168296066Y-137956066D01*
X168285159Y-137965952D01*
X168273336Y-137974720D01*
X168260710Y-137982288D01*
X168247403Y-137988582D01*
X168233543Y-137993541D01*
X168219264Y-137997118D01*
X168204703Y-137999278D01*
X168190000Y-138000000D01*
X167890000Y-138000000D01*
X167875297Y-137999278D01*
X167860736Y-137997118D01*
X167846457Y-137993541D01*
X167832597Y-137988582D01*
X167819290Y-137982288D01*
X167806664Y-137974720D01*
X167794841Y-137965952D01*
X167783934Y-137956066D01*
X167774048Y-137945159D01*
X167765280Y-137933336D01*
X167757712Y-137920710D01*
X167751418Y-137907403D01*
X167746459Y-137893543D01*
X167742882Y-137879264D01*
X167740722Y-137864703D01*
X167740000Y-137850000D01*
X167740000Y-136200000D01*
X167740722Y-136185297D01*
X167742882Y-136170736D01*
X167746459Y-136156457D01*
X167751418Y-136142597D01*
X167757712Y-136129290D01*
X167765280Y-136116664D01*
X167774048Y-136104841D01*
X167783934Y-136093934D01*
X167794841Y-136084048D01*
X167806664Y-136075280D01*
X167819290Y-136067712D01*
X167832597Y-136061418D01*
X167846457Y-136056459D01*
X167860736Y-136052882D01*
X167875297Y-136050722D01*
X167890000Y-136050000D01*
X168190000Y-136050000D01*
X168204703Y-136050722D01*
G37*
G04 #@! TD.AperFunction*
G04 #@! TA.AperFunction,SMDPad,CuDef*
G36*
X166934703Y-136050722D02*
G01*
X166949264Y-136052882D01*
X166963543Y-136056459D01*
X166977403Y-136061418D01*
X166990710Y-136067712D01*
X167003336Y-136075280D01*
X167015159Y-136084048D01*
X167026066Y-136093934D01*
X167035952Y-136104841D01*
X167044720Y-136116664D01*
X167052288Y-136129290D01*
X167058582Y-136142597D01*
X167063541Y-136156457D01*
X167067118Y-136170736D01*
X167069278Y-136185297D01*
X167070000Y-136200000D01*
X167070000Y-137850000D01*
X167069278Y-137864703D01*
X167067118Y-137879264D01*
X167063541Y-137893543D01*
X167058582Y-137907403D01*
X167052288Y-137920710D01*
X167044720Y-137933336D01*
X167035952Y-137945159D01*
X167026066Y-137956066D01*
X167015159Y-137965952D01*
X167003336Y-137974720D01*
X166990710Y-137982288D01*
X166977403Y-137988582D01*
X166963543Y-137993541D01*
X166949264Y-137997118D01*
X166934703Y-137999278D01*
X166920000Y-138000000D01*
X166620000Y-138000000D01*
X166605297Y-137999278D01*
X166590736Y-137997118D01*
X166576457Y-137993541D01*
X166562597Y-137988582D01*
X166549290Y-137982288D01*
X166536664Y-137974720D01*
X166524841Y-137965952D01*
X166513934Y-137956066D01*
X166504048Y-137945159D01*
X166495280Y-137933336D01*
X166487712Y-137920710D01*
X166481418Y-137907403D01*
X166476459Y-137893543D01*
X166472882Y-137879264D01*
X166470722Y-137864703D01*
X166470000Y-137850000D01*
X166470000Y-136200000D01*
X166470722Y-136185297D01*
X166472882Y-136170736D01*
X166476459Y-136156457D01*
X166481418Y-136142597D01*
X166487712Y-136129290D01*
X166495280Y-136116664D01*
X166504048Y-136104841D01*
X166513934Y-136093934D01*
X166524841Y-136084048D01*
X166536664Y-136075280D01*
X166549290Y-136067712D01*
X166562597Y-136061418D01*
X166576457Y-136056459D01*
X166590736Y-136052882D01*
X166605297Y-136050722D01*
X166620000Y-136050000D01*
X166920000Y-136050000D01*
X166934703Y-136050722D01*
G37*
G04 #@! TD.AperFunction*
G04 #@! TA.AperFunction,SMDPad,CuDef*
G36*
X165664703Y-136050722D02*
G01*
X165679264Y-136052882D01*
X165693543Y-136056459D01*
X165707403Y-136061418D01*
X165720710Y-136067712D01*
X165733336Y-136075280D01*
X165745159Y-136084048D01*
X165756066Y-136093934D01*
X165765952Y-136104841D01*
X165774720Y-136116664D01*
X165782288Y-136129290D01*
X165788582Y-136142597D01*
X165793541Y-136156457D01*
X165797118Y-136170736D01*
X165799278Y-136185297D01*
X165800000Y-136200000D01*
X165800000Y-137850000D01*
X165799278Y-137864703D01*
X165797118Y-137879264D01*
X165793541Y-137893543D01*
X165788582Y-137907403D01*
X165782288Y-137920710D01*
X165774720Y-137933336D01*
X165765952Y-137945159D01*
X165756066Y-137956066D01*
X165745159Y-137965952D01*
X165733336Y-137974720D01*
X165720710Y-137982288D01*
X165707403Y-137988582D01*
X165693543Y-137993541D01*
X165679264Y-137997118D01*
X165664703Y-137999278D01*
X165650000Y-138000000D01*
X165350000Y-138000000D01*
X165335297Y-137999278D01*
X165320736Y-137997118D01*
X165306457Y-137993541D01*
X165292597Y-137988582D01*
X165279290Y-137982288D01*
X165266664Y-137974720D01*
X165254841Y-137965952D01*
X165243934Y-137956066D01*
X165234048Y-137945159D01*
X165225280Y-137933336D01*
X165217712Y-137920710D01*
X165211418Y-137907403D01*
X165206459Y-137893543D01*
X165202882Y-137879264D01*
X165200722Y-137864703D01*
X165200000Y-137850000D01*
X165200000Y-136200000D01*
X165200722Y-136185297D01*
X165202882Y-136170736D01*
X165206459Y-136156457D01*
X165211418Y-136142597D01*
X165217712Y-136129290D01*
X165225280Y-136116664D01*
X165234048Y-136104841D01*
X165243934Y-136093934D01*
X165254841Y-136084048D01*
X165266664Y-136075280D01*
X165279290Y-136067712D01*
X165292597Y-136061418D01*
X165306457Y-136056459D01*
X165320736Y-136052882D01*
X165335297Y-136050722D01*
X165350000Y-136050000D01*
X165650000Y-136050000D01*
X165664703Y-136050722D01*
G37*
G04 #@! TD.AperFunction*
G04 #@! TA.AperFunction,SMDPad,CuDef*
G36*
X164394703Y-136050722D02*
G01*
X164409264Y-136052882D01*
X164423543Y-136056459D01*
X164437403Y-136061418D01*
X164450710Y-136067712D01*
X164463336Y-136075280D01*
X164475159Y-136084048D01*
X164486066Y-136093934D01*
X164495952Y-136104841D01*
X164504720Y-136116664D01*
X164512288Y-136129290D01*
X164518582Y-136142597D01*
X164523541Y-136156457D01*
X164527118Y-136170736D01*
X164529278Y-136185297D01*
X164530000Y-136200000D01*
X164530000Y-137850000D01*
X164529278Y-137864703D01*
X164527118Y-137879264D01*
X164523541Y-137893543D01*
X164518582Y-137907403D01*
X164512288Y-137920710D01*
X164504720Y-137933336D01*
X164495952Y-137945159D01*
X164486066Y-137956066D01*
X164475159Y-137965952D01*
X164463336Y-137974720D01*
X164450710Y-137982288D01*
X164437403Y-137988582D01*
X164423543Y-137993541D01*
X164409264Y-137997118D01*
X164394703Y-137999278D01*
X164380000Y-138000000D01*
X164080000Y-138000000D01*
X164065297Y-137999278D01*
X164050736Y-137997118D01*
X164036457Y-137993541D01*
X164022597Y-137988582D01*
X164009290Y-137982288D01*
X163996664Y-137974720D01*
X163984841Y-137965952D01*
X163973934Y-137956066D01*
X163964048Y-137945159D01*
X163955280Y-137933336D01*
X163947712Y-137920710D01*
X163941418Y-137907403D01*
X163936459Y-137893543D01*
X163932882Y-137879264D01*
X163930722Y-137864703D01*
X163930000Y-137850000D01*
X163930000Y-136200000D01*
X163930722Y-136185297D01*
X163932882Y-136170736D01*
X163936459Y-136156457D01*
X163941418Y-136142597D01*
X163947712Y-136129290D01*
X163955280Y-136116664D01*
X163964048Y-136104841D01*
X163973934Y-136093934D01*
X163984841Y-136084048D01*
X163996664Y-136075280D01*
X164009290Y-136067712D01*
X164022597Y-136061418D01*
X164036457Y-136056459D01*
X164050736Y-136052882D01*
X164065297Y-136050722D01*
X164080000Y-136050000D01*
X164380000Y-136050000D01*
X164394703Y-136050722D01*
G37*
G04 #@! TD.AperFunction*
G04 #@! TA.AperFunction,SMDPad,CuDef*
G36*
X162064703Y-134295722D02*
G01*
X162079264Y-134297882D01*
X162093543Y-134301459D01*
X162107403Y-134306418D01*
X162120710Y-134312712D01*
X162133336Y-134320280D01*
X162145159Y-134329048D01*
X162156066Y-134338934D01*
X162165952Y-134349841D01*
X162174720Y-134361664D01*
X162182288Y-134374290D01*
X162188582Y-134387597D01*
X162193541Y-134401457D01*
X162197118Y-134415736D01*
X162199278Y-134430297D01*
X162200000Y-134445000D01*
X162200000Y-134745000D01*
X162199278Y-134759703D01*
X162197118Y-134774264D01*
X162193541Y-134788543D01*
X162188582Y-134802403D01*
X162182288Y-134815710D01*
X162174720Y-134828336D01*
X162165952Y-134840159D01*
X162156066Y-134851066D01*
X162145159Y-134860952D01*
X162133336Y-134869720D01*
X162120710Y-134877288D01*
X162107403Y-134883582D01*
X162093543Y-134888541D01*
X162079264Y-134892118D01*
X162064703Y-134894278D01*
X162050000Y-134895000D01*
X160400000Y-134895000D01*
X160385297Y-134894278D01*
X160370736Y-134892118D01*
X160356457Y-134888541D01*
X160342597Y-134883582D01*
X160329290Y-134877288D01*
X160316664Y-134869720D01*
X160304841Y-134860952D01*
X160293934Y-134851066D01*
X160284048Y-134840159D01*
X160275280Y-134828336D01*
X160267712Y-134815710D01*
X160261418Y-134802403D01*
X160256459Y-134788543D01*
X160252882Y-134774264D01*
X160250722Y-134759703D01*
X160250000Y-134745000D01*
X160250000Y-134445000D01*
X160250722Y-134430297D01*
X160252882Y-134415736D01*
X160256459Y-134401457D01*
X160261418Y-134387597D01*
X160267712Y-134374290D01*
X160275280Y-134361664D01*
X160284048Y-134349841D01*
X160293934Y-134338934D01*
X160304841Y-134329048D01*
X160316664Y-134320280D01*
X160329290Y-134312712D01*
X160342597Y-134306418D01*
X160356457Y-134301459D01*
X160370736Y-134297882D01*
X160385297Y-134295722D01*
X160400000Y-134295000D01*
X162050000Y-134295000D01*
X162064703Y-134295722D01*
G37*
G04 #@! TD.AperFunction*
G04 #@! TA.AperFunction,SMDPad,CuDef*
G36*
X162064703Y-135565722D02*
G01*
X162079264Y-135567882D01*
X162093543Y-135571459D01*
X162107403Y-135576418D01*
X162120710Y-135582712D01*
X162133336Y-135590280D01*
X162145159Y-135599048D01*
X162156066Y-135608934D01*
X162165952Y-135619841D01*
X162174720Y-135631664D01*
X162182288Y-135644290D01*
X162188582Y-135657597D01*
X162193541Y-135671457D01*
X162197118Y-135685736D01*
X162199278Y-135700297D01*
X162200000Y-135715000D01*
X162200000Y-136015000D01*
X162199278Y-136029703D01*
X162197118Y-136044264D01*
X162193541Y-136058543D01*
X162188582Y-136072403D01*
X162182288Y-136085710D01*
X162174720Y-136098336D01*
X162165952Y-136110159D01*
X162156066Y-136121066D01*
X162145159Y-136130952D01*
X162133336Y-136139720D01*
X162120710Y-136147288D01*
X162107403Y-136153582D01*
X162093543Y-136158541D01*
X162079264Y-136162118D01*
X162064703Y-136164278D01*
X162050000Y-136165000D01*
X160400000Y-136165000D01*
X160385297Y-136164278D01*
X160370736Y-136162118D01*
X160356457Y-136158541D01*
X160342597Y-136153582D01*
X160329290Y-136147288D01*
X160316664Y-136139720D01*
X160304841Y-136130952D01*
X160293934Y-136121066D01*
X160284048Y-136110159D01*
X160275280Y-136098336D01*
X160267712Y-136085710D01*
X160261418Y-136072403D01*
X160256459Y-136058543D01*
X160252882Y-136044264D01*
X160250722Y-136029703D01*
X160250000Y-136015000D01*
X160250000Y-135715000D01*
X160250722Y-135700297D01*
X160252882Y-135685736D01*
X160256459Y-135671457D01*
X160261418Y-135657597D01*
X160267712Y-135644290D01*
X160275280Y-135631664D01*
X160284048Y-135619841D01*
X160293934Y-135608934D01*
X160304841Y-135599048D01*
X160316664Y-135590280D01*
X160329290Y-135582712D01*
X160342597Y-135576418D01*
X160356457Y-135571459D01*
X160370736Y-135567882D01*
X160385297Y-135565722D01*
X160400000Y-135565000D01*
X162050000Y-135565000D01*
X162064703Y-135565722D01*
G37*
G04 #@! TD.AperFunction*
G04 #@! TA.AperFunction,SMDPad,CuDef*
G36*
X162064703Y-136835722D02*
G01*
X162079264Y-136837882D01*
X162093543Y-136841459D01*
X162107403Y-136846418D01*
X162120710Y-136852712D01*
X162133336Y-136860280D01*
X162145159Y-136869048D01*
X162156066Y-136878934D01*
X162165952Y-136889841D01*
X162174720Y-136901664D01*
X162182288Y-136914290D01*
X162188582Y-136927597D01*
X162193541Y-136941457D01*
X162197118Y-136955736D01*
X162199278Y-136970297D01*
X162200000Y-136985000D01*
X162200000Y-137285000D01*
X162199278Y-137299703D01*
X162197118Y-137314264D01*
X162193541Y-137328543D01*
X162188582Y-137342403D01*
X162182288Y-137355710D01*
X162174720Y-137368336D01*
X162165952Y-137380159D01*
X162156066Y-137391066D01*
X162145159Y-137400952D01*
X162133336Y-137409720D01*
X162120710Y-137417288D01*
X162107403Y-137423582D01*
X162093543Y-137428541D01*
X162079264Y-137432118D01*
X162064703Y-137434278D01*
X162050000Y-137435000D01*
X160400000Y-137435000D01*
X160385297Y-137434278D01*
X160370736Y-137432118D01*
X160356457Y-137428541D01*
X160342597Y-137423582D01*
X160329290Y-137417288D01*
X160316664Y-137409720D01*
X160304841Y-137400952D01*
X160293934Y-137391066D01*
X160284048Y-137380159D01*
X160275280Y-137368336D01*
X160267712Y-137355710D01*
X160261418Y-137342403D01*
X160256459Y-137328543D01*
X160252882Y-137314264D01*
X160250722Y-137299703D01*
X160250000Y-137285000D01*
X160250000Y-136985000D01*
X160250722Y-136970297D01*
X160252882Y-136955736D01*
X160256459Y-136941457D01*
X160261418Y-136927597D01*
X160267712Y-136914290D01*
X160275280Y-136901664D01*
X160284048Y-136889841D01*
X160293934Y-136878934D01*
X160304841Y-136869048D01*
X160316664Y-136860280D01*
X160329290Y-136852712D01*
X160342597Y-136846418D01*
X160356457Y-136841459D01*
X160370736Y-136837882D01*
X160385297Y-136835722D01*
X160400000Y-136835000D01*
X162050000Y-136835000D01*
X162064703Y-136835722D01*
G37*
G04 #@! TD.AperFunction*
G04 #@! TA.AperFunction,SMDPad,CuDef*
G36*
X162064703Y-138105722D02*
G01*
X162079264Y-138107882D01*
X162093543Y-138111459D01*
X162107403Y-138116418D01*
X162120710Y-138122712D01*
X162133336Y-138130280D01*
X162145159Y-138139048D01*
X162156066Y-138148934D01*
X162165952Y-138159841D01*
X162174720Y-138171664D01*
X162182288Y-138184290D01*
X162188582Y-138197597D01*
X162193541Y-138211457D01*
X162197118Y-138225736D01*
X162199278Y-138240297D01*
X162200000Y-138255000D01*
X162200000Y-138555000D01*
X162199278Y-138569703D01*
X162197118Y-138584264D01*
X162193541Y-138598543D01*
X162188582Y-138612403D01*
X162182288Y-138625710D01*
X162174720Y-138638336D01*
X162165952Y-138650159D01*
X162156066Y-138661066D01*
X162145159Y-138670952D01*
X162133336Y-138679720D01*
X162120710Y-138687288D01*
X162107403Y-138693582D01*
X162093543Y-138698541D01*
X162079264Y-138702118D01*
X162064703Y-138704278D01*
X162050000Y-138705000D01*
X160400000Y-138705000D01*
X160385297Y-138704278D01*
X160370736Y-138702118D01*
X160356457Y-138698541D01*
X160342597Y-138693582D01*
X160329290Y-138687288D01*
X160316664Y-138679720D01*
X160304841Y-138670952D01*
X160293934Y-138661066D01*
X160284048Y-138650159D01*
X160275280Y-138638336D01*
X160267712Y-138625710D01*
X160261418Y-138612403D01*
X160256459Y-138598543D01*
X160252882Y-138584264D01*
X160250722Y-138569703D01*
X160250000Y-138555000D01*
X160250000Y-138255000D01*
X160250722Y-138240297D01*
X160252882Y-138225736D01*
X160256459Y-138211457D01*
X160261418Y-138197597D01*
X160267712Y-138184290D01*
X160275280Y-138171664D01*
X160284048Y-138159841D01*
X160293934Y-138148934D01*
X160304841Y-138139048D01*
X160316664Y-138130280D01*
X160329290Y-138122712D01*
X160342597Y-138116418D01*
X160356457Y-138111459D01*
X160370736Y-138107882D01*
X160385297Y-138105722D01*
X160400000Y-138105000D01*
X162050000Y-138105000D01*
X162064703Y-138105722D01*
G37*
G04 #@! TD.AperFunction*
G04 #@! TA.AperFunction,SMDPad,CuDef*
G36*
X157114703Y-138105722D02*
G01*
X157129264Y-138107882D01*
X157143543Y-138111459D01*
X157157403Y-138116418D01*
X157170710Y-138122712D01*
X157183336Y-138130280D01*
X157195159Y-138139048D01*
X157206066Y-138148934D01*
X157215952Y-138159841D01*
X157224720Y-138171664D01*
X157232288Y-138184290D01*
X157238582Y-138197597D01*
X157243541Y-138211457D01*
X157247118Y-138225736D01*
X157249278Y-138240297D01*
X157250000Y-138255000D01*
X157250000Y-138555000D01*
X157249278Y-138569703D01*
X157247118Y-138584264D01*
X157243541Y-138598543D01*
X157238582Y-138612403D01*
X157232288Y-138625710D01*
X157224720Y-138638336D01*
X157215952Y-138650159D01*
X157206066Y-138661066D01*
X157195159Y-138670952D01*
X157183336Y-138679720D01*
X157170710Y-138687288D01*
X157157403Y-138693582D01*
X157143543Y-138698541D01*
X157129264Y-138702118D01*
X157114703Y-138704278D01*
X157100000Y-138705000D01*
X155450000Y-138705000D01*
X155435297Y-138704278D01*
X155420736Y-138702118D01*
X155406457Y-138698541D01*
X155392597Y-138693582D01*
X155379290Y-138687288D01*
X155366664Y-138679720D01*
X155354841Y-138670952D01*
X155343934Y-138661066D01*
X155334048Y-138650159D01*
X155325280Y-138638336D01*
X155317712Y-138625710D01*
X155311418Y-138612403D01*
X155306459Y-138598543D01*
X155302882Y-138584264D01*
X155300722Y-138569703D01*
X155300000Y-138555000D01*
X155300000Y-138255000D01*
X155300722Y-138240297D01*
X155302882Y-138225736D01*
X155306459Y-138211457D01*
X155311418Y-138197597D01*
X155317712Y-138184290D01*
X155325280Y-138171664D01*
X155334048Y-138159841D01*
X155343934Y-138148934D01*
X155354841Y-138139048D01*
X155366664Y-138130280D01*
X155379290Y-138122712D01*
X155392597Y-138116418D01*
X155406457Y-138111459D01*
X155420736Y-138107882D01*
X155435297Y-138105722D01*
X155450000Y-138105000D01*
X157100000Y-138105000D01*
X157114703Y-138105722D01*
G37*
G04 #@! TD.AperFunction*
G04 #@! TA.AperFunction,SMDPad,CuDef*
G36*
X157114703Y-136835722D02*
G01*
X157129264Y-136837882D01*
X157143543Y-136841459D01*
X157157403Y-136846418D01*
X157170710Y-136852712D01*
X157183336Y-136860280D01*
X157195159Y-136869048D01*
X157206066Y-136878934D01*
X157215952Y-136889841D01*
X157224720Y-136901664D01*
X157232288Y-136914290D01*
X157238582Y-136927597D01*
X157243541Y-136941457D01*
X157247118Y-136955736D01*
X157249278Y-136970297D01*
X157250000Y-136985000D01*
X157250000Y-137285000D01*
X157249278Y-137299703D01*
X157247118Y-137314264D01*
X157243541Y-137328543D01*
X157238582Y-137342403D01*
X157232288Y-137355710D01*
X157224720Y-137368336D01*
X157215952Y-137380159D01*
X157206066Y-137391066D01*
X157195159Y-137400952D01*
X157183336Y-137409720D01*
X157170710Y-137417288D01*
X157157403Y-137423582D01*
X157143543Y-137428541D01*
X157129264Y-137432118D01*
X157114703Y-137434278D01*
X157100000Y-137435000D01*
X155450000Y-137435000D01*
X155435297Y-137434278D01*
X155420736Y-137432118D01*
X155406457Y-137428541D01*
X155392597Y-137423582D01*
X155379290Y-137417288D01*
X155366664Y-137409720D01*
X155354841Y-137400952D01*
X155343934Y-137391066D01*
X155334048Y-137380159D01*
X155325280Y-137368336D01*
X155317712Y-137355710D01*
X155311418Y-137342403D01*
X155306459Y-137328543D01*
X155302882Y-137314264D01*
X155300722Y-137299703D01*
X155300000Y-137285000D01*
X155300000Y-136985000D01*
X155300722Y-136970297D01*
X155302882Y-136955736D01*
X155306459Y-136941457D01*
X155311418Y-136927597D01*
X155317712Y-136914290D01*
X155325280Y-136901664D01*
X155334048Y-136889841D01*
X155343934Y-136878934D01*
X155354841Y-136869048D01*
X155366664Y-136860280D01*
X155379290Y-136852712D01*
X155392597Y-136846418D01*
X155406457Y-136841459D01*
X155420736Y-136837882D01*
X155435297Y-136835722D01*
X155450000Y-136835000D01*
X157100000Y-136835000D01*
X157114703Y-136835722D01*
G37*
G04 #@! TD.AperFunction*
G04 #@! TA.AperFunction,SMDPad,CuDef*
G36*
X157114703Y-135565722D02*
G01*
X157129264Y-135567882D01*
X157143543Y-135571459D01*
X157157403Y-135576418D01*
X157170710Y-135582712D01*
X157183336Y-135590280D01*
X157195159Y-135599048D01*
X157206066Y-135608934D01*
X157215952Y-135619841D01*
X157224720Y-135631664D01*
X157232288Y-135644290D01*
X157238582Y-135657597D01*
X157243541Y-135671457D01*
X157247118Y-135685736D01*
X157249278Y-135700297D01*
X157250000Y-135715000D01*
X157250000Y-136015000D01*
X157249278Y-136029703D01*
X157247118Y-136044264D01*
X157243541Y-136058543D01*
X157238582Y-136072403D01*
X157232288Y-136085710D01*
X157224720Y-136098336D01*
X157215952Y-136110159D01*
X157206066Y-136121066D01*
X157195159Y-136130952D01*
X157183336Y-136139720D01*
X157170710Y-136147288D01*
X157157403Y-136153582D01*
X157143543Y-136158541D01*
X157129264Y-136162118D01*
X157114703Y-136164278D01*
X157100000Y-136165000D01*
X155450000Y-136165000D01*
X155435297Y-136164278D01*
X155420736Y-136162118D01*
X155406457Y-136158541D01*
X155392597Y-136153582D01*
X155379290Y-136147288D01*
X155366664Y-136139720D01*
X155354841Y-136130952D01*
X155343934Y-136121066D01*
X155334048Y-136110159D01*
X155325280Y-136098336D01*
X155317712Y-136085710D01*
X155311418Y-136072403D01*
X155306459Y-136058543D01*
X155302882Y-136044264D01*
X155300722Y-136029703D01*
X155300000Y-136015000D01*
X155300000Y-135715000D01*
X155300722Y-135700297D01*
X155302882Y-135685736D01*
X155306459Y-135671457D01*
X155311418Y-135657597D01*
X155317712Y-135644290D01*
X155325280Y-135631664D01*
X155334048Y-135619841D01*
X155343934Y-135608934D01*
X155354841Y-135599048D01*
X155366664Y-135590280D01*
X155379290Y-135582712D01*
X155392597Y-135576418D01*
X155406457Y-135571459D01*
X155420736Y-135567882D01*
X155435297Y-135565722D01*
X155450000Y-135565000D01*
X157100000Y-135565000D01*
X157114703Y-135565722D01*
G37*
G04 #@! TD.AperFunction*
G04 #@! TA.AperFunction,SMDPad,CuDef*
G36*
X157114703Y-134295722D02*
G01*
X157129264Y-134297882D01*
X157143543Y-134301459D01*
X157157403Y-134306418D01*
X157170710Y-134312712D01*
X157183336Y-134320280D01*
X157195159Y-134329048D01*
X157206066Y-134338934D01*
X157215952Y-134349841D01*
X157224720Y-134361664D01*
X157232288Y-134374290D01*
X157238582Y-134387597D01*
X157243541Y-134401457D01*
X157247118Y-134415736D01*
X157249278Y-134430297D01*
X157250000Y-134445000D01*
X157250000Y-134745000D01*
X157249278Y-134759703D01*
X157247118Y-134774264D01*
X157243541Y-134788543D01*
X157238582Y-134802403D01*
X157232288Y-134815710D01*
X157224720Y-134828336D01*
X157215952Y-134840159D01*
X157206066Y-134851066D01*
X157195159Y-134860952D01*
X157183336Y-134869720D01*
X157170710Y-134877288D01*
X157157403Y-134883582D01*
X157143543Y-134888541D01*
X157129264Y-134892118D01*
X157114703Y-134894278D01*
X157100000Y-134895000D01*
X155450000Y-134895000D01*
X155435297Y-134894278D01*
X155420736Y-134892118D01*
X155406457Y-134888541D01*
X155392597Y-134883582D01*
X155379290Y-134877288D01*
X155366664Y-134869720D01*
X155354841Y-134860952D01*
X155343934Y-134851066D01*
X155334048Y-134840159D01*
X155325280Y-134828336D01*
X155317712Y-134815710D01*
X155311418Y-134802403D01*
X155306459Y-134788543D01*
X155302882Y-134774264D01*
X155300722Y-134759703D01*
X155300000Y-134745000D01*
X155300000Y-134445000D01*
X155300722Y-134430297D01*
X155302882Y-134415736D01*
X155306459Y-134401457D01*
X155311418Y-134387597D01*
X155317712Y-134374290D01*
X155325280Y-134361664D01*
X155334048Y-134349841D01*
X155343934Y-134338934D01*
X155354841Y-134329048D01*
X155366664Y-134320280D01*
X155379290Y-134312712D01*
X155392597Y-134306418D01*
X155406457Y-134301459D01*
X155420736Y-134297882D01*
X155435297Y-134295722D01*
X155450000Y-134295000D01*
X157100000Y-134295000D01*
X157114703Y-134295722D01*
G37*
G04 #@! TD.AperFunction*
G04 #@! TA.AperFunction,SMDPad,CuDef*
G36*
X163980142Y-131638674D02*
G01*
X164003803Y-131642184D01*
X164027007Y-131647996D01*
X164049529Y-131656054D01*
X164071153Y-131666282D01*
X164091670Y-131678579D01*
X164110883Y-131692829D01*
X164128607Y-131708893D01*
X164144671Y-131726617D01*
X164158921Y-131745830D01*
X164171218Y-131766347D01*
X164181446Y-131787971D01*
X164189504Y-131810493D01*
X164195316Y-131833697D01*
X164198826Y-131857358D01*
X164200000Y-131881250D01*
X164200000Y-132368750D01*
X164198826Y-132392642D01*
X164195316Y-132416303D01*
X164189504Y-132439507D01*
X164181446Y-132462029D01*
X164171218Y-132483653D01*
X164158921Y-132504170D01*
X164144671Y-132523383D01*
X164128607Y-132541107D01*
X164110883Y-132557171D01*
X164091670Y-132571421D01*
X164071153Y-132583718D01*
X164049529Y-132593946D01*
X164027007Y-132602004D01*
X164003803Y-132607816D01*
X163980142Y-132611326D01*
X163956250Y-132612500D01*
X163043750Y-132612500D01*
X163019858Y-132611326D01*
X162996197Y-132607816D01*
X162972993Y-132602004D01*
X162950471Y-132593946D01*
X162928847Y-132583718D01*
X162908330Y-132571421D01*
X162889117Y-132557171D01*
X162871393Y-132541107D01*
X162855329Y-132523383D01*
X162841079Y-132504170D01*
X162828782Y-132483653D01*
X162818554Y-132462029D01*
X162810496Y-132439507D01*
X162804684Y-132416303D01*
X162801174Y-132392642D01*
X162800000Y-132368750D01*
X162800000Y-131881250D01*
X162801174Y-131857358D01*
X162804684Y-131833697D01*
X162810496Y-131810493D01*
X162818554Y-131787971D01*
X162828782Y-131766347D01*
X162841079Y-131745830D01*
X162855329Y-131726617D01*
X162871393Y-131708893D01*
X162889117Y-131692829D01*
X162908330Y-131678579D01*
X162928847Y-131666282D01*
X162950471Y-131656054D01*
X162972993Y-131647996D01*
X162996197Y-131642184D01*
X163019858Y-131638674D01*
X163043750Y-131637500D01*
X163956250Y-131637500D01*
X163980142Y-131638674D01*
G37*
G04 #@! TD.AperFunction*
G04 #@! TA.AperFunction,SMDPad,CuDef*
G36*
X163980142Y-129763674D02*
G01*
X164003803Y-129767184D01*
X164027007Y-129772996D01*
X164049529Y-129781054D01*
X164071153Y-129791282D01*
X164091670Y-129803579D01*
X164110883Y-129817829D01*
X164128607Y-129833893D01*
X164144671Y-129851617D01*
X164158921Y-129870830D01*
X164171218Y-129891347D01*
X164181446Y-129912971D01*
X164189504Y-129935493D01*
X164195316Y-129958697D01*
X164198826Y-129982358D01*
X164200000Y-130006250D01*
X164200000Y-130493750D01*
X164198826Y-130517642D01*
X164195316Y-130541303D01*
X164189504Y-130564507D01*
X164181446Y-130587029D01*
X164171218Y-130608653D01*
X164158921Y-130629170D01*
X164144671Y-130648383D01*
X164128607Y-130666107D01*
X164110883Y-130682171D01*
X164091670Y-130696421D01*
X164071153Y-130708718D01*
X164049529Y-130718946D01*
X164027007Y-130727004D01*
X164003803Y-130732816D01*
X163980142Y-130736326D01*
X163956250Y-130737500D01*
X163043750Y-130737500D01*
X163019858Y-130736326D01*
X162996197Y-130732816D01*
X162972993Y-130727004D01*
X162950471Y-130718946D01*
X162928847Y-130708718D01*
X162908330Y-130696421D01*
X162889117Y-130682171D01*
X162871393Y-130666107D01*
X162855329Y-130648383D01*
X162841079Y-130629170D01*
X162828782Y-130608653D01*
X162818554Y-130587029D01*
X162810496Y-130564507D01*
X162804684Y-130541303D01*
X162801174Y-130517642D01*
X162800000Y-130493750D01*
X162800000Y-130006250D01*
X162801174Y-129982358D01*
X162804684Y-129958697D01*
X162810496Y-129935493D01*
X162818554Y-129912971D01*
X162828782Y-129891347D01*
X162841079Y-129870830D01*
X162855329Y-129851617D01*
X162871393Y-129833893D01*
X162889117Y-129817829D01*
X162908330Y-129803579D01*
X162928847Y-129791282D01*
X162950471Y-129781054D01*
X162972993Y-129772996D01*
X162996197Y-129767184D01*
X163019858Y-129763674D01*
X163043750Y-129762500D01*
X163956250Y-129762500D01*
X163980142Y-129763674D01*
G37*
G04 #@! TD.AperFunction*
G04 #@! TA.AperFunction,SMDPad,CuDef*
G36*
X161899504Y-128626204D02*
G01*
X161923773Y-128629804D01*
X161947571Y-128635765D01*
X161970671Y-128644030D01*
X161992849Y-128654520D01*
X162013893Y-128667133D01*
X162033598Y-128681747D01*
X162051777Y-128698223D01*
X162068253Y-128716402D01*
X162082867Y-128736107D01*
X162095480Y-128757151D01*
X162105970Y-128779329D01*
X162114235Y-128802429D01*
X162120196Y-128826227D01*
X162123796Y-128850496D01*
X162125000Y-128875000D01*
X162125000Y-129625000D01*
X162123796Y-129649504D01*
X162120196Y-129673773D01*
X162114235Y-129697571D01*
X162105970Y-129720671D01*
X162095480Y-129742849D01*
X162082867Y-129763893D01*
X162068253Y-129783598D01*
X162051777Y-129801777D01*
X162033598Y-129818253D01*
X162013893Y-129832867D01*
X161992849Y-129845480D01*
X161970671Y-129855970D01*
X161947571Y-129864235D01*
X161923773Y-129870196D01*
X161899504Y-129873796D01*
X161875000Y-129875000D01*
X160625000Y-129875000D01*
X160600496Y-129873796D01*
X160576227Y-129870196D01*
X160552429Y-129864235D01*
X160529329Y-129855970D01*
X160507151Y-129845480D01*
X160486107Y-129832867D01*
X160466402Y-129818253D01*
X160448223Y-129801777D01*
X160431747Y-129783598D01*
X160417133Y-129763893D01*
X160404520Y-129742849D01*
X160394030Y-129720671D01*
X160385765Y-129697571D01*
X160379804Y-129673773D01*
X160376204Y-129649504D01*
X160375000Y-129625000D01*
X160375000Y-128875000D01*
X160376204Y-128850496D01*
X160379804Y-128826227D01*
X160385765Y-128802429D01*
X160394030Y-128779329D01*
X160404520Y-128757151D01*
X160417133Y-128736107D01*
X160431747Y-128716402D01*
X160448223Y-128698223D01*
X160466402Y-128681747D01*
X160486107Y-128667133D01*
X160507151Y-128654520D01*
X160529329Y-128644030D01*
X160552429Y-128635765D01*
X160576227Y-128629804D01*
X160600496Y-128626204D01*
X160625000Y-128625000D01*
X161875000Y-128625000D01*
X161899504Y-128626204D01*
G37*
G04 #@! TD.AperFunction*
G04 #@! TA.AperFunction,SMDPad,CuDef*
G36*
X161899504Y-131426204D02*
G01*
X161923773Y-131429804D01*
X161947571Y-131435765D01*
X161970671Y-131444030D01*
X161992849Y-131454520D01*
X162013893Y-131467133D01*
X162033598Y-131481747D01*
X162051777Y-131498223D01*
X162068253Y-131516402D01*
X162082867Y-131536107D01*
X162095480Y-131557151D01*
X162105970Y-131579329D01*
X162114235Y-131602429D01*
X162120196Y-131626227D01*
X162123796Y-131650496D01*
X162125000Y-131675000D01*
X162125000Y-132425000D01*
X162123796Y-132449504D01*
X162120196Y-132473773D01*
X162114235Y-132497571D01*
X162105970Y-132520671D01*
X162095480Y-132542849D01*
X162082867Y-132563893D01*
X162068253Y-132583598D01*
X162051777Y-132601777D01*
X162033598Y-132618253D01*
X162013893Y-132632867D01*
X161992849Y-132645480D01*
X161970671Y-132655970D01*
X161947571Y-132664235D01*
X161923773Y-132670196D01*
X161899504Y-132673796D01*
X161875000Y-132675000D01*
X160625000Y-132675000D01*
X160600496Y-132673796D01*
X160576227Y-132670196D01*
X160552429Y-132664235D01*
X160529329Y-132655970D01*
X160507151Y-132645480D01*
X160486107Y-132632867D01*
X160466402Y-132618253D01*
X160448223Y-132601777D01*
X160431747Y-132583598D01*
X160417133Y-132563893D01*
X160404520Y-132542849D01*
X160394030Y-132520671D01*
X160385765Y-132497571D01*
X160379804Y-132473773D01*
X160376204Y-132449504D01*
X160375000Y-132425000D01*
X160375000Y-131675000D01*
X160376204Y-131650496D01*
X160379804Y-131626227D01*
X160385765Y-131602429D01*
X160394030Y-131579329D01*
X160404520Y-131557151D01*
X160417133Y-131536107D01*
X160431747Y-131516402D01*
X160448223Y-131498223D01*
X160466402Y-131481747D01*
X160486107Y-131467133D01*
X160507151Y-131454520D01*
X160529329Y-131444030D01*
X160552429Y-131435765D01*
X160576227Y-131429804D01*
X160600496Y-131426204D01*
X160625000Y-131425000D01*
X161875000Y-131425000D01*
X161899504Y-131426204D01*
G37*
G04 #@! TD.AperFunction*
G04 #@! TA.AperFunction,SMDPad,CuDef*
G36*
X158642642Y-140051174D02*
G01*
X158666303Y-140054684D01*
X158689507Y-140060496D01*
X158712029Y-140068554D01*
X158733653Y-140078782D01*
X158754170Y-140091079D01*
X158773383Y-140105329D01*
X158791107Y-140121393D01*
X158807171Y-140139117D01*
X158821421Y-140158330D01*
X158833718Y-140178847D01*
X158843946Y-140200471D01*
X158852004Y-140222993D01*
X158857816Y-140246197D01*
X158861326Y-140269858D01*
X158862500Y-140293750D01*
X158862500Y-141206250D01*
X158861326Y-141230142D01*
X158857816Y-141253803D01*
X158852004Y-141277007D01*
X158843946Y-141299529D01*
X158833718Y-141321153D01*
X158821421Y-141341670D01*
X158807171Y-141360883D01*
X158791107Y-141378607D01*
X158773383Y-141394671D01*
X158754170Y-141408921D01*
X158733653Y-141421218D01*
X158712029Y-141431446D01*
X158689507Y-141439504D01*
X158666303Y-141445316D01*
X158642642Y-141448826D01*
X158618750Y-141450000D01*
X158131250Y-141450000D01*
X158107358Y-141448826D01*
X158083697Y-141445316D01*
X158060493Y-141439504D01*
X158037971Y-141431446D01*
X158016347Y-141421218D01*
X157995830Y-141408921D01*
X157976617Y-141394671D01*
X157958893Y-141378607D01*
X157942829Y-141360883D01*
X157928579Y-141341670D01*
X157916282Y-141321153D01*
X157906054Y-141299529D01*
X157897996Y-141277007D01*
X157892184Y-141253803D01*
X157888674Y-141230142D01*
X157887500Y-141206250D01*
X157887500Y-140293750D01*
X157888674Y-140269858D01*
X157892184Y-140246197D01*
X157897996Y-140222993D01*
X157906054Y-140200471D01*
X157916282Y-140178847D01*
X157928579Y-140158330D01*
X157942829Y-140139117D01*
X157958893Y-140121393D01*
X157976617Y-140105329D01*
X157995830Y-140091079D01*
X158016347Y-140078782D01*
X158037971Y-140068554D01*
X158060493Y-140060496D01*
X158083697Y-140054684D01*
X158107358Y-140051174D01*
X158131250Y-140050000D01*
X158618750Y-140050000D01*
X158642642Y-140051174D01*
G37*
G04 #@! TD.AperFunction*
G04 #@! TA.AperFunction,SMDPad,CuDef*
G36*
X156767642Y-140051174D02*
G01*
X156791303Y-140054684D01*
X156814507Y-140060496D01*
X156837029Y-140068554D01*
X156858653Y-140078782D01*
X156879170Y-140091079D01*
X156898383Y-140105329D01*
X156916107Y-140121393D01*
X156932171Y-140139117D01*
X156946421Y-140158330D01*
X156958718Y-140178847D01*
X156968946Y-140200471D01*
X156977004Y-140222993D01*
X156982816Y-140246197D01*
X156986326Y-140269858D01*
X156987500Y-140293750D01*
X156987500Y-141206250D01*
X156986326Y-141230142D01*
X156982816Y-141253803D01*
X156977004Y-141277007D01*
X156968946Y-141299529D01*
X156958718Y-141321153D01*
X156946421Y-141341670D01*
X156932171Y-141360883D01*
X156916107Y-141378607D01*
X156898383Y-141394671D01*
X156879170Y-141408921D01*
X156858653Y-141421218D01*
X156837029Y-141431446D01*
X156814507Y-141439504D01*
X156791303Y-141445316D01*
X156767642Y-141448826D01*
X156743750Y-141450000D01*
X156256250Y-141450000D01*
X156232358Y-141448826D01*
X156208697Y-141445316D01*
X156185493Y-141439504D01*
X156162971Y-141431446D01*
X156141347Y-141421218D01*
X156120830Y-141408921D01*
X156101617Y-141394671D01*
X156083893Y-141378607D01*
X156067829Y-141360883D01*
X156053579Y-141341670D01*
X156041282Y-141321153D01*
X156031054Y-141299529D01*
X156022996Y-141277007D01*
X156017184Y-141253803D01*
X156013674Y-141230142D01*
X156012500Y-141206250D01*
X156012500Y-140293750D01*
X156013674Y-140269858D01*
X156017184Y-140246197D01*
X156022996Y-140222993D01*
X156031054Y-140200471D01*
X156041282Y-140178847D01*
X156053579Y-140158330D01*
X156067829Y-140139117D01*
X156083893Y-140121393D01*
X156101617Y-140105329D01*
X156120830Y-140091079D01*
X156141347Y-140078782D01*
X156162971Y-140068554D01*
X156185493Y-140060496D01*
X156208697Y-140054684D01*
X156232358Y-140051174D01*
X156256250Y-140050000D01*
X156743750Y-140050000D01*
X156767642Y-140051174D01*
G37*
G04 #@! TD.AperFunction*
D14*
X160000000Y-137250000D03*
X165375000Y-138125000D03*
X157750000Y-137250000D03*
X168000000Y-143000000D03*
X161250000Y-141750000D03*
X163146768Y-141750000D03*
X165500000Y-141975000D03*
D15*
X175750000Y-144500000D03*
X175750000Y-127000000D03*
X153250000Y-127000000D03*
X153250000Y-144500000D03*
D14*
X168750000Y-139500000D03*
X169250000Y-130500000D03*
X157750000Y-134500000D03*
D16*
X159139636Y-130560000D02*
X158450000Y-130560000D01*
X161250000Y-131425000D02*
X161250000Y-132050000D01*
X160385000Y-130560000D02*
X161250000Y-131425000D01*
X158450000Y-130560000D02*
X160385000Y-130560000D01*
X163425000Y-132050000D02*
X163500000Y-132125000D01*
X161250000Y-132050000D02*
X163425000Y-132050000D01*
X161250000Y-134570000D02*
X161225000Y-134595000D01*
X161250000Y-132050000D02*
X161250000Y-134570000D01*
X162500000Y-129250000D02*
X163500000Y-130250000D01*
X161250000Y-129250000D02*
X162500000Y-129250000D01*
X164525010Y-131275010D02*
X163985527Y-130735527D01*
X164525010Y-132941758D02*
X164525010Y-131275010D01*
X162226778Y-135239990D02*
X164525010Y-132941758D01*
X155253242Y-135239990D02*
X162226778Y-135239990D01*
X163985527Y-130735527D02*
X163500000Y-130250000D01*
X154974990Y-135518242D02*
X155253242Y-135239990D01*
X154974990Y-138079990D02*
X154974990Y-135518242D01*
X155300000Y-138405000D02*
X154974990Y-138079990D01*
X156275000Y-138405000D02*
X155300000Y-138405000D01*
X156500000Y-138630000D02*
X156275000Y-138405000D01*
X156500000Y-140750000D02*
X156500000Y-138630000D01*
X161110000Y-137250000D02*
X161225000Y-137135000D01*
X160000000Y-137250000D02*
X161110000Y-137250000D01*
X162200000Y-137135000D02*
X161225000Y-137135000D01*
X163390010Y-138325010D02*
X162200000Y-137135000D01*
X165174990Y-138325010D02*
X163390010Y-138325010D01*
X165375000Y-138125000D02*
X165174990Y-138325010D01*
X165500000Y-138000000D02*
X165375000Y-138125000D01*
X165500000Y-137025000D02*
X165500000Y-138000000D01*
X156390000Y-137250000D02*
X156275000Y-137135000D01*
X157750000Y-137250000D02*
X156390000Y-137250000D01*
X168000000Y-142015000D02*
X168040000Y-141975000D01*
X168000000Y-143000000D02*
X168000000Y-142015000D01*
X170575000Y-136300000D02*
X169885364Y-136300000D01*
X166770000Y-135730000D02*
X166770000Y-137025000D01*
X167250000Y-135250000D02*
X166770000Y-135730000D01*
X162775020Y-140224980D02*
X161649999Y-141350001D01*
X161649999Y-141350001D02*
X161250000Y-141750000D01*
X164545020Y-140224980D02*
X162775020Y-140224980D01*
X166770000Y-138000000D02*
X164545020Y-140224980D01*
X166770000Y-137025000D02*
X166770000Y-138000000D01*
X168200000Y-135250000D02*
X167250000Y-135250000D01*
X169250000Y-136300000D02*
X168200000Y-135250000D01*
X170550000Y-136300000D02*
X169250000Y-136300000D01*
X158860527Y-141235527D02*
X158375000Y-140750000D01*
X166770000Y-142950000D02*
X166444990Y-143275010D01*
X160900010Y-143275010D02*
X158860527Y-141235527D01*
X166444990Y-143275010D02*
X160900010Y-143275010D01*
X166770000Y-141975000D02*
X166770000Y-142950000D01*
X165500000Y-141975000D02*
X165500000Y-141000000D01*
X165500000Y-141000000D02*
X165174990Y-140674990D01*
X165174990Y-140674990D02*
X163883242Y-140674990D01*
X163883242Y-140674990D02*
X163146768Y-141411464D01*
X163146768Y-141411464D02*
X163146768Y-141750000D01*
X170550000Y-130560000D02*
X170550000Y-130550000D01*
X170550000Y-130550000D02*
X170500000Y-130500000D01*
X171000000Y-132120000D02*
X171481587Y-132120000D01*
X171481587Y-132120000D02*
X171886587Y-132525000D01*
X158000000Y-132120000D02*
X158000000Y-132100000D01*
X171025000Y-134740000D02*
X170760000Y-134740000D01*
X170760000Y-134740000D02*
X170750000Y-134750000D01*
X158000000Y-132120000D02*
X157880000Y-132120000D01*
X156000000Y-127000000D02*
X153250000Y-127000000D01*
X158000000Y-129000000D02*
X156000000Y-127000000D01*
X158000000Y-132120000D02*
X157220344Y-132120000D01*
X152350010Y-145399990D02*
X176649990Y-145399990D01*
X152350010Y-132685010D02*
X152350010Y-145399990D01*
X158000000Y-132120000D02*
X157434990Y-132685010D01*
X157434990Y-132685010D02*
X152350010Y-132685010D01*
X175750000Y-144500000D02*
X153250000Y-144500000D01*
X176649990Y-145399990D02*
X175750000Y-144500000D01*
X170550000Y-130560000D02*
X169310000Y-130560000D01*
X169310000Y-130560000D02*
X169250000Y-130500000D01*
X156370000Y-134500000D02*
X156275000Y-134595000D01*
X157750000Y-134500000D02*
X156370000Y-134500000D01*
X169250000Y-130500000D02*
X168000000Y-130500000D01*
X162385000Y-135865000D02*
X161225000Y-135865000D01*
X169250000Y-130500000D02*
X167750000Y-130500000D01*
X167750000Y-130500000D02*
X162385000Y-135865000D01*
X156275000Y-135865000D02*
X161225000Y-135865000D01*
X165750000Y-128250000D02*
X161250000Y-128250000D01*
X168000000Y-130500000D02*
X165750000Y-128250000D01*
X161250000Y-128250000D02*
X160250000Y-128250000D01*
D17*
G36*
X172323001Y-132301298D02*
G01*
X172322144Y-132310000D01*
X172325561Y-132344698D01*
X172335682Y-132378063D01*
X172352118Y-132408811D01*
X172374237Y-132435763D01*
X172401189Y-132457882D01*
X172431937Y-132474318D01*
X172465302Y-132484439D01*
X172491308Y-132487000D01*
X172500000Y-132487856D01*
X172508692Y-132487000D01*
X176848000Y-132487000D01*
X176848001Y-134373000D01*
X172508692Y-134373000D01*
X172500000Y-134372144D01*
X172491308Y-134373000D01*
X172465302Y-134375561D01*
X172431937Y-134385682D01*
X172401189Y-134402118D01*
X172374237Y-134424237D01*
X172352118Y-134451189D01*
X172335682Y-134481937D01*
X172325561Y-134515302D01*
X172322144Y-134550000D01*
X172323000Y-134558692D01*
X172323001Y-138041298D01*
X172322144Y-138050000D01*
X172325561Y-138084698D01*
X172335682Y-138118063D01*
X172352118Y-138148811D01*
X172374237Y-138175763D01*
X172401189Y-138197882D01*
X172431937Y-138214318D01*
X172465302Y-138224439D01*
X172491308Y-138227000D01*
X172500000Y-138227856D01*
X172508692Y-138227000D01*
X176848001Y-138227000D01*
X176848000Y-140757461D01*
X176848001Y-140757471D01*
X176848000Y-145598000D01*
X152152000Y-145598000D01*
X152152000Y-132627000D01*
X154123000Y-132627000D01*
X154123000Y-137250000D01*
X154125440Y-137274776D01*
X154132667Y-137298601D01*
X154144403Y-137320557D01*
X154160197Y-137339803D01*
X154179443Y-137355597D01*
X154201399Y-137367333D01*
X154225224Y-137374560D01*
X154250000Y-137377000D01*
X154522990Y-137377000D01*
X154522990Y-138057785D01*
X154520803Y-138079990D01*
X154529530Y-138168597D01*
X154546470Y-138224439D01*
X154555376Y-138253799D01*
X154597347Y-138332322D01*
X154653831Y-138401149D01*
X154671090Y-138415313D01*
X154964681Y-138708905D01*
X154978841Y-138726159D01*
X155019103Y-138759201D01*
X155052074Y-138820886D01*
X155111591Y-138893409D01*
X155184114Y-138952926D01*
X155266855Y-138997152D01*
X155356633Y-139024386D01*
X155450000Y-139033582D01*
X156048001Y-139033582D01*
X156048000Y-139761716D01*
X156037228Y-139764984D01*
X155938279Y-139817873D01*
X155851550Y-139889050D01*
X155780373Y-139975779D01*
X155727484Y-140074728D01*
X155694915Y-140182094D01*
X155683918Y-140293750D01*
X155683918Y-141206250D01*
X155694915Y-141317906D01*
X155727484Y-141425272D01*
X155780373Y-141524221D01*
X155851550Y-141610950D01*
X155938279Y-141682127D01*
X156037228Y-141735016D01*
X156144594Y-141767585D01*
X156256250Y-141778582D01*
X156743750Y-141778582D01*
X156855406Y-141767585D01*
X156962772Y-141735016D01*
X157061721Y-141682127D01*
X157148450Y-141610950D01*
X157219627Y-141524221D01*
X157272516Y-141425272D01*
X157305085Y-141317906D01*
X157316082Y-141206250D01*
X157316082Y-140293750D01*
X157305085Y-140182094D01*
X157272516Y-140074728D01*
X157219627Y-139975779D01*
X157148450Y-139889050D01*
X157061721Y-139817873D01*
X156962772Y-139764984D01*
X156952000Y-139761716D01*
X156952000Y-139033582D01*
X157100000Y-139033582D01*
X157193367Y-139024386D01*
X157283145Y-138997152D01*
X157365886Y-138952926D01*
X157438409Y-138893409D01*
X157497926Y-138820886D01*
X157542152Y-138738145D01*
X157569386Y-138648367D01*
X157578582Y-138555000D01*
X157578582Y-138255000D01*
X157569386Y-138161633D01*
X157542152Y-138071855D01*
X157497926Y-137989114D01*
X157438409Y-137916591D01*
X157416864Y-137898910D01*
X157537942Y-137949062D01*
X157678397Y-137977000D01*
X157821603Y-137977000D01*
X157962058Y-137949062D01*
X158094364Y-137894259D01*
X158213436Y-137814698D01*
X158314698Y-137713436D01*
X158394259Y-137594364D01*
X158449062Y-137462058D01*
X158465981Y-137377000D01*
X159284019Y-137377000D01*
X159300938Y-137462058D01*
X159355741Y-137594364D01*
X159435302Y-137713436D01*
X159536564Y-137814698D01*
X159655636Y-137894259D01*
X159787942Y-137949062D01*
X159928397Y-137977000D01*
X160012016Y-137977000D01*
X160002074Y-137989114D01*
X159957848Y-138071855D01*
X159930614Y-138161633D01*
X159921418Y-138255000D01*
X159921418Y-138555000D01*
X159930614Y-138648367D01*
X159957848Y-138738145D01*
X160002074Y-138820886D01*
X160061591Y-138893409D01*
X160134114Y-138952926D01*
X160216855Y-138997152D01*
X160306633Y-139024386D01*
X160400000Y-139033582D01*
X162050000Y-139033582D01*
X162143367Y-139024386D01*
X162233145Y-138997152D01*
X162315886Y-138952926D01*
X162388409Y-138893409D01*
X162447926Y-138820886D01*
X162492152Y-138738145D01*
X162519386Y-138648367D01*
X162528582Y-138555000D01*
X162528582Y-138255000D01*
X162519386Y-138161633D01*
X162492152Y-138071855D01*
X162485861Y-138060085D01*
X163054695Y-138628920D01*
X163068851Y-138646169D01*
X163137677Y-138702653D01*
X163216200Y-138744624D01*
X163281572Y-138764454D01*
X163301402Y-138770470D01*
X163390009Y-138779197D01*
X163412214Y-138777010D01*
X165049349Y-138777010D01*
X165162942Y-138824062D01*
X165282861Y-138847915D01*
X164357797Y-139772980D01*
X162797225Y-139772980D01*
X162775020Y-139770793D01*
X162686412Y-139779520D01*
X162601210Y-139805366D01*
X162522687Y-139847337D01*
X162453861Y-139903821D01*
X162439701Y-139921075D01*
X161346093Y-141014684D01*
X161346088Y-141014688D01*
X161335093Y-141025683D01*
X161321603Y-141023000D01*
X161178397Y-141023000D01*
X161037942Y-141050938D01*
X160905636Y-141105741D01*
X160786564Y-141185302D01*
X160685302Y-141286564D01*
X160605741Y-141405636D01*
X160550938Y-141537942D01*
X160523000Y-141678397D01*
X160523000Y-141821603D01*
X160550938Y-141962058D01*
X160605741Y-142094364D01*
X160685302Y-142213436D01*
X160786564Y-142314698D01*
X160905636Y-142394259D01*
X161037942Y-142449062D01*
X161178397Y-142477000D01*
X161321603Y-142477000D01*
X161462058Y-142449062D01*
X161594364Y-142394259D01*
X161713436Y-142314698D01*
X161814698Y-142213436D01*
X161894259Y-142094364D01*
X161949062Y-141962058D01*
X161977000Y-141821603D01*
X161977000Y-141678397D01*
X161974317Y-141664907D01*
X161985312Y-141653912D01*
X161985316Y-141653907D01*
X162962244Y-140676980D01*
X163242028Y-140676980D01*
X162842868Y-141076141D01*
X162825609Y-141090305D01*
X162818368Y-141099129D01*
X162802404Y-141105741D01*
X162683332Y-141185302D01*
X162582070Y-141286564D01*
X162502509Y-141405636D01*
X162447706Y-141537942D01*
X162419768Y-141678397D01*
X162419768Y-141821603D01*
X162447706Y-141962058D01*
X162502509Y-142094364D01*
X162582070Y-142213436D01*
X162683332Y-142314698D01*
X162802404Y-142394259D01*
X162934710Y-142449062D01*
X163075165Y-142477000D01*
X163218371Y-142477000D01*
X163358826Y-142449062D01*
X163491132Y-142394259D01*
X163601418Y-142320569D01*
X163601418Y-142800000D01*
X163603684Y-142823010D01*
X161087234Y-142823010D01*
X159191082Y-140926858D01*
X159191082Y-140293750D01*
X159180085Y-140182094D01*
X159147516Y-140074728D01*
X159094627Y-139975779D01*
X159023450Y-139889050D01*
X158936721Y-139817873D01*
X158837772Y-139764984D01*
X158730406Y-139732415D01*
X158618750Y-139721418D01*
X158131250Y-139721418D01*
X158019594Y-139732415D01*
X157912228Y-139764984D01*
X157813279Y-139817873D01*
X157726550Y-139889050D01*
X157655373Y-139975779D01*
X157602484Y-140074728D01*
X157569915Y-140182094D01*
X157558918Y-140293750D01*
X157558918Y-141206250D01*
X157569915Y-141317906D01*
X157602484Y-141425272D01*
X157655373Y-141524221D01*
X157726550Y-141610950D01*
X157813279Y-141682127D01*
X157912228Y-141735016D01*
X158019594Y-141767585D01*
X158131250Y-141778582D01*
X158618750Y-141778582D01*
X158730406Y-141767585D01*
X158748019Y-141762242D01*
X160564691Y-143578915D01*
X160578851Y-143596169D01*
X160647677Y-143652653D01*
X160726200Y-143694624D01*
X160811402Y-143720470D01*
X160900010Y-143729197D01*
X160922215Y-143727010D01*
X166422785Y-143727010D01*
X166444990Y-143729197D01*
X166467195Y-143727010D01*
X166533597Y-143720470D01*
X166618800Y-143694624D01*
X166697323Y-143652653D01*
X166766149Y-143596169D01*
X166780313Y-143578910D01*
X167073905Y-143285319D01*
X167091159Y-143271159D01*
X167124201Y-143230897D01*
X167185886Y-143197926D01*
X167258409Y-143138409D01*
X167280849Y-143111065D01*
X167300938Y-143212058D01*
X167355741Y-143344364D01*
X167435302Y-143463436D01*
X167536564Y-143564698D01*
X167655636Y-143644259D01*
X167787942Y-143699062D01*
X167928397Y-143727000D01*
X168071603Y-143727000D01*
X168212058Y-143699062D01*
X168344364Y-143644259D01*
X168463436Y-143564698D01*
X168564698Y-143463436D01*
X168644259Y-143344364D01*
X168699062Y-143212058D01*
X168727000Y-143071603D01*
X168727000Y-142928397D01*
X168699062Y-142787942D01*
X168668582Y-142714357D01*
X168668582Y-141418548D01*
X169958000Y-141418548D01*
X169958000Y-141581452D01*
X169989782Y-141741227D01*
X170052123Y-141891731D01*
X170142628Y-142027181D01*
X170257819Y-142142372D01*
X170393269Y-142232877D01*
X170543773Y-142295218D01*
X170703548Y-142327000D01*
X170866452Y-142327000D01*
X171026227Y-142295218D01*
X171176731Y-142232877D01*
X171186812Y-142226141D01*
X171312980Y-142358865D01*
X171494794Y-142487123D01*
X171698136Y-142577446D01*
X171753126Y-142594119D01*
X171928000Y-142467954D01*
X171928000Y-141627000D01*
X171908000Y-141627000D01*
X171908000Y-141373000D01*
X171928000Y-141373000D01*
X171928000Y-140532046D01*
X172182000Y-140532046D01*
X172182000Y-141373000D01*
X172202000Y-141373000D01*
X172202000Y-141627000D01*
X172182000Y-141627000D01*
X172182000Y-142467954D01*
X172356874Y-142594119D01*
X172411864Y-142577446D01*
X172615206Y-142487123D01*
X172797020Y-142358865D01*
X172825807Y-142328582D01*
X173825000Y-142328582D01*
X173889103Y-142322268D01*
X173950743Y-142303570D01*
X174007550Y-142273206D01*
X174057343Y-142232343D01*
X174098206Y-142182550D01*
X174128570Y-142125743D01*
X174147268Y-142064103D01*
X174153582Y-142000000D01*
X174153582Y-141000000D01*
X174147268Y-140935897D01*
X174128570Y-140874257D01*
X174098206Y-140817450D01*
X174057343Y-140767657D01*
X174007550Y-140726794D01*
X173950743Y-140696430D01*
X173889103Y-140677732D01*
X173825000Y-140671418D01*
X172825807Y-140671418D01*
X172797020Y-140641135D01*
X172615206Y-140512877D01*
X172411864Y-140422554D01*
X172356874Y-140405881D01*
X172182000Y-140532046D01*
X171928000Y-140532046D01*
X171753126Y-140405881D01*
X171698136Y-140422554D01*
X171494794Y-140512877D01*
X171312980Y-140641135D01*
X171186812Y-140773859D01*
X171176731Y-140767123D01*
X171026227Y-140704782D01*
X170866452Y-140673000D01*
X170703548Y-140673000D01*
X170543773Y-140704782D01*
X170393269Y-140767123D01*
X170257819Y-140857628D01*
X170142628Y-140972819D01*
X170052123Y-141108269D01*
X169989782Y-141258773D01*
X169958000Y-141418548D01*
X168668582Y-141418548D01*
X168668582Y-141150000D01*
X168659386Y-141056633D01*
X168632152Y-140966855D01*
X168587926Y-140884114D01*
X168528409Y-140811591D01*
X168455886Y-140752074D01*
X168373145Y-140707848D01*
X168283367Y-140680614D01*
X168190000Y-140671418D01*
X167890000Y-140671418D01*
X167796633Y-140680614D01*
X167706855Y-140707848D01*
X167624114Y-140752074D01*
X167551591Y-140811591D01*
X167492074Y-140884114D01*
X167447848Y-140966855D01*
X167420614Y-141056633D01*
X167411418Y-141150000D01*
X167411418Y-142572309D01*
X167398582Y-142591520D01*
X167398582Y-141150000D01*
X167389386Y-141056633D01*
X167362152Y-140966855D01*
X167317926Y-140884114D01*
X167258409Y-140811591D01*
X167185886Y-140752074D01*
X167103145Y-140707848D01*
X167013367Y-140680614D01*
X166920000Y-140671418D01*
X166620000Y-140671418D01*
X166526633Y-140680614D01*
X166436855Y-140707848D01*
X166354114Y-140752074D01*
X166281591Y-140811591D01*
X166222074Y-140884114D01*
X166177848Y-140966855D01*
X166150614Y-141056633D01*
X166141418Y-141150000D01*
X166141418Y-141626384D01*
X166128582Y-141607174D01*
X166128582Y-141150000D01*
X166119386Y-141056633D01*
X166092152Y-140966855D01*
X166047926Y-140884114D01*
X165988409Y-140811591D01*
X165915886Y-140752074D01*
X165854201Y-140719103D01*
X165821159Y-140678841D01*
X165803905Y-140664681D01*
X165510313Y-140371090D01*
X165496149Y-140353831D01*
X165427323Y-140297347D01*
X165348800Y-140255376D01*
X165263597Y-140229530D01*
X165197195Y-140222990D01*
X165187216Y-140222007D01*
X167073905Y-138335319D01*
X167091159Y-138321159D01*
X167124201Y-138280897D01*
X167185886Y-138247926D01*
X167258409Y-138188409D01*
X167317926Y-138115886D01*
X167362152Y-138033145D01*
X167389386Y-137943367D01*
X167398582Y-137850000D01*
X167398582Y-136200000D01*
X167389386Y-136106633D01*
X167362152Y-136016855D01*
X167317926Y-135934114D01*
X167267074Y-135872149D01*
X167437224Y-135702000D01*
X168012777Y-135702000D01*
X168032195Y-135721418D01*
X167890000Y-135721418D01*
X167796633Y-135730614D01*
X167706855Y-135757848D01*
X167624114Y-135802074D01*
X167551591Y-135861591D01*
X167492074Y-135934114D01*
X167447848Y-136016855D01*
X167420614Y-136106633D01*
X167411418Y-136200000D01*
X167411418Y-137850000D01*
X167420614Y-137943367D01*
X167447848Y-138033145D01*
X167492074Y-138115886D01*
X167551591Y-138188409D01*
X167624114Y-138247926D01*
X167706855Y-138292152D01*
X167796633Y-138319386D01*
X167890000Y-138328582D01*
X168190000Y-138328582D01*
X168283367Y-138319386D01*
X168373145Y-138292152D01*
X168455886Y-138247926D01*
X168528409Y-138188409D01*
X168587926Y-138115886D01*
X168632152Y-138033145D01*
X168659386Y-137943367D01*
X168668582Y-137850000D01*
X168668582Y-136357806D01*
X168914685Y-136603910D01*
X168928841Y-136621159D01*
X168997667Y-136677643D01*
X169076190Y-136719614D01*
X169141562Y-136739444D01*
X169161392Y-136745460D01*
X169171418Y-136746447D01*
X169171418Y-136850000D01*
X169177732Y-136914103D01*
X169196430Y-136975743D01*
X169226794Y-137032550D01*
X169267657Y-137082343D01*
X169317450Y-137123206D01*
X169374257Y-137153570D01*
X169435897Y-137172268D01*
X169500000Y-137178582D01*
X171600000Y-137178582D01*
X171664103Y-137172268D01*
X171725743Y-137153570D01*
X171782550Y-137123206D01*
X171832343Y-137082343D01*
X171873206Y-137032550D01*
X171903570Y-136975743D01*
X171922268Y-136914103D01*
X171928582Y-136850000D01*
X171928582Y-135750000D01*
X171922268Y-135685897D01*
X171903570Y-135624257D01*
X171873206Y-135567450D01*
X171832343Y-135517657D01*
X171782550Y-135476794D01*
X171725743Y-135446430D01*
X171664103Y-135427732D01*
X171600000Y-135421418D01*
X169500000Y-135421418D01*
X169435897Y-135427732D01*
X169374257Y-135446430D01*
X169317450Y-135476794D01*
X169267657Y-135517657D01*
X169226794Y-135567450D01*
X169202369Y-135613145D01*
X168535323Y-134946100D01*
X168521159Y-134928841D01*
X168452333Y-134872357D01*
X168373810Y-134830386D01*
X168288607Y-134804540D01*
X168222205Y-134798000D01*
X168200000Y-134795813D01*
X168177795Y-134798000D01*
X167272205Y-134798000D01*
X167250000Y-134795813D01*
X167161392Y-134804540D01*
X167106607Y-134821159D01*
X167076190Y-134830386D01*
X166997667Y-134872357D01*
X166928841Y-134928841D01*
X166914681Y-134946095D01*
X166466100Y-135394677D01*
X166448841Y-135408841D01*
X166392357Y-135477668D01*
X166370983Y-135517657D01*
X166350386Y-135556191D01*
X166324540Y-135641393D01*
X166315813Y-135730000D01*
X166318000Y-135752205D01*
X166318000Y-135831711D01*
X166281591Y-135861591D01*
X166222074Y-135934114D01*
X166177848Y-136016855D01*
X166150614Y-136106633D01*
X166141418Y-136200000D01*
X166141418Y-137850000D01*
X166150614Y-137943367D01*
X166159178Y-137971598D01*
X166097915Y-138032861D01*
X166095667Y-138021558D01*
X166119386Y-137943367D01*
X166128582Y-137850000D01*
X166128582Y-136200000D01*
X166119386Y-136106633D01*
X166092152Y-136016855D01*
X166047926Y-135934114D01*
X165988409Y-135861591D01*
X165915886Y-135802074D01*
X165833145Y-135757848D01*
X165743367Y-135730614D01*
X165650000Y-135721418D01*
X165350000Y-135721418D01*
X165256633Y-135730614D01*
X165166855Y-135757848D01*
X165084114Y-135802074D01*
X165011591Y-135861591D01*
X164952074Y-135934114D01*
X164907848Y-136016855D01*
X164880614Y-136106633D01*
X164871418Y-136200000D01*
X164871418Y-137600448D01*
X164858582Y-137613284D01*
X164858582Y-136200000D01*
X164849386Y-136106633D01*
X164822152Y-136016855D01*
X164777926Y-135934114D01*
X164718409Y-135861591D01*
X164645886Y-135802074D01*
X164563145Y-135757848D01*
X164473367Y-135730614D01*
X164380000Y-135721418D01*
X164137866Y-135721418D01*
X168054266Y-131627000D01*
X172323001Y-131627000D01*
X172323001Y-132301298D01*
G37*
X172323001Y-132301298D02*
X172322144Y-132310000D01*
X172325561Y-132344698D01*
X172335682Y-132378063D01*
X172352118Y-132408811D01*
X172374237Y-132435763D01*
X172401189Y-132457882D01*
X172431937Y-132474318D01*
X172465302Y-132484439D01*
X172491308Y-132487000D01*
X172500000Y-132487856D01*
X172508692Y-132487000D01*
X176848000Y-132487000D01*
X176848001Y-134373000D01*
X172508692Y-134373000D01*
X172500000Y-134372144D01*
X172491308Y-134373000D01*
X172465302Y-134375561D01*
X172431937Y-134385682D01*
X172401189Y-134402118D01*
X172374237Y-134424237D01*
X172352118Y-134451189D01*
X172335682Y-134481937D01*
X172325561Y-134515302D01*
X172322144Y-134550000D01*
X172323000Y-134558692D01*
X172323001Y-138041298D01*
X172322144Y-138050000D01*
X172325561Y-138084698D01*
X172335682Y-138118063D01*
X172352118Y-138148811D01*
X172374237Y-138175763D01*
X172401189Y-138197882D01*
X172431937Y-138214318D01*
X172465302Y-138224439D01*
X172491308Y-138227000D01*
X172500000Y-138227856D01*
X172508692Y-138227000D01*
X176848001Y-138227000D01*
X176848000Y-140757461D01*
X176848001Y-140757471D01*
X176848000Y-145598000D01*
X152152000Y-145598000D01*
X152152000Y-132627000D01*
X154123000Y-132627000D01*
X154123000Y-137250000D01*
X154125440Y-137274776D01*
X154132667Y-137298601D01*
X154144403Y-137320557D01*
X154160197Y-137339803D01*
X154179443Y-137355597D01*
X154201399Y-137367333D01*
X154225224Y-137374560D01*
X154250000Y-137377000D01*
X154522990Y-137377000D01*
X154522990Y-138057785D01*
X154520803Y-138079990D01*
X154529530Y-138168597D01*
X154546470Y-138224439D01*
X154555376Y-138253799D01*
X154597347Y-138332322D01*
X154653831Y-138401149D01*
X154671090Y-138415313D01*
X154964681Y-138708905D01*
X154978841Y-138726159D01*
X155019103Y-138759201D01*
X155052074Y-138820886D01*
X155111591Y-138893409D01*
X155184114Y-138952926D01*
X155266855Y-138997152D01*
X155356633Y-139024386D01*
X155450000Y-139033582D01*
X156048001Y-139033582D01*
X156048000Y-139761716D01*
X156037228Y-139764984D01*
X155938279Y-139817873D01*
X155851550Y-139889050D01*
X155780373Y-139975779D01*
X155727484Y-140074728D01*
X155694915Y-140182094D01*
X155683918Y-140293750D01*
X155683918Y-141206250D01*
X155694915Y-141317906D01*
X155727484Y-141425272D01*
X155780373Y-141524221D01*
X155851550Y-141610950D01*
X155938279Y-141682127D01*
X156037228Y-141735016D01*
X156144594Y-141767585D01*
X156256250Y-141778582D01*
X156743750Y-141778582D01*
X156855406Y-141767585D01*
X156962772Y-141735016D01*
X157061721Y-141682127D01*
X157148450Y-141610950D01*
X157219627Y-141524221D01*
X157272516Y-141425272D01*
X157305085Y-141317906D01*
X157316082Y-141206250D01*
X157316082Y-140293750D01*
X157305085Y-140182094D01*
X157272516Y-140074728D01*
X157219627Y-139975779D01*
X157148450Y-139889050D01*
X157061721Y-139817873D01*
X156962772Y-139764984D01*
X156952000Y-139761716D01*
X156952000Y-139033582D01*
X157100000Y-139033582D01*
X157193367Y-139024386D01*
X157283145Y-138997152D01*
X157365886Y-138952926D01*
X157438409Y-138893409D01*
X157497926Y-138820886D01*
X157542152Y-138738145D01*
X157569386Y-138648367D01*
X157578582Y-138555000D01*
X157578582Y-138255000D01*
X157569386Y-138161633D01*
X157542152Y-138071855D01*
X157497926Y-137989114D01*
X157438409Y-137916591D01*
X157416864Y-137898910D01*
X157537942Y-137949062D01*
X157678397Y-137977000D01*
X157821603Y-137977000D01*
X157962058Y-137949062D01*
X158094364Y-137894259D01*
X158213436Y-137814698D01*
X158314698Y-137713436D01*
X158394259Y-137594364D01*
X158449062Y-137462058D01*
X158465981Y-137377000D01*
X159284019Y-137377000D01*
X159300938Y-137462058D01*
X159355741Y-137594364D01*
X159435302Y-137713436D01*
X159536564Y-137814698D01*
X159655636Y-137894259D01*
X159787942Y-137949062D01*
X159928397Y-137977000D01*
X160012016Y-137977000D01*
X160002074Y-137989114D01*
X159957848Y-138071855D01*
X159930614Y-138161633D01*
X159921418Y-138255000D01*
X159921418Y-138555000D01*
X159930614Y-138648367D01*
X159957848Y-138738145D01*
X160002074Y-138820886D01*
X160061591Y-138893409D01*
X160134114Y-138952926D01*
X160216855Y-138997152D01*
X160306633Y-139024386D01*
X160400000Y-139033582D01*
X162050000Y-139033582D01*
X162143367Y-139024386D01*
X162233145Y-138997152D01*
X162315886Y-138952926D01*
X162388409Y-138893409D01*
X162447926Y-138820886D01*
X162492152Y-138738145D01*
X162519386Y-138648367D01*
X162528582Y-138555000D01*
X162528582Y-138255000D01*
X162519386Y-138161633D01*
X162492152Y-138071855D01*
X162485861Y-138060085D01*
X163054695Y-138628920D01*
X163068851Y-138646169D01*
X163137677Y-138702653D01*
X163216200Y-138744624D01*
X163281572Y-138764454D01*
X163301402Y-138770470D01*
X163390009Y-138779197D01*
X163412214Y-138777010D01*
X165049349Y-138777010D01*
X165162942Y-138824062D01*
X165282861Y-138847915D01*
X164357797Y-139772980D01*
X162797225Y-139772980D01*
X162775020Y-139770793D01*
X162686412Y-139779520D01*
X162601210Y-139805366D01*
X162522687Y-139847337D01*
X162453861Y-139903821D01*
X162439701Y-139921075D01*
X161346093Y-141014684D01*
X161346088Y-141014688D01*
X161335093Y-141025683D01*
X161321603Y-141023000D01*
X161178397Y-141023000D01*
X161037942Y-141050938D01*
X160905636Y-141105741D01*
X160786564Y-141185302D01*
X160685302Y-141286564D01*
X160605741Y-141405636D01*
X160550938Y-141537942D01*
X160523000Y-141678397D01*
X160523000Y-141821603D01*
X160550938Y-141962058D01*
X160605741Y-142094364D01*
X160685302Y-142213436D01*
X160786564Y-142314698D01*
X160905636Y-142394259D01*
X161037942Y-142449062D01*
X161178397Y-142477000D01*
X161321603Y-142477000D01*
X161462058Y-142449062D01*
X161594364Y-142394259D01*
X161713436Y-142314698D01*
X161814698Y-142213436D01*
X161894259Y-142094364D01*
X161949062Y-141962058D01*
X161977000Y-141821603D01*
X161977000Y-141678397D01*
X161974317Y-141664907D01*
X161985312Y-141653912D01*
X161985316Y-141653907D01*
X162962244Y-140676980D01*
X163242028Y-140676980D01*
X162842868Y-141076141D01*
X162825609Y-141090305D01*
X162818368Y-141099129D01*
X162802404Y-141105741D01*
X162683332Y-141185302D01*
X162582070Y-141286564D01*
X162502509Y-141405636D01*
X162447706Y-141537942D01*
X162419768Y-141678397D01*
X162419768Y-141821603D01*
X162447706Y-141962058D01*
X162502509Y-142094364D01*
X162582070Y-142213436D01*
X162683332Y-142314698D01*
X162802404Y-142394259D01*
X162934710Y-142449062D01*
X163075165Y-142477000D01*
X163218371Y-142477000D01*
X163358826Y-142449062D01*
X163491132Y-142394259D01*
X163601418Y-142320569D01*
X163601418Y-142800000D01*
X163603684Y-142823010D01*
X161087234Y-142823010D01*
X159191082Y-140926858D01*
X159191082Y-140293750D01*
X159180085Y-140182094D01*
X159147516Y-140074728D01*
X159094627Y-139975779D01*
X159023450Y-139889050D01*
X158936721Y-139817873D01*
X158837772Y-139764984D01*
X158730406Y-139732415D01*
X158618750Y-139721418D01*
X158131250Y-139721418D01*
X158019594Y-139732415D01*
X157912228Y-139764984D01*
X157813279Y-139817873D01*
X157726550Y-139889050D01*
X157655373Y-139975779D01*
X157602484Y-140074728D01*
X157569915Y-140182094D01*
X157558918Y-140293750D01*
X157558918Y-141206250D01*
X157569915Y-141317906D01*
X157602484Y-141425272D01*
X157655373Y-141524221D01*
X157726550Y-141610950D01*
X157813279Y-141682127D01*
X157912228Y-141735016D01*
X158019594Y-141767585D01*
X158131250Y-141778582D01*
X158618750Y-141778582D01*
X158730406Y-141767585D01*
X158748019Y-141762242D01*
X160564691Y-143578915D01*
X160578851Y-143596169D01*
X160647677Y-143652653D01*
X160726200Y-143694624D01*
X160811402Y-143720470D01*
X160900010Y-143729197D01*
X160922215Y-143727010D01*
X166422785Y-143727010D01*
X166444990Y-143729197D01*
X166467195Y-143727010D01*
X166533597Y-143720470D01*
X166618800Y-143694624D01*
X166697323Y-143652653D01*
X166766149Y-143596169D01*
X166780313Y-143578910D01*
X167073905Y-143285319D01*
X167091159Y-143271159D01*
X167124201Y-143230897D01*
X167185886Y-143197926D01*
X167258409Y-143138409D01*
X167280849Y-143111065D01*
X167300938Y-143212058D01*
X167355741Y-143344364D01*
X167435302Y-143463436D01*
X167536564Y-143564698D01*
X167655636Y-143644259D01*
X167787942Y-143699062D01*
X167928397Y-143727000D01*
X168071603Y-143727000D01*
X168212058Y-143699062D01*
X168344364Y-143644259D01*
X168463436Y-143564698D01*
X168564698Y-143463436D01*
X168644259Y-143344364D01*
X168699062Y-143212058D01*
X168727000Y-143071603D01*
X168727000Y-142928397D01*
X168699062Y-142787942D01*
X168668582Y-142714357D01*
X168668582Y-141418548D01*
X169958000Y-141418548D01*
X169958000Y-141581452D01*
X169989782Y-141741227D01*
X170052123Y-141891731D01*
X170142628Y-142027181D01*
X170257819Y-142142372D01*
X170393269Y-142232877D01*
X170543773Y-142295218D01*
X170703548Y-142327000D01*
X170866452Y-142327000D01*
X171026227Y-142295218D01*
X171176731Y-142232877D01*
X171186812Y-142226141D01*
X171312980Y-142358865D01*
X171494794Y-142487123D01*
X171698136Y-142577446D01*
X171753126Y-142594119D01*
X171928000Y-142467954D01*
X171928000Y-141627000D01*
X171908000Y-141627000D01*
X171908000Y-141373000D01*
X171928000Y-141373000D01*
X171928000Y-140532046D01*
X172182000Y-140532046D01*
X172182000Y-141373000D01*
X172202000Y-141373000D01*
X172202000Y-141627000D01*
X172182000Y-141627000D01*
X172182000Y-142467954D01*
X172356874Y-142594119D01*
X172411864Y-142577446D01*
X172615206Y-142487123D01*
X172797020Y-142358865D01*
X172825807Y-142328582D01*
X173825000Y-142328582D01*
X173889103Y-142322268D01*
X173950743Y-142303570D01*
X174007550Y-142273206D01*
X174057343Y-142232343D01*
X174098206Y-142182550D01*
X174128570Y-142125743D01*
X174147268Y-142064103D01*
X174153582Y-142000000D01*
X174153582Y-141000000D01*
X174147268Y-140935897D01*
X174128570Y-140874257D01*
X174098206Y-140817450D01*
X174057343Y-140767657D01*
X174007550Y-140726794D01*
X173950743Y-140696430D01*
X173889103Y-140677732D01*
X173825000Y-140671418D01*
X172825807Y-140671418D01*
X172797020Y-140641135D01*
X172615206Y-140512877D01*
X172411864Y-140422554D01*
X172356874Y-140405881D01*
X172182000Y-140532046D01*
X171928000Y-140532046D01*
X171753126Y-140405881D01*
X171698136Y-140422554D01*
X171494794Y-140512877D01*
X171312980Y-140641135D01*
X171186812Y-140773859D01*
X171176731Y-140767123D01*
X171026227Y-140704782D01*
X170866452Y-140673000D01*
X170703548Y-140673000D01*
X170543773Y-140704782D01*
X170393269Y-140767123D01*
X170257819Y-140857628D01*
X170142628Y-140972819D01*
X170052123Y-141108269D01*
X169989782Y-141258773D01*
X169958000Y-141418548D01*
X168668582Y-141418548D01*
X168668582Y-141150000D01*
X168659386Y-141056633D01*
X168632152Y-140966855D01*
X168587926Y-140884114D01*
X168528409Y-140811591D01*
X168455886Y-140752074D01*
X168373145Y-140707848D01*
X168283367Y-140680614D01*
X168190000Y-140671418D01*
X167890000Y-140671418D01*
X167796633Y-140680614D01*
X167706855Y-140707848D01*
X167624114Y-140752074D01*
X167551591Y-140811591D01*
X167492074Y-140884114D01*
X167447848Y-140966855D01*
X167420614Y-141056633D01*
X167411418Y-141150000D01*
X167411418Y-142572309D01*
X167398582Y-142591520D01*
X167398582Y-141150000D01*
X167389386Y-141056633D01*
X167362152Y-140966855D01*
X167317926Y-140884114D01*
X167258409Y-140811591D01*
X167185886Y-140752074D01*
X167103145Y-140707848D01*
X167013367Y-140680614D01*
X166920000Y-140671418D01*
X166620000Y-140671418D01*
X166526633Y-140680614D01*
X166436855Y-140707848D01*
X166354114Y-140752074D01*
X166281591Y-140811591D01*
X166222074Y-140884114D01*
X166177848Y-140966855D01*
X166150614Y-141056633D01*
X166141418Y-141150000D01*
X166141418Y-141626384D01*
X166128582Y-141607174D01*
X166128582Y-141150000D01*
X166119386Y-141056633D01*
X166092152Y-140966855D01*
X166047926Y-140884114D01*
X165988409Y-140811591D01*
X165915886Y-140752074D01*
X165854201Y-140719103D01*
X165821159Y-140678841D01*
X165803905Y-140664681D01*
X165510313Y-140371090D01*
X165496149Y-140353831D01*
X165427323Y-140297347D01*
X165348800Y-140255376D01*
X165263597Y-140229530D01*
X165197195Y-140222990D01*
X165187216Y-140222007D01*
X167073905Y-138335319D01*
X167091159Y-138321159D01*
X167124201Y-138280897D01*
X167185886Y-138247926D01*
X167258409Y-138188409D01*
X167317926Y-138115886D01*
X167362152Y-138033145D01*
X167389386Y-137943367D01*
X167398582Y-137850000D01*
X167398582Y-136200000D01*
X167389386Y-136106633D01*
X167362152Y-136016855D01*
X167317926Y-135934114D01*
X167267074Y-135872149D01*
X167437224Y-135702000D01*
X168012777Y-135702000D01*
X168032195Y-135721418D01*
X167890000Y-135721418D01*
X167796633Y-135730614D01*
X167706855Y-135757848D01*
X167624114Y-135802074D01*
X167551591Y-135861591D01*
X167492074Y-135934114D01*
X167447848Y-136016855D01*
X167420614Y-136106633D01*
X167411418Y-136200000D01*
X167411418Y-137850000D01*
X167420614Y-137943367D01*
X167447848Y-138033145D01*
X167492074Y-138115886D01*
X167551591Y-138188409D01*
X167624114Y-138247926D01*
X167706855Y-138292152D01*
X167796633Y-138319386D01*
X167890000Y-138328582D01*
X168190000Y-138328582D01*
X168283367Y-138319386D01*
X168373145Y-138292152D01*
X168455886Y-138247926D01*
X168528409Y-138188409D01*
X168587926Y-138115886D01*
X168632152Y-138033145D01*
X168659386Y-137943367D01*
X168668582Y-137850000D01*
X168668582Y-136357806D01*
X168914685Y-136603910D01*
X168928841Y-136621159D01*
X168997667Y-136677643D01*
X169076190Y-136719614D01*
X169141562Y-136739444D01*
X169161392Y-136745460D01*
X169171418Y-136746447D01*
X169171418Y-136850000D01*
X169177732Y-136914103D01*
X169196430Y-136975743D01*
X169226794Y-137032550D01*
X169267657Y-137082343D01*
X169317450Y-137123206D01*
X169374257Y-137153570D01*
X169435897Y-137172268D01*
X169500000Y-137178582D01*
X171600000Y-137178582D01*
X171664103Y-137172268D01*
X171725743Y-137153570D01*
X171782550Y-137123206D01*
X171832343Y-137082343D01*
X171873206Y-137032550D01*
X171903570Y-136975743D01*
X171922268Y-136914103D01*
X171928582Y-136850000D01*
X171928582Y-135750000D01*
X171922268Y-135685897D01*
X171903570Y-135624257D01*
X171873206Y-135567450D01*
X171832343Y-135517657D01*
X171782550Y-135476794D01*
X171725743Y-135446430D01*
X171664103Y-135427732D01*
X171600000Y-135421418D01*
X169500000Y-135421418D01*
X169435897Y-135427732D01*
X169374257Y-135446430D01*
X169317450Y-135476794D01*
X169267657Y-135517657D01*
X169226794Y-135567450D01*
X169202369Y-135613145D01*
X168535323Y-134946100D01*
X168521159Y-134928841D01*
X168452333Y-134872357D01*
X168373810Y-134830386D01*
X168288607Y-134804540D01*
X168222205Y-134798000D01*
X168200000Y-134795813D01*
X168177795Y-134798000D01*
X167272205Y-134798000D01*
X167250000Y-134795813D01*
X167161392Y-134804540D01*
X167106607Y-134821159D01*
X167076190Y-134830386D01*
X166997667Y-134872357D01*
X166928841Y-134928841D01*
X166914681Y-134946095D01*
X166466100Y-135394677D01*
X166448841Y-135408841D01*
X166392357Y-135477668D01*
X166370983Y-135517657D01*
X166350386Y-135556191D01*
X166324540Y-135641393D01*
X166315813Y-135730000D01*
X166318000Y-135752205D01*
X166318000Y-135831711D01*
X166281591Y-135861591D01*
X166222074Y-135934114D01*
X166177848Y-136016855D01*
X166150614Y-136106633D01*
X166141418Y-136200000D01*
X166141418Y-137850000D01*
X166150614Y-137943367D01*
X166159178Y-137971598D01*
X166097915Y-138032861D01*
X166095667Y-138021558D01*
X166119386Y-137943367D01*
X166128582Y-137850000D01*
X166128582Y-136200000D01*
X166119386Y-136106633D01*
X166092152Y-136016855D01*
X166047926Y-135934114D01*
X165988409Y-135861591D01*
X165915886Y-135802074D01*
X165833145Y-135757848D01*
X165743367Y-135730614D01*
X165650000Y-135721418D01*
X165350000Y-135721418D01*
X165256633Y-135730614D01*
X165166855Y-135757848D01*
X165084114Y-135802074D01*
X165011591Y-135861591D01*
X164952074Y-135934114D01*
X164907848Y-136016855D01*
X164880614Y-136106633D01*
X164871418Y-136200000D01*
X164871418Y-137600448D01*
X164858582Y-137613284D01*
X164858582Y-136200000D01*
X164849386Y-136106633D01*
X164822152Y-136016855D01*
X164777926Y-135934114D01*
X164718409Y-135861591D01*
X164645886Y-135802074D01*
X164563145Y-135757848D01*
X164473367Y-135730614D01*
X164380000Y-135721418D01*
X164137866Y-135721418D01*
X168054266Y-131627000D01*
X172323001Y-131627000D01*
X172323001Y-132301298D01*
G36*
X176848000Y-128633000D02*
G01*
X172508692Y-128633000D01*
X172500000Y-128632144D01*
X172491308Y-128633000D01*
X172465302Y-128635561D01*
X172431937Y-128645682D01*
X172401189Y-128662118D01*
X172374237Y-128684237D01*
X172352118Y-128711189D01*
X172335682Y-128741937D01*
X172325561Y-128775302D01*
X172322144Y-128810000D01*
X172323000Y-128818692D01*
X172323000Y-129373000D01*
X169052606Y-129373000D01*
X167339803Y-127660197D01*
X167320557Y-127644403D01*
X167298601Y-127632667D01*
X167274776Y-127625440D01*
X167250000Y-127623000D01*
X159000000Y-127623000D01*
X158975224Y-127625440D01*
X158951399Y-127632667D01*
X158929443Y-127644403D01*
X158910197Y-127660197D01*
X158894403Y-127679443D01*
X158882667Y-127701399D01*
X158875440Y-127725224D01*
X158873000Y-127750000D01*
X158873000Y-128623000D01*
X152152000Y-128623000D01*
X152152000Y-125902000D01*
X176848001Y-125902000D01*
X176848000Y-128633000D01*
G37*
X176848000Y-128633000D02*
X172508692Y-128633000D01*
X172500000Y-128632144D01*
X172491308Y-128633000D01*
X172465302Y-128635561D01*
X172431937Y-128645682D01*
X172401189Y-128662118D01*
X172374237Y-128684237D01*
X172352118Y-128711189D01*
X172335682Y-128741937D01*
X172325561Y-128775302D01*
X172322144Y-128810000D01*
X172323000Y-128818692D01*
X172323000Y-129373000D01*
X169052606Y-129373000D01*
X167339803Y-127660197D01*
X167320557Y-127644403D01*
X167298601Y-127632667D01*
X167274776Y-127625440D01*
X167250000Y-127623000D01*
X159000000Y-127623000D01*
X158975224Y-127625440D01*
X158951399Y-127632667D01*
X158929443Y-127644403D01*
X158910197Y-127660197D01*
X158894403Y-127679443D01*
X158882667Y-127701399D01*
X158875440Y-127725224D01*
X158873000Y-127750000D01*
X158873000Y-128623000D01*
X152152000Y-128623000D01*
X152152000Y-125902000D01*
X176848001Y-125902000D01*
X176848000Y-128633000D01*
M02*
