G04 #@! TF.GenerationSoftware,KiCad,Pcbnew,(5.1.6-0-10_14)*
G04 #@! TF.CreationDate,2020-08-04T00:19:05+09:00*
G04 #@! TF.ProjectId,teabiscuits_electrode_interface,74656162-6973-4637-9569-74735f656c65,rev?*
G04 #@! TF.SameCoordinates,Original*
G04 #@! TF.FileFunction,Soldermask,Bot*
G04 #@! TF.FilePolarity,Negative*
%FSLAX46Y46*%
G04 Gerber Fmt 4.6, Leading zero omitted, Abs format (unit mm)*
G04 Created by KiCad (PCBNEW (5.1.6-0-10_14)) date 2020-08-04 00:19:05*
%MOMM*%
%LPD*%
G01*
G04 APERTURE LIST*
%ADD10C,0.100000*%
G04 APERTURE END LIST*
D10*
G36*
X128302585Y-126478802D02*
G01*
X128452410Y-126508604D01*
X128734674Y-126625521D01*
X128988705Y-126795259D01*
X129204741Y-127011295D01*
X129374479Y-127265326D01*
X129491396Y-127547590D01*
X129551000Y-127847240D01*
X129551000Y-128152760D01*
X129491396Y-128452410D01*
X129374479Y-128734674D01*
X129204741Y-128988705D01*
X128988705Y-129204741D01*
X128734674Y-129374479D01*
X128452410Y-129491396D01*
X128302585Y-129521198D01*
X128152761Y-129551000D01*
X127847239Y-129551000D01*
X127697415Y-129521198D01*
X127547590Y-129491396D01*
X127265326Y-129374479D01*
X127011295Y-129204741D01*
X126795259Y-128988705D01*
X126625521Y-128734674D01*
X126508604Y-128452410D01*
X126449000Y-128152760D01*
X126449000Y-127847240D01*
X126508604Y-127547590D01*
X126625521Y-127265326D01*
X126795259Y-127011295D01*
X127011295Y-126795259D01*
X127265326Y-126625521D01*
X127547590Y-126508604D01*
X127697415Y-126478802D01*
X127847239Y-126449000D01*
X128152761Y-126449000D01*
X128302585Y-126478802D01*
G37*
G36*
X114302585Y-102478802D02*
G01*
X114452410Y-102508604D01*
X114734674Y-102625521D01*
X114988705Y-102795259D01*
X115204741Y-103011295D01*
X115374479Y-103265326D01*
X115491396Y-103547590D01*
X115551000Y-103847240D01*
X115551000Y-104152760D01*
X115491396Y-104452410D01*
X115374479Y-104734674D01*
X115204741Y-104988705D01*
X114988705Y-105204741D01*
X114734674Y-105374479D01*
X114452410Y-105491396D01*
X114302585Y-105521198D01*
X114152761Y-105551000D01*
X113847239Y-105551000D01*
X113697415Y-105521198D01*
X113547590Y-105491396D01*
X113265326Y-105374479D01*
X113011295Y-105204741D01*
X112795259Y-104988705D01*
X112625521Y-104734674D01*
X112508604Y-104452410D01*
X112449000Y-104152760D01*
X112449000Y-103847240D01*
X112508604Y-103547590D01*
X112625521Y-103265326D01*
X112795259Y-103011295D01*
X113011295Y-102795259D01*
X113265326Y-102625521D01*
X113547590Y-102508604D01*
X113697415Y-102478802D01*
X113847239Y-102449000D01*
X114152761Y-102449000D01*
X114302585Y-102478802D01*
G37*
G36*
X122302585Y-97478802D02*
G01*
X122452410Y-97508604D01*
X122734674Y-97625521D01*
X122988705Y-97795259D01*
X123204741Y-98011295D01*
X123374479Y-98265326D01*
X123491396Y-98547590D01*
X123551000Y-98847240D01*
X123551000Y-99152760D01*
X123491396Y-99452410D01*
X123374479Y-99734674D01*
X123204741Y-99988705D01*
X122988705Y-100204741D01*
X122734674Y-100374479D01*
X122452410Y-100491396D01*
X122302585Y-100521198D01*
X122152761Y-100551000D01*
X121847239Y-100551000D01*
X121697415Y-100521198D01*
X121547590Y-100491396D01*
X121265326Y-100374479D01*
X121011295Y-100204741D01*
X120795259Y-99988705D01*
X120625521Y-99734674D01*
X120508604Y-99452410D01*
X120449000Y-99152760D01*
X120449000Y-98847240D01*
X120508604Y-98547590D01*
X120625521Y-98265326D01*
X120795259Y-98011295D01*
X121011295Y-97795259D01*
X121265326Y-97625521D01*
X121547590Y-97508604D01*
X121697415Y-97478802D01*
X121847239Y-97449000D01*
X122152761Y-97449000D01*
X122302585Y-97478802D01*
G37*
G36*
X114302585Y-92478802D02*
G01*
X114452410Y-92508604D01*
X114734674Y-92625521D01*
X114988705Y-92795259D01*
X115204741Y-93011295D01*
X115374479Y-93265326D01*
X115491396Y-93547590D01*
X115551000Y-93847240D01*
X115551000Y-94152760D01*
X115491396Y-94452410D01*
X115374479Y-94734674D01*
X115204741Y-94988705D01*
X114988705Y-95204741D01*
X114734674Y-95374479D01*
X114452410Y-95491396D01*
X114302585Y-95521198D01*
X114152761Y-95551000D01*
X113847239Y-95551000D01*
X113697415Y-95521198D01*
X113547590Y-95491396D01*
X113265326Y-95374479D01*
X113011295Y-95204741D01*
X112795259Y-94988705D01*
X112625521Y-94734674D01*
X112508604Y-94452410D01*
X112449000Y-94152760D01*
X112449000Y-93847240D01*
X112508604Y-93547590D01*
X112625521Y-93265326D01*
X112795259Y-93011295D01*
X113011295Y-92795259D01*
X113265326Y-92625521D01*
X113547590Y-92508604D01*
X113697415Y-92478802D01*
X113847239Y-92449000D01*
X114152761Y-92449000D01*
X114302585Y-92478802D01*
G37*
G36*
X122302585Y-87478802D02*
G01*
X122452410Y-87508604D01*
X122734674Y-87625521D01*
X122988705Y-87795259D01*
X123204741Y-88011295D01*
X123374479Y-88265326D01*
X123491396Y-88547590D01*
X123551000Y-88847240D01*
X123551000Y-89152760D01*
X123491396Y-89452410D01*
X123374479Y-89734674D01*
X123204741Y-89988705D01*
X122988705Y-90204741D01*
X122734674Y-90374479D01*
X122452410Y-90491396D01*
X122302585Y-90521198D01*
X122152761Y-90551000D01*
X121847239Y-90551000D01*
X121697415Y-90521198D01*
X121547590Y-90491396D01*
X121265326Y-90374479D01*
X121011295Y-90204741D01*
X120795259Y-89988705D01*
X120625521Y-89734674D01*
X120508604Y-89452410D01*
X120449000Y-89152760D01*
X120449000Y-88847240D01*
X120508604Y-88547590D01*
X120625521Y-88265326D01*
X120795259Y-88011295D01*
X121011295Y-87795259D01*
X121265326Y-87625521D01*
X121547590Y-87508604D01*
X121697415Y-87478802D01*
X121847239Y-87449000D01*
X122152761Y-87449000D01*
X122302585Y-87478802D01*
G37*
G36*
X114302585Y-82478802D02*
G01*
X114452410Y-82508604D01*
X114734674Y-82625521D01*
X114988705Y-82795259D01*
X115204741Y-83011295D01*
X115374479Y-83265326D01*
X115491396Y-83547590D01*
X115551000Y-83847240D01*
X115551000Y-84152760D01*
X115491396Y-84452410D01*
X115374479Y-84734674D01*
X115204741Y-84988705D01*
X114988705Y-85204741D01*
X114734674Y-85374479D01*
X114452410Y-85491396D01*
X114302585Y-85521198D01*
X114152761Y-85551000D01*
X113847239Y-85551000D01*
X113697415Y-85521198D01*
X113547590Y-85491396D01*
X113265326Y-85374479D01*
X113011295Y-85204741D01*
X112795259Y-84988705D01*
X112625521Y-84734674D01*
X112508604Y-84452410D01*
X112449000Y-84152760D01*
X112449000Y-83847240D01*
X112508604Y-83547590D01*
X112625521Y-83265326D01*
X112795259Y-83011295D01*
X113011295Y-82795259D01*
X113265326Y-82625521D01*
X113547590Y-82508604D01*
X113697415Y-82478802D01*
X113847239Y-82449000D01*
X114152761Y-82449000D01*
X114302585Y-82478802D01*
G37*
G36*
X122302585Y-77478802D02*
G01*
X122452410Y-77508604D01*
X122734674Y-77625521D01*
X122988705Y-77795259D01*
X123204741Y-78011295D01*
X123374479Y-78265326D01*
X123491396Y-78547590D01*
X123551000Y-78847240D01*
X123551000Y-79152760D01*
X123491396Y-79452410D01*
X123374479Y-79734674D01*
X123204741Y-79988705D01*
X122988705Y-80204741D01*
X122734674Y-80374479D01*
X122452410Y-80491396D01*
X122302585Y-80521198D01*
X122152761Y-80551000D01*
X121847239Y-80551000D01*
X121697415Y-80521198D01*
X121547590Y-80491396D01*
X121265326Y-80374479D01*
X121011295Y-80204741D01*
X120795259Y-79988705D01*
X120625521Y-79734674D01*
X120508604Y-79452410D01*
X120449000Y-79152760D01*
X120449000Y-78847240D01*
X120508604Y-78547590D01*
X120625521Y-78265326D01*
X120795259Y-78011295D01*
X121011295Y-77795259D01*
X121265326Y-77625521D01*
X121547590Y-77508604D01*
X121697415Y-77478802D01*
X121847239Y-77449000D01*
X122152761Y-77449000D01*
X122302585Y-77478802D01*
G37*
G36*
X114302585Y-72478802D02*
G01*
X114452410Y-72508604D01*
X114734674Y-72625521D01*
X114988705Y-72795259D01*
X115204741Y-73011295D01*
X115374479Y-73265326D01*
X115491396Y-73547590D01*
X115551000Y-73847240D01*
X115551000Y-74152760D01*
X115491396Y-74452410D01*
X115374479Y-74734674D01*
X115204741Y-74988705D01*
X114988705Y-75204741D01*
X114734674Y-75374479D01*
X114452410Y-75491396D01*
X114302585Y-75521198D01*
X114152761Y-75551000D01*
X113847239Y-75551000D01*
X113697415Y-75521198D01*
X113547590Y-75491396D01*
X113265326Y-75374479D01*
X113011295Y-75204741D01*
X112795259Y-74988705D01*
X112625521Y-74734674D01*
X112508604Y-74452410D01*
X112449000Y-74152760D01*
X112449000Y-73847240D01*
X112508604Y-73547590D01*
X112625521Y-73265326D01*
X112795259Y-73011295D01*
X113011295Y-72795259D01*
X113265326Y-72625521D01*
X113547590Y-72508604D01*
X113697415Y-72478802D01*
X113847239Y-72449000D01*
X114152761Y-72449000D01*
X114302585Y-72478802D01*
G37*
G36*
X122302585Y-67478802D02*
G01*
X122452410Y-67508604D01*
X122734674Y-67625521D01*
X122988705Y-67795259D01*
X123204741Y-68011295D01*
X123374479Y-68265326D01*
X123491396Y-68547590D01*
X123551000Y-68847240D01*
X123551000Y-69152760D01*
X123491396Y-69452410D01*
X123374479Y-69734674D01*
X123204741Y-69988705D01*
X122988705Y-70204741D01*
X122734674Y-70374479D01*
X122452410Y-70491396D01*
X122302585Y-70521198D01*
X122152761Y-70551000D01*
X121847239Y-70551000D01*
X121697415Y-70521198D01*
X121547590Y-70491396D01*
X121265326Y-70374479D01*
X121011295Y-70204741D01*
X120795259Y-69988705D01*
X120625521Y-69734674D01*
X120508604Y-69452410D01*
X120449000Y-69152760D01*
X120449000Y-68847240D01*
X120508604Y-68547590D01*
X120625521Y-68265326D01*
X120795259Y-68011295D01*
X121011295Y-67795259D01*
X121265326Y-67625521D01*
X121547590Y-67508604D01*
X121697415Y-67478802D01*
X121847239Y-67449000D01*
X122152761Y-67449000D01*
X122302585Y-67478802D01*
G37*
G36*
X128302585Y-43478802D02*
G01*
X128452410Y-43508604D01*
X128734674Y-43625521D01*
X128988705Y-43795259D01*
X129204741Y-44011295D01*
X129374479Y-44265326D01*
X129491396Y-44547590D01*
X129551000Y-44847240D01*
X129551000Y-45152760D01*
X129491396Y-45452410D01*
X129374479Y-45734674D01*
X129204741Y-45988705D01*
X128988705Y-46204741D01*
X128734674Y-46374479D01*
X128452410Y-46491396D01*
X128302585Y-46521198D01*
X128152761Y-46551000D01*
X127847239Y-46551000D01*
X127697415Y-46521198D01*
X127547590Y-46491396D01*
X127265326Y-46374479D01*
X127011295Y-46204741D01*
X126795259Y-45988705D01*
X126625521Y-45734674D01*
X126508604Y-45452410D01*
X126449000Y-45152760D01*
X126449000Y-44847240D01*
X126508604Y-44547590D01*
X126625521Y-44265326D01*
X126795259Y-44011295D01*
X127011295Y-43795259D01*
X127265326Y-43625521D01*
X127547590Y-43508604D01*
X127697415Y-43478802D01*
X127847239Y-43449000D01*
X128152761Y-43449000D01*
X128302585Y-43478802D01*
G37*
M02*
