G04 #@! TF.GenerationSoftware,KiCad,Pcbnew,(5.1.6-0-10_14)*
G04 #@! TF.CreationDate,2020-08-04T00:19:05+09:00*
G04 #@! TF.ProjectId,teabiscuits_electrode_interface,74656162-6973-4637-9569-74735f656c65,rev?*
G04 #@! TF.SameCoordinates,Original*
G04 #@! TF.FileFunction,Profile,NP*
%FSLAX46Y46*%
G04 Gerber Fmt 4.6, Leading zero omitted, Abs format (unit mm)*
G04 Created by KiCad (PCBNEW (5.1.6-0-10_14)) date 2020-08-04 00:19:05*
%MOMM*%
%LPD*%
G01*
G04 APERTURE LIST*
G04 #@! TA.AperFunction,Profile*
%ADD10C,0.050000*%
G04 #@! TD*
G04 #@! TA.AperFunction,Profile*
%ADD11C,0.100000*%
G04 #@! TD*
G04 APERTURE END LIST*
D10*
X144950000Y-54750000D02*
X144950000Y-46250000D01*
X144950000Y-66750000D02*
X144950000Y-58250000D01*
X144950000Y-78750000D02*
X144950000Y-70250000D01*
X144950000Y-90750000D02*
X144950000Y-82250000D01*
X144950000Y-102750000D02*
X144950000Y-94250000D01*
X144950000Y-114750000D02*
X144950000Y-106250000D01*
X144950000Y-126750000D02*
X144950000Y-118250000D01*
X144950000Y-131300000D02*
X144950000Y-130250000D01*
X124950000Y-131300000D02*
X144950000Y-131300000D01*
X124950000Y-107100000D02*
X124950000Y-131300000D01*
X110950000Y-107100000D02*
X124950000Y-107100000D01*
X110950000Y-65900000D02*
X110950000Y-107100000D01*
X124950000Y-65900000D02*
X110950000Y-65900000D01*
X124950000Y-41700000D02*
X124950000Y-65900000D01*
X144950000Y-41700000D02*
X124950000Y-41700000D01*
X144950000Y-42750000D02*
X144950000Y-41700000D01*
D11*
X140450000Y-46250000D02*
X144950000Y-46250000D01*
X140450000Y-42750000D02*
X140450000Y-46250000D01*
X144950000Y-42750000D02*
X140450000Y-42750000D01*
X140450000Y-130250000D02*
X144950000Y-130250000D01*
X140450000Y-126750000D02*
X140450000Y-130250000D01*
X144950000Y-126750000D02*
X140450000Y-126750000D01*
X140450000Y-118250000D02*
X144950000Y-118250000D01*
X140450000Y-114750000D02*
X140450000Y-118250000D01*
X144950000Y-114750000D02*
X140450000Y-114750000D01*
X140450000Y-106250000D02*
X144950000Y-106250000D01*
X140450000Y-102750000D02*
X140450000Y-106250000D01*
X144950000Y-102750000D02*
X140450000Y-102750000D01*
X140450000Y-94250000D02*
X144950000Y-94250000D01*
X140450000Y-90750000D02*
X140450000Y-94250000D01*
X144950000Y-90750000D02*
X140450000Y-90750000D01*
X140450000Y-82250000D02*
X144950000Y-82250000D01*
X140450000Y-78750000D02*
X140450000Y-82250000D01*
X144950000Y-78750000D02*
X140450000Y-78750000D01*
X140450000Y-70250000D02*
X144950000Y-70250000D01*
X140450000Y-66750000D02*
X140450000Y-70250000D01*
X144950000Y-66750000D02*
X140450000Y-66750000D01*
X140450000Y-58250000D02*
X144950000Y-58250000D01*
X140450000Y-54750000D02*
X140450000Y-58250000D01*
X144950000Y-54750000D02*
X140450000Y-54750000D01*
M02*
