G04 #@! TF.GenerationSoftware,KiCad,Pcbnew,(5.1.6-0-10_14)*
G04 #@! TF.CreationDate,2020-08-04T00:19:05+09:00*
G04 #@! TF.ProjectId,teabiscuits_electrode_interface,74656162-6973-4637-9569-74735f656c65,rev?*
G04 #@! TF.SameCoordinates,Original*
G04 #@! TF.FileFunction,Copper,L1,Top*
G04 #@! TF.FilePolarity,Positive*
%FSLAX46Y46*%
G04 Gerber Fmt 4.6, Leading zero omitted, Abs format (unit mm)*
G04 Created by KiCad (PCBNEW (5.1.6-0-10_14)) date 2020-08-04 00:19:05*
%MOMM*%
%LPD*%
G01*
G04 APERTURE LIST*
G04 #@! TA.AperFunction,SMDPad,CuDef*
%ADD10C,0.100000*%
G04 #@! TD*
G04 #@! TA.AperFunction,SMDPad,CuDef*
%ADD11R,2.100000X1.100000*%
G04 #@! TD*
G04 #@! TA.AperFunction,ComponentPad*
%ADD12C,3.000000*%
G04 #@! TD*
G04 #@! TA.AperFunction,ViaPad*
%ADD13C,2.200000*%
G04 #@! TD*
G04 #@! TA.AperFunction,Conductor*
%ADD14C,1.000000*%
G04 #@! TD*
G04 APERTURE END LIST*
G04 #@! TA.AperFunction,SMDPad,CuDef*
D10*
G36*
X137450000Y-42200000D02*
G01*
X144950000Y-42200000D01*
X144950000Y-42750000D01*
X140450000Y-42750000D01*
X140450000Y-43680000D01*
X137450000Y-43680000D01*
X137450000Y-42200000D01*
G37*
G04 #@! TD.AperFunction*
G04 #@! TA.AperFunction,SMDPad,CuDef*
G36*
X137450000Y-45320000D02*
G01*
X140450000Y-45320000D01*
X140450000Y-46250000D01*
X144950000Y-46250000D01*
X144950000Y-46800000D01*
X137450000Y-46800000D01*
X137450000Y-45320000D01*
G37*
G04 #@! TD.AperFunction*
D11*
X138500000Y-44500000D03*
D12*
X128000000Y-128000000D03*
X128000000Y-45000000D03*
G04 #@! TA.AperFunction,SMDPad,CuDef*
D10*
G36*
X137450000Y-126200000D02*
G01*
X144950000Y-126200000D01*
X144950000Y-126750000D01*
X140450000Y-126750000D01*
X140450000Y-127680000D01*
X137450000Y-127680000D01*
X137450000Y-126200000D01*
G37*
G04 #@! TD.AperFunction*
G04 #@! TA.AperFunction,SMDPad,CuDef*
G36*
X137450000Y-129320000D02*
G01*
X140450000Y-129320000D01*
X140450000Y-130250000D01*
X144950000Y-130250000D01*
X144950000Y-130800000D01*
X137450000Y-130800000D01*
X137450000Y-129320000D01*
G37*
G04 #@! TD.AperFunction*
D11*
X138500000Y-128500000D03*
G04 #@! TA.AperFunction,SMDPad,CuDef*
D10*
G36*
X137450000Y-114200000D02*
G01*
X144950000Y-114200000D01*
X144950000Y-114750000D01*
X140450000Y-114750000D01*
X140450000Y-115680000D01*
X137450000Y-115680000D01*
X137450000Y-114200000D01*
G37*
G04 #@! TD.AperFunction*
G04 #@! TA.AperFunction,SMDPad,CuDef*
G36*
X137450000Y-117320000D02*
G01*
X140450000Y-117320000D01*
X140450000Y-118250000D01*
X144950000Y-118250000D01*
X144950000Y-118800000D01*
X137450000Y-118800000D01*
X137450000Y-117320000D01*
G37*
G04 #@! TD.AperFunction*
D11*
X138500000Y-116500000D03*
G04 #@! TA.AperFunction,SMDPad,CuDef*
D10*
G36*
X137450000Y-102200000D02*
G01*
X144950000Y-102200000D01*
X144950000Y-102750000D01*
X140450000Y-102750000D01*
X140450000Y-103680000D01*
X137450000Y-103680000D01*
X137450000Y-102200000D01*
G37*
G04 #@! TD.AperFunction*
G04 #@! TA.AperFunction,SMDPad,CuDef*
G36*
X137450000Y-105320000D02*
G01*
X140450000Y-105320000D01*
X140450000Y-106250000D01*
X144950000Y-106250000D01*
X144950000Y-106800000D01*
X137450000Y-106800000D01*
X137450000Y-105320000D01*
G37*
G04 #@! TD.AperFunction*
D11*
X138500000Y-104500000D03*
G04 #@! TA.AperFunction,SMDPad,CuDef*
D10*
G36*
X137450000Y-90200000D02*
G01*
X144950000Y-90200000D01*
X144950000Y-90750000D01*
X140450000Y-90750000D01*
X140450000Y-91680000D01*
X137450000Y-91680000D01*
X137450000Y-90200000D01*
G37*
G04 #@! TD.AperFunction*
G04 #@! TA.AperFunction,SMDPad,CuDef*
G36*
X137450000Y-93320000D02*
G01*
X140450000Y-93320000D01*
X140450000Y-94250000D01*
X144950000Y-94250000D01*
X144950000Y-94800000D01*
X137450000Y-94800000D01*
X137450000Y-93320000D01*
G37*
G04 #@! TD.AperFunction*
D11*
X138500000Y-92500000D03*
G04 #@! TA.AperFunction,SMDPad,CuDef*
D10*
G36*
X137450000Y-78200000D02*
G01*
X144950000Y-78200000D01*
X144950000Y-78750000D01*
X140450000Y-78750000D01*
X140450000Y-79680000D01*
X137450000Y-79680000D01*
X137450000Y-78200000D01*
G37*
G04 #@! TD.AperFunction*
G04 #@! TA.AperFunction,SMDPad,CuDef*
G36*
X137450000Y-81320000D02*
G01*
X140450000Y-81320000D01*
X140450000Y-82250000D01*
X144950000Y-82250000D01*
X144950000Y-82800000D01*
X137450000Y-82800000D01*
X137450000Y-81320000D01*
G37*
G04 #@! TD.AperFunction*
D11*
X138500000Y-80500000D03*
G04 #@! TA.AperFunction,SMDPad,CuDef*
D10*
G36*
X137450000Y-66200000D02*
G01*
X144950000Y-66200000D01*
X144950000Y-66750000D01*
X140450000Y-66750000D01*
X140450000Y-67680000D01*
X137450000Y-67680000D01*
X137450000Y-66200000D01*
G37*
G04 #@! TD.AperFunction*
G04 #@! TA.AperFunction,SMDPad,CuDef*
G36*
X137450000Y-69320000D02*
G01*
X140450000Y-69320000D01*
X140450000Y-70250000D01*
X144950000Y-70250000D01*
X144950000Y-70800000D01*
X137450000Y-70800000D01*
X137450000Y-69320000D01*
G37*
G04 #@! TD.AperFunction*
D11*
X138500000Y-68500000D03*
G04 #@! TA.AperFunction,SMDPad,CuDef*
D10*
G36*
X137450000Y-54200000D02*
G01*
X144950000Y-54200000D01*
X144950000Y-54750000D01*
X140450000Y-54750000D01*
X140450000Y-55680000D01*
X137450000Y-55680000D01*
X137450000Y-54200000D01*
G37*
G04 #@! TD.AperFunction*
G04 #@! TA.AperFunction,SMDPad,CuDef*
G36*
X137450000Y-57320000D02*
G01*
X140450000Y-57320000D01*
X140450000Y-58250000D01*
X144950000Y-58250000D01*
X144950000Y-58800000D01*
X137450000Y-58800000D01*
X137450000Y-57320000D01*
G37*
G04 #@! TD.AperFunction*
D11*
X138500000Y-56500000D03*
D12*
X114000000Y-104000000D03*
X122000000Y-99000000D03*
X114000000Y-94000000D03*
X122000000Y-89000000D03*
X114000000Y-84000000D03*
X122000000Y-79000000D03*
X114000000Y-74000000D03*
X122000000Y-69000000D03*
D13*
X128000000Y-121000000D03*
X128000000Y-51000000D03*
D14*
X125000000Y-69000000D02*
X122000000Y-69000000D01*
X128500000Y-65500000D02*
X125000000Y-69000000D01*
X128500000Y-65500000D02*
X128500000Y-55500000D01*
X128500000Y-55500000D02*
X135000000Y-49000000D01*
X135000000Y-45950000D02*
X135000000Y-49000000D01*
X136450000Y-44500000D02*
X135000000Y-45950000D01*
X138500000Y-44500000D02*
X136450000Y-44500000D01*
X131500000Y-60000000D02*
X135000000Y-56500000D01*
X135000000Y-56500000D02*
X138500000Y-56500000D01*
X131500000Y-66500000D02*
X131500000Y-60000000D01*
X114000000Y-74000000D02*
X124000000Y-74000000D01*
X124000000Y-74000000D02*
X131500000Y-66500000D01*
X136780034Y-69000000D02*
X137280034Y-68500000D01*
X137280034Y-68500000D02*
X138500000Y-68500000D01*
X136500000Y-69000000D02*
X136780034Y-69000000D01*
X126500000Y-79000000D02*
X136500000Y-69000000D01*
X122000000Y-79000000D02*
X126500000Y-79000000D01*
X138500000Y-80500000D02*
X135000000Y-80500000D01*
X135000000Y-80500000D02*
X131500000Y-84000000D01*
X131500000Y-84000000D02*
X114000000Y-84000000D01*
X137880010Y-92380010D02*
X135380010Y-92380010D01*
X138500000Y-92500000D02*
X138000000Y-92500000D01*
X138000000Y-92500000D02*
X137880010Y-92380010D01*
X132000000Y-89000000D02*
X122000000Y-89000000D01*
X135380010Y-92380010D02*
X132000000Y-89000000D01*
X114777817Y-94000000D02*
X114000000Y-94000000D01*
X126780034Y-94000000D02*
X114777817Y-94000000D01*
X137280034Y-104500000D02*
X126780034Y-94000000D01*
X138500000Y-104500000D02*
X137280034Y-104500000D01*
X133000000Y-116500000D02*
X138500000Y-116500000D01*
X128500000Y-103000000D02*
X128500000Y-112000000D01*
X122000000Y-99000000D02*
X124500000Y-99000000D01*
X128500000Y-112000000D02*
X133000000Y-116500000D01*
X124500000Y-99000000D02*
X128500000Y-103000000D01*
X114000000Y-104000000D02*
X125000000Y-104000000D01*
X125000000Y-104000000D02*
X126000000Y-105000000D01*
X136450000Y-125450000D02*
X136450000Y-128500000D01*
X126000000Y-105000000D02*
X126000000Y-115000000D01*
X136450000Y-128500000D02*
X138500000Y-128500000D01*
X126000000Y-115000000D02*
X136450000Y-125450000D01*
X130060000Y-130060000D02*
X128000000Y-128000000D01*
X138950000Y-130060000D02*
X130060000Y-130060000D01*
X130060000Y-42940000D02*
X128000000Y-45000000D01*
X138950000Y-42940000D02*
X130060000Y-42940000D01*
M02*
