G04 #@! TF.GenerationSoftware,KiCad,Pcbnew,(5.1.6-0-10_14)*
G04 #@! TF.CreationDate,2020-08-04T00:19:05+09:00*
G04 #@! TF.ProjectId,teabiscuits_electrode_interface,74656162-6973-4637-9569-74735f656c65,rev?*
G04 #@! TF.SameCoordinates,Original*
G04 #@! TF.FileFunction,Soldermask,Top*
G04 #@! TF.FilePolarity,Negative*
%FSLAX46Y46*%
G04 Gerber Fmt 4.6, Leading zero omitted, Abs format (unit mm)*
G04 Created by KiCad (PCBNEW (5.1.6-0-10_14)) date 2020-08-04 00:19:05*
%MOMM*%
%LPD*%
G01*
G04 APERTURE LIST*
%ADD10C,0.100000*%
G04 APERTURE END LIST*
D10*
G36*
X144959999Y-126149737D02*
G01*
X144969608Y-126152652D01*
X144978472Y-126157390D01*
X144986237Y-126163763D01*
X144992610Y-126171528D01*
X144997348Y-126180392D01*
X145000263Y-126190001D01*
X145001852Y-126206140D01*
X145001852Y-126743860D01*
X145000263Y-126759999D01*
X144997348Y-126769608D01*
X144992610Y-126778472D01*
X144986237Y-126786237D01*
X144978472Y-126792610D01*
X144969608Y-126797348D01*
X144959999Y-126800263D01*
X144943860Y-126801852D01*
X140626851Y-126801852D01*
X140602465Y-126804254D01*
X140579016Y-126811367D01*
X140557405Y-126822918D01*
X140538463Y-126838463D01*
X140522918Y-126857405D01*
X140511367Y-126879016D01*
X140504254Y-126902465D01*
X140501852Y-126926851D01*
X140501852Y-127673860D01*
X140500263Y-127689999D01*
X140497348Y-127699608D01*
X140492610Y-127708472D01*
X140486237Y-127716237D01*
X140478472Y-127722610D01*
X140469608Y-127727348D01*
X140459999Y-127730263D01*
X140443860Y-127731852D01*
X139725999Y-127731852D01*
X139701613Y-127734254D01*
X139678164Y-127741367D01*
X139656553Y-127752918D01*
X139637611Y-127768463D01*
X139622066Y-127787405D01*
X139610515Y-127809016D01*
X139603402Y-127832465D01*
X139601000Y-127856851D01*
X139601000Y-129143149D01*
X139603402Y-129167535D01*
X139610515Y-129190984D01*
X139622066Y-129212595D01*
X139637611Y-129231537D01*
X139656553Y-129247082D01*
X139678164Y-129258633D01*
X139701613Y-129265746D01*
X139725999Y-129268148D01*
X140443860Y-129268148D01*
X140459999Y-129269737D01*
X140469608Y-129272652D01*
X140478472Y-129277390D01*
X140486237Y-129283763D01*
X140492610Y-129291528D01*
X140497348Y-129300392D01*
X140500263Y-129310001D01*
X140501852Y-129326140D01*
X140501852Y-130073149D01*
X140504254Y-130097535D01*
X140511367Y-130120984D01*
X140522918Y-130142595D01*
X140538463Y-130161537D01*
X140557405Y-130177082D01*
X140579016Y-130188633D01*
X140602465Y-130195746D01*
X140626851Y-130198148D01*
X144943860Y-130198148D01*
X144959999Y-130199737D01*
X144969608Y-130202652D01*
X144978472Y-130207390D01*
X144986237Y-130213763D01*
X144992610Y-130221528D01*
X144997348Y-130230392D01*
X145000263Y-130240001D01*
X145001852Y-130256140D01*
X145001852Y-130793860D01*
X145000263Y-130809999D01*
X144997348Y-130819608D01*
X144992610Y-130828472D01*
X144986237Y-130836237D01*
X144978472Y-130842610D01*
X144969608Y-130847348D01*
X144959999Y-130850263D01*
X144943860Y-130851852D01*
X137456140Y-130851852D01*
X137440001Y-130850263D01*
X137430392Y-130847348D01*
X137421528Y-130842610D01*
X137413763Y-130836237D01*
X137407390Y-130828472D01*
X137402652Y-130819608D01*
X137399737Y-130809999D01*
X137398148Y-130793860D01*
X137398148Y-129326140D01*
X137399737Y-129310001D01*
X137402653Y-129300389D01*
X137410920Y-129284923D01*
X137420298Y-129262285D01*
X137425078Y-129238251D01*
X137425078Y-129213747D01*
X137420298Y-129189714D01*
X137410920Y-129167075D01*
X137399000Y-129149235D01*
X137399000Y-127850288D01*
X137404614Y-127843447D01*
X137416165Y-127821836D01*
X137423278Y-127798387D01*
X137425680Y-127774001D01*
X137423278Y-127749615D01*
X137416165Y-127726166D01*
X137410920Y-127715077D01*
X137402653Y-127699611D01*
X137399737Y-127689999D01*
X137398148Y-127673860D01*
X137398148Y-126206140D01*
X137399737Y-126190001D01*
X137402652Y-126180392D01*
X137407390Y-126171528D01*
X137413763Y-126163763D01*
X137421528Y-126157390D01*
X137430392Y-126152652D01*
X137440001Y-126149737D01*
X137456140Y-126148148D01*
X144943860Y-126148148D01*
X144959999Y-126149737D01*
G37*
G36*
X128302585Y-126478802D02*
G01*
X128452410Y-126508604D01*
X128734674Y-126625521D01*
X128988705Y-126795259D01*
X129204741Y-127011295D01*
X129374479Y-127265326D01*
X129491396Y-127547590D01*
X129551000Y-127847240D01*
X129551000Y-128152760D01*
X129491396Y-128452410D01*
X129374479Y-128734674D01*
X129204741Y-128988705D01*
X128988705Y-129204741D01*
X128734674Y-129374479D01*
X128452410Y-129491396D01*
X128302585Y-129521198D01*
X128152761Y-129551000D01*
X127847239Y-129551000D01*
X127697415Y-129521198D01*
X127547590Y-129491396D01*
X127265326Y-129374479D01*
X127011295Y-129204741D01*
X126795259Y-128988705D01*
X126625521Y-128734674D01*
X126508604Y-128452410D01*
X126449000Y-128152760D01*
X126449000Y-127847240D01*
X126508604Y-127547590D01*
X126625521Y-127265326D01*
X126795259Y-127011295D01*
X127011295Y-126795259D01*
X127265326Y-126625521D01*
X127547590Y-126508604D01*
X127697415Y-126478802D01*
X127847239Y-126449000D01*
X128152761Y-126449000D01*
X128302585Y-126478802D01*
G37*
G36*
X144959999Y-114149737D02*
G01*
X144969608Y-114152652D01*
X144978472Y-114157390D01*
X144986237Y-114163763D01*
X144992610Y-114171528D01*
X144997348Y-114180392D01*
X145000263Y-114190001D01*
X145001852Y-114206140D01*
X145001852Y-114743860D01*
X145000263Y-114759999D01*
X144997348Y-114769608D01*
X144992610Y-114778472D01*
X144986237Y-114786237D01*
X144978472Y-114792610D01*
X144969608Y-114797348D01*
X144959999Y-114800263D01*
X144943860Y-114801852D01*
X140626851Y-114801852D01*
X140602465Y-114804254D01*
X140579016Y-114811367D01*
X140557405Y-114822918D01*
X140538463Y-114838463D01*
X140522918Y-114857405D01*
X140511367Y-114879016D01*
X140504254Y-114902465D01*
X140501852Y-114926851D01*
X140501852Y-115673860D01*
X140500263Y-115689999D01*
X140497348Y-115699608D01*
X140492610Y-115708472D01*
X140486237Y-115716237D01*
X140478472Y-115722610D01*
X140469608Y-115727348D01*
X140459999Y-115730263D01*
X140443860Y-115731852D01*
X139725999Y-115731852D01*
X139701613Y-115734254D01*
X139678164Y-115741367D01*
X139656553Y-115752918D01*
X139637611Y-115768463D01*
X139622066Y-115787405D01*
X139610515Y-115809016D01*
X139603402Y-115832465D01*
X139601000Y-115856851D01*
X139601000Y-117143149D01*
X139603402Y-117167535D01*
X139610515Y-117190984D01*
X139622066Y-117212595D01*
X139637611Y-117231537D01*
X139656553Y-117247082D01*
X139678164Y-117258633D01*
X139701613Y-117265746D01*
X139725999Y-117268148D01*
X140443860Y-117268148D01*
X140459999Y-117269737D01*
X140469608Y-117272652D01*
X140478472Y-117277390D01*
X140486237Y-117283763D01*
X140492610Y-117291528D01*
X140497348Y-117300392D01*
X140500263Y-117310001D01*
X140501852Y-117326140D01*
X140501852Y-118073149D01*
X140504254Y-118097535D01*
X140511367Y-118120984D01*
X140522918Y-118142595D01*
X140538463Y-118161537D01*
X140557405Y-118177082D01*
X140579016Y-118188633D01*
X140602465Y-118195746D01*
X140626851Y-118198148D01*
X144943860Y-118198148D01*
X144959999Y-118199737D01*
X144969608Y-118202652D01*
X144978472Y-118207390D01*
X144986237Y-118213763D01*
X144992610Y-118221528D01*
X144997348Y-118230392D01*
X145000263Y-118240001D01*
X145001852Y-118256140D01*
X145001852Y-118793860D01*
X145000263Y-118809999D01*
X144997348Y-118819608D01*
X144992610Y-118828472D01*
X144986237Y-118836237D01*
X144978472Y-118842610D01*
X144969608Y-118847348D01*
X144959999Y-118850263D01*
X144943860Y-118851852D01*
X137456140Y-118851852D01*
X137440001Y-118850263D01*
X137430392Y-118847348D01*
X137421528Y-118842610D01*
X137413763Y-118836237D01*
X137407390Y-118828472D01*
X137402652Y-118819608D01*
X137399737Y-118809999D01*
X137398148Y-118793860D01*
X137398148Y-117326140D01*
X137399737Y-117310001D01*
X137402653Y-117300389D01*
X137410920Y-117284923D01*
X137420298Y-117262285D01*
X137425078Y-117238251D01*
X137425078Y-117213747D01*
X137420298Y-117189714D01*
X137410920Y-117167075D01*
X137399000Y-117149235D01*
X137399000Y-115850288D01*
X137404614Y-115843447D01*
X137416165Y-115821836D01*
X137423278Y-115798387D01*
X137425680Y-115774001D01*
X137423278Y-115749615D01*
X137416165Y-115726166D01*
X137410920Y-115715077D01*
X137402653Y-115699611D01*
X137399737Y-115689999D01*
X137398148Y-115673860D01*
X137398148Y-114206140D01*
X137399737Y-114190001D01*
X137402652Y-114180392D01*
X137407390Y-114171528D01*
X137413763Y-114163763D01*
X137421528Y-114157390D01*
X137430392Y-114152652D01*
X137440001Y-114149737D01*
X137456140Y-114148148D01*
X144943860Y-114148148D01*
X144959999Y-114149737D01*
G37*
G36*
X144959999Y-102149737D02*
G01*
X144969608Y-102152652D01*
X144978472Y-102157390D01*
X144986237Y-102163763D01*
X144992610Y-102171528D01*
X144997348Y-102180392D01*
X145000263Y-102190001D01*
X145001852Y-102206140D01*
X145001852Y-102743860D01*
X145000263Y-102759999D01*
X144997348Y-102769608D01*
X144992610Y-102778472D01*
X144986237Y-102786237D01*
X144978472Y-102792610D01*
X144969608Y-102797348D01*
X144959999Y-102800263D01*
X144943860Y-102801852D01*
X140626851Y-102801852D01*
X140602465Y-102804254D01*
X140579016Y-102811367D01*
X140557405Y-102822918D01*
X140538463Y-102838463D01*
X140522918Y-102857405D01*
X140511367Y-102879016D01*
X140504254Y-102902465D01*
X140501852Y-102926851D01*
X140501852Y-103673860D01*
X140500263Y-103689999D01*
X140497348Y-103699608D01*
X140492610Y-103708472D01*
X140486237Y-103716237D01*
X140478472Y-103722610D01*
X140469608Y-103727348D01*
X140459999Y-103730263D01*
X140443860Y-103731852D01*
X139725999Y-103731852D01*
X139701613Y-103734254D01*
X139678164Y-103741367D01*
X139656553Y-103752918D01*
X139637611Y-103768463D01*
X139622066Y-103787405D01*
X139610515Y-103809016D01*
X139603402Y-103832465D01*
X139601000Y-103856851D01*
X139601000Y-105143149D01*
X139603402Y-105167535D01*
X139610515Y-105190984D01*
X139622066Y-105212595D01*
X139637611Y-105231537D01*
X139656553Y-105247082D01*
X139678164Y-105258633D01*
X139701613Y-105265746D01*
X139725999Y-105268148D01*
X140443860Y-105268148D01*
X140459999Y-105269737D01*
X140469608Y-105272652D01*
X140478472Y-105277390D01*
X140486237Y-105283763D01*
X140492610Y-105291528D01*
X140497348Y-105300392D01*
X140500263Y-105310001D01*
X140501852Y-105326140D01*
X140501852Y-106073149D01*
X140504254Y-106097535D01*
X140511367Y-106120984D01*
X140522918Y-106142595D01*
X140538463Y-106161537D01*
X140557405Y-106177082D01*
X140579016Y-106188633D01*
X140602465Y-106195746D01*
X140626851Y-106198148D01*
X144943860Y-106198148D01*
X144959999Y-106199737D01*
X144969608Y-106202652D01*
X144978472Y-106207390D01*
X144986237Y-106213763D01*
X144992610Y-106221528D01*
X144997348Y-106230392D01*
X145000263Y-106240001D01*
X145001852Y-106256140D01*
X145001852Y-106793860D01*
X145000263Y-106809999D01*
X144997348Y-106819608D01*
X144992610Y-106828472D01*
X144986237Y-106836237D01*
X144978472Y-106842610D01*
X144969608Y-106847348D01*
X144959999Y-106850263D01*
X144943860Y-106851852D01*
X137456140Y-106851852D01*
X137440001Y-106850263D01*
X137430392Y-106847348D01*
X137421528Y-106842610D01*
X137413763Y-106836237D01*
X137407390Y-106828472D01*
X137402652Y-106819608D01*
X137399737Y-106809999D01*
X137398148Y-106793860D01*
X137398148Y-105326140D01*
X137399737Y-105310001D01*
X137402653Y-105300389D01*
X137410920Y-105284923D01*
X137420298Y-105262285D01*
X137425078Y-105238251D01*
X137425078Y-105213747D01*
X137420298Y-105189714D01*
X137410920Y-105167075D01*
X137399000Y-105149235D01*
X137399000Y-103850288D01*
X137404614Y-103843447D01*
X137416165Y-103821836D01*
X137423278Y-103798387D01*
X137425680Y-103774001D01*
X137423278Y-103749615D01*
X137416165Y-103726166D01*
X137410920Y-103715077D01*
X137402653Y-103699611D01*
X137399737Y-103689999D01*
X137398148Y-103673860D01*
X137398148Y-102206140D01*
X137399737Y-102190001D01*
X137402652Y-102180392D01*
X137407390Y-102171528D01*
X137413763Y-102163763D01*
X137421528Y-102157390D01*
X137430392Y-102152652D01*
X137440001Y-102149737D01*
X137456140Y-102148148D01*
X144943860Y-102148148D01*
X144959999Y-102149737D01*
G37*
G36*
X114302585Y-102478802D02*
G01*
X114452410Y-102508604D01*
X114734674Y-102625521D01*
X114988705Y-102795259D01*
X115204741Y-103011295D01*
X115374479Y-103265326D01*
X115491396Y-103547590D01*
X115551000Y-103847240D01*
X115551000Y-104152760D01*
X115491396Y-104452410D01*
X115374479Y-104734674D01*
X115204741Y-104988705D01*
X114988705Y-105204741D01*
X114734674Y-105374479D01*
X114452410Y-105491396D01*
X114302585Y-105521198D01*
X114152761Y-105551000D01*
X113847239Y-105551000D01*
X113697415Y-105521198D01*
X113547590Y-105491396D01*
X113265326Y-105374479D01*
X113011295Y-105204741D01*
X112795259Y-104988705D01*
X112625521Y-104734674D01*
X112508604Y-104452410D01*
X112449000Y-104152760D01*
X112449000Y-103847240D01*
X112508604Y-103547590D01*
X112625521Y-103265326D01*
X112795259Y-103011295D01*
X113011295Y-102795259D01*
X113265326Y-102625521D01*
X113547590Y-102508604D01*
X113697415Y-102478802D01*
X113847239Y-102449000D01*
X114152761Y-102449000D01*
X114302585Y-102478802D01*
G37*
G36*
X122302585Y-97478802D02*
G01*
X122452410Y-97508604D01*
X122734674Y-97625521D01*
X122988705Y-97795259D01*
X123204741Y-98011295D01*
X123374479Y-98265326D01*
X123491396Y-98547590D01*
X123551000Y-98847240D01*
X123551000Y-99152760D01*
X123491396Y-99452410D01*
X123374479Y-99734674D01*
X123204741Y-99988705D01*
X122988705Y-100204741D01*
X122734674Y-100374479D01*
X122452410Y-100491396D01*
X122302585Y-100521198D01*
X122152761Y-100551000D01*
X121847239Y-100551000D01*
X121697415Y-100521198D01*
X121547590Y-100491396D01*
X121265326Y-100374479D01*
X121011295Y-100204741D01*
X120795259Y-99988705D01*
X120625521Y-99734674D01*
X120508604Y-99452410D01*
X120449000Y-99152760D01*
X120449000Y-98847240D01*
X120508604Y-98547590D01*
X120625521Y-98265326D01*
X120795259Y-98011295D01*
X121011295Y-97795259D01*
X121265326Y-97625521D01*
X121547590Y-97508604D01*
X121697415Y-97478802D01*
X121847239Y-97449000D01*
X122152761Y-97449000D01*
X122302585Y-97478802D01*
G37*
G36*
X114302585Y-92478802D02*
G01*
X114452410Y-92508604D01*
X114734674Y-92625521D01*
X114988705Y-92795259D01*
X115204741Y-93011295D01*
X115374479Y-93265326D01*
X115491396Y-93547590D01*
X115491396Y-93547591D01*
X115551000Y-93847239D01*
X115551000Y-94152761D01*
X115521198Y-94302585D01*
X115491396Y-94452410D01*
X115374479Y-94734674D01*
X115204741Y-94988705D01*
X114988705Y-95204741D01*
X114734674Y-95374479D01*
X114452410Y-95491396D01*
X114302585Y-95521198D01*
X114152761Y-95551000D01*
X113847239Y-95551000D01*
X113697415Y-95521198D01*
X113547590Y-95491396D01*
X113265326Y-95374479D01*
X113011295Y-95204741D01*
X112795259Y-94988705D01*
X112625521Y-94734674D01*
X112508604Y-94452410D01*
X112478802Y-94302585D01*
X112449000Y-94152761D01*
X112449000Y-93847239D01*
X112508604Y-93547591D01*
X112508604Y-93547590D01*
X112625521Y-93265326D01*
X112795259Y-93011295D01*
X113011295Y-92795259D01*
X113265326Y-92625521D01*
X113547590Y-92508604D01*
X113697415Y-92478802D01*
X113847239Y-92449000D01*
X114152761Y-92449000D01*
X114302585Y-92478802D01*
G37*
G36*
X144959999Y-90149737D02*
G01*
X144969608Y-90152652D01*
X144978472Y-90157390D01*
X144986237Y-90163763D01*
X144992610Y-90171528D01*
X144997348Y-90180392D01*
X145000263Y-90190001D01*
X145001852Y-90206140D01*
X145001852Y-90743860D01*
X145000263Y-90759999D01*
X144997348Y-90769608D01*
X144992610Y-90778472D01*
X144986237Y-90786237D01*
X144978472Y-90792610D01*
X144969608Y-90797348D01*
X144959999Y-90800263D01*
X144943860Y-90801852D01*
X140626851Y-90801852D01*
X140602465Y-90804254D01*
X140579016Y-90811367D01*
X140557405Y-90822918D01*
X140538463Y-90838463D01*
X140522918Y-90857405D01*
X140511367Y-90879016D01*
X140504254Y-90902465D01*
X140501852Y-90926851D01*
X140501852Y-91673860D01*
X140500263Y-91689999D01*
X140497348Y-91699608D01*
X140492610Y-91708472D01*
X140486237Y-91716237D01*
X140478472Y-91722610D01*
X140469608Y-91727348D01*
X140459999Y-91730263D01*
X140443860Y-91731852D01*
X139725999Y-91731852D01*
X139701613Y-91734254D01*
X139678164Y-91741367D01*
X139656553Y-91752918D01*
X139637611Y-91768463D01*
X139622066Y-91787405D01*
X139610515Y-91809016D01*
X139603402Y-91832465D01*
X139601000Y-91856851D01*
X139601000Y-93143149D01*
X139603402Y-93167535D01*
X139610515Y-93190984D01*
X139622066Y-93212595D01*
X139637611Y-93231537D01*
X139656553Y-93247082D01*
X139678164Y-93258633D01*
X139701613Y-93265746D01*
X139725999Y-93268148D01*
X140443860Y-93268148D01*
X140459999Y-93269737D01*
X140469608Y-93272652D01*
X140478472Y-93277390D01*
X140486237Y-93283763D01*
X140492610Y-93291528D01*
X140497348Y-93300392D01*
X140500263Y-93310001D01*
X140501852Y-93326140D01*
X140501852Y-94073149D01*
X140504254Y-94097535D01*
X140511367Y-94120984D01*
X140522918Y-94142595D01*
X140538463Y-94161537D01*
X140557405Y-94177082D01*
X140579016Y-94188633D01*
X140602465Y-94195746D01*
X140626851Y-94198148D01*
X144943860Y-94198148D01*
X144959999Y-94199737D01*
X144969608Y-94202652D01*
X144978472Y-94207390D01*
X144986237Y-94213763D01*
X144992610Y-94221528D01*
X144997348Y-94230392D01*
X145000263Y-94240001D01*
X145001852Y-94256140D01*
X145001852Y-94793860D01*
X145000263Y-94809999D01*
X144997348Y-94819608D01*
X144992610Y-94828472D01*
X144986237Y-94836237D01*
X144978472Y-94842610D01*
X144969608Y-94847348D01*
X144959999Y-94850263D01*
X144943860Y-94851852D01*
X137456140Y-94851852D01*
X137440001Y-94850263D01*
X137430392Y-94847348D01*
X137421528Y-94842610D01*
X137413763Y-94836237D01*
X137407390Y-94828472D01*
X137402652Y-94819608D01*
X137399737Y-94809999D01*
X137398148Y-94793860D01*
X137398148Y-93326140D01*
X137399737Y-93310001D01*
X137402653Y-93300389D01*
X137410920Y-93284923D01*
X137420298Y-93262285D01*
X137425078Y-93238251D01*
X137425078Y-93213747D01*
X137420298Y-93189714D01*
X137410920Y-93167075D01*
X137399000Y-93149235D01*
X137399000Y-91850288D01*
X137404614Y-91843447D01*
X137416165Y-91821836D01*
X137423278Y-91798387D01*
X137425680Y-91774001D01*
X137423278Y-91749615D01*
X137416165Y-91726166D01*
X137410920Y-91715077D01*
X137402653Y-91699611D01*
X137399737Y-91689999D01*
X137398148Y-91673860D01*
X137398148Y-90206140D01*
X137399737Y-90190001D01*
X137402652Y-90180392D01*
X137407390Y-90171528D01*
X137413763Y-90163763D01*
X137421528Y-90157390D01*
X137430392Y-90152652D01*
X137440001Y-90149737D01*
X137456140Y-90148148D01*
X144943860Y-90148148D01*
X144959999Y-90149737D01*
G37*
G36*
X122302585Y-87478802D02*
G01*
X122452410Y-87508604D01*
X122734674Y-87625521D01*
X122988705Y-87795259D01*
X123204741Y-88011295D01*
X123374479Y-88265326D01*
X123491396Y-88547590D01*
X123551000Y-88847240D01*
X123551000Y-89152760D01*
X123491396Y-89452410D01*
X123374479Y-89734674D01*
X123204741Y-89988705D01*
X122988705Y-90204741D01*
X122734674Y-90374479D01*
X122452410Y-90491396D01*
X122302585Y-90521198D01*
X122152761Y-90551000D01*
X121847239Y-90551000D01*
X121697415Y-90521198D01*
X121547590Y-90491396D01*
X121265326Y-90374479D01*
X121011295Y-90204741D01*
X120795259Y-89988705D01*
X120625521Y-89734674D01*
X120508604Y-89452410D01*
X120449000Y-89152760D01*
X120449000Y-88847240D01*
X120508604Y-88547590D01*
X120625521Y-88265326D01*
X120795259Y-88011295D01*
X121011295Y-87795259D01*
X121265326Y-87625521D01*
X121547590Y-87508604D01*
X121697415Y-87478802D01*
X121847239Y-87449000D01*
X122152761Y-87449000D01*
X122302585Y-87478802D01*
G37*
G36*
X114302585Y-82478802D02*
G01*
X114452410Y-82508604D01*
X114734674Y-82625521D01*
X114988705Y-82795259D01*
X115204741Y-83011295D01*
X115374479Y-83265326D01*
X115491396Y-83547590D01*
X115551000Y-83847240D01*
X115551000Y-84152760D01*
X115491396Y-84452410D01*
X115374479Y-84734674D01*
X115204741Y-84988705D01*
X114988705Y-85204741D01*
X114734674Y-85374479D01*
X114452410Y-85491396D01*
X114302585Y-85521198D01*
X114152761Y-85551000D01*
X113847239Y-85551000D01*
X113697415Y-85521198D01*
X113547590Y-85491396D01*
X113265326Y-85374479D01*
X113011295Y-85204741D01*
X112795259Y-84988705D01*
X112625521Y-84734674D01*
X112508604Y-84452410D01*
X112449000Y-84152760D01*
X112449000Y-83847240D01*
X112508604Y-83547590D01*
X112625521Y-83265326D01*
X112795259Y-83011295D01*
X113011295Y-82795259D01*
X113265326Y-82625521D01*
X113547590Y-82508604D01*
X113697415Y-82478802D01*
X113847239Y-82449000D01*
X114152761Y-82449000D01*
X114302585Y-82478802D01*
G37*
G36*
X144959999Y-78149737D02*
G01*
X144969608Y-78152652D01*
X144978472Y-78157390D01*
X144986237Y-78163763D01*
X144992610Y-78171528D01*
X144997348Y-78180392D01*
X145000263Y-78190001D01*
X145001852Y-78206140D01*
X145001852Y-78743860D01*
X145000263Y-78759999D01*
X144997348Y-78769608D01*
X144992610Y-78778472D01*
X144986237Y-78786237D01*
X144978472Y-78792610D01*
X144969608Y-78797348D01*
X144959999Y-78800263D01*
X144943860Y-78801852D01*
X140626851Y-78801852D01*
X140602465Y-78804254D01*
X140579016Y-78811367D01*
X140557405Y-78822918D01*
X140538463Y-78838463D01*
X140522918Y-78857405D01*
X140511367Y-78879016D01*
X140504254Y-78902465D01*
X140501852Y-78926851D01*
X140501852Y-79673860D01*
X140500263Y-79689999D01*
X140497348Y-79699608D01*
X140492610Y-79708472D01*
X140486237Y-79716237D01*
X140478472Y-79722610D01*
X140469608Y-79727348D01*
X140459999Y-79730263D01*
X140443860Y-79731852D01*
X139725999Y-79731852D01*
X139701613Y-79734254D01*
X139678164Y-79741367D01*
X139656553Y-79752918D01*
X139637611Y-79768463D01*
X139622066Y-79787405D01*
X139610515Y-79809016D01*
X139603402Y-79832465D01*
X139601000Y-79856851D01*
X139601000Y-81143149D01*
X139603402Y-81167535D01*
X139610515Y-81190984D01*
X139622066Y-81212595D01*
X139637611Y-81231537D01*
X139656553Y-81247082D01*
X139678164Y-81258633D01*
X139701613Y-81265746D01*
X139725999Y-81268148D01*
X140443860Y-81268148D01*
X140459999Y-81269737D01*
X140469608Y-81272652D01*
X140478472Y-81277390D01*
X140486237Y-81283763D01*
X140492610Y-81291528D01*
X140497348Y-81300392D01*
X140500263Y-81310001D01*
X140501852Y-81326140D01*
X140501852Y-82073149D01*
X140504254Y-82097535D01*
X140511367Y-82120984D01*
X140522918Y-82142595D01*
X140538463Y-82161537D01*
X140557405Y-82177082D01*
X140579016Y-82188633D01*
X140602465Y-82195746D01*
X140626851Y-82198148D01*
X144943860Y-82198148D01*
X144959999Y-82199737D01*
X144969608Y-82202652D01*
X144978472Y-82207390D01*
X144986237Y-82213763D01*
X144992610Y-82221528D01*
X144997348Y-82230392D01*
X145000263Y-82240001D01*
X145001852Y-82256140D01*
X145001852Y-82793860D01*
X145000263Y-82809999D01*
X144997348Y-82819608D01*
X144992610Y-82828472D01*
X144986237Y-82836237D01*
X144978472Y-82842610D01*
X144969608Y-82847348D01*
X144959999Y-82850263D01*
X144943860Y-82851852D01*
X137456140Y-82851852D01*
X137440001Y-82850263D01*
X137430392Y-82847348D01*
X137421528Y-82842610D01*
X137413763Y-82836237D01*
X137407390Y-82828472D01*
X137402652Y-82819608D01*
X137399737Y-82809999D01*
X137398148Y-82793860D01*
X137398148Y-81326140D01*
X137399737Y-81310001D01*
X137402653Y-81300389D01*
X137410920Y-81284923D01*
X137420298Y-81262285D01*
X137425078Y-81238251D01*
X137425078Y-81213747D01*
X137420298Y-81189714D01*
X137410920Y-81167075D01*
X137399000Y-81149235D01*
X137399000Y-79850288D01*
X137404614Y-79843447D01*
X137416165Y-79821836D01*
X137423278Y-79798387D01*
X137425680Y-79774001D01*
X137423278Y-79749615D01*
X137416165Y-79726166D01*
X137410920Y-79715077D01*
X137402653Y-79699611D01*
X137399737Y-79689999D01*
X137398148Y-79673860D01*
X137398148Y-78206140D01*
X137399737Y-78190001D01*
X137402652Y-78180392D01*
X137407390Y-78171528D01*
X137413763Y-78163763D01*
X137421528Y-78157390D01*
X137430392Y-78152652D01*
X137440001Y-78149737D01*
X137456140Y-78148148D01*
X144943860Y-78148148D01*
X144959999Y-78149737D01*
G37*
G36*
X122302585Y-77478802D02*
G01*
X122452410Y-77508604D01*
X122734674Y-77625521D01*
X122988705Y-77795259D01*
X123204741Y-78011295D01*
X123374479Y-78265326D01*
X123491396Y-78547590D01*
X123491396Y-78547591D01*
X123543865Y-78811367D01*
X123551000Y-78847240D01*
X123551000Y-79152760D01*
X123491396Y-79452410D01*
X123374479Y-79734674D01*
X123204741Y-79988705D01*
X122988705Y-80204741D01*
X122734674Y-80374479D01*
X122452410Y-80491396D01*
X122302585Y-80521198D01*
X122152761Y-80551000D01*
X121847239Y-80551000D01*
X121697415Y-80521198D01*
X121547590Y-80491396D01*
X121265326Y-80374479D01*
X121011295Y-80204741D01*
X120795259Y-79988705D01*
X120625521Y-79734674D01*
X120508604Y-79452410D01*
X120449000Y-79152760D01*
X120449000Y-78847240D01*
X120456136Y-78811367D01*
X120508604Y-78547591D01*
X120508604Y-78547590D01*
X120625521Y-78265326D01*
X120795259Y-78011295D01*
X121011295Y-77795259D01*
X121265326Y-77625521D01*
X121547590Y-77508604D01*
X121697415Y-77478802D01*
X121847239Y-77449000D01*
X122152761Y-77449000D01*
X122302585Y-77478802D01*
G37*
G36*
X114302585Y-72478802D02*
G01*
X114452410Y-72508604D01*
X114734674Y-72625521D01*
X114988705Y-72795259D01*
X115204741Y-73011295D01*
X115374479Y-73265326D01*
X115491396Y-73547590D01*
X115551000Y-73847240D01*
X115551000Y-74152760D01*
X115491396Y-74452410D01*
X115374479Y-74734674D01*
X115204741Y-74988705D01*
X114988705Y-75204741D01*
X114734674Y-75374479D01*
X114452410Y-75491396D01*
X114302585Y-75521198D01*
X114152761Y-75551000D01*
X113847239Y-75551000D01*
X113697415Y-75521198D01*
X113547590Y-75491396D01*
X113265326Y-75374479D01*
X113011295Y-75204741D01*
X112795259Y-74988705D01*
X112625521Y-74734674D01*
X112508604Y-74452410D01*
X112449000Y-74152760D01*
X112449000Y-73847240D01*
X112508604Y-73547590D01*
X112625521Y-73265326D01*
X112795259Y-73011295D01*
X113011295Y-72795259D01*
X113265326Y-72625521D01*
X113547590Y-72508604D01*
X113697415Y-72478802D01*
X113847239Y-72449000D01*
X114152761Y-72449000D01*
X114302585Y-72478802D01*
G37*
G36*
X144959999Y-66149737D02*
G01*
X144969608Y-66152652D01*
X144978472Y-66157390D01*
X144986237Y-66163763D01*
X144992610Y-66171528D01*
X144997348Y-66180392D01*
X145000263Y-66190001D01*
X145001852Y-66206140D01*
X145001852Y-66743860D01*
X145000263Y-66759999D01*
X144997348Y-66769608D01*
X144992610Y-66778472D01*
X144986237Y-66786237D01*
X144978472Y-66792610D01*
X144969608Y-66797348D01*
X144959999Y-66800263D01*
X144943860Y-66801852D01*
X140626851Y-66801852D01*
X140602465Y-66804254D01*
X140579016Y-66811367D01*
X140557405Y-66822918D01*
X140538463Y-66838463D01*
X140522918Y-66857405D01*
X140511367Y-66879016D01*
X140504254Y-66902465D01*
X140501852Y-66926851D01*
X140501852Y-67673860D01*
X140500263Y-67689999D01*
X140497348Y-67699608D01*
X140492610Y-67708472D01*
X140486237Y-67716237D01*
X140478472Y-67722610D01*
X140469608Y-67727348D01*
X140459999Y-67730263D01*
X140443860Y-67731852D01*
X139725999Y-67731852D01*
X139701613Y-67734254D01*
X139678164Y-67741367D01*
X139656553Y-67752918D01*
X139637611Y-67768463D01*
X139622066Y-67787405D01*
X139610515Y-67809016D01*
X139603402Y-67832465D01*
X139601000Y-67856851D01*
X139601000Y-69143149D01*
X139603402Y-69167535D01*
X139610515Y-69190984D01*
X139622066Y-69212595D01*
X139637611Y-69231537D01*
X139656553Y-69247082D01*
X139678164Y-69258633D01*
X139701613Y-69265746D01*
X139725999Y-69268148D01*
X140443860Y-69268148D01*
X140459999Y-69269737D01*
X140469608Y-69272652D01*
X140478472Y-69277390D01*
X140486237Y-69283763D01*
X140492610Y-69291528D01*
X140497348Y-69300392D01*
X140500263Y-69310001D01*
X140501852Y-69326140D01*
X140501852Y-70073149D01*
X140504254Y-70097535D01*
X140511367Y-70120984D01*
X140522918Y-70142595D01*
X140538463Y-70161537D01*
X140557405Y-70177082D01*
X140579016Y-70188633D01*
X140602465Y-70195746D01*
X140626851Y-70198148D01*
X144943860Y-70198148D01*
X144959999Y-70199737D01*
X144969608Y-70202652D01*
X144978472Y-70207390D01*
X144986237Y-70213763D01*
X144992610Y-70221528D01*
X144997348Y-70230392D01*
X145000263Y-70240001D01*
X145001852Y-70256140D01*
X145001852Y-70793860D01*
X145000263Y-70809999D01*
X144997348Y-70819608D01*
X144992610Y-70828472D01*
X144986237Y-70836237D01*
X144978472Y-70842610D01*
X144969608Y-70847348D01*
X144959999Y-70850263D01*
X144943860Y-70851852D01*
X137456140Y-70851852D01*
X137440001Y-70850263D01*
X137430392Y-70847348D01*
X137421528Y-70842610D01*
X137413763Y-70836237D01*
X137407390Y-70828472D01*
X137402652Y-70819608D01*
X137399737Y-70809999D01*
X137398148Y-70793860D01*
X137398148Y-69326140D01*
X137399737Y-69310001D01*
X137402653Y-69300389D01*
X137410920Y-69284923D01*
X137420298Y-69262285D01*
X137425078Y-69238251D01*
X137425078Y-69213747D01*
X137420298Y-69189714D01*
X137410920Y-69167075D01*
X137399000Y-69149235D01*
X137399000Y-67850288D01*
X137404614Y-67843447D01*
X137416165Y-67821836D01*
X137423278Y-67798387D01*
X137425680Y-67774001D01*
X137423278Y-67749615D01*
X137416165Y-67726166D01*
X137410920Y-67715077D01*
X137402653Y-67699611D01*
X137399737Y-67689999D01*
X137398148Y-67673860D01*
X137398148Y-66206140D01*
X137399737Y-66190001D01*
X137402652Y-66180392D01*
X137407390Y-66171528D01*
X137413763Y-66163763D01*
X137421528Y-66157390D01*
X137430392Y-66152652D01*
X137440001Y-66149737D01*
X137456140Y-66148148D01*
X144943860Y-66148148D01*
X144959999Y-66149737D01*
G37*
G36*
X122302585Y-67478802D02*
G01*
X122452410Y-67508604D01*
X122734674Y-67625521D01*
X122988705Y-67795259D01*
X123204741Y-68011295D01*
X123374479Y-68265326D01*
X123491396Y-68547590D01*
X123491396Y-68547591D01*
X123551000Y-68847239D01*
X123551000Y-69152761D01*
X123543397Y-69190984D01*
X123491396Y-69452410D01*
X123374479Y-69734674D01*
X123204741Y-69988705D01*
X122988705Y-70204741D01*
X122734674Y-70374479D01*
X122452410Y-70491396D01*
X122302585Y-70521198D01*
X122152761Y-70551000D01*
X121847239Y-70551000D01*
X121697415Y-70521198D01*
X121547590Y-70491396D01*
X121265326Y-70374479D01*
X121011295Y-70204741D01*
X120795259Y-69988705D01*
X120625521Y-69734674D01*
X120508604Y-69452410D01*
X120456603Y-69190984D01*
X120449000Y-69152761D01*
X120449000Y-68847239D01*
X120508604Y-68547591D01*
X120508604Y-68547590D01*
X120625521Y-68265326D01*
X120795259Y-68011295D01*
X121011295Y-67795259D01*
X121265326Y-67625521D01*
X121547590Y-67508604D01*
X121697415Y-67478802D01*
X121847239Y-67449000D01*
X122152761Y-67449000D01*
X122302585Y-67478802D01*
G37*
G36*
X144959999Y-54149737D02*
G01*
X144969608Y-54152652D01*
X144978472Y-54157390D01*
X144986237Y-54163763D01*
X144992610Y-54171528D01*
X144997348Y-54180392D01*
X145000263Y-54190001D01*
X145001852Y-54206140D01*
X145001852Y-54743860D01*
X145000263Y-54759999D01*
X144997348Y-54769608D01*
X144992610Y-54778472D01*
X144986237Y-54786237D01*
X144978472Y-54792610D01*
X144969608Y-54797348D01*
X144959999Y-54800263D01*
X144943860Y-54801852D01*
X140626851Y-54801852D01*
X140602465Y-54804254D01*
X140579016Y-54811367D01*
X140557405Y-54822918D01*
X140538463Y-54838463D01*
X140522918Y-54857405D01*
X140511367Y-54879016D01*
X140504254Y-54902465D01*
X140501852Y-54926851D01*
X140501852Y-55673860D01*
X140500263Y-55689999D01*
X140497348Y-55699608D01*
X140492610Y-55708472D01*
X140486237Y-55716237D01*
X140478472Y-55722610D01*
X140469608Y-55727348D01*
X140459999Y-55730263D01*
X140443860Y-55731852D01*
X139725999Y-55731852D01*
X139701613Y-55734254D01*
X139678164Y-55741367D01*
X139656553Y-55752918D01*
X139637611Y-55768463D01*
X139622066Y-55787405D01*
X139610515Y-55809016D01*
X139603402Y-55832465D01*
X139601000Y-55856851D01*
X139601000Y-57143149D01*
X139603402Y-57167535D01*
X139610515Y-57190984D01*
X139622066Y-57212595D01*
X139637611Y-57231537D01*
X139656553Y-57247082D01*
X139678164Y-57258633D01*
X139701613Y-57265746D01*
X139725999Y-57268148D01*
X140443860Y-57268148D01*
X140459999Y-57269737D01*
X140469608Y-57272652D01*
X140478472Y-57277390D01*
X140486237Y-57283763D01*
X140492610Y-57291528D01*
X140497348Y-57300392D01*
X140500263Y-57310001D01*
X140501852Y-57326140D01*
X140501852Y-58073149D01*
X140504254Y-58097535D01*
X140511367Y-58120984D01*
X140522918Y-58142595D01*
X140538463Y-58161537D01*
X140557405Y-58177082D01*
X140579016Y-58188633D01*
X140602465Y-58195746D01*
X140626851Y-58198148D01*
X144943860Y-58198148D01*
X144959999Y-58199737D01*
X144969608Y-58202652D01*
X144978472Y-58207390D01*
X144986237Y-58213763D01*
X144992610Y-58221528D01*
X144997348Y-58230392D01*
X145000263Y-58240001D01*
X145001852Y-58256140D01*
X145001852Y-58793860D01*
X145000263Y-58809999D01*
X144997348Y-58819608D01*
X144992610Y-58828472D01*
X144986237Y-58836237D01*
X144978472Y-58842610D01*
X144969608Y-58847348D01*
X144959999Y-58850263D01*
X144943860Y-58851852D01*
X137456140Y-58851852D01*
X137440001Y-58850263D01*
X137430392Y-58847348D01*
X137421528Y-58842610D01*
X137413763Y-58836237D01*
X137407390Y-58828472D01*
X137402652Y-58819608D01*
X137399737Y-58809999D01*
X137398148Y-58793860D01*
X137398148Y-57326140D01*
X137399737Y-57310001D01*
X137402653Y-57300389D01*
X137410920Y-57284923D01*
X137420298Y-57262285D01*
X137425078Y-57238251D01*
X137425078Y-57213747D01*
X137420298Y-57189714D01*
X137410920Y-57167075D01*
X137399000Y-57149235D01*
X137399000Y-55850288D01*
X137404614Y-55843447D01*
X137416165Y-55821836D01*
X137423278Y-55798387D01*
X137425680Y-55774001D01*
X137423278Y-55749615D01*
X137416165Y-55726166D01*
X137410920Y-55715077D01*
X137402653Y-55699611D01*
X137399737Y-55689999D01*
X137398148Y-55673860D01*
X137398148Y-54206140D01*
X137399737Y-54190001D01*
X137402652Y-54180392D01*
X137407390Y-54171528D01*
X137413763Y-54163763D01*
X137421528Y-54157390D01*
X137430392Y-54152652D01*
X137440001Y-54149737D01*
X137456140Y-54148148D01*
X144943860Y-54148148D01*
X144959999Y-54149737D01*
G37*
G36*
X144959999Y-42149737D02*
G01*
X144969608Y-42152652D01*
X144978472Y-42157390D01*
X144986237Y-42163763D01*
X144992610Y-42171528D01*
X144997348Y-42180392D01*
X145000263Y-42190001D01*
X145001852Y-42206140D01*
X145001852Y-42743860D01*
X145000263Y-42759999D01*
X144997348Y-42769608D01*
X144992610Y-42778472D01*
X144986237Y-42786237D01*
X144978472Y-42792610D01*
X144969608Y-42797348D01*
X144959999Y-42800263D01*
X144943860Y-42801852D01*
X140626851Y-42801852D01*
X140602465Y-42804254D01*
X140579016Y-42811367D01*
X140557405Y-42822918D01*
X140538463Y-42838463D01*
X140522918Y-42857405D01*
X140511367Y-42879016D01*
X140504254Y-42902465D01*
X140501852Y-42926851D01*
X140501852Y-43673860D01*
X140500263Y-43689999D01*
X140497348Y-43699608D01*
X140492610Y-43708472D01*
X140486237Y-43716237D01*
X140478472Y-43722610D01*
X140469608Y-43727348D01*
X140459999Y-43730263D01*
X140443860Y-43731852D01*
X139725999Y-43731852D01*
X139701613Y-43734254D01*
X139678164Y-43741367D01*
X139656553Y-43752918D01*
X139637611Y-43768463D01*
X139622066Y-43787405D01*
X139610515Y-43809016D01*
X139603402Y-43832465D01*
X139601000Y-43856851D01*
X139601000Y-45143149D01*
X139603402Y-45167535D01*
X139610515Y-45190984D01*
X139622066Y-45212595D01*
X139637611Y-45231537D01*
X139656553Y-45247082D01*
X139678164Y-45258633D01*
X139701613Y-45265746D01*
X139725999Y-45268148D01*
X140443860Y-45268148D01*
X140459999Y-45269737D01*
X140469608Y-45272652D01*
X140478472Y-45277390D01*
X140486237Y-45283763D01*
X140492610Y-45291528D01*
X140497348Y-45300392D01*
X140500263Y-45310001D01*
X140501852Y-45326140D01*
X140501852Y-46073149D01*
X140504254Y-46097535D01*
X140511367Y-46120984D01*
X140522918Y-46142595D01*
X140538463Y-46161537D01*
X140557405Y-46177082D01*
X140579016Y-46188633D01*
X140602465Y-46195746D01*
X140626851Y-46198148D01*
X144943860Y-46198148D01*
X144959999Y-46199737D01*
X144969608Y-46202652D01*
X144978472Y-46207390D01*
X144986237Y-46213763D01*
X144992610Y-46221528D01*
X144997348Y-46230392D01*
X145000263Y-46240001D01*
X145001852Y-46256140D01*
X145001852Y-46793860D01*
X145000263Y-46809999D01*
X144997348Y-46819608D01*
X144992610Y-46828472D01*
X144986237Y-46836237D01*
X144978472Y-46842610D01*
X144969608Y-46847348D01*
X144959999Y-46850263D01*
X144943860Y-46851852D01*
X137456140Y-46851852D01*
X137440001Y-46850263D01*
X137430392Y-46847348D01*
X137421528Y-46842610D01*
X137413763Y-46836237D01*
X137407390Y-46828472D01*
X137402652Y-46819608D01*
X137399737Y-46809999D01*
X137398148Y-46793860D01*
X137398148Y-45326140D01*
X137399737Y-45310001D01*
X137402653Y-45300389D01*
X137410920Y-45284923D01*
X137420298Y-45262285D01*
X137425078Y-45238251D01*
X137425078Y-45213747D01*
X137420298Y-45189714D01*
X137410920Y-45167075D01*
X137399000Y-45149235D01*
X137399000Y-43850288D01*
X137404614Y-43843447D01*
X137416165Y-43821836D01*
X137423278Y-43798387D01*
X137425680Y-43774001D01*
X137423278Y-43749615D01*
X137416165Y-43726166D01*
X137410920Y-43715077D01*
X137402653Y-43699611D01*
X137399737Y-43689999D01*
X137398148Y-43673860D01*
X137398148Y-42206140D01*
X137399737Y-42190001D01*
X137402652Y-42180392D01*
X137407390Y-42171528D01*
X137413763Y-42163763D01*
X137421528Y-42157390D01*
X137430392Y-42152652D01*
X137440001Y-42149737D01*
X137456140Y-42148148D01*
X144943860Y-42148148D01*
X144959999Y-42149737D01*
G37*
G36*
X128302585Y-43478802D02*
G01*
X128452410Y-43508604D01*
X128734674Y-43625521D01*
X128988705Y-43795259D01*
X129204741Y-44011295D01*
X129374479Y-44265326D01*
X129491396Y-44547590D01*
X129491396Y-44547591D01*
X129551000Y-44847239D01*
X129551000Y-45152761D01*
X129543397Y-45190984D01*
X129491396Y-45452410D01*
X129374479Y-45734674D01*
X129204741Y-45988705D01*
X128988705Y-46204741D01*
X128734674Y-46374479D01*
X128452410Y-46491396D01*
X128302585Y-46521198D01*
X128152761Y-46551000D01*
X127847239Y-46551000D01*
X127697415Y-46521198D01*
X127547590Y-46491396D01*
X127265326Y-46374479D01*
X127011295Y-46204741D01*
X126795259Y-45988705D01*
X126625521Y-45734674D01*
X126508604Y-45452410D01*
X126456603Y-45190984D01*
X126449000Y-45152761D01*
X126449000Y-44847239D01*
X126508604Y-44547591D01*
X126508604Y-44547590D01*
X126625521Y-44265326D01*
X126795259Y-44011295D01*
X127011295Y-43795259D01*
X127265326Y-43625521D01*
X127547590Y-43508604D01*
X127697415Y-43478802D01*
X127847239Y-43449000D01*
X128152761Y-43449000D01*
X128302585Y-43478802D01*
G37*
M02*
