G04 #@! TF.GenerationSoftware,KiCad,Pcbnew,(5.1.6-0-10_14)*
G04 #@! TF.CreationDate,2020-10-13T14:18:26+09:00*
G04 #@! TF.ProjectId,teabiscuits_electrode_interface,74656162-6973-4637-9569-74735f656c65,rev?*
G04 #@! TF.SameCoordinates,Original*
G04 #@! TF.FileFunction,Legend,Top*
G04 #@! TF.FilePolarity,Positive*
%FSLAX46Y46*%
G04 Gerber Fmt 4.6, Leading zero omitted, Abs format (unit mm)*
G04 Created by KiCad (PCBNEW (5.1.6-0-10_14)) date 2020-10-13 14:18:26*
%MOMM*%
%LPD*%
G01*
G04 APERTURE LIST*
%ADD10C,0.150000*%
%ADD11C,0.120000*%
G04 APERTURE END LIST*
D10*
X107297619Y-51154761D02*
X107202380Y-51202380D01*
X107011904Y-51202380D01*
X106916666Y-51154761D01*
X106869047Y-51059523D01*
X106869047Y-50678571D01*
X106916666Y-50583333D01*
X107011904Y-50535714D01*
X107202380Y-50535714D01*
X107297619Y-50583333D01*
X107345238Y-50678571D01*
X107345238Y-50773809D01*
X106869047Y-50869047D01*
X107916666Y-51202380D02*
X107821428Y-51154761D01*
X107773809Y-51059523D01*
X107773809Y-50202380D01*
X108678571Y-51154761D02*
X108583333Y-51202380D01*
X108392857Y-51202380D01*
X108297619Y-51154761D01*
X108250000Y-51059523D01*
X108250000Y-50678571D01*
X108297619Y-50583333D01*
X108392857Y-50535714D01*
X108583333Y-50535714D01*
X108678571Y-50583333D01*
X108726190Y-50678571D01*
X108726190Y-50773809D01*
X108250000Y-50869047D01*
X109583333Y-51154761D02*
X109488095Y-51202380D01*
X109297619Y-51202380D01*
X109202380Y-51154761D01*
X109154761Y-51107142D01*
X109107142Y-51011904D01*
X109107142Y-50726190D01*
X109154761Y-50630952D01*
X109202380Y-50583333D01*
X109297619Y-50535714D01*
X109488095Y-50535714D01*
X109583333Y-50583333D01*
X110773809Y-51202380D02*
X110773809Y-50535714D01*
X110773809Y-50202380D02*
X110726190Y-50250000D01*
X110773809Y-50297619D01*
X110821428Y-50250000D01*
X110773809Y-50202380D01*
X110773809Y-50297619D01*
X111250000Y-50535714D02*
X111250000Y-51202380D01*
X111250000Y-50630952D02*
X111297619Y-50583333D01*
X111392857Y-50535714D01*
X111535714Y-50535714D01*
X111630952Y-50583333D01*
X111678571Y-50678571D01*
X111678571Y-51202380D01*
X112011904Y-50535714D02*
X112392857Y-50535714D01*
X112154761Y-50202380D02*
X112154761Y-51059523D01*
X112202380Y-51154761D01*
X112297619Y-51202380D01*
X112392857Y-51202380D01*
X113488095Y-51202380D02*
X113488095Y-50535714D01*
X113488095Y-50726190D02*
X113535714Y-50630952D01*
X113583333Y-50583333D01*
X113678571Y-50535714D01*
X113773809Y-50535714D01*
X114059523Y-50297619D02*
X114107142Y-50250000D01*
X114202380Y-50202380D01*
X114440476Y-50202380D01*
X114535714Y-50250000D01*
X114583333Y-50297619D01*
X114630952Y-50392857D01*
X114630952Y-50488095D01*
X114583333Y-50630952D01*
X114011904Y-51202380D01*
X114630952Y-51202380D01*
D11*
X119040000Y-42550000D02*
X119040000Y-41450000D01*
X126940000Y-39440000D02*
X119240000Y-39440000D01*
X119240000Y-39440000D02*
X119240000Y-44560000D01*
X126940000Y-44560000D02*
X119240000Y-44560000D01*
X108000000Y-35000000D02*
X112000000Y-35000000D01*
X112000000Y-35000000D02*
X112000000Y-39000000D01*
X112000000Y-39000000D02*
X108000000Y-39000000D01*
X108000000Y-39000000D02*
X108000000Y-35000000D01*
X113000000Y-34000000D02*
X107000000Y-34000000D01*
X107000000Y-34000000D02*
X107000000Y-40000000D01*
X107000000Y-40000000D02*
X113000000Y-40000000D01*
X113000000Y-40000000D02*
X113000000Y-34000000D01*
X108000000Y-44250000D02*
X112000000Y-44250000D01*
X112000000Y-44250000D02*
X112000000Y-48250000D01*
X112000000Y-48250000D02*
X108000000Y-48250000D01*
X108000000Y-48250000D02*
X108000000Y-44250000D01*
X113000000Y-43250000D02*
X107000000Y-43250000D01*
X107000000Y-43250000D02*
X107000000Y-49250000D01*
X107000000Y-49250000D02*
X113000000Y-49250000D01*
X113000000Y-49250000D02*
X113000000Y-43250000D01*
D10*
X116716666Y-41452380D02*
X116716666Y-42166666D01*
X116669047Y-42309523D01*
X116573809Y-42404761D01*
X116430952Y-42452380D01*
X116335714Y-42452380D01*
X117716666Y-42452380D02*
X117145238Y-42452380D01*
X117430952Y-42452380D02*
X117430952Y-41452380D01*
X117335714Y-41595238D01*
X117240476Y-41690476D01*
X117145238Y-41738095D01*
X107666666Y-40452380D02*
X107666666Y-41166666D01*
X107619047Y-41309523D01*
X107523809Y-41404761D01*
X107380952Y-41452380D01*
X107285714Y-41452380D01*
X108190476Y-41452380D02*
X108380952Y-41452380D01*
X108476190Y-41404761D01*
X108523809Y-41357142D01*
X108619047Y-41214285D01*
X108666666Y-41023809D01*
X108666666Y-40642857D01*
X108619047Y-40547619D01*
X108571428Y-40500000D01*
X108476190Y-40452380D01*
X108285714Y-40452380D01*
X108190476Y-40500000D01*
X108142857Y-40547619D01*
X108095238Y-40642857D01*
X108095238Y-40880952D01*
X108142857Y-40976190D01*
X108190476Y-41023809D01*
X108285714Y-41071428D01*
X108476190Y-41071428D01*
X108571428Y-41023809D01*
X108619047Y-40976190D01*
X108666666Y-40880952D01*
X105309523Y-46178571D02*
X105642857Y-46178571D01*
X105785714Y-46702380D02*
X105309523Y-46702380D01*
X105309523Y-45702380D01*
X105785714Y-45702380D01*
X106738095Y-46702380D02*
X106166666Y-46702380D01*
X106452380Y-46702380D02*
X106452380Y-45702380D01*
X106357142Y-45845238D01*
X106261904Y-45940476D01*
X106166666Y-45988095D01*
M02*
