G04 #@! TF.GenerationSoftware,KiCad,Pcbnew,5.1.5*
G04 #@! TF.CreationDate,2020-07-08T23:46:48+09:00*
G04 #@! TF.ProjectId,teabiscuits_electrode_interface,74656162-6973-4637-9569-74735f656c65,rev?*
G04 #@! TF.SameCoordinates,Original*
G04 #@! TF.FileFunction,Legend,Top*
G04 #@! TF.FilePolarity,Positive*
%FSLAX46Y46*%
G04 Gerber Fmt 4.6, Leading zero omitted, Abs format (unit mm)*
G04 Created by KiCad (PCBNEW 5.1.5) date 2020-07-08 23:46:48*
%MOMM*%
%LPD*%
G04 APERTURE LIST*
%ADD10C,0.150000*%
%ADD11C,0.120000*%
G04 APERTURE END LIST*
D10*
X131500000Y-44261904D02*
X131452380Y-44357142D01*
X131452380Y-44500000D01*
X131500000Y-44642857D01*
X131595238Y-44738095D01*
X131690476Y-44785714D01*
X131880952Y-44833333D01*
X132023809Y-44833333D01*
X132214285Y-44785714D01*
X132309523Y-44738095D01*
X132404761Y-44642857D01*
X132452380Y-44500000D01*
X132452380Y-44404761D01*
X132404761Y-44261904D01*
X132357142Y-44214285D01*
X132023809Y-44214285D01*
X132023809Y-44404761D01*
X132452380Y-43785714D02*
X131452380Y-43785714D01*
X132452380Y-43214285D01*
X131452380Y-43214285D01*
X132452380Y-42738095D02*
X131452380Y-42738095D01*
X131452380Y-42500000D01*
X131500000Y-42357142D01*
X131595238Y-42261904D01*
X131690476Y-42214285D01*
X131880952Y-42166666D01*
X132023809Y-42166666D01*
X132214285Y-42214285D01*
X132309523Y-42261904D01*
X132404761Y-42357142D01*
X132452380Y-42500000D01*
X132452380Y-42738095D01*
X131500000Y-130261904D02*
X131452380Y-130357142D01*
X131452380Y-130500000D01*
X131500000Y-130642857D01*
X131595238Y-130738095D01*
X131690476Y-130785714D01*
X131880952Y-130833333D01*
X132023809Y-130833333D01*
X132214285Y-130785714D01*
X132309523Y-130738095D01*
X132404761Y-130642857D01*
X132452380Y-130500000D01*
X132452380Y-130404761D01*
X132404761Y-130261904D01*
X132357142Y-130214285D01*
X132023809Y-130214285D01*
X132023809Y-130404761D01*
X132452380Y-129785714D02*
X131452380Y-129785714D01*
X132452380Y-129214285D01*
X131452380Y-129214285D01*
X132452380Y-128738095D02*
X131452380Y-128738095D01*
X131452380Y-128500000D01*
X131500000Y-128357142D01*
X131595238Y-128261904D01*
X131690476Y-128214285D01*
X131880952Y-128166666D01*
X132023809Y-128166666D01*
X132214285Y-128214285D01*
X132309523Y-128261904D01*
X132404761Y-128357142D01*
X132452380Y-128500000D01*
X132452380Y-128738095D01*
X129952380Y-96595238D02*
X129952380Y-96023809D01*
X130952380Y-96309523D02*
X129952380Y-96309523D01*
X130904761Y-95309523D02*
X130952380Y-95404761D01*
X130952380Y-95595238D01*
X130904761Y-95690476D01*
X130809523Y-95738095D01*
X130428571Y-95738095D01*
X130333333Y-95690476D01*
X130285714Y-95595238D01*
X130285714Y-95404761D01*
X130333333Y-95309523D01*
X130428571Y-95261904D01*
X130523809Y-95261904D01*
X130619047Y-95738095D01*
X130952380Y-94404761D02*
X130428571Y-94404761D01*
X130333333Y-94452380D01*
X130285714Y-94547619D01*
X130285714Y-94738095D01*
X130333333Y-94833333D01*
X130904761Y-94404761D02*
X130952380Y-94500000D01*
X130952380Y-94738095D01*
X130904761Y-94833333D01*
X130809523Y-94880952D01*
X130714285Y-94880952D01*
X130619047Y-94833333D01*
X130571428Y-94738095D01*
X130571428Y-94500000D01*
X130523809Y-94404761D01*
X130952380Y-93928571D02*
X129952380Y-93928571D01*
X130333333Y-93928571D02*
X130285714Y-93833333D01*
X130285714Y-93642857D01*
X130333333Y-93547619D01*
X130380952Y-93500000D01*
X130476190Y-93452380D01*
X130761904Y-93452380D01*
X130857142Y-93500000D01*
X130904761Y-93547619D01*
X130952380Y-93642857D01*
X130952380Y-93833333D01*
X130904761Y-93928571D01*
X130952380Y-93023809D02*
X130285714Y-93023809D01*
X129952380Y-93023809D02*
X130000000Y-93071428D01*
X130047619Y-93023809D01*
X130000000Y-92976190D01*
X129952380Y-93023809D01*
X130047619Y-93023809D01*
X130904761Y-92595238D02*
X130952380Y-92500000D01*
X130952380Y-92309523D01*
X130904761Y-92214285D01*
X130809523Y-92166666D01*
X130761904Y-92166666D01*
X130666666Y-92214285D01*
X130619047Y-92309523D01*
X130619047Y-92452380D01*
X130571428Y-92547619D01*
X130476190Y-92595238D01*
X130428571Y-92595238D01*
X130333333Y-92547619D01*
X130285714Y-92452380D01*
X130285714Y-92309523D01*
X130333333Y-92214285D01*
X130904761Y-91309523D02*
X130952380Y-91404761D01*
X130952380Y-91595238D01*
X130904761Y-91690476D01*
X130857142Y-91738095D01*
X130761904Y-91785714D01*
X130476190Y-91785714D01*
X130380952Y-91738095D01*
X130333333Y-91690476D01*
X130285714Y-91595238D01*
X130285714Y-91404761D01*
X130333333Y-91309523D01*
X130285714Y-90452380D02*
X130952380Y-90452380D01*
X130285714Y-90880952D02*
X130809523Y-90880952D01*
X130904761Y-90833333D01*
X130952380Y-90738095D01*
X130952380Y-90595238D01*
X130904761Y-90500000D01*
X130857142Y-90452380D01*
X130952380Y-89976190D02*
X130285714Y-89976190D01*
X129952380Y-89976190D02*
X130000000Y-90023809D01*
X130047619Y-89976190D01*
X130000000Y-89928571D01*
X129952380Y-89976190D01*
X130047619Y-89976190D01*
X130285714Y-89642857D02*
X130285714Y-89261904D01*
X129952380Y-89500000D02*
X130809523Y-89500000D01*
X130904761Y-89452380D01*
X130952380Y-89357142D01*
X130952380Y-89261904D01*
X130904761Y-88976190D02*
X130952380Y-88880952D01*
X130952380Y-88690476D01*
X130904761Y-88595238D01*
X130809523Y-88547619D01*
X130761904Y-88547619D01*
X130666666Y-88595238D01*
X130619047Y-88690476D01*
X130619047Y-88833333D01*
X130571428Y-88928571D01*
X130476190Y-88976190D01*
X130428571Y-88976190D01*
X130333333Y-88928571D01*
X130285714Y-88833333D01*
X130285714Y-88690476D01*
X130333333Y-88595238D01*
X130428571Y-87357142D02*
X130428571Y-87023809D01*
X130952380Y-86880952D02*
X130952380Y-87357142D01*
X129952380Y-87357142D01*
X129952380Y-86880952D01*
X130952380Y-86309523D02*
X130904761Y-86404761D01*
X130809523Y-86452380D01*
X129952380Y-86452380D01*
X130904761Y-85547619D02*
X130952380Y-85642857D01*
X130952380Y-85833333D01*
X130904761Y-85928571D01*
X130809523Y-85976190D01*
X130428571Y-85976190D01*
X130333333Y-85928571D01*
X130285714Y-85833333D01*
X130285714Y-85642857D01*
X130333333Y-85547619D01*
X130428571Y-85500000D01*
X130523809Y-85500000D01*
X130619047Y-85976190D01*
X130904761Y-84642857D02*
X130952380Y-84738095D01*
X130952380Y-84928571D01*
X130904761Y-85023809D01*
X130857142Y-85071428D01*
X130761904Y-85119047D01*
X130476190Y-85119047D01*
X130380952Y-85071428D01*
X130333333Y-85023809D01*
X130285714Y-84928571D01*
X130285714Y-84738095D01*
X130333333Y-84642857D01*
X130285714Y-84357142D02*
X130285714Y-83976190D01*
X129952380Y-84214285D02*
X130809523Y-84214285D01*
X130904761Y-84166666D01*
X130952380Y-84071428D01*
X130952380Y-83976190D01*
X130952380Y-83642857D02*
X130285714Y-83642857D01*
X130476190Y-83642857D02*
X130380952Y-83595238D01*
X130333333Y-83547619D01*
X130285714Y-83452380D01*
X130285714Y-83357142D01*
X130952380Y-82880952D02*
X130904761Y-82976190D01*
X130857142Y-83023809D01*
X130761904Y-83071428D01*
X130476190Y-83071428D01*
X130380952Y-83023809D01*
X130333333Y-82976190D01*
X130285714Y-82880952D01*
X130285714Y-82738095D01*
X130333333Y-82642857D01*
X130380952Y-82595238D01*
X130476190Y-82547619D01*
X130761904Y-82547619D01*
X130857142Y-82595238D01*
X130904761Y-82642857D01*
X130952380Y-82738095D01*
X130952380Y-82880952D01*
X130952380Y-81690476D02*
X129952380Y-81690476D01*
X130904761Y-81690476D02*
X130952380Y-81785714D01*
X130952380Y-81976190D01*
X130904761Y-82071428D01*
X130857142Y-82119047D01*
X130761904Y-82166666D01*
X130476190Y-82166666D01*
X130380952Y-82119047D01*
X130333333Y-82071428D01*
X130285714Y-81976190D01*
X130285714Y-81785714D01*
X130333333Y-81690476D01*
X130904761Y-80833333D02*
X130952380Y-80928571D01*
X130952380Y-81119047D01*
X130904761Y-81214285D01*
X130809523Y-81261904D01*
X130428571Y-81261904D01*
X130333333Y-81214285D01*
X130285714Y-81119047D01*
X130285714Y-80928571D01*
X130333333Y-80833333D01*
X130428571Y-80785714D01*
X130523809Y-80785714D01*
X130619047Y-81261904D01*
X130952380Y-80357142D02*
X129952380Y-80357142D01*
X130285714Y-79880952D02*
X130952380Y-79880952D01*
X130380952Y-79880952D02*
X130333333Y-79833333D01*
X130285714Y-79738095D01*
X130285714Y-79595238D01*
X130333333Y-79500000D01*
X130428571Y-79452380D01*
X130952380Y-79452380D01*
X130285714Y-79119047D02*
X130285714Y-78738095D01*
X129952380Y-78976190D02*
X130809523Y-78976190D01*
X130904761Y-78928571D01*
X130952380Y-78833333D01*
X130952380Y-78738095D01*
X130952380Y-77642857D02*
X130285714Y-77642857D01*
X130476190Y-77642857D02*
X130380952Y-77595238D01*
X130333333Y-77547619D01*
X130285714Y-77452380D01*
X130285714Y-77357142D01*
X130952380Y-76500000D02*
X130952380Y-77071428D01*
X130952380Y-76785714D02*
X129952380Y-76785714D01*
X130095238Y-76880952D01*
X130190476Y-76976190D01*
X130238095Y-77071428D01*
D11*
X136990000Y-45050000D02*
X136990000Y-43950000D01*
X144890000Y-41940000D02*
X137190000Y-41940000D01*
X137190000Y-41940000D02*
X137190000Y-47060000D01*
X144890000Y-47060000D02*
X137190000Y-47060000D01*
X131000000Y-131000000D02*
X131000000Y-125000000D01*
X125000000Y-131000000D02*
X131000000Y-131000000D01*
X125000000Y-125000000D02*
X125000000Y-131000000D01*
X131000000Y-125000000D02*
X125000000Y-125000000D01*
X126000000Y-130000000D02*
X126000000Y-126000000D01*
X130000000Y-130000000D02*
X126000000Y-130000000D01*
X130000000Y-126000000D02*
X130000000Y-130000000D01*
X126000000Y-126000000D02*
X130000000Y-126000000D01*
X131000000Y-48000000D02*
X131000000Y-42000000D01*
X125000000Y-48000000D02*
X131000000Y-48000000D01*
X125000000Y-42000000D02*
X125000000Y-48000000D01*
X131000000Y-42000000D02*
X125000000Y-42000000D01*
X126000000Y-47000000D02*
X126000000Y-43000000D01*
X130000000Y-47000000D02*
X126000000Y-47000000D01*
X130000000Y-43000000D02*
X130000000Y-47000000D01*
X126000000Y-43000000D02*
X130000000Y-43000000D01*
X136990000Y-129050000D02*
X136990000Y-127950000D01*
X144890000Y-125940000D02*
X137190000Y-125940000D01*
X137190000Y-125940000D02*
X137190000Y-131060000D01*
X144890000Y-131060000D02*
X137190000Y-131060000D01*
X136990000Y-117050000D02*
X136990000Y-115950000D01*
X144890000Y-113940000D02*
X137190000Y-113940000D01*
X137190000Y-113940000D02*
X137190000Y-119060000D01*
X144890000Y-119060000D02*
X137190000Y-119060000D01*
X136990000Y-105050000D02*
X136990000Y-103950000D01*
X144890000Y-101940000D02*
X137190000Y-101940000D01*
X137190000Y-101940000D02*
X137190000Y-107060000D01*
X144890000Y-107060000D02*
X137190000Y-107060000D01*
X136990000Y-93050000D02*
X136990000Y-91950000D01*
X144890000Y-89940000D02*
X137190000Y-89940000D01*
X137190000Y-89940000D02*
X137190000Y-95060000D01*
X144890000Y-95060000D02*
X137190000Y-95060000D01*
X136990000Y-81050000D02*
X136990000Y-79950000D01*
X144890000Y-77940000D02*
X137190000Y-77940000D01*
X137190000Y-77940000D02*
X137190000Y-83060000D01*
X144890000Y-83060000D02*
X137190000Y-83060000D01*
X136990000Y-69050000D02*
X136990000Y-67950000D01*
X144890000Y-65940000D02*
X137190000Y-65940000D01*
X137190000Y-65940000D02*
X137190000Y-71060000D01*
X144890000Y-71060000D02*
X137190000Y-71060000D01*
X136990000Y-57050000D02*
X136990000Y-55950000D01*
X144890000Y-53940000D02*
X137190000Y-53940000D01*
X137190000Y-53940000D02*
X137190000Y-59060000D01*
X144890000Y-59060000D02*
X137190000Y-59060000D01*
X117000000Y-107000000D02*
X117000000Y-101000000D01*
X111000000Y-107000000D02*
X117000000Y-107000000D01*
X111000000Y-101000000D02*
X111000000Y-107000000D01*
X117000000Y-101000000D02*
X111000000Y-101000000D01*
X112000000Y-106000000D02*
X112000000Y-102000000D01*
X116000000Y-106000000D02*
X112000000Y-106000000D01*
X116000000Y-102000000D02*
X116000000Y-106000000D01*
X112000000Y-102000000D02*
X116000000Y-102000000D01*
X125000000Y-102000000D02*
X125000000Y-96000000D01*
X119000000Y-102000000D02*
X125000000Y-102000000D01*
X119000000Y-96000000D02*
X119000000Y-102000000D01*
X125000000Y-96000000D02*
X119000000Y-96000000D01*
X120000000Y-101000000D02*
X120000000Y-97000000D01*
X124000000Y-101000000D02*
X120000000Y-101000000D01*
X124000000Y-97000000D02*
X124000000Y-101000000D01*
X120000000Y-97000000D02*
X124000000Y-97000000D01*
X117000000Y-97000000D02*
X117000000Y-91000000D01*
X111000000Y-97000000D02*
X117000000Y-97000000D01*
X111000000Y-91000000D02*
X111000000Y-97000000D01*
X117000000Y-91000000D02*
X111000000Y-91000000D01*
X112000000Y-96000000D02*
X112000000Y-92000000D01*
X116000000Y-96000000D02*
X112000000Y-96000000D01*
X116000000Y-92000000D02*
X116000000Y-96000000D01*
X112000000Y-92000000D02*
X116000000Y-92000000D01*
X125000000Y-92000000D02*
X125000000Y-86000000D01*
X119000000Y-92000000D02*
X125000000Y-92000000D01*
X119000000Y-86000000D02*
X119000000Y-92000000D01*
X125000000Y-86000000D02*
X119000000Y-86000000D01*
X120000000Y-91000000D02*
X120000000Y-87000000D01*
X124000000Y-91000000D02*
X120000000Y-91000000D01*
X124000000Y-87000000D02*
X124000000Y-91000000D01*
X120000000Y-87000000D02*
X124000000Y-87000000D01*
X117000000Y-87000000D02*
X117000000Y-81000000D01*
X111000000Y-87000000D02*
X117000000Y-87000000D01*
X111000000Y-81000000D02*
X111000000Y-87000000D01*
X117000000Y-81000000D02*
X111000000Y-81000000D01*
X112000000Y-86000000D02*
X112000000Y-82000000D01*
X116000000Y-86000000D02*
X112000000Y-86000000D01*
X116000000Y-82000000D02*
X116000000Y-86000000D01*
X112000000Y-82000000D02*
X116000000Y-82000000D01*
X125000000Y-82000000D02*
X125000000Y-76000000D01*
X119000000Y-82000000D02*
X125000000Y-82000000D01*
X119000000Y-76000000D02*
X119000000Y-82000000D01*
X125000000Y-76000000D02*
X119000000Y-76000000D01*
X120000000Y-81000000D02*
X120000000Y-77000000D01*
X124000000Y-81000000D02*
X120000000Y-81000000D01*
X124000000Y-77000000D02*
X124000000Y-81000000D01*
X120000000Y-77000000D02*
X124000000Y-77000000D01*
X117000000Y-77000000D02*
X117000000Y-71000000D01*
X111000000Y-77000000D02*
X117000000Y-77000000D01*
X111000000Y-71000000D02*
X111000000Y-77000000D01*
X117000000Y-71000000D02*
X111000000Y-71000000D01*
X112000000Y-76000000D02*
X112000000Y-72000000D01*
X116000000Y-76000000D02*
X112000000Y-76000000D01*
X116000000Y-72000000D02*
X116000000Y-76000000D01*
X112000000Y-72000000D02*
X116000000Y-72000000D01*
X125000000Y-72000000D02*
X125000000Y-66000000D01*
X119000000Y-72000000D02*
X125000000Y-72000000D01*
X119000000Y-66000000D02*
X119000000Y-72000000D01*
X125000000Y-66000000D02*
X119000000Y-66000000D01*
X120000000Y-71000000D02*
X120000000Y-67000000D01*
X124000000Y-71000000D02*
X120000000Y-71000000D01*
X124000000Y-67000000D02*
X124000000Y-71000000D01*
X120000000Y-67000000D02*
X124000000Y-67000000D01*
D10*
X134666666Y-43952380D02*
X134666666Y-44666666D01*
X134619047Y-44809523D01*
X134523809Y-44904761D01*
X134380952Y-44952380D01*
X134285714Y-44952380D01*
X135666666Y-44952380D02*
X135095238Y-44952380D01*
X135380952Y-44952380D02*
X135380952Y-43952380D01*
X135285714Y-44095238D01*
X135190476Y-44190476D01*
X135095238Y-44238095D01*
X125190476Y-123452380D02*
X125190476Y-124166666D01*
X125142857Y-124309523D01*
X125047619Y-124404761D01*
X124904761Y-124452380D01*
X124809523Y-124452380D01*
X126190476Y-124452380D02*
X125619047Y-124452380D01*
X125904761Y-124452380D02*
X125904761Y-123452380D01*
X125809523Y-123595238D01*
X125714285Y-123690476D01*
X125619047Y-123738095D01*
X126809523Y-123452380D02*
X126904761Y-123452380D01*
X127000000Y-123500000D01*
X127047619Y-123547619D01*
X127095238Y-123642857D01*
X127142857Y-123833333D01*
X127142857Y-124071428D01*
X127095238Y-124261904D01*
X127047619Y-124357142D01*
X127000000Y-124404761D01*
X126904761Y-124452380D01*
X126809523Y-124452380D01*
X126714285Y-124404761D01*
X126666666Y-124357142D01*
X126619047Y-124261904D01*
X126571428Y-124071428D01*
X126571428Y-123833333D01*
X126619047Y-123642857D01*
X126666666Y-123547619D01*
X126714285Y-123500000D01*
X126809523Y-123452380D01*
X125666666Y-48452380D02*
X125666666Y-49166666D01*
X125619047Y-49309523D01*
X125523809Y-49404761D01*
X125380952Y-49452380D01*
X125285714Y-49452380D01*
X126190476Y-49452380D02*
X126380952Y-49452380D01*
X126476190Y-49404761D01*
X126523809Y-49357142D01*
X126619047Y-49214285D01*
X126666666Y-49023809D01*
X126666666Y-48642857D01*
X126619047Y-48547619D01*
X126571428Y-48500000D01*
X126476190Y-48452380D01*
X126285714Y-48452380D01*
X126190476Y-48500000D01*
X126142857Y-48547619D01*
X126095238Y-48642857D01*
X126095238Y-48880952D01*
X126142857Y-48976190D01*
X126190476Y-49023809D01*
X126285714Y-49071428D01*
X126476190Y-49071428D01*
X126571428Y-49023809D01*
X126619047Y-48976190D01*
X126666666Y-48880952D01*
X134666666Y-127952380D02*
X134666666Y-128666666D01*
X134619047Y-128809523D01*
X134523809Y-128904761D01*
X134380952Y-128952380D01*
X134285714Y-128952380D01*
X135285714Y-128380952D02*
X135190476Y-128333333D01*
X135142857Y-128285714D01*
X135095238Y-128190476D01*
X135095238Y-128142857D01*
X135142857Y-128047619D01*
X135190476Y-128000000D01*
X135285714Y-127952380D01*
X135476190Y-127952380D01*
X135571428Y-128000000D01*
X135619047Y-128047619D01*
X135666666Y-128142857D01*
X135666666Y-128190476D01*
X135619047Y-128285714D01*
X135571428Y-128333333D01*
X135476190Y-128380952D01*
X135285714Y-128380952D01*
X135190476Y-128428571D01*
X135142857Y-128476190D01*
X135095238Y-128571428D01*
X135095238Y-128761904D01*
X135142857Y-128857142D01*
X135190476Y-128904761D01*
X135285714Y-128952380D01*
X135476190Y-128952380D01*
X135571428Y-128904761D01*
X135619047Y-128857142D01*
X135666666Y-128761904D01*
X135666666Y-128571428D01*
X135619047Y-128476190D01*
X135571428Y-128428571D01*
X135476190Y-128380952D01*
X134666666Y-115952380D02*
X134666666Y-116666666D01*
X134619047Y-116809523D01*
X134523809Y-116904761D01*
X134380952Y-116952380D01*
X134285714Y-116952380D01*
X135047619Y-115952380D02*
X135714285Y-115952380D01*
X135285714Y-116952380D01*
X134666666Y-103952380D02*
X134666666Y-104666666D01*
X134619047Y-104809523D01*
X134523809Y-104904761D01*
X134380952Y-104952380D01*
X134285714Y-104952380D01*
X135571428Y-103952380D02*
X135380952Y-103952380D01*
X135285714Y-104000000D01*
X135238095Y-104047619D01*
X135142857Y-104190476D01*
X135095238Y-104380952D01*
X135095238Y-104761904D01*
X135142857Y-104857142D01*
X135190476Y-104904761D01*
X135285714Y-104952380D01*
X135476190Y-104952380D01*
X135571428Y-104904761D01*
X135619047Y-104857142D01*
X135666666Y-104761904D01*
X135666666Y-104523809D01*
X135619047Y-104428571D01*
X135571428Y-104380952D01*
X135476190Y-104333333D01*
X135285714Y-104333333D01*
X135190476Y-104380952D01*
X135142857Y-104428571D01*
X135095238Y-104523809D01*
X134666666Y-91952380D02*
X134666666Y-92666666D01*
X134619047Y-92809523D01*
X134523809Y-92904761D01*
X134380952Y-92952380D01*
X134285714Y-92952380D01*
X135619047Y-91952380D02*
X135142857Y-91952380D01*
X135095238Y-92428571D01*
X135142857Y-92380952D01*
X135238095Y-92333333D01*
X135476190Y-92333333D01*
X135571428Y-92380952D01*
X135619047Y-92428571D01*
X135666666Y-92523809D01*
X135666666Y-92761904D01*
X135619047Y-92857142D01*
X135571428Y-92904761D01*
X135476190Y-92952380D01*
X135238095Y-92952380D01*
X135142857Y-92904761D01*
X135095238Y-92857142D01*
X134666666Y-79952380D02*
X134666666Y-80666666D01*
X134619047Y-80809523D01*
X134523809Y-80904761D01*
X134380952Y-80952380D01*
X134285714Y-80952380D01*
X135571428Y-80285714D02*
X135571428Y-80952380D01*
X135333333Y-79904761D02*
X135095238Y-80619047D01*
X135714285Y-80619047D01*
X134666666Y-67952380D02*
X134666666Y-68666666D01*
X134619047Y-68809523D01*
X134523809Y-68904761D01*
X134380952Y-68952380D01*
X134285714Y-68952380D01*
X135047619Y-67952380D02*
X135666666Y-67952380D01*
X135333333Y-68333333D01*
X135476190Y-68333333D01*
X135571428Y-68380952D01*
X135619047Y-68428571D01*
X135666666Y-68523809D01*
X135666666Y-68761904D01*
X135619047Y-68857142D01*
X135571428Y-68904761D01*
X135476190Y-68952380D01*
X135190476Y-68952380D01*
X135095238Y-68904761D01*
X135047619Y-68857142D01*
X134666666Y-55952380D02*
X134666666Y-56666666D01*
X134619047Y-56809523D01*
X134523809Y-56904761D01*
X134380952Y-56952380D01*
X134285714Y-56952380D01*
X135095238Y-56047619D02*
X135142857Y-56000000D01*
X135238095Y-55952380D01*
X135476190Y-55952380D01*
X135571428Y-56000000D01*
X135619047Y-56047619D01*
X135666666Y-56142857D01*
X135666666Y-56238095D01*
X135619047Y-56380952D01*
X135047619Y-56952380D01*
X135666666Y-56952380D01*
X117309523Y-103928571D02*
X117642857Y-103928571D01*
X117785714Y-104452380D02*
X117309523Y-104452380D01*
X117309523Y-103452380D01*
X117785714Y-103452380D01*
X118357142Y-103880952D02*
X118261904Y-103833333D01*
X118214285Y-103785714D01*
X118166666Y-103690476D01*
X118166666Y-103642857D01*
X118214285Y-103547619D01*
X118261904Y-103500000D01*
X118357142Y-103452380D01*
X118547619Y-103452380D01*
X118642857Y-103500000D01*
X118690476Y-103547619D01*
X118738095Y-103642857D01*
X118738095Y-103690476D01*
X118690476Y-103785714D01*
X118642857Y-103833333D01*
X118547619Y-103880952D01*
X118357142Y-103880952D01*
X118261904Y-103928571D01*
X118214285Y-103976190D01*
X118166666Y-104071428D01*
X118166666Y-104261904D01*
X118214285Y-104357142D01*
X118261904Y-104404761D01*
X118357142Y-104452380D01*
X118547619Y-104452380D01*
X118642857Y-104404761D01*
X118690476Y-104357142D01*
X118738095Y-104261904D01*
X118738095Y-104071428D01*
X118690476Y-103976190D01*
X118642857Y-103928571D01*
X118547619Y-103880952D01*
X117309523Y-98928571D02*
X117642857Y-98928571D01*
X117785714Y-99452380D02*
X117309523Y-99452380D01*
X117309523Y-98452380D01*
X117785714Y-98452380D01*
X118119047Y-98452380D02*
X118785714Y-98452380D01*
X118357142Y-99452380D01*
X117309523Y-93928571D02*
X117642857Y-93928571D01*
X117785714Y-94452380D02*
X117309523Y-94452380D01*
X117309523Y-93452380D01*
X117785714Y-93452380D01*
X118642857Y-93452380D02*
X118452380Y-93452380D01*
X118357142Y-93500000D01*
X118309523Y-93547619D01*
X118214285Y-93690476D01*
X118166666Y-93880952D01*
X118166666Y-94261904D01*
X118214285Y-94357142D01*
X118261904Y-94404761D01*
X118357142Y-94452380D01*
X118547619Y-94452380D01*
X118642857Y-94404761D01*
X118690476Y-94357142D01*
X118738095Y-94261904D01*
X118738095Y-94023809D01*
X118690476Y-93928571D01*
X118642857Y-93880952D01*
X118547619Y-93833333D01*
X118357142Y-93833333D01*
X118261904Y-93880952D01*
X118214285Y-93928571D01*
X118166666Y-94023809D01*
X117309523Y-88928571D02*
X117642857Y-88928571D01*
X117785714Y-89452380D02*
X117309523Y-89452380D01*
X117309523Y-88452380D01*
X117785714Y-88452380D01*
X118690476Y-88452380D02*
X118214285Y-88452380D01*
X118166666Y-88928571D01*
X118214285Y-88880952D01*
X118309523Y-88833333D01*
X118547619Y-88833333D01*
X118642857Y-88880952D01*
X118690476Y-88928571D01*
X118738095Y-89023809D01*
X118738095Y-89261904D01*
X118690476Y-89357142D01*
X118642857Y-89404761D01*
X118547619Y-89452380D01*
X118309523Y-89452380D01*
X118214285Y-89404761D01*
X118166666Y-89357142D01*
X117309523Y-83928571D02*
X117642857Y-83928571D01*
X117785714Y-84452380D02*
X117309523Y-84452380D01*
X117309523Y-83452380D01*
X117785714Y-83452380D01*
X118642857Y-83785714D02*
X118642857Y-84452380D01*
X118404761Y-83404761D02*
X118166666Y-84119047D01*
X118785714Y-84119047D01*
X117309523Y-78928571D02*
X117642857Y-78928571D01*
X117785714Y-79452380D02*
X117309523Y-79452380D01*
X117309523Y-78452380D01*
X117785714Y-78452380D01*
X118119047Y-78452380D02*
X118738095Y-78452380D01*
X118404761Y-78833333D01*
X118547619Y-78833333D01*
X118642857Y-78880952D01*
X118690476Y-78928571D01*
X118738095Y-79023809D01*
X118738095Y-79261904D01*
X118690476Y-79357142D01*
X118642857Y-79404761D01*
X118547619Y-79452380D01*
X118261904Y-79452380D01*
X118166666Y-79404761D01*
X118119047Y-79357142D01*
X117309523Y-73928571D02*
X117642857Y-73928571D01*
X117785714Y-74452380D02*
X117309523Y-74452380D01*
X117309523Y-73452380D01*
X117785714Y-73452380D01*
X118166666Y-73547619D02*
X118214285Y-73500000D01*
X118309523Y-73452380D01*
X118547619Y-73452380D01*
X118642857Y-73500000D01*
X118690476Y-73547619D01*
X118738095Y-73642857D01*
X118738095Y-73738095D01*
X118690476Y-73880952D01*
X118119047Y-74452380D01*
X118738095Y-74452380D01*
X117309523Y-68928571D02*
X117642857Y-68928571D01*
X117785714Y-69452380D02*
X117309523Y-69452380D01*
X117309523Y-68452380D01*
X117785714Y-68452380D01*
X118738095Y-69452380D02*
X118166666Y-69452380D01*
X118452380Y-69452380D02*
X118452380Y-68452380D01*
X118357142Y-68595238D01*
X118261904Y-68690476D01*
X118166666Y-68738095D01*
M02*
