G04 #@! TF.GenerationSoftware,KiCad,Pcbnew,5.1.5*
G04 #@! TF.CreationDate,2020-07-08T23:46:48+09:00*
G04 #@! TF.ProjectId,teabiscuits_electrode_interface,74656162-6973-4637-9569-74735f656c65,rev?*
G04 #@! TF.SameCoordinates,Original*
G04 #@! TF.FileFunction,Copper,L1,Top*
G04 #@! TF.FilePolarity,Positive*
%FSLAX46Y46*%
G04 Gerber Fmt 4.6, Leading zero omitted, Abs format (unit mm)*
G04 Created by KiCad (PCBNEW 5.1.5) date 2020-07-08 23:46:48*
%MOMM*%
%LPD*%
G04 APERTURE LIST*
%ADD10C,0.100000*%
%ADD11R,2.100000X1.100000*%
%ADD12C,1.100000*%
%ADD13C,2.200000*%
%ADD14C,1.000000*%
%ADD15C,0.254000*%
G04 APERTURE END LIST*
G04 #@! TA.AperFunction,SMDPad,CuDef*
D10*
G36*
X137450000Y-42200000D02*
G01*
X144950000Y-42200000D01*
X144950000Y-42750000D01*
X140450000Y-42750000D01*
X140450000Y-43680000D01*
X137450000Y-43680000D01*
X137450000Y-42200000D01*
G37*
G04 #@! TD.AperFunction*
G04 #@! TA.AperFunction,SMDPad,CuDef*
G36*
X137450000Y-45320000D02*
G01*
X140450000Y-45320000D01*
X140450000Y-46250000D01*
X144950000Y-46250000D01*
X144950000Y-46800000D01*
X137450000Y-46800000D01*
X137450000Y-45320000D01*
G37*
G04 #@! TD.AperFunction*
D11*
X138500000Y-44500000D03*
D12*
X128000000Y-128000000D03*
X128000000Y-45000000D03*
G04 #@! TA.AperFunction,SMDPad,CuDef*
D10*
G36*
X137450000Y-126200000D02*
G01*
X144950000Y-126200000D01*
X144950000Y-126750000D01*
X140450000Y-126750000D01*
X140450000Y-127680000D01*
X137450000Y-127680000D01*
X137450000Y-126200000D01*
G37*
G04 #@! TD.AperFunction*
G04 #@! TA.AperFunction,SMDPad,CuDef*
G36*
X137450000Y-129320000D02*
G01*
X140450000Y-129320000D01*
X140450000Y-130250000D01*
X144950000Y-130250000D01*
X144950000Y-130800000D01*
X137450000Y-130800000D01*
X137450000Y-129320000D01*
G37*
G04 #@! TD.AperFunction*
D11*
X138500000Y-128500000D03*
G04 #@! TA.AperFunction,SMDPad,CuDef*
D10*
G36*
X137450000Y-114200000D02*
G01*
X144950000Y-114200000D01*
X144950000Y-114750000D01*
X140450000Y-114750000D01*
X140450000Y-115680000D01*
X137450000Y-115680000D01*
X137450000Y-114200000D01*
G37*
G04 #@! TD.AperFunction*
G04 #@! TA.AperFunction,SMDPad,CuDef*
G36*
X137450000Y-117320000D02*
G01*
X140450000Y-117320000D01*
X140450000Y-118250000D01*
X144950000Y-118250000D01*
X144950000Y-118800000D01*
X137450000Y-118800000D01*
X137450000Y-117320000D01*
G37*
G04 #@! TD.AperFunction*
D11*
X138500000Y-116500000D03*
G04 #@! TA.AperFunction,SMDPad,CuDef*
D10*
G36*
X137450000Y-102200000D02*
G01*
X144950000Y-102200000D01*
X144950000Y-102750000D01*
X140450000Y-102750000D01*
X140450000Y-103680000D01*
X137450000Y-103680000D01*
X137450000Y-102200000D01*
G37*
G04 #@! TD.AperFunction*
G04 #@! TA.AperFunction,SMDPad,CuDef*
G36*
X137450000Y-105320000D02*
G01*
X140450000Y-105320000D01*
X140450000Y-106250000D01*
X144950000Y-106250000D01*
X144950000Y-106800000D01*
X137450000Y-106800000D01*
X137450000Y-105320000D01*
G37*
G04 #@! TD.AperFunction*
D11*
X138500000Y-104500000D03*
G04 #@! TA.AperFunction,SMDPad,CuDef*
D10*
G36*
X137450000Y-90200000D02*
G01*
X144950000Y-90200000D01*
X144950000Y-90750000D01*
X140450000Y-90750000D01*
X140450000Y-91680000D01*
X137450000Y-91680000D01*
X137450000Y-90200000D01*
G37*
G04 #@! TD.AperFunction*
G04 #@! TA.AperFunction,SMDPad,CuDef*
G36*
X137450000Y-93320000D02*
G01*
X140450000Y-93320000D01*
X140450000Y-94250000D01*
X144950000Y-94250000D01*
X144950000Y-94800000D01*
X137450000Y-94800000D01*
X137450000Y-93320000D01*
G37*
G04 #@! TD.AperFunction*
D11*
X138500000Y-92500000D03*
G04 #@! TA.AperFunction,SMDPad,CuDef*
D10*
G36*
X137450000Y-78200000D02*
G01*
X144950000Y-78200000D01*
X144950000Y-78750000D01*
X140450000Y-78750000D01*
X140450000Y-79680000D01*
X137450000Y-79680000D01*
X137450000Y-78200000D01*
G37*
G04 #@! TD.AperFunction*
G04 #@! TA.AperFunction,SMDPad,CuDef*
G36*
X137450000Y-81320000D02*
G01*
X140450000Y-81320000D01*
X140450000Y-82250000D01*
X144950000Y-82250000D01*
X144950000Y-82800000D01*
X137450000Y-82800000D01*
X137450000Y-81320000D01*
G37*
G04 #@! TD.AperFunction*
D11*
X138500000Y-80500000D03*
G04 #@! TA.AperFunction,SMDPad,CuDef*
D10*
G36*
X137450000Y-66200000D02*
G01*
X144950000Y-66200000D01*
X144950000Y-66750000D01*
X140450000Y-66750000D01*
X140450000Y-67680000D01*
X137450000Y-67680000D01*
X137450000Y-66200000D01*
G37*
G04 #@! TD.AperFunction*
G04 #@! TA.AperFunction,SMDPad,CuDef*
G36*
X137450000Y-69320000D02*
G01*
X140450000Y-69320000D01*
X140450000Y-70250000D01*
X144950000Y-70250000D01*
X144950000Y-70800000D01*
X137450000Y-70800000D01*
X137450000Y-69320000D01*
G37*
G04 #@! TD.AperFunction*
D11*
X138500000Y-68500000D03*
G04 #@! TA.AperFunction,SMDPad,CuDef*
D10*
G36*
X137450000Y-54200000D02*
G01*
X144950000Y-54200000D01*
X144950000Y-54750000D01*
X140450000Y-54750000D01*
X140450000Y-55680000D01*
X137450000Y-55680000D01*
X137450000Y-54200000D01*
G37*
G04 #@! TD.AperFunction*
G04 #@! TA.AperFunction,SMDPad,CuDef*
G36*
X137450000Y-57320000D02*
G01*
X140450000Y-57320000D01*
X140450000Y-58250000D01*
X144950000Y-58250000D01*
X144950000Y-58800000D01*
X137450000Y-58800000D01*
X137450000Y-57320000D01*
G37*
G04 #@! TD.AperFunction*
D11*
X138500000Y-56500000D03*
D12*
X114000000Y-104000000D03*
X122000000Y-99000000D03*
X114000000Y-94000000D03*
X122000000Y-89000000D03*
X114000000Y-84000000D03*
X122000000Y-79000000D03*
X114000000Y-74000000D03*
X122000000Y-69000000D03*
D13*
X128000000Y-121000000D03*
X128000000Y-51000000D03*
D14*
X125000000Y-69000000D02*
X122000000Y-69000000D01*
X128500000Y-65500000D02*
X125000000Y-69000000D01*
X128500000Y-65500000D02*
X128500000Y-55500000D01*
X128500000Y-55500000D02*
X135000000Y-49000000D01*
X135000000Y-45950000D02*
X135000000Y-49000000D01*
X136450000Y-44500000D02*
X135000000Y-45950000D01*
X138500000Y-44500000D02*
X136450000Y-44500000D01*
X131500000Y-60000000D02*
X135000000Y-56500000D01*
X135000000Y-56500000D02*
X138500000Y-56500000D01*
X131500000Y-66500000D02*
X131500000Y-60000000D01*
X114000000Y-74000000D02*
X124000000Y-74000000D01*
X124000000Y-74000000D02*
X131500000Y-66500000D01*
X136780034Y-69000000D02*
X137280034Y-68500000D01*
X137280034Y-68500000D02*
X138500000Y-68500000D01*
X136500000Y-69000000D02*
X136780034Y-69000000D01*
X126500000Y-79000000D02*
X136500000Y-69000000D01*
X122000000Y-79000000D02*
X126500000Y-79000000D01*
X138500000Y-80500000D02*
X135000000Y-80500000D01*
X135000000Y-80500000D02*
X131500000Y-84000000D01*
X131500000Y-84000000D02*
X114000000Y-84000000D01*
X137880010Y-92380010D02*
X135380010Y-92380010D01*
X138500000Y-92500000D02*
X138000000Y-92500000D01*
X138000000Y-92500000D02*
X137880010Y-92380010D01*
X132000000Y-89000000D02*
X122000000Y-89000000D01*
X135380010Y-92380010D02*
X132000000Y-89000000D01*
X114777817Y-94000000D02*
X114000000Y-94000000D01*
X126780034Y-94000000D02*
X114777817Y-94000000D01*
X137280034Y-104500000D02*
X126780034Y-94000000D01*
X138500000Y-104500000D02*
X137280034Y-104500000D01*
X133000000Y-116500000D02*
X138500000Y-116500000D01*
X128500000Y-103000000D02*
X128500000Y-112000000D01*
X122000000Y-99000000D02*
X124500000Y-99000000D01*
X128500000Y-112000000D02*
X133000000Y-116500000D01*
X124500000Y-99000000D02*
X128500000Y-103000000D01*
X114000000Y-104000000D02*
X125000000Y-104000000D01*
X125000000Y-104000000D02*
X126000000Y-105000000D01*
X136450000Y-125450000D02*
X136450000Y-128500000D01*
X126000000Y-105000000D02*
X126000000Y-115000000D01*
X136450000Y-128500000D02*
X138500000Y-128500000D01*
X126000000Y-115000000D02*
X136450000Y-125450000D01*
X130060000Y-130060000D02*
X128000000Y-128000000D01*
X138950000Y-130060000D02*
X130060000Y-130060000D01*
X130060000Y-42940000D02*
X128000000Y-45000000D01*
X138950000Y-42940000D02*
X130060000Y-42940000D01*
D15*
G36*
X137205820Y-117639502D02*
G01*
X137325518Y-117675812D01*
X137450000Y-117688072D01*
X139550000Y-117688072D01*
X139674482Y-117675812D01*
X139765001Y-117648353D01*
X139765001Y-118216343D01*
X139761686Y-118250000D01*
X139774912Y-118384283D01*
X139814081Y-118513406D01*
X139877688Y-118632407D01*
X139963289Y-118736711D01*
X140067593Y-118822312D01*
X140186594Y-118885919D01*
X140315717Y-118925088D01*
X140416353Y-118935000D01*
X140450000Y-118938314D01*
X140483647Y-118935000D01*
X144290001Y-118935000D01*
X144290000Y-126065000D01*
X140483647Y-126065000D01*
X140450000Y-126061686D01*
X140416353Y-126065000D01*
X140315717Y-126074912D01*
X140186594Y-126114081D01*
X140067593Y-126177688D01*
X139963289Y-126263289D01*
X139877688Y-126367593D01*
X139814081Y-126486594D01*
X139774912Y-126615717D01*
X139761686Y-126750000D01*
X139765000Y-126783647D01*
X139765000Y-127351646D01*
X139674482Y-127324188D01*
X139550000Y-127311928D01*
X137585000Y-127311928D01*
X137585000Y-125505752D01*
X137590491Y-125450000D01*
X137568577Y-125227501D01*
X137503676Y-125013553D01*
X137398284Y-124816377D01*
X137291989Y-124686856D01*
X137291987Y-124686854D01*
X137256449Y-124643551D01*
X137213146Y-124608013D01*
X137127000Y-124521867D01*
X137127000Y-117635000D01*
X137197397Y-117635000D01*
X137205820Y-117639502D01*
G37*
X137205820Y-117639502D02*
X137325518Y-117675812D01*
X137450000Y-117688072D01*
X139550000Y-117688072D01*
X139674482Y-117675812D01*
X139765001Y-117648353D01*
X139765001Y-118216343D01*
X139761686Y-118250000D01*
X139774912Y-118384283D01*
X139814081Y-118513406D01*
X139877688Y-118632407D01*
X139963289Y-118736711D01*
X140067593Y-118822312D01*
X140186594Y-118885919D01*
X140315717Y-118925088D01*
X140416353Y-118935000D01*
X140450000Y-118938314D01*
X140483647Y-118935000D01*
X144290001Y-118935000D01*
X144290000Y-126065000D01*
X140483647Y-126065000D01*
X140450000Y-126061686D01*
X140416353Y-126065000D01*
X140315717Y-126074912D01*
X140186594Y-126114081D01*
X140067593Y-126177688D01*
X139963289Y-126263289D01*
X139877688Y-126367593D01*
X139814081Y-126486594D01*
X139774912Y-126615717D01*
X139761686Y-126750000D01*
X139765000Y-126783647D01*
X139765000Y-127351646D01*
X139674482Y-127324188D01*
X139550000Y-127311928D01*
X137585000Y-127311928D01*
X137585000Y-125505752D01*
X137590491Y-125450000D01*
X137568577Y-125227501D01*
X137503676Y-125013553D01*
X137398284Y-124816377D01*
X137291989Y-124686856D01*
X137291987Y-124686854D01*
X137256449Y-124643551D01*
X137213146Y-124608013D01*
X137127000Y-124521867D01*
X137127000Y-117635000D01*
X137197397Y-117635000D01*
X137205820Y-117639502D01*
G36*
X137191325Y-105631754D02*
G01*
X137205820Y-105639502D01*
X137325518Y-105675812D01*
X137450000Y-105688072D01*
X139550000Y-105688072D01*
X139674482Y-105675812D01*
X139765001Y-105648353D01*
X139765001Y-106216343D01*
X139761686Y-106250000D01*
X139774912Y-106384283D01*
X139814081Y-106513406D01*
X139877688Y-106632407D01*
X139963289Y-106736711D01*
X140067593Y-106822312D01*
X140186594Y-106885919D01*
X140315717Y-106925088D01*
X140416353Y-106935000D01*
X140450000Y-106938314D01*
X140483647Y-106935000D01*
X144290001Y-106935000D01*
X144290000Y-114065000D01*
X140483647Y-114065000D01*
X140450000Y-114061686D01*
X140416353Y-114065000D01*
X140315717Y-114074912D01*
X140186594Y-114114081D01*
X140067593Y-114177688D01*
X139963289Y-114263289D01*
X139877688Y-114367593D01*
X139814081Y-114486594D01*
X139774912Y-114615717D01*
X139761686Y-114750000D01*
X139765000Y-114783647D01*
X139765000Y-115351646D01*
X139674482Y-115324188D01*
X139550000Y-115311928D01*
X137450000Y-115311928D01*
X137325518Y-115324188D01*
X137205820Y-115360498D01*
X137197397Y-115365000D01*
X137127000Y-115365000D01*
X137127000Y-105625419D01*
X137191325Y-105631754D01*
G37*
X137191325Y-105631754D02*
X137205820Y-105639502D01*
X137325518Y-105675812D01*
X137450000Y-105688072D01*
X139550000Y-105688072D01*
X139674482Y-105675812D01*
X139765001Y-105648353D01*
X139765001Y-106216343D01*
X139761686Y-106250000D01*
X139774912Y-106384283D01*
X139814081Y-106513406D01*
X139877688Y-106632407D01*
X139963289Y-106736711D01*
X140067593Y-106822312D01*
X140186594Y-106885919D01*
X140315717Y-106925088D01*
X140416353Y-106935000D01*
X140450000Y-106938314D01*
X140483647Y-106935000D01*
X144290001Y-106935000D01*
X144290000Y-114065000D01*
X140483647Y-114065000D01*
X140450000Y-114061686D01*
X140416353Y-114065000D01*
X140315717Y-114074912D01*
X140186594Y-114114081D01*
X140067593Y-114177688D01*
X139963289Y-114263289D01*
X139877688Y-114367593D01*
X139814081Y-114486594D01*
X139774912Y-114615717D01*
X139761686Y-114750000D01*
X139765000Y-114783647D01*
X139765000Y-115351646D01*
X139674482Y-115324188D01*
X139550000Y-115311928D01*
X137450000Y-115311928D01*
X137325518Y-115324188D01*
X137205820Y-115360498D01*
X137197397Y-115365000D01*
X137127000Y-115365000D01*
X137127000Y-105625419D01*
X137191325Y-105631754D01*
G36*
X137205820Y-93639502D02*
G01*
X137325518Y-93675812D01*
X137450000Y-93688072D01*
X139550000Y-93688072D01*
X139674482Y-93675812D01*
X139765001Y-93648353D01*
X139765001Y-94216343D01*
X139761686Y-94250000D01*
X139774912Y-94384283D01*
X139814081Y-94513406D01*
X139877688Y-94632407D01*
X139963289Y-94736711D01*
X140067593Y-94822312D01*
X140186594Y-94885919D01*
X140315717Y-94925088D01*
X140416353Y-94935000D01*
X140450000Y-94938314D01*
X140483647Y-94935000D01*
X144290001Y-94935000D01*
X144290000Y-102065000D01*
X140483647Y-102065000D01*
X140450000Y-102061686D01*
X140416353Y-102065000D01*
X140315717Y-102074912D01*
X140186594Y-102114081D01*
X140067593Y-102177688D01*
X139963289Y-102263289D01*
X139877688Y-102367593D01*
X139814081Y-102486594D01*
X139774912Y-102615717D01*
X139761686Y-102750000D01*
X139765000Y-102783647D01*
X139765000Y-103351646D01*
X139674482Y-103324188D01*
X139550000Y-103311928D01*
X137697094Y-103311928D01*
X137127000Y-102741834D01*
X137127000Y-93597371D01*
X137205820Y-93639502D01*
G37*
X137205820Y-93639502D02*
X137325518Y-93675812D01*
X137450000Y-93688072D01*
X139550000Y-93688072D01*
X139674482Y-93675812D01*
X139765001Y-93648353D01*
X139765001Y-94216343D01*
X139761686Y-94250000D01*
X139774912Y-94384283D01*
X139814081Y-94513406D01*
X139877688Y-94632407D01*
X139963289Y-94736711D01*
X140067593Y-94822312D01*
X140186594Y-94885919D01*
X140315717Y-94925088D01*
X140416353Y-94935000D01*
X140450000Y-94938314D01*
X140483647Y-94935000D01*
X144290001Y-94935000D01*
X144290000Y-102065000D01*
X140483647Y-102065000D01*
X140450000Y-102061686D01*
X140416353Y-102065000D01*
X140315717Y-102074912D01*
X140186594Y-102114081D01*
X140067593Y-102177688D01*
X139963289Y-102263289D01*
X139877688Y-102367593D01*
X139814081Y-102486594D01*
X139774912Y-102615717D01*
X139761686Y-102750000D01*
X139765000Y-102783647D01*
X139765000Y-103351646D01*
X139674482Y-103324188D01*
X139550000Y-103311928D01*
X137697094Y-103311928D01*
X137127000Y-102741834D01*
X137127000Y-93597371D01*
X137205820Y-93639502D01*
G36*
X137205820Y-81639502D02*
G01*
X137325518Y-81675812D01*
X137450000Y-81688072D01*
X139550000Y-81688072D01*
X139674482Y-81675812D01*
X139765001Y-81648353D01*
X139765001Y-82216343D01*
X139761686Y-82250000D01*
X139774912Y-82384283D01*
X139814081Y-82513406D01*
X139877688Y-82632407D01*
X139963289Y-82736711D01*
X140067593Y-82822312D01*
X140186594Y-82885919D01*
X140315717Y-82925088D01*
X140416353Y-82935000D01*
X140450000Y-82938314D01*
X140483647Y-82935000D01*
X144290001Y-82935000D01*
X144290000Y-90065000D01*
X140483647Y-90065000D01*
X140450000Y-90061686D01*
X140416353Y-90065000D01*
X140315717Y-90074912D01*
X140186594Y-90114081D01*
X140067593Y-90177688D01*
X139963289Y-90263289D01*
X139877688Y-90367593D01*
X139814081Y-90486594D01*
X139774912Y-90615717D01*
X139761686Y-90750000D01*
X139765000Y-90783647D01*
X139765000Y-91351646D01*
X139674482Y-91324188D01*
X139550000Y-91311928D01*
X138268967Y-91311928D01*
X138102509Y-91261433D01*
X137935762Y-91245010D01*
X137935761Y-91245010D01*
X137880010Y-91239519D01*
X137824259Y-91245010D01*
X137127000Y-91245010D01*
X137127000Y-81635000D01*
X137197397Y-81635000D01*
X137205820Y-81639502D01*
G37*
X137205820Y-81639502D02*
X137325518Y-81675812D01*
X137450000Y-81688072D01*
X139550000Y-81688072D01*
X139674482Y-81675812D01*
X139765001Y-81648353D01*
X139765001Y-82216343D01*
X139761686Y-82250000D01*
X139774912Y-82384283D01*
X139814081Y-82513406D01*
X139877688Y-82632407D01*
X139963289Y-82736711D01*
X140067593Y-82822312D01*
X140186594Y-82885919D01*
X140315717Y-82925088D01*
X140416353Y-82935000D01*
X140450000Y-82938314D01*
X140483647Y-82935000D01*
X144290001Y-82935000D01*
X144290000Y-90065000D01*
X140483647Y-90065000D01*
X140450000Y-90061686D01*
X140416353Y-90065000D01*
X140315717Y-90074912D01*
X140186594Y-90114081D01*
X140067593Y-90177688D01*
X139963289Y-90263289D01*
X139877688Y-90367593D01*
X139814081Y-90486594D01*
X139774912Y-90615717D01*
X139761686Y-90750000D01*
X139765000Y-90783647D01*
X139765000Y-91351646D01*
X139674482Y-91324188D01*
X139550000Y-91311928D01*
X138268967Y-91311928D01*
X138102509Y-91261433D01*
X137935762Y-91245010D01*
X137935761Y-91245010D01*
X137880010Y-91239519D01*
X137824259Y-91245010D01*
X137127000Y-91245010D01*
X137127000Y-81635000D01*
X137197397Y-81635000D01*
X137205820Y-81639502D01*
G36*
X139765001Y-70216343D02*
G01*
X139761686Y-70250000D01*
X139774912Y-70384283D01*
X139814081Y-70513406D01*
X139877688Y-70632407D01*
X139963289Y-70736711D01*
X140067593Y-70822312D01*
X140186594Y-70885919D01*
X140315717Y-70925088D01*
X140416353Y-70935000D01*
X140450000Y-70938314D01*
X140483647Y-70935000D01*
X144290001Y-70935000D01*
X144290000Y-78065000D01*
X140483647Y-78065000D01*
X140450000Y-78061686D01*
X140416353Y-78065000D01*
X140315717Y-78074912D01*
X140186594Y-78114081D01*
X140067593Y-78177688D01*
X139963289Y-78263289D01*
X139877688Y-78367593D01*
X139814081Y-78486594D01*
X139774912Y-78615717D01*
X139761686Y-78750000D01*
X139765000Y-78783647D01*
X139765000Y-79351646D01*
X139674482Y-79324188D01*
X139550000Y-79311928D01*
X137450000Y-79311928D01*
X137325518Y-79324188D01*
X137205820Y-79360498D01*
X137197397Y-79365000D01*
X137127000Y-79365000D01*
X137127000Y-70080820D01*
X137216481Y-70053676D01*
X137413657Y-69948284D01*
X137586483Y-69806449D01*
X137622030Y-69763135D01*
X137697093Y-69688072D01*
X139550000Y-69688072D01*
X139674482Y-69675812D01*
X139765001Y-69648353D01*
X139765001Y-70216343D01*
G37*
X139765001Y-70216343D02*
X139761686Y-70250000D01*
X139774912Y-70384283D01*
X139814081Y-70513406D01*
X139877688Y-70632407D01*
X139963289Y-70736711D01*
X140067593Y-70822312D01*
X140186594Y-70885919D01*
X140315717Y-70925088D01*
X140416353Y-70935000D01*
X140450000Y-70938314D01*
X140483647Y-70935000D01*
X144290001Y-70935000D01*
X144290000Y-78065000D01*
X140483647Y-78065000D01*
X140450000Y-78061686D01*
X140416353Y-78065000D01*
X140315717Y-78074912D01*
X140186594Y-78114081D01*
X140067593Y-78177688D01*
X139963289Y-78263289D01*
X139877688Y-78367593D01*
X139814081Y-78486594D01*
X139774912Y-78615717D01*
X139761686Y-78750000D01*
X139765000Y-78783647D01*
X139765000Y-79351646D01*
X139674482Y-79324188D01*
X139550000Y-79311928D01*
X137450000Y-79311928D01*
X137325518Y-79324188D01*
X137205820Y-79360498D01*
X137197397Y-79365000D01*
X137127000Y-79365000D01*
X137127000Y-70080820D01*
X137216481Y-70053676D01*
X137413657Y-69948284D01*
X137586483Y-69806449D01*
X137622030Y-69763135D01*
X137697093Y-69688072D01*
X139550000Y-69688072D01*
X139674482Y-69675812D01*
X139765001Y-69648353D01*
X139765001Y-70216343D01*
G36*
X137205820Y-57639502D02*
G01*
X137325518Y-57675812D01*
X137450000Y-57688072D01*
X139550000Y-57688072D01*
X139674482Y-57675812D01*
X139765001Y-57648353D01*
X139765001Y-58216343D01*
X139761686Y-58250000D01*
X139774912Y-58384283D01*
X139814081Y-58513406D01*
X139877688Y-58632407D01*
X139963289Y-58736711D01*
X140067593Y-58822312D01*
X140186594Y-58885919D01*
X140315717Y-58925088D01*
X140416353Y-58935000D01*
X140450000Y-58938314D01*
X140483647Y-58935000D01*
X144290001Y-58935000D01*
X144290000Y-66065000D01*
X140483647Y-66065000D01*
X140450000Y-66061686D01*
X140416353Y-66065000D01*
X140315717Y-66074912D01*
X140186594Y-66114081D01*
X140067593Y-66177688D01*
X139963289Y-66263289D01*
X139877688Y-66367593D01*
X139814081Y-66486594D01*
X139774912Y-66615717D01*
X139761686Y-66750000D01*
X139765000Y-66783647D01*
X139765000Y-67351646D01*
X139674482Y-67324188D01*
X139550000Y-67311928D01*
X137450000Y-67311928D01*
X137325518Y-67324188D01*
X137205820Y-67360498D01*
X137191325Y-67368246D01*
X137127000Y-67374581D01*
X137127000Y-57635000D01*
X137197397Y-57635000D01*
X137205820Y-57639502D01*
G37*
X137205820Y-57639502D02*
X137325518Y-57675812D01*
X137450000Y-57688072D01*
X139550000Y-57688072D01*
X139674482Y-57675812D01*
X139765001Y-57648353D01*
X139765001Y-58216343D01*
X139761686Y-58250000D01*
X139774912Y-58384283D01*
X139814081Y-58513406D01*
X139877688Y-58632407D01*
X139963289Y-58736711D01*
X140067593Y-58822312D01*
X140186594Y-58885919D01*
X140315717Y-58925088D01*
X140416353Y-58935000D01*
X140450000Y-58938314D01*
X140483647Y-58935000D01*
X144290001Y-58935000D01*
X144290000Y-66065000D01*
X140483647Y-66065000D01*
X140450000Y-66061686D01*
X140416353Y-66065000D01*
X140315717Y-66074912D01*
X140186594Y-66114081D01*
X140067593Y-66177688D01*
X139963289Y-66263289D01*
X139877688Y-66367593D01*
X139814081Y-66486594D01*
X139774912Y-66615717D01*
X139761686Y-66750000D01*
X139765000Y-66783647D01*
X139765000Y-67351646D01*
X139674482Y-67324188D01*
X139550000Y-67311928D01*
X137450000Y-67311928D01*
X137325518Y-67324188D01*
X137205820Y-67360498D01*
X137191325Y-67368246D01*
X137127000Y-67374581D01*
X137127000Y-57635000D01*
X137197397Y-57635000D01*
X137205820Y-57639502D01*
G36*
X137205820Y-45639502D02*
G01*
X137325518Y-45675812D01*
X137450000Y-45688072D01*
X139550000Y-45688072D01*
X139674482Y-45675812D01*
X139765001Y-45648353D01*
X139765001Y-46216343D01*
X139761686Y-46250000D01*
X139774912Y-46384283D01*
X139814081Y-46513406D01*
X139877688Y-46632407D01*
X139963289Y-46736711D01*
X140067593Y-46822312D01*
X140186594Y-46885919D01*
X140315717Y-46925088D01*
X140416353Y-46935000D01*
X140450000Y-46938314D01*
X140483647Y-46935000D01*
X144290001Y-46935000D01*
X144290000Y-54065000D01*
X140483647Y-54065000D01*
X140450000Y-54061686D01*
X140416353Y-54065000D01*
X140315717Y-54074912D01*
X140186594Y-54114081D01*
X140067593Y-54177688D01*
X139963289Y-54263289D01*
X139877688Y-54367593D01*
X139814081Y-54486594D01*
X139774912Y-54615717D01*
X139761686Y-54750000D01*
X139765000Y-54783647D01*
X139765000Y-55351646D01*
X139674482Y-55324188D01*
X139550000Y-55311928D01*
X137450000Y-55311928D01*
X137325518Y-55324188D01*
X137205820Y-55360498D01*
X137197397Y-55365000D01*
X137127000Y-55365000D01*
X137127000Y-45635000D01*
X137197397Y-45635000D01*
X137205820Y-45639502D01*
G37*
X137205820Y-45639502D02*
X137325518Y-45675812D01*
X137450000Y-45688072D01*
X139550000Y-45688072D01*
X139674482Y-45675812D01*
X139765001Y-45648353D01*
X139765001Y-46216343D01*
X139761686Y-46250000D01*
X139774912Y-46384283D01*
X139814081Y-46513406D01*
X139877688Y-46632407D01*
X139963289Y-46736711D01*
X140067593Y-46822312D01*
X140186594Y-46885919D01*
X140315717Y-46925088D01*
X140416353Y-46935000D01*
X140450000Y-46938314D01*
X140483647Y-46935000D01*
X144290001Y-46935000D01*
X144290000Y-54065000D01*
X140483647Y-54065000D01*
X140450000Y-54061686D01*
X140416353Y-54065000D01*
X140315717Y-54074912D01*
X140186594Y-54114081D01*
X140067593Y-54177688D01*
X139963289Y-54263289D01*
X139877688Y-54367593D01*
X139814081Y-54486594D01*
X139774912Y-54615717D01*
X139761686Y-54750000D01*
X139765000Y-54783647D01*
X139765000Y-55351646D01*
X139674482Y-55324188D01*
X139550000Y-55311928D01*
X137450000Y-55311928D01*
X137325518Y-55324188D01*
X137205820Y-55360498D01*
X137197397Y-55365000D01*
X137127000Y-55365000D01*
X137127000Y-45635000D01*
X137197397Y-45635000D01*
X137205820Y-45639502D01*
G36*
X139877688Y-42367593D02*
G01*
X139814081Y-42486594D01*
X139774912Y-42615717D01*
X139761686Y-42750000D01*
X139765000Y-42783647D01*
X139765000Y-43351646D01*
X139674482Y-43324188D01*
X139550000Y-43311928D01*
X137450000Y-43311928D01*
X137325518Y-43324188D01*
X137205820Y-43360498D01*
X137197397Y-43365000D01*
X137127000Y-43365000D01*
X137127000Y-42360000D01*
X139883919Y-42360000D01*
X139877688Y-42367593D01*
G37*
X139877688Y-42367593D02*
X139814081Y-42486594D01*
X139774912Y-42615717D01*
X139761686Y-42750000D01*
X139765000Y-42783647D01*
X139765000Y-43351646D01*
X139674482Y-43324188D01*
X139550000Y-43311928D01*
X137450000Y-43311928D01*
X137325518Y-43324188D01*
X137205820Y-43360498D01*
X137197397Y-43365000D01*
X137127000Y-43365000D01*
X137127000Y-42360000D01*
X139883919Y-42360000D01*
X139877688Y-42367593D01*
M02*
