G04 #@! TF.GenerationSoftware,KiCad,Pcbnew,5.1.5*
G04 #@! TF.CreationDate,2020-07-08T23:46:48+09:00*
G04 #@! TF.ProjectId,teabiscuits_electrode_interface,74656162-6973-4637-9569-74735f656c65,rev?*
G04 #@! TF.SameCoordinates,Original*
G04 #@! TF.FileFunction,Soldermask,Bot*
G04 #@! TF.FilePolarity,Negative*
%FSLAX46Y46*%
G04 Gerber Fmt 4.6, Leading zero omitted, Abs format (unit mm)*
G04 Created by KiCad (PCBNEW 5.1.5) date 2020-07-08 23:46:48*
%MOMM*%
%LPD*%
G04 APERTURE LIST*
%ADD10C,0.100000*%
G04 APERTURE END LIST*
D10*
G36*
X128136601Y-127414397D02*
G01*
X128175305Y-127422096D01*
X128207340Y-127435365D01*
X128284680Y-127467400D01*
X128383115Y-127533173D01*
X128466827Y-127616885D01*
X128532600Y-127715320D01*
X128577904Y-127824696D01*
X128601000Y-127940805D01*
X128601000Y-128059195D01*
X128577904Y-128175304D01*
X128532600Y-128284680D01*
X128466827Y-128383115D01*
X128383115Y-128466827D01*
X128284680Y-128532600D01*
X128207340Y-128564635D01*
X128175305Y-128577904D01*
X128136601Y-128585603D01*
X128059195Y-128601000D01*
X127940805Y-128601000D01*
X127863399Y-128585603D01*
X127824695Y-128577904D01*
X127792660Y-128564635D01*
X127715320Y-128532600D01*
X127616885Y-128466827D01*
X127533173Y-128383115D01*
X127467400Y-128284680D01*
X127422096Y-128175304D01*
X127399000Y-128059195D01*
X127399000Y-127940805D01*
X127422096Y-127824696D01*
X127467400Y-127715320D01*
X127533173Y-127616885D01*
X127616885Y-127533173D01*
X127715320Y-127467400D01*
X127792660Y-127435365D01*
X127824695Y-127422096D01*
X127863399Y-127414397D01*
X127940805Y-127399000D01*
X128059195Y-127399000D01*
X128136601Y-127414397D01*
G37*
G36*
X114136601Y-103414397D02*
G01*
X114175305Y-103422096D01*
X114207340Y-103435365D01*
X114284680Y-103467400D01*
X114383115Y-103533173D01*
X114466827Y-103616885D01*
X114532600Y-103715320D01*
X114577904Y-103824696D01*
X114601000Y-103940805D01*
X114601000Y-104059195D01*
X114577904Y-104175304D01*
X114532600Y-104284680D01*
X114466827Y-104383115D01*
X114383115Y-104466827D01*
X114284680Y-104532600D01*
X114207340Y-104564635D01*
X114175305Y-104577904D01*
X114136601Y-104585603D01*
X114059195Y-104601000D01*
X113940805Y-104601000D01*
X113863399Y-104585603D01*
X113824695Y-104577904D01*
X113792660Y-104564635D01*
X113715320Y-104532600D01*
X113616885Y-104466827D01*
X113533173Y-104383115D01*
X113467400Y-104284680D01*
X113422096Y-104175304D01*
X113399000Y-104059195D01*
X113399000Y-103940805D01*
X113422096Y-103824696D01*
X113467400Y-103715320D01*
X113533173Y-103616885D01*
X113616885Y-103533173D01*
X113715320Y-103467400D01*
X113792660Y-103435365D01*
X113824695Y-103422096D01*
X113863399Y-103414397D01*
X113940805Y-103399000D01*
X114059195Y-103399000D01*
X114136601Y-103414397D01*
G37*
G36*
X122136601Y-98414397D02*
G01*
X122175305Y-98422096D01*
X122207340Y-98435365D01*
X122284680Y-98467400D01*
X122383115Y-98533173D01*
X122466827Y-98616885D01*
X122532600Y-98715320D01*
X122577904Y-98824696D01*
X122601000Y-98940805D01*
X122601000Y-99059195D01*
X122577904Y-99175304D01*
X122532600Y-99284680D01*
X122466827Y-99383115D01*
X122383115Y-99466827D01*
X122284680Y-99532600D01*
X122207340Y-99564635D01*
X122175305Y-99577904D01*
X122136601Y-99585603D01*
X122059195Y-99601000D01*
X121940805Y-99601000D01*
X121863399Y-99585603D01*
X121824695Y-99577904D01*
X121792660Y-99564635D01*
X121715320Y-99532600D01*
X121616885Y-99466827D01*
X121533173Y-99383115D01*
X121467400Y-99284680D01*
X121422096Y-99175304D01*
X121399000Y-99059195D01*
X121399000Y-98940805D01*
X121422096Y-98824696D01*
X121467400Y-98715320D01*
X121533173Y-98616885D01*
X121616885Y-98533173D01*
X121715320Y-98467400D01*
X121792660Y-98435365D01*
X121824695Y-98422096D01*
X121863399Y-98414397D01*
X121940805Y-98399000D01*
X122059195Y-98399000D01*
X122136601Y-98414397D01*
G37*
G36*
X114136601Y-93414397D02*
G01*
X114175305Y-93422096D01*
X114207340Y-93435365D01*
X114284680Y-93467400D01*
X114383115Y-93533173D01*
X114466827Y-93616885D01*
X114532600Y-93715320D01*
X114577904Y-93824696D01*
X114601000Y-93940805D01*
X114601000Y-94059195D01*
X114577904Y-94175304D01*
X114532600Y-94284680D01*
X114466827Y-94383115D01*
X114383115Y-94466827D01*
X114284680Y-94532600D01*
X114207340Y-94564635D01*
X114175305Y-94577904D01*
X114136601Y-94585603D01*
X114059195Y-94601000D01*
X113940805Y-94601000D01*
X113863399Y-94585603D01*
X113824695Y-94577904D01*
X113792660Y-94564635D01*
X113715320Y-94532600D01*
X113616885Y-94466827D01*
X113533173Y-94383115D01*
X113467400Y-94284680D01*
X113422096Y-94175304D01*
X113399000Y-94059195D01*
X113399000Y-93940805D01*
X113422096Y-93824696D01*
X113467400Y-93715320D01*
X113533173Y-93616885D01*
X113616885Y-93533173D01*
X113715320Y-93467400D01*
X113792660Y-93435365D01*
X113824695Y-93422096D01*
X113863399Y-93414397D01*
X113940805Y-93399000D01*
X114059195Y-93399000D01*
X114136601Y-93414397D01*
G37*
G36*
X122136601Y-88414397D02*
G01*
X122175305Y-88422096D01*
X122207340Y-88435365D01*
X122284680Y-88467400D01*
X122383115Y-88533173D01*
X122466827Y-88616885D01*
X122532600Y-88715320D01*
X122577904Y-88824696D01*
X122601000Y-88940805D01*
X122601000Y-89059195D01*
X122577904Y-89175304D01*
X122532600Y-89284680D01*
X122466827Y-89383115D01*
X122383115Y-89466827D01*
X122284680Y-89532600D01*
X122207340Y-89564635D01*
X122175305Y-89577904D01*
X122136601Y-89585603D01*
X122059195Y-89601000D01*
X121940805Y-89601000D01*
X121863399Y-89585603D01*
X121824695Y-89577904D01*
X121792660Y-89564635D01*
X121715320Y-89532600D01*
X121616885Y-89466827D01*
X121533173Y-89383115D01*
X121467400Y-89284680D01*
X121422096Y-89175304D01*
X121399000Y-89059195D01*
X121399000Y-88940805D01*
X121422096Y-88824696D01*
X121467400Y-88715320D01*
X121533173Y-88616885D01*
X121616885Y-88533173D01*
X121715320Y-88467400D01*
X121792660Y-88435365D01*
X121824695Y-88422096D01*
X121863399Y-88414397D01*
X121940805Y-88399000D01*
X122059195Y-88399000D01*
X122136601Y-88414397D01*
G37*
G36*
X114136601Y-83414397D02*
G01*
X114175305Y-83422096D01*
X114207340Y-83435365D01*
X114284680Y-83467400D01*
X114383115Y-83533173D01*
X114466827Y-83616885D01*
X114532600Y-83715320D01*
X114577904Y-83824696D01*
X114601000Y-83940805D01*
X114601000Y-84059195D01*
X114577904Y-84175304D01*
X114532600Y-84284680D01*
X114466827Y-84383115D01*
X114383115Y-84466827D01*
X114284680Y-84532600D01*
X114207340Y-84564635D01*
X114175305Y-84577904D01*
X114136601Y-84585603D01*
X114059195Y-84601000D01*
X113940805Y-84601000D01*
X113863399Y-84585603D01*
X113824695Y-84577904D01*
X113792660Y-84564635D01*
X113715320Y-84532600D01*
X113616885Y-84466827D01*
X113533173Y-84383115D01*
X113467400Y-84284680D01*
X113422096Y-84175304D01*
X113399000Y-84059195D01*
X113399000Y-83940805D01*
X113422096Y-83824696D01*
X113467400Y-83715320D01*
X113533173Y-83616885D01*
X113616885Y-83533173D01*
X113715320Y-83467400D01*
X113792660Y-83435365D01*
X113824695Y-83422096D01*
X113863399Y-83414397D01*
X113940805Y-83399000D01*
X114059195Y-83399000D01*
X114136601Y-83414397D01*
G37*
G36*
X122136601Y-78414397D02*
G01*
X122175305Y-78422096D01*
X122207340Y-78435365D01*
X122284680Y-78467400D01*
X122383115Y-78533173D01*
X122466827Y-78616885D01*
X122532600Y-78715320D01*
X122577904Y-78824696D01*
X122601000Y-78940805D01*
X122601000Y-79059195D01*
X122577904Y-79175304D01*
X122532600Y-79284680D01*
X122466827Y-79383115D01*
X122383115Y-79466827D01*
X122284680Y-79532600D01*
X122207340Y-79564635D01*
X122175305Y-79577904D01*
X122136601Y-79585603D01*
X122059195Y-79601000D01*
X121940805Y-79601000D01*
X121863399Y-79585603D01*
X121824695Y-79577904D01*
X121792660Y-79564635D01*
X121715320Y-79532600D01*
X121616885Y-79466827D01*
X121533173Y-79383115D01*
X121467400Y-79284680D01*
X121422096Y-79175304D01*
X121399000Y-79059195D01*
X121399000Y-78940805D01*
X121422096Y-78824696D01*
X121467400Y-78715320D01*
X121533173Y-78616885D01*
X121616885Y-78533173D01*
X121715320Y-78467400D01*
X121792660Y-78435365D01*
X121824695Y-78422096D01*
X121863399Y-78414397D01*
X121940805Y-78399000D01*
X122059195Y-78399000D01*
X122136601Y-78414397D01*
G37*
G36*
X114136601Y-73414397D02*
G01*
X114175305Y-73422096D01*
X114207340Y-73435365D01*
X114284680Y-73467400D01*
X114383115Y-73533173D01*
X114466827Y-73616885D01*
X114532600Y-73715320D01*
X114577904Y-73824696D01*
X114601000Y-73940805D01*
X114601000Y-74059195D01*
X114577904Y-74175304D01*
X114532600Y-74284680D01*
X114466827Y-74383115D01*
X114383115Y-74466827D01*
X114284680Y-74532600D01*
X114207340Y-74564635D01*
X114175305Y-74577904D01*
X114136601Y-74585603D01*
X114059195Y-74601000D01*
X113940805Y-74601000D01*
X113863399Y-74585603D01*
X113824695Y-74577904D01*
X113792660Y-74564635D01*
X113715320Y-74532600D01*
X113616885Y-74466827D01*
X113533173Y-74383115D01*
X113467400Y-74284680D01*
X113422096Y-74175304D01*
X113399000Y-74059195D01*
X113399000Y-73940805D01*
X113422096Y-73824696D01*
X113467400Y-73715320D01*
X113533173Y-73616885D01*
X113616885Y-73533173D01*
X113715320Y-73467400D01*
X113792660Y-73435365D01*
X113824695Y-73422096D01*
X113863399Y-73414397D01*
X113940805Y-73399000D01*
X114059195Y-73399000D01*
X114136601Y-73414397D01*
G37*
G36*
X122136601Y-68414397D02*
G01*
X122175305Y-68422096D01*
X122207340Y-68435365D01*
X122284680Y-68467400D01*
X122383115Y-68533173D01*
X122466827Y-68616885D01*
X122532600Y-68715320D01*
X122577904Y-68824696D01*
X122601000Y-68940805D01*
X122601000Y-69059195D01*
X122577904Y-69175304D01*
X122532600Y-69284680D01*
X122466827Y-69383115D01*
X122383115Y-69466827D01*
X122284680Y-69532600D01*
X122207340Y-69564635D01*
X122175305Y-69577904D01*
X122136601Y-69585603D01*
X122059195Y-69601000D01*
X121940805Y-69601000D01*
X121863399Y-69585603D01*
X121824695Y-69577904D01*
X121792660Y-69564635D01*
X121715320Y-69532600D01*
X121616885Y-69466827D01*
X121533173Y-69383115D01*
X121467400Y-69284680D01*
X121422096Y-69175304D01*
X121399000Y-69059195D01*
X121399000Y-68940805D01*
X121422096Y-68824696D01*
X121467400Y-68715320D01*
X121533173Y-68616885D01*
X121616885Y-68533173D01*
X121715320Y-68467400D01*
X121792660Y-68435365D01*
X121824695Y-68422096D01*
X121863399Y-68414397D01*
X121940805Y-68399000D01*
X122059195Y-68399000D01*
X122136601Y-68414397D01*
G37*
G36*
X128136601Y-44414397D02*
G01*
X128175305Y-44422096D01*
X128207340Y-44435365D01*
X128284680Y-44467400D01*
X128383115Y-44533173D01*
X128466827Y-44616885D01*
X128532600Y-44715320D01*
X128577904Y-44824696D01*
X128601000Y-44940805D01*
X128601000Y-45059195D01*
X128577904Y-45175304D01*
X128532600Y-45284680D01*
X128466827Y-45383115D01*
X128383115Y-45466827D01*
X128284680Y-45532600D01*
X128207340Y-45564635D01*
X128175305Y-45577904D01*
X128136601Y-45585603D01*
X128059195Y-45601000D01*
X127940805Y-45601000D01*
X127863399Y-45585603D01*
X127824695Y-45577904D01*
X127792660Y-45564635D01*
X127715320Y-45532600D01*
X127616885Y-45466827D01*
X127533173Y-45383115D01*
X127467400Y-45284680D01*
X127422096Y-45175304D01*
X127399000Y-45059195D01*
X127399000Y-44940805D01*
X127422096Y-44824696D01*
X127467400Y-44715320D01*
X127533173Y-44616885D01*
X127616885Y-44533173D01*
X127715320Y-44467400D01*
X127792660Y-44435365D01*
X127824695Y-44422096D01*
X127863399Y-44414397D01*
X127940805Y-44399000D01*
X128059195Y-44399000D01*
X128136601Y-44414397D01*
G37*
M02*
