M48
; DRILL file {KiCad 5.1.5} date Tue 14 Jul 2020 01:00:19 AM JST
; FORMAT={-:-/ absolute / inch / decimal}
; #@! TF.CreationDate,2020-07-14T01:00:19+09:00
; #@! TF.GenerationSoftware,Kicad,Pcbnew,5.1.5
FMAT,2
INCH
T1C0.0157
T2C0.0276
T3C0.0300
T4C0.0394
T5C0.1220
%
G90
G05
T1
X4.6457Y-4.9213
X4.6654Y-5.2067
X4.7638Y-5.1181
X4.8622Y-5.374
X4.9114Y-5.1772
X4.9114Y-5.3543
X5.1181Y-4.5472
X5.2559Y-5.3937
X5.2953Y-5.5906
X5.502Y-3.873
X5.561Y-5.3051
X5.561Y-3.9183
X5.5807Y-4.5177
X5.5906Y-5.3755
X5.6201Y-5.4921
X5.689Y-5.3346
X5.7283Y-5.3937
X5.8957Y-5.187
X5.9843Y-3.9469
X6.0335Y-5.3051
X6.063Y-5.374
X6.0925Y-5.4921
X6.1614Y-5.3346
X6.2008Y-5.3937
X6.3386Y-4.8228
X6.3976Y-4.7638
X6.4961Y-4.6654
X6.5059Y-5.3051
X6.5354Y-5.374
X6.565Y-5.4921
X6.6339Y-5.3346
X6.6732Y-5.3937
X6.9783Y-5.3051
X7.0374Y-5.4921
X7.8051Y-5.5807
X7.8543Y-4.3504
X7.9232Y-5.0197
X7.9232Y-5.3051
X8.0709Y-4.0453
T2
X8.2972Y-3.9272
X8.2972Y-3.9862
X8.2972Y-4.0453
T3
X5.2945Y-4.3949
X5.2945Y-4.9949
X5.3945Y-4.3949
X5.3945Y-4.9949
X5.4945Y-4.3949
X5.4945Y-4.9949
X5.5945Y-4.3949
X5.5945Y-4.9949
X5.6945Y-4.3949
X5.6945Y-4.9949
X5.7945Y-4.3949
X5.7945Y-4.9949
X5.8945Y-4.3949
X5.8945Y-4.9949
X5.9945Y-4.3949
X5.9945Y-4.9949
X6.0945Y-4.3949
X6.0945Y-4.9949
X6.1945Y-4.3949
X6.1945Y-4.9949
X6.2945Y-4.3949
X6.2945Y-4.9949
X6.3945Y-4.3949
X6.3945Y-4.9949
X6.4945Y-4.3949
X6.4945Y-4.9949
X6.5945Y-4.3949
X6.5945Y-4.9949
X6.6945Y-4.3949
X6.6945Y-4.9949
X6.7945Y-4.3949
X6.7945Y-4.9949
X6.8945Y-4.3949
X6.8945Y-4.9949
X6.9945Y-4.3949
X6.9945Y-4.9949
X7.0945Y-4.3949
X7.0945Y-4.9949
X7.1945Y-4.3949
X7.1945Y-4.9949
X7.2945Y-4.3949
X7.2945Y-4.9949
X7.3945Y-4.3949
X7.3945Y-4.9949
X7.4945Y-4.3949
X7.4945Y-4.9949
X7.5945Y-4.3949
X7.5945Y-4.9949
T4
X4.4587Y-4.398
X4.4587Y-4.498
X4.4587Y-4.598
X4.4587Y-4.698
X4.4587Y-4.798
X8.3858Y-4.311
X8.3858Y-4.411
X8.3858Y-4.511
X8.3858Y-4.611
X8.3858Y-4.711
X8.3858Y-4.811
X8.3858Y-4.911
X6.0705Y-3.9846
X6.0705Y-4.0846
X6.1705Y-3.9846
X6.1705Y-4.0846
X6.2705Y-3.9846
X6.2705Y-4.0846
X6.3705Y-3.9846
X6.3705Y-4.0846
X6.4705Y-3.9846
X6.4705Y-4.0846
X6.5705Y-3.9846
X6.5705Y-4.0846
X6.6705Y-3.9846
X6.6705Y-4.0846
X6.7705Y-3.9846
X6.7705Y-4.0846
X6.8705Y-3.9846
X6.8705Y-4.0846
X6.9705Y-3.9846
X6.9705Y-4.0846
X7.0705Y-3.9846
X7.0705Y-4.0846
X7.1705Y-3.9846
X7.1705Y-4.0846
X7.2705Y-3.9846
X7.2705Y-4.0846
X7.3705Y-3.9846
X7.3705Y-4.0846
X7.4705Y-3.9846
X7.4705Y-4.0846
X8.2382Y-4.311
X8.2382Y-4.411
X8.2382Y-4.511
X8.2382Y-4.611
X8.2382Y-4.711
X8.2382Y-4.811
X8.2382Y-4.911
T5
X4.498Y-5.1673
X5.0886Y-4.1831
X7.7559Y-4.1831
X8.3465Y-5.1673
T0
M30
