G04 #@! TF.GenerationSoftware,KiCad,Pcbnew,5.1.5*
G04 #@! TF.CreationDate,2020-07-14T01:00:17+09:00*
G04 #@! TF.ProjectId,teabiscuits_compute,74656162-6973-4637-9569-74735f636f6d,rev?*
G04 #@! TF.SameCoordinates,Original*
G04 #@! TF.FileFunction,Paste,Top*
G04 #@! TF.FilePolarity,Positive*
%FSLAX46Y46*%
G04 Gerber Fmt 4.6, Leading zero omitted, Abs format (unit mm)*
G04 Created by KiCad (PCBNEW 5.1.5) date 2020-07-14 01:00:17*
%MOMM*%
%LPD*%
G04 APERTURE LIST*
%ADD10C,0.100000*%
%ADD11R,1.100000X2.100000*%
G04 APERTURE END LIST*
D10*
G36*
X144980142Y-134638674D02*
G01*
X145003803Y-134642184D01*
X145027007Y-134647996D01*
X145049529Y-134656054D01*
X145071153Y-134666282D01*
X145091670Y-134678579D01*
X145110883Y-134692829D01*
X145128607Y-134708893D01*
X145144671Y-134726617D01*
X145158921Y-134745830D01*
X145171218Y-134766347D01*
X145181446Y-134787971D01*
X145189504Y-134810493D01*
X145195316Y-134833697D01*
X145198826Y-134857358D01*
X145200000Y-134881250D01*
X145200000Y-135368750D01*
X145198826Y-135392642D01*
X145195316Y-135416303D01*
X145189504Y-135439507D01*
X145181446Y-135462029D01*
X145171218Y-135483653D01*
X145158921Y-135504170D01*
X145144671Y-135523383D01*
X145128607Y-135541107D01*
X145110883Y-135557171D01*
X145091670Y-135571421D01*
X145071153Y-135583718D01*
X145049529Y-135593946D01*
X145027007Y-135602004D01*
X145003803Y-135607816D01*
X144980142Y-135611326D01*
X144956250Y-135612500D01*
X144043750Y-135612500D01*
X144019858Y-135611326D01*
X143996197Y-135607816D01*
X143972993Y-135602004D01*
X143950471Y-135593946D01*
X143928847Y-135583718D01*
X143908330Y-135571421D01*
X143889117Y-135557171D01*
X143871393Y-135541107D01*
X143855329Y-135523383D01*
X143841079Y-135504170D01*
X143828782Y-135483653D01*
X143818554Y-135462029D01*
X143810496Y-135439507D01*
X143804684Y-135416303D01*
X143801174Y-135392642D01*
X143800000Y-135368750D01*
X143800000Y-134881250D01*
X143801174Y-134857358D01*
X143804684Y-134833697D01*
X143810496Y-134810493D01*
X143818554Y-134787971D01*
X143828782Y-134766347D01*
X143841079Y-134745830D01*
X143855329Y-134726617D01*
X143871393Y-134708893D01*
X143889117Y-134692829D01*
X143908330Y-134678579D01*
X143928847Y-134666282D01*
X143950471Y-134656054D01*
X143972993Y-134647996D01*
X143996197Y-134642184D01*
X144019858Y-134638674D01*
X144043750Y-134637500D01*
X144956250Y-134637500D01*
X144980142Y-134638674D01*
G37*
G36*
X144980142Y-136513674D02*
G01*
X145003803Y-136517184D01*
X145027007Y-136522996D01*
X145049529Y-136531054D01*
X145071153Y-136541282D01*
X145091670Y-136553579D01*
X145110883Y-136567829D01*
X145128607Y-136583893D01*
X145144671Y-136601617D01*
X145158921Y-136620830D01*
X145171218Y-136641347D01*
X145181446Y-136662971D01*
X145189504Y-136685493D01*
X145195316Y-136708697D01*
X145198826Y-136732358D01*
X145200000Y-136756250D01*
X145200000Y-137243750D01*
X145198826Y-137267642D01*
X145195316Y-137291303D01*
X145189504Y-137314507D01*
X145181446Y-137337029D01*
X145171218Y-137358653D01*
X145158921Y-137379170D01*
X145144671Y-137398383D01*
X145128607Y-137416107D01*
X145110883Y-137432171D01*
X145091670Y-137446421D01*
X145071153Y-137458718D01*
X145049529Y-137468946D01*
X145027007Y-137477004D01*
X145003803Y-137482816D01*
X144980142Y-137486326D01*
X144956250Y-137487500D01*
X144043750Y-137487500D01*
X144019858Y-137486326D01*
X143996197Y-137482816D01*
X143972993Y-137477004D01*
X143950471Y-137468946D01*
X143928847Y-137458718D01*
X143908330Y-137446421D01*
X143889117Y-137432171D01*
X143871393Y-137416107D01*
X143855329Y-137398383D01*
X143841079Y-137379170D01*
X143828782Y-137358653D01*
X143818554Y-137337029D01*
X143810496Y-137314507D01*
X143804684Y-137291303D01*
X143801174Y-137267642D01*
X143800000Y-137243750D01*
X143800000Y-136756250D01*
X143801174Y-136732358D01*
X143804684Y-136708697D01*
X143810496Y-136685493D01*
X143818554Y-136662971D01*
X143828782Y-136641347D01*
X143841079Y-136620830D01*
X143855329Y-136601617D01*
X143871393Y-136583893D01*
X143889117Y-136567829D01*
X143908330Y-136553579D01*
X143928847Y-136541282D01*
X143950471Y-136531054D01*
X143972993Y-136522996D01*
X143996197Y-136517184D01*
X144019858Y-136513674D01*
X144043750Y-136512500D01*
X144956250Y-136512500D01*
X144980142Y-136513674D01*
G37*
G36*
X202614703Y-143855722D02*
G01*
X202629264Y-143857882D01*
X202643543Y-143861459D01*
X202657403Y-143866418D01*
X202670710Y-143872712D01*
X202683336Y-143880280D01*
X202695159Y-143889048D01*
X202706066Y-143898934D01*
X202715952Y-143909841D01*
X202724720Y-143921664D01*
X202732288Y-143934290D01*
X202738582Y-143947597D01*
X202743541Y-143961457D01*
X202747118Y-143975736D01*
X202749278Y-143990297D01*
X202750000Y-144005000D01*
X202750000Y-144305000D01*
X202749278Y-144319703D01*
X202747118Y-144334264D01*
X202743541Y-144348543D01*
X202738582Y-144362403D01*
X202732288Y-144375710D01*
X202724720Y-144388336D01*
X202715952Y-144400159D01*
X202706066Y-144411066D01*
X202695159Y-144420952D01*
X202683336Y-144429720D01*
X202670710Y-144437288D01*
X202657403Y-144443582D01*
X202643543Y-144448541D01*
X202629264Y-144452118D01*
X202614703Y-144454278D01*
X202600000Y-144455000D01*
X200950000Y-144455000D01*
X200935297Y-144454278D01*
X200920736Y-144452118D01*
X200906457Y-144448541D01*
X200892597Y-144443582D01*
X200879290Y-144437288D01*
X200866664Y-144429720D01*
X200854841Y-144420952D01*
X200843934Y-144411066D01*
X200834048Y-144400159D01*
X200825280Y-144388336D01*
X200817712Y-144375710D01*
X200811418Y-144362403D01*
X200806459Y-144348543D01*
X200802882Y-144334264D01*
X200800722Y-144319703D01*
X200800000Y-144305000D01*
X200800000Y-144005000D01*
X200800722Y-143990297D01*
X200802882Y-143975736D01*
X200806459Y-143961457D01*
X200811418Y-143947597D01*
X200817712Y-143934290D01*
X200825280Y-143921664D01*
X200834048Y-143909841D01*
X200843934Y-143898934D01*
X200854841Y-143889048D01*
X200866664Y-143880280D01*
X200879290Y-143872712D01*
X200892597Y-143866418D01*
X200906457Y-143861459D01*
X200920736Y-143857882D01*
X200935297Y-143855722D01*
X200950000Y-143855000D01*
X202600000Y-143855000D01*
X202614703Y-143855722D01*
G37*
G36*
X202614703Y-142585722D02*
G01*
X202629264Y-142587882D01*
X202643543Y-142591459D01*
X202657403Y-142596418D01*
X202670710Y-142602712D01*
X202683336Y-142610280D01*
X202695159Y-142619048D01*
X202706066Y-142628934D01*
X202715952Y-142639841D01*
X202724720Y-142651664D01*
X202732288Y-142664290D01*
X202738582Y-142677597D01*
X202743541Y-142691457D01*
X202747118Y-142705736D01*
X202749278Y-142720297D01*
X202750000Y-142735000D01*
X202750000Y-143035000D01*
X202749278Y-143049703D01*
X202747118Y-143064264D01*
X202743541Y-143078543D01*
X202738582Y-143092403D01*
X202732288Y-143105710D01*
X202724720Y-143118336D01*
X202715952Y-143130159D01*
X202706066Y-143141066D01*
X202695159Y-143150952D01*
X202683336Y-143159720D01*
X202670710Y-143167288D01*
X202657403Y-143173582D01*
X202643543Y-143178541D01*
X202629264Y-143182118D01*
X202614703Y-143184278D01*
X202600000Y-143185000D01*
X200950000Y-143185000D01*
X200935297Y-143184278D01*
X200920736Y-143182118D01*
X200906457Y-143178541D01*
X200892597Y-143173582D01*
X200879290Y-143167288D01*
X200866664Y-143159720D01*
X200854841Y-143150952D01*
X200843934Y-143141066D01*
X200834048Y-143130159D01*
X200825280Y-143118336D01*
X200817712Y-143105710D01*
X200811418Y-143092403D01*
X200806459Y-143078543D01*
X200802882Y-143064264D01*
X200800722Y-143049703D01*
X200800000Y-143035000D01*
X200800000Y-142735000D01*
X200800722Y-142720297D01*
X200802882Y-142705736D01*
X200806459Y-142691457D01*
X200811418Y-142677597D01*
X200817712Y-142664290D01*
X200825280Y-142651664D01*
X200834048Y-142639841D01*
X200843934Y-142628934D01*
X200854841Y-142619048D01*
X200866664Y-142610280D01*
X200879290Y-142602712D01*
X200892597Y-142596418D01*
X200906457Y-142591459D01*
X200920736Y-142587882D01*
X200935297Y-142585722D01*
X200950000Y-142585000D01*
X202600000Y-142585000D01*
X202614703Y-142585722D01*
G37*
G36*
X202614703Y-141315722D02*
G01*
X202629264Y-141317882D01*
X202643543Y-141321459D01*
X202657403Y-141326418D01*
X202670710Y-141332712D01*
X202683336Y-141340280D01*
X202695159Y-141349048D01*
X202706066Y-141358934D01*
X202715952Y-141369841D01*
X202724720Y-141381664D01*
X202732288Y-141394290D01*
X202738582Y-141407597D01*
X202743541Y-141421457D01*
X202747118Y-141435736D01*
X202749278Y-141450297D01*
X202750000Y-141465000D01*
X202750000Y-141765000D01*
X202749278Y-141779703D01*
X202747118Y-141794264D01*
X202743541Y-141808543D01*
X202738582Y-141822403D01*
X202732288Y-141835710D01*
X202724720Y-141848336D01*
X202715952Y-141860159D01*
X202706066Y-141871066D01*
X202695159Y-141880952D01*
X202683336Y-141889720D01*
X202670710Y-141897288D01*
X202657403Y-141903582D01*
X202643543Y-141908541D01*
X202629264Y-141912118D01*
X202614703Y-141914278D01*
X202600000Y-141915000D01*
X200950000Y-141915000D01*
X200935297Y-141914278D01*
X200920736Y-141912118D01*
X200906457Y-141908541D01*
X200892597Y-141903582D01*
X200879290Y-141897288D01*
X200866664Y-141889720D01*
X200854841Y-141880952D01*
X200843934Y-141871066D01*
X200834048Y-141860159D01*
X200825280Y-141848336D01*
X200817712Y-141835710D01*
X200811418Y-141822403D01*
X200806459Y-141808543D01*
X200802882Y-141794264D01*
X200800722Y-141779703D01*
X200800000Y-141765000D01*
X200800000Y-141465000D01*
X200800722Y-141450297D01*
X200802882Y-141435736D01*
X200806459Y-141421457D01*
X200811418Y-141407597D01*
X200817712Y-141394290D01*
X200825280Y-141381664D01*
X200834048Y-141369841D01*
X200843934Y-141358934D01*
X200854841Y-141349048D01*
X200866664Y-141340280D01*
X200879290Y-141332712D01*
X200892597Y-141326418D01*
X200906457Y-141321459D01*
X200920736Y-141317882D01*
X200935297Y-141315722D01*
X200950000Y-141315000D01*
X202600000Y-141315000D01*
X202614703Y-141315722D01*
G37*
G36*
X202614703Y-140045722D02*
G01*
X202629264Y-140047882D01*
X202643543Y-140051459D01*
X202657403Y-140056418D01*
X202670710Y-140062712D01*
X202683336Y-140070280D01*
X202695159Y-140079048D01*
X202706066Y-140088934D01*
X202715952Y-140099841D01*
X202724720Y-140111664D01*
X202732288Y-140124290D01*
X202738582Y-140137597D01*
X202743541Y-140151457D01*
X202747118Y-140165736D01*
X202749278Y-140180297D01*
X202750000Y-140195000D01*
X202750000Y-140495000D01*
X202749278Y-140509703D01*
X202747118Y-140524264D01*
X202743541Y-140538543D01*
X202738582Y-140552403D01*
X202732288Y-140565710D01*
X202724720Y-140578336D01*
X202715952Y-140590159D01*
X202706066Y-140601066D01*
X202695159Y-140610952D01*
X202683336Y-140619720D01*
X202670710Y-140627288D01*
X202657403Y-140633582D01*
X202643543Y-140638541D01*
X202629264Y-140642118D01*
X202614703Y-140644278D01*
X202600000Y-140645000D01*
X200950000Y-140645000D01*
X200935297Y-140644278D01*
X200920736Y-140642118D01*
X200906457Y-140638541D01*
X200892597Y-140633582D01*
X200879290Y-140627288D01*
X200866664Y-140619720D01*
X200854841Y-140610952D01*
X200843934Y-140601066D01*
X200834048Y-140590159D01*
X200825280Y-140578336D01*
X200817712Y-140565710D01*
X200811418Y-140552403D01*
X200806459Y-140538543D01*
X200802882Y-140524264D01*
X200800722Y-140509703D01*
X200800000Y-140495000D01*
X200800000Y-140195000D01*
X200800722Y-140180297D01*
X200802882Y-140165736D01*
X200806459Y-140151457D01*
X200811418Y-140137597D01*
X200817712Y-140124290D01*
X200825280Y-140111664D01*
X200834048Y-140099841D01*
X200843934Y-140088934D01*
X200854841Y-140079048D01*
X200866664Y-140070280D01*
X200879290Y-140062712D01*
X200892597Y-140056418D01*
X200906457Y-140051459D01*
X200920736Y-140047882D01*
X200935297Y-140045722D01*
X200950000Y-140045000D01*
X202600000Y-140045000D01*
X202614703Y-140045722D01*
G37*
G36*
X207564703Y-140045722D02*
G01*
X207579264Y-140047882D01*
X207593543Y-140051459D01*
X207607403Y-140056418D01*
X207620710Y-140062712D01*
X207633336Y-140070280D01*
X207645159Y-140079048D01*
X207656066Y-140088934D01*
X207665952Y-140099841D01*
X207674720Y-140111664D01*
X207682288Y-140124290D01*
X207688582Y-140137597D01*
X207693541Y-140151457D01*
X207697118Y-140165736D01*
X207699278Y-140180297D01*
X207700000Y-140195000D01*
X207700000Y-140495000D01*
X207699278Y-140509703D01*
X207697118Y-140524264D01*
X207693541Y-140538543D01*
X207688582Y-140552403D01*
X207682288Y-140565710D01*
X207674720Y-140578336D01*
X207665952Y-140590159D01*
X207656066Y-140601066D01*
X207645159Y-140610952D01*
X207633336Y-140619720D01*
X207620710Y-140627288D01*
X207607403Y-140633582D01*
X207593543Y-140638541D01*
X207579264Y-140642118D01*
X207564703Y-140644278D01*
X207550000Y-140645000D01*
X205900000Y-140645000D01*
X205885297Y-140644278D01*
X205870736Y-140642118D01*
X205856457Y-140638541D01*
X205842597Y-140633582D01*
X205829290Y-140627288D01*
X205816664Y-140619720D01*
X205804841Y-140610952D01*
X205793934Y-140601066D01*
X205784048Y-140590159D01*
X205775280Y-140578336D01*
X205767712Y-140565710D01*
X205761418Y-140552403D01*
X205756459Y-140538543D01*
X205752882Y-140524264D01*
X205750722Y-140509703D01*
X205750000Y-140495000D01*
X205750000Y-140195000D01*
X205750722Y-140180297D01*
X205752882Y-140165736D01*
X205756459Y-140151457D01*
X205761418Y-140137597D01*
X205767712Y-140124290D01*
X205775280Y-140111664D01*
X205784048Y-140099841D01*
X205793934Y-140088934D01*
X205804841Y-140079048D01*
X205816664Y-140070280D01*
X205829290Y-140062712D01*
X205842597Y-140056418D01*
X205856457Y-140051459D01*
X205870736Y-140047882D01*
X205885297Y-140045722D01*
X205900000Y-140045000D01*
X207550000Y-140045000D01*
X207564703Y-140045722D01*
G37*
G36*
X207564703Y-141315722D02*
G01*
X207579264Y-141317882D01*
X207593543Y-141321459D01*
X207607403Y-141326418D01*
X207620710Y-141332712D01*
X207633336Y-141340280D01*
X207645159Y-141349048D01*
X207656066Y-141358934D01*
X207665952Y-141369841D01*
X207674720Y-141381664D01*
X207682288Y-141394290D01*
X207688582Y-141407597D01*
X207693541Y-141421457D01*
X207697118Y-141435736D01*
X207699278Y-141450297D01*
X207700000Y-141465000D01*
X207700000Y-141765000D01*
X207699278Y-141779703D01*
X207697118Y-141794264D01*
X207693541Y-141808543D01*
X207688582Y-141822403D01*
X207682288Y-141835710D01*
X207674720Y-141848336D01*
X207665952Y-141860159D01*
X207656066Y-141871066D01*
X207645159Y-141880952D01*
X207633336Y-141889720D01*
X207620710Y-141897288D01*
X207607403Y-141903582D01*
X207593543Y-141908541D01*
X207579264Y-141912118D01*
X207564703Y-141914278D01*
X207550000Y-141915000D01*
X205900000Y-141915000D01*
X205885297Y-141914278D01*
X205870736Y-141912118D01*
X205856457Y-141908541D01*
X205842597Y-141903582D01*
X205829290Y-141897288D01*
X205816664Y-141889720D01*
X205804841Y-141880952D01*
X205793934Y-141871066D01*
X205784048Y-141860159D01*
X205775280Y-141848336D01*
X205767712Y-141835710D01*
X205761418Y-141822403D01*
X205756459Y-141808543D01*
X205752882Y-141794264D01*
X205750722Y-141779703D01*
X205750000Y-141765000D01*
X205750000Y-141465000D01*
X205750722Y-141450297D01*
X205752882Y-141435736D01*
X205756459Y-141421457D01*
X205761418Y-141407597D01*
X205767712Y-141394290D01*
X205775280Y-141381664D01*
X205784048Y-141369841D01*
X205793934Y-141358934D01*
X205804841Y-141349048D01*
X205816664Y-141340280D01*
X205829290Y-141332712D01*
X205842597Y-141326418D01*
X205856457Y-141321459D01*
X205870736Y-141317882D01*
X205885297Y-141315722D01*
X205900000Y-141315000D01*
X207550000Y-141315000D01*
X207564703Y-141315722D01*
G37*
G36*
X207564703Y-142585722D02*
G01*
X207579264Y-142587882D01*
X207593543Y-142591459D01*
X207607403Y-142596418D01*
X207620710Y-142602712D01*
X207633336Y-142610280D01*
X207645159Y-142619048D01*
X207656066Y-142628934D01*
X207665952Y-142639841D01*
X207674720Y-142651664D01*
X207682288Y-142664290D01*
X207688582Y-142677597D01*
X207693541Y-142691457D01*
X207697118Y-142705736D01*
X207699278Y-142720297D01*
X207700000Y-142735000D01*
X207700000Y-143035000D01*
X207699278Y-143049703D01*
X207697118Y-143064264D01*
X207693541Y-143078543D01*
X207688582Y-143092403D01*
X207682288Y-143105710D01*
X207674720Y-143118336D01*
X207665952Y-143130159D01*
X207656066Y-143141066D01*
X207645159Y-143150952D01*
X207633336Y-143159720D01*
X207620710Y-143167288D01*
X207607403Y-143173582D01*
X207593543Y-143178541D01*
X207579264Y-143182118D01*
X207564703Y-143184278D01*
X207550000Y-143185000D01*
X205900000Y-143185000D01*
X205885297Y-143184278D01*
X205870736Y-143182118D01*
X205856457Y-143178541D01*
X205842597Y-143173582D01*
X205829290Y-143167288D01*
X205816664Y-143159720D01*
X205804841Y-143150952D01*
X205793934Y-143141066D01*
X205784048Y-143130159D01*
X205775280Y-143118336D01*
X205767712Y-143105710D01*
X205761418Y-143092403D01*
X205756459Y-143078543D01*
X205752882Y-143064264D01*
X205750722Y-143049703D01*
X205750000Y-143035000D01*
X205750000Y-142735000D01*
X205750722Y-142720297D01*
X205752882Y-142705736D01*
X205756459Y-142691457D01*
X205761418Y-142677597D01*
X205767712Y-142664290D01*
X205775280Y-142651664D01*
X205784048Y-142639841D01*
X205793934Y-142628934D01*
X205804841Y-142619048D01*
X205816664Y-142610280D01*
X205829290Y-142602712D01*
X205842597Y-142596418D01*
X205856457Y-142591459D01*
X205870736Y-142587882D01*
X205885297Y-142585722D01*
X205900000Y-142585000D01*
X207550000Y-142585000D01*
X207564703Y-142585722D01*
G37*
G36*
X207564703Y-143855722D02*
G01*
X207579264Y-143857882D01*
X207593543Y-143861459D01*
X207607403Y-143866418D01*
X207620710Y-143872712D01*
X207633336Y-143880280D01*
X207645159Y-143889048D01*
X207656066Y-143898934D01*
X207665952Y-143909841D01*
X207674720Y-143921664D01*
X207682288Y-143934290D01*
X207688582Y-143947597D01*
X207693541Y-143961457D01*
X207697118Y-143975736D01*
X207699278Y-143990297D01*
X207700000Y-144005000D01*
X207700000Y-144305000D01*
X207699278Y-144319703D01*
X207697118Y-144334264D01*
X207693541Y-144348543D01*
X207688582Y-144362403D01*
X207682288Y-144375710D01*
X207674720Y-144388336D01*
X207665952Y-144400159D01*
X207656066Y-144411066D01*
X207645159Y-144420952D01*
X207633336Y-144429720D01*
X207620710Y-144437288D01*
X207607403Y-144443582D01*
X207593543Y-144448541D01*
X207579264Y-144452118D01*
X207564703Y-144454278D01*
X207550000Y-144455000D01*
X205900000Y-144455000D01*
X205885297Y-144454278D01*
X205870736Y-144452118D01*
X205856457Y-144448541D01*
X205842597Y-144443582D01*
X205829290Y-144437288D01*
X205816664Y-144429720D01*
X205804841Y-144420952D01*
X205793934Y-144411066D01*
X205784048Y-144400159D01*
X205775280Y-144388336D01*
X205767712Y-144375710D01*
X205761418Y-144362403D01*
X205756459Y-144348543D01*
X205752882Y-144334264D01*
X205750722Y-144319703D01*
X205750000Y-144305000D01*
X205750000Y-144005000D01*
X205750722Y-143990297D01*
X205752882Y-143975736D01*
X205756459Y-143961457D01*
X205761418Y-143947597D01*
X205767712Y-143934290D01*
X205775280Y-143921664D01*
X205784048Y-143909841D01*
X205793934Y-143898934D01*
X205804841Y-143889048D01*
X205816664Y-143880280D01*
X205829290Y-143872712D01*
X205842597Y-143866418D01*
X205856457Y-143861459D01*
X205870736Y-143857882D01*
X205885297Y-143855722D01*
X205900000Y-143855000D01*
X207550000Y-143855000D01*
X207564703Y-143855722D01*
G37*
G36*
X199730142Y-143263674D02*
G01*
X199753803Y-143267184D01*
X199777007Y-143272996D01*
X199799529Y-143281054D01*
X199821153Y-143291282D01*
X199841670Y-143303579D01*
X199860883Y-143317829D01*
X199878607Y-143333893D01*
X199894671Y-143351617D01*
X199908921Y-143370830D01*
X199921218Y-143391347D01*
X199931446Y-143412971D01*
X199939504Y-143435493D01*
X199945316Y-143458697D01*
X199948826Y-143482358D01*
X199950000Y-143506250D01*
X199950000Y-143993750D01*
X199948826Y-144017642D01*
X199945316Y-144041303D01*
X199939504Y-144064507D01*
X199931446Y-144087029D01*
X199921218Y-144108653D01*
X199908921Y-144129170D01*
X199894671Y-144148383D01*
X199878607Y-144166107D01*
X199860883Y-144182171D01*
X199841670Y-144196421D01*
X199821153Y-144208718D01*
X199799529Y-144218946D01*
X199777007Y-144227004D01*
X199753803Y-144232816D01*
X199730142Y-144236326D01*
X199706250Y-144237500D01*
X198793750Y-144237500D01*
X198769858Y-144236326D01*
X198746197Y-144232816D01*
X198722993Y-144227004D01*
X198700471Y-144218946D01*
X198678847Y-144208718D01*
X198658330Y-144196421D01*
X198639117Y-144182171D01*
X198621393Y-144166107D01*
X198605329Y-144148383D01*
X198591079Y-144129170D01*
X198578782Y-144108653D01*
X198568554Y-144087029D01*
X198560496Y-144064507D01*
X198554684Y-144041303D01*
X198551174Y-144017642D01*
X198550000Y-143993750D01*
X198550000Y-143506250D01*
X198551174Y-143482358D01*
X198554684Y-143458697D01*
X198560496Y-143435493D01*
X198568554Y-143412971D01*
X198578782Y-143391347D01*
X198591079Y-143370830D01*
X198605329Y-143351617D01*
X198621393Y-143333893D01*
X198639117Y-143317829D01*
X198658330Y-143303579D01*
X198678847Y-143291282D01*
X198700471Y-143281054D01*
X198722993Y-143272996D01*
X198746197Y-143267184D01*
X198769858Y-143263674D01*
X198793750Y-143262500D01*
X199706250Y-143262500D01*
X199730142Y-143263674D01*
G37*
G36*
X199730142Y-141388674D02*
G01*
X199753803Y-141392184D01*
X199777007Y-141397996D01*
X199799529Y-141406054D01*
X199821153Y-141416282D01*
X199841670Y-141428579D01*
X199860883Y-141442829D01*
X199878607Y-141458893D01*
X199894671Y-141476617D01*
X199908921Y-141495830D01*
X199921218Y-141516347D01*
X199931446Y-141537971D01*
X199939504Y-141560493D01*
X199945316Y-141583697D01*
X199948826Y-141607358D01*
X199950000Y-141631250D01*
X199950000Y-142118750D01*
X199948826Y-142142642D01*
X199945316Y-142166303D01*
X199939504Y-142189507D01*
X199931446Y-142212029D01*
X199921218Y-142233653D01*
X199908921Y-142254170D01*
X199894671Y-142273383D01*
X199878607Y-142291107D01*
X199860883Y-142307171D01*
X199841670Y-142321421D01*
X199821153Y-142333718D01*
X199799529Y-142343946D01*
X199777007Y-142352004D01*
X199753803Y-142357816D01*
X199730142Y-142361326D01*
X199706250Y-142362500D01*
X198793750Y-142362500D01*
X198769858Y-142361326D01*
X198746197Y-142357816D01*
X198722993Y-142352004D01*
X198700471Y-142343946D01*
X198678847Y-142333718D01*
X198658330Y-142321421D01*
X198639117Y-142307171D01*
X198621393Y-142291107D01*
X198605329Y-142273383D01*
X198591079Y-142254170D01*
X198578782Y-142233653D01*
X198568554Y-142212029D01*
X198560496Y-142189507D01*
X198554684Y-142166303D01*
X198551174Y-142142642D01*
X198550000Y-142118750D01*
X198550000Y-141631250D01*
X198551174Y-141607358D01*
X198554684Y-141583697D01*
X198560496Y-141560493D01*
X198568554Y-141537971D01*
X198578782Y-141516347D01*
X198591079Y-141495830D01*
X198605329Y-141476617D01*
X198621393Y-141458893D01*
X198639117Y-141442829D01*
X198658330Y-141428579D01*
X198678847Y-141416282D01*
X198700471Y-141406054D01*
X198722993Y-141397996D01*
X198746197Y-141392184D01*
X198769858Y-141388674D01*
X198793750Y-141387500D01*
X199706250Y-141387500D01*
X199730142Y-141388674D01*
G37*
G36*
X209730142Y-140076174D02*
G01*
X209753803Y-140079684D01*
X209777007Y-140085496D01*
X209799529Y-140093554D01*
X209821153Y-140103782D01*
X209841670Y-140116079D01*
X209860883Y-140130329D01*
X209878607Y-140146393D01*
X209894671Y-140164117D01*
X209908921Y-140183330D01*
X209921218Y-140203847D01*
X209931446Y-140225471D01*
X209939504Y-140247993D01*
X209945316Y-140271197D01*
X209948826Y-140294858D01*
X209950000Y-140318750D01*
X209950000Y-140806250D01*
X209948826Y-140830142D01*
X209945316Y-140853803D01*
X209939504Y-140877007D01*
X209931446Y-140899529D01*
X209921218Y-140921153D01*
X209908921Y-140941670D01*
X209894671Y-140960883D01*
X209878607Y-140978607D01*
X209860883Y-140994671D01*
X209841670Y-141008921D01*
X209821153Y-141021218D01*
X209799529Y-141031446D01*
X209777007Y-141039504D01*
X209753803Y-141045316D01*
X209730142Y-141048826D01*
X209706250Y-141050000D01*
X208793750Y-141050000D01*
X208769858Y-141048826D01*
X208746197Y-141045316D01*
X208722993Y-141039504D01*
X208700471Y-141031446D01*
X208678847Y-141021218D01*
X208658330Y-141008921D01*
X208639117Y-140994671D01*
X208621393Y-140978607D01*
X208605329Y-140960883D01*
X208591079Y-140941670D01*
X208578782Y-140921153D01*
X208568554Y-140899529D01*
X208560496Y-140877007D01*
X208554684Y-140853803D01*
X208551174Y-140830142D01*
X208550000Y-140806250D01*
X208550000Y-140318750D01*
X208551174Y-140294858D01*
X208554684Y-140271197D01*
X208560496Y-140247993D01*
X208568554Y-140225471D01*
X208578782Y-140203847D01*
X208591079Y-140183330D01*
X208605329Y-140164117D01*
X208621393Y-140146393D01*
X208639117Y-140130329D01*
X208658330Y-140116079D01*
X208678847Y-140103782D01*
X208700471Y-140093554D01*
X208722993Y-140085496D01*
X208746197Y-140079684D01*
X208769858Y-140076174D01*
X208793750Y-140075000D01*
X209706250Y-140075000D01*
X209730142Y-140076174D01*
G37*
G36*
X209730142Y-141951174D02*
G01*
X209753803Y-141954684D01*
X209777007Y-141960496D01*
X209799529Y-141968554D01*
X209821153Y-141978782D01*
X209841670Y-141991079D01*
X209860883Y-142005329D01*
X209878607Y-142021393D01*
X209894671Y-142039117D01*
X209908921Y-142058330D01*
X209921218Y-142078847D01*
X209931446Y-142100471D01*
X209939504Y-142122993D01*
X209945316Y-142146197D01*
X209948826Y-142169858D01*
X209950000Y-142193750D01*
X209950000Y-142681250D01*
X209948826Y-142705142D01*
X209945316Y-142728803D01*
X209939504Y-142752007D01*
X209931446Y-142774529D01*
X209921218Y-142796153D01*
X209908921Y-142816670D01*
X209894671Y-142835883D01*
X209878607Y-142853607D01*
X209860883Y-142869671D01*
X209841670Y-142883921D01*
X209821153Y-142896218D01*
X209799529Y-142906446D01*
X209777007Y-142914504D01*
X209753803Y-142920316D01*
X209730142Y-142923826D01*
X209706250Y-142925000D01*
X208793750Y-142925000D01*
X208769858Y-142923826D01*
X208746197Y-142920316D01*
X208722993Y-142914504D01*
X208700471Y-142906446D01*
X208678847Y-142896218D01*
X208658330Y-142883921D01*
X208639117Y-142869671D01*
X208621393Y-142853607D01*
X208605329Y-142835883D01*
X208591079Y-142816670D01*
X208578782Y-142796153D01*
X208568554Y-142774529D01*
X208560496Y-142752007D01*
X208554684Y-142728803D01*
X208551174Y-142705142D01*
X208550000Y-142681250D01*
X208550000Y-142193750D01*
X208551174Y-142169858D01*
X208554684Y-142146197D01*
X208560496Y-142122993D01*
X208568554Y-142100471D01*
X208578782Y-142078847D01*
X208591079Y-142058330D01*
X208605329Y-142039117D01*
X208621393Y-142021393D01*
X208639117Y-142005329D01*
X208658330Y-141991079D01*
X208678847Y-141978782D01*
X208700471Y-141968554D01*
X208722993Y-141960496D01*
X208746197Y-141954684D01*
X208769858Y-141951174D01*
X208793750Y-141950000D01*
X209706250Y-141950000D01*
X209730142Y-141951174D01*
G37*
G36*
X178205142Y-138301174D02*
G01*
X178228803Y-138304684D01*
X178252007Y-138310496D01*
X178274529Y-138318554D01*
X178296153Y-138328782D01*
X178316670Y-138341079D01*
X178335883Y-138355329D01*
X178353607Y-138371393D01*
X178369671Y-138389117D01*
X178383921Y-138408330D01*
X178396218Y-138428847D01*
X178406446Y-138450471D01*
X178414504Y-138472993D01*
X178420316Y-138496197D01*
X178423826Y-138519858D01*
X178425000Y-138543750D01*
X178425000Y-139456250D01*
X178423826Y-139480142D01*
X178420316Y-139503803D01*
X178414504Y-139527007D01*
X178406446Y-139549529D01*
X178396218Y-139571153D01*
X178383921Y-139591670D01*
X178369671Y-139610883D01*
X178353607Y-139628607D01*
X178335883Y-139644671D01*
X178316670Y-139658921D01*
X178296153Y-139671218D01*
X178274529Y-139681446D01*
X178252007Y-139689504D01*
X178228803Y-139695316D01*
X178205142Y-139698826D01*
X178181250Y-139700000D01*
X177693750Y-139700000D01*
X177669858Y-139698826D01*
X177646197Y-139695316D01*
X177622993Y-139689504D01*
X177600471Y-139681446D01*
X177578847Y-139671218D01*
X177558330Y-139658921D01*
X177539117Y-139644671D01*
X177521393Y-139628607D01*
X177505329Y-139610883D01*
X177491079Y-139591670D01*
X177478782Y-139571153D01*
X177468554Y-139549529D01*
X177460496Y-139527007D01*
X177454684Y-139503803D01*
X177451174Y-139480142D01*
X177450000Y-139456250D01*
X177450000Y-138543750D01*
X177451174Y-138519858D01*
X177454684Y-138496197D01*
X177460496Y-138472993D01*
X177468554Y-138450471D01*
X177478782Y-138428847D01*
X177491079Y-138408330D01*
X177505329Y-138389117D01*
X177521393Y-138371393D01*
X177539117Y-138355329D01*
X177558330Y-138341079D01*
X177578847Y-138328782D01*
X177600471Y-138318554D01*
X177622993Y-138310496D01*
X177646197Y-138304684D01*
X177669858Y-138301174D01*
X177693750Y-138300000D01*
X178181250Y-138300000D01*
X178205142Y-138301174D01*
G37*
G36*
X176330142Y-138301174D02*
G01*
X176353803Y-138304684D01*
X176377007Y-138310496D01*
X176399529Y-138318554D01*
X176421153Y-138328782D01*
X176441670Y-138341079D01*
X176460883Y-138355329D01*
X176478607Y-138371393D01*
X176494671Y-138389117D01*
X176508921Y-138408330D01*
X176521218Y-138428847D01*
X176531446Y-138450471D01*
X176539504Y-138472993D01*
X176545316Y-138496197D01*
X176548826Y-138519858D01*
X176550000Y-138543750D01*
X176550000Y-139456250D01*
X176548826Y-139480142D01*
X176545316Y-139503803D01*
X176539504Y-139527007D01*
X176531446Y-139549529D01*
X176521218Y-139571153D01*
X176508921Y-139591670D01*
X176494671Y-139610883D01*
X176478607Y-139628607D01*
X176460883Y-139644671D01*
X176441670Y-139658921D01*
X176421153Y-139671218D01*
X176399529Y-139681446D01*
X176377007Y-139689504D01*
X176353803Y-139695316D01*
X176330142Y-139698826D01*
X176306250Y-139700000D01*
X175818750Y-139700000D01*
X175794858Y-139698826D01*
X175771197Y-139695316D01*
X175747993Y-139689504D01*
X175725471Y-139681446D01*
X175703847Y-139671218D01*
X175683330Y-139658921D01*
X175664117Y-139644671D01*
X175646393Y-139628607D01*
X175630329Y-139610883D01*
X175616079Y-139591670D01*
X175603782Y-139571153D01*
X175593554Y-139549529D01*
X175585496Y-139527007D01*
X175579684Y-139503803D01*
X175576174Y-139480142D01*
X175575000Y-139456250D01*
X175575000Y-138543750D01*
X175576174Y-138519858D01*
X175579684Y-138496197D01*
X175585496Y-138472993D01*
X175593554Y-138450471D01*
X175603782Y-138428847D01*
X175616079Y-138408330D01*
X175630329Y-138389117D01*
X175646393Y-138371393D01*
X175664117Y-138355329D01*
X175683330Y-138341079D01*
X175703847Y-138328782D01*
X175725471Y-138318554D01*
X175747993Y-138310496D01*
X175771197Y-138304684D01*
X175794858Y-138301174D01*
X175818750Y-138300000D01*
X176306250Y-138300000D01*
X176330142Y-138301174D01*
G37*
G36*
X166205142Y-138301174D02*
G01*
X166228803Y-138304684D01*
X166252007Y-138310496D01*
X166274529Y-138318554D01*
X166296153Y-138328782D01*
X166316670Y-138341079D01*
X166335883Y-138355329D01*
X166353607Y-138371393D01*
X166369671Y-138389117D01*
X166383921Y-138408330D01*
X166396218Y-138428847D01*
X166406446Y-138450471D01*
X166414504Y-138472993D01*
X166420316Y-138496197D01*
X166423826Y-138519858D01*
X166425000Y-138543750D01*
X166425000Y-139456250D01*
X166423826Y-139480142D01*
X166420316Y-139503803D01*
X166414504Y-139527007D01*
X166406446Y-139549529D01*
X166396218Y-139571153D01*
X166383921Y-139591670D01*
X166369671Y-139610883D01*
X166353607Y-139628607D01*
X166335883Y-139644671D01*
X166316670Y-139658921D01*
X166296153Y-139671218D01*
X166274529Y-139681446D01*
X166252007Y-139689504D01*
X166228803Y-139695316D01*
X166205142Y-139698826D01*
X166181250Y-139700000D01*
X165693750Y-139700000D01*
X165669858Y-139698826D01*
X165646197Y-139695316D01*
X165622993Y-139689504D01*
X165600471Y-139681446D01*
X165578847Y-139671218D01*
X165558330Y-139658921D01*
X165539117Y-139644671D01*
X165521393Y-139628607D01*
X165505329Y-139610883D01*
X165491079Y-139591670D01*
X165478782Y-139571153D01*
X165468554Y-139549529D01*
X165460496Y-139527007D01*
X165454684Y-139503803D01*
X165451174Y-139480142D01*
X165450000Y-139456250D01*
X165450000Y-138543750D01*
X165451174Y-138519858D01*
X165454684Y-138496197D01*
X165460496Y-138472993D01*
X165468554Y-138450471D01*
X165478782Y-138428847D01*
X165491079Y-138408330D01*
X165505329Y-138389117D01*
X165521393Y-138371393D01*
X165539117Y-138355329D01*
X165558330Y-138341079D01*
X165578847Y-138328782D01*
X165600471Y-138318554D01*
X165622993Y-138310496D01*
X165646197Y-138304684D01*
X165669858Y-138301174D01*
X165693750Y-138300000D01*
X166181250Y-138300000D01*
X166205142Y-138301174D01*
G37*
G36*
X164330142Y-138301174D02*
G01*
X164353803Y-138304684D01*
X164377007Y-138310496D01*
X164399529Y-138318554D01*
X164421153Y-138328782D01*
X164441670Y-138341079D01*
X164460883Y-138355329D01*
X164478607Y-138371393D01*
X164494671Y-138389117D01*
X164508921Y-138408330D01*
X164521218Y-138428847D01*
X164531446Y-138450471D01*
X164539504Y-138472993D01*
X164545316Y-138496197D01*
X164548826Y-138519858D01*
X164550000Y-138543750D01*
X164550000Y-139456250D01*
X164548826Y-139480142D01*
X164545316Y-139503803D01*
X164539504Y-139527007D01*
X164531446Y-139549529D01*
X164521218Y-139571153D01*
X164508921Y-139591670D01*
X164494671Y-139610883D01*
X164478607Y-139628607D01*
X164460883Y-139644671D01*
X164441670Y-139658921D01*
X164421153Y-139671218D01*
X164399529Y-139681446D01*
X164377007Y-139689504D01*
X164353803Y-139695316D01*
X164330142Y-139698826D01*
X164306250Y-139700000D01*
X163818750Y-139700000D01*
X163794858Y-139698826D01*
X163771197Y-139695316D01*
X163747993Y-139689504D01*
X163725471Y-139681446D01*
X163703847Y-139671218D01*
X163683330Y-139658921D01*
X163664117Y-139644671D01*
X163646393Y-139628607D01*
X163630329Y-139610883D01*
X163616079Y-139591670D01*
X163603782Y-139571153D01*
X163593554Y-139549529D01*
X163585496Y-139527007D01*
X163579684Y-139503803D01*
X163576174Y-139480142D01*
X163575000Y-139456250D01*
X163575000Y-138543750D01*
X163576174Y-138519858D01*
X163579684Y-138496197D01*
X163585496Y-138472993D01*
X163593554Y-138450471D01*
X163603782Y-138428847D01*
X163616079Y-138408330D01*
X163630329Y-138389117D01*
X163646393Y-138371393D01*
X163664117Y-138355329D01*
X163683330Y-138341079D01*
X163703847Y-138328782D01*
X163725471Y-138318554D01*
X163747993Y-138310496D01*
X163771197Y-138304684D01*
X163794858Y-138301174D01*
X163818750Y-138300000D01*
X164306250Y-138300000D01*
X164330142Y-138301174D01*
G37*
G36*
X154205142Y-138301174D02*
G01*
X154228803Y-138304684D01*
X154252007Y-138310496D01*
X154274529Y-138318554D01*
X154296153Y-138328782D01*
X154316670Y-138341079D01*
X154335883Y-138355329D01*
X154353607Y-138371393D01*
X154369671Y-138389117D01*
X154383921Y-138408330D01*
X154396218Y-138428847D01*
X154406446Y-138450471D01*
X154414504Y-138472993D01*
X154420316Y-138496197D01*
X154423826Y-138519858D01*
X154425000Y-138543750D01*
X154425000Y-139456250D01*
X154423826Y-139480142D01*
X154420316Y-139503803D01*
X154414504Y-139527007D01*
X154406446Y-139549529D01*
X154396218Y-139571153D01*
X154383921Y-139591670D01*
X154369671Y-139610883D01*
X154353607Y-139628607D01*
X154335883Y-139644671D01*
X154316670Y-139658921D01*
X154296153Y-139671218D01*
X154274529Y-139681446D01*
X154252007Y-139689504D01*
X154228803Y-139695316D01*
X154205142Y-139698826D01*
X154181250Y-139700000D01*
X153693750Y-139700000D01*
X153669858Y-139698826D01*
X153646197Y-139695316D01*
X153622993Y-139689504D01*
X153600471Y-139681446D01*
X153578847Y-139671218D01*
X153558330Y-139658921D01*
X153539117Y-139644671D01*
X153521393Y-139628607D01*
X153505329Y-139610883D01*
X153491079Y-139591670D01*
X153478782Y-139571153D01*
X153468554Y-139549529D01*
X153460496Y-139527007D01*
X153454684Y-139503803D01*
X153451174Y-139480142D01*
X153450000Y-139456250D01*
X153450000Y-138543750D01*
X153451174Y-138519858D01*
X153454684Y-138496197D01*
X153460496Y-138472993D01*
X153468554Y-138450471D01*
X153478782Y-138428847D01*
X153491079Y-138408330D01*
X153505329Y-138389117D01*
X153521393Y-138371393D01*
X153539117Y-138355329D01*
X153558330Y-138341079D01*
X153578847Y-138328782D01*
X153600471Y-138318554D01*
X153622993Y-138310496D01*
X153646197Y-138304684D01*
X153669858Y-138301174D01*
X153693750Y-138300000D01*
X154181250Y-138300000D01*
X154205142Y-138301174D01*
G37*
G36*
X152330142Y-138301174D02*
G01*
X152353803Y-138304684D01*
X152377007Y-138310496D01*
X152399529Y-138318554D01*
X152421153Y-138328782D01*
X152441670Y-138341079D01*
X152460883Y-138355329D01*
X152478607Y-138371393D01*
X152494671Y-138389117D01*
X152508921Y-138408330D01*
X152521218Y-138428847D01*
X152531446Y-138450471D01*
X152539504Y-138472993D01*
X152545316Y-138496197D01*
X152548826Y-138519858D01*
X152550000Y-138543750D01*
X152550000Y-139456250D01*
X152548826Y-139480142D01*
X152545316Y-139503803D01*
X152539504Y-139527007D01*
X152531446Y-139549529D01*
X152521218Y-139571153D01*
X152508921Y-139591670D01*
X152494671Y-139610883D01*
X152478607Y-139628607D01*
X152460883Y-139644671D01*
X152441670Y-139658921D01*
X152421153Y-139671218D01*
X152399529Y-139681446D01*
X152377007Y-139689504D01*
X152353803Y-139695316D01*
X152330142Y-139698826D01*
X152306250Y-139700000D01*
X151818750Y-139700000D01*
X151794858Y-139698826D01*
X151771197Y-139695316D01*
X151747993Y-139689504D01*
X151725471Y-139681446D01*
X151703847Y-139671218D01*
X151683330Y-139658921D01*
X151664117Y-139644671D01*
X151646393Y-139628607D01*
X151630329Y-139610883D01*
X151616079Y-139591670D01*
X151603782Y-139571153D01*
X151593554Y-139549529D01*
X151585496Y-139527007D01*
X151579684Y-139503803D01*
X151576174Y-139480142D01*
X151575000Y-139456250D01*
X151575000Y-138543750D01*
X151576174Y-138519858D01*
X151579684Y-138496197D01*
X151585496Y-138472993D01*
X151593554Y-138450471D01*
X151603782Y-138428847D01*
X151616079Y-138408330D01*
X151630329Y-138389117D01*
X151646393Y-138371393D01*
X151664117Y-138355329D01*
X151683330Y-138341079D01*
X151703847Y-138328782D01*
X151725471Y-138318554D01*
X151747993Y-138310496D01*
X151771197Y-138304684D01*
X151794858Y-138301174D01*
X151818750Y-138300000D01*
X152306250Y-138300000D01*
X152330142Y-138301174D01*
G37*
G36*
X168980142Y-134638674D02*
G01*
X169003803Y-134642184D01*
X169027007Y-134647996D01*
X169049529Y-134656054D01*
X169071153Y-134666282D01*
X169091670Y-134678579D01*
X169110883Y-134692829D01*
X169128607Y-134708893D01*
X169144671Y-134726617D01*
X169158921Y-134745830D01*
X169171218Y-134766347D01*
X169181446Y-134787971D01*
X169189504Y-134810493D01*
X169195316Y-134833697D01*
X169198826Y-134857358D01*
X169200000Y-134881250D01*
X169200000Y-135368750D01*
X169198826Y-135392642D01*
X169195316Y-135416303D01*
X169189504Y-135439507D01*
X169181446Y-135462029D01*
X169171218Y-135483653D01*
X169158921Y-135504170D01*
X169144671Y-135523383D01*
X169128607Y-135541107D01*
X169110883Y-135557171D01*
X169091670Y-135571421D01*
X169071153Y-135583718D01*
X169049529Y-135593946D01*
X169027007Y-135602004D01*
X169003803Y-135607816D01*
X168980142Y-135611326D01*
X168956250Y-135612500D01*
X168043750Y-135612500D01*
X168019858Y-135611326D01*
X167996197Y-135607816D01*
X167972993Y-135602004D01*
X167950471Y-135593946D01*
X167928847Y-135583718D01*
X167908330Y-135571421D01*
X167889117Y-135557171D01*
X167871393Y-135541107D01*
X167855329Y-135523383D01*
X167841079Y-135504170D01*
X167828782Y-135483653D01*
X167818554Y-135462029D01*
X167810496Y-135439507D01*
X167804684Y-135416303D01*
X167801174Y-135392642D01*
X167800000Y-135368750D01*
X167800000Y-134881250D01*
X167801174Y-134857358D01*
X167804684Y-134833697D01*
X167810496Y-134810493D01*
X167818554Y-134787971D01*
X167828782Y-134766347D01*
X167841079Y-134745830D01*
X167855329Y-134726617D01*
X167871393Y-134708893D01*
X167889117Y-134692829D01*
X167908330Y-134678579D01*
X167928847Y-134666282D01*
X167950471Y-134656054D01*
X167972993Y-134647996D01*
X167996197Y-134642184D01*
X168019858Y-134638674D01*
X168043750Y-134637500D01*
X168956250Y-134637500D01*
X168980142Y-134638674D01*
G37*
G36*
X168980142Y-136513674D02*
G01*
X169003803Y-136517184D01*
X169027007Y-136522996D01*
X169049529Y-136531054D01*
X169071153Y-136541282D01*
X169091670Y-136553579D01*
X169110883Y-136567829D01*
X169128607Y-136583893D01*
X169144671Y-136601617D01*
X169158921Y-136620830D01*
X169171218Y-136641347D01*
X169181446Y-136662971D01*
X169189504Y-136685493D01*
X169195316Y-136708697D01*
X169198826Y-136732358D01*
X169200000Y-136756250D01*
X169200000Y-137243750D01*
X169198826Y-137267642D01*
X169195316Y-137291303D01*
X169189504Y-137314507D01*
X169181446Y-137337029D01*
X169171218Y-137358653D01*
X169158921Y-137379170D01*
X169144671Y-137398383D01*
X169128607Y-137416107D01*
X169110883Y-137432171D01*
X169091670Y-137446421D01*
X169071153Y-137458718D01*
X169049529Y-137468946D01*
X169027007Y-137477004D01*
X169003803Y-137482816D01*
X168980142Y-137486326D01*
X168956250Y-137487500D01*
X168043750Y-137487500D01*
X168019858Y-137486326D01*
X167996197Y-137482816D01*
X167972993Y-137477004D01*
X167950471Y-137468946D01*
X167928847Y-137458718D01*
X167908330Y-137446421D01*
X167889117Y-137432171D01*
X167871393Y-137416107D01*
X167855329Y-137398383D01*
X167841079Y-137379170D01*
X167828782Y-137358653D01*
X167818554Y-137337029D01*
X167810496Y-137314507D01*
X167804684Y-137291303D01*
X167801174Y-137267642D01*
X167800000Y-137243750D01*
X167800000Y-136756250D01*
X167801174Y-136732358D01*
X167804684Y-136708697D01*
X167810496Y-136685493D01*
X167818554Y-136662971D01*
X167828782Y-136641347D01*
X167841079Y-136620830D01*
X167855329Y-136601617D01*
X167871393Y-136583893D01*
X167889117Y-136567829D01*
X167908330Y-136553579D01*
X167928847Y-136541282D01*
X167950471Y-136531054D01*
X167972993Y-136522996D01*
X167996197Y-136517184D01*
X168019858Y-136513674D01*
X168043750Y-136512500D01*
X168956250Y-136512500D01*
X168980142Y-136513674D01*
G37*
G36*
X156980142Y-134638674D02*
G01*
X157003803Y-134642184D01*
X157027007Y-134647996D01*
X157049529Y-134656054D01*
X157071153Y-134666282D01*
X157091670Y-134678579D01*
X157110883Y-134692829D01*
X157128607Y-134708893D01*
X157144671Y-134726617D01*
X157158921Y-134745830D01*
X157171218Y-134766347D01*
X157181446Y-134787971D01*
X157189504Y-134810493D01*
X157195316Y-134833697D01*
X157198826Y-134857358D01*
X157200000Y-134881250D01*
X157200000Y-135368750D01*
X157198826Y-135392642D01*
X157195316Y-135416303D01*
X157189504Y-135439507D01*
X157181446Y-135462029D01*
X157171218Y-135483653D01*
X157158921Y-135504170D01*
X157144671Y-135523383D01*
X157128607Y-135541107D01*
X157110883Y-135557171D01*
X157091670Y-135571421D01*
X157071153Y-135583718D01*
X157049529Y-135593946D01*
X157027007Y-135602004D01*
X157003803Y-135607816D01*
X156980142Y-135611326D01*
X156956250Y-135612500D01*
X156043750Y-135612500D01*
X156019858Y-135611326D01*
X155996197Y-135607816D01*
X155972993Y-135602004D01*
X155950471Y-135593946D01*
X155928847Y-135583718D01*
X155908330Y-135571421D01*
X155889117Y-135557171D01*
X155871393Y-135541107D01*
X155855329Y-135523383D01*
X155841079Y-135504170D01*
X155828782Y-135483653D01*
X155818554Y-135462029D01*
X155810496Y-135439507D01*
X155804684Y-135416303D01*
X155801174Y-135392642D01*
X155800000Y-135368750D01*
X155800000Y-134881250D01*
X155801174Y-134857358D01*
X155804684Y-134833697D01*
X155810496Y-134810493D01*
X155818554Y-134787971D01*
X155828782Y-134766347D01*
X155841079Y-134745830D01*
X155855329Y-134726617D01*
X155871393Y-134708893D01*
X155889117Y-134692829D01*
X155908330Y-134678579D01*
X155928847Y-134666282D01*
X155950471Y-134656054D01*
X155972993Y-134647996D01*
X155996197Y-134642184D01*
X156019858Y-134638674D01*
X156043750Y-134637500D01*
X156956250Y-134637500D01*
X156980142Y-134638674D01*
G37*
G36*
X156980142Y-136513674D02*
G01*
X157003803Y-136517184D01*
X157027007Y-136522996D01*
X157049529Y-136531054D01*
X157071153Y-136541282D01*
X157091670Y-136553579D01*
X157110883Y-136567829D01*
X157128607Y-136583893D01*
X157144671Y-136601617D01*
X157158921Y-136620830D01*
X157171218Y-136641347D01*
X157181446Y-136662971D01*
X157189504Y-136685493D01*
X157195316Y-136708697D01*
X157198826Y-136732358D01*
X157200000Y-136756250D01*
X157200000Y-137243750D01*
X157198826Y-137267642D01*
X157195316Y-137291303D01*
X157189504Y-137314507D01*
X157181446Y-137337029D01*
X157171218Y-137358653D01*
X157158921Y-137379170D01*
X157144671Y-137398383D01*
X157128607Y-137416107D01*
X157110883Y-137432171D01*
X157091670Y-137446421D01*
X157071153Y-137458718D01*
X157049529Y-137468946D01*
X157027007Y-137477004D01*
X157003803Y-137482816D01*
X156980142Y-137486326D01*
X156956250Y-137487500D01*
X156043750Y-137487500D01*
X156019858Y-137486326D01*
X155996197Y-137482816D01*
X155972993Y-137477004D01*
X155950471Y-137468946D01*
X155928847Y-137458718D01*
X155908330Y-137446421D01*
X155889117Y-137432171D01*
X155871393Y-137416107D01*
X155855329Y-137398383D01*
X155841079Y-137379170D01*
X155828782Y-137358653D01*
X155818554Y-137337029D01*
X155810496Y-137314507D01*
X155804684Y-137291303D01*
X155801174Y-137267642D01*
X155800000Y-137243750D01*
X155800000Y-136756250D01*
X155801174Y-136732358D01*
X155804684Y-136708697D01*
X155810496Y-136685493D01*
X155818554Y-136662971D01*
X155828782Y-136641347D01*
X155841079Y-136620830D01*
X155855329Y-136601617D01*
X155871393Y-136583893D01*
X155889117Y-136567829D01*
X155908330Y-136553579D01*
X155928847Y-136541282D01*
X155950471Y-136531054D01*
X155972993Y-136522996D01*
X155996197Y-136517184D01*
X156019858Y-136513674D01*
X156043750Y-136512500D01*
X156956250Y-136512500D01*
X156980142Y-136513674D01*
G37*
G36*
X178480142Y-134513674D02*
G01*
X178503803Y-134517184D01*
X178527007Y-134522996D01*
X178549529Y-134531054D01*
X178571153Y-134541282D01*
X178591670Y-134553579D01*
X178610883Y-134567829D01*
X178628607Y-134583893D01*
X178644671Y-134601617D01*
X178658921Y-134620830D01*
X178671218Y-134641347D01*
X178681446Y-134662971D01*
X178689504Y-134685493D01*
X178695316Y-134708697D01*
X178698826Y-134732358D01*
X178700000Y-134756250D01*
X178700000Y-135243750D01*
X178698826Y-135267642D01*
X178695316Y-135291303D01*
X178689504Y-135314507D01*
X178681446Y-135337029D01*
X178671218Y-135358653D01*
X178658921Y-135379170D01*
X178644671Y-135398383D01*
X178628607Y-135416107D01*
X178610883Y-135432171D01*
X178591670Y-135446421D01*
X178571153Y-135458718D01*
X178549529Y-135468946D01*
X178527007Y-135477004D01*
X178503803Y-135482816D01*
X178480142Y-135486326D01*
X178456250Y-135487500D01*
X177543750Y-135487500D01*
X177519858Y-135486326D01*
X177496197Y-135482816D01*
X177472993Y-135477004D01*
X177450471Y-135468946D01*
X177428847Y-135458718D01*
X177408330Y-135446421D01*
X177389117Y-135432171D01*
X177371393Y-135416107D01*
X177355329Y-135398383D01*
X177341079Y-135379170D01*
X177328782Y-135358653D01*
X177318554Y-135337029D01*
X177310496Y-135314507D01*
X177304684Y-135291303D01*
X177301174Y-135267642D01*
X177300000Y-135243750D01*
X177300000Y-134756250D01*
X177301174Y-134732358D01*
X177304684Y-134708697D01*
X177310496Y-134685493D01*
X177318554Y-134662971D01*
X177328782Y-134641347D01*
X177341079Y-134620830D01*
X177355329Y-134601617D01*
X177371393Y-134583893D01*
X177389117Y-134567829D01*
X177408330Y-134553579D01*
X177428847Y-134541282D01*
X177450471Y-134531054D01*
X177472993Y-134522996D01*
X177496197Y-134517184D01*
X177519858Y-134513674D01*
X177543750Y-134512500D01*
X178456250Y-134512500D01*
X178480142Y-134513674D01*
G37*
G36*
X178480142Y-136388674D02*
G01*
X178503803Y-136392184D01*
X178527007Y-136397996D01*
X178549529Y-136406054D01*
X178571153Y-136416282D01*
X178591670Y-136428579D01*
X178610883Y-136442829D01*
X178628607Y-136458893D01*
X178644671Y-136476617D01*
X178658921Y-136495830D01*
X178671218Y-136516347D01*
X178681446Y-136537971D01*
X178689504Y-136560493D01*
X178695316Y-136583697D01*
X178698826Y-136607358D01*
X178700000Y-136631250D01*
X178700000Y-137118750D01*
X178698826Y-137142642D01*
X178695316Y-137166303D01*
X178689504Y-137189507D01*
X178681446Y-137212029D01*
X178671218Y-137233653D01*
X178658921Y-137254170D01*
X178644671Y-137273383D01*
X178628607Y-137291107D01*
X178610883Y-137307171D01*
X178591670Y-137321421D01*
X178571153Y-137333718D01*
X178549529Y-137343946D01*
X178527007Y-137352004D01*
X178503803Y-137357816D01*
X178480142Y-137361326D01*
X178456250Y-137362500D01*
X177543750Y-137362500D01*
X177519858Y-137361326D01*
X177496197Y-137357816D01*
X177472993Y-137352004D01*
X177450471Y-137343946D01*
X177428847Y-137333718D01*
X177408330Y-137321421D01*
X177389117Y-137307171D01*
X177371393Y-137291107D01*
X177355329Y-137273383D01*
X177341079Y-137254170D01*
X177328782Y-137233653D01*
X177318554Y-137212029D01*
X177310496Y-137189507D01*
X177304684Y-137166303D01*
X177301174Y-137142642D01*
X177300000Y-137118750D01*
X177300000Y-136631250D01*
X177301174Y-136607358D01*
X177304684Y-136583697D01*
X177310496Y-136560493D01*
X177318554Y-136537971D01*
X177328782Y-136516347D01*
X177341079Y-136495830D01*
X177355329Y-136476617D01*
X177371393Y-136458893D01*
X177389117Y-136442829D01*
X177408330Y-136428579D01*
X177428847Y-136416282D01*
X177450471Y-136406054D01*
X177472993Y-136397996D01*
X177496197Y-136392184D01*
X177519858Y-136388674D01*
X177543750Y-136387500D01*
X178456250Y-136387500D01*
X178480142Y-136388674D01*
G37*
G36*
X166480142Y-134513674D02*
G01*
X166503803Y-134517184D01*
X166527007Y-134522996D01*
X166549529Y-134531054D01*
X166571153Y-134541282D01*
X166591670Y-134553579D01*
X166610883Y-134567829D01*
X166628607Y-134583893D01*
X166644671Y-134601617D01*
X166658921Y-134620830D01*
X166671218Y-134641347D01*
X166681446Y-134662971D01*
X166689504Y-134685493D01*
X166695316Y-134708697D01*
X166698826Y-134732358D01*
X166700000Y-134756250D01*
X166700000Y-135243750D01*
X166698826Y-135267642D01*
X166695316Y-135291303D01*
X166689504Y-135314507D01*
X166681446Y-135337029D01*
X166671218Y-135358653D01*
X166658921Y-135379170D01*
X166644671Y-135398383D01*
X166628607Y-135416107D01*
X166610883Y-135432171D01*
X166591670Y-135446421D01*
X166571153Y-135458718D01*
X166549529Y-135468946D01*
X166527007Y-135477004D01*
X166503803Y-135482816D01*
X166480142Y-135486326D01*
X166456250Y-135487500D01*
X165543750Y-135487500D01*
X165519858Y-135486326D01*
X165496197Y-135482816D01*
X165472993Y-135477004D01*
X165450471Y-135468946D01*
X165428847Y-135458718D01*
X165408330Y-135446421D01*
X165389117Y-135432171D01*
X165371393Y-135416107D01*
X165355329Y-135398383D01*
X165341079Y-135379170D01*
X165328782Y-135358653D01*
X165318554Y-135337029D01*
X165310496Y-135314507D01*
X165304684Y-135291303D01*
X165301174Y-135267642D01*
X165300000Y-135243750D01*
X165300000Y-134756250D01*
X165301174Y-134732358D01*
X165304684Y-134708697D01*
X165310496Y-134685493D01*
X165318554Y-134662971D01*
X165328782Y-134641347D01*
X165341079Y-134620830D01*
X165355329Y-134601617D01*
X165371393Y-134583893D01*
X165389117Y-134567829D01*
X165408330Y-134553579D01*
X165428847Y-134541282D01*
X165450471Y-134531054D01*
X165472993Y-134522996D01*
X165496197Y-134517184D01*
X165519858Y-134513674D01*
X165543750Y-134512500D01*
X166456250Y-134512500D01*
X166480142Y-134513674D01*
G37*
G36*
X166480142Y-136388674D02*
G01*
X166503803Y-136392184D01*
X166527007Y-136397996D01*
X166549529Y-136406054D01*
X166571153Y-136416282D01*
X166591670Y-136428579D01*
X166610883Y-136442829D01*
X166628607Y-136458893D01*
X166644671Y-136476617D01*
X166658921Y-136495830D01*
X166671218Y-136516347D01*
X166681446Y-136537971D01*
X166689504Y-136560493D01*
X166695316Y-136583697D01*
X166698826Y-136607358D01*
X166700000Y-136631250D01*
X166700000Y-137118750D01*
X166698826Y-137142642D01*
X166695316Y-137166303D01*
X166689504Y-137189507D01*
X166681446Y-137212029D01*
X166671218Y-137233653D01*
X166658921Y-137254170D01*
X166644671Y-137273383D01*
X166628607Y-137291107D01*
X166610883Y-137307171D01*
X166591670Y-137321421D01*
X166571153Y-137333718D01*
X166549529Y-137343946D01*
X166527007Y-137352004D01*
X166503803Y-137357816D01*
X166480142Y-137361326D01*
X166456250Y-137362500D01*
X165543750Y-137362500D01*
X165519858Y-137361326D01*
X165496197Y-137357816D01*
X165472993Y-137352004D01*
X165450471Y-137343946D01*
X165428847Y-137333718D01*
X165408330Y-137321421D01*
X165389117Y-137307171D01*
X165371393Y-137291107D01*
X165355329Y-137273383D01*
X165341079Y-137254170D01*
X165328782Y-137233653D01*
X165318554Y-137212029D01*
X165310496Y-137189507D01*
X165304684Y-137166303D01*
X165301174Y-137142642D01*
X165300000Y-137118750D01*
X165300000Y-136631250D01*
X165301174Y-136607358D01*
X165304684Y-136583697D01*
X165310496Y-136560493D01*
X165318554Y-136537971D01*
X165328782Y-136516347D01*
X165341079Y-136495830D01*
X165355329Y-136476617D01*
X165371393Y-136458893D01*
X165389117Y-136442829D01*
X165408330Y-136428579D01*
X165428847Y-136416282D01*
X165450471Y-136406054D01*
X165472993Y-136397996D01*
X165496197Y-136392184D01*
X165519858Y-136388674D01*
X165543750Y-136387500D01*
X166456250Y-136387500D01*
X166480142Y-136388674D01*
G37*
G36*
X154480142Y-134513674D02*
G01*
X154503803Y-134517184D01*
X154527007Y-134522996D01*
X154549529Y-134531054D01*
X154571153Y-134541282D01*
X154591670Y-134553579D01*
X154610883Y-134567829D01*
X154628607Y-134583893D01*
X154644671Y-134601617D01*
X154658921Y-134620830D01*
X154671218Y-134641347D01*
X154681446Y-134662971D01*
X154689504Y-134685493D01*
X154695316Y-134708697D01*
X154698826Y-134732358D01*
X154700000Y-134756250D01*
X154700000Y-135243750D01*
X154698826Y-135267642D01*
X154695316Y-135291303D01*
X154689504Y-135314507D01*
X154681446Y-135337029D01*
X154671218Y-135358653D01*
X154658921Y-135379170D01*
X154644671Y-135398383D01*
X154628607Y-135416107D01*
X154610883Y-135432171D01*
X154591670Y-135446421D01*
X154571153Y-135458718D01*
X154549529Y-135468946D01*
X154527007Y-135477004D01*
X154503803Y-135482816D01*
X154480142Y-135486326D01*
X154456250Y-135487500D01*
X153543750Y-135487500D01*
X153519858Y-135486326D01*
X153496197Y-135482816D01*
X153472993Y-135477004D01*
X153450471Y-135468946D01*
X153428847Y-135458718D01*
X153408330Y-135446421D01*
X153389117Y-135432171D01*
X153371393Y-135416107D01*
X153355329Y-135398383D01*
X153341079Y-135379170D01*
X153328782Y-135358653D01*
X153318554Y-135337029D01*
X153310496Y-135314507D01*
X153304684Y-135291303D01*
X153301174Y-135267642D01*
X153300000Y-135243750D01*
X153300000Y-134756250D01*
X153301174Y-134732358D01*
X153304684Y-134708697D01*
X153310496Y-134685493D01*
X153318554Y-134662971D01*
X153328782Y-134641347D01*
X153341079Y-134620830D01*
X153355329Y-134601617D01*
X153371393Y-134583893D01*
X153389117Y-134567829D01*
X153408330Y-134553579D01*
X153428847Y-134541282D01*
X153450471Y-134531054D01*
X153472993Y-134522996D01*
X153496197Y-134517184D01*
X153519858Y-134513674D01*
X153543750Y-134512500D01*
X154456250Y-134512500D01*
X154480142Y-134513674D01*
G37*
G36*
X154480142Y-136388674D02*
G01*
X154503803Y-136392184D01*
X154527007Y-136397996D01*
X154549529Y-136406054D01*
X154571153Y-136416282D01*
X154591670Y-136428579D01*
X154610883Y-136442829D01*
X154628607Y-136458893D01*
X154644671Y-136476617D01*
X154658921Y-136495830D01*
X154671218Y-136516347D01*
X154681446Y-136537971D01*
X154689504Y-136560493D01*
X154695316Y-136583697D01*
X154698826Y-136607358D01*
X154700000Y-136631250D01*
X154700000Y-137118750D01*
X154698826Y-137142642D01*
X154695316Y-137166303D01*
X154689504Y-137189507D01*
X154681446Y-137212029D01*
X154671218Y-137233653D01*
X154658921Y-137254170D01*
X154644671Y-137273383D01*
X154628607Y-137291107D01*
X154610883Y-137307171D01*
X154591670Y-137321421D01*
X154571153Y-137333718D01*
X154549529Y-137343946D01*
X154527007Y-137352004D01*
X154503803Y-137357816D01*
X154480142Y-137361326D01*
X154456250Y-137362500D01*
X153543750Y-137362500D01*
X153519858Y-137361326D01*
X153496197Y-137357816D01*
X153472993Y-137352004D01*
X153450471Y-137343946D01*
X153428847Y-137333718D01*
X153408330Y-137321421D01*
X153389117Y-137307171D01*
X153371393Y-137291107D01*
X153355329Y-137273383D01*
X153341079Y-137254170D01*
X153328782Y-137233653D01*
X153318554Y-137212029D01*
X153310496Y-137189507D01*
X153304684Y-137166303D01*
X153301174Y-137142642D01*
X153300000Y-137118750D01*
X153300000Y-136631250D01*
X153301174Y-136607358D01*
X153304684Y-136583697D01*
X153310496Y-136560493D01*
X153318554Y-136537971D01*
X153328782Y-136516347D01*
X153341079Y-136495830D01*
X153355329Y-136476617D01*
X153371393Y-136458893D01*
X153389117Y-136442829D01*
X153408330Y-136428579D01*
X153428847Y-136416282D01*
X153450471Y-136406054D01*
X153472993Y-136397996D01*
X153496197Y-136392184D01*
X153519858Y-136388674D01*
X153543750Y-136387500D01*
X154456250Y-136387500D01*
X154480142Y-136388674D01*
G37*
G36*
X174360000Y-140500000D02*
G01*
X174360000Y-148000000D01*
X173810000Y-148000000D01*
X173810000Y-143500000D01*
X172880000Y-143500000D01*
X172880000Y-140500000D01*
X174360000Y-140500000D01*
G37*
G36*
X171240000Y-140500000D02*
G01*
X171240000Y-143500000D01*
X170310000Y-143500000D01*
X170310000Y-148000000D01*
X169760000Y-148000000D01*
X169760000Y-140500000D01*
X171240000Y-140500000D01*
G37*
D11*
X172060000Y-141550000D03*
D10*
G36*
X162360000Y-140500000D02*
G01*
X162360000Y-148000000D01*
X161810000Y-148000000D01*
X161810000Y-143500000D01*
X160880000Y-143500000D01*
X160880000Y-140500000D01*
X162360000Y-140500000D01*
G37*
G36*
X159240000Y-140500000D02*
G01*
X159240000Y-143500000D01*
X158310000Y-143500000D01*
X158310000Y-148000000D01*
X157760000Y-148000000D01*
X157760000Y-140500000D01*
X159240000Y-140500000D01*
G37*
D11*
X160060000Y-141550000D03*
D10*
G36*
X150360000Y-140500000D02*
G01*
X150360000Y-148000000D01*
X149810000Y-148000000D01*
X149810000Y-143500000D01*
X148880000Y-143500000D01*
X148880000Y-140500000D01*
X150360000Y-140500000D01*
G37*
G36*
X147240000Y-140500000D02*
G01*
X147240000Y-143500000D01*
X146310000Y-143500000D01*
X146310000Y-148000000D01*
X145760000Y-148000000D01*
X145760000Y-140500000D01*
X147240000Y-140500000D01*
G37*
D11*
X148060000Y-141550000D03*
D10*
G36*
X172892642Y-138301174D02*
G01*
X172916303Y-138304684D01*
X172939507Y-138310496D01*
X172962029Y-138318554D01*
X172983653Y-138328782D01*
X173004170Y-138341079D01*
X173023383Y-138355329D01*
X173041107Y-138371393D01*
X173057171Y-138389117D01*
X173071421Y-138408330D01*
X173083718Y-138428847D01*
X173093946Y-138450471D01*
X173102004Y-138472993D01*
X173107816Y-138496197D01*
X173111326Y-138519858D01*
X173112500Y-138543750D01*
X173112500Y-139456250D01*
X173111326Y-139480142D01*
X173107816Y-139503803D01*
X173102004Y-139527007D01*
X173093946Y-139549529D01*
X173083718Y-139571153D01*
X173071421Y-139591670D01*
X173057171Y-139610883D01*
X173041107Y-139628607D01*
X173023383Y-139644671D01*
X173004170Y-139658921D01*
X172983653Y-139671218D01*
X172962029Y-139681446D01*
X172939507Y-139689504D01*
X172916303Y-139695316D01*
X172892642Y-139698826D01*
X172868750Y-139700000D01*
X172381250Y-139700000D01*
X172357358Y-139698826D01*
X172333697Y-139695316D01*
X172310493Y-139689504D01*
X172287971Y-139681446D01*
X172266347Y-139671218D01*
X172245830Y-139658921D01*
X172226617Y-139644671D01*
X172208893Y-139628607D01*
X172192829Y-139610883D01*
X172178579Y-139591670D01*
X172166282Y-139571153D01*
X172156054Y-139549529D01*
X172147996Y-139527007D01*
X172142184Y-139503803D01*
X172138674Y-139480142D01*
X172137500Y-139456250D01*
X172137500Y-138543750D01*
X172138674Y-138519858D01*
X172142184Y-138496197D01*
X172147996Y-138472993D01*
X172156054Y-138450471D01*
X172166282Y-138428847D01*
X172178579Y-138408330D01*
X172192829Y-138389117D01*
X172208893Y-138371393D01*
X172226617Y-138355329D01*
X172245830Y-138341079D01*
X172266347Y-138328782D01*
X172287971Y-138318554D01*
X172310493Y-138310496D01*
X172333697Y-138304684D01*
X172357358Y-138301174D01*
X172381250Y-138300000D01*
X172868750Y-138300000D01*
X172892642Y-138301174D01*
G37*
G36*
X174767642Y-138301174D02*
G01*
X174791303Y-138304684D01*
X174814507Y-138310496D01*
X174837029Y-138318554D01*
X174858653Y-138328782D01*
X174879170Y-138341079D01*
X174898383Y-138355329D01*
X174916107Y-138371393D01*
X174932171Y-138389117D01*
X174946421Y-138408330D01*
X174958718Y-138428847D01*
X174968946Y-138450471D01*
X174977004Y-138472993D01*
X174982816Y-138496197D01*
X174986326Y-138519858D01*
X174987500Y-138543750D01*
X174987500Y-139456250D01*
X174986326Y-139480142D01*
X174982816Y-139503803D01*
X174977004Y-139527007D01*
X174968946Y-139549529D01*
X174958718Y-139571153D01*
X174946421Y-139591670D01*
X174932171Y-139610883D01*
X174916107Y-139628607D01*
X174898383Y-139644671D01*
X174879170Y-139658921D01*
X174858653Y-139671218D01*
X174837029Y-139681446D01*
X174814507Y-139689504D01*
X174791303Y-139695316D01*
X174767642Y-139698826D01*
X174743750Y-139700000D01*
X174256250Y-139700000D01*
X174232358Y-139698826D01*
X174208697Y-139695316D01*
X174185493Y-139689504D01*
X174162971Y-139681446D01*
X174141347Y-139671218D01*
X174120830Y-139658921D01*
X174101617Y-139644671D01*
X174083893Y-139628607D01*
X174067829Y-139610883D01*
X174053579Y-139591670D01*
X174041282Y-139571153D01*
X174031054Y-139549529D01*
X174022996Y-139527007D01*
X174017184Y-139503803D01*
X174013674Y-139480142D01*
X174012500Y-139456250D01*
X174012500Y-138543750D01*
X174013674Y-138519858D01*
X174017184Y-138496197D01*
X174022996Y-138472993D01*
X174031054Y-138450471D01*
X174041282Y-138428847D01*
X174053579Y-138408330D01*
X174067829Y-138389117D01*
X174083893Y-138371393D01*
X174101617Y-138355329D01*
X174120830Y-138341079D01*
X174141347Y-138328782D01*
X174162971Y-138318554D01*
X174185493Y-138310496D01*
X174208697Y-138304684D01*
X174232358Y-138301174D01*
X174256250Y-138300000D01*
X174743750Y-138300000D01*
X174767642Y-138301174D01*
G37*
G36*
X160892642Y-138301174D02*
G01*
X160916303Y-138304684D01*
X160939507Y-138310496D01*
X160962029Y-138318554D01*
X160983653Y-138328782D01*
X161004170Y-138341079D01*
X161023383Y-138355329D01*
X161041107Y-138371393D01*
X161057171Y-138389117D01*
X161071421Y-138408330D01*
X161083718Y-138428847D01*
X161093946Y-138450471D01*
X161102004Y-138472993D01*
X161107816Y-138496197D01*
X161111326Y-138519858D01*
X161112500Y-138543750D01*
X161112500Y-139456250D01*
X161111326Y-139480142D01*
X161107816Y-139503803D01*
X161102004Y-139527007D01*
X161093946Y-139549529D01*
X161083718Y-139571153D01*
X161071421Y-139591670D01*
X161057171Y-139610883D01*
X161041107Y-139628607D01*
X161023383Y-139644671D01*
X161004170Y-139658921D01*
X160983653Y-139671218D01*
X160962029Y-139681446D01*
X160939507Y-139689504D01*
X160916303Y-139695316D01*
X160892642Y-139698826D01*
X160868750Y-139700000D01*
X160381250Y-139700000D01*
X160357358Y-139698826D01*
X160333697Y-139695316D01*
X160310493Y-139689504D01*
X160287971Y-139681446D01*
X160266347Y-139671218D01*
X160245830Y-139658921D01*
X160226617Y-139644671D01*
X160208893Y-139628607D01*
X160192829Y-139610883D01*
X160178579Y-139591670D01*
X160166282Y-139571153D01*
X160156054Y-139549529D01*
X160147996Y-139527007D01*
X160142184Y-139503803D01*
X160138674Y-139480142D01*
X160137500Y-139456250D01*
X160137500Y-138543750D01*
X160138674Y-138519858D01*
X160142184Y-138496197D01*
X160147996Y-138472993D01*
X160156054Y-138450471D01*
X160166282Y-138428847D01*
X160178579Y-138408330D01*
X160192829Y-138389117D01*
X160208893Y-138371393D01*
X160226617Y-138355329D01*
X160245830Y-138341079D01*
X160266347Y-138328782D01*
X160287971Y-138318554D01*
X160310493Y-138310496D01*
X160333697Y-138304684D01*
X160357358Y-138301174D01*
X160381250Y-138300000D01*
X160868750Y-138300000D01*
X160892642Y-138301174D01*
G37*
G36*
X162767642Y-138301174D02*
G01*
X162791303Y-138304684D01*
X162814507Y-138310496D01*
X162837029Y-138318554D01*
X162858653Y-138328782D01*
X162879170Y-138341079D01*
X162898383Y-138355329D01*
X162916107Y-138371393D01*
X162932171Y-138389117D01*
X162946421Y-138408330D01*
X162958718Y-138428847D01*
X162968946Y-138450471D01*
X162977004Y-138472993D01*
X162982816Y-138496197D01*
X162986326Y-138519858D01*
X162987500Y-138543750D01*
X162987500Y-139456250D01*
X162986326Y-139480142D01*
X162982816Y-139503803D01*
X162977004Y-139527007D01*
X162968946Y-139549529D01*
X162958718Y-139571153D01*
X162946421Y-139591670D01*
X162932171Y-139610883D01*
X162916107Y-139628607D01*
X162898383Y-139644671D01*
X162879170Y-139658921D01*
X162858653Y-139671218D01*
X162837029Y-139681446D01*
X162814507Y-139689504D01*
X162791303Y-139695316D01*
X162767642Y-139698826D01*
X162743750Y-139700000D01*
X162256250Y-139700000D01*
X162232358Y-139698826D01*
X162208697Y-139695316D01*
X162185493Y-139689504D01*
X162162971Y-139681446D01*
X162141347Y-139671218D01*
X162120830Y-139658921D01*
X162101617Y-139644671D01*
X162083893Y-139628607D01*
X162067829Y-139610883D01*
X162053579Y-139591670D01*
X162041282Y-139571153D01*
X162031054Y-139549529D01*
X162022996Y-139527007D01*
X162017184Y-139503803D01*
X162013674Y-139480142D01*
X162012500Y-139456250D01*
X162012500Y-138543750D01*
X162013674Y-138519858D01*
X162017184Y-138496197D01*
X162022996Y-138472993D01*
X162031054Y-138450471D01*
X162041282Y-138428847D01*
X162053579Y-138408330D01*
X162067829Y-138389117D01*
X162083893Y-138371393D01*
X162101617Y-138355329D01*
X162120830Y-138341079D01*
X162141347Y-138328782D01*
X162162971Y-138318554D01*
X162185493Y-138310496D01*
X162208697Y-138304684D01*
X162232358Y-138301174D01*
X162256250Y-138300000D01*
X162743750Y-138300000D01*
X162767642Y-138301174D01*
G37*
G36*
X148892642Y-138301174D02*
G01*
X148916303Y-138304684D01*
X148939507Y-138310496D01*
X148962029Y-138318554D01*
X148983653Y-138328782D01*
X149004170Y-138341079D01*
X149023383Y-138355329D01*
X149041107Y-138371393D01*
X149057171Y-138389117D01*
X149071421Y-138408330D01*
X149083718Y-138428847D01*
X149093946Y-138450471D01*
X149102004Y-138472993D01*
X149107816Y-138496197D01*
X149111326Y-138519858D01*
X149112500Y-138543750D01*
X149112500Y-139456250D01*
X149111326Y-139480142D01*
X149107816Y-139503803D01*
X149102004Y-139527007D01*
X149093946Y-139549529D01*
X149083718Y-139571153D01*
X149071421Y-139591670D01*
X149057171Y-139610883D01*
X149041107Y-139628607D01*
X149023383Y-139644671D01*
X149004170Y-139658921D01*
X148983653Y-139671218D01*
X148962029Y-139681446D01*
X148939507Y-139689504D01*
X148916303Y-139695316D01*
X148892642Y-139698826D01*
X148868750Y-139700000D01*
X148381250Y-139700000D01*
X148357358Y-139698826D01*
X148333697Y-139695316D01*
X148310493Y-139689504D01*
X148287971Y-139681446D01*
X148266347Y-139671218D01*
X148245830Y-139658921D01*
X148226617Y-139644671D01*
X148208893Y-139628607D01*
X148192829Y-139610883D01*
X148178579Y-139591670D01*
X148166282Y-139571153D01*
X148156054Y-139549529D01*
X148147996Y-139527007D01*
X148142184Y-139503803D01*
X148138674Y-139480142D01*
X148137500Y-139456250D01*
X148137500Y-138543750D01*
X148138674Y-138519858D01*
X148142184Y-138496197D01*
X148147996Y-138472993D01*
X148156054Y-138450471D01*
X148166282Y-138428847D01*
X148178579Y-138408330D01*
X148192829Y-138389117D01*
X148208893Y-138371393D01*
X148226617Y-138355329D01*
X148245830Y-138341079D01*
X148266347Y-138328782D01*
X148287971Y-138318554D01*
X148310493Y-138310496D01*
X148333697Y-138304684D01*
X148357358Y-138301174D01*
X148381250Y-138300000D01*
X148868750Y-138300000D01*
X148892642Y-138301174D01*
G37*
G36*
X150767642Y-138301174D02*
G01*
X150791303Y-138304684D01*
X150814507Y-138310496D01*
X150837029Y-138318554D01*
X150858653Y-138328782D01*
X150879170Y-138341079D01*
X150898383Y-138355329D01*
X150916107Y-138371393D01*
X150932171Y-138389117D01*
X150946421Y-138408330D01*
X150958718Y-138428847D01*
X150968946Y-138450471D01*
X150977004Y-138472993D01*
X150982816Y-138496197D01*
X150986326Y-138519858D01*
X150987500Y-138543750D01*
X150987500Y-139456250D01*
X150986326Y-139480142D01*
X150982816Y-139503803D01*
X150977004Y-139527007D01*
X150968946Y-139549529D01*
X150958718Y-139571153D01*
X150946421Y-139591670D01*
X150932171Y-139610883D01*
X150916107Y-139628607D01*
X150898383Y-139644671D01*
X150879170Y-139658921D01*
X150858653Y-139671218D01*
X150837029Y-139681446D01*
X150814507Y-139689504D01*
X150791303Y-139695316D01*
X150767642Y-139698826D01*
X150743750Y-139700000D01*
X150256250Y-139700000D01*
X150232358Y-139698826D01*
X150208697Y-139695316D01*
X150185493Y-139689504D01*
X150162971Y-139681446D01*
X150141347Y-139671218D01*
X150120830Y-139658921D01*
X150101617Y-139644671D01*
X150083893Y-139628607D01*
X150067829Y-139610883D01*
X150053579Y-139591670D01*
X150041282Y-139571153D01*
X150031054Y-139549529D01*
X150022996Y-139527007D01*
X150017184Y-139503803D01*
X150013674Y-139480142D01*
X150012500Y-139456250D01*
X150012500Y-138543750D01*
X150013674Y-138519858D01*
X150017184Y-138496197D01*
X150022996Y-138472993D01*
X150031054Y-138450471D01*
X150041282Y-138428847D01*
X150053579Y-138408330D01*
X150067829Y-138389117D01*
X150083893Y-138371393D01*
X150101617Y-138355329D01*
X150120830Y-138341079D01*
X150141347Y-138328782D01*
X150162971Y-138318554D01*
X150185493Y-138310496D01*
X150208697Y-138304684D01*
X150232358Y-138301174D01*
X150256250Y-138300000D01*
X150743750Y-138300000D01*
X150767642Y-138301174D01*
G37*
G36*
X171614703Y-132950722D02*
G01*
X171629264Y-132952882D01*
X171643543Y-132956459D01*
X171657403Y-132961418D01*
X171670710Y-132967712D01*
X171683336Y-132975280D01*
X171695159Y-132984048D01*
X171706066Y-132993934D01*
X171715952Y-133004841D01*
X171724720Y-133016664D01*
X171732288Y-133029290D01*
X171738582Y-133042597D01*
X171743541Y-133056457D01*
X171747118Y-133070736D01*
X171749278Y-133085297D01*
X171750000Y-133100000D01*
X171750000Y-133400000D01*
X171749278Y-133414703D01*
X171747118Y-133429264D01*
X171743541Y-133443543D01*
X171738582Y-133457403D01*
X171732288Y-133470710D01*
X171724720Y-133483336D01*
X171715952Y-133495159D01*
X171706066Y-133506066D01*
X171695159Y-133515952D01*
X171683336Y-133524720D01*
X171670710Y-133532288D01*
X171657403Y-133538582D01*
X171643543Y-133543541D01*
X171629264Y-133547118D01*
X171614703Y-133549278D01*
X171600000Y-133550000D01*
X169950000Y-133550000D01*
X169935297Y-133549278D01*
X169920736Y-133547118D01*
X169906457Y-133543541D01*
X169892597Y-133538582D01*
X169879290Y-133532288D01*
X169866664Y-133524720D01*
X169854841Y-133515952D01*
X169843934Y-133506066D01*
X169834048Y-133495159D01*
X169825280Y-133483336D01*
X169817712Y-133470710D01*
X169811418Y-133457403D01*
X169806459Y-133443543D01*
X169802882Y-133429264D01*
X169800722Y-133414703D01*
X169800000Y-133400000D01*
X169800000Y-133100000D01*
X169800722Y-133085297D01*
X169802882Y-133070736D01*
X169806459Y-133056457D01*
X169811418Y-133042597D01*
X169817712Y-133029290D01*
X169825280Y-133016664D01*
X169834048Y-133004841D01*
X169843934Y-132993934D01*
X169854841Y-132984048D01*
X169866664Y-132975280D01*
X169879290Y-132967712D01*
X169892597Y-132961418D01*
X169906457Y-132956459D01*
X169920736Y-132952882D01*
X169935297Y-132950722D01*
X169950000Y-132950000D01*
X171600000Y-132950000D01*
X171614703Y-132950722D01*
G37*
G36*
X171614703Y-134220722D02*
G01*
X171629264Y-134222882D01*
X171643543Y-134226459D01*
X171657403Y-134231418D01*
X171670710Y-134237712D01*
X171683336Y-134245280D01*
X171695159Y-134254048D01*
X171706066Y-134263934D01*
X171715952Y-134274841D01*
X171724720Y-134286664D01*
X171732288Y-134299290D01*
X171738582Y-134312597D01*
X171743541Y-134326457D01*
X171747118Y-134340736D01*
X171749278Y-134355297D01*
X171750000Y-134370000D01*
X171750000Y-134670000D01*
X171749278Y-134684703D01*
X171747118Y-134699264D01*
X171743541Y-134713543D01*
X171738582Y-134727403D01*
X171732288Y-134740710D01*
X171724720Y-134753336D01*
X171715952Y-134765159D01*
X171706066Y-134776066D01*
X171695159Y-134785952D01*
X171683336Y-134794720D01*
X171670710Y-134802288D01*
X171657403Y-134808582D01*
X171643543Y-134813541D01*
X171629264Y-134817118D01*
X171614703Y-134819278D01*
X171600000Y-134820000D01*
X169950000Y-134820000D01*
X169935297Y-134819278D01*
X169920736Y-134817118D01*
X169906457Y-134813541D01*
X169892597Y-134808582D01*
X169879290Y-134802288D01*
X169866664Y-134794720D01*
X169854841Y-134785952D01*
X169843934Y-134776066D01*
X169834048Y-134765159D01*
X169825280Y-134753336D01*
X169817712Y-134740710D01*
X169811418Y-134727403D01*
X169806459Y-134713543D01*
X169802882Y-134699264D01*
X169800722Y-134684703D01*
X169800000Y-134670000D01*
X169800000Y-134370000D01*
X169800722Y-134355297D01*
X169802882Y-134340736D01*
X169806459Y-134326457D01*
X169811418Y-134312597D01*
X169817712Y-134299290D01*
X169825280Y-134286664D01*
X169834048Y-134274841D01*
X169843934Y-134263934D01*
X169854841Y-134254048D01*
X169866664Y-134245280D01*
X169879290Y-134237712D01*
X169892597Y-134231418D01*
X169906457Y-134226459D01*
X169920736Y-134222882D01*
X169935297Y-134220722D01*
X169950000Y-134220000D01*
X171600000Y-134220000D01*
X171614703Y-134220722D01*
G37*
G36*
X171614703Y-135490722D02*
G01*
X171629264Y-135492882D01*
X171643543Y-135496459D01*
X171657403Y-135501418D01*
X171670710Y-135507712D01*
X171683336Y-135515280D01*
X171695159Y-135524048D01*
X171706066Y-135533934D01*
X171715952Y-135544841D01*
X171724720Y-135556664D01*
X171732288Y-135569290D01*
X171738582Y-135582597D01*
X171743541Y-135596457D01*
X171747118Y-135610736D01*
X171749278Y-135625297D01*
X171750000Y-135640000D01*
X171750000Y-135940000D01*
X171749278Y-135954703D01*
X171747118Y-135969264D01*
X171743541Y-135983543D01*
X171738582Y-135997403D01*
X171732288Y-136010710D01*
X171724720Y-136023336D01*
X171715952Y-136035159D01*
X171706066Y-136046066D01*
X171695159Y-136055952D01*
X171683336Y-136064720D01*
X171670710Y-136072288D01*
X171657403Y-136078582D01*
X171643543Y-136083541D01*
X171629264Y-136087118D01*
X171614703Y-136089278D01*
X171600000Y-136090000D01*
X169950000Y-136090000D01*
X169935297Y-136089278D01*
X169920736Y-136087118D01*
X169906457Y-136083541D01*
X169892597Y-136078582D01*
X169879290Y-136072288D01*
X169866664Y-136064720D01*
X169854841Y-136055952D01*
X169843934Y-136046066D01*
X169834048Y-136035159D01*
X169825280Y-136023336D01*
X169817712Y-136010710D01*
X169811418Y-135997403D01*
X169806459Y-135983543D01*
X169802882Y-135969264D01*
X169800722Y-135954703D01*
X169800000Y-135940000D01*
X169800000Y-135640000D01*
X169800722Y-135625297D01*
X169802882Y-135610736D01*
X169806459Y-135596457D01*
X169811418Y-135582597D01*
X169817712Y-135569290D01*
X169825280Y-135556664D01*
X169834048Y-135544841D01*
X169843934Y-135533934D01*
X169854841Y-135524048D01*
X169866664Y-135515280D01*
X169879290Y-135507712D01*
X169892597Y-135501418D01*
X169906457Y-135496459D01*
X169920736Y-135492882D01*
X169935297Y-135490722D01*
X169950000Y-135490000D01*
X171600000Y-135490000D01*
X171614703Y-135490722D01*
G37*
G36*
X171614703Y-136760722D02*
G01*
X171629264Y-136762882D01*
X171643543Y-136766459D01*
X171657403Y-136771418D01*
X171670710Y-136777712D01*
X171683336Y-136785280D01*
X171695159Y-136794048D01*
X171706066Y-136803934D01*
X171715952Y-136814841D01*
X171724720Y-136826664D01*
X171732288Y-136839290D01*
X171738582Y-136852597D01*
X171743541Y-136866457D01*
X171747118Y-136880736D01*
X171749278Y-136895297D01*
X171750000Y-136910000D01*
X171750000Y-137210000D01*
X171749278Y-137224703D01*
X171747118Y-137239264D01*
X171743541Y-137253543D01*
X171738582Y-137267403D01*
X171732288Y-137280710D01*
X171724720Y-137293336D01*
X171715952Y-137305159D01*
X171706066Y-137316066D01*
X171695159Y-137325952D01*
X171683336Y-137334720D01*
X171670710Y-137342288D01*
X171657403Y-137348582D01*
X171643543Y-137353541D01*
X171629264Y-137357118D01*
X171614703Y-137359278D01*
X171600000Y-137360000D01*
X169950000Y-137360000D01*
X169935297Y-137359278D01*
X169920736Y-137357118D01*
X169906457Y-137353541D01*
X169892597Y-137348582D01*
X169879290Y-137342288D01*
X169866664Y-137334720D01*
X169854841Y-137325952D01*
X169843934Y-137316066D01*
X169834048Y-137305159D01*
X169825280Y-137293336D01*
X169817712Y-137280710D01*
X169811418Y-137267403D01*
X169806459Y-137253543D01*
X169802882Y-137239264D01*
X169800722Y-137224703D01*
X169800000Y-137210000D01*
X169800000Y-136910000D01*
X169800722Y-136895297D01*
X169802882Y-136880736D01*
X169806459Y-136866457D01*
X169811418Y-136852597D01*
X169817712Y-136839290D01*
X169825280Y-136826664D01*
X169834048Y-136814841D01*
X169843934Y-136803934D01*
X169854841Y-136794048D01*
X169866664Y-136785280D01*
X169879290Y-136777712D01*
X169892597Y-136771418D01*
X169906457Y-136766459D01*
X169920736Y-136762882D01*
X169935297Y-136760722D01*
X169950000Y-136760000D01*
X171600000Y-136760000D01*
X171614703Y-136760722D01*
G37*
G36*
X176564703Y-136760722D02*
G01*
X176579264Y-136762882D01*
X176593543Y-136766459D01*
X176607403Y-136771418D01*
X176620710Y-136777712D01*
X176633336Y-136785280D01*
X176645159Y-136794048D01*
X176656066Y-136803934D01*
X176665952Y-136814841D01*
X176674720Y-136826664D01*
X176682288Y-136839290D01*
X176688582Y-136852597D01*
X176693541Y-136866457D01*
X176697118Y-136880736D01*
X176699278Y-136895297D01*
X176700000Y-136910000D01*
X176700000Y-137210000D01*
X176699278Y-137224703D01*
X176697118Y-137239264D01*
X176693541Y-137253543D01*
X176688582Y-137267403D01*
X176682288Y-137280710D01*
X176674720Y-137293336D01*
X176665952Y-137305159D01*
X176656066Y-137316066D01*
X176645159Y-137325952D01*
X176633336Y-137334720D01*
X176620710Y-137342288D01*
X176607403Y-137348582D01*
X176593543Y-137353541D01*
X176579264Y-137357118D01*
X176564703Y-137359278D01*
X176550000Y-137360000D01*
X174900000Y-137360000D01*
X174885297Y-137359278D01*
X174870736Y-137357118D01*
X174856457Y-137353541D01*
X174842597Y-137348582D01*
X174829290Y-137342288D01*
X174816664Y-137334720D01*
X174804841Y-137325952D01*
X174793934Y-137316066D01*
X174784048Y-137305159D01*
X174775280Y-137293336D01*
X174767712Y-137280710D01*
X174761418Y-137267403D01*
X174756459Y-137253543D01*
X174752882Y-137239264D01*
X174750722Y-137224703D01*
X174750000Y-137210000D01*
X174750000Y-136910000D01*
X174750722Y-136895297D01*
X174752882Y-136880736D01*
X174756459Y-136866457D01*
X174761418Y-136852597D01*
X174767712Y-136839290D01*
X174775280Y-136826664D01*
X174784048Y-136814841D01*
X174793934Y-136803934D01*
X174804841Y-136794048D01*
X174816664Y-136785280D01*
X174829290Y-136777712D01*
X174842597Y-136771418D01*
X174856457Y-136766459D01*
X174870736Y-136762882D01*
X174885297Y-136760722D01*
X174900000Y-136760000D01*
X176550000Y-136760000D01*
X176564703Y-136760722D01*
G37*
G36*
X176564703Y-135490722D02*
G01*
X176579264Y-135492882D01*
X176593543Y-135496459D01*
X176607403Y-135501418D01*
X176620710Y-135507712D01*
X176633336Y-135515280D01*
X176645159Y-135524048D01*
X176656066Y-135533934D01*
X176665952Y-135544841D01*
X176674720Y-135556664D01*
X176682288Y-135569290D01*
X176688582Y-135582597D01*
X176693541Y-135596457D01*
X176697118Y-135610736D01*
X176699278Y-135625297D01*
X176700000Y-135640000D01*
X176700000Y-135940000D01*
X176699278Y-135954703D01*
X176697118Y-135969264D01*
X176693541Y-135983543D01*
X176688582Y-135997403D01*
X176682288Y-136010710D01*
X176674720Y-136023336D01*
X176665952Y-136035159D01*
X176656066Y-136046066D01*
X176645159Y-136055952D01*
X176633336Y-136064720D01*
X176620710Y-136072288D01*
X176607403Y-136078582D01*
X176593543Y-136083541D01*
X176579264Y-136087118D01*
X176564703Y-136089278D01*
X176550000Y-136090000D01*
X174900000Y-136090000D01*
X174885297Y-136089278D01*
X174870736Y-136087118D01*
X174856457Y-136083541D01*
X174842597Y-136078582D01*
X174829290Y-136072288D01*
X174816664Y-136064720D01*
X174804841Y-136055952D01*
X174793934Y-136046066D01*
X174784048Y-136035159D01*
X174775280Y-136023336D01*
X174767712Y-136010710D01*
X174761418Y-135997403D01*
X174756459Y-135983543D01*
X174752882Y-135969264D01*
X174750722Y-135954703D01*
X174750000Y-135940000D01*
X174750000Y-135640000D01*
X174750722Y-135625297D01*
X174752882Y-135610736D01*
X174756459Y-135596457D01*
X174761418Y-135582597D01*
X174767712Y-135569290D01*
X174775280Y-135556664D01*
X174784048Y-135544841D01*
X174793934Y-135533934D01*
X174804841Y-135524048D01*
X174816664Y-135515280D01*
X174829290Y-135507712D01*
X174842597Y-135501418D01*
X174856457Y-135496459D01*
X174870736Y-135492882D01*
X174885297Y-135490722D01*
X174900000Y-135490000D01*
X176550000Y-135490000D01*
X176564703Y-135490722D01*
G37*
G36*
X176564703Y-134220722D02*
G01*
X176579264Y-134222882D01*
X176593543Y-134226459D01*
X176607403Y-134231418D01*
X176620710Y-134237712D01*
X176633336Y-134245280D01*
X176645159Y-134254048D01*
X176656066Y-134263934D01*
X176665952Y-134274841D01*
X176674720Y-134286664D01*
X176682288Y-134299290D01*
X176688582Y-134312597D01*
X176693541Y-134326457D01*
X176697118Y-134340736D01*
X176699278Y-134355297D01*
X176700000Y-134370000D01*
X176700000Y-134670000D01*
X176699278Y-134684703D01*
X176697118Y-134699264D01*
X176693541Y-134713543D01*
X176688582Y-134727403D01*
X176682288Y-134740710D01*
X176674720Y-134753336D01*
X176665952Y-134765159D01*
X176656066Y-134776066D01*
X176645159Y-134785952D01*
X176633336Y-134794720D01*
X176620710Y-134802288D01*
X176607403Y-134808582D01*
X176593543Y-134813541D01*
X176579264Y-134817118D01*
X176564703Y-134819278D01*
X176550000Y-134820000D01*
X174900000Y-134820000D01*
X174885297Y-134819278D01*
X174870736Y-134817118D01*
X174856457Y-134813541D01*
X174842597Y-134808582D01*
X174829290Y-134802288D01*
X174816664Y-134794720D01*
X174804841Y-134785952D01*
X174793934Y-134776066D01*
X174784048Y-134765159D01*
X174775280Y-134753336D01*
X174767712Y-134740710D01*
X174761418Y-134727403D01*
X174756459Y-134713543D01*
X174752882Y-134699264D01*
X174750722Y-134684703D01*
X174750000Y-134670000D01*
X174750000Y-134370000D01*
X174750722Y-134355297D01*
X174752882Y-134340736D01*
X174756459Y-134326457D01*
X174761418Y-134312597D01*
X174767712Y-134299290D01*
X174775280Y-134286664D01*
X174784048Y-134274841D01*
X174793934Y-134263934D01*
X174804841Y-134254048D01*
X174816664Y-134245280D01*
X174829290Y-134237712D01*
X174842597Y-134231418D01*
X174856457Y-134226459D01*
X174870736Y-134222882D01*
X174885297Y-134220722D01*
X174900000Y-134220000D01*
X176550000Y-134220000D01*
X176564703Y-134220722D01*
G37*
G36*
X176564703Y-132950722D02*
G01*
X176579264Y-132952882D01*
X176593543Y-132956459D01*
X176607403Y-132961418D01*
X176620710Y-132967712D01*
X176633336Y-132975280D01*
X176645159Y-132984048D01*
X176656066Y-132993934D01*
X176665952Y-133004841D01*
X176674720Y-133016664D01*
X176682288Y-133029290D01*
X176688582Y-133042597D01*
X176693541Y-133056457D01*
X176697118Y-133070736D01*
X176699278Y-133085297D01*
X176700000Y-133100000D01*
X176700000Y-133400000D01*
X176699278Y-133414703D01*
X176697118Y-133429264D01*
X176693541Y-133443543D01*
X176688582Y-133457403D01*
X176682288Y-133470710D01*
X176674720Y-133483336D01*
X176665952Y-133495159D01*
X176656066Y-133506066D01*
X176645159Y-133515952D01*
X176633336Y-133524720D01*
X176620710Y-133532288D01*
X176607403Y-133538582D01*
X176593543Y-133543541D01*
X176579264Y-133547118D01*
X176564703Y-133549278D01*
X176550000Y-133550000D01*
X174900000Y-133550000D01*
X174885297Y-133549278D01*
X174870736Y-133547118D01*
X174856457Y-133543541D01*
X174842597Y-133538582D01*
X174829290Y-133532288D01*
X174816664Y-133524720D01*
X174804841Y-133515952D01*
X174793934Y-133506066D01*
X174784048Y-133495159D01*
X174775280Y-133483336D01*
X174767712Y-133470710D01*
X174761418Y-133457403D01*
X174756459Y-133443543D01*
X174752882Y-133429264D01*
X174750722Y-133414703D01*
X174750000Y-133400000D01*
X174750000Y-133100000D01*
X174750722Y-133085297D01*
X174752882Y-133070736D01*
X174756459Y-133056457D01*
X174761418Y-133042597D01*
X174767712Y-133029290D01*
X174775280Y-133016664D01*
X174784048Y-133004841D01*
X174793934Y-132993934D01*
X174804841Y-132984048D01*
X174816664Y-132975280D01*
X174829290Y-132967712D01*
X174842597Y-132961418D01*
X174856457Y-132956459D01*
X174870736Y-132952882D01*
X174885297Y-132950722D01*
X174900000Y-132950000D01*
X176550000Y-132950000D01*
X176564703Y-132950722D01*
G37*
G36*
X159614703Y-132950722D02*
G01*
X159629264Y-132952882D01*
X159643543Y-132956459D01*
X159657403Y-132961418D01*
X159670710Y-132967712D01*
X159683336Y-132975280D01*
X159695159Y-132984048D01*
X159706066Y-132993934D01*
X159715952Y-133004841D01*
X159724720Y-133016664D01*
X159732288Y-133029290D01*
X159738582Y-133042597D01*
X159743541Y-133056457D01*
X159747118Y-133070736D01*
X159749278Y-133085297D01*
X159750000Y-133100000D01*
X159750000Y-133400000D01*
X159749278Y-133414703D01*
X159747118Y-133429264D01*
X159743541Y-133443543D01*
X159738582Y-133457403D01*
X159732288Y-133470710D01*
X159724720Y-133483336D01*
X159715952Y-133495159D01*
X159706066Y-133506066D01*
X159695159Y-133515952D01*
X159683336Y-133524720D01*
X159670710Y-133532288D01*
X159657403Y-133538582D01*
X159643543Y-133543541D01*
X159629264Y-133547118D01*
X159614703Y-133549278D01*
X159600000Y-133550000D01*
X157950000Y-133550000D01*
X157935297Y-133549278D01*
X157920736Y-133547118D01*
X157906457Y-133543541D01*
X157892597Y-133538582D01*
X157879290Y-133532288D01*
X157866664Y-133524720D01*
X157854841Y-133515952D01*
X157843934Y-133506066D01*
X157834048Y-133495159D01*
X157825280Y-133483336D01*
X157817712Y-133470710D01*
X157811418Y-133457403D01*
X157806459Y-133443543D01*
X157802882Y-133429264D01*
X157800722Y-133414703D01*
X157800000Y-133400000D01*
X157800000Y-133100000D01*
X157800722Y-133085297D01*
X157802882Y-133070736D01*
X157806459Y-133056457D01*
X157811418Y-133042597D01*
X157817712Y-133029290D01*
X157825280Y-133016664D01*
X157834048Y-133004841D01*
X157843934Y-132993934D01*
X157854841Y-132984048D01*
X157866664Y-132975280D01*
X157879290Y-132967712D01*
X157892597Y-132961418D01*
X157906457Y-132956459D01*
X157920736Y-132952882D01*
X157935297Y-132950722D01*
X157950000Y-132950000D01*
X159600000Y-132950000D01*
X159614703Y-132950722D01*
G37*
G36*
X159614703Y-134220722D02*
G01*
X159629264Y-134222882D01*
X159643543Y-134226459D01*
X159657403Y-134231418D01*
X159670710Y-134237712D01*
X159683336Y-134245280D01*
X159695159Y-134254048D01*
X159706066Y-134263934D01*
X159715952Y-134274841D01*
X159724720Y-134286664D01*
X159732288Y-134299290D01*
X159738582Y-134312597D01*
X159743541Y-134326457D01*
X159747118Y-134340736D01*
X159749278Y-134355297D01*
X159750000Y-134370000D01*
X159750000Y-134670000D01*
X159749278Y-134684703D01*
X159747118Y-134699264D01*
X159743541Y-134713543D01*
X159738582Y-134727403D01*
X159732288Y-134740710D01*
X159724720Y-134753336D01*
X159715952Y-134765159D01*
X159706066Y-134776066D01*
X159695159Y-134785952D01*
X159683336Y-134794720D01*
X159670710Y-134802288D01*
X159657403Y-134808582D01*
X159643543Y-134813541D01*
X159629264Y-134817118D01*
X159614703Y-134819278D01*
X159600000Y-134820000D01*
X157950000Y-134820000D01*
X157935297Y-134819278D01*
X157920736Y-134817118D01*
X157906457Y-134813541D01*
X157892597Y-134808582D01*
X157879290Y-134802288D01*
X157866664Y-134794720D01*
X157854841Y-134785952D01*
X157843934Y-134776066D01*
X157834048Y-134765159D01*
X157825280Y-134753336D01*
X157817712Y-134740710D01*
X157811418Y-134727403D01*
X157806459Y-134713543D01*
X157802882Y-134699264D01*
X157800722Y-134684703D01*
X157800000Y-134670000D01*
X157800000Y-134370000D01*
X157800722Y-134355297D01*
X157802882Y-134340736D01*
X157806459Y-134326457D01*
X157811418Y-134312597D01*
X157817712Y-134299290D01*
X157825280Y-134286664D01*
X157834048Y-134274841D01*
X157843934Y-134263934D01*
X157854841Y-134254048D01*
X157866664Y-134245280D01*
X157879290Y-134237712D01*
X157892597Y-134231418D01*
X157906457Y-134226459D01*
X157920736Y-134222882D01*
X157935297Y-134220722D01*
X157950000Y-134220000D01*
X159600000Y-134220000D01*
X159614703Y-134220722D01*
G37*
G36*
X159614703Y-135490722D02*
G01*
X159629264Y-135492882D01*
X159643543Y-135496459D01*
X159657403Y-135501418D01*
X159670710Y-135507712D01*
X159683336Y-135515280D01*
X159695159Y-135524048D01*
X159706066Y-135533934D01*
X159715952Y-135544841D01*
X159724720Y-135556664D01*
X159732288Y-135569290D01*
X159738582Y-135582597D01*
X159743541Y-135596457D01*
X159747118Y-135610736D01*
X159749278Y-135625297D01*
X159750000Y-135640000D01*
X159750000Y-135940000D01*
X159749278Y-135954703D01*
X159747118Y-135969264D01*
X159743541Y-135983543D01*
X159738582Y-135997403D01*
X159732288Y-136010710D01*
X159724720Y-136023336D01*
X159715952Y-136035159D01*
X159706066Y-136046066D01*
X159695159Y-136055952D01*
X159683336Y-136064720D01*
X159670710Y-136072288D01*
X159657403Y-136078582D01*
X159643543Y-136083541D01*
X159629264Y-136087118D01*
X159614703Y-136089278D01*
X159600000Y-136090000D01*
X157950000Y-136090000D01*
X157935297Y-136089278D01*
X157920736Y-136087118D01*
X157906457Y-136083541D01*
X157892597Y-136078582D01*
X157879290Y-136072288D01*
X157866664Y-136064720D01*
X157854841Y-136055952D01*
X157843934Y-136046066D01*
X157834048Y-136035159D01*
X157825280Y-136023336D01*
X157817712Y-136010710D01*
X157811418Y-135997403D01*
X157806459Y-135983543D01*
X157802882Y-135969264D01*
X157800722Y-135954703D01*
X157800000Y-135940000D01*
X157800000Y-135640000D01*
X157800722Y-135625297D01*
X157802882Y-135610736D01*
X157806459Y-135596457D01*
X157811418Y-135582597D01*
X157817712Y-135569290D01*
X157825280Y-135556664D01*
X157834048Y-135544841D01*
X157843934Y-135533934D01*
X157854841Y-135524048D01*
X157866664Y-135515280D01*
X157879290Y-135507712D01*
X157892597Y-135501418D01*
X157906457Y-135496459D01*
X157920736Y-135492882D01*
X157935297Y-135490722D01*
X157950000Y-135490000D01*
X159600000Y-135490000D01*
X159614703Y-135490722D01*
G37*
G36*
X159614703Y-136760722D02*
G01*
X159629264Y-136762882D01*
X159643543Y-136766459D01*
X159657403Y-136771418D01*
X159670710Y-136777712D01*
X159683336Y-136785280D01*
X159695159Y-136794048D01*
X159706066Y-136803934D01*
X159715952Y-136814841D01*
X159724720Y-136826664D01*
X159732288Y-136839290D01*
X159738582Y-136852597D01*
X159743541Y-136866457D01*
X159747118Y-136880736D01*
X159749278Y-136895297D01*
X159750000Y-136910000D01*
X159750000Y-137210000D01*
X159749278Y-137224703D01*
X159747118Y-137239264D01*
X159743541Y-137253543D01*
X159738582Y-137267403D01*
X159732288Y-137280710D01*
X159724720Y-137293336D01*
X159715952Y-137305159D01*
X159706066Y-137316066D01*
X159695159Y-137325952D01*
X159683336Y-137334720D01*
X159670710Y-137342288D01*
X159657403Y-137348582D01*
X159643543Y-137353541D01*
X159629264Y-137357118D01*
X159614703Y-137359278D01*
X159600000Y-137360000D01*
X157950000Y-137360000D01*
X157935297Y-137359278D01*
X157920736Y-137357118D01*
X157906457Y-137353541D01*
X157892597Y-137348582D01*
X157879290Y-137342288D01*
X157866664Y-137334720D01*
X157854841Y-137325952D01*
X157843934Y-137316066D01*
X157834048Y-137305159D01*
X157825280Y-137293336D01*
X157817712Y-137280710D01*
X157811418Y-137267403D01*
X157806459Y-137253543D01*
X157802882Y-137239264D01*
X157800722Y-137224703D01*
X157800000Y-137210000D01*
X157800000Y-136910000D01*
X157800722Y-136895297D01*
X157802882Y-136880736D01*
X157806459Y-136866457D01*
X157811418Y-136852597D01*
X157817712Y-136839290D01*
X157825280Y-136826664D01*
X157834048Y-136814841D01*
X157843934Y-136803934D01*
X157854841Y-136794048D01*
X157866664Y-136785280D01*
X157879290Y-136777712D01*
X157892597Y-136771418D01*
X157906457Y-136766459D01*
X157920736Y-136762882D01*
X157935297Y-136760722D01*
X157950000Y-136760000D01*
X159600000Y-136760000D01*
X159614703Y-136760722D01*
G37*
G36*
X164564703Y-136760722D02*
G01*
X164579264Y-136762882D01*
X164593543Y-136766459D01*
X164607403Y-136771418D01*
X164620710Y-136777712D01*
X164633336Y-136785280D01*
X164645159Y-136794048D01*
X164656066Y-136803934D01*
X164665952Y-136814841D01*
X164674720Y-136826664D01*
X164682288Y-136839290D01*
X164688582Y-136852597D01*
X164693541Y-136866457D01*
X164697118Y-136880736D01*
X164699278Y-136895297D01*
X164700000Y-136910000D01*
X164700000Y-137210000D01*
X164699278Y-137224703D01*
X164697118Y-137239264D01*
X164693541Y-137253543D01*
X164688582Y-137267403D01*
X164682288Y-137280710D01*
X164674720Y-137293336D01*
X164665952Y-137305159D01*
X164656066Y-137316066D01*
X164645159Y-137325952D01*
X164633336Y-137334720D01*
X164620710Y-137342288D01*
X164607403Y-137348582D01*
X164593543Y-137353541D01*
X164579264Y-137357118D01*
X164564703Y-137359278D01*
X164550000Y-137360000D01*
X162900000Y-137360000D01*
X162885297Y-137359278D01*
X162870736Y-137357118D01*
X162856457Y-137353541D01*
X162842597Y-137348582D01*
X162829290Y-137342288D01*
X162816664Y-137334720D01*
X162804841Y-137325952D01*
X162793934Y-137316066D01*
X162784048Y-137305159D01*
X162775280Y-137293336D01*
X162767712Y-137280710D01*
X162761418Y-137267403D01*
X162756459Y-137253543D01*
X162752882Y-137239264D01*
X162750722Y-137224703D01*
X162750000Y-137210000D01*
X162750000Y-136910000D01*
X162750722Y-136895297D01*
X162752882Y-136880736D01*
X162756459Y-136866457D01*
X162761418Y-136852597D01*
X162767712Y-136839290D01*
X162775280Y-136826664D01*
X162784048Y-136814841D01*
X162793934Y-136803934D01*
X162804841Y-136794048D01*
X162816664Y-136785280D01*
X162829290Y-136777712D01*
X162842597Y-136771418D01*
X162856457Y-136766459D01*
X162870736Y-136762882D01*
X162885297Y-136760722D01*
X162900000Y-136760000D01*
X164550000Y-136760000D01*
X164564703Y-136760722D01*
G37*
G36*
X164564703Y-135490722D02*
G01*
X164579264Y-135492882D01*
X164593543Y-135496459D01*
X164607403Y-135501418D01*
X164620710Y-135507712D01*
X164633336Y-135515280D01*
X164645159Y-135524048D01*
X164656066Y-135533934D01*
X164665952Y-135544841D01*
X164674720Y-135556664D01*
X164682288Y-135569290D01*
X164688582Y-135582597D01*
X164693541Y-135596457D01*
X164697118Y-135610736D01*
X164699278Y-135625297D01*
X164700000Y-135640000D01*
X164700000Y-135940000D01*
X164699278Y-135954703D01*
X164697118Y-135969264D01*
X164693541Y-135983543D01*
X164688582Y-135997403D01*
X164682288Y-136010710D01*
X164674720Y-136023336D01*
X164665952Y-136035159D01*
X164656066Y-136046066D01*
X164645159Y-136055952D01*
X164633336Y-136064720D01*
X164620710Y-136072288D01*
X164607403Y-136078582D01*
X164593543Y-136083541D01*
X164579264Y-136087118D01*
X164564703Y-136089278D01*
X164550000Y-136090000D01*
X162900000Y-136090000D01*
X162885297Y-136089278D01*
X162870736Y-136087118D01*
X162856457Y-136083541D01*
X162842597Y-136078582D01*
X162829290Y-136072288D01*
X162816664Y-136064720D01*
X162804841Y-136055952D01*
X162793934Y-136046066D01*
X162784048Y-136035159D01*
X162775280Y-136023336D01*
X162767712Y-136010710D01*
X162761418Y-135997403D01*
X162756459Y-135983543D01*
X162752882Y-135969264D01*
X162750722Y-135954703D01*
X162750000Y-135940000D01*
X162750000Y-135640000D01*
X162750722Y-135625297D01*
X162752882Y-135610736D01*
X162756459Y-135596457D01*
X162761418Y-135582597D01*
X162767712Y-135569290D01*
X162775280Y-135556664D01*
X162784048Y-135544841D01*
X162793934Y-135533934D01*
X162804841Y-135524048D01*
X162816664Y-135515280D01*
X162829290Y-135507712D01*
X162842597Y-135501418D01*
X162856457Y-135496459D01*
X162870736Y-135492882D01*
X162885297Y-135490722D01*
X162900000Y-135490000D01*
X164550000Y-135490000D01*
X164564703Y-135490722D01*
G37*
G36*
X164564703Y-134220722D02*
G01*
X164579264Y-134222882D01*
X164593543Y-134226459D01*
X164607403Y-134231418D01*
X164620710Y-134237712D01*
X164633336Y-134245280D01*
X164645159Y-134254048D01*
X164656066Y-134263934D01*
X164665952Y-134274841D01*
X164674720Y-134286664D01*
X164682288Y-134299290D01*
X164688582Y-134312597D01*
X164693541Y-134326457D01*
X164697118Y-134340736D01*
X164699278Y-134355297D01*
X164700000Y-134370000D01*
X164700000Y-134670000D01*
X164699278Y-134684703D01*
X164697118Y-134699264D01*
X164693541Y-134713543D01*
X164688582Y-134727403D01*
X164682288Y-134740710D01*
X164674720Y-134753336D01*
X164665952Y-134765159D01*
X164656066Y-134776066D01*
X164645159Y-134785952D01*
X164633336Y-134794720D01*
X164620710Y-134802288D01*
X164607403Y-134808582D01*
X164593543Y-134813541D01*
X164579264Y-134817118D01*
X164564703Y-134819278D01*
X164550000Y-134820000D01*
X162900000Y-134820000D01*
X162885297Y-134819278D01*
X162870736Y-134817118D01*
X162856457Y-134813541D01*
X162842597Y-134808582D01*
X162829290Y-134802288D01*
X162816664Y-134794720D01*
X162804841Y-134785952D01*
X162793934Y-134776066D01*
X162784048Y-134765159D01*
X162775280Y-134753336D01*
X162767712Y-134740710D01*
X162761418Y-134727403D01*
X162756459Y-134713543D01*
X162752882Y-134699264D01*
X162750722Y-134684703D01*
X162750000Y-134670000D01*
X162750000Y-134370000D01*
X162750722Y-134355297D01*
X162752882Y-134340736D01*
X162756459Y-134326457D01*
X162761418Y-134312597D01*
X162767712Y-134299290D01*
X162775280Y-134286664D01*
X162784048Y-134274841D01*
X162793934Y-134263934D01*
X162804841Y-134254048D01*
X162816664Y-134245280D01*
X162829290Y-134237712D01*
X162842597Y-134231418D01*
X162856457Y-134226459D01*
X162870736Y-134222882D01*
X162885297Y-134220722D01*
X162900000Y-134220000D01*
X164550000Y-134220000D01*
X164564703Y-134220722D01*
G37*
G36*
X164564703Y-132950722D02*
G01*
X164579264Y-132952882D01*
X164593543Y-132956459D01*
X164607403Y-132961418D01*
X164620710Y-132967712D01*
X164633336Y-132975280D01*
X164645159Y-132984048D01*
X164656066Y-132993934D01*
X164665952Y-133004841D01*
X164674720Y-133016664D01*
X164682288Y-133029290D01*
X164688582Y-133042597D01*
X164693541Y-133056457D01*
X164697118Y-133070736D01*
X164699278Y-133085297D01*
X164700000Y-133100000D01*
X164700000Y-133400000D01*
X164699278Y-133414703D01*
X164697118Y-133429264D01*
X164693541Y-133443543D01*
X164688582Y-133457403D01*
X164682288Y-133470710D01*
X164674720Y-133483336D01*
X164665952Y-133495159D01*
X164656066Y-133506066D01*
X164645159Y-133515952D01*
X164633336Y-133524720D01*
X164620710Y-133532288D01*
X164607403Y-133538582D01*
X164593543Y-133543541D01*
X164579264Y-133547118D01*
X164564703Y-133549278D01*
X164550000Y-133550000D01*
X162900000Y-133550000D01*
X162885297Y-133549278D01*
X162870736Y-133547118D01*
X162856457Y-133543541D01*
X162842597Y-133538582D01*
X162829290Y-133532288D01*
X162816664Y-133524720D01*
X162804841Y-133515952D01*
X162793934Y-133506066D01*
X162784048Y-133495159D01*
X162775280Y-133483336D01*
X162767712Y-133470710D01*
X162761418Y-133457403D01*
X162756459Y-133443543D01*
X162752882Y-133429264D01*
X162750722Y-133414703D01*
X162750000Y-133400000D01*
X162750000Y-133100000D01*
X162750722Y-133085297D01*
X162752882Y-133070736D01*
X162756459Y-133056457D01*
X162761418Y-133042597D01*
X162767712Y-133029290D01*
X162775280Y-133016664D01*
X162784048Y-133004841D01*
X162793934Y-132993934D01*
X162804841Y-132984048D01*
X162816664Y-132975280D01*
X162829290Y-132967712D01*
X162842597Y-132961418D01*
X162856457Y-132956459D01*
X162870736Y-132952882D01*
X162885297Y-132950722D01*
X162900000Y-132950000D01*
X164550000Y-132950000D01*
X164564703Y-132950722D01*
G37*
G36*
X147614703Y-132950722D02*
G01*
X147629264Y-132952882D01*
X147643543Y-132956459D01*
X147657403Y-132961418D01*
X147670710Y-132967712D01*
X147683336Y-132975280D01*
X147695159Y-132984048D01*
X147706066Y-132993934D01*
X147715952Y-133004841D01*
X147724720Y-133016664D01*
X147732288Y-133029290D01*
X147738582Y-133042597D01*
X147743541Y-133056457D01*
X147747118Y-133070736D01*
X147749278Y-133085297D01*
X147750000Y-133100000D01*
X147750000Y-133400000D01*
X147749278Y-133414703D01*
X147747118Y-133429264D01*
X147743541Y-133443543D01*
X147738582Y-133457403D01*
X147732288Y-133470710D01*
X147724720Y-133483336D01*
X147715952Y-133495159D01*
X147706066Y-133506066D01*
X147695159Y-133515952D01*
X147683336Y-133524720D01*
X147670710Y-133532288D01*
X147657403Y-133538582D01*
X147643543Y-133543541D01*
X147629264Y-133547118D01*
X147614703Y-133549278D01*
X147600000Y-133550000D01*
X145950000Y-133550000D01*
X145935297Y-133549278D01*
X145920736Y-133547118D01*
X145906457Y-133543541D01*
X145892597Y-133538582D01*
X145879290Y-133532288D01*
X145866664Y-133524720D01*
X145854841Y-133515952D01*
X145843934Y-133506066D01*
X145834048Y-133495159D01*
X145825280Y-133483336D01*
X145817712Y-133470710D01*
X145811418Y-133457403D01*
X145806459Y-133443543D01*
X145802882Y-133429264D01*
X145800722Y-133414703D01*
X145800000Y-133400000D01*
X145800000Y-133100000D01*
X145800722Y-133085297D01*
X145802882Y-133070736D01*
X145806459Y-133056457D01*
X145811418Y-133042597D01*
X145817712Y-133029290D01*
X145825280Y-133016664D01*
X145834048Y-133004841D01*
X145843934Y-132993934D01*
X145854841Y-132984048D01*
X145866664Y-132975280D01*
X145879290Y-132967712D01*
X145892597Y-132961418D01*
X145906457Y-132956459D01*
X145920736Y-132952882D01*
X145935297Y-132950722D01*
X145950000Y-132950000D01*
X147600000Y-132950000D01*
X147614703Y-132950722D01*
G37*
G36*
X147614703Y-134220722D02*
G01*
X147629264Y-134222882D01*
X147643543Y-134226459D01*
X147657403Y-134231418D01*
X147670710Y-134237712D01*
X147683336Y-134245280D01*
X147695159Y-134254048D01*
X147706066Y-134263934D01*
X147715952Y-134274841D01*
X147724720Y-134286664D01*
X147732288Y-134299290D01*
X147738582Y-134312597D01*
X147743541Y-134326457D01*
X147747118Y-134340736D01*
X147749278Y-134355297D01*
X147750000Y-134370000D01*
X147750000Y-134670000D01*
X147749278Y-134684703D01*
X147747118Y-134699264D01*
X147743541Y-134713543D01*
X147738582Y-134727403D01*
X147732288Y-134740710D01*
X147724720Y-134753336D01*
X147715952Y-134765159D01*
X147706066Y-134776066D01*
X147695159Y-134785952D01*
X147683336Y-134794720D01*
X147670710Y-134802288D01*
X147657403Y-134808582D01*
X147643543Y-134813541D01*
X147629264Y-134817118D01*
X147614703Y-134819278D01*
X147600000Y-134820000D01*
X145950000Y-134820000D01*
X145935297Y-134819278D01*
X145920736Y-134817118D01*
X145906457Y-134813541D01*
X145892597Y-134808582D01*
X145879290Y-134802288D01*
X145866664Y-134794720D01*
X145854841Y-134785952D01*
X145843934Y-134776066D01*
X145834048Y-134765159D01*
X145825280Y-134753336D01*
X145817712Y-134740710D01*
X145811418Y-134727403D01*
X145806459Y-134713543D01*
X145802882Y-134699264D01*
X145800722Y-134684703D01*
X145800000Y-134670000D01*
X145800000Y-134370000D01*
X145800722Y-134355297D01*
X145802882Y-134340736D01*
X145806459Y-134326457D01*
X145811418Y-134312597D01*
X145817712Y-134299290D01*
X145825280Y-134286664D01*
X145834048Y-134274841D01*
X145843934Y-134263934D01*
X145854841Y-134254048D01*
X145866664Y-134245280D01*
X145879290Y-134237712D01*
X145892597Y-134231418D01*
X145906457Y-134226459D01*
X145920736Y-134222882D01*
X145935297Y-134220722D01*
X145950000Y-134220000D01*
X147600000Y-134220000D01*
X147614703Y-134220722D01*
G37*
G36*
X147614703Y-135490722D02*
G01*
X147629264Y-135492882D01*
X147643543Y-135496459D01*
X147657403Y-135501418D01*
X147670710Y-135507712D01*
X147683336Y-135515280D01*
X147695159Y-135524048D01*
X147706066Y-135533934D01*
X147715952Y-135544841D01*
X147724720Y-135556664D01*
X147732288Y-135569290D01*
X147738582Y-135582597D01*
X147743541Y-135596457D01*
X147747118Y-135610736D01*
X147749278Y-135625297D01*
X147750000Y-135640000D01*
X147750000Y-135940000D01*
X147749278Y-135954703D01*
X147747118Y-135969264D01*
X147743541Y-135983543D01*
X147738582Y-135997403D01*
X147732288Y-136010710D01*
X147724720Y-136023336D01*
X147715952Y-136035159D01*
X147706066Y-136046066D01*
X147695159Y-136055952D01*
X147683336Y-136064720D01*
X147670710Y-136072288D01*
X147657403Y-136078582D01*
X147643543Y-136083541D01*
X147629264Y-136087118D01*
X147614703Y-136089278D01*
X147600000Y-136090000D01*
X145950000Y-136090000D01*
X145935297Y-136089278D01*
X145920736Y-136087118D01*
X145906457Y-136083541D01*
X145892597Y-136078582D01*
X145879290Y-136072288D01*
X145866664Y-136064720D01*
X145854841Y-136055952D01*
X145843934Y-136046066D01*
X145834048Y-136035159D01*
X145825280Y-136023336D01*
X145817712Y-136010710D01*
X145811418Y-135997403D01*
X145806459Y-135983543D01*
X145802882Y-135969264D01*
X145800722Y-135954703D01*
X145800000Y-135940000D01*
X145800000Y-135640000D01*
X145800722Y-135625297D01*
X145802882Y-135610736D01*
X145806459Y-135596457D01*
X145811418Y-135582597D01*
X145817712Y-135569290D01*
X145825280Y-135556664D01*
X145834048Y-135544841D01*
X145843934Y-135533934D01*
X145854841Y-135524048D01*
X145866664Y-135515280D01*
X145879290Y-135507712D01*
X145892597Y-135501418D01*
X145906457Y-135496459D01*
X145920736Y-135492882D01*
X145935297Y-135490722D01*
X145950000Y-135490000D01*
X147600000Y-135490000D01*
X147614703Y-135490722D01*
G37*
G36*
X147614703Y-136760722D02*
G01*
X147629264Y-136762882D01*
X147643543Y-136766459D01*
X147657403Y-136771418D01*
X147670710Y-136777712D01*
X147683336Y-136785280D01*
X147695159Y-136794048D01*
X147706066Y-136803934D01*
X147715952Y-136814841D01*
X147724720Y-136826664D01*
X147732288Y-136839290D01*
X147738582Y-136852597D01*
X147743541Y-136866457D01*
X147747118Y-136880736D01*
X147749278Y-136895297D01*
X147750000Y-136910000D01*
X147750000Y-137210000D01*
X147749278Y-137224703D01*
X147747118Y-137239264D01*
X147743541Y-137253543D01*
X147738582Y-137267403D01*
X147732288Y-137280710D01*
X147724720Y-137293336D01*
X147715952Y-137305159D01*
X147706066Y-137316066D01*
X147695159Y-137325952D01*
X147683336Y-137334720D01*
X147670710Y-137342288D01*
X147657403Y-137348582D01*
X147643543Y-137353541D01*
X147629264Y-137357118D01*
X147614703Y-137359278D01*
X147600000Y-137360000D01*
X145950000Y-137360000D01*
X145935297Y-137359278D01*
X145920736Y-137357118D01*
X145906457Y-137353541D01*
X145892597Y-137348582D01*
X145879290Y-137342288D01*
X145866664Y-137334720D01*
X145854841Y-137325952D01*
X145843934Y-137316066D01*
X145834048Y-137305159D01*
X145825280Y-137293336D01*
X145817712Y-137280710D01*
X145811418Y-137267403D01*
X145806459Y-137253543D01*
X145802882Y-137239264D01*
X145800722Y-137224703D01*
X145800000Y-137210000D01*
X145800000Y-136910000D01*
X145800722Y-136895297D01*
X145802882Y-136880736D01*
X145806459Y-136866457D01*
X145811418Y-136852597D01*
X145817712Y-136839290D01*
X145825280Y-136826664D01*
X145834048Y-136814841D01*
X145843934Y-136803934D01*
X145854841Y-136794048D01*
X145866664Y-136785280D01*
X145879290Y-136777712D01*
X145892597Y-136771418D01*
X145906457Y-136766459D01*
X145920736Y-136762882D01*
X145935297Y-136760722D01*
X145950000Y-136760000D01*
X147600000Y-136760000D01*
X147614703Y-136760722D01*
G37*
G36*
X152564703Y-136760722D02*
G01*
X152579264Y-136762882D01*
X152593543Y-136766459D01*
X152607403Y-136771418D01*
X152620710Y-136777712D01*
X152633336Y-136785280D01*
X152645159Y-136794048D01*
X152656066Y-136803934D01*
X152665952Y-136814841D01*
X152674720Y-136826664D01*
X152682288Y-136839290D01*
X152688582Y-136852597D01*
X152693541Y-136866457D01*
X152697118Y-136880736D01*
X152699278Y-136895297D01*
X152700000Y-136910000D01*
X152700000Y-137210000D01*
X152699278Y-137224703D01*
X152697118Y-137239264D01*
X152693541Y-137253543D01*
X152688582Y-137267403D01*
X152682288Y-137280710D01*
X152674720Y-137293336D01*
X152665952Y-137305159D01*
X152656066Y-137316066D01*
X152645159Y-137325952D01*
X152633336Y-137334720D01*
X152620710Y-137342288D01*
X152607403Y-137348582D01*
X152593543Y-137353541D01*
X152579264Y-137357118D01*
X152564703Y-137359278D01*
X152550000Y-137360000D01*
X150900000Y-137360000D01*
X150885297Y-137359278D01*
X150870736Y-137357118D01*
X150856457Y-137353541D01*
X150842597Y-137348582D01*
X150829290Y-137342288D01*
X150816664Y-137334720D01*
X150804841Y-137325952D01*
X150793934Y-137316066D01*
X150784048Y-137305159D01*
X150775280Y-137293336D01*
X150767712Y-137280710D01*
X150761418Y-137267403D01*
X150756459Y-137253543D01*
X150752882Y-137239264D01*
X150750722Y-137224703D01*
X150750000Y-137210000D01*
X150750000Y-136910000D01*
X150750722Y-136895297D01*
X150752882Y-136880736D01*
X150756459Y-136866457D01*
X150761418Y-136852597D01*
X150767712Y-136839290D01*
X150775280Y-136826664D01*
X150784048Y-136814841D01*
X150793934Y-136803934D01*
X150804841Y-136794048D01*
X150816664Y-136785280D01*
X150829290Y-136777712D01*
X150842597Y-136771418D01*
X150856457Y-136766459D01*
X150870736Y-136762882D01*
X150885297Y-136760722D01*
X150900000Y-136760000D01*
X152550000Y-136760000D01*
X152564703Y-136760722D01*
G37*
G36*
X152564703Y-135490722D02*
G01*
X152579264Y-135492882D01*
X152593543Y-135496459D01*
X152607403Y-135501418D01*
X152620710Y-135507712D01*
X152633336Y-135515280D01*
X152645159Y-135524048D01*
X152656066Y-135533934D01*
X152665952Y-135544841D01*
X152674720Y-135556664D01*
X152682288Y-135569290D01*
X152688582Y-135582597D01*
X152693541Y-135596457D01*
X152697118Y-135610736D01*
X152699278Y-135625297D01*
X152700000Y-135640000D01*
X152700000Y-135940000D01*
X152699278Y-135954703D01*
X152697118Y-135969264D01*
X152693541Y-135983543D01*
X152688582Y-135997403D01*
X152682288Y-136010710D01*
X152674720Y-136023336D01*
X152665952Y-136035159D01*
X152656066Y-136046066D01*
X152645159Y-136055952D01*
X152633336Y-136064720D01*
X152620710Y-136072288D01*
X152607403Y-136078582D01*
X152593543Y-136083541D01*
X152579264Y-136087118D01*
X152564703Y-136089278D01*
X152550000Y-136090000D01*
X150900000Y-136090000D01*
X150885297Y-136089278D01*
X150870736Y-136087118D01*
X150856457Y-136083541D01*
X150842597Y-136078582D01*
X150829290Y-136072288D01*
X150816664Y-136064720D01*
X150804841Y-136055952D01*
X150793934Y-136046066D01*
X150784048Y-136035159D01*
X150775280Y-136023336D01*
X150767712Y-136010710D01*
X150761418Y-135997403D01*
X150756459Y-135983543D01*
X150752882Y-135969264D01*
X150750722Y-135954703D01*
X150750000Y-135940000D01*
X150750000Y-135640000D01*
X150750722Y-135625297D01*
X150752882Y-135610736D01*
X150756459Y-135596457D01*
X150761418Y-135582597D01*
X150767712Y-135569290D01*
X150775280Y-135556664D01*
X150784048Y-135544841D01*
X150793934Y-135533934D01*
X150804841Y-135524048D01*
X150816664Y-135515280D01*
X150829290Y-135507712D01*
X150842597Y-135501418D01*
X150856457Y-135496459D01*
X150870736Y-135492882D01*
X150885297Y-135490722D01*
X150900000Y-135490000D01*
X152550000Y-135490000D01*
X152564703Y-135490722D01*
G37*
G36*
X152564703Y-134220722D02*
G01*
X152579264Y-134222882D01*
X152593543Y-134226459D01*
X152607403Y-134231418D01*
X152620710Y-134237712D01*
X152633336Y-134245280D01*
X152645159Y-134254048D01*
X152656066Y-134263934D01*
X152665952Y-134274841D01*
X152674720Y-134286664D01*
X152682288Y-134299290D01*
X152688582Y-134312597D01*
X152693541Y-134326457D01*
X152697118Y-134340736D01*
X152699278Y-134355297D01*
X152700000Y-134370000D01*
X152700000Y-134670000D01*
X152699278Y-134684703D01*
X152697118Y-134699264D01*
X152693541Y-134713543D01*
X152688582Y-134727403D01*
X152682288Y-134740710D01*
X152674720Y-134753336D01*
X152665952Y-134765159D01*
X152656066Y-134776066D01*
X152645159Y-134785952D01*
X152633336Y-134794720D01*
X152620710Y-134802288D01*
X152607403Y-134808582D01*
X152593543Y-134813541D01*
X152579264Y-134817118D01*
X152564703Y-134819278D01*
X152550000Y-134820000D01*
X150900000Y-134820000D01*
X150885297Y-134819278D01*
X150870736Y-134817118D01*
X150856457Y-134813541D01*
X150842597Y-134808582D01*
X150829290Y-134802288D01*
X150816664Y-134794720D01*
X150804841Y-134785952D01*
X150793934Y-134776066D01*
X150784048Y-134765159D01*
X150775280Y-134753336D01*
X150767712Y-134740710D01*
X150761418Y-134727403D01*
X150756459Y-134713543D01*
X150752882Y-134699264D01*
X150750722Y-134684703D01*
X150750000Y-134670000D01*
X150750000Y-134370000D01*
X150750722Y-134355297D01*
X150752882Y-134340736D01*
X150756459Y-134326457D01*
X150761418Y-134312597D01*
X150767712Y-134299290D01*
X150775280Y-134286664D01*
X150784048Y-134274841D01*
X150793934Y-134263934D01*
X150804841Y-134254048D01*
X150816664Y-134245280D01*
X150829290Y-134237712D01*
X150842597Y-134231418D01*
X150856457Y-134226459D01*
X150870736Y-134222882D01*
X150885297Y-134220722D01*
X150900000Y-134220000D01*
X152550000Y-134220000D01*
X152564703Y-134220722D01*
G37*
G36*
X152564703Y-132950722D02*
G01*
X152579264Y-132952882D01*
X152593543Y-132956459D01*
X152607403Y-132961418D01*
X152620710Y-132967712D01*
X152633336Y-132975280D01*
X152645159Y-132984048D01*
X152656066Y-132993934D01*
X152665952Y-133004841D01*
X152674720Y-133016664D01*
X152682288Y-133029290D01*
X152688582Y-133042597D01*
X152693541Y-133056457D01*
X152697118Y-133070736D01*
X152699278Y-133085297D01*
X152700000Y-133100000D01*
X152700000Y-133400000D01*
X152699278Y-133414703D01*
X152697118Y-133429264D01*
X152693541Y-133443543D01*
X152688582Y-133457403D01*
X152682288Y-133470710D01*
X152674720Y-133483336D01*
X152665952Y-133495159D01*
X152656066Y-133506066D01*
X152645159Y-133515952D01*
X152633336Y-133524720D01*
X152620710Y-133532288D01*
X152607403Y-133538582D01*
X152593543Y-133543541D01*
X152579264Y-133547118D01*
X152564703Y-133549278D01*
X152550000Y-133550000D01*
X150900000Y-133550000D01*
X150885297Y-133549278D01*
X150870736Y-133547118D01*
X150856457Y-133543541D01*
X150842597Y-133538582D01*
X150829290Y-133532288D01*
X150816664Y-133524720D01*
X150804841Y-133515952D01*
X150793934Y-133506066D01*
X150784048Y-133495159D01*
X150775280Y-133483336D01*
X150767712Y-133470710D01*
X150761418Y-133457403D01*
X150756459Y-133443543D01*
X150752882Y-133429264D01*
X150750722Y-133414703D01*
X150750000Y-133400000D01*
X150750000Y-133100000D01*
X150750722Y-133085297D01*
X150752882Y-133070736D01*
X150756459Y-133056457D01*
X150761418Y-133042597D01*
X150767712Y-133029290D01*
X150775280Y-133016664D01*
X150784048Y-133004841D01*
X150793934Y-132993934D01*
X150804841Y-132984048D01*
X150816664Y-132975280D01*
X150829290Y-132967712D01*
X150842597Y-132961418D01*
X150856457Y-132956459D01*
X150870736Y-132952882D01*
X150885297Y-132950722D01*
X150900000Y-132950000D01*
X152550000Y-132950000D01*
X152564703Y-132950722D01*
G37*
G36*
X128480142Y-131888674D02*
G01*
X128503803Y-131892184D01*
X128527007Y-131897996D01*
X128549529Y-131906054D01*
X128571153Y-131916282D01*
X128591670Y-131928579D01*
X128610883Y-131942829D01*
X128628607Y-131958893D01*
X128644671Y-131976617D01*
X128658921Y-131995830D01*
X128671218Y-132016347D01*
X128681446Y-132037971D01*
X128689504Y-132060493D01*
X128695316Y-132083697D01*
X128698826Y-132107358D01*
X128700000Y-132131250D01*
X128700000Y-132618750D01*
X128698826Y-132642642D01*
X128695316Y-132666303D01*
X128689504Y-132689507D01*
X128681446Y-132712029D01*
X128671218Y-132733653D01*
X128658921Y-132754170D01*
X128644671Y-132773383D01*
X128628607Y-132791107D01*
X128610883Y-132807171D01*
X128591670Y-132821421D01*
X128571153Y-132833718D01*
X128549529Y-132843946D01*
X128527007Y-132852004D01*
X128503803Y-132857816D01*
X128480142Y-132861326D01*
X128456250Y-132862500D01*
X127543750Y-132862500D01*
X127519858Y-132861326D01*
X127496197Y-132857816D01*
X127472993Y-132852004D01*
X127450471Y-132843946D01*
X127428847Y-132833718D01*
X127408330Y-132821421D01*
X127389117Y-132807171D01*
X127371393Y-132791107D01*
X127355329Y-132773383D01*
X127341079Y-132754170D01*
X127328782Y-132733653D01*
X127318554Y-132712029D01*
X127310496Y-132689507D01*
X127304684Y-132666303D01*
X127301174Y-132642642D01*
X127300000Y-132618750D01*
X127300000Y-132131250D01*
X127301174Y-132107358D01*
X127304684Y-132083697D01*
X127310496Y-132060493D01*
X127318554Y-132037971D01*
X127328782Y-132016347D01*
X127341079Y-131995830D01*
X127355329Y-131976617D01*
X127371393Y-131958893D01*
X127389117Y-131942829D01*
X127408330Y-131928579D01*
X127428847Y-131916282D01*
X127450471Y-131906054D01*
X127472993Y-131897996D01*
X127496197Y-131892184D01*
X127519858Y-131888674D01*
X127543750Y-131887500D01*
X128456250Y-131887500D01*
X128480142Y-131888674D01*
G37*
G36*
X128480142Y-133763674D02*
G01*
X128503803Y-133767184D01*
X128527007Y-133772996D01*
X128549529Y-133781054D01*
X128571153Y-133791282D01*
X128591670Y-133803579D01*
X128610883Y-133817829D01*
X128628607Y-133833893D01*
X128644671Y-133851617D01*
X128658921Y-133870830D01*
X128671218Y-133891347D01*
X128681446Y-133912971D01*
X128689504Y-133935493D01*
X128695316Y-133958697D01*
X128698826Y-133982358D01*
X128700000Y-134006250D01*
X128700000Y-134493750D01*
X128698826Y-134517642D01*
X128695316Y-134541303D01*
X128689504Y-134564507D01*
X128681446Y-134587029D01*
X128671218Y-134608653D01*
X128658921Y-134629170D01*
X128644671Y-134648383D01*
X128628607Y-134666107D01*
X128610883Y-134682171D01*
X128591670Y-134696421D01*
X128571153Y-134708718D01*
X128549529Y-134718946D01*
X128527007Y-134727004D01*
X128503803Y-134732816D01*
X128480142Y-134736326D01*
X128456250Y-134737500D01*
X127543750Y-134737500D01*
X127519858Y-134736326D01*
X127496197Y-134732816D01*
X127472993Y-134727004D01*
X127450471Y-134718946D01*
X127428847Y-134708718D01*
X127408330Y-134696421D01*
X127389117Y-134682171D01*
X127371393Y-134666107D01*
X127355329Y-134648383D01*
X127341079Y-134629170D01*
X127328782Y-134608653D01*
X127318554Y-134587029D01*
X127310496Y-134564507D01*
X127304684Y-134541303D01*
X127301174Y-134517642D01*
X127300000Y-134493750D01*
X127300000Y-134006250D01*
X127301174Y-133982358D01*
X127304684Y-133958697D01*
X127310496Y-133935493D01*
X127318554Y-133912971D01*
X127328782Y-133891347D01*
X127341079Y-133870830D01*
X127355329Y-133851617D01*
X127371393Y-133833893D01*
X127389117Y-133817829D01*
X127408330Y-133803579D01*
X127428847Y-133791282D01*
X127450471Y-133781054D01*
X127472993Y-133772996D01*
X127496197Y-133767184D01*
X127519858Y-133763674D01*
X127543750Y-133762500D01*
X128456250Y-133762500D01*
X128480142Y-133763674D01*
G37*
G36*
X128480142Y-139013674D02*
G01*
X128503803Y-139017184D01*
X128527007Y-139022996D01*
X128549529Y-139031054D01*
X128571153Y-139041282D01*
X128591670Y-139053579D01*
X128610883Y-139067829D01*
X128628607Y-139083893D01*
X128644671Y-139101617D01*
X128658921Y-139120830D01*
X128671218Y-139141347D01*
X128681446Y-139162971D01*
X128689504Y-139185493D01*
X128695316Y-139208697D01*
X128698826Y-139232358D01*
X128700000Y-139256250D01*
X128700000Y-139743750D01*
X128698826Y-139767642D01*
X128695316Y-139791303D01*
X128689504Y-139814507D01*
X128681446Y-139837029D01*
X128671218Y-139858653D01*
X128658921Y-139879170D01*
X128644671Y-139898383D01*
X128628607Y-139916107D01*
X128610883Y-139932171D01*
X128591670Y-139946421D01*
X128571153Y-139958718D01*
X128549529Y-139968946D01*
X128527007Y-139977004D01*
X128503803Y-139982816D01*
X128480142Y-139986326D01*
X128456250Y-139987500D01*
X127543750Y-139987500D01*
X127519858Y-139986326D01*
X127496197Y-139982816D01*
X127472993Y-139977004D01*
X127450471Y-139968946D01*
X127428847Y-139958718D01*
X127408330Y-139946421D01*
X127389117Y-139932171D01*
X127371393Y-139916107D01*
X127355329Y-139898383D01*
X127341079Y-139879170D01*
X127328782Y-139858653D01*
X127318554Y-139837029D01*
X127310496Y-139814507D01*
X127304684Y-139791303D01*
X127301174Y-139767642D01*
X127300000Y-139743750D01*
X127300000Y-139256250D01*
X127301174Y-139232358D01*
X127304684Y-139208697D01*
X127310496Y-139185493D01*
X127318554Y-139162971D01*
X127328782Y-139141347D01*
X127341079Y-139120830D01*
X127355329Y-139101617D01*
X127371393Y-139083893D01*
X127389117Y-139067829D01*
X127408330Y-139053579D01*
X127428847Y-139041282D01*
X127450471Y-139031054D01*
X127472993Y-139022996D01*
X127496197Y-139017184D01*
X127519858Y-139013674D01*
X127543750Y-139012500D01*
X128456250Y-139012500D01*
X128480142Y-139013674D01*
G37*
G36*
X128480142Y-140888674D02*
G01*
X128503803Y-140892184D01*
X128527007Y-140897996D01*
X128549529Y-140906054D01*
X128571153Y-140916282D01*
X128591670Y-140928579D01*
X128610883Y-140942829D01*
X128628607Y-140958893D01*
X128644671Y-140976617D01*
X128658921Y-140995830D01*
X128671218Y-141016347D01*
X128681446Y-141037971D01*
X128689504Y-141060493D01*
X128695316Y-141083697D01*
X128698826Y-141107358D01*
X128700000Y-141131250D01*
X128700000Y-141618750D01*
X128698826Y-141642642D01*
X128695316Y-141666303D01*
X128689504Y-141689507D01*
X128681446Y-141712029D01*
X128671218Y-141733653D01*
X128658921Y-141754170D01*
X128644671Y-141773383D01*
X128628607Y-141791107D01*
X128610883Y-141807171D01*
X128591670Y-141821421D01*
X128571153Y-141833718D01*
X128549529Y-141843946D01*
X128527007Y-141852004D01*
X128503803Y-141857816D01*
X128480142Y-141861326D01*
X128456250Y-141862500D01*
X127543750Y-141862500D01*
X127519858Y-141861326D01*
X127496197Y-141857816D01*
X127472993Y-141852004D01*
X127450471Y-141843946D01*
X127428847Y-141833718D01*
X127408330Y-141821421D01*
X127389117Y-141807171D01*
X127371393Y-141791107D01*
X127355329Y-141773383D01*
X127341079Y-141754170D01*
X127328782Y-141733653D01*
X127318554Y-141712029D01*
X127310496Y-141689507D01*
X127304684Y-141666303D01*
X127301174Y-141642642D01*
X127300000Y-141618750D01*
X127300000Y-141131250D01*
X127301174Y-141107358D01*
X127304684Y-141083697D01*
X127310496Y-141060493D01*
X127318554Y-141037971D01*
X127328782Y-141016347D01*
X127341079Y-140995830D01*
X127355329Y-140976617D01*
X127371393Y-140958893D01*
X127389117Y-140942829D01*
X127408330Y-140928579D01*
X127428847Y-140916282D01*
X127450471Y-140906054D01*
X127472993Y-140897996D01*
X127496197Y-140892184D01*
X127519858Y-140888674D01*
X127543750Y-140887500D01*
X128456250Y-140887500D01*
X128480142Y-140888674D01*
G37*
G36*
X124517642Y-129301174D02*
G01*
X124541303Y-129304684D01*
X124564507Y-129310496D01*
X124587029Y-129318554D01*
X124608653Y-129328782D01*
X124629170Y-129341079D01*
X124648383Y-129355329D01*
X124666107Y-129371393D01*
X124682171Y-129389117D01*
X124696421Y-129408330D01*
X124708718Y-129428847D01*
X124718946Y-129450471D01*
X124727004Y-129472993D01*
X124732816Y-129496197D01*
X124736326Y-129519858D01*
X124737500Y-129543750D01*
X124737500Y-130456250D01*
X124736326Y-130480142D01*
X124732816Y-130503803D01*
X124727004Y-130527007D01*
X124718946Y-130549529D01*
X124708718Y-130571153D01*
X124696421Y-130591670D01*
X124682171Y-130610883D01*
X124666107Y-130628607D01*
X124648383Y-130644671D01*
X124629170Y-130658921D01*
X124608653Y-130671218D01*
X124587029Y-130681446D01*
X124564507Y-130689504D01*
X124541303Y-130695316D01*
X124517642Y-130698826D01*
X124493750Y-130700000D01*
X124006250Y-130700000D01*
X123982358Y-130698826D01*
X123958697Y-130695316D01*
X123935493Y-130689504D01*
X123912971Y-130681446D01*
X123891347Y-130671218D01*
X123870830Y-130658921D01*
X123851617Y-130644671D01*
X123833893Y-130628607D01*
X123817829Y-130610883D01*
X123803579Y-130591670D01*
X123791282Y-130571153D01*
X123781054Y-130549529D01*
X123772996Y-130527007D01*
X123767184Y-130503803D01*
X123763674Y-130480142D01*
X123762500Y-130456250D01*
X123762500Y-129543750D01*
X123763674Y-129519858D01*
X123767184Y-129496197D01*
X123772996Y-129472993D01*
X123781054Y-129450471D01*
X123791282Y-129428847D01*
X123803579Y-129408330D01*
X123817829Y-129389117D01*
X123833893Y-129371393D01*
X123851617Y-129355329D01*
X123870830Y-129341079D01*
X123891347Y-129328782D01*
X123912971Y-129318554D01*
X123935493Y-129310496D01*
X123958697Y-129304684D01*
X123982358Y-129301174D01*
X124006250Y-129300000D01*
X124493750Y-129300000D01*
X124517642Y-129301174D01*
G37*
G36*
X122642642Y-129301174D02*
G01*
X122666303Y-129304684D01*
X122689507Y-129310496D01*
X122712029Y-129318554D01*
X122733653Y-129328782D01*
X122754170Y-129341079D01*
X122773383Y-129355329D01*
X122791107Y-129371393D01*
X122807171Y-129389117D01*
X122821421Y-129408330D01*
X122833718Y-129428847D01*
X122843946Y-129450471D01*
X122852004Y-129472993D01*
X122857816Y-129496197D01*
X122861326Y-129519858D01*
X122862500Y-129543750D01*
X122862500Y-130456250D01*
X122861326Y-130480142D01*
X122857816Y-130503803D01*
X122852004Y-130527007D01*
X122843946Y-130549529D01*
X122833718Y-130571153D01*
X122821421Y-130591670D01*
X122807171Y-130610883D01*
X122791107Y-130628607D01*
X122773383Y-130644671D01*
X122754170Y-130658921D01*
X122733653Y-130671218D01*
X122712029Y-130681446D01*
X122689507Y-130689504D01*
X122666303Y-130695316D01*
X122642642Y-130698826D01*
X122618750Y-130700000D01*
X122131250Y-130700000D01*
X122107358Y-130698826D01*
X122083697Y-130695316D01*
X122060493Y-130689504D01*
X122037971Y-130681446D01*
X122016347Y-130671218D01*
X121995830Y-130658921D01*
X121976617Y-130644671D01*
X121958893Y-130628607D01*
X121942829Y-130610883D01*
X121928579Y-130591670D01*
X121916282Y-130571153D01*
X121906054Y-130549529D01*
X121897996Y-130527007D01*
X121892184Y-130503803D01*
X121888674Y-130480142D01*
X121887500Y-130456250D01*
X121887500Y-129543750D01*
X121888674Y-129519858D01*
X121892184Y-129496197D01*
X121897996Y-129472993D01*
X121906054Y-129450471D01*
X121916282Y-129428847D01*
X121928579Y-129408330D01*
X121942829Y-129389117D01*
X121958893Y-129371393D01*
X121976617Y-129355329D01*
X121995830Y-129341079D01*
X122016347Y-129328782D01*
X122037971Y-129318554D01*
X122060493Y-129310496D01*
X122083697Y-129304684D01*
X122107358Y-129301174D01*
X122131250Y-129300000D01*
X122618750Y-129300000D01*
X122642642Y-129301174D01*
G37*
G36*
X142480142Y-136388674D02*
G01*
X142503803Y-136392184D01*
X142527007Y-136397996D01*
X142549529Y-136406054D01*
X142571153Y-136416282D01*
X142591670Y-136428579D01*
X142610883Y-136442829D01*
X142628607Y-136458893D01*
X142644671Y-136476617D01*
X142658921Y-136495830D01*
X142671218Y-136516347D01*
X142681446Y-136537971D01*
X142689504Y-136560493D01*
X142695316Y-136583697D01*
X142698826Y-136607358D01*
X142700000Y-136631250D01*
X142700000Y-137118750D01*
X142698826Y-137142642D01*
X142695316Y-137166303D01*
X142689504Y-137189507D01*
X142681446Y-137212029D01*
X142671218Y-137233653D01*
X142658921Y-137254170D01*
X142644671Y-137273383D01*
X142628607Y-137291107D01*
X142610883Y-137307171D01*
X142591670Y-137321421D01*
X142571153Y-137333718D01*
X142549529Y-137343946D01*
X142527007Y-137352004D01*
X142503803Y-137357816D01*
X142480142Y-137361326D01*
X142456250Y-137362500D01*
X141543750Y-137362500D01*
X141519858Y-137361326D01*
X141496197Y-137357816D01*
X141472993Y-137352004D01*
X141450471Y-137343946D01*
X141428847Y-137333718D01*
X141408330Y-137321421D01*
X141389117Y-137307171D01*
X141371393Y-137291107D01*
X141355329Y-137273383D01*
X141341079Y-137254170D01*
X141328782Y-137233653D01*
X141318554Y-137212029D01*
X141310496Y-137189507D01*
X141304684Y-137166303D01*
X141301174Y-137142642D01*
X141300000Y-137118750D01*
X141300000Y-136631250D01*
X141301174Y-136607358D01*
X141304684Y-136583697D01*
X141310496Y-136560493D01*
X141318554Y-136537971D01*
X141328782Y-136516347D01*
X141341079Y-136495830D01*
X141355329Y-136476617D01*
X141371393Y-136458893D01*
X141389117Y-136442829D01*
X141408330Y-136428579D01*
X141428847Y-136416282D01*
X141450471Y-136406054D01*
X141472993Y-136397996D01*
X141496197Y-136392184D01*
X141519858Y-136388674D01*
X141543750Y-136387500D01*
X142456250Y-136387500D01*
X142480142Y-136388674D01*
G37*
G36*
X142480142Y-134513674D02*
G01*
X142503803Y-134517184D01*
X142527007Y-134522996D01*
X142549529Y-134531054D01*
X142571153Y-134541282D01*
X142591670Y-134553579D01*
X142610883Y-134567829D01*
X142628607Y-134583893D01*
X142644671Y-134601617D01*
X142658921Y-134620830D01*
X142671218Y-134641347D01*
X142681446Y-134662971D01*
X142689504Y-134685493D01*
X142695316Y-134708697D01*
X142698826Y-134732358D01*
X142700000Y-134756250D01*
X142700000Y-135243750D01*
X142698826Y-135267642D01*
X142695316Y-135291303D01*
X142689504Y-135314507D01*
X142681446Y-135337029D01*
X142671218Y-135358653D01*
X142658921Y-135379170D01*
X142644671Y-135398383D01*
X142628607Y-135416107D01*
X142610883Y-135432171D01*
X142591670Y-135446421D01*
X142571153Y-135458718D01*
X142549529Y-135468946D01*
X142527007Y-135477004D01*
X142503803Y-135482816D01*
X142480142Y-135486326D01*
X142456250Y-135487500D01*
X141543750Y-135487500D01*
X141519858Y-135486326D01*
X141496197Y-135482816D01*
X141472993Y-135477004D01*
X141450471Y-135468946D01*
X141428847Y-135458718D01*
X141408330Y-135446421D01*
X141389117Y-135432171D01*
X141371393Y-135416107D01*
X141355329Y-135398383D01*
X141341079Y-135379170D01*
X141328782Y-135358653D01*
X141318554Y-135337029D01*
X141310496Y-135314507D01*
X141304684Y-135291303D01*
X141301174Y-135267642D01*
X141300000Y-135243750D01*
X141300000Y-134756250D01*
X141301174Y-134732358D01*
X141304684Y-134708697D01*
X141310496Y-134685493D01*
X141318554Y-134662971D01*
X141328782Y-134641347D01*
X141341079Y-134620830D01*
X141355329Y-134601617D01*
X141371393Y-134583893D01*
X141389117Y-134567829D01*
X141408330Y-134553579D01*
X141428847Y-134541282D01*
X141450471Y-134531054D01*
X141472993Y-134522996D01*
X141496197Y-134517184D01*
X141519858Y-134513674D01*
X141543750Y-134512500D01*
X142456250Y-134512500D01*
X142480142Y-134513674D01*
G37*
G36*
X132980142Y-136513674D02*
G01*
X133003803Y-136517184D01*
X133027007Y-136522996D01*
X133049529Y-136531054D01*
X133071153Y-136541282D01*
X133091670Y-136553579D01*
X133110883Y-136567829D01*
X133128607Y-136583893D01*
X133144671Y-136601617D01*
X133158921Y-136620830D01*
X133171218Y-136641347D01*
X133181446Y-136662971D01*
X133189504Y-136685493D01*
X133195316Y-136708697D01*
X133198826Y-136732358D01*
X133200000Y-136756250D01*
X133200000Y-137243750D01*
X133198826Y-137267642D01*
X133195316Y-137291303D01*
X133189504Y-137314507D01*
X133181446Y-137337029D01*
X133171218Y-137358653D01*
X133158921Y-137379170D01*
X133144671Y-137398383D01*
X133128607Y-137416107D01*
X133110883Y-137432171D01*
X133091670Y-137446421D01*
X133071153Y-137458718D01*
X133049529Y-137468946D01*
X133027007Y-137477004D01*
X133003803Y-137482816D01*
X132980142Y-137486326D01*
X132956250Y-137487500D01*
X132043750Y-137487500D01*
X132019858Y-137486326D01*
X131996197Y-137482816D01*
X131972993Y-137477004D01*
X131950471Y-137468946D01*
X131928847Y-137458718D01*
X131908330Y-137446421D01*
X131889117Y-137432171D01*
X131871393Y-137416107D01*
X131855329Y-137398383D01*
X131841079Y-137379170D01*
X131828782Y-137358653D01*
X131818554Y-137337029D01*
X131810496Y-137314507D01*
X131804684Y-137291303D01*
X131801174Y-137267642D01*
X131800000Y-137243750D01*
X131800000Y-136756250D01*
X131801174Y-136732358D01*
X131804684Y-136708697D01*
X131810496Y-136685493D01*
X131818554Y-136662971D01*
X131828782Y-136641347D01*
X131841079Y-136620830D01*
X131855329Y-136601617D01*
X131871393Y-136583893D01*
X131889117Y-136567829D01*
X131908330Y-136553579D01*
X131928847Y-136541282D01*
X131950471Y-136531054D01*
X131972993Y-136522996D01*
X131996197Y-136517184D01*
X132019858Y-136513674D01*
X132043750Y-136512500D01*
X132956250Y-136512500D01*
X132980142Y-136513674D01*
G37*
G36*
X132980142Y-134638674D02*
G01*
X133003803Y-134642184D01*
X133027007Y-134647996D01*
X133049529Y-134656054D01*
X133071153Y-134666282D01*
X133091670Y-134678579D01*
X133110883Y-134692829D01*
X133128607Y-134708893D01*
X133144671Y-134726617D01*
X133158921Y-134745830D01*
X133171218Y-134766347D01*
X133181446Y-134787971D01*
X133189504Y-134810493D01*
X133195316Y-134833697D01*
X133198826Y-134857358D01*
X133200000Y-134881250D01*
X133200000Y-135368750D01*
X133198826Y-135392642D01*
X133195316Y-135416303D01*
X133189504Y-135439507D01*
X133181446Y-135462029D01*
X133171218Y-135483653D01*
X133158921Y-135504170D01*
X133144671Y-135523383D01*
X133128607Y-135541107D01*
X133110883Y-135557171D01*
X133091670Y-135571421D01*
X133071153Y-135583718D01*
X133049529Y-135593946D01*
X133027007Y-135602004D01*
X133003803Y-135607816D01*
X132980142Y-135611326D01*
X132956250Y-135612500D01*
X132043750Y-135612500D01*
X132019858Y-135611326D01*
X131996197Y-135607816D01*
X131972993Y-135602004D01*
X131950471Y-135593946D01*
X131928847Y-135583718D01*
X131908330Y-135571421D01*
X131889117Y-135557171D01*
X131871393Y-135541107D01*
X131855329Y-135523383D01*
X131841079Y-135504170D01*
X131828782Y-135483653D01*
X131818554Y-135462029D01*
X131810496Y-135439507D01*
X131804684Y-135416303D01*
X131801174Y-135392642D01*
X131800000Y-135368750D01*
X131800000Y-134881250D01*
X131801174Y-134857358D01*
X131804684Y-134833697D01*
X131810496Y-134810493D01*
X131818554Y-134787971D01*
X131828782Y-134766347D01*
X131841079Y-134745830D01*
X131855329Y-134726617D01*
X131871393Y-134708893D01*
X131889117Y-134692829D01*
X131908330Y-134678579D01*
X131928847Y-134666282D01*
X131950471Y-134656054D01*
X131972993Y-134647996D01*
X131996197Y-134642184D01*
X132019858Y-134638674D01*
X132043750Y-134637500D01*
X132956250Y-134637500D01*
X132980142Y-134638674D01*
G37*
D11*
X124060000Y-141550000D03*
D10*
G36*
X123240000Y-140500000D02*
G01*
X123240000Y-143500000D01*
X122310000Y-143500000D01*
X122310000Y-148000000D01*
X121760000Y-148000000D01*
X121760000Y-140500000D01*
X123240000Y-140500000D01*
G37*
G36*
X126360000Y-140500000D02*
G01*
X126360000Y-148000000D01*
X125810000Y-148000000D01*
X125810000Y-143500000D01*
X124880000Y-143500000D01*
X124880000Y-140500000D01*
X126360000Y-140500000D01*
G37*
D11*
X136060000Y-141550000D03*
D10*
G36*
X135240000Y-140500000D02*
G01*
X135240000Y-143500000D01*
X134310000Y-143500000D01*
X134310000Y-148000000D01*
X133760000Y-148000000D01*
X133760000Y-140500000D01*
X135240000Y-140500000D01*
G37*
G36*
X138360000Y-140500000D02*
G01*
X138360000Y-148000000D01*
X137810000Y-148000000D01*
X137810000Y-143500000D01*
X136880000Y-143500000D01*
X136880000Y-140500000D01*
X138360000Y-140500000D01*
G37*
G36*
X128480142Y-137388674D02*
G01*
X128503803Y-137392184D01*
X128527007Y-137397996D01*
X128549529Y-137406054D01*
X128571153Y-137416282D01*
X128591670Y-137428579D01*
X128610883Y-137442829D01*
X128628607Y-137458893D01*
X128644671Y-137476617D01*
X128658921Y-137495830D01*
X128671218Y-137516347D01*
X128681446Y-137537971D01*
X128689504Y-137560493D01*
X128695316Y-137583697D01*
X128698826Y-137607358D01*
X128700000Y-137631250D01*
X128700000Y-138118750D01*
X128698826Y-138142642D01*
X128695316Y-138166303D01*
X128689504Y-138189507D01*
X128681446Y-138212029D01*
X128671218Y-138233653D01*
X128658921Y-138254170D01*
X128644671Y-138273383D01*
X128628607Y-138291107D01*
X128610883Y-138307171D01*
X128591670Y-138321421D01*
X128571153Y-138333718D01*
X128549529Y-138343946D01*
X128527007Y-138352004D01*
X128503803Y-138357816D01*
X128480142Y-138361326D01*
X128456250Y-138362500D01*
X127543750Y-138362500D01*
X127519858Y-138361326D01*
X127496197Y-138357816D01*
X127472993Y-138352004D01*
X127450471Y-138343946D01*
X127428847Y-138333718D01*
X127408330Y-138321421D01*
X127389117Y-138307171D01*
X127371393Y-138291107D01*
X127355329Y-138273383D01*
X127341079Y-138254170D01*
X127328782Y-138233653D01*
X127318554Y-138212029D01*
X127310496Y-138189507D01*
X127304684Y-138166303D01*
X127301174Y-138142642D01*
X127300000Y-138118750D01*
X127300000Y-137631250D01*
X127301174Y-137607358D01*
X127304684Y-137583697D01*
X127310496Y-137560493D01*
X127318554Y-137537971D01*
X127328782Y-137516347D01*
X127341079Y-137495830D01*
X127355329Y-137476617D01*
X127371393Y-137458893D01*
X127389117Y-137442829D01*
X127408330Y-137428579D01*
X127428847Y-137416282D01*
X127450471Y-137406054D01*
X127472993Y-137397996D01*
X127496197Y-137392184D01*
X127519858Y-137388674D01*
X127543750Y-137387500D01*
X128456250Y-137387500D01*
X128480142Y-137388674D01*
G37*
G36*
X128480142Y-135513674D02*
G01*
X128503803Y-135517184D01*
X128527007Y-135522996D01*
X128549529Y-135531054D01*
X128571153Y-135541282D01*
X128591670Y-135553579D01*
X128610883Y-135567829D01*
X128628607Y-135583893D01*
X128644671Y-135601617D01*
X128658921Y-135620830D01*
X128671218Y-135641347D01*
X128681446Y-135662971D01*
X128689504Y-135685493D01*
X128695316Y-135708697D01*
X128698826Y-135732358D01*
X128700000Y-135756250D01*
X128700000Y-136243750D01*
X128698826Y-136267642D01*
X128695316Y-136291303D01*
X128689504Y-136314507D01*
X128681446Y-136337029D01*
X128671218Y-136358653D01*
X128658921Y-136379170D01*
X128644671Y-136398383D01*
X128628607Y-136416107D01*
X128610883Y-136432171D01*
X128591670Y-136446421D01*
X128571153Y-136458718D01*
X128549529Y-136468946D01*
X128527007Y-136477004D01*
X128503803Y-136482816D01*
X128480142Y-136486326D01*
X128456250Y-136487500D01*
X127543750Y-136487500D01*
X127519858Y-136486326D01*
X127496197Y-136482816D01*
X127472993Y-136477004D01*
X127450471Y-136468946D01*
X127428847Y-136458718D01*
X127408330Y-136446421D01*
X127389117Y-136432171D01*
X127371393Y-136416107D01*
X127355329Y-136398383D01*
X127341079Y-136379170D01*
X127328782Y-136358653D01*
X127318554Y-136337029D01*
X127310496Y-136314507D01*
X127304684Y-136291303D01*
X127301174Y-136267642D01*
X127300000Y-136243750D01*
X127300000Y-135756250D01*
X127301174Y-135732358D01*
X127304684Y-135708697D01*
X127310496Y-135685493D01*
X127318554Y-135662971D01*
X127328782Y-135641347D01*
X127341079Y-135620830D01*
X127355329Y-135601617D01*
X127371393Y-135583893D01*
X127389117Y-135567829D01*
X127408330Y-135553579D01*
X127428847Y-135541282D01*
X127450471Y-135531054D01*
X127472993Y-135522996D01*
X127496197Y-135517184D01*
X127519858Y-135513674D01*
X127543750Y-135512500D01*
X128456250Y-135512500D01*
X128480142Y-135513674D01*
G37*
G36*
X120730142Y-131888674D02*
G01*
X120753803Y-131892184D01*
X120777007Y-131897996D01*
X120799529Y-131906054D01*
X120821153Y-131916282D01*
X120841670Y-131928579D01*
X120860883Y-131942829D01*
X120878607Y-131958893D01*
X120894671Y-131976617D01*
X120908921Y-131995830D01*
X120921218Y-132016347D01*
X120931446Y-132037971D01*
X120939504Y-132060493D01*
X120945316Y-132083697D01*
X120948826Y-132107358D01*
X120950000Y-132131250D01*
X120950000Y-132618750D01*
X120948826Y-132642642D01*
X120945316Y-132666303D01*
X120939504Y-132689507D01*
X120931446Y-132712029D01*
X120921218Y-132733653D01*
X120908921Y-132754170D01*
X120894671Y-132773383D01*
X120878607Y-132791107D01*
X120860883Y-132807171D01*
X120841670Y-132821421D01*
X120821153Y-132833718D01*
X120799529Y-132843946D01*
X120777007Y-132852004D01*
X120753803Y-132857816D01*
X120730142Y-132861326D01*
X120706250Y-132862500D01*
X119793750Y-132862500D01*
X119769858Y-132861326D01*
X119746197Y-132857816D01*
X119722993Y-132852004D01*
X119700471Y-132843946D01*
X119678847Y-132833718D01*
X119658330Y-132821421D01*
X119639117Y-132807171D01*
X119621393Y-132791107D01*
X119605329Y-132773383D01*
X119591079Y-132754170D01*
X119578782Y-132733653D01*
X119568554Y-132712029D01*
X119560496Y-132689507D01*
X119554684Y-132666303D01*
X119551174Y-132642642D01*
X119550000Y-132618750D01*
X119550000Y-132131250D01*
X119551174Y-132107358D01*
X119554684Y-132083697D01*
X119560496Y-132060493D01*
X119568554Y-132037971D01*
X119578782Y-132016347D01*
X119591079Y-131995830D01*
X119605329Y-131976617D01*
X119621393Y-131958893D01*
X119639117Y-131942829D01*
X119658330Y-131928579D01*
X119678847Y-131916282D01*
X119700471Y-131906054D01*
X119722993Y-131897996D01*
X119746197Y-131892184D01*
X119769858Y-131888674D01*
X119793750Y-131887500D01*
X120706250Y-131887500D01*
X120730142Y-131888674D01*
G37*
G36*
X120730142Y-133763674D02*
G01*
X120753803Y-133767184D01*
X120777007Y-133772996D01*
X120799529Y-133781054D01*
X120821153Y-133791282D01*
X120841670Y-133803579D01*
X120860883Y-133817829D01*
X120878607Y-133833893D01*
X120894671Y-133851617D01*
X120908921Y-133870830D01*
X120921218Y-133891347D01*
X120931446Y-133912971D01*
X120939504Y-133935493D01*
X120945316Y-133958697D01*
X120948826Y-133982358D01*
X120950000Y-134006250D01*
X120950000Y-134493750D01*
X120948826Y-134517642D01*
X120945316Y-134541303D01*
X120939504Y-134564507D01*
X120931446Y-134587029D01*
X120921218Y-134608653D01*
X120908921Y-134629170D01*
X120894671Y-134648383D01*
X120878607Y-134666107D01*
X120860883Y-134682171D01*
X120841670Y-134696421D01*
X120821153Y-134708718D01*
X120799529Y-134718946D01*
X120777007Y-134727004D01*
X120753803Y-134732816D01*
X120730142Y-134736326D01*
X120706250Y-134737500D01*
X119793750Y-134737500D01*
X119769858Y-134736326D01*
X119746197Y-134732816D01*
X119722993Y-134727004D01*
X119700471Y-134718946D01*
X119678847Y-134708718D01*
X119658330Y-134696421D01*
X119639117Y-134682171D01*
X119621393Y-134666107D01*
X119605329Y-134648383D01*
X119591079Y-134629170D01*
X119578782Y-134608653D01*
X119568554Y-134587029D01*
X119560496Y-134564507D01*
X119554684Y-134541303D01*
X119551174Y-134517642D01*
X119550000Y-134493750D01*
X119550000Y-134006250D01*
X119551174Y-133982358D01*
X119554684Y-133958697D01*
X119560496Y-133935493D01*
X119568554Y-133912971D01*
X119578782Y-133891347D01*
X119591079Y-133870830D01*
X119605329Y-133851617D01*
X119621393Y-133833893D01*
X119639117Y-133817829D01*
X119658330Y-133803579D01*
X119678847Y-133791282D01*
X119700471Y-133781054D01*
X119722993Y-133772996D01*
X119746197Y-133767184D01*
X119769858Y-133763674D01*
X119793750Y-133762500D01*
X120706250Y-133762500D01*
X120730142Y-133763674D01*
G37*
G36*
X138767642Y-138301174D02*
G01*
X138791303Y-138304684D01*
X138814507Y-138310496D01*
X138837029Y-138318554D01*
X138858653Y-138328782D01*
X138879170Y-138341079D01*
X138898383Y-138355329D01*
X138916107Y-138371393D01*
X138932171Y-138389117D01*
X138946421Y-138408330D01*
X138958718Y-138428847D01*
X138968946Y-138450471D01*
X138977004Y-138472993D01*
X138982816Y-138496197D01*
X138986326Y-138519858D01*
X138987500Y-138543750D01*
X138987500Y-139456250D01*
X138986326Y-139480142D01*
X138982816Y-139503803D01*
X138977004Y-139527007D01*
X138968946Y-139549529D01*
X138958718Y-139571153D01*
X138946421Y-139591670D01*
X138932171Y-139610883D01*
X138916107Y-139628607D01*
X138898383Y-139644671D01*
X138879170Y-139658921D01*
X138858653Y-139671218D01*
X138837029Y-139681446D01*
X138814507Y-139689504D01*
X138791303Y-139695316D01*
X138767642Y-139698826D01*
X138743750Y-139700000D01*
X138256250Y-139700000D01*
X138232358Y-139698826D01*
X138208697Y-139695316D01*
X138185493Y-139689504D01*
X138162971Y-139681446D01*
X138141347Y-139671218D01*
X138120830Y-139658921D01*
X138101617Y-139644671D01*
X138083893Y-139628607D01*
X138067829Y-139610883D01*
X138053579Y-139591670D01*
X138041282Y-139571153D01*
X138031054Y-139549529D01*
X138022996Y-139527007D01*
X138017184Y-139503803D01*
X138013674Y-139480142D01*
X138012500Y-139456250D01*
X138012500Y-138543750D01*
X138013674Y-138519858D01*
X138017184Y-138496197D01*
X138022996Y-138472993D01*
X138031054Y-138450471D01*
X138041282Y-138428847D01*
X138053579Y-138408330D01*
X138067829Y-138389117D01*
X138083893Y-138371393D01*
X138101617Y-138355329D01*
X138120830Y-138341079D01*
X138141347Y-138328782D01*
X138162971Y-138318554D01*
X138185493Y-138310496D01*
X138208697Y-138304684D01*
X138232358Y-138301174D01*
X138256250Y-138300000D01*
X138743750Y-138300000D01*
X138767642Y-138301174D01*
G37*
G36*
X136892642Y-138301174D02*
G01*
X136916303Y-138304684D01*
X136939507Y-138310496D01*
X136962029Y-138318554D01*
X136983653Y-138328782D01*
X137004170Y-138341079D01*
X137023383Y-138355329D01*
X137041107Y-138371393D01*
X137057171Y-138389117D01*
X137071421Y-138408330D01*
X137083718Y-138428847D01*
X137093946Y-138450471D01*
X137102004Y-138472993D01*
X137107816Y-138496197D01*
X137111326Y-138519858D01*
X137112500Y-138543750D01*
X137112500Y-139456250D01*
X137111326Y-139480142D01*
X137107816Y-139503803D01*
X137102004Y-139527007D01*
X137093946Y-139549529D01*
X137083718Y-139571153D01*
X137071421Y-139591670D01*
X137057171Y-139610883D01*
X137041107Y-139628607D01*
X137023383Y-139644671D01*
X137004170Y-139658921D01*
X136983653Y-139671218D01*
X136962029Y-139681446D01*
X136939507Y-139689504D01*
X136916303Y-139695316D01*
X136892642Y-139698826D01*
X136868750Y-139700000D01*
X136381250Y-139700000D01*
X136357358Y-139698826D01*
X136333697Y-139695316D01*
X136310493Y-139689504D01*
X136287971Y-139681446D01*
X136266347Y-139671218D01*
X136245830Y-139658921D01*
X136226617Y-139644671D01*
X136208893Y-139628607D01*
X136192829Y-139610883D01*
X136178579Y-139591670D01*
X136166282Y-139571153D01*
X136156054Y-139549529D01*
X136147996Y-139527007D01*
X136142184Y-139503803D01*
X136138674Y-139480142D01*
X136137500Y-139456250D01*
X136137500Y-138543750D01*
X136138674Y-138519858D01*
X136142184Y-138496197D01*
X136147996Y-138472993D01*
X136156054Y-138450471D01*
X136166282Y-138428847D01*
X136178579Y-138408330D01*
X136192829Y-138389117D01*
X136208893Y-138371393D01*
X136226617Y-138355329D01*
X136245830Y-138341079D01*
X136266347Y-138328782D01*
X136287971Y-138318554D01*
X136310493Y-138310496D01*
X136333697Y-138304684D01*
X136357358Y-138301174D01*
X136381250Y-138300000D01*
X136868750Y-138300000D01*
X136892642Y-138301174D01*
G37*
G36*
X140330142Y-138301174D02*
G01*
X140353803Y-138304684D01*
X140377007Y-138310496D01*
X140399529Y-138318554D01*
X140421153Y-138328782D01*
X140441670Y-138341079D01*
X140460883Y-138355329D01*
X140478607Y-138371393D01*
X140494671Y-138389117D01*
X140508921Y-138408330D01*
X140521218Y-138428847D01*
X140531446Y-138450471D01*
X140539504Y-138472993D01*
X140545316Y-138496197D01*
X140548826Y-138519858D01*
X140550000Y-138543750D01*
X140550000Y-139456250D01*
X140548826Y-139480142D01*
X140545316Y-139503803D01*
X140539504Y-139527007D01*
X140531446Y-139549529D01*
X140521218Y-139571153D01*
X140508921Y-139591670D01*
X140494671Y-139610883D01*
X140478607Y-139628607D01*
X140460883Y-139644671D01*
X140441670Y-139658921D01*
X140421153Y-139671218D01*
X140399529Y-139681446D01*
X140377007Y-139689504D01*
X140353803Y-139695316D01*
X140330142Y-139698826D01*
X140306250Y-139700000D01*
X139818750Y-139700000D01*
X139794858Y-139698826D01*
X139771197Y-139695316D01*
X139747993Y-139689504D01*
X139725471Y-139681446D01*
X139703847Y-139671218D01*
X139683330Y-139658921D01*
X139664117Y-139644671D01*
X139646393Y-139628607D01*
X139630329Y-139610883D01*
X139616079Y-139591670D01*
X139603782Y-139571153D01*
X139593554Y-139549529D01*
X139585496Y-139527007D01*
X139579684Y-139503803D01*
X139576174Y-139480142D01*
X139575000Y-139456250D01*
X139575000Y-138543750D01*
X139576174Y-138519858D01*
X139579684Y-138496197D01*
X139585496Y-138472993D01*
X139593554Y-138450471D01*
X139603782Y-138428847D01*
X139616079Y-138408330D01*
X139630329Y-138389117D01*
X139646393Y-138371393D01*
X139664117Y-138355329D01*
X139683330Y-138341079D01*
X139703847Y-138328782D01*
X139725471Y-138318554D01*
X139747993Y-138310496D01*
X139771197Y-138304684D01*
X139794858Y-138301174D01*
X139818750Y-138300000D01*
X140306250Y-138300000D01*
X140330142Y-138301174D01*
G37*
G36*
X142205142Y-138301174D02*
G01*
X142228803Y-138304684D01*
X142252007Y-138310496D01*
X142274529Y-138318554D01*
X142296153Y-138328782D01*
X142316670Y-138341079D01*
X142335883Y-138355329D01*
X142353607Y-138371393D01*
X142369671Y-138389117D01*
X142383921Y-138408330D01*
X142396218Y-138428847D01*
X142406446Y-138450471D01*
X142414504Y-138472993D01*
X142420316Y-138496197D01*
X142423826Y-138519858D01*
X142425000Y-138543750D01*
X142425000Y-139456250D01*
X142423826Y-139480142D01*
X142420316Y-139503803D01*
X142414504Y-139527007D01*
X142406446Y-139549529D01*
X142396218Y-139571153D01*
X142383921Y-139591670D01*
X142369671Y-139610883D01*
X142353607Y-139628607D01*
X142335883Y-139644671D01*
X142316670Y-139658921D01*
X142296153Y-139671218D01*
X142274529Y-139681446D01*
X142252007Y-139689504D01*
X142228803Y-139695316D01*
X142205142Y-139698826D01*
X142181250Y-139700000D01*
X141693750Y-139700000D01*
X141669858Y-139698826D01*
X141646197Y-139695316D01*
X141622993Y-139689504D01*
X141600471Y-139681446D01*
X141578847Y-139671218D01*
X141558330Y-139658921D01*
X141539117Y-139644671D01*
X141521393Y-139628607D01*
X141505329Y-139610883D01*
X141491079Y-139591670D01*
X141478782Y-139571153D01*
X141468554Y-139549529D01*
X141460496Y-139527007D01*
X141454684Y-139503803D01*
X141451174Y-139480142D01*
X141450000Y-139456250D01*
X141450000Y-138543750D01*
X141451174Y-138519858D01*
X141454684Y-138496197D01*
X141460496Y-138472993D01*
X141468554Y-138450471D01*
X141478782Y-138428847D01*
X141491079Y-138408330D01*
X141505329Y-138389117D01*
X141521393Y-138371393D01*
X141539117Y-138355329D01*
X141558330Y-138341079D01*
X141578847Y-138328782D01*
X141600471Y-138318554D01*
X141622993Y-138310496D01*
X141646197Y-138304684D01*
X141669858Y-138301174D01*
X141693750Y-138300000D01*
X142181250Y-138300000D01*
X142205142Y-138301174D01*
G37*
G36*
X126184703Y-131825722D02*
G01*
X126199264Y-131827882D01*
X126213543Y-131831459D01*
X126227403Y-131836418D01*
X126240710Y-131842712D01*
X126253336Y-131850280D01*
X126265159Y-131859048D01*
X126276066Y-131868934D01*
X126285952Y-131879841D01*
X126294720Y-131891664D01*
X126302288Y-131904290D01*
X126308582Y-131917597D01*
X126313541Y-131931457D01*
X126317118Y-131945736D01*
X126319278Y-131960297D01*
X126320000Y-131975000D01*
X126320000Y-133625000D01*
X126319278Y-133639703D01*
X126317118Y-133654264D01*
X126313541Y-133668543D01*
X126308582Y-133682403D01*
X126302288Y-133695710D01*
X126294720Y-133708336D01*
X126285952Y-133720159D01*
X126276066Y-133731066D01*
X126265159Y-133740952D01*
X126253336Y-133749720D01*
X126240710Y-133757288D01*
X126227403Y-133763582D01*
X126213543Y-133768541D01*
X126199264Y-133772118D01*
X126184703Y-133774278D01*
X126170000Y-133775000D01*
X125870000Y-133775000D01*
X125855297Y-133774278D01*
X125840736Y-133772118D01*
X125826457Y-133768541D01*
X125812597Y-133763582D01*
X125799290Y-133757288D01*
X125786664Y-133749720D01*
X125774841Y-133740952D01*
X125763934Y-133731066D01*
X125754048Y-133720159D01*
X125745280Y-133708336D01*
X125737712Y-133695710D01*
X125731418Y-133682403D01*
X125726459Y-133668543D01*
X125722882Y-133654264D01*
X125720722Y-133639703D01*
X125720000Y-133625000D01*
X125720000Y-131975000D01*
X125720722Y-131960297D01*
X125722882Y-131945736D01*
X125726459Y-131931457D01*
X125731418Y-131917597D01*
X125737712Y-131904290D01*
X125745280Y-131891664D01*
X125754048Y-131879841D01*
X125763934Y-131868934D01*
X125774841Y-131859048D01*
X125786664Y-131850280D01*
X125799290Y-131842712D01*
X125812597Y-131836418D01*
X125826457Y-131831459D01*
X125840736Y-131827882D01*
X125855297Y-131825722D01*
X125870000Y-131825000D01*
X126170000Y-131825000D01*
X126184703Y-131825722D01*
G37*
G36*
X124914703Y-131825722D02*
G01*
X124929264Y-131827882D01*
X124943543Y-131831459D01*
X124957403Y-131836418D01*
X124970710Y-131842712D01*
X124983336Y-131850280D01*
X124995159Y-131859048D01*
X125006066Y-131868934D01*
X125015952Y-131879841D01*
X125024720Y-131891664D01*
X125032288Y-131904290D01*
X125038582Y-131917597D01*
X125043541Y-131931457D01*
X125047118Y-131945736D01*
X125049278Y-131960297D01*
X125050000Y-131975000D01*
X125050000Y-133625000D01*
X125049278Y-133639703D01*
X125047118Y-133654264D01*
X125043541Y-133668543D01*
X125038582Y-133682403D01*
X125032288Y-133695710D01*
X125024720Y-133708336D01*
X125015952Y-133720159D01*
X125006066Y-133731066D01*
X124995159Y-133740952D01*
X124983336Y-133749720D01*
X124970710Y-133757288D01*
X124957403Y-133763582D01*
X124943543Y-133768541D01*
X124929264Y-133772118D01*
X124914703Y-133774278D01*
X124900000Y-133775000D01*
X124600000Y-133775000D01*
X124585297Y-133774278D01*
X124570736Y-133772118D01*
X124556457Y-133768541D01*
X124542597Y-133763582D01*
X124529290Y-133757288D01*
X124516664Y-133749720D01*
X124504841Y-133740952D01*
X124493934Y-133731066D01*
X124484048Y-133720159D01*
X124475280Y-133708336D01*
X124467712Y-133695710D01*
X124461418Y-133682403D01*
X124456459Y-133668543D01*
X124452882Y-133654264D01*
X124450722Y-133639703D01*
X124450000Y-133625000D01*
X124450000Y-131975000D01*
X124450722Y-131960297D01*
X124452882Y-131945736D01*
X124456459Y-131931457D01*
X124461418Y-131917597D01*
X124467712Y-131904290D01*
X124475280Y-131891664D01*
X124484048Y-131879841D01*
X124493934Y-131868934D01*
X124504841Y-131859048D01*
X124516664Y-131850280D01*
X124529290Y-131842712D01*
X124542597Y-131836418D01*
X124556457Y-131831459D01*
X124570736Y-131827882D01*
X124585297Y-131825722D01*
X124600000Y-131825000D01*
X124900000Y-131825000D01*
X124914703Y-131825722D01*
G37*
G36*
X123644703Y-131825722D02*
G01*
X123659264Y-131827882D01*
X123673543Y-131831459D01*
X123687403Y-131836418D01*
X123700710Y-131842712D01*
X123713336Y-131850280D01*
X123725159Y-131859048D01*
X123736066Y-131868934D01*
X123745952Y-131879841D01*
X123754720Y-131891664D01*
X123762288Y-131904290D01*
X123768582Y-131917597D01*
X123773541Y-131931457D01*
X123777118Y-131945736D01*
X123779278Y-131960297D01*
X123780000Y-131975000D01*
X123780000Y-133625000D01*
X123779278Y-133639703D01*
X123777118Y-133654264D01*
X123773541Y-133668543D01*
X123768582Y-133682403D01*
X123762288Y-133695710D01*
X123754720Y-133708336D01*
X123745952Y-133720159D01*
X123736066Y-133731066D01*
X123725159Y-133740952D01*
X123713336Y-133749720D01*
X123700710Y-133757288D01*
X123687403Y-133763582D01*
X123673543Y-133768541D01*
X123659264Y-133772118D01*
X123644703Y-133774278D01*
X123630000Y-133775000D01*
X123330000Y-133775000D01*
X123315297Y-133774278D01*
X123300736Y-133772118D01*
X123286457Y-133768541D01*
X123272597Y-133763582D01*
X123259290Y-133757288D01*
X123246664Y-133749720D01*
X123234841Y-133740952D01*
X123223934Y-133731066D01*
X123214048Y-133720159D01*
X123205280Y-133708336D01*
X123197712Y-133695710D01*
X123191418Y-133682403D01*
X123186459Y-133668543D01*
X123182882Y-133654264D01*
X123180722Y-133639703D01*
X123180000Y-133625000D01*
X123180000Y-131975000D01*
X123180722Y-131960297D01*
X123182882Y-131945736D01*
X123186459Y-131931457D01*
X123191418Y-131917597D01*
X123197712Y-131904290D01*
X123205280Y-131891664D01*
X123214048Y-131879841D01*
X123223934Y-131868934D01*
X123234841Y-131859048D01*
X123246664Y-131850280D01*
X123259290Y-131842712D01*
X123272597Y-131836418D01*
X123286457Y-131831459D01*
X123300736Y-131827882D01*
X123315297Y-131825722D01*
X123330000Y-131825000D01*
X123630000Y-131825000D01*
X123644703Y-131825722D01*
G37*
G36*
X122374703Y-131825722D02*
G01*
X122389264Y-131827882D01*
X122403543Y-131831459D01*
X122417403Y-131836418D01*
X122430710Y-131842712D01*
X122443336Y-131850280D01*
X122455159Y-131859048D01*
X122466066Y-131868934D01*
X122475952Y-131879841D01*
X122484720Y-131891664D01*
X122492288Y-131904290D01*
X122498582Y-131917597D01*
X122503541Y-131931457D01*
X122507118Y-131945736D01*
X122509278Y-131960297D01*
X122510000Y-131975000D01*
X122510000Y-133625000D01*
X122509278Y-133639703D01*
X122507118Y-133654264D01*
X122503541Y-133668543D01*
X122498582Y-133682403D01*
X122492288Y-133695710D01*
X122484720Y-133708336D01*
X122475952Y-133720159D01*
X122466066Y-133731066D01*
X122455159Y-133740952D01*
X122443336Y-133749720D01*
X122430710Y-133757288D01*
X122417403Y-133763582D01*
X122403543Y-133768541D01*
X122389264Y-133772118D01*
X122374703Y-133774278D01*
X122360000Y-133775000D01*
X122060000Y-133775000D01*
X122045297Y-133774278D01*
X122030736Y-133772118D01*
X122016457Y-133768541D01*
X122002597Y-133763582D01*
X121989290Y-133757288D01*
X121976664Y-133749720D01*
X121964841Y-133740952D01*
X121953934Y-133731066D01*
X121944048Y-133720159D01*
X121935280Y-133708336D01*
X121927712Y-133695710D01*
X121921418Y-133682403D01*
X121916459Y-133668543D01*
X121912882Y-133654264D01*
X121910722Y-133639703D01*
X121910000Y-133625000D01*
X121910000Y-131975000D01*
X121910722Y-131960297D01*
X121912882Y-131945736D01*
X121916459Y-131931457D01*
X121921418Y-131917597D01*
X121927712Y-131904290D01*
X121935280Y-131891664D01*
X121944048Y-131879841D01*
X121953934Y-131868934D01*
X121964841Y-131859048D01*
X121976664Y-131850280D01*
X121989290Y-131842712D01*
X122002597Y-131836418D01*
X122016457Y-131831459D01*
X122030736Y-131827882D01*
X122045297Y-131825722D01*
X122060000Y-131825000D01*
X122360000Y-131825000D01*
X122374703Y-131825722D01*
G37*
G36*
X122374703Y-136775722D02*
G01*
X122389264Y-136777882D01*
X122403543Y-136781459D01*
X122417403Y-136786418D01*
X122430710Y-136792712D01*
X122443336Y-136800280D01*
X122455159Y-136809048D01*
X122466066Y-136818934D01*
X122475952Y-136829841D01*
X122484720Y-136841664D01*
X122492288Y-136854290D01*
X122498582Y-136867597D01*
X122503541Y-136881457D01*
X122507118Y-136895736D01*
X122509278Y-136910297D01*
X122510000Y-136925000D01*
X122510000Y-138575000D01*
X122509278Y-138589703D01*
X122507118Y-138604264D01*
X122503541Y-138618543D01*
X122498582Y-138632403D01*
X122492288Y-138645710D01*
X122484720Y-138658336D01*
X122475952Y-138670159D01*
X122466066Y-138681066D01*
X122455159Y-138690952D01*
X122443336Y-138699720D01*
X122430710Y-138707288D01*
X122417403Y-138713582D01*
X122403543Y-138718541D01*
X122389264Y-138722118D01*
X122374703Y-138724278D01*
X122360000Y-138725000D01*
X122060000Y-138725000D01*
X122045297Y-138724278D01*
X122030736Y-138722118D01*
X122016457Y-138718541D01*
X122002597Y-138713582D01*
X121989290Y-138707288D01*
X121976664Y-138699720D01*
X121964841Y-138690952D01*
X121953934Y-138681066D01*
X121944048Y-138670159D01*
X121935280Y-138658336D01*
X121927712Y-138645710D01*
X121921418Y-138632403D01*
X121916459Y-138618543D01*
X121912882Y-138604264D01*
X121910722Y-138589703D01*
X121910000Y-138575000D01*
X121910000Y-136925000D01*
X121910722Y-136910297D01*
X121912882Y-136895736D01*
X121916459Y-136881457D01*
X121921418Y-136867597D01*
X121927712Y-136854290D01*
X121935280Y-136841664D01*
X121944048Y-136829841D01*
X121953934Y-136818934D01*
X121964841Y-136809048D01*
X121976664Y-136800280D01*
X121989290Y-136792712D01*
X122002597Y-136786418D01*
X122016457Y-136781459D01*
X122030736Y-136777882D01*
X122045297Y-136775722D01*
X122060000Y-136775000D01*
X122360000Y-136775000D01*
X122374703Y-136775722D01*
G37*
G36*
X123644703Y-136775722D02*
G01*
X123659264Y-136777882D01*
X123673543Y-136781459D01*
X123687403Y-136786418D01*
X123700710Y-136792712D01*
X123713336Y-136800280D01*
X123725159Y-136809048D01*
X123736066Y-136818934D01*
X123745952Y-136829841D01*
X123754720Y-136841664D01*
X123762288Y-136854290D01*
X123768582Y-136867597D01*
X123773541Y-136881457D01*
X123777118Y-136895736D01*
X123779278Y-136910297D01*
X123780000Y-136925000D01*
X123780000Y-138575000D01*
X123779278Y-138589703D01*
X123777118Y-138604264D01*
X123773541Y-138618543D01*
X123768582Y-138632403D01*
X123762288Y-138645710D01*
X123754720Y-138658336D01*
X123745952Y-138670159D01*
X123736066Y-138681066D01*
X123725159Y-138690952D01*
X123713336Y-138699720D01*
X123700710Y-138707288D01*
X123687403Y-138713582D01*
X123673543Y-138718541D01*
X123659264Y-138722118D01*
X123644703Y-138724278D01*
X123630000Y-138725000D01*
X123330000Y-138725000D01*
X123315297Y-138724278D01*
X123300736Y-138722118D01*
X123286457Y-138718541D01*
X123272597Y-138713582D01*
X123259290Y-138707288D01*
X123246664Y-138699720D01*
X123234841Y-138690952D01*
X123223934Y-138681066D01*
X123214048Y-138670159D01*
X123205280Y-138658336D01*
X123197712Y-138645710D01*
X123191418Y-138632403D01*
X123186459Y-138618543D01*
X123182882Y-138604264D01*
X123180722Y-138589703D01*
X123180000Y-138575000D01*
X123180000Y-136925000D01*
X123180722Y-136910297D01*
X123182882Y-136895736D01*
X123186459Y-136881457D01*
X123191418Y-136867597D01*
X123197712Y-136854290D01*
X123205280Y-136841664D01*
X123214048Y-136829841D01*
X123223934Y-136818934D01*
X123234841Y-136809048D01*
X123246664Y-136800280D01*
X123259290Y-136792712D01*
X123272597Y-136786418D01*
X123286457Y-136781459D01*
X123300736Y-136777882D01*
X123315297Y-136775722D01*
X123330000Y-136775000D01*
X123630000Y-136775000D01*
X123644703Y-136775722D01*
G37*
G36*
X124914703Y-136775722D02*
G01*
X124929264Y-136777882D01*
X124943543Y-136781459D01*
X124957403Y-136786418D01*
X124970710Y-136792712D01*
X124983336Y-136800280D01*
X124995159Y-136809048D01*
X125006066Y-136818934D01*
X125015952Y-136829841D01*
X125024720Y-136841664D01*
X125032288Y-136854290D01*
X125038582Y-136867597D01*
X125043541Y-136881457D01*
X125047118Y-136895736D01*
X125049278Y-136910297D01*
X125050000Y-136925000D01*
X125050000Y-138575000D01*
X125049278Y-138589703D01*
X125047118Y-138604264D01*
X125043541Y-138618543D01*
X125038582Y-138632403D01*
X125032288Y-138645710D01*
X125024720Y-138658336D01*
X125015952Y-138670159D01*
X125006066Y-138681066D01*
X124995159Y-138690952D01*
X124983336Y-138699720D01*
X124970710Y-138707288D01*
X124957403Y-138713582D01*
X124943543Y-138718541D01*
X124929264Y-138722118D01*
X124914703Y-138724278D01*
X124900000Y-138725000D01*
X124600000Y-138725000D01*
X124585297Y-138724278D01*
X124570736Y-138722118D01*
X124556457Y-138718541D01*
X124542597Y-138713582D01*
X124529290Y-138707288D01*
X124516664Y-138699720D01*
X124504841Y-138690952D01*
X124493934Y-138681066D01*
X124484048Y-138670159D01*
X124475280Y-138658336D01*
X124467712Y-138645710D01*
X124461418Y-138632403D01*
X124456459Y-138618543D01*
X124452882Y-138604264D01*
X124450722Y-138589703D01*
X124450000Y-138575000D01*
X124450000Y-136925000D01*
X124450722Y-136910297D01*
X124452882Y-136895736D01*
X124456459Y-136881457D01*
X124461418Y-136867597D01*
X124467712Y-136854290D01*
X124475280Y-136841664D01*
X124484048Y-136829841D01*
X124493934Y-136818934D01*
X124504841Y-136809048D01*
X124516664Y-136800280D01*
X124529290Y-136792712D01*
X124542597Y-136786418D01*
X124556457Y-136781459D01*
X124570736Y-136777882D01*
X124585297Y-136775722D01*
X124600000Y-136775000D01*
X124900000Y-136775000D01*
X124914703Y-136775722D01*
G37*
G36*
X126184703Y-136775722D02*
G01*
X126199264Y-136777882D01*
X126213543Y-136781459D01*
X126227403Y-136786418D01*
X126240710Y-136792712D01*
X126253336Y-136800280D01*
X126265159Y-136809048D01*
X126276066Y-136818934D01*
X126285952Y-136829841D01*
X126294720Y-136841664D01*
X126302288Y-136854290D01*
X126308582Y-136867597D01*
X126313541Y-136881457D01*
X126317118Y-136895736D01*
X126319278Y-136910297D01*
X126320000Y-136925000D01*
X126320000Y-138575000D01*
X126319278Y-138589703D01*
X126317118Y-138604264D01*
X126313541Y-138618543D01*
X126308582Y-138632403D01*
X126302288Y-138645710D01*
X126294720Y-138658336D01*
X126285952Y-138670159D01*
X126276066Y-138681066D01*
X126265159Y-138690952D01*
X126253336Y-138699720D01*
X126240710Y-138707288D01*
X126227403Y-138713582D01*
X126213543Y-138718541D01*
X126199264Y-138722118D01*
X126184703Y-138724278D01*
X126170000Y-138725000D01*
X125870000Y-138725000D01*
X125855297Y-138724278D01*
X125840736Y-138722118D01*
X125826457Y-138718541D01*
X125812597Y-138713582D01*
X125799290Y-138707288D01*
X125786664Y-138699720D01*
X125774841Y-138690952D01*
X125763934Y-138681066D01*
X125754048Y-138670159D01*
X125745280Y-138658336D01*
X125737712Y-138645710D01*
X125731418Y-138632403D01*
X125726459Y-138618543D01*
X125722882Y-138604264D01*
X125720722Y-138589703D01*
X125720000Y-138575000D01*
X125720000Y-136925000D01*
X125720722Y-136910297D01*
X125722882Y-136895736D01*
X125726459Y-136881457D01*
X125731418Y-136867597D01*
X125737712Y-136854290D01*
X125745280Y-136841664D01*
X125754048Y-136829841D01*
X125763934Y-136818934D01*
X125774841Y-136809048D01*
X125786664Y-136800280D01*
X125799290Y-136792712D01*
X125812597Y-136786418D01*
X125826457Y-136781459D01*
X125840736Y-136777882D01*
X125855297Y-136775722D01*
X125870000Y-136775000D01*
X126170000Y-136775000D01*
X126184703Y-136775722D01*
G37*
G36*
X140564703Y-132950722D02*
G01*
X140579264Y-132952882D01*
X140593543Y-132956459D01*
X140607403Y-132961418D01*
X140620710Y-132967712D01*
X140633336Y-132975280D01*
X140645159Y-132984048D01*
X140656066Y-132993934D01*
X140665952Y-133004841D01*
X140674720Y-133016664D01*
X140682288Y-133029290D01*
X140688582Y-133042597D01*
X140693541Y-133056457D01*
X140697118Y-133070736D01*
X140699278Y-133085297D01*
X140700000Y-133100000D01*
X140700000Y-133400000D01*
X140699278Y-133414703D01*
X140697118Y-133429264D01*
X140693541Y-133443543D01*
X140688582Y-133457403D01*
X140682288Y-133470710D01*
X140674720Y-133483336D01*
X140665952Y-133495159D01*
X140656066Y-133506066D01*
X140645159Y-133515952D01*
X140633336Y-133524720D01*
X140620710Y-133532288D01*
X140607403Y-133538582D01*
X140593543Y-133543541D01*
X140579264Y-133547118D01*
X140564703Y-133549278D01*
X140550000Y-133550000D01*
X138900000Y-133550000D01*
X138885297Y-133549278D01*
X138870736Y-133547118D01*
X138856457Y-133543541D01*
X138842597Y-133538582D01*
X138829290Y-133532288D01*
X138816664Y-133524720D01*
X138804841Y-133515952D01*
X138793934Y-133506066D01*
X138784048Y-133495159D01*
X138775280Y-133483336D01*
X138767712Y-133470710D01*
X138761418Y-133457403D01*
X138756459Y-133443543D01*
X138752882Y-133429264D01*
X138750722Y-133414703D01*
X138750000Y-133400000D01*
X138750000Y-133100000D01*
X138750722Y-133085297D01*
X138752882Y-133070736D01*
X138756459Y-133056457D01*
X138761418Y-133042597D01*
X138767712Y-133029290D01*
X138775280Y-133016664D01*
X138784048Y-133004841D01*
X138793934Y-132993934D01*
X138804841Y-132984048D01*
X138816664Y-132975280D01*
X138829290Y-132967712D01*
X138842597Y-132961418D01*
X138856457Y-132956459D01*
X138870736Y-132952882D01*
X138885297Y-132950722D01*
X138900000Y-132950000D01*
X140550000Y-132950000D01*
X140564703Y-132950722D01*
G37*
G36*
X140564703Y-134220722D02*
G01*
X140579264Y-134222882D01*
X140593543Y-134226459D01*
X140607403Y-134231418D01*
X140620710Y-134237712D01*
X140633336Y-134245280D01*
X140645159Y-134254048D01*
X140656066Y-134263934D01*
X140665952Y-134274841D01*
X140674720Y-134286664D01*
X140682288Y-134299290D01*
X140688582Y-134312597D01*
X140693541Y-134326457D01*
X140697118Y-134340736D01*
X140699278Y-134355297D01*
X140700000Y-134370000D01*
X140700000Y-134670000D01*
X140699278Y-134684703D01*
X140697118Y-134699264D01*
X140693541Y-134713543D01*
X140688582Y-134727403D01*
X140682288Y-134740710D01*
X140674720Y-134753336D01*
X140665952Y-134765159D01*
X140656066Y-134776066D01*
X140645159Y-134785952D01*
X140633336Y-134794720D01*
X140620710Y-134802288D01*
X140607403Y-134808582D01*
X140593543Y-134813541D01*
X140579264Y-134817118D01*
X140564703Y-134819278D01*
X140550000Y-134820000D01*
X138900000Y-134820000D01*
X138885297Y-134819278D01*
X138870736Y-134817118D01*
X138856457Y-134813541D01*
X138842597Y-134808582D01*
X138829290Y-134802288D01*
X138816664Y-134794720D01*
X138804841Y-134785952D01*
X138793934Y-134776066D01*
X138784048Y-134765159D01*
X138775280Y-134753336D01*
X138767712Y-134740710D01*
X138761418Y-134727403D01*
X138756459Y-134713543D01*
X138752882Y-134699264D01*
X138750722Y-134684703D01*
X138750000Y-134670000D01*
X138750000Y-134370000D01*
X138750722Y-134355297D01*
X138752882Y-134340736D01*
X138756459Y-134326457D01*
X138761418Y-134312597D01*
X138767712Y-134299290D01*
X138775280Y-134286664D01*
X138784048Y-134274841D01*
X138793934Y-134263934D01*
X138804841Y-134254048D01*
X138816664Y-134245280D01*
X138829290Y-134237712D01*
X138842597Y-134231418D01*
X138856457Y-134226459D01*
X138870736Y-134222882D01*
X138885297Y-134220722D01*
X138900000Y-134220000D01*
X140550000Y-134220000D01*
X140564703Y-134220722D01*
G37*
G36*
X140564703Y-135490722D02*
G01*
X140579264Y-135492882D01*
X140593543Y-135496459D01*
X140607403Y-135501418D01*
X140620710Y-135507712D01*
X140633336Y-135515280D01*
X140645159Y-135524048D01*
X140656066Y-135533934D01*
X140665952Y-135544841D01*
X140674720Y-135556664D01*
X140682288Y-135569290D01*
X140688582Y-135582597D01*
X140693541Y-135596457D01*
X140697118Y-135610736D01*
X140699278Y-135625297D01*
X140700000Y-135640000D01*
X140700000Y-135940000D01*
X140699278Y-135954703D01*
X140697118Y-135969264D01*
X140693541Y-135983543D01*
X140688582Y-135997403D01*
X140682288Y-136010710D01*
X140674720Y-136023336D01*
X140665952Y-136035159D01*
X140656066Y-136046066D01*
X140645159Y-136055952D01*
X140633336Y-136064720D01*
X140620710Y-136072288D01*
X140607403Y-136078582D01*
X140593543Y-136083541D01*
X140579264Y-136087118D01*
X140564703Y-136089278D01*
X140550000Y-136090000D01*
X138900000Y-136090000D01*
X138885297Y-136089278D01*
X138870736Y-136087118D01*
X138856457Y-136083541D01*
X138842597Y-136078582D01*
X138829290Y-136072288D01*
X138816664Y-136064720D01*
X138804841Y-136055952D01*
X138793934Y-136046066D01*
X138784048Y-136035159D01*
X138775280Y-136023336D01*
X138767712Y-136010710D01*
X138761418Y-135997403D01*
X138756459Y-135983543D01*
X138752882Y-135969264D01*
X138750722Y-135954703D01*
X138750000Y-135940000D01*
X138750000Y-135640000D01*
X138750722Y-135625297D01*
X138752882Y-135610736D01*
X138756459Y-135596457D01*
X138761418Y-135582597D01*
X138767712Y-135569290D01*
X138775280Y-135556664D01*
X138784048Y-135544841D01*
X138793934Y-135533934D01*
X138804841Y-135524048D01*
X138816664Y-135515280D01*
X138829290Y-135507712D01*
X138842597Y-135501418D01*
X138856457Y-135496459D01*
X138870736Y-135492882D01*
X138885297Y-135490722D01*
X138900000Y-135490000D01*
X140550000Y-135490000D01*
X140564703Y-135490722D01*
G37*
G36*
X140564703Y-136760722D02*
G01*
X140579264Y-136762882D01*
X140593543Y-136766459D01*
X140607403Y-136771418D01*
X140620710Y-136777712D01*
X140633336Y-136785280D01*
X140645159Y-136794048D01*
X140656066Y-136803934D01*
X140665952Y-136814841D01*
X140674720Y-136826664D01*
X140682288Y-136839290D01*
X140688582Y-136852597D01*
X140693541Y-136866457D01*
X140697118Y-136880736D01*
X140699278Y-136895297D01*
X140700000Y-136910000D01*
X140700000Y-137210000D01*
X140699278Y-137224703D01*
X140697118Y-137239264D01*
X140693541Y-137253543D01*
X140688582Y-137267403D01*
X140682288Y-137280710D01*
X140674720Y-137293336D01*
X140665952Y-137305159D01*
X140656066Y-137316066D01*
X140645159Y-137325952D01*
X140633336Y-137334720D01*
X140620710Y-137342288D01*
X140607403Y-137348582D01*
X140593543Y-137353541D01*
X140579264Y-137357118D01*
X140564703Y-137359278D01*
X140550000Y-137360000D01*
X138900000Y-137360000D01*
X138885297Y-137359278D01*
X138870736Y-137357118D01*
X138856457Y-137353541D01*
X138842597Y-137348582D01*
X138829290Y-137342288D01*
X138816664Y-137334720D01*
X138804841Y-137325952D01*
X138793934Y-137316066D01*
X138784048Y-137305159D01*
X138775280Y-137293336D01*
X138767712Y-137280710D01*
X138761418Y-137267403D01*
X138756459Y-137253543D01*
X138752882Y-137239264D01*
X138750722Y-137224703D01*
X138750000Y-137210000D01*
X138750000Y-136910000D01*
X138750722Y-136895297D01*
X138752882Y-136880736D01*
X138756459Y-136866457D01*
X138761418Y-136852597D01*
X138767712Y-136839290D01*
X138775280Y-136826664D01*
X138784048Y-136814841D01*
X138793934Y-136803934D01*
X138804841Y-136794048D01*
X138816664Y-136785280D01*
X138829290Y-136777712D01*
X138842597Y-136771418D01*
X138856457Y-136766459D01*
X138870736Y-136762882D01*
X138885297Y-136760722D01*
X138900000Y-136760000D01*
X140550000Y-136760000D01*
X140564703Y-136760722D01*
G37*
G36*
X135614703Y-136760722D02*
G01*
X135629264Y-136762882D01*
X135643543Y-136766459D01*
X135657403Y-136771418D01*
X135670710Y-136777712D01*
X135683336Y-136785280D01*
X135695159Y-136794048D01*
X135706066Y-136803934D01*
X135715952Y-136814841D01*
X135724720Y-136826664D01*
X135732288Y-136839290D01*
X135738582Y-136852597D01*
X135743541Y-136866457D01*
X135747118Y-136880736D01*
X135749278Y-136895297D01*
X135750000Y-136910000D01*
X135750000Y-137210000D01*
X135749278Y-137224703D01*
X135747118Y-137239264D01*
X135743541Y-137253543D01*
X135738582Y-137267403D01*
X135732288Y-137280710D01*
X135724720Y-137293336D01*
X135715952Y-137305159D01*
X135706066Y-137316066D01*
X135695159Y-137325952D01*
X135683336Y-137334720D01*
X135670710Y-137342288D01*
X135657403Y-137348582D01*
X135643543Y-137353541D01*
X135629264Y-137357118D01*
X135614703Y-137359278D01*
X135600000Y-137360000D01*
X133950000Y-137360000D01*
X133935297Y-137359278D01*
X133920736Y-137357118D01*
X133906457Y-137353541D01*
X133892597Y-137348582D01*
X133879290Y-137342288D01*
X133866664Y-137334720D01*
X133854841Y-137325952D01*
X133843934Y-137316066D01*
X133834048Y-137305159D01*
X133825280Y-137293336D01*
X133817712Y-137280710D01*
X133811418Y-137267403D01*
X133806459Y-137253543D01*
X133802882Y-137239264D01*
X133800722Y-137224703D01*
X133800000Y-137210000D01*
X133800000Y-136910000D01*
X133800722Y-136895297D01*
X133802882Y-136880736D01*
X133806459Y-136866457D01*
X133811418Y-136852597D01*
X133817712Y-136839290D01*
X133825280Y-136826664D01*
X133834048Y-136814841D01*
X133843934Y-136803934D01*
X133854841Y-136794048D01*
X133866664Y-136785280D01*
X133879290Y-136777712D01*
X133892597Y-136771418D01*
X133906457Y-136766459D01*
X133920736Y-136762882D01*
X133935297Y-136760722D01*
X133950000Y-136760000D01*
X135600000Y-136760000D01*
X135614703Y-136760722D01*
G37*
G36*
X135614703Y-135490722D02*
G01*
X135629264Y-135492882D01*
X135643543Y-135496459D01*
X135657403Y-135501418D01*
X135670710Y-135507712D01*
X135683336Y-135515280D01*
X135695159Y-135524048D01*
X135706066Y-135533934D01*
X135715952Y-135544841D01*
X135724720Y-135556664D01*
X135732288Y-135569290D01*
X135738582Y-135582597D01*
X135743541Y-135596457D01*
X135747118Y-135610736D01*
X135749278Y-135625297D01*
X135750000Y-135640000D01*
X135750000Y-135940000D01*
X135749278Y-135954703D01*
X135747118Y-135969264D01*
X135743541Y-135983543D01*
X135738582Y-135997403D01*
X135732288Y-136010710D01*
X135724720Y-136023336D01*
X135715952Y-136035159D01*
X135706066Y-136046066D01*
X135695159Y-136055952D01*
X135683336Y-136064720D01*
X135670710Y-136072288D01*
X135657403Y-136078582D01*
X135643543Y-136083541D01*
X135629264Y-136087118D01*
X135614703Y-136089278D01*
X135600000Y-136090000D01*
X133950000Y-136090000D01*
X133935297Y-136089278D01*
X133920736Y-136087118D01*
X133906457Y-136083541D01*
X133892597Y-136078582D01*
X133879290Y-136072288D01*
X133866664Y-136064720D01*
X133854841Y-136055952D01*
X133843934Y-136046066D01*
X133834048Y-136035159D01*
X133825280Y-136023336D01*
X133817712Y-136010710D01*
X133811418Y-135997403D01*
X133806459Y-135983543D01*
X133802882Y-135969264D01*
X133800722Y-135954703D01*
X133800000Y-135940000D01*
X133800000Y-135640000D01*
X133800722Y-135625297D01*
X133802882Y-135610736D01*
X133806459Y-135596457D01*
X133811418Y-135582597D01*
X133817712Y-135569290D01*
X133825280Y-135556664D01*
X133834048Y-135544841D01*
X133843934Y-135533934D01*
X133854841Y-135524048D01*
X133866664Y-135515280D01*
X133879290Y-135507712D01*
X133892597Y-135501418D01*
X133906457Y-135496459D01*
X133920736Y-135492882D01*
X133935297Y-135490722D01*
X133950000Y-135490000D01*
X135600000Y-135490000D01*
X135614703Y-135490722D01*
G37*
G36*
X135614703Y-134220722D02*
G01*
X135629264Y-134222882D01*
X135643543Y-134226459D01*
X135657403Y-134231418D01*
X135670710Y-134237712D01*
X135683336Y-134245280D01*
X135695159Y-134254048D01*
X135706066Y-134263934D01*
X135715952Y-134274841D01*
X135724720Y-134286664D01*
X135732288Y-134299290D01*
X135738582Y-134312597D01*
X135743541Y-134326457D01*
X135747118Y-134340736D01*
X135749278Y-134355297D01*
X135750000Y-134370000D01*
X135750000Y-134670000D01*
X135749278Y-134684703D01*
X135747118Y-134699264D01*
X135743541Y-134713543D01*
X135738582Y-134727403D01*
X135732288Y-134740710D01*
X135724720Y-134753336D01*
X135715952Y-134765159D01*
X135706066Y-134776066D01*
X135695159Y-134785952D01*
X135683336Y-134794720D01*
X135670710Y-134802288D01*
X135657403Y-134808582D01*
X135643543Y-134813541D01*
X135629264Y-134817118D01*
X135614703Y-134819278D01*
X135600000Y-134820000D01*
X133950000Y-134820000D01*
X133935297Y-134819278D01*
X133920736Y-134817118D01*
X133906457Y-134813541D01*
X133892597Y-134808582D01*
X133879290Y-134802288D01*
X133866664Y-134794720D01*
X133854841Y-134785952D01*
X133843934Y-134776066D01*
X133834048Y-134765159D01*
X133825280Y-134753336D01*
X133817712Y-134740710D01*
X133811418Y-134727403D01*
X133806459Y-134713543D01*
X133802882Y-134699264D01*
X133800722Y-134684703D01*
X133800000Y-134670000D01*
X133800000Y-134370000D01*
X133800722Y-134355297D01*
X133802882Y-134340736D01*
X133806459Y-134326457D01*
X133811418Y-134312597D01*
X133817712Y-134299290D01*
X133825280Y-134286664D01*
X133834048Y-134274841D01*
X133843934Y-134263934D01*
X133854841Y-134254048D01*
X133866664Y-134245280D01*
X133879290Y-134237712D01*
X133892597Y-134231418D01*
X133906457Y-134226459D01*
X133920736Y-134222882D01*
X133935297Y-134220722D01*
X133950000Y-134220000D01*
X135600000Y-134220000D01*
X135614703Y-134220722D01*
G37*
G36*
X135614703Y-132950722D02*
G01*
X135629264Y-132952882D01*
X135643543Y-132956459D01*
X135657403Y-132961418D01*
X135670710Y-132967712D01*
X135683336Y-132975280D01*
X135695159Y-132984048D01*
X135706066Y-132993934D01*
X135715952Y-133004841D01*
X135724720Y-133016664D01*
X135732288Y-133029290D01*
X135738582Y-133042597D01*
X135743541Y-133056457D01*
X135747118Y-133070736D01*
X135749278Y-133085297D01*
X135750000Y-133100000D01*
X135750000Y-133400000D01*
X135749278Y-133414703D01*
X135747118Y-133429264D01*
X135743541Y-133443543D01*
X135738582Y-133457403D01*
X135732288Y-133470710D01*
X135724720Y-133483336D01*
X135715952Y-133495159D01*
X135706066Y-133506066D01*
X135695159Y-133515952D01*
X135683336Y-133524720D01*
X135670710Y-133532288D01*
X135657403Y-133538582D01*
X135643543Y-133543541D01*
X135629264Y-133547118D01*
X135614703Y-133549278D01*
X135600000Y-133550000D01*
X133950000Y-133550000D01*
X133935297Y-133549278D01*
X133920736Y-133547118D01*
X133906457Y-133543541D01*
X133892597Y-133538582D01*
X133879290Y-133532288D01*
X133866664Y-133524720D01*
X133854841Y-133515952D01*
X133843934Y-133506066D01*
X133834048Y-133495159D01*
X133825280Y-133483336D01*
X133817712Y-133470710D01*
X133811418Y-133457403D01*
X133806459Y-133443543D01*
X133802882Y-133429264D01*
X133800722Y-133414703D01*
X133800000Y-133400000D01*
X133800000Y-133100000D01*
X133800722Y-133085297D01*
X133802882Y-133070736D01*
X133806459Y-133056457D01*
X133811418Y-133042597D01*
X133817712Y-133029290D01*
X133825280Y-133016664D01*
X133834048Y-133004841D01*
X133843934Y-132993934D01*
X133854841Y-132984048D01*
X133866664Y-132975280D01*
X133879290Y-132967712D01*
X133892597Y-132961418D01*
X133906457Y-132956459D01*
X133920736Y-132952882D01*
X133935297Y-132950722D01*
X133950000Y-132950000D01*
X135600000Y-132950000D01*
X135614703Y-132950722D01*
G37*
M02*
