G04 #@! TF.GenerationSoftware,KiCad,Pcbnew,5.1.5*
G04 #@! TF.CreationDate,2020-07-14T01:00:17+09:00*
G04 #@! TF.ProjectId,teabiscuits_compute,74656162-6973-4637-9569-74735f636f6d,rev?*
G04 #@! TF.SameCoordinates,Original*
G04 #@! TF.FileFunction,Soldermask,Bot*
G04 #@! TF.FilePolarity,Negative*
%FSLAX46Y46*%
G04 Gerber Fmt 4.6, Leading zero omitted, Abs format (unit mm)*
G04 Created by KiCad (PCBNEW 5.1.5) date 2020-07-14 01:00:17*
%MOMM*%
%LPD*%
G04 APERTURE LIST*
%ADD10C,0.100000*%
G04 APERTURE END LIST*
D10*
G36*
X190597142Y-126088242D02*
G01*
X190745101Y-126149529D01*
X190878255Y-126238499D01*
X190991501Y-126351745D01*
X191080471Y-126484899D01*
X191141758Y-126632858D01*
X191173000Y-126789925D01*
X191173000Y-126950075D01*
X191141758Y-127107142D01*
X191080471Y-127255101D01*
X190991501Y-127388255D01*
X190878255Y-127501501D01*
X190745101Y-127590471D01*
X190597142Y-127651758D01*
X190440075Y-127683000D01*
X190279925Y-127683000D01*
X190122858Y-127651758D01*
X189974899Y-127590471D01*
X189841745Y-127501501D01*
X189728499Y-127388255D01*
X189639529Y-127255101D01*
X189578242Y-127107142D01*
X189547000Y-126950075D01*
X189547000Y-126789925D01*
X189578242Y-126632858D01*
X189639529Y-126484899D01*
X189728499Y-126351745D01*
X189841745Y-126238499D01*
X189974899Y-126149529D01*
X190122858Y-126088242D01*
X190279925Y-126057000D01*
X190440075Y-126057000D01*
X190597142Y-126088242D01*
G37*
G36*
X144877142Y-126088242D02*
G01*
X145025101Y-126149529D01*
X145158255Y-126238499D01*
X145271501Y-126351745D01*
X145360471Y-126484899D01*
X145421758Y-126632858D01*
X145453000Y-126789925D01*
X145453000Y-126950075D01*
X145421758Y-127107142D01*
X145360471Y-127255101D01*
X145271501Y-127388255D01*
X145158255Y-127501501D01*
X145025101Y-127590471D01*
X144877142Y-127651758D01*
X144720075Y-127683000D01*
X144559925Y-127683000D01*
X144402858Y-127651758D01*
X144254899Y-127590471D01*
X144121745Y-127501501D01*
X144008499Y-127388255D01*
X143919529Y-127255101D01*
X143858242Y-127107142D01*
X143827000Y-126950075D01*
X143827000Y-126789925D01*
X143858242Y-126632858D01*
X143919529Y-126484899D01*
X144008499Y-126351745D01*
X144121745Y-126238499D01*
X144254899Y-126149529D01*
X144402858Y-126088242D01*
X144559925Y-126057000D01*
X144720075Y-126057000D01*
X144877142Y-126088242D01*
G37*
G36*
X188057142Y-126088242D02*
G01*
X188205101Y-126149529D01*
X188338255Y-126238499D01*
X188451501Y-126351745D01*
X188540471Y-126484899D01*
X188601758Y-126632858D01*
X188633000Y-126789925D01*
X188633000Y-126950075D01*
X188601758Y-127107142D01*
X188540471Y-127255101D01*
X188451501Y-127388255D01*
X188338255Y-127501501D01*
X188205101Y-127590471D01*
X188057142Y-127651758D01*
X187900075Y-127683000D01*
X187739925Y-127683000D01*
X187582858Y-127651758D01*
X187434899Y-127590471D01*
X187301745Y-127501501D01*
X187188499Y-127388255D01*
X187099529Y-127255101D01*
X187038242Y-127107142D01*
X187007000Y-126950075D01*
X187007000Y-126789925D01*
X187038242Y-126632858D01*
X187099529Y-126484899D01*
X187188499Y-126351745D01*
X187301745Y-126238499D01*
X187434899Y-126149529D01*
X187582858Y-126088242D01*
X187739925Y-126057000D01*
X187900075Y-126057000D01*
X188057142Y-126088242D01*
G37*
G36*
X139797142Y-126088242D02*
G01*
X139945101Y-126149529D01*
X140078255Y-126238499D01*
X140191501Y-126351745D01*
X140280471Y-126484899D01*
X140341758Y-126632858D01*
X140373000Y-126789925D01*
X140373000Y-126950075D01*
X140341758Y-127107142D01*
X140280471Y-127255101D01*
X140191501Y-127388255D01*
X140078255Y-127501501D01*
X139945101Y-127590471D01*
X139797142Y-127651758D01*
X139640075Y-127683000D01*
X139479925Y-127683000D01*
X139322858Y-127651758D01*
X139174899Y-127590471D01*
X139041745Y-127501501D01*
X138928499Y-127388255D01*
X138839529Y-127255101D01*
X138778242Y-127107142D01*
X138747000Y-126950075D01*
X138747000Y-126789925D01*
X138778242Y-126632858D01*
X138839529Y-126484899D01*
X138928499Y-126351745D01*
X139041745Y-126238499D01*
X139174899Y-126149529D01*
X139322858Y-126088242D01*
X139479925Y-126057000D01*
X139640075Y-126057000D01*
X139797142Y-126088242D01*
G37*
G36*
X157577142Y-126088242D02*
G01*
X157725101Y-126149529D01*
X157858255Y-126238499D01*
X157971501Y-126351745D01*
X158060471Y-126484899D01*
X158121758Y-126632858D01*
X158153000Y-126789925D01*
X158153000Y-126950075D01*
X158121758Y-127107142D01*
X158060471Y-127255101D01*
X157971501Y-127388255D01*
X157858255Y-127501501D01*
X157725101Y-127590471D01*
X157577142Y-127651758D01*
X157420075Y-127683000D01*
X157259925Y-127683000D01*
X157102858Y-127651758D01*
X156954899Y-127590471D01*
X156821745Y-127501501D01*
X156708499Y-127388255D01*
X156619529Y-127255101D01*
X156558242Y-127107142D01*
X156527000Y-126950075D01*
X156527000Y-126789925D01*
X156558242Y-126632858D01*
X156619529Y-126484899D01*
X156708499Y-126351745D01*
X156821745Y-126238499D01*
X156954899Y-126149529D01*
X157102858Y-126088242D01*
X157259925Y-126057000D01*
X157420075Y-126057000D01*
X157577142Y-126088242D01*
G37*
G36*
X162657142Y-126088242D02*
G01*
X162805101Y-126149529D01*
X162938255Y-126238499D01*
X163051501Y-126351745D01*
X163140471Y-126484899D01*
X163201758Y-126632858D01*
X163233000Y-126789925D01*
X163233000Y-126950075D01*
X163201758Y-127107142D01*
X163140471Y-127255101D01*
X163051501Y-127388255D01*
X162938255Y-127501501D01*
X162805101Y-127590471D01*
X162657142Y-127651758D01*
X162500075Y-127683000D01*
X162339925Y-127683000D01*
X162182858Y-127651758D01*
X162034899Y-127590471D01*
X161901745Y-127501501D01*
X161788499Y-127388255D01*
X161699529Y-127255101D01*
X161638242Y-127107142D01*
X161607000Y-126950075D01*
X161607000Y-126789925D01*
X161638242Y-126632858D01*
X161699529Y-126484899D01*
X161788499Y-126351745D01*
X161901745Y-126238499D01*
X162034899Y-126149529D01*
X162182858Y-126088242D01*
X162339925Y-126057000D01*
X162500075Y-126057000D01*
X162657142Y-126088242D01*
G37*
G36*
X149957142Y-126088242D02*
G01*
X150105101Y-126149529D01*
X150238255Y-126238499D01*
X150351501Y-126351745D01*
X150440471Y-126484899D01*
X150501758Y-126632858D01*
X150533000Y-126789925D01*
X150533000Y-126950075D01*
X150501758Y-127107142D01*
X150440471Y-127255101D01*
X150351501Y-127388255D01*
X150238255Y-127501501D01*
X150105101Y-127590471D01*
X149957142Y-127651758D01*
X149800075Y-127683000D01*
X149639925Y-127683000D01*
X149482858Y-127651758D01*
X149334899Y-127590471D01*
X149201745Y-127501501D01*
X149088499Y-127388255D01*
X148999529Y-127255101D01*
X148938242Y-127107142D01*
X148907000Y-126950075D01*
X148907000Y-126789925D01*
X148938242Y-126632858D01*
X148999529Y-126484899D01*
X149088499Y-126351745D01*
X149201745Y-126238499D01*
X149334899Y-126149529D01*
X149482858Y-126088242D01*
X149639925Y-126057000D01*
X149800075Y-126057000D01*
X149957142Y-126088242D01*
G37*
G36*
X165197142Y-126088242D02*
G01*
X165345101Y-126149529D01*
X165478255Y-126238499D01*
X165591501Y-126351745D01*
X165680471Y-126484899D01*
X165741758Y-126632858D01*
X165773000Y-126789925D01*
X165773000Y-126950075D01*
X165741758Y-127107142D01*
X165680471Y-127255101D01*
X165591501Y-127388255D01*
X165478255Y-127501501D01*
X165345101Y-127590471D01*
X165197142Y-127651758D01*
X165040075Y-127683000D01*
X164879925Y-127683000D01*
X164722858Y-127651758D01*
X164574899Y-127590471D01*
X164441745Y-127501501D01*
X164328499Y-127388255D01*
X164239529Y-127255101D01*
X164178242Y-127107142D01*
X164147000Y-126950075D01*
X164147000Y-126789925D01*
X164178242Y-126632858D01*
X164239529Y-126484899D01*
X164328499Y-126351745D01*
X164441745Y-126238499D01*
X164574899Y-126149529D01*
X164722858Y-126088242D01*
X164879925Y-126057000D01*
X165040075Y-126057000D01*
X165197142Y-126088242D01*
G37*
G36*
X185517142Y-126088242D02*
G01*
X185665101Y-126149529D01*
X185798255Y-126238499D01*
X185911501Y-126351745D01*
X186000471Y-126484899D01*
X186061758Y-126632858D01*
X186093000Y-126789925D01*
X186093000Y-126950075D01*
X186061758Y-127107142D01*
X186000471Y-127255101D01*
X185911501Y-127388255D01*
X185798255Y-127501501D01*
X185665101Y-127590471D01*
X185517142Y-127651758D01*
X185360075Y-127683000D01*
X185199925Y-127683000D01*
X185042858Y-127651758D01*
X184894899Y-127590471D01*
X184761745Y-127501501D01*
X184648499Y-127388255D01*
X184559529Y-127255101D01*
X184498242Y-127107142D01*
X184467000Y-126950075D01*
X184467000Y-126789925D01*
X184498242Y-126632858D01*
X184559529Y-126484899D01*
X184648499Y-126351745D01*
X184761745Y-126238499D01*
X184894899Y-126149529D01*
X185042858Y-126088242D01*
X185199925Y-126057000D01*
X185360075Y-126057000D01*
X185517142Y-126088242D01*
G37*
G36*
X175357142Y-126088242D02*
G01*
X175505101Y-126149529D01*
X175638255Y-126238499D01*
X175751501Y-126351745D01*
X175840471Y-126484899D01*
X175901758Y-126632858D01*
X175933000Y-126789925D01*
X175933000Y-126950075D01*
X175901758Y-127107142D01*
X175840471Y-127255101D01*
X175751501Y-127388255D01*
X175638255Y-127501501D01*
X175505101Y-127590471D01*
X175357142Y-127651758D01*
X175200075Y-127683000D01*
X175039925Y-127683000D01*
X174882858Y-127651758D01*
X174734899Y-127590471D01*
X174601745Y-127501501D01*
X174488499Y-127388255D01*
X174399529Y-127255101D01*
X174338242Y-127107142D01*
X174307000Y-126950075D01*
X174307000Y-126789925D01*
X174338242Y-126632858D01*
X174399529Y-126484899D01*
X174488499Y-126351745D01*
X174601745Y-126238499D01*
X174734899Y-126149529D01*
X174882858Y-126088242D01*
X175039925Y-126057000D01*
X175200075Y-126057000D01*
X175357142Y-126088242D01*
G37*
G36*
X182977142Y-126088242D02*
G01*
X183125101Y-126149529D01*
X183258255Y-126238499D01*
X183371501Y-126351745D01*
X183460471Y-126484899D01*
X183521758Y-126632858D01*
X183553000Y-126789925D01*
X183553000Y-126950075D01*
X183521758Y-127107142D01*
X183460471Y-127255101D01*
X183371501Y-127388255D01*
X183258255Y-127501501D01*
X183125101Y-127590471D01*
X182977142Y-127651758D01*
X182820075Y-127683000D01*
X182659925Y-127683000D01*
X182502858Y-127651758D01*
X182354899Y-127590471D01*
X182221745Y-127501501D01*
X182108499Y-127388255D01*
X182019529Y-127255101D01*
X181958242Y-127107142D01*
X181927000Y-126950075D01*
X181927000Y-126789925D01*
X181958242Y-126632858D01*
X182019529Y-126484899D01*
X182108499Y-126351745D01*
X182221745Y-126238499D01*
X182354899Y-126149529D01*
X182502858Y-126088242D01*
X182659925Y-126057000D01*
X182820075Y-126057000D01*
X182977142Y-126088242D01*
G37*
G36*
X152497142Y-126088242D02*
G01*
X152645101Y-126149529D01*
X152778255Y-126238499D01*
X152891501Y-126351745D01*
X152980471Y-126484899D01*
X153041758Y-126632858D01*
X153073000Y-126789925D01*
X153073000Y-126950075D01*
X153041758Y-127107142D01*
X152980471Y-127255101D01*
X152891501Y-127388255D01*
X152778255Y-127501501D01*
X152645101Y-127590471D01*
X152497142Y-127651758D01*
X152340075Y-127683000D01*
X152179925Y-127683000D01*
X152022858Y-127651758D01*
X151874899Y-127590471D01*
X151741745Y-127501501D01*
X151628499Y-127388255D01*
X151539529Y-127255101D01*
X151478242Y-127107142D01*
X151447000Y-126950075D01*
X151447000Y-126789925D01*
X151478242Y-126632858D01*
X151539529Y-126484899D01*
X151628499Y-126351745D01*
X151741745Y-126238499D01*
X151874899Y-126149529D01*
X152022858Y-126088242D01*
X152179925Y-126057000D01*
X152340075Y-126057000D01*
X152497142Y-126088242D01*
G37*
G36*
X142337142Y-126088242D02*
G01*
X142485101Y-126149529D01*
X142618255Y-126238499D01*
X142731501Y-126351745D01*
X142820471Y-126484899D01*
X142881758Y-126632858D01*
X142913000Y-126789925D01*
X142913000Y-126950075D01*
X142881758Y-127107142D01*
X142820471Y-127255101D01*
X142731501Y-127388255D01*
X142618255Y-127501501D01*
X142485101Y-127590471D01*
X142337142Y-127651758D01*
X142180075Y-127683000D01*
X142019925Y-127683000D01*
X141862858Y-127651758D01*
X141714899Y-127590471D01*
X141581745Y-127501501D01*
X141468499Y-127388255D01*
X141379529Y-127255101D01*
X141318242Y-127107142D01*
X141287000Y-126950075D01*
X141287000Y-126789925D01*
X141318242Y-126632858D01*
X141379529Y-126484899D01*
X141468499Y-126351745D01*
X141581745Y-126238499D01*
X141714899Y-126149529D01*
X141862858Y-126088242D01*
X142019925Y-126057000D01*
X142180075Y-126057000D01*
X142337142Y-126088242D01*
G37*
G36*
X170277142Y-126088242D02*
G01*
X170425101Y-126149529D01*
X170558255Y-126238499D01*
X170671501Y-126351745D01*
X170760471Y-126484899D01*
X170821758Y-126632858D01*
X170853000Y-126789925D01*
X170853000Y-126950075D01*
X170821758Y-127107142D01*
X170760471Y-127255101D01*
X170671501Y-127388255D01*
X170558255Y-127501501D01*
X170425101Y-127590471D01*
X170277142Y-127651758D01*
X170120075Y-127683000D01*
X169959925Y-127683000D01*
X169802858Y-127651758D01*
X169654899Y-127590471D01*
X169521745Y-127501501D01*
X169408499Y-127388255D01*
X169319529Y-127255101D01*
X169258242Y-127107142D01*
X169227000Y-126950075D01*
X169227000Y-126789925D01*
X169258242Y-126632858D01*
X169319529Y-126484899D01*
X169408499Y-126351745D01*
X169521745Y-126238499D01*
X169654899Y-126149529D01*
X169802858Y-126088242D01*
X169959925Y-126057000D01*
X170120075Y-126057000D01*
X170277142Y-126088242D01*
G37*
G36*
X134717142Y-126088242D02*
G01*
X134865101Y-126149529D01*
X134998255Y-126238499D01*
X135111501Y-126351745D01*
X135200471Y-126484899D01*
X135261758Y-126632858D01*
X135293000Y-126789925D01*
X135293000Y-126950075D01*
X135261758Y-127107142D01*
X135200471Y-127255101D01*
X135111501Y-127388255D01*
X134998255Y-127501501D01*
X134865101Y-127590471D01*
X134717142Y-127651758D01*
X134560075Y-127683000D01*
X134399925Y-127683000D01*
X134242858Y-127651758D01*
X134094899Y-127590471D01*
X133961745Y-127501501D01*
X133848499Y-127388255D01*
X133759529Y-127255101D01*
X133698242Y-127107142D01*
X133667000Y-126950075D01*
X133667000Y-126789925D01*
X133698242Y-126632858D01*
X133759529Y-126484899D01*
X133848499Y-126351745D01*
X133961745Y-126238499D01*
X134094899Y-126149529D01*
X134242858Y-126088242D01*
X134399925Y-126057000D01*
X134560075Y-126057000D01*
X134717142Y-126088242D01*
G37*
G36*
X137257142Y-126088242D02*
G01*
X137405101Y-126149529D01*
X137538255Y-126238499D01*
X137651501Y-126351745D01*
X137740471Y-126484899D01*
X137801758Y-126632858D01*
X137833000Y-126789925D01*
X137833000Y-126950075D01*
X137801758Y-127107142D01*
X137740471Y-127255101D01*
X137651501Y-127388255D01*
X137538255Y-127501501D01*
X137405101Y-127590471D01*
X137257142Y-127651758D01*
X137100075Y-127683000D01*
X136939925Y-127683000D01*
X136782858Y-127651758D01*
X136634899Y-127590471D01*
X136501745Y-127501501D01*
X136388499Y-127388255D01*
X136299529Y-127255101D01*
X136238242Y-127107142D01*
X136207000Y-126950075D01*
X136207000Y-126789925D01*
X136238242Y-126632858D01*
X136299529Y-126484899D01*
X136388499Y-126351745D01*
X136501745Y-126238499D01*
X136634899Y-126149529D01*
X136782858Y-126088242D01*
X136939925Y-126057000D01*
X137100075Y-126057000D01*
X137257142Y-126088242D01*
G37*
G36*
X160117142Y-126088242D02*
G01*
X160265101Y-126149529D01*
X160398255Y-126238499D01*
X160511501Y-126351745D01*
X160600471Y-126484899D01*
X160661758Y-126632858D01*
X160693000Y-126789925D01*
X160693000Y-126950075D01*
X160661758Y-127107142D01*
X160600471Y-127255101D01*
X160511501Y-127388255D01*
X160398255Y-127501501D01*
X160265101Y-127590471D01*
X160117142Y-127651758D01*
X159960075Y-127683000D01*
X159799925Y-127683000D01*
X159642858Y-127651758D01*
X159494899Y-127590471D01*
X159361745Y-127501501D01*
X159248499Y-127388255D01*
X159159529Y-127255101D01*
X159098242Y-127107142D01*
X159067000Y-126950075D01*
X159067000Y-126789925D01*
X159098242Y-126632858D01*
X159159529Y-126484899D01*
X159248499Y-126351745D01*
X159361745Y-126238499D01*
X159494899Y-126149529D01*
X159642858Y-126088242D01*
X159799925Y-126057000D01*
X159960075Y-126057000D01*
X160117142Y-126088242D01*
G37*
G36*
X147417142Y-126088242D02*
G01*
X147565101Y-126149529D01*
X147698255Y-126238499D01*
X147811501Y-126351745D01*
X147900471Y-126484899D01*
X147961758Y-126632858D01*
X147993000Y-126789925D01*
X147993000Y-126950075D01*
X147961758Y-127107142D01*
X147900471Y-127255101D01*
X147811501Y-127388255D01*
X147698255Y-127501501D01*
X147565101Y-127590471D01*
X147417142Y-127651758D01*
X147260075Y-127683000D01*
X147099925Y-127683000D01*
X146942858Y-127651758D01*
X146794899Y-127590471D01*
X146661745Y-127501501D01*
X146548499Y-127388255D01*
X146459529Y-127255101D01*
X146398242Y-127107142D01*
X146367000Y-126950075D01*
X146367000Y-126789925D01*
X146398242Y-126632858D01*
X146459529Y-126484899D01*
X146548499Y-126351745D01*
X146661745Y-126238499D01*
X146794899Y-126149529D01*
X146942858Y-126088242D01*
X147099925Y-126057000D01*
X147260075Y-126057000D01*
X147417142Y-126088242D01*
G37*
G36*
X167737142Y-126088242D02*
G01*
X167885101Y-126149529D01*
X168018255Y-126238499D01*
X168131501Y-126351745D01*
X168220471Y-126484899D01*
X168281758Y-126632858D01*
X168313000Y-126789925D01*
X168313000Y-126950075D01*
X168281758Y-127107142D01*
X168220471Y-127255101D01*
X168131501Y-127388255D01*
X168018255Y-127501501D01*
X167885101Y-127590471D01*
X167737142Y-127651758D01*
X167580075Y-127683000D01*
X167419925Y-127683000D01*
X167262858Y-127651758D01*
X167114899Y-127590471D01*
X166981745Y-127501501D01*
X166868499Y-127388255D01*
X166779529Y-127255101D01*
X166718242Y-127107142D01*
X166687000Y-126950075D01*
X166687000Y-126789925D01*
X166718242Y-126632858D01*
X166779529Y-126484899D01*
X166868499Y-126351745D01*
X166981745Y-126238499D01*
X167114899Y-126149529D01*
X167262858Y-126088242D01*
X167419925Y-126057000D01*
X167580075Y-126057000D01*
X167737142Y-126088242D01*
G37*
G36*
X193137142Y-126088242D02*
G01*
X193285101Y-126149529D01*
X193418255Y-126238499D01*
X193531501Y-126351745D01*
X193620471Y-126484899D01*
X193681758Y-126632858D01*
X193713000Y-126789925D01*
X193713000Y-126950075D01*
X193681758Y-127107142D01*
X193620471Y-127255101D01*
X193531501Y-127388255D01*
X193418255Y-127501501D01*
X193285101Y-127590471D01*
X193137142Y-127651758D01*
X192980075Y-127683000D01*
X192819925Y-127683000D01*
X192662858Y-127651758D01*
X192514899Y-127590471D01*
X192381745Y-127501501D01*
X192268499Y-127388255D01*
X192179529Y-127255101D01*
X192118242Y-127107142D01*
X192087000Y-126950075D01*
X192087000Y-126789925D01*
X192118242Y-126632858D01*
X192179529Y-126484899D01*
X192268499Y-126351745D01*
X192381745Y-126238499D01*
X192514899Y-126149529D01*
X192662858Y-126088242D01*
X192819925Y-126057000D01*
X192980075Y-126057000D01*
X193137142Y-126088242D01*
G37*
G36*
X177897142Y-126088242D02*
G01*
X178045101Y-126149529D01*
X178178255Y-126238499D01*
X178291501Y-126351745D01*
X178380471Y-126484899D01*
X178441758Y-126632858D01*
X178473000Y-126789925D01*
X178473000Y-126950075D01*
X178441758Y-127107142D01*
X178380471Y-127255101D01*
X178291501Y-127388255D01*
X178178255Y-127501501D01*
X178045101Y-127590471D01*
X177897142Y-127651758D01*
X177740075Y-127683000D01*
X177579925Y-127683000D01*
X177422858Y-127651758D01*
X177274899Y-127590471D01*
X177141745Y-127501501D01*
X177028499Y-127388255D01*
X176939529Y-127255101D01*
X176878242Y-127107142D01*
X176847000Y-126950075D01*
X176847000Y-126789925D01*
X176878242Y-126632858D01*
X176939529Y-126484899D01*
X177028499Y-126351745D01*
X177141745Y-126238499D01*
X177274899Y-126149529D01*
X177422858Y-126088242D01*
X177579925Y-126057000D01*
X177740075Y-126057000D01*
X177897142Y-126088242D01*
G37*
G36*
X172817142Y-126088242D02*
G01*
X172965101Y-126149529D01*
X173098255Y-126238499D01*
X173211501Y-126351745D01*
X173300471Y-126484899D01*
X173361758Y-126632858D01*
X173393000Y-126789925D01*
X173393000Y-126950075D01*
X173361758Y-127107142D01*
X173300471Y-127255101D01*
X173211501Y-127388255D01*
X173098255Y-127501501D01*
X172965101Y-127590471D01*
X172817142Y-127651758D01*
X172660075Y-127683000D01*
X172499925Y-127683000D01*
X172342858Y-127651758D01*
X172194899Y-127590471D01*
X172061745Y-127501501D01*
X171948499Y-127388255D01*
X171859529Y-127255101D01*
X171798242Y-127107142D01*
X171767000Y-126950075D01*
X171767000Y-126789925D01*
X171798242Y-126632858D01*
X171859529Y-126484899D01*
X171948499Y-126351745D01*
X172061745Y-126238499D01*
X172194899Y-126149529D01*
X172342858Y-126088242D01*
X172499925Y-126057000D01*
X172660075Y-126057000D01*
X172817142Y-126088242D01*
G37*
G36*
X180437142Y-126088242D02*
G01*
X180585101Y-126149529D01*
X180718255Y-126238499D01*
X180831501Y-126351745D01*
X180920471Y-126484899D01*
X180981758Y-126632858D01*
X181013000Y-126789925D01*
X181013000Y-126950075D01*
X180981758Y-127107142D01*
X180920471Y-127255101D01*
X180831501Y-127388255D01*
X180718255Y-127501501D01*
X180585101Y-127590471D01*
X180437142Y-127651758D01*
X180280075Y-127683000D01*
X180119925Y-127683000D01*
X179962858Y-127651758D01*
X179814899Y-127590471D01*
X179681745Y-127501501D01*
X179568499Y-127388255D01*
X179479529Y-127255101D01*
X179418242Y-127107142D01*
X179387000Y-126950075D01*
X179387000Y-126789925D01*
X179418242Y-126632858D01*
X179479529Y-126484899D01*
X179568499Y-126351745D01*
X179681745Y-126238499D01*
X179814899Y-126149529D01*
X179962858Y-126088242D01*
X180119925Y-126057000D01*
X180280075Y-126057000D01*
X180437142Y-126088242D01*
G37*
G36*
X155037142Y-126088242D02*
G01*
X155185101Y-126149529D01*
X155318255Y-126238499D01*
X155431501Y-126351745D01*
X155520471Y-126484899D01*
X155581758Y-126632858D01*
X155613000Y-126789925D01*
X155613000Y-126950075D01*
X155581758Y-127107142D01*
X155520471Y-127255101D01*
X155431501Y-127388255D01*
X155318255Y-127501501D01*
X155185101Y-127590471D01*
X155037142Y-127651758D01*
X154880075Y-127683000D01*
X154719925Y-127683000D01*
X154562858Y-127651758D01*
X154414899Y-127590471D01*
X154281745Y-127501501D01*
X154168499Y-127388255D01*
X154079529Y-127255101D01*
X154018242Y-127107142D01*
X153987000Y-126950075D01*
X153987000Y-126789925D01*
X154018242Y-126632858D01*
X154079529Y-126484899D01*
X154168499Y-126351745D01*
X154281745Y-126238499D01*
X154414899Y-126149529D01*
X154562858Y-126088242D01*
X154719925Y-126057000D01*
X154880075Y-126057000D01*
X155037142Y-126088242D01*
G37*
G36*
X213113512Y-123843927D02*
G01*
X213262812Y-123873624D01*
X213426784Y-123941544D01*
X213574354Y-124040147D01*
X213699853Y-124165646D01*
X213798456Y-124313216D01*
X213866376Y-124477188D01*
X213901000Y-124651259D01*
X213901000Y-124828741D01*
X213866376Y-125002812D01*
X213798456Y-125166784D01*
X213699853Y-125314354D01*
X213574354Y-125439853D01*
X213426784Y-125538456D01*
X213262812Y-125606376D01*
X213113512Y-125636073D01*
X213088742Y-125641000D01*
X212911258Y-125641000D01*
X212886488Y-125636073D01*
X212737188Y-125606376D01*
X212573216Y-125538456D01*
X212425646Y-125439853D01*
X212300147Y-125314354D01*
X212201544Y-125166784D01*
X212133624Y-125002812D01*
X212099000Y-124828741D01*
X212099000Y-124651259D01*
X212133624Y-124477188D01*
X212201544Y-124313216D01*
X212300147Y-124165646D01*
X212425646Y-124040147D01*
X212573216Y-123941544D01*
X212737188Y-123873624D01*
X212886488Y-123843927D01*
X212911258Y-123839000D01*
X213088742Y-123839000D01*
X213113512Y-123843927D01*
G37*
G36*
X209363512Y-123843927D02*
G01*
X209512812Y-123873624D01*
X209676784Y-123941544D01*
X209824354Y-124040147D01*
X209949853Y-124165646D01*
X210048456Y-124313216D01*
X210116376Y-124477188D01*
X210151000Y-124651259D01*
X210151000Y-124828741D01*
X210116376Y-125002812D01*
X210048456Y-125166784D01*
X209949853Y-125314354D01*
X209824354Y-125439853D01*
X209676784Y-125538456D01*
X209512812Y-125606376D01*
X209363512Y-125636073D01*
X209338742Y-125641000D01*
X209161258Y-125641000D01*
X209136488Y-125636073D01*
X208987188Y-125606376D01*
X208823216Y-125538456D01*
X208675646Y-125439853D01*
X208550147Y-125314354D01*
X208451544Y-125166784D01*
X208383624Y-125002812D01*
X208349000Y-124828741D01*
X208349000Y-124651259D01*
X208383624Y-124477188D01*
X208451544Y-124313216D01*
X208550147Y-124165646D01*
X208675646Y-124040147D01*
X208823216Y-123941544D01*
X208987188Y-123873624D01*
X209136488Y-123843927D01*
X209161258Y-123839000D01*
X209338742Y-123839000D01*
X209363512Y-123843927D01*
G37*
G36*
X213113512Y-121303927D02*
G01*
X213262812Y-121333624D01*
X213426784Y-121401544D01*
X213574354Y-121500147D01*
X213699853Y-121625646D01*
X213798456Y-121773216D01*
X213866376Y-121937188D01*
X213901000Y-122111259D01*
X213901000Y-122288741D01*
X213866376Y-122462812D01*
X213798456Y-122626784D01*
X213699853Y-122774354D01*
X213574354Y-122899853D01*
X213426784Y-122998456D01*
X213262812Y-123066376D01*
X213113512Y-123096073D01*
X213088742Y-123101000D01*
X212911258Y-123101000D01*
X212886488Y-123096073D01*
X212737188Y-123066376D01*
X212573216Y-122998456D01*
X212425646Y-122899853D01*
X212300147Y-122774354D01*
X212201544Y-122626784D01*
X212133624Y-122462812D01*
X212099000Y-122288741D01*
X212099000Y-122111259D01*
X212133624Y-121937188D01*
X212201544Y-121773216D01*
X212300147Y-121625646D01*
X212425646Y-121500147D01*
X212573216Y-121401544D01*
X212737188Y-121333624D01*
X212886488Y-121303927D01*
X212911258Y-121299000D01*
X213088742Y-121299000D01*
X213113512Y-121303927D01*
G37*
G36*
X209363512Y-121303927D02*
G01*
X209512812Y-121333624D01*
X209676784Y-121401544D01*
X209824354Y-121500147D01*
X209949853Y-121625646D01*
X210048456Y-121773216D01*
X210116376Y-121937188D01*
X210151000Y-122111259D01*
X210151000Y-122288741D01*
X210116376Y-122462812D01*
X210048456Y-122626784D01*
X209949853Y-122774354D01*
X209824354Y-122899853D01*
X209676784Y-122998456D01*
X209512812Y-123066376D01*
X209363512Y-123096073D01*
X209338742Y-123101000D01*
X209161258Y-123101000D01*
X209136488Y-123096073D01*
X208987188Y-123066376D01*
X208823216Y-122998456D01*
X208675646Y-122899853D01*
X208550147Y-122774354D01*
X208451544Y-122626784D01*
X208383624Y-122462812D01*
X208349000Y-122288741D01*
X208349000Y-122111259D01*
X208383624Y-121937188D01*
X208451544Y-121773216D01*
X208550147Y-121625646D01*
X208675646Y-121500147D01*
X208823216Y-121401544D01*
X208987188Y-121333624D01*
X209136488Y-121303927D01*
X209161258Y-121299000D01*
X209338742Y-121299000D01*
X209363512Y-121303927D01*
G37*
G36*
X113363512Y-120973927D02*
G01*
X113512812Y-121003624D01*
X113676784Y-121071544D01*
X113824354Y-121170147D01*
X113949853Y-121295646D01*
X114048456Y-121443216D01*
X114116376Y-121607188D01*
X114151000Y-121781259D01*
X114151000Y-121958741D01*
X114116376Y-122132812D01*
X114048456Y-122296784D01*
X113949853Y-122444354D01*
X113824354Y-122569853D01*
X113676784Y-122668456D01*
X113512812Y-122736376D01*
X113363512Y-122766073D01*
X113338742Y-122771000D01*
X113161258Y-122771000D01*
X113136488Y-122766073D01*
X112987188Y-122736376D01*
X112823216Y-122668456D01*
X112675646Y-122569853D01*
X112550147Y-122444354D01*
X112451544Y-122296784D01*
X112383624Y-122132812D01*
X112349000Y-121958741D01*
X112349000Y-121781259D01*
X112383624Y-121607188D01*
X112451544Y-121443216D01*
X112550147Y-121295646D01*
X112675646Y-121170147D01*
X112823216Y-121071544D01*
X112987188Y-121003624D01*
X113136488Y-120973927D01*
X113161258Y-120969000D01*
X113338742Y-120969000D01*
X113363512Y-120973927D01*
G37*
G36*
X213113512Y-118763927D02*
G01*
X213262812Y-118793624D01*
X213426784Y-118861544D01*
X213574354Y-118960147D01*
X213699853Y-119085646D01*
X213798456Y-119233216D01*
X213866376Y-119397188D01*
X213901000Y-119571259D01*
X213901000Y-119748741D01*
X213866376Y-119922812D01*
X213798456Y-120086784D01*
X213699853Y-120234354D01*
X213574354Y-120359853D01*
X213426784Y-120458456D01*
X213262812Y-120526376D01*
X213113512Y-120556073D01*
X213088742Y-120561000D01*
X212911258Y-120561000D01*
X212886488Y-120556073D01*
X212737188Y-120526376D01*
X212573216Y-120458456D01*
X212425646Y-120359853D01*
X212300147Y-120234354D01*
X212201544Y-120086784D01*
X212133624Y-119922812D01*
X212099000Y-119748741D01*
X212099000Y-119571259D01*
X212133624Y-119397188D01*
X212201544Y-119233216D01*
X212300147Y-119085646D01*
X212425646Y-118960147D01*
X212573216Y-118861544D01*
X212737188Y-118793624D01*
X212886488Y-118763927D01*
X212911258Y-118759000D01*
X213088742Y-118759000D01*
X213113512Y-118763927D01*
G37*
G36*
X209363512Y-118763927D02*
G01*
X209512812Y-118793624D01*
X209676784Y-118861544D01*
X209824354Y-118960147D01*
X209949853Y-119085646D01*
X210048456Y-119233216D01*
X210116376Y-119397188D01*
X210151000Y-119571259D01*
X210151000Y-119748741D01*
X210116376Y-119922812D01*
X210048456Y-120086784D01*
X209949853Y-120234354D01*
X209824354Y-120359853D01*
X209676784Y-120458456D01*
X209512812Y-120526376D01*
X209363512Y-120556073D01*
X209338742Y-120561000D01*
X209161258Y-120561000D01*
X209136488Y-120556073D01*
X208987188Y-120526376D01*
X208823216Y-120458456D01*
X208675646Y-120359853D01*
X208550147Y-120234354D01*
X208451544Y-120086784D01*
X208383624Y-119922812D01*
X208349000Y-119748741D01*
X208349000Y-119571259D01*
X208383624Y-119397188D01*
X208451544Y-119233216D01*
X208550147Y-119085646D01*
X208675646Y-118960147D01*
X208823216Y-118861544D01*
X208987188Y-118793624D01*
X209136488Y-118763927D01*
X209161258Y-118759000D01*
X209338742Y-118759000D01*
X209363512Y-118763927D01*
G37*
G36*
X113363512Y-118433927D02*
G01*
X113512812Y-118463624D01*
X113676784Y-118531544D01*
X113824354Y-118630147D01*
X113949853Y-118755646D01*
X114048456Y-118903216D01*
X114116376Y-119067188D01*
X114151000Y-119241259D01*
X114151000Y-119418741D01*
X114116376Y-119592812D01*
X114048456Y-119756784D01*
X113949853Y-119904354D01*
X113824354Y-120029853D01*
X113676784Y-120128456D01*
X113512812Y-120196376D01*
X113363512Y-120226073D01*
X113338742Y-120231000D01*
X113161258Y-120231000D01*
X113136488Y-120226073D01*
X112987188Y-120196376D01*
X112823216Y-120128456D01*
X112675646Y-120029853D01*
X112550147Y-119904354D01*
X112451544Y-119756784D01*
X112383624Y-119592812D01*
X112349000Y-119418741D01*
X112349000Y-119241259D01*
X112383624Y-119067188D01*
X112451544Y-118903216D01*
X112550147Y-118755646D01*
X112675646Y-118630147D01*
X112823216Y-118531544D01*
X112987188Y-118463624D01*
X113136488Y-118433927D01*
X113161258Y-118429000D01*
X113338742Y-118429000D01*
X113363512Y-118433927D01*
G37*
G36*
X213113512Y-116223927D02*
G01*
X213262812Y-116253624D01*
X213426784Y-116321544D01*
X213574354Y-116420147D01*
X213699853Y-116545646D01*
X213798456Y-116693216D01*
X213866376Y-116857188D01*
X213901000Y-117031259D01*
X213901000Y-117208741D01*
X213866376Y-117382812D01*
X213798456Y-117546784D01*
X213699853Y-117694354D01*
X213574354Y-117819853D01*
X213426784Y-117918456D01*
X213262812Y-117986376D01*
X213113512Y-118016073D01*
X213088742Y-118021000D01*
X212911258Y-118021000D01*
X212886488Y-118016073D01*
X212737188Y-117986376D01*
X212573216Y-117918456D01*
X212425646Y-117819853D01*
X212300147Y-117694354D01*
X212201544Y-117546784D01*
X212133624Y-117382812D01*
X212099000Y-117208741D01*
X212099000Y-117031259D01*
X212133624Y-116857188D01*
X212201544Y-116693216D01*
X212300147Y-116545646D01*
X212425646Y-116420147D01*
X212573216Y-116321544D01*
X212737188Y-116253624D01*
X212886488Y-116223927D01*
X212911258Y-116219000D01*
X213088742Y-116219000D01*
X213113512Y-116223927D01*
G37*
G36*
X209363512Y-116223927D02*
G01*
X209512812Y-116253624D01*
X209676784Y-116321544D01*
X209824354Y-116420147D01*
X209949853Y-116545646D01*
X210048456Y-116693216D01*
X210116376Y-116857188D01*
X210151000Y-117031259D01*
X210151000Y-117208741D01*
X210116376Y-117382812D01*
X210048456Y-117546784D01*
X209949853Y-117694354D01*
X209824354Y-117819853D01*
X209676784Y-117918456D01*
X209512812Y-117986376D01*
X209363512Y-118016073D01*
X209338742Y-118021000D01*
X209161258Y-118021000D01*
X209136488Y-118016073D01*
X208987188Y-117986376D01*
X208823216Y-117918456D01*
X208675646Y-117819853D01*
X208550147Y-117694354D01*
X208451544Y-117546784D01*
X208383624Y-117382812D01*
X208349000Y-117208741D01*
X208349000Y-117031259D01*
X208383624Y-116857188D01*
X208451544Y-116693216D01*
X208550147Y-116545646D01*
X208675646Y-116420147D01*
X208823216Y-116321544D01*
X208987188Y-116253624D01*
X209136488Y-116223927D01*
X209161258Y-116219000D01*
X209338742Y-116219000D01*
X209363512Y-116223927D01*
G37*
G36*
X113363512Y-115893927D02*
G01*
X113512812Y-115923624D01*
X113676784Y-115991544D01*
X113824354Y-116090147D01*
X113949853Y-116215646D01*
X114048456Y-116363216D01*
X114116376Y-116527188D01*
X114151000Y-116701259D01*
X114151000Y-116878741D01*
X114116376Y-117052812D01*
X114048456Y-117216784D01*
X113949853Y-117364354D01*
X113824354Y-117489853D01*
X113676784Y-117588456D01*
X113512812Y-117656376D01*
X113363512Y-117686073D01*
X113338742Y-117691000D01*
X113161258Y-117691000D01*
X113136488Y-117686073D01*
X112987188Y-117656376D01*
X112823216Y-117588456D01*
X112675646Y-117489853D01*
X112550147Y-117364354D01*
X112451544Y-117216784D01*
X112383624Y-117052812D01*
X112349000Y-116878741D01*
X112349000Y-116701259D01*
X112383624Y-116527188D01*
X112451544Y-116363216D01*
X112550147Y-116215646D01*
X112675646Y-116090147D01*
X112823216Y-115991544D01*
X112987188Y-115923624D01*
X113136488Y-115893927D01*
X113161258Y-115889000D01*
X113338742Y-115889000D01*
X113363512Y-115893927D01*
G37*
G36*
X209363512Y-113683927D02*
G01*
X209512812Y-113713624D01*
X209676784Y-113781544D01*
X209824354Y-113880147D01*
X209949853Y-114005646D01*
X210048456Y-114153216D01*
X210116376Y-114317188D01*
X210151000Y-114491259D01*
X210151000Y-114668741D01*
X210116376Y-114842812D01*
X210048456Y-115006784D01*
X209949853Y-115154354D01*
X209824354Y-115279853D01*
X209676784Y-115378456D01*
X209512812Y-115446376D01*
X209363512Y-115476073D01*
X209338742Y-115481000D01*
X209161258Y-115481000D01*
X209136488Y-115476073D01*
X208987188Y-115446376D01*
X208823216Y-115378456D01*
X208675646Y-115279853D01*
X208550147Y-115154354D01*
X208451544Y-115006784D01*
X208383624Y-114842812D01*
X208349000Y-114668741D01*
X208349000Y-114491259D01*
X208383624Y-114317188D01*
X208451544Y-114153216D01*
X208550147Y-114005646D01*
X208675646Y-113880147D01*
X208823216Y-113781544D01*
X208987188Y-113713624D01*
X209136488Y-113683927D01*
X209161258Y-113679000D01*
X209338742Y-113679000D01*
X209363512Y-113683927D01*
G37*
G36*
X213113512Y-113683927D02*
G01*
X213262812Y-113713624D01*
X213426784Y-113781544D01*
X213574354Y-113880147D01*
X213699853Y-114005646D01*
X213798456Y-114153216D01*
X213866376Y-114317188D01*
X213901000Y-114491259D01*
X213901000Y-114668741D01*
X213866376Y-114842812D01*
X213798456Y-115006784D01*
X213699853Y-115154354D01*
X213574354Y-115279853D01*
X213426784Y-115378456D01*
X213262812Y-115446376D01*
X213113512Y-115476073D01*
X213088742Y-115481000D01*
X212911258Y-115481000D01*
X212886488Y-115476073D01*
X212737188Y-115446376D01*
X212573216Y-115378456D01*
X212425646Y-115279853D01*
X212300147Y-115154354D01*
X212201544Y-115006784D01*
X212133624Y-114842812D01*
X212099000Y-114668741D01*
X212099000Y-114491259D01*
X212133624Y-114317188D01*
X212201544Y-114153216D01*
X212300147Y-114005646D01*
X212425646Y-113880147D01*
X212573216Y-113781544D01*
X212737188Y-113713624D01*
X212886488Y-113683927D01*
X212911258Y-113679000D01*
X213088742Y-113679000D01*
X213113512Y-113683927D01*
G37*
G36*
X113363512Y-113353927D02*
G01*
X113512812Y-113383624D01*
X113676784Y-113451544D01*
X113824354Y-113550147D01*
X113949853Y-113675646D01*
X114048456Y-113823216D01*
X114116376Y-113987188D01*
X114151000Y-114161259D01*
X114151000Y-114338741D01*
X114116376Y-114512812D01*
X114048456Y-114676784D01*
X113949853Y-114824354D01*
X113824354Y-114949853D01*
X113676784Y-115048456D01*
X113512812Y-115116376D01*
X113363512Y-115146073D01*
X113338742Y-115151000D01*
X113161258Y-115151000D01*
X113136488Y-115146073D01*
X112987188Y-115116376D01*
X112823216Y-115048456D01*
X112675646Y-114949853D01*
X112550147Y-114824354D01*
X112451544Y-114676784D01*
X112383624Y-114512812D01*
X112349000Y-114338741D01*
X112349000Y-114161259D01*
X112383624Y-113987188D01*
X112451544Y-113823216D01*
X112550147Y-113675646D01*
X112675646Y-113550147D01*
X112823216Y-113451544D01*
X112987188Y-113383624D01*
X113136488Y-113353927D01*
X113161258Y-113349000D01*
X113338742Y-113349000D01*
X113363512Y-113353927D01*
G37*
G36*
X209363512Y-111143927D02*
G01*
X209512812Y-111173624D01*
X209676784Y-111241544D01*
X209824354Y-111340147D01*
X209949853Y-111465646D01*
X210048456Y-111613216D01*
X210116376Y-111777188D01*
X210151000Y-111951259D01*
X210151000Y-112128741D01*
X210116376Y-112302812D01*
X210048456Y-112466784D01*
X209949853Y-112614354D01*
X209824354Y-112739853D01*
X209676784Y-112838456D01*
X209512812Y-112906376D01*
X209363512Y-112936073D01*
X209338742Y-112941000D01*
X209161258Y-112941000D01*
X209136488Y-112936073D01*
X208987188Y-112906376D01*
X208823216Y-112838456D01*
X208675646Y-112739853D01*
X208550147Y-112614354D01*
X208451544Y-112466784D01*
X208383624Y-112302812D01*
X208349000Y-112128741D01*
X208349000Y-111951259D01*
X208383624Y-111777188D01*
X208451544Y-111613216D01*
X208550147Y-111465646D01*
X208675646Y-111340147D01*
X208823216Y-111241544D01*
X208987188Y-111173624D01*
X209136488Y-111143927D01*
X209161258Y-111139000D01*
X209338742Y-111139000D01*
X209363512Y-111143927D01*
G37*
G36*
X213113512Y-111143927D02*
G01*
X213262812Y-111173624D01*
X213426784Y-111241544D01*
X213574354Y-111340147D01*
X213699853Y-111465646D01*
X213798456Y-111613216D01*
X213866376Y-111777188D01*
X213901000Y-111951259D01*
X213901000Y-112128741D01*
X213866376Y-112302812D01*
X213798456Y-112466784D01*
X213699853Y-112614354D01*
X213574354Y-112739853D01*
X213426784Y-112838456D01*
X213262812Y-112906376D01*
X213113512Y-112936073D01*
X213088742Y-112941000D01*
X212911258Y-112941000D01*
X212886488Y-112936073D01*
X212737188Y-112906376D01*
X212573216Y-112838456D01*
X212425646Y-112739853D01*
X212300147Y-112614354D01*
X212201544Y-112466784D01*
X212133624Y-112302812D01*
X212099000Y-112128741D01*
X212099000Y-111951259D01*
X212133624Y-111777188D01*
X212201544Y-111613216D01*
X212300147Y-111465646D01*
X212425646Y-111340147D01*
X212573216Y-111241544D01*
X212737188Y-111173624D01*
X212886488Y-111143927D01*
X212911258Y-111139000D01*
X213088742Y-111139000D01*
X213113512Y-111143927D01*
G37*
G36*
X114151000Y-112611000D02*
G01*
X112349000Y-112611000D01*
X112349000Y-110809000D01*
X114151000Y-110809000D01*
X114151000Y-112611000D01*
G37*
G36*
X165197142Y-110848242D02*
G01*
X165345101Y-110909529D01*
X165478255Y-110998499D01*
X165591501Y-111111745D01*
X165680471Y-111244899D01*
X165741758Y-111392858D01*
X165773000Y-111549925D01*
X165773000Y-111710075D01*
X165741758Y-111867142D01*
X165680471Y-112015101D01*
X165591501Y-112148255D01*
X165478255Y-112261501D01*
X165345101Y-112350471D01*
X165197142Y-112411758D01*
X165040075Y-112443000D01*
X164879925Y-112443000D01*
X164722858Y-112411758D01*
X164574899Y-112350471D01*
X164441745Y-112261501D01*
X164328499Y-112148255D01*
X164239529Y-112015101D01*
X164178242Y-111867142D01*
X164147000Y-111710075D01*
X164147000Y-111549925D01*
X164178242Y-111392858D01*
X164239529Y-111244899D01*
X164328499Y-111111745D01*
X164441745Y-110998499D01*
X164574899Y-110909529D01*
X164722858Y-110848242D01*
X164879925Y-110817000D01*
X165040075Y-110817000D01*
X165197142Y-110848242D01*
G37*
G36*
X162657142Y-110848242D02*
G01*
X162805101Y-110909529D01*
X162938255Y-110998499D01*
X163051501Y-111111745D01*
X163140471Y-111244899D01*
X163201758Y-111392858D01*
X163233000Y-111549925D01*
X163233000Y-111710075D01*
X163201758Y-111867142D01*
X163140471Y-112015101D01*
X163051501Y-112148255D01*
X162938255Y-112261501D01*
X162805101Y-112350471D01*
X162657142Y-112411758D01*
X162500075Y-112443000D01*
X162339925Y-112443000D01*
X162182858Y-112411758D01*
X162034899Y-112350471D01*
X161901745Y-112261501D01*
X161788499Y-112148255D01*
X161699529Y-112015101D01*
X161638242Y-111867142D01*
X161607000Y-111710075D01*
X161607000Y-111549925D01*
X161638242Y-111392858D01*
X161699529Y-111244899D01*
X161788499Y-111111745D01*
X161901745Y-110998499D01*
X162034899Y-110909529D01*
X162182858Y-110848242D01*
X162339925Y-110817000D01*
X162500075Y-110817000D01*
X162657142Y-110848242D01*
G37*
G36*
X160117142Y-110848242D02*
G01*
X160265101Y-110909529D01*
X160398255Y-110998499D01*
X160511501Y-111111745D01*
X160600471Y-111244899D01*
X160661758Y-111392858D01*
X160693000Y-111549925D01*
X160693000Y-111710075D01*
X160661758Y-111867142D01*
X160600471Y-112015101D01*
X160511501Y-112148255D01*
X160398255Y-112261501D01*
X160265101Y-112350471D01*
X160117142Y-112411758D01*
X159960075Y-112443000D01*
X159799925Y-112443000D01*
X159642858Y-112411758D01*
X159494899Y-112350471D01*
X159361745Y-112261501D01*
X159248499Y-112148255D01*
X159159529Y-112015101D01*
X159098242Y-111867142D01*
X159067000Y-111710075D01*
X159067000Y-111549925D01*
X159098242Y-111392858D01*
X159159529Y-111244899D01*
X159248499Y-111111745D01*
X159361745Y-110998499D01*
X159494899Y-110909529D01*
X159642858Y-110848242D01*
X159799925Y-110817000D01*
X159960075Y-110817000D01*
X160117142Y-110848242D01*
G37*
G36*
X157577142Y-110848242D02*
G01*
X157725101Y-110909529D01*
X157858255Y-110998499D01*
X157971501Y-111111745D01*
X158060471Y-111244899D01*
X158121758Y-111392858D01*
X158153000Y-111549925D01*
X158153000Y-111710075D01*
X158121758Y-111867142D01*
X158060471Y-112015101D01*
X157971501Y-112148255D01*
X157858255Y-112261501D01*
X157725101Y-112350471D01*
X157577142Y-112411758D01*
X157420075Y-112443000D01*
X157259925Y-112443000D01*
X157102858Y-112411758D01*
X156954899Y-112350471D01*
X156821745Y-112261501D01*
X156708499Y-112148255D01*
X156619529Y-112015101D01*
X156558242Y-111867142D01*
X156527000Y-111710075D01*
X156527000Y-111549925D01*
X156558242Y-111392858D01*
X156619529Y-111244899D01*
X156708499Y-111111745D01*
X156821745Y-110998499D01*
X156954899Y-110909529D01*
X157102858Y-110848242D01*
X157259925Y-110817000D01*
X157420075Y-110817000D01*
X157577142Y-110848242D01*
G37*
G36*
X152497142Y-110848242D02*
G01*
X152645101Y-110909529D01*
X152778255Y-110998499D01*
X152891501Y-111111745D01*
X152980471Y-111244899D01*
X153041758Y-111392858D01*
X153073000Y-111549925D01*
X153073000Y-111710075D01*
X153041758Y-111867142D01*
X152980471Y-112015101D01*
X152891501Y-112148255D01*
X152778255Y-112261501D01*
X152645101Y-112350471D01*
X152497142Y-112411758D01*
X152340075Y-112443000D01*
X152179925Y-112443000D01*
X152022858Y-112411758D01*
X151874899Y-112350471D01*
X151741745Y-112261501D01*
X151628499Y-112148255D01*
X151539529Y-112015101D01*
X151478242Y-111867142D01*
X151447000Y-111710075D01*
X151447000Y-111549925D01*
X151478242Y-111392858D01*
X151539529Y-111244899D01*
X151628499Y-111111745D01*
X151741745Y-110998499D01*
X151874899Y-110909529D01*
X152022858Y-110848242D01*
X152179925Y-110817000D01*
X152340075Y-110817000D01*
X152497142Y-110848242D01*
G37*
G36*
X149957142Y-110848242D02*
G01*
X150105101Y-110909529D01*
X150238255Y-110998499D01*
X150351501Y-111111745D01*
X150440471Y-111244899D01*
X150501758Y-111392858D01*
X150533000Y-111549925D01*
X150533000Y-111710075D01*
X150501758Y-111867142D01*
X150440471Y-112015101D01*
X150351501Y-112148255D01*
X150238255Y-112261501D01*
X150105101Y-112350471D01*
X149957142Y-112411758D01*
X149800075Y-112443000D01*
X149639925Y-112443000D01*
X149482858Y-112411758D01*
X149334899Y-112350471D01*
X149201745Y-112261501D01*
X149088499Y-112148255D01*
X148999529Y-112015101D01*
X148938242Y-111867142D01*
X148907000Y-111710075D01*
X148907000Y-111549925D01*
X148938242Y-111392858D01*
X148999529Y-111244899D01*
X149088499Y-111111745D01*
X149201745Y-110998499D01*
X149334899Y-110909529D01*
X149482858Y-110848242D01*
X149639925Y-110817000D01*
X149800075Y-110817000D01*
X149957142Y-110848242D01*
G37*
G36*
X147417142Y-110848242D02*
G01*
X147565101Y-110909529D01*
X147698255Y-110998499D01*
X147811501Y-111111745D01*
X147900471Y-111244899D01*
X147961758Y-111392858D01*
X147993000Y-111549925D01*
X147993000Y-111710075D01*
X147961758Y-111867142D01*
X147900471Y-112015101D01*
X147811501Y-112148255D01*
X147698255Y-112261501D01*
X147565101Y-112350471D01*
X147417142Y-112411758D01*
X147260075Y-112443000D01*
X147099925Y-112443000D01*
X146942858Y-112411758D01*
X146794899Y-112350471D01*
X146661745Y-112261501D01*
X146548499Y-112148255D01*
X146459529Y-112015101D01*
X146398242Y-111867142D01*
X146367000Y-111710075D01*
X146367000Y-111549925D01*
X146398242Y-111392858D01*
X146459529Y-111244899D01*
X146548499Y-111111745D01*
X146661745Y-110998499D01*
X146794899Y-110909529D01*
X146942858Y-110848242D01*
X147099925Y-110817000D01*
X147260075Y-110817000D01*
X147417142Y-110848242D01*
G37*
G36*
X144877142Y-110848242D02*
G01*
X145025101Y-110909529D01*
X145158255Y-110998499D01*
X145271501Y-111111745D01*
X145360471Y-111244899D01*
X145421758Y-111392858D01*
X145453000Y-111549925D01*
X145453000Y-111710075D01*
X145421758Y-111867142D01*
X145360471Y-112015101D01*
X145271501Y-112148255D01*
X145158255Y-112261501D01*
X145025101Y-112350471D01*
X144877142Y-112411758D01*
X144720075Y-112443000D01*
X144559925Y-112443000D01*
X144402858Y-112411758D01*
X144254899Y-112350471D01*
X144121745Y-112261501D01*
X144008499Y-112148255D01*
X143919529Y-112015101D01*
X143858242Y-111867142D01*
X143827000Y-111710075D01*
X143827000Y-111549925D01*
X143858242Y-111392858D01*
X143919529Y-111244899D01*
X144008499Y-111111745D01*
X144121745Y-110998499D01*
X144254899Y-110909529D01*
X144402858Y-110848242D01*
X144559925Y-110817000D01*
X144720075Y-110817000D01*
X144877142Y-110848242D01*
G37*
G36*
X188057142Y-110848242D02*
G01*
X188205101Y-110909529D01*
X188338255Y-110998499D01*
X188451501Y-111111745D01*
X188540471Y-111244899D01*
X188601758Y-111392858D01*
X188633000Y-111549925D01*
X188633000Y-111710075D01*
X188601758Y-111867142D01*
X188540471Y-112015101D01*
X188451501Y-112148255D01*
X188338255Y-112261501D01*
X188205101Y-112350471D01*
X188057142Y-112411758D01*
X187900075Y-112443000D01*
X187739925Y-112443000D01*
X187582858Y-112411758D01*
X187434899Y-112350471D01*
X187301745Y-112261501D01*
X187188499Y-112148255D01*
X187099529Y-112015101D01*
X187038242Y-111867142D01*
X187007000Y-111710075D01*
X187007000Y-111549925D01*
X187038242Y-111392858D01*
X187099529Y-111244899D01*
X187188499Y-111111745D01*
X187301745Y-110998499D01*
X187434899Y-110909529D01*
X187582858Y-110848242D01*
X187739925Y-110817000D01*
X187900075Y-110817000D01*
X188057142Y-110848242D01*
G37*
G36*
X142337142Y-110848242D02*
G01*
X142485101Y-110909529D01*
X142618255Y-110998499D01*
X142731501Y-111111745D01*
X142820471Y-111244899D01*
X142881758Y-111392858D01*
X142913000Y-111549925D01*
X142913000Y-111710075D01*
X142881758Y-111867142D01*
X142820471Y-112015101D01*
X142731501Y-112148255D01*
X142618255Y-112261501D01*
X142485101Y-112350471D01*
X142337142Y-112411758D01*
X142180075Y-112443000D01*
X142019925Y-112443000D01*
X141862858Y-112411758D01*
X141714899Y-112350471D01*
X141581745Y-112261501D01*
X141468499Y-112148255D01*
X141379529Y-112015101D01*
X141318242Y-111867142D01*
X141287000Y-111710075D01*
X141287000Y-111549925D01*
X141318242Y-111392858D01*
X141379529Y-111244899D01*
X141468499Y-111111745D01*
X141581745Y-110998499D01*
X141714899Y-110909529D01*
X141862858Y-110848242D01*
X142019925Y-110817000D01*
X142180075Y-110817000D01*
X142337142Y-110848242D01*
G37*
G36*
X139797142Y-110848242D02*
G01*
X139945101Y-110909529D01*
X140078255Y-110998499D01*
X140191501Y-111111745D01*
X140280471Y-111244899D01*
X140341758Y-111392858D01*
X140373000Y-111549925D01*
X140373000Y-111710075D01*
X140341758Y-111867142D01*
X140280471Y-112015101D01*
X140191501Y-112148255D01*
X140078255Y-112261501D01*
X139945101Y-112350471D01*
X139797142Y-112411758D01*
X139640075Y-112443000D01*
X139479925Y-112443000D01*
X139322858Y-112411758D01*
X139174899Y-112350471D01*
X139041745Y-112261501D01*
X138928499Y-112148255D01*
X138839529Y-112015101D01*
X138778242Y-111867142D01*
X138747000Y-111710075D01*
X138747000Y-111549925D01*
X138778242Y-111392858D01*
X138839529Y-111244899D01*
X138928499Y-111111745D01*
X139041745Y-110998499D01*
X139174899Y-110909529D01*
X139322858Y-110848242D01*
X139479925Y-110817000D01*
X139640075Y-110817000D01*
X139797142Y-110848242D01*
G37*
G36*
X167737142Y-110848242D02*
G01*
X167885101Y-110909529D01*
X168018255Y-110998499D01*
X168131501Y-111111745D01*
X168220471Y-111244899D01*
X168281758Y-111392858D01*
X168313000Y-111549925D01*
X168313000Y-111710075D01*
X168281758Y-111867142D01*
X168220471Y-112015101D01*
X168131501Y-112148255D01*
X168018255Y-112261501D01*
X167885101Y-112350471D01*
X167737142Y-112411758D01*
X167580075Y-112443000D01*
X167419925Y-112443000D01*
X167262858Y-112411758D01*
X167114899Y-112350471D01*
X166981745Y-112261501D01*
X166868499Y-112148255D01*
X166779529Y-112015101D01*
X166718242Y-111867142D01*
X166687000Y-111710075D01*
X166687000Y-111549925D01*
X166718242Y-111392858D01*
X166779529Y-111244899D01*
X166868499Y-111111745D01*
X166981745Y-110998499D01*
X167114899Y-110909529D01*
X167262858Y-110848242D01*
X167419925Y-110817000D01*
X167580075Y-110817000D01*
X167737142Y-110848242D01*
G37*
G36*
X172817142Y-110848242D02*
G01*
X172965101Y-110909529D01*
X173098255Y-110998499D01*
X173211501Y-111111745D01*
X173300471Y-111244899D01*
X173361758Y-111392858D01*
X173393000Y-111549925D01*
X173393000Y-111710075D01*
X173361758Y-111867142D01*
X173300471Y-112015101D01*
X173211501Y-112148255D01*
X173098255Y-112261501D01*
X172965101Y-112350471D01*
X172817142Y-112411758D01*
X172660075Y-112443000D01*
X172499925Y-112443000D01*
X172342858Y-112411758D01*
X172194899Y-112350471D01*
X172061745Y-112261501D01*
X171948499Y-112148255D01*
X171859529Y-112015101D01*
X171798242Y-111867142D01*
X171767000Y-111710075D01*
X171767000Y-111549925D01*
X171798242Y-111392858D01*
X171859529Y-111244899D01*
X171948499Y-111111745D01*
X172061745Y-110998499D01*
X172194899Y-110909529D01*
X172342858Y-110848242D01*
X172499925Y-110817000D01*
X172660075Y-110817000D01*
X172817142Y-110848242D01*
G37*
G36*
X134717142Y-110848242D02*
G01*
X134865101Y-110909529D01*
X134998255Y-110998499D01*
X135111501Y-111111745D01*
X135200471Y-111244899D01*
X135261758Y-111392858D01*
X135293000Y-111549925D01*
X135293000Y-111710075D01*
X135261758Y-111867142D01*
X135200471Y-112015101D01*
X135111501Y-112148255D01*
X134998255Y-112261501D01*
X134865101Y-112350471D01*
X134717142Y-112411758D01*
X134560075Y-112443000D01*
X134399925Y-112443000D01*
X134242858Y-112411758D01*
X134094899Y-112350471D01*
X133961745Y-112261501D01*
X133848499Y-112148255D01*
X133759529Y-112015101D01*
X133698242Y-111867142D01*
X133667000Y-111710075D01*
X133667000Y-111549925D01*
X133698242Y-111392858D01*
X133759529Y-111244899D01*
X133848499Y-111111745D01*
X133961745Y-110998499D01*
X134094899Y-110909529D01*
X134242858Y-110848242D01*
X134399925Y-110817000D01*
X134560075Y-110817000D01*
X134717142Y-110848242D01*
G37*
G36*
X155037142Y-110848242D02*
G01*
X155185101Y-110909529D01*
X155318255Y-110998499D01*
X155431501Y-111111745D01*
X155520471Y-111244899D01*
X155581758Y-111392858D01*
X155613000Y-111549925D01*
X155613000Y-111710075D01*
X155581758Y-111867142D01*
X155520471Y-112015101D01*
X155431501Y-112148255D01*
X155318255Y-112261501D01*
X155185101Y-112350471D01*
X155037142Y-112411758D01*
X154880075Y-112443000D01*
X154719925Y-112443000D01*
X154562858Y-112411758D01*
X154414899Y-112350471D01*
X154281745Y-112261501D01*
X154168499Y-112148255D01*
X154079529Y-112015101D01*
X154018242Y-111867142D01*
X153987000Y-111710075D01*
X153987000Y-111549925D01*
X154018242Y-111392858D01*
X154079529Y-111244899D01*
X154168499Y-111111745D01*
X154281745Y-110998499D01*
X154414899Y-110909529D01*
X154562858Y-110848242D01*
X154719925Y-110817000D01*
X154880075Y-110817000D01*
X155037142Y-110848242D01*
G37*
G36*
X175357142Y-110848242D02*
G01*
X175505101Y-110909529D01*
X175638255Y-110998499D01*
X175751501Y-111111745D01*
X175840471Y-111244899D01*
X175901758Y-111392858D01*
X175933000Y-111549925D01*
X175933000Y-111710075D01*
X175901758Y-111867142D01*
X175840471Y-112015101D01*
X175751501Y-112148255D01*
X175638255Y-112261501D01*
X175505101Y-112350471D01*
X175357142Y-112411758D01*
X175200075Y-112443000D01*
X175039925Y-112443000D01*
X174882858Y-112411758D01*
X174734899Y-112350471D01*
X174601745Y-112261501D01*
X174488499Y-112148255D01*
X174399529Y-112015101D01*
X174338242Y-111867142D01*
X174307000Y-111710075D01*
X174307000Y-111549925D01*
X174338242Y-111392858D01*
X174399529Y-111244899D01*
X174488499Y-111111745D01*
X174601745Y-110998499D01*
X174734899Y-110909529D01*
X174882858Y-110848242D01*
X175039925Y-110817000D01*
X175200075Y-110817000D01*
X175357142Y-110848242D01*
G37*
G36*
X177897142Y-110848242D02*
G01*
X178045101Y-110909529D01*
X178178255Y-110998499D01*
X178291501Y-111111745D01*
X178380471Y-111244899D01*
X178441758Y-111392858D01*
X178473000Y-111549925D01*
X178473000Y-111710075D01*
X178441758Y-111867142D01*
X178380471Y-112015101D01*
X178291501Y-112148255D01*
X178178255Y-112261501D01*
X178045101Y-112350471D01*
X177897142Y-112411758D01*
X177740075Y-112443000D01*
X177579925Y-112443000D01*
X177422858Y-112411758D01*
X177274899Y-112350471D01*
X177141745Y-112261501D01*
X177028499Y-112148255D01*
X176939529Y-112015101D01*
X176878242Y-111867142D01*
X176847000Y-111710075D01*
X176847000Y-111549925D01*
X176878242Y-111392858D01*
X176939529Y-111244899D01*
X177028499Y-111111745D01*
X177141745Y-110998499D01*
X177274899Y-110909529D01*
X177422858Y-110848242D01*
X177579925Y-110817000D01*
X177740075Y-110817000D01*
X177897142Y-110848242D01*
G37*
G36*
X180437142Y-110848242D02*
G01*
X180585101Y-110909529D01*
X180718255Y-110998499D01*
X180831501Y-111111745D01*
X180920471Y-111244899D01*
X180981758Y-111392858D01*
X181013000Y-111549925D01*
X181013000Y-111710075D01*
X180981758Y-111867142D01*
X180920471Y-112015101D01*
X180831501Y-112148255D01*
X180718255Y-112261501D01*
X180585101Y-112350471D01*
X180437142Y-112411758D01*
X180280075Y-112443000D01*
X180119925Y-112443000D01*
X179962858Y-112411758D01*
X179814899Y-112350471D01*
X179681745Y-112261501D01*
X179568499Y-112148255D01*
X179479529Y-112015101D01*
X179418242Y-111867142D01*
X179387000Y-111710075D01*
X179387000Y-111549925D01*
X179418242Y-111392858D01*
X179479529Y-111244899D01*
X179568499Y-111111745D01*
X179681745Y-110998499D01*
X179814899Y-110909529D01*
X179962858Y-110848242D01*
X180119925Y-110817000D01*
X180280075Y-110817000D01*
X180437142Y-110848242D01*
G37*
G36*
X170277142Y-110848242D02*
G01*
X170425101Y-110909529D01*
X170558255Y-110998499D01*
X170671501Y-111111745D01*
X170760471Y-111244899D01*
X170821758Y-111392858D01*
X170853000Y-111549925D01*
X170853000Y-111710075D01*
X170821758Y-111867142D01*
X170760471Y-112015101D01*
X170671501Y-112148255D01*
X170558255Y-112261501D01*
X170425101Y-112350471D01*
X170277142Y-112411758D01*
X170120075Y-112443000D01*
X169959925Y-112443000D01*
X169802858Y-112411758D01*
X169654899Y-112350471D01*
X169521745Y-112261501D01*
X169408499Y-112148255D01*
X169319529Y-112015101D01*
X169258242Y-111867142D01*
X169227000Y-111710075D01*
X169227000Y-111549925D01*
X169258242Y-111392858D01*
X169319529Y-111244899D01*
X169408499Y-111111745D01*
X169521745Y-110998499D01*
X169654899Y-110909529D01*
X169802858Y-110848242D01*
X169959925Y-110817000D01*
X170120075Y-110817000D01*
X170277142Y-110848242D01*
G37*
G36*
X182977142Y-110848242D02*
G01*
X183125101Y-110909529D01*
X183258255Y-110998499D01*
X183371501Y-111111745D01*
X183460471Y-111244899D01*
X183521758Y-111392858D01*
X183553000Y-111549925D01*
X183553000Y-111710075D01*
X183521758Y-111867142D01*
X183460471Y-112015101D01*
X183371501Y-112148255D01*
X183258255Y-112261501D01*
X183125101Y-112350471D01*
X182977142Y-112411758D01*
X182820075Y-112443000D01*
X182659925Y-112443000D01*
X182502858Y-112411758D01*
X182354899Y-112350471D01*
X182221745Y-112261501D01*
X182108499Y-112148255D01*
X182019529Y-112015101D01*
X181958242Y-111867142D01*
X181927000Y-111710075D01*
X181927000Y-111549925D01*
X181958242Y-111392858D01*
X182019529Y-111244899D01*
X182108499Y-111111745D01*
X182221745Y-110998499D01*
X182354899Y-110909529D01*
X182502858Y-110848242D01*
X182659925Y-110817000D01*
X182820075Y-110817000D01*
X182977142Y-110848242D01*
G37*
G36*
X185517142Y-110848242D02*
G01*
X185665101Y-110909529D01*
X185798255Y-110998499D01*
X185911501Y-111111745D01*
X186000471Y-111244899D01*
X186061758Y-111392858D01*
X186093000Y-111549925D01*
X186093000Y-111710075D01*
X186061758Y-111867142D01*
X186000471Y-112015101D01*
X185911501Y-112148255D01*
X185798255Y-112261501D01*
X185665101Y-112350471D01*
X185517142Y-112411758D01*
X185360075Y-112443000D01*
X185199925Y-112443000D01*
X185042858Y-112411758D01*
X184894899Y-112350471D01*
X184761745Y-112261501D01*
X184648499Y-112148255D01*
X184559529Y-112015101D01*
X184498242Y-111867142D01*
X184467000Y-111710075D01*
X184467000Y-111549925D01*
X184498242Y-111392858D01*
X184559529Y-111244899D01*
X184648499Y-111111745D01*
X184761745Y-110998499D01*
X184894899Y-110909529D01*
X185042858Y-110848242D01*
X185199925Y-110817000D01*
X185360075Y-110817000D01*
X185517142Y-110848242D01*
G37*
G36*
X190597142Y-110848242D02*
G01*
X190745101Y-110909529D01*
X190878255Y-110998499D01*
X190991501Y-111111745D01*
X191080471Y-111244899D01*
X191141758Y-111392858D01*
X191173000Y-111549925D01*
X191173000Y-111710075D01*
X191141758Y-111867142D01*
X191080471Y-112015101D01*
X190991501Y-112148255D01*
X190878255Y-112261501D01*
X190745101Y-112350471D01*
X190597142Y-112411758D01*
X190440075Y-112443000D01*
X190279925Y-112443000D01*
X190122858Y-112411758D01*
X189974899Y-112350471D01*
X189841745Y-112261501D01*
X189728499Y-112148255D01*
X189639529Y-112015101D01*
X189578242Y-111867142D01*
X189547000Y-111710075D01*
X189547000Y-111549925D01*
X189578242Y-111392858D01*
X189639529Y-111244899D01*
X189728499Y-111111745D01*
X189841745Y-110998499D01*
X189974899Y-110909529D01*
X190122858Y-110848242D01*
X190279925Y-110817000D01*
X190440075Y-110817000D01*
X190597142Y-110848242D01*
G37*
G36*
X193137142Y-110848242D02*
G01*
X193285101Y-110909529D01*
X193418255Y-110998499D01*
X193531501Y-111111745D01*
X193620471Y-111244899D01*
X193681758Y-111392858D01*
X193713000Y-111549925D01*
X193713000Y-111710075D01*
X193681758Y-111867142D01*
X193620471Y-112015101D01*
X193531501Y-112148255D01*
X193418255Y-112261501D01*
X193285101Y-112350471D01*
X193137142Y-112411758D01*
X192980075Y-112443000D01*
X192819925Y-112443000D01*
X192662858Y-112411758D01*
X192514899Y-112350471D01*
X192381745Y-112261501D01*
X192268499Y-112148255D01*
X192179529Y-112015101D01*
X192118242Y-111867142D01*
X192087000Y-111710075D01*
X192087000Y-111549925D01*
X192118242Y-111392858D01*
X192179529Y-111244899D01*
X192268499Y-111111745D01*
X192381745Y-110998499D01*
X192514899Y-110909529D01*
X192662858Y-110848242D01*
X192819925Y-110817000D01*
X192980075Y-110817000D01*
X193137142Y-110848242D01*
G37*
G36*
X137257142Y-110848242D02*
G01*
X137405101Y-110909529D01*
X137538255Y-110998499D01*
X137651501Y-111111745D01*
X137740471Y-111244899D01*
X137801758Y-111392858D01*
X137833000Y-111549925D01*
X137833000Y-111710075D01*
X137801758Y-111867142D01*
X137740471Y-112015101D01*
X137651501Y-112148255D01*
X137538255Y-112261501D01*
X137405101Y-112350471D01*
X137257142Y-112411758D01*
X137100075Y-112443000D01*
X136939925Y-112443000D01*
X136782858Y-112411758D01*
X136634899Y-112350471D01*
X136501745Y-112261501D01*
X136388499Y-112148255D01*
X136299529Y-112015101D01*
X136238242Y-111867142D01*
X136207000Y-111710075D01*
X136207000Y-111549925D01*
X136238242Y-111392858D01*
X136299529Y-111244899D01*
X136388499Y-111111745D01*
X136501745Y-110998499D01*
X136634899Y-110909529D01*
X136782858Y-110848242D01*
X136939925Y-110817000D01*
X137100075Y-110817000D01*
X137257142Y-110848242D01*
G37*
G36*
X213901000Y-110401000D02*
G01*
X212099000Y-110401000D01*
X212099000Y-108599000D01*
X213901000Y-108599000D01*
X213901000Y-110401000D01*
G37*
G36*
X210151000Y-110401000D02*
G01*
X208349000Y-110401000D01*
X208349000Y-108599000D01*
X210151000Y-108599000D01*
X210151000Y-110401000D01*
G37*
G36*
X167003512Y-102853927D02*
G01*
X167152812Y-102883624D01*
X167316784Y-102951544D01*
X167464354Y-103050147D01*
X167589853Y-103175646D01*
X167688456Y-103323216D01*
X167756376Y-103487188D01*
X167791000Y-103661259D01*
X167791000Y-103838741D01*
X167756376Y-104012812D01*
X167688456Y-104176784D01*
X167589853Y-104324354D01*
X167464354Y-104449853D01*
X167316784Y-104548456D01*
X167152812Y-104616376D01*
X167003512Y-104646073D01*
X166978742Y-104651000D01*
X166801258Y-104651000D01*
X166776488Y-104646073D01*
X166627188Y-104616376D01*
X166463216Y-104548456D01*
X166315646Y-104449853D01*
X166190147Y-104324354D01*
X166091544Y-104176784D01*
X166023624Y-104012812D01*
X165989000Y-103838741D01*
X165989000Y-103661259D01*
X166023624Y-103487188D01*
X166091544Y-103323216D01*
X166190147Y-103175646D01*
X166315646Y-103050147D01*
X166463216Y-102951544D01*
X166627188Y-102883624D01*
X166776488Y-102853927D01*
X166801258Y-102849000D01*
X166978742Y-102849000D01*
X167003512Y-102853927D01*
G37*
G36*
X179703512Y-102853927D02*
G01*
X179852812Y-102883624D01*
X180016784Y-102951544D01*
X180164354Y-103050147D01*
X180289853Y-103175646D01*
X180388456Y-103323216D01*
X180456376Y-103487188D01*
X180491000Y-103661259D01*
X180491000Y-103838741D01*
X180456376Y-104012812D01*
X180388456Y-104176784D01*
X180289853Y-104324354D01*
X180164354Y-104449853D01*
X180016784Y-104548456D01*
X179852812Y-104616376D01*
X179703512Y-104646073D01*
X179678742Y-104651000D01*
X179501258Y-104651000D01*
X179476488Y-104646073D01*
X179327188Y-104616376D01*
X179163216Y-104548456D01*
X179015646Y-104449853D01*
X178890147Y-104324354D01*
X178791544Y-104176784D01*
X178723624Y-104012812D01*
X178689000Y-103838741D01*
X178689000Y-103661259D01*
X178723624Y-103487188D01*
X178791544Y-103323216D01*
X178890147Y-103175646D01*
X179015646Y-103050147D01*
X179163216Y-102951544D01*
X179327188Y-102883624D01*
X179476488Y-102853927D01*
X179501258Y-102849000D01*
X179678742Y-102849000D01*
X179703512Y-102853927D01*
G37*
G36*
X182243512Y-102853927D02*
G01*
X182392812Y-102883624D01*
X182556784Y-102951544D01*
X182704354Y-103050147D01*
X182829853Y-103175646D01*
X182928456Y-103323216D01*
X182996376Y-103487188D01*
X183031000Y-103661259D01*
X183031000Y-103838741D01*
X182996376Y-104012812D01*
X182928456Y-104176784D01*
X182829853Y-104324354D01*
X182704354Y-104449853D01*
X182556784Y-104548456D01*
X182392812Y-104616376D01*
X182243512Y-104646073D01*
X182218742Y-104651000D01*
X182041258Y-104651000D01*
X182016488Y-104646073D01*
X181867188Y-104616376D01*
X181703216Y-104548456D01*
X181555646Y-104449853D01*
X181430147Y-104324354D01*
X181331544Y-104176784D01*
X181263624Y-104012812D01*
X181229000Y-103838741D01*
X181229000Y-103661259D01*
X181263624Y-103487188D01*
X181331544Y-103323216D01*
X181430147Y-103175646D01*
X181555646Y-103050147D01*
X181703216Y-102951544D01*
X181867188Y-102883624D01*
X182016488Y-102853927D01*
X182041258Y-102849000D01*
X182218742Y-102849000D01*
X182243512Y-102853927D01*
G37*
G36*
X184783512Y-102853927D02*
G01*
X184932812Y-102883624D01*
X185096784Y-102951544D01*
X185244354Y-103050147D01*
X185369853Y-103175646D01*
X185468456Y-103323216D01*
X185536376Y-103487188D01*
X185571000Y-103661259D01*
X185571000Y-103838741D01*
X185536376Y-104012812D01*
X185468456Y-104176784D01*
X185369853Y-104324354D01*
X185244354Y-104449853D01*
X185096784Y-104548456D01*
X184932812Y-104616376D01*
X184783512Y-104646073D01*
X184758742Y-104651000D01*
X184581258Y-104651000D01*
X184556488Y-104646073D01*
X184407188Y-104616376D01*
X184243216Y-104548456D01*
X184095646Y-104449853D01*
X183970147Y-104324354D01*
X183871544Y-104176784D01*
X183803624Y-104012812D01*
X183769000Y-103838741D01*
X183769000Y-103661259D01*
X183803624Y-103487188D01*
X183871544Y-103323216D01*
X183970147Y-103175646D01*
X184095646Y-103050147D01*
X184243216Y-102951544D01*
X184407188Y-102883624D01*
X184556488Y-102853927D01*
X184581258Y-102849000D01*
X184758742Y-102849000D01*
X184783512Y-102853927D01*
G37*
G36*
X187323512Y-102853927D02*
G01*
X187472812Y-102883624D01*
X187636784Y-102951544D01*
X187784354Y-103050147D01*
X187909853Y-103175646D01*
X188008456Y-103323216D01*
X188076376Y-103487188D01*
X188111000Y-103661259D01*
X188111000Y-103838741D01*
X188076376Y-104012812D01*
X188008456Y-104176784D01*
X187909853Y-104324354D01*
X187784354Y-104449853D01*
X187636784Y-104548456D01*
X187472812Y-104616376D01*
X187323512Y-104646073D01*
X187298742Y-104651000D01*
X187121258Y-104651000D01*
X187096488Y-104646073D01*
X186947188Y-104616376D01*
X186783216Y-104548456D01*
X186635646Y-104449853D01*
X186510147Y-104324354D01*
X186411544Y-104176784D01*
X186343624Y-104012812D01*
X186309000Y-103838741D01*
X186309000Y-103661259D01*
X186343624Y-103487188D01*
X186411544Y-103323216D01*
X186510147Y-103175646D01*
X186635646Y-103050147D01*
X186783216Y-102951544D01*
X186947188Y-102883624D01*
X187096488Y-102853927D01*
X187121258Y-102849000D01*
X187298742Y-102849000D01*
X187323512Y-102853927D01*
G37*
G36*
X189863512Y-102853927D02*
G01*
X190012812Y-102883624D01*
X190176784Y-102951544D01*
X190324354Y-103050147D01*
X190449853Y-103175646D01*
X190548456Y-103323216D01*
X190616376Y-103487188D01*
X190651000Y-103661259D01*
X190651000Y-103838741D01*
X190616376Y-104012812D01*
X190548456Y-104176784D01*
X190449853Y-104324354D01*
X190324354Y-104449853D01*
X190176784Y-104548456D01*
X190012812Y-104616376D01*
X189863512Y-104646073D01*
X189838742Y-104651000D01*
X189661258Y-104651000D01*
X189636488Y-104646073D01*
X189487188Y-104616376D01*
X189323216Y-104548456D01*
X189175646Y-104449853D01*
X189050147Y-104324354D01*
X188951544Y-104176784D01*
X188883624Y-104012812D01*
X188849000Y-103838741D01*
X188849000Y-103661259D01*
X188883624Y-103487188D01*
X188951544Y-103323216D01*
X189050147Y-103175646D01*
X189175646Y-103050147D01*
X189323216Y-102951544D01*
X189487188Y-102883624D01*
X189636488Y-102853927D01*
X189661258Y-102849000D01*
X189838742Y-102849000D01*
X189863512Y-102853927D01*
G37*
G36*
X164463512Y-102853927D02*
G01*
X164612812Y-102883624D01*
X164776784Y-102951544D01*
X164924354Y-103050147D01*
X165049853Y-103175646D01*
X165148456Y-103323216D01*
X165216376Y-103487188D01*
X165251000Y-103661259D01*
X165251000Y-103838741D01*
X165216376Y-104012812D01*
X165148456Y-104176784D01*
X165049853Y-104324354D01*
X164924354Y-104449853D01*
X164776784Y-104548456D01*
X164612812Y-104616376D01*
X164463512Y-104646073D01*
X164438742Y-104651000D01*
X164261258Y-104651000D01*
X164236488Y-104646073D01*
X164087188Y-104616376D01*
X163923216Y-104548456D01*
X163775646Y-104449853D01*
X163650147Y-104324354D01*
X163551544Y-104176784D01*
X163483624Y-104012812D01*
X163449000Y-103838741D01*
X163449000Y-103661259D01*
X163483624Y-103487188D01*
X163551544Y-103323216D01*
X163650147Y-103175646D01*
X163775646Y-103050147D01*
X163923216Y-102951544D01*
X164087188Y-102883624D01*
X164236488Y-102853927D01*
X164261258Y-102849000D01*
X164438742Y-102849000D01*
X164463512Y-102853927D01*
G37*
G36*
X172083512Y-102853927D02*
G01*
X172232812Y-102883624D01*
X172396784Y-102951544D01*
X172544354Y-103050147D01*
X172669853Y-103175646D01*
X172768456Y-103323216D01*
X172836376Y-103487188D01*
X172871000Y-103661259D01*
X172871000Y-103838741D01*
X172836376Y-104012812D01*
X172768456Y-104176784D01*
X172669853Y-104324354D01*
X172544354Y-104449853D01*
X172396784Y-104548456D01*
X172232812Y-104616376D01*
X172083512Y-104646073D01*
X172058742Y-104651000D01*
X171881258Y-104651000D01*
X171856488Y-104646073D01*
X171707188Y-104616376D01*
X171543216Y-104548456D01*
X171395646Y-104449853D01*
X171270147Y-104324354D01*
X171171544Y-104176784D01*
X171103624Y-104012812D01*
X171069000Y-103838741D01*
X171069000Y-103661259D01*
X171103624Y-103487188D01*
X171171544Y-103323216D01*
X171270147Y-103175646D01*
X171395646Y-103050147D01*
X171543216Y-102951544D01*
X171707188Y-102883624D01*
X171856488Y-102853927D01*
X171881258Y-102849000D01*
X172058742Y-102849000D01*
X172083512Y-102853927D01*
G37*
G36*
X174623512Y-102853927D02*
G01*
X174772812Y-102883624D01*
X174936784Y-102951544D01*
X175084354Y-103050147D01*
X175209853Y-103175646D01*
X175308456Y-103323216D01*
X175376376Y-103487188D01*
X175411000Y-103661259D01*
X175411000Y-103838741D01*
X175376376Y-104012812D01*
X175308456Y-104176784D01*
X175209853Y-104324354D01*
X175084354Y-104449853D01*
X174936784Y-104548456D01*
X174772812Y-104616376D01*
X174623512Y-104646073D01*
X174598742Y-104651000D01*
X174421258Y-104651000D01*
X174396488Y-104646073D01*
X174247188Y-104616376D01*
X174083216Y-104548456D01*
X173935646Y-104449853D01*
X173810147Y-104324354D01*
X173711544Y-104176784D01*
X173643624Y-104012812D01*
X173609000Y-103838741D01*
X173609000Y-103661259D01*
X173643624Y-103487188D01*
X173711544Y-103323216D01*
X173810147Y-103175646D01*
X173935646Y-103050147D01*
X174083216Y-102951544D01*
X174247188Y-102883624D01*
X174396488Y-102853927D01*
X174421258Y-102849000D01*
X174598742Y-102849000D01*
X174623512Y-102853927D01*
G37*
G36*
X161923512Y-102853927D02*
G01*
X162072812Y-102883624D01*
X162236784Y-102951544D01*
X162384354Y-103050147D01*
X162509853Y-103175646D01*
X162608456Y-103323216D01*
X162676376Y-103487188D01*
X162711000Y-103661259D01*
X162711000Y-103838741D01*
X162676376Y-104012812D01*
X162608456Y-104176784D01*
X162509853Y-104324354D01*
X162384354Y-104449853D01*
X162236784Y-104548456D01*
X162072812Y-104616376D01*
X161923512Y-104646073D01*
X161898742Y-104651000D01*
X161721258Y-104651000D01*
X161696488Y-104646073D01*
X161547188Y-104616376D01*
X161383216Y-104548456D01*
X161235646Y-104449853D01*
X161110147Y-104324354D01*
X161011544Y-104176784D01*
X160943624Y-104012812D01*
X160909000Y-103838741D01*
X160909000Y-103661259D01*
X160943624Y-103487188D01*
X161011544Y-103323216D01*
X161110147Y-103175646D01*
X161235646Y-103050147D01*
X161383216Y-102951544D01*
X161547188Y-102883624D01*
X161696488Y-102853927D01*
X161721258Y-102849000D01*
X161898742Y-102849000D01*
X161923512Y-102853927D01*
G37*
G36*
X154303512Y-102853927D02*
G01*
X154452812Y-102883624D01*
X154616784Y-102951544D01*
X154764354Y-103050147D01*
X154889853Y-103175646D01*
X154988456Y-103323216D01*
X155056376Y-103487188D01*
X155091000Y-103661259D01*
X155091000Y-103838741D01*
X155056376Y-104012812D01*
X154988456Y-104176784D01*
X154889853Y-104324354D01*
X154764354Y-104449853D01*
X154616784Y-104548456D01*
X154452812Y-104616376D01*
X154303512Y-104646073D01*
X154278742Y-104651000D01*
X154101258Y-104651000D01*
X154076488Y-104646073D01*
X153927188Y-104616376D01*
X153763216Y-104548456D01*
X153615646Y-104449853D01*
X153490147Y-104324354D01*
X153391544Y-104176784D01*
X153323624Y-104012812D01*
X153289000Y-103838741D01*
X153289000Y-103661259D01*
X153323624Y-103487188D01*
X153391544Y-103323216D01*
X153490147Y-103175646D01*
X153615646Y-103050147D01*
X153763216Y-102951544D01*
X153927188Y-102883624D01*
X154076488Y-102853927D01*
X154101258Y-102849000D01*
X154278742Y-102849000D01*
X154303512Y-102853927D01*
G37*
G36*
X177163512Y-102853927D02*
G01*
X177312812Y-102883624D01*
X177476784Y-102951544D01*
X177624354Y-103050147D01*
X177749853Y-103175646D01*
X177848456Y-103323216D01*
X177916376Y-103487188D01*
X177951000Y-103661259D01*
X177951000Y-103838741D01*
X177916376Y-104012812D01*
X177848456Y-104176784D01*
X177749853Y-104324354D01*
X177624354Y-104449853D01*
X177476784Y-104548456D01*
X177312812Y-104616376D01*
X177163512Y-104646073D01*
X177138742Y-104651000D01*
X176961258Y-104651000D01*
X176936488Y-104646073D01*
X176787188Y-104616376D01*
X176623216Y-104548456D01*
X176475646Y-104449853D01*
X176350147Y-104324354D01*
X176251544Y-104176784D01*
X176183624Y-104012812D01*
X176149000Y-103838741D01*
X176149000Y-103661259D01*
X176183624Y-103487188D01*
X176251544Y-103323216D01*
X176350147Y-103175646D01*
X176475646Y-103050147D01*
X176623216Y-102951544D01*
X176787188Y-102883624D01*
X176936488Y-102853927D01*
X176961258Y-102849000D01*
X177138742Y-102849000D01*
X177163512Y-102853927D01*
G37*
G36*
X159383512Y-102853927D02*
G01*
X159532812Y-102883624D01*
X159696784Y-102951544D01*
X159844354Y-103050147D01*
X159969853Y-103175646D01*
X160068456Y-103323216D01*
X160136376Y-103487188D01*
X160171000Y-103661259D01*
X160171000Y-103838741D01*
X160136376Y-104012812D01*
X160068456Y-104176784D01*
X159969853Y-104324354D01*
X159844354Y-104449853D01*
X159696784Y-104548456D01*
X159532812Y-104616376D01*
X159383512Y-104646073D01*
X159358742Y-104651000D01*
X159181258Y-104651000D01*
X159156488Y-104646073D01*
X159007188Y-104616376D01*
X158843216Y-104548456D01*
X158695646Y-104449853D01*
X158570147Y-104324354D01*
X158471544Y-104176784D01*
X158403624Y-104012812D01*
X158369000Y-103838741D01*
X158369000Y-103661259D01*
X158403624Y-103487188D01*
X158471544Y-103323216D01*
X158570147Y-103175646D01*
X158695646Y-103050147D01*
X158843216Y-102951544D01*
X159007188Y-102883624D01*
X159156488Y-102853927D01*
X159181258Y-102849000D01*
X159358742Y-102849000D01*
X159383512Y-102853927D01*
G37*
G36*
X156843512Y-102853927D02*
G01*
X156992812Y-102883624D01*
X157156784Y-102951544D01*
X157304354Y-103050147D01*
X157429853Y-103175646D01*
X157528456Y-103323216D01*
X157596376Y-103487188D01*
X157631000Y-103661259D01*
X157631000Y-103838741D01*
X157596376Y-104012812D01*
X157528456Y-104176784D01*
X157429853Y-104324354D01*
X157304354Y-104449853D01*
X157156784Y-104548456D01*
X156992812Y-104616376D01*
X156843512Y-104646073D01*
X156818742Y-104651000D01*
X156641258Y-104651000D01*
X156616488Y-104646073D01*
X156467188Y-104616376D01*
X156303216Y-104548456D01*
X156155646Y-104449853D01*
X156030147Y-104324354D01*
X155931544Y-104176784D01*
X155863624Y-104012812D01*
X155829000Y-103838741D01*
X155829000Y-103661259D01*
X155863624Y-103487188D01*
X155931544Y-103323216D01*
X156030147Y-103175646D01*
X156155646Y-103050147D01*
X156303216Y-102951544D01*
X156467188Y-102883624D01*
X156616488Y-102853927D01*
X156641258Y-102849000D01*
X156818742Y-102849000D01*
X156843512Y-102853927D01*
G37*
G36*
X169543512Y-102853927D02*
G01*
X169692812Y-102883624D01*
X169856784Y-102951544D01*
X170004354Y-103050147D01*
X170129853Y-103175646D01*
X170228456Y-103323216D01*
X170296376Y-103487188D01*
X170331000Y-103661259D01*
X170331000Y-103838741D01*
X170296376Y-104012812D01*
X170228456Y-104176784D01*
X170129853Y-104324354D01*
X170004354Y-104449853D01*
X169856784Y-104548456D01*
X169692812Y-104616376D01*
X169543512Y-104646073D01*
X169518742Y-104651000D01*
X169341258Y-104651000D01*
X169316488Y-104646073D01*
X169167188Y-104616376D01*
X169003216Y-104548456D01*
X168855646Y-104449853D01*
X168730147Y-104324354D01*
X168631544Y-104176784D01*
X168563624Y-104012812D01*
X168529000Y-103838741D01*
X168529000Y-103661259D01*
X168563624Y-103487188D01*
X168631544Y-103323216D01*
X168730147Y-103175646D01*
X168855646Y-103050147D01*
X169003216Y-102951544D01*
X169167188Y-102883624D01*
X169316488Y-102853927D01*
X169341258Y-102849000D01*
X169518742Y-102849000D01*
X169543512Y-102853927D01*
G37*
G36*
X211317862Y-99101575D02*
G01*
X211337097Y-99107410D01*
X211354822Y-99116884D01*
X211370362Y-99129638D01*
X211383116Y-99145178D01*
X211392590Y-99162903D01*
X211398425Y-99182138D01*
X211401000Y-99208285D01*
X211401000Y-100291715D01*
X211398425Y-100317862D01*
X211392590Y-100337097D01*
X211383116Y-100354822D01*
X211370362Y-100370362D01*
X211354822Y-100383116D01*
X211337097Y-100392590D01*
X211317862Y-100398425D01*
X211291715Y-100401000D01*
X211029891Y-100401000D01*
X211005505Y-100403402D01*
X210982056Y-100410515D01*
X210960445Y-100422066D01*
X210941503Y-100437611D01*
X210925958Y-100456553D01*
X210914407Y-100478164D01*
X210907294Y-100501613D01*
X210904892Y-100525999D01*
X210907294Y-100550385D01*
X210914407Y-100573834D01*
X210925958Y-100595445D01*
X210941503Y-100614387D01*
X210960445Y-100629932D01*
X210982055Y-100641483D01*
X211058364Y-100673091D01*
X211164988Y-100744335D01*
X211255665Y-100835012D01*
X211326909Y-100941636D01*
X211375983Y-101060110D01*
X211401000Y-101185882D01*
X211401000Y-101314118D01*
X211375983Y-101439890D01*
X211326909Y-101558364D01*
X211255665Y-101664988D01*
X211164988Y-101755665D01*
X211058364Y-101826909D01*
X210939890Y-101875983D01*
X210932751Y-101877403D01*
X210909302Y-101884516D01*
X210887691Y-101896067D01*
X210868749Y-101911612D01*
X210853203Y-101930554D01*
X210841652Y-101952164D01*
X210834539Y-101975613D01*
X210832137Y-101999999D01*
X210834539Y-102024385D01*
X210841652Y-102047834D01*
X210853203Y-102069445D01*
X210868748Y-102088387D01*
X210887690Y-102103933D01*
X210909300Y-102115484D01*
X210932751Y-102122597D01*
X210939890Y-102124017D01*
X211058364Y-102173091D01*
X211164988Y-102244335D01*
X211255665Y-102335012D01*
X211326909Y-102441636D01*
X211375983Y-102560110D01*
X211401000Y-102685882D01*
X211401000Y-102814118D01*
X211375983Y-102939890D01*
X211326909Y-103058364D01*
X211255665Y-103164988D01*
X211164988Y-103255665D01*
X211058364Y-103326909D01*
X211058363Y-103326910D01*
X211058362Y-103326910D01*
X210939890Y-103375983D01*
X210814119Y-103401000D01*
X210685881Y-103401000D01*
X210560110Y-103375983D01*
X210441638Y-103326910D01*
X210441637Y-103326910D01*
X210441636Y-103326909D01*
X210335012Y-103255665D01*
X210244335Y-103164988D01*
X210173091Y-103058364D01*
X210124017Y-102939890D01*
X210099000Y-102814118D01*
X210099000Y-102685882D01*
X210124017Y-102560110D01*
X210173091Y-102441636D01*
X210244335Y-102335012D01*
X210335012Y-102244335D01*
X210441636Y-102173091D01*
X210560110Y-102124017D01*
X210567249Y-102122597D01*
X210590698Y-102115484D01*
X210612309Y-102103933D01*
X210631251Y-102088388D01*
X210646797Y-102069446D01*
X210658348Y-102047836D01*
X210665461Y-102024387D01*
X210667863Y-102000001D01*
X210665461Y-101975615D01*
X210658348Y-101952166D01*
X210646797Y-101930555D01*
X210631252Y-101911613D01*
X210612310Y-101896067D01*
X210590700Y-101884516D01*
X210567249Y-101877403D01*
X210560110Y-101875983D01*
X210441636Y-101826909D01*
X210335012Y-101755665D01*
X210244335Y-101664988D01*
X210173091Y-101558364D01*
X210124017Y-101439890D01*
X210099000Y-101314118D01*
X210099000Y-101185882D01*
X210124017Y-101060110D01*
X210173091Y-100941636D01*
X210244335Y-100835012D01*
X210335012Y-100744335D01*
X210441636Y-100673091D01*
X210517945Y-100641483D01*
X210539555Y-100629932D01*
X210558497Y-100614387D01*
X210574042Y-100595445D01*
X210585593Y-100573834D01*
X210592706Y-100550385D01*
X210595108Y-100525999D01*
X210592706Y-100501613D01*
X210585593Y-100478164D01*
X210574042Y-100456553D01*
X210558497Y-100437611D01*
X210539555Y-100422066D01*
X210517944Y-100410515D01*
X210494495Y-100403402D01*
X210470109Y-100401000D01*
X210208285Y-100401000D01*
X210182138Y-100398425D01*
X210162903Y-100392590D01*
X210145178Y-100383116D01*
X210129638Y-100370362D01*
X210116884Y-100354822D01*
X210107410Y-100337097D01*
X210101575Y-100317862D01*
X210099000Y-100291715D01*
X210099000Y-99208285D01*
X210101575Y-99182138D01*
X210107410Y-99162903D01*
X210116884Y-99145178D01*
X210129638Y-99129638D01*
X210145178Y-99116884D01*
X210162903Y-99107410D01*
X210182138Y-99101575D01*
X210208285Y-99099000D01*
X211291715Y-99099000D01*
X211317862Y-99101575D01*
G37*
G36*
X154303512Y-100313927D02*
G01*
X154452812Y-100343624D01*
X154616784Y-100411544D01*
X154764354Y-100510147D01*
X154889853Y-100635646D01*
X154988456Y-100783216D01*
X155056376Y-100947188D01*
X155091000Y-101121259D01*
X155091000Y-101298741D01*
X155056376Y-101472812D01*
X154988456Y-101636784D01*
X154889853Y-101784354D01*
X154764354Y-101909853D01*
X154616784Y-102008456D01*
X154452812Y-102076376D01*
X154314270Y-102103933D01*
X154278742Y-102111000D01*
X154101258Y-102111000D01*
X154065730Y-102103933D01*
X153927188Y-102076376D01*
X153763216Y-102008456D01*
X153615646Y-101909853D01*
X153490147Y-101784354D01*
X153391544Y-101636784D01*
X153323624Y-101472812D01*
X153289000Y-101298741D01*
X153289000Y-101121259D01*
X153323624Y-100947188D01*
X153391544Y-100783216D01*
X153490147Y-100635646D01*
X153615646Y-100510147D01*
X153763216Y-100411544D01*
X153927188Y-100343624D01*
X154076488Y-100313927D01*
X154101258Y-100309000D01*
X154278742Y-100309000D01*
X154303512Y-100313927D01*
G37*
G36*
X159383512Y-100313927D02*
G01*
X159532812Y-100343624D01*
X159696784Y-100411544D01*
X159844354Y-100510147D01*
X159969853Y-100635646D01*
X160068456Y-100783216D01*
X160136376Y-100947188D01*
X160171000Y-101121259D01*
X160171000Y-101298741D01*
X160136376Y-101472812D01*
X160068456Y-101636784D01*
X159969853Y-101784354D01*
X159844354Y-101909853D01*
X159696784Y-102008456D01*
X159532812Y-102076376D01*
X159394270Y-102103933D01*
X159358742Y-102111000D01*
X159181258Y-102111000D01*
X159145730Y-102103933D01*
X159007188Y-102076376D01*
X158843216Y-102008456D01*
X158695646Y-101909853D01*
X158570147Y-101784354D01*
X158471544Y-101636784D01*
X158403624Y-101472812D01*
X158369000Y-101298741D01*
X158369000Y-101121259D01*
X158403624Y-100947188D01*
X158471544Y-100783216D01*
X158570147Y-100635646D01*
X158695646Y-100510147D01*
X158843216Y-100411544D01*
X159007188Y-100343624D01*
X159156488Y-100313927D01*
X159181258Y-100309000D01*
X159358742Y-100309000D01*
X159383512Y-100313927D01*
G37*
G36*
X161923512Y-100313927D02*
G01*
X162072812Y-100343624D01*
X162236784Y-100411544D01*
X162384354Y-100510147D01*
X162509853Y-100635646D01*
X162608456Y-100783216D01*
X162676376Y-100947188D01*
X162711000Y-101121259D01*
X162711000Y-101298741D01*
X162676376Y-101472812D01*
X162608456Y-101636784D01*
X162509853Y-101784354D01*
X162384354Y-101909853D01*
X162236784Y-102008456D01*
X162072812Y-102076376D01*
X161934270Y-102103933D01*
X161898742Y-102111000D01*
X161721258Y-102111000D01*
X161685730Y-102103933D01*
X161547188Y-102076376D01*
X161383216Y-102008456D01*
X161235646Y-101909853D01*
X161110147Y-101784354D01*
X161011544Y-101636784D01*
X160943624Y-101472812D01*
X160909000Y-101298741D01*
X160909000Y-101121259D01*
X160943624Y-100947188D01*
X161011544Y-100783216D01*
X161110147Y-100635646D01*
X161235646Y-100510147D01*
X161383216Y-100411544D01*
X161547188Y-100343624D01*
X161696488Y-100313927D01*
X161721258Y-100309000D01*
X161898742Y-100309000D01*
X161923512Y-100313927D01*
G37*
G36*
X164463512Y-100313927D02*
G01*
X164612812Y-100343624D01*
X164776784Y-100411544D01*
X164924354Y-100510147D01*
X165049853Y-100635646D01*
X165148456Y-100783216D01*
X165216376Y-100947188D01*
X165251000Y-101121259D01*
X165251000Y-101298741D01*
X165216376Y-101472812D01*
X165148456Y-101636784D01*
X165049853Y-101784354D01*
X164924354Y-101909853D01*
X164776784Y-102008456D01*
X164612812Y-102076376D01*
X164474270Y-102103933D01*
X164438742Y-102111000D01*
X164261258Y-102111000D01*
X164225730Y-102103933D01*
X164087188Y-102076376D01*
X163923216Y-102008456D01*
X163775646Y-101909853D01*
X163650147Y-101784354D01*
X163551544Y-101636784D01*
X163483624Y-101472812D01*
X163449000Y-101298741D01*
X163449000Y-101121259D01*
X163483624Y-100947188D01*
X163551544Y-100783216D01*
X163650147Y-100635646D01*
X163775646Y-100510147D01*
X163923216Y-100411544D01*
X164087188Y-100343624D01*
X164236488Y-100313927D01*
X164261258Y-100309000D01*
X164438742Y-100309000D01*
X164463512Y-100313927D01*
G37*
G36*
X167003512Y-100313927D02*
G01*
X167152812Y-100343624D01*
X167316784Y-100411544D01*
X167464354Y-100510147D01*
X167589853Y-100635646D01*
X167688456Y-100783216D01*
X167756376Y-100947188D01*
X167791000Y-101121259D01*
X167791000Y-101298741D01*
X167756376Y-101472812D01*
X167688456Y-101636784D01*
X167589853Y-101784354D01*
X167464354Y-101909853D01*
X167316784Y-102008456D01*
X167152812Y-102076376D01*
X167014270Y-102103933D01*
X166978742Y-102111000D01*
X166801258Y-102111000D01*
X166765730Y-102103933D01*
X166627188Y-102076376D01*
X166463216Y-102008456D01*
X166315646Y-101909853D01*
X166190147Y-101784354D01*
X166091544Y-101636784D01*
X166023624Y-101472812D01*
X165989000Y-101298741D01*
X165989000Y-101121259D01*
X166023624Y-100947188D01*
X166091544Y-100783216D01*
X166190147Y-100635646D01*
X166315646Y-100510147D01*
X166463216Y-100411544D01*
X166627188Y-100343624D01*
X166776488Y-100313927D01*
X166801258Y-100309000D01*
X166978742Y-100309000D01*
X167003512Y-100313927D01*
G37*
G36*
X169543512Y-100313927D02*
G01*
X169692812Y-100343624D01*
X169856784Y-100411544D01*
X170004354Y-100510147D01*
X170129853Y-100635646D01*
X170228456Y-100783216D01*
X170296376Y-100947188D01*
X170331000Y-101121259D01*
X170331000Y-101298741D01*
X170296376Y-101472812D01*
X170228456Y-101636784D01*
X170129853Y-101784354D01*
X170004354Y-101909853D01*
X169856784Y-102008456D01*
X169692812Y-102076376D01*
X169554270Y-102103933D01*
X169518742Y-102111000D01*
X169341258Y-102111000D01*
X169305730Y-102103933D01*
X169167188Y-102076376D01*
X169003216Y-102008456D01*
X168855646Y-101909853D01*
X168730147Y-101784354D01*
X168631544Y-101636784D01*
X168563624Y-101472812D01*
X168529000Y-101298741D01*
X168529000Y-101121259D01*
X168563624Y-100947188D01*
X168631544Y-100783216D01*
X168730147Y-100635646D01*
X168855646Y-100510147D01*
X169003216Y-100411544D01*
X169167188Y-100343624D01*
X169316488Y-100313927D01*
X169341258Y-100309000D01*
X169518742Y-100309000D01*
X169543512Y-100313927D01*
G37*
G36*
X172083512Y-100313927D02*
G01*
X172232812Y-100343624D01*
X172396784Y-100411544D01*
X172544354Y-100510147D01*
X172669853Y-100635646D01*
X172768456Y-100783216D01*
X172836376Y-100947188D01*
X172871000Y-101121259D01*
X172871000Y-101298741D01*
X172836376Y-101472812D01*
X172768456Y-101636784D01*
X172669853Y-101784354D01*
X172544354Y-101909853D01*
X172396784Y-102008456D01*
X172232812Y-102076376D01*
X172094270Y-102103933D01*
X172058742Y-102111000D01*
X171881258Y-102111000D01*
X171845730Y-102103933D01*
X171707188Y-102076376D01*
X171543216Y-102008456D01*
X171395646Y-101909853D01*
X171270147Y-101784354D01*
X171171544Y-101636784D01*
X171103624Y-101472812D01*
X171069000Y-101298741D01*
X171069000Y-101121259D01*
X171103624Y-100947188D01*
X171171544Y-100783216D01*
X171270147Y-100635646D01*
X171395646Y-100510147D01*
X171543216Y-100411544D01*
X171707188Y-100343624D01*
X171856488Y-100313927D01*
X171881258Y-100309000D01*
X172058742Y-100309000D01*
X172083512Y-100313927D01*
G37*
G36*
X174623512Y-100313927D02*
G01*
X174772812Y-100343624D01*
X174936784Y-100411544D01*
X175084354Y-100510147D01*
X175209853Y-100635646D01*
X175308456Y-100783216D01*
X175376376Y-100947188D01*
X175411000Y-101121259D01*
X175411000Y-101298741D01*
X175376376Y-101472812D01*
X175308456Y-101636784D01*
X175209853Y-101784354D01*
X175084354Y-101909853D01*
X174936784Y-102008456D01*
X174772812Y-102076376D01*
X174634270Y-102103933D01*
X174598742Y-102111000D01*
X174421258Y-102111000D01*
X174385730Y-102103933D01*
X174247188Y-102076376D01*
X174083216Y-102008456D01*
X173935646Y-101909853D01*
X173810147Y-101784354D01*
X173711544Y-101636784D01*
X173643624Y-101472812D01*
X173609000Y-101298741D01*
X173609000Y-101121259D01*
X173643624Y-100947188D01*
X173711544Y-100783216D01*
X173810147Y-100635646D01*
X173935646Y-100510147D01*
X174083216Y-100411544D01*
X174247188Y-100343624D01*
X174396488Y-100313927D01*
X174421258Y-100309000D01*
X174598742Y-100309000D01*
X174623512Y-100313927D01*
G37*
G36*
X177163512Y-100313927D02*
G01*
X177312812Y-100343624D01*
X177476784Y-100411544D01*
X177624354Y-100510147D01*
X177749853Y-100635646D01*
X177848456Y-100783216D01*
X177916376Y-100947188D01*
X177951000Y-101121259D01*
X177951000Y-101298741D01*
X177916376Y-101472812D01*
X177848456Y-101636784D01*
X177749853Y-101784354D01*
X177624354Y-101909853D01*
X177476784Y-102008456D01*
X177312812Y-102076376D01*
X177174270Y-102103933D01*
X177138742Y-102111000D01*
X176961258Y-102111000D01*
X176925730Y-102103933D01*
X176787188Y-102076376D01*
X176623216Y-102008456D01*
X176475646Y-101909853D01*
X176350147Y-101784354D01*
X176251544Y-101636784D01*
X176183624Y-101472812D01*
X176149000Y-101298741D01*
X176149000Y-101121259D01*
X176183624Y-100947188D01*
X176251544Y-100783216D01*
X176350147Y-100635646D01*
X176475646Y-100510147D01*
X176623216Y-100411544D01*
X176787188Y-100343624D01*
X176936488Y-100313927D01*
X176961258Y-100309000D01*
X177138742Y-100309000D01*
X177163512Y-100313927D01*
G37*
G36*
X179703512Y-100313927D02*
G01*
X179852812Y-100343624D01*
X180016784Y-100411544D01*
X180164354Y-100510147D01*
X180289853Y-100635646D01*
X180388456Y-100783216D01*
X180456376Y-100947188D01*
X180491000Y-101121259D01*
X180491000Y-101298741D01*
X180456376Y-101472812D01*
X180388456Y-101636784D01*
X180289853Y-101784354D01*
X180164354Y-101909853D01*
X180016784Y-102008456D01*
X179852812Y-102076376D01*
X179714270Y-102103933D01*
X179678742Y-102111000D01*
X179501258Y-102111000D01*
X179465730Y-102103933D01*
X179327188Y-102076376D01*
X179163216Y-102008456D01*
X179015646Y-101909853D01*
X178890147Y-101784354D01*
X178791544Y-101636784D01*
X178723624Y-101472812D01*
X178689000Y-101298741D01*
X178689000Y-101121259D01*
X178723624Y-100947188D01*
X178791544Y-100783216D01*
X178890147Y-100635646D01*
X179015646Y-100510147D01*
X179163216Y-100411544D01*
X179327188Y-100343624D01*
X179476488Y-100313927D01*
X179501258Y-100309000D01*
X179678742Y-100309000D01*
X179703512Y-100313927D01*
G37*
G36*
X184783512Y-100313927D02*
G01*
X184932812Y-100343624D01*
X185096784Y-100411544D01*
X185244354Y-100510147D01*
X185369853Y-100635646D01*
X185468456Y-100783216D01*
X185536376Y-100947188D01*
X185571000Y-101121259D01*
X185571000Y-101298741D01*
X185536376Y-101472812D01*
X185468456Y-101636784D01*
X185369853Y-101784354D01*
X185244354Y-101909853D01*
X185096784Y-102008456D01*
X184932812Y-102076376D01*
X184794270Y-102103933D01*
X184758742Y-102111000D01*
X184581258Y-102111000D01*
X184545730Y-102103933D01*
X184407188Y-102076376D01*
X184243216Y-102008456D01*
X184095646Y-101909853D01*
X183970147Y-101784354D01*
X183871544Y-101636784D01*
X183803624Y-101472812D01*
X183769000Y-101298741D01*
X183769000Y-101121259D01*
X183803624Y-100947188D01*
X183871544Y-100783216D01*
X183970147Y-100635646D01*
X184095646Y-100510147D01*
X184243216Y-100411544D01*
X184407188Y-100343624D01*
X184556488Y-100313927D01*
X184581258Y-100309000D01*
X184758742Y-100309000D01*
X184783512Y-100313927D01*
G37*
G36*
X182243512Y-100313927D02*
G01*
X182392812Y-100343624D01*
X182556784Y-100411544D01*
X182704354Y-100510147D01*
X182829853Y-100635646D01*
X182928456Y-100783216D01*
X182996376Y-100947188D01*
X183031000Y-101121259D01*
X183031000Y-101298741D01*
X182996376Y-101472812D01*
X182928456Y-101636784D01*
X182829853Y-101784354D01*
X182704354Y-101909853D01*
X182556784Y-102008456D01*
X182392812Y-102076376D01*
X182254270Y-102103933D01*
X182218742Y-102111000D01*
X182041258Y-102111000D01*
X182005730Y-102103933D01*
X181867188Y-102076376D01*
X181703216Y-102008456D01*
X181555646Y-101909853D01*
X181430147Y-101784354D01*
X181331544Y-101636784D01*
X181263624Y-101472812D01*
X181229000Y-101298741D01*
X181229000Y-101121259D01*
X181263624Y-100947188D01*
X181331544Y-100783216D01*
X181430147Y-100635646D01*
X181555646Y-100510147D01*
X181703216Y-100411544D01*
X181867188Y-100343624D01*
X182016488Y-100313927D01*
X182041258Y-100309000D01*
X182218742Y-100309000D01*
X182243512Y-100313927D01*
G37*
G36*
X187323512Y-100313927D02*
G01*
X187472812Y-100343624D01*
X187636784Y-100411544D01*
X187784354Y-100510147D01*
X187909853Y-100635646D01*
X188008456Y-100783216D01*
X188076376Y-100947188D01*
X188111000Y-101121259D01*
X188111000Y-101298741D01*
X188076376Y-101472812D01*
X188008456Y-101636784D01*
X187909853Y-101784354D01*
X187784354Y-101909853D01*
X187636784Y-102008456D01*
X187472812Y-102076376D01*
X187334270Y-102103933D01*
X187298742Y-102111000D01*
X187121258Y-102111000D01*
X187085730Y-102103933D01*
X186947188Y-102076376D01*
X186783216Y-102008456D01*
X186635646Y-101909853D01*
X186510147Y-101784354D01*
X186411544Y-101636784D01*
X186343624Y-101472812D01*
X186309000Y-101298741D01*
X186309000Y-101121259D01*
X186343624Y-100947188D01*
X186411544Y-100783216D01*
X186510147Y-100635646D01*
X186635646Y-100510147D01*
X186783216Y-100411544D01*
X186947188Y-100343624D01*
X187096488Y-100313927D01*
X187121258Y-100309000D01*
X187298742Y-100309000D01*
X187323512Y-100313927D01*
G37*
G36*
X190651000Y-102111000D02*
G01*
X188849000Y-102111000D01*
X188849000Y-100309000D01*
X190651000Y-100309000D01*
X190651000Y-102111000D01*
G37*
G36*
X156843512Y-100313927D02*
G01*
X156992812Y-100343624D01*
X157156784Y-100411544D01*
X157304354Y-100510147D01*
X157429853Y-100635646D01*
X157528456Y-100783216D01*
X157596376Y-100947188D01*
X157631000Y-101121259D01*
X157631000Y-101298741D01*
X157596376Y-101472812D01*
X157528456Y-101636784D01*
X157429853Y-101784354D01*
X157304354Y-101909853D01*
X157156784Y-102008456D01*
X156992812Y-102076376D01*
X156854270Y-102103933D01*
X156818742Y-102111000D01*
X156641258Y-102111000D01*
X156605730Y-102103933D01*
X156467188Y-102076376D01*
X156303216Y-102008456D01*
X156155646Y-101909853D01*
X156030147Y-101784354D01*
X155931544Y-101636784D01*
X155863624Y-101472812D01*
X155829000Y-101298741D01*
X155829000Y-101121259D01*
X155863624Y-100947188D01*
X155931544Y-100783216D01*
X156030147Y-100635646D01*
X156155646Y-100510147D01*
X156303216Y-100411544D01*
X156467188Y-100343624D01*
X156616488Y-100313927D01*
X156641258Y-100309000D01*
X156818742Y-100309000D01*
X156843512Y-100313927D01*
G37*
M02*
