G04 #@! TF.GenerationSoftware,KiCad,Pcbnew,5.1.5*
G04 #@! TF.CreationDate,2020-07-14T01:00:17+09:00*
G04 #@! TF.ProjectId,teabiscuits_compute,74656162-6973-4637-9569-74735f636f6d,rev?*
G04 #@! TF.SameCoordinates,Original*
G04 #@! TF.FileFunction,Copper,L2,Bot*
G04 #@! TF.FilePolarity,Positive*
%FSLAX46Y46*%
G04 Gerber Fmt 4.6, Leading zero omitted, Abs format (unit mm)*
G04 Created by KiCad (PCBNEW 5.1.5) date 2020-07-14 01:00:17*
%MOMM*%
%LPD*%
G04 APERTURE LIST*
%ADD10R,1.700000X1.700000*%
%ADD11O,1.700000X1.700000*%
%ADD12O,1.200000X1.200000*%
%ADD13C,0.100000*%
%ADD14C,1.524000*%
%ADD15C,3.110000*%
%ADD16C,0.800000*%
%ADD17C,1.000000*%
%ADD18C,0.250000*%
%ADD19C,0.254000*%
G04 APERTURE END LIST*
D10*
X209250000Y-109500000D03*
D11*
X209250000Y-112040000D03*
X209250000Y-114580000D03*
X209250000Y-117120000D03*
X209250000Y-119660000D03*
X209250000Y-122200000D03*
X209250000Y-124740000D03*
X213000000Y-124740000D03*
X213000000Y-122200000D03*
X213000000Y-119660000D03*
X213000000Y-117120000D03*
X213000000Y-114580000D03*
X213000000Y-112040000D03*
D10*
X213000000Y-109500000D03*
X113250000Y-111710000D03*
D11*
X113250000Y-114250000D03*
X113250000Y-116790000D03*
X113250000Y-119330000D03*
X113250000Y-121870000D03*
D12*
X210750000Y-102750000D03*
X210750000Y-101250000D03*
G04 #@! TA.AperFunction,ComponentPad*
D13*
G36*
X211190890Y-99150849D02*
G01*
X211208014Y-99153389D01*
X211224806Y-99157596D01*
X211241105Y-99163428D01*
X211256754Y-99170829D01*
X211271603Y-99179729D01*
X211285507Y-99190041D01*
X211298334Y-99201666D01*
X211309959Y-99214493D01*
X211320271Y-99228397D01*
X211329171Y-99243246D01*
X211336572Y-99258895D01*
X211342404Y-99275194D01*
X211346611Y-99291986D01*
X211349151Y-99309110D01*
X211350000Y-99326400D01*
X211350000Y-100173600D01*
X211349151Y-100190890D01*
X211346611Y-100208014D01*
X211342404Y-100224806D01*
X211336572Y-100241105D01*
X211329171Y-100256754D01*
X211320271Y-100271603D01*
X211309959Y-100285507D01*
X211298334Y-100298334D01*
X211285507Y-100309959D01*
X211271603Y-100320271D01*
X211256754Y-100329171D01*
X211241105Y-100336572D01*
X211224806Y-100342404D01*
X211208014Y-100346611D01*
X211190890Y-100349151D01*
X211173600Y-100350000D01*
X210326400Y-100350000D01*
X210309110Y-100349151D01*
X210291986Y-100346611D01*
X210275194Y-100342404D01*
X210258895Y-100336572D01*
X210243246Y-100329171D01*
X210228397Y-100320271D01*
X210214493Y-100309959D01*
X210201666Y-100298334D01*
X210190041Y-100285507D01*
X210179729Y-100271603D01*
X210170829Y-100256754D01*
X210163428Y-100241105D01*
X210157596Y-100224806D01*
X210153389Y-100208014D01*
X210150849Y-100190890D01*
X210150000Y-100173600D01*
X210150000Y-99326400D01*
X210150849Y-99309110D01*
X210153389Y-99291986D01*
X210157596Y-99275194D01*
X210163428Y-99258895D01*
X210170829Y-99243246D01*
X210179729Y-99228397D01*
X210190041Y-99214493D01*
X210201666Y-99201666D01*
X210214493Y-99190041D01*
X210228397Y-99179729D01*
X210243246Y-99170829D01*
X210258895Y-99163428D01*
X210275194Y-99157596D01*
X210291986Y-99153389D01*
X210309110Y-99150849D01*
X210326400Y-99150000D01*
X211173600Y-99150000D01*
X211190890Y-99150849D01*
G37*
G04 #@! TD.AperFunction*
D10*
X189750000Y-101210000D03*
D11*
X189750000Y-103750000D03*
X187210000Y-101210000D03*
X187210000Y-103750000D03*
X184670000Y-101210000D03*
X184670000Y-103750000D03*
X182130000Y-101210000D03*
X182130000Y-103750000D03*
X179590000Y-101210000D03*
X179590000Y-103750000D03*
X177050000Y-101210000D03*
X177050000Y-103750000D03*
X174510000Y-101210000D03*
X174510000Y-103750000D03*
X171970000Y-101210000D03*
X171970000Y-103750000D03*
X169430000Y-101210000D03*
X169430000Y-103750000D03*
X166890000Y-101210000D03*
X166890000Y-103750000D03*
X164350000Y-101210000D03*
X164350000Y-103750000D03*
X161810000Y-101210000D03*
X161810000Y-103750000D03*
X159270000Y-101210000D03*
X159270000Y-103750000D03*
X156730000Y-101210000D03*
X156730000Y-103750000D03*
X154190000Y-101210000D03*
X154190000Y-103750000D03*
D14*
X192900000Y-111630000D03*
X190360000Y-111630000D03*
X187820000Y-111630000D03*
X185280000Y-111630000D03*
X182740000Y-111630000D03*
X180200000Y-111630000D03*
X177660000Y-111630000D03*
X175120000Y-111630000D03*
X172580000Y-111630000D03*
X170040000Y-111630000D03*
X167500000Y-111630000D03*
X164960000Y-111630000D03*
X162420000Y-111630000D03*
X159880000Y-111630000D03*
X157340000Y-111630000D03*
X154800000Y-111630000D03*
X152260000Y-111630000D03*
X149720000Y-111630000D03*
X147180000Y-111630000D03*
X144640000Y-111630000D03*
X142100000Y-111630000D03*
X139560000Y-111630000D03*
X137020000Y-111630000D03*
X134480000Y-111630000D03*
X154800000Y-126870000D03*
X180200000Y-126870000D03*
X172580000Y-126870000D03*
X177660000Y-126870000D03*
X192900000Y-126870000D03*
X167500000Y-126870000D03*
X147180000Y-126870000D03*
X159880000Y-126870000D03*
X137020000Y-126870000D03*
X134480000Y-126870000D03*
X170040000Y-126870000D03*
X142100000Y-126870000D03*
X144640000Y-126870000D03*
X152260000Y-126870000D03*
X182740000Y-126870000D03*
X175120000Y-126870000D03*
X185280000Y-126870000D03*
X164960000Y-126870000D03*
X190360000Y-126870000D03*
X149720000Y-126870000D03*
X162420000Y-126870000D03*
X157340000Y-126870000D03*
X139560000Y-126870000D03*
X187820000Y-126870000D03*
D15*
X197000000Y-106250000D03*
X212000000Y-131250000D03*
X114250000Y-131250000D03*
D16*
X121000000Y-130000000D03*
X133500000Y-137000000D03*
X145500000Y-137000000D03*
X157500000Y-137000000D03*
X169500000Y-137000000D03*
X201250000Y-134750000D03*
X205000000Y-102750000D03*
X124750000Y-136000000D03*
X141250000Y-134750000D03*
X153250000Y-134750000D03*
X165250000Y-134750000D03*
X177250000Y-134750000D03*
D15*
X129250000Y-106250000D03*
D16*
X201250000Y-127500000D03*
X199500000Y-110500000D03*
X168500000Y-135500000D03*
X166000000Y-136500000D03*
X156500000Y-135500000D03*
X154000000Y-136500000D03*
X142000000Y-136537510D03*
X144500000Y-135500000D03*
X134500000Y-142000000D03*
X165000000Y-118500000D03*
X162500000Y-121000000D03*
X161000000Y-122500000D03*
X118000000Y-125000000D03*
X139750000Y-98375000D03*
X152000000Y-100250000D03*
X141250305Y-99525000D03*
X141750000Y-114750000D03*
X123500000Y-136500000D03*
X124750000Y-131500000D03*
X130000000Y-115500000D03*
X149750000Y-131750000D03*
X198250000Y-141750000D03*
X178750000Y-139500000D03*
X166750000Y-139500000D03*
X154750000Y-139500000D03*
X142750000Y-139500000D03*
X118500000Y-132250000D03*
D17*
X210150000Y-99750000D02*
X201250000Y-108650000D01*
D18*
X210750000Y-99750000D02*
X210150000Y-99750000D01*
D17*
X201250000Y-134750000D02*
X198000000Y-138000000D01*
X121500000Y-138000000D02*
X119750000Y-136250000D01*
X119750000Y-136250000D02*
X119750000Y-131000000D01*
X119750000Y-131000000D02*
X120750000Y-130000000D01*
D18*
X120750000Y-130000000D02*
X121000000Y-130000000D01*
D17*
X133250000Y-138000000D02*
X122500000Y-138000000D01*
X142750000Y-138000000D02*
X133500000Y-138000000D01*
X133500000Y-138000000D02*
X133500000Y-137000000D01*
X154750000Y-138000000D02*
X145500000Y-138000000D01*
X166750000Y-138000000D02*
X157500000Y-138000000D01*
X178750000Y-138000000D02*
X169500000Y-138000000D01*
X145500000Y-138000000D02*
X145500000Y-137000000D01*
X157500000Y-138000000D02*
X157500000Y-137000000D01*
X169500000Y-138000000D02*
X169500000Y-137000000D01*
X198000000Y-138000000D02*
X121500000Y-138000000D01*
X205000000Y-102750000D02*
X199000000Y-108750000D01*
X199000000Y-108750000D02*
X198000000Y-109750000D01*
X198000000Y-109750000D02*
X198000000Y-124799998D01*
X198000000Y-124799998D02*
X198000000Y-131250000D01*
X198000000Y-131250000D02*
X195500000Y-133750000D01*
X127000000Y-133750000D02*
X124750000Y-136000000D01*
X141250000Y-133750000D02*
X141250000Y-134750000D01*
X153250000Y-133750000D02*
X153250000Y-134750000D01*
X165250000Y-133750000D02*
X165250000Y-134750000D01*
X177250000Y-133750000D02*
X177250000Y-134750000D01*
X195500000Y-133750000D02*
X141000000Y-133750000D01*
X141000000Y-133750000D02*
X127000000Y-133750000D01*
X201250000Y-127500000D02*
X201250000Y-134750000D01*
X201250000Y-108650000D02*
X201250000Y-127500000D01*
D18*
X165000000Y-111670000D02*
X164960000Y-111630000D01*
X165000000Y-118500000D02*
X165000000Y-111670000D01*
X162500000Y-111710000D02*
X162420000Y-111630000D01*
X162500000Y-121000000D02*
X162500000Y-111710000D01*
X159880000Y-121380000D02*
X159880000Y-111630000D01*
X161000000Y-122500000D02*
X159880000Y-121380000D01*
X147180000Y-125792370D02*
X146137630Y-124750000D01*
X147180000Y-126870000D02*
X147180000Y-125792370D01*
X146137630Y-124750000D02*
X118250000Y-124750000D01*
X118250000Y-124750000D02*
X118000000Y-125000000D01*
X113250000Y-116790000D02*
X144960000Y-116790000D01*
X147180000Y-114570000D02*
X147180000Y-111630000D01*
X144960000Y-116790000D02*
X147180000Y-114570000D01*
X113250000Y-119330000D02*
X147920000Y-119330000D01*
X149720000Y-117530000D02*
X149720000Y-111630000D01*
X147920000Y-119330000D02*
X149720000Y-117530000D01*
X114452081Y-121870000D02*
X115832081Y-123250000D01*
X113250000Y-121870000D02*
X114452081Y-121870000D01*
X115832081Y-123250000D02*
X149000000Y-123250000D01*
X149720000Y-123970000D02*
X149720000Y-126870000D01*
X149000000Y-123250000D02*
X149720000Y-123970000D01*
X174510000Y-100007919D02*
X174500000Y-99997919D01*
X174510000Y-101210000D02*
X174510000Y-99060020D01*
X174510000Y-99060020D02*
X174000000Y-98550020D01*
X174000000Y-98550020D02*
X151250000Y-98550020D01*
X153250000Y-107500000D02*
X153250000Y-110080000D01*
X150750000Y-105000000D02*
X153250000Y-107500000D01*
X150750000Y-100000000D02*
X150750000Y-105000000D01*
X173145001Y-102385001D02*
X173145001Y-99895001D01*
X174510000Y-103750000D02*
X173145001Y-102385001D01*
X173145001Y-99895001D02*
X172250030Y-99000030D01*
X172250030Y-99000030D02*
X151749970Y-99000030D01*
X153250000Y-110080000D02*
X154800000Y-111630000D01*
X151749970Y-99000030D02*
X150750000Y-100000000D01*
X151250000Y-98550020D02*
X150250000Y-99550020D01*
X150250000Y-99550020D02*
X150250000Y-107000000D01*
X152260000Y-109010000D02*
X152260000Y-111630000D01*
X150250000Y-107000000D02*
X152260000Y-109010000D01*
X144640000Y-99110000D02*
X144640000Y-111630000D01*
X175874999Y-102574999D02*
X175874999Y-98374999D01*
X177050000Y-103750000D02*
X175874999Y-102574999D01*
X175874999Y-98374999D02*
X175600010Y-98100010D01*
X175600010Y-98100010D02*
X145649990Y-98100010D01*
X145649990Y-98100010D02*
X144640000Y-99110000D01*
X139750000Y-111440000D02*
X139560000Y-111630000D01*
X139750000Y-98375000D02*
X139750000Y-111440000D01*
X168065001Y-101584003D02*
X168065001Y-99815001D01*
X169430000Y-103750000D02*
X169430000Y-102949002D01*
X169430000Y-102949002D02*
X168065001Y-101584003D01*
X168065001Y-99815001D02*
X168065001Y-99450040D01*
X168065001Y-99450040D02*
X152799960Y-99450040D01*
X152799960Y-99450040D02*
X152000000Y-100250000D01*
X164250000Y-103850000D02*
X164350000Y-103750000D01*
X140850306Y-113850306D02*
X141750000Y-114750000D01*
X140850306Y-99924999D02*
X140850306Y-113850306D01*
X141250305Y-99525000D02*
X140850306Y-99924999D01*
X166047001Y-111108239D02*
X164938762Y-110000000D01*
X167500000Y-126870000D02*
X166047001Y-125417001D01*
X166047001Y-125417001D02*
X166047001Y-111108239D01*
X164938762Y-110000000D02*
X154750000Y-110000000D01*
X154190000Y-109440000D02*
X154190000Y-103750000D01*
X154750000Y-110000000D02*
X154190000Y-109440000D01*
X168952999Y-111474237D02*
X166978762Y-109500000D01*
X170040000Y-126870000D02*
X168952999Y-125782999D01*
X168952999Y-125782999D02*
X168952999Y-111474237D01*
X155039999Y-102059999D02*
X154190000Y-101210000D01*
X155365001Y-102385001D02*
X155039999Y-102059999D01*
X155365001Y-109115001D02*
X155365001Y-102385001D01*
X155750000Y-109500000D02*
X155365001Y-109115001D01*
X166978762Y-109500000D02*
X155750000Y-109500000D01*
X171127001Y-111108239D02*
X169018762Y-109000000D01*
X171127001Y-124339371D02*
X171127001Y-111108239D01*
X172580000Y-126870000D02*
X172580000Y-125792370D01*
X172580000Y-125792370D02*
X171127001Y-124339371D01*
X169018762Y-109000000D02*
X157500000Y-109000000D01*
X156730000Y-108230000D02*
X156730000Y-103750000D01*
X157500000Y-109000000D02*
X156730000Y-108230000D01*
X173667001Y-111108239D02*
X171058762Y-108500000D01*
X173667001Y-124339371D02*
X173667001Y-111108239D01*
X175120000Y-126870000D02*
X175120000Y-125792370D01*
X175120000Y-125792370D02*
X173667001Y-124339371D01*
X171058762Y-108500000D02*
X159250000Y-108500000D01*
X157579999Y-102059999D02*
X156730000Y-101210000D01*
X157905001Y-102385001D02*
X157579999Y-102059999D01*
X157905001Y-107155001D02*
X157905001Y-102385001D01*
X159250000Y-108500000D02*
X157905001Y-107155001D01*
X177660000Y-126870000D02*
X177660000Y-125660000D01*
X176207001Y-111108239D02*
X173148752Y-108049990D01*
X177660000Y-125660000D02*
X176207001Y-124207001D01*
X176207001Y-124207001D02*
X176207001Y-111108239D01*
X173148752Y-108049990D02*
X160299990Y-108049990D01*
X159270000Y-107020000D02*
X159270000Y-103750000D01*
X160299990Y-108049990D02*
X159270000Y-107020000D01*
X178747001Y-111108239D02*
X175138762Y-107500000D01*
X180200000Y-126870000D02*
X178747001Y-125417001D01*
X178747001Y-125417001D02*
X178747001Y-111108239D01*
X175138762Y-107500000D02*
X161500000Y-107500000D01*
X160445001Y-102385001D02*
X160119999Y-102059999D01*
X160445001Y-106445001D02*
X160445001Y-102385001D01*
X160119999Y-102059999D02*
X159270000Y-101210000D01*
X161500000Y-107500000D02*
X160445001Y-106445001D01*
X181287001Y-111108239D02*
X177178762Y-107000000D01*
X182740000Y-126870000D02*
X181287001Y-125417001D01*
X181287001Y-125417001D02*
X181287001Y-111108239D01*
X177178762Y-107000000D02*
X162750000Y-107000000D01*
X161810000Y-106060000D02*
X161810000Y-103750000D01*
X162750000Y-107000000D02*
X161810000Y-106060000D01*
X185280000Y-126870000D02*
X185280000Y-125780000D01*
X183827001Y-111108239D02*
X179268752Y-106549990D01*
X183827001Y-124339371D02*
X183827001Y-111108239D01*
X185280000Y-126870000D02*
X185280000Y-125792370D01*
X185280000Y-125792370D02*
X183827001Y-124339371D01*
X165410988Y-106549990D02*
X165360998Y-106500000D01*
X179268752Y-106549990D02*
X165410988Y-106549990D01*
X165360998Y-106500000D02*
X163750000Y-106500000D01*
X162985001Y-102385001D02*
X162659999Y-102059999D01*
X162659999Y-102059999D02*
X161810000Y-101210000D01*
X162985001Y-105735001D02*
X162985001Y-102385001D01*
X163750000Y-106500000D02*
X162985001Y-105735001D01*
X123500000Y-136500000D02*
X123500000Y-135000000D01*
X123500000Y-135000000D02*
X124750000Y-133750000D01*
X124750000Y-133750000D02*
X124750000Y-131500000D01*
X142073002Y-115500000D02*
X130000000Y-115500000D01*
X142861999Y-114711003D02*
X142073002Y-115500000D01*
X142100000Y-111630000D02*
X142861999Y-112391999D01*
X142861999Y-112391999D02*
X142861999Y-114711003D01*
X152260000Y-129240000D02*
X152260000Y-126870000D01*
X149750000Y-131750000D02*
X152260000Y-129240000D01*
X198250000Y-141750000D02*
X197500000Y-141750000D01*
X197500000Y-141750000D02*
X195250000Y-139500000D01*
X195250000Y-139500000D02*
X178750000Y-139500000D01*
X178750000Y-139500000D02*
X166750000Y-139500000D01*
X166750000Y-139500000D02*
X154750000Y-139500000D01*
X154750000Y-139500000D02*
X142750000Y-139500000D01*
X142750000Y-139500000D02*
X121250000Y-139500000D01*
X121250000Y-139500000D02*
X118500000Y-136750000D01*
X118500000Y-136750000D02*
X118500000Y-132250000D01*
D19*
G36*
X214590001Y-147340000D02*
G01*
X174495000Y-147340000D01*
X174495000Y-143533647D01*
X174498314Y-143500000D01*
X174485088Y-143365717D01*
X174445919Y-143236594D01*
X174382312Y-143117593D01*
X174296711Y-143013289D01*
X174192407Y-142927688D01*
X174073406Y-142864081D01*
X173944283Y-142824912D01*
X173843647Y-142815000D01*
X173810000Y-142811686D01*
X173776353Y-142815000D01*
X170343647Y-142815000D01*
X170310000Y-142811686D01*
X170276353Y-142815000D01*
X170175717Y-142824912D01*
X170046594Y-142864081D01*
X169927593Y-142927688D01*
X169823289Y-143013289D01*
X169737688Y-143117593D01*
X169674081Y-143236594D01*
X169634912Y-143365717D01*
X169621686Y-143500000D01*
X169625000Y-143533647D01*
X169625001Y-147340000D01*
X162495000Y-147340000D01*
X162495000Y-143533647D01*
X162498314Y-143500000D01*
X162485088Y-143365717D01*
X162445919Y-143236594D01*
X162382312Y-143117593D01*
X162296711Y-143013289D01*
X162192407Y-142927688D01*
X162073406Y-142864081D01*
X161944283Y-142824912D01*
X161843647Y-142815000D01*
X161810000Y-142811686D01*
X161776353Y-142815000D01*
X158343647Y-142815000D01*
X158310000Y-142811686D01*
X158276353Y-142815000D01*
X158175717Y-142824912D01*
X158046594Y-142864081D01*
X157927593Y-142927688D01*
X157823289Y-143013289D01*
X157737688Y-143117593D01*
X157674081Y-143236594D01*
X157634912Y-143365717D01*
X157621686Y-143500000D01*
X157625000Y-143533647D01*
X157625001Y-147340000D01*
X150495000Y-147340000D01*
X150495000Y-143533647D01*
X150498314Y-143500000D01*
X150485088Y-143365717D01*
X150445919Y-143236594D01*
X150382312Y-143117593D01*
X150296711Y-143013289D01*
X150192407Y-142927688D01*
X150073406Y-142864081D01*
X149944283Y-142824912D01*
X149843647Y-142815000D01*
X149810000Y-142811686D01*
X149776353Y-142815000D01*
X146343647Y-142815000D01*
X146310000Y-142811686D01*
X146276353Y-142815000D01*
X146175717Y-142824912D01*
X146046594Y-142864081D01*
X145927593Y-142927688D01*
X145823289Y-143013289D01*
X145737688Y-143117593D01*
X145674081Y-143236594D01*
X145634912Y-143365717D01*
X145621686Y-143500000D01*
X145625000Y-143533647D01*
X145625001Y-147340000D01*
X138495000Y-147340000D01*
X138495000Y-143533647D01*
X138498314Y-143500000D01*
X138485088Y-143365717D01*
X138445919Y-143236594D01*
X138382312Y-143117593D01*
X138296711Y-143013289D01*
X138192407Y-142927688D01*
X138073406Y-142864081D01*
X137944283Y-142824912D01*
X137843647Y-142815000D01*
X137810000Y-142811686D01*
X137776353Y-142815000D01*
X134343647Y-142815000D01*
X134310000Y-142811686D01*
X134276353Y-142815000D01*
X134175717Y-142824912D01*
X134046594Y-142864081D01*
X133927593Y-142927688D01*
X133823289Y-143013289D01*
X133737688Y-143117593D01*
X133674081Y-143236594D01*
X133634912Y-143365717D01*
X133621686Y-143500000D01*
X133625000Y-143533647D01*
X133625001Y-147340000D01*
X126495000Y-147340000D01*
X126495000Y-143533647D01*
X126498314Y-143500000D01*
X126485088Y-143365717D01*
X126445919Y-143236594D01*
X126382312Y-143117593D01*
X126296711Y-143013289D01*
X126192407Y-142927688D01*
X126073406Y-142864081D01*
X125944283Y-142824912D01*
X125843647Y-142815000D01*
X125810000Y-142811686D01*
X125776353Y-142815000D01*
X122343647Y-142815000D01*
X122310000Y-142811686D01*
X122276353Y-142815000D01*
X122175717Y-142824912D01*
X122046594Y-142864081D01*
X121927593Y-142927688D01*
X121823289Y-143013289D01*
X121737688Y-143117593D01*
X121674081Y-143236594D01*
X121634912Y-143365717D01*
X121621686Y-143500000D01*
X121625000Y-143533647D01*
X121625001Y-147340000D01*
X111910000Y-147340000D01*
X111910000Y-131034304D01*
X112060000Y-131034304D01*
X112060000Y-131465696D01*
X112144161Y-131888799D01*
X112309248Y-132287354D01*
X112548916Y-132646043D01*
X112853957Y-132951084D01*
X113212646Y-133190752D01*
X113611201Y-133355839D01*
X114034304Y-133440000D01*
X114465696Y-133440000D01*
X114888799Y-133355839D01*
X115287354Y-133190752D01*
X115646043Y-132951084D01*
X115951084Y-132646043D01*
X116190752Y-132287354D01*
X116355839Y-131888799D01*
X116440000Y-131465696D01*
X116440000Y-131034304D01*
X116355839Y-130611201D01*
X116190752Y-130212646D01*
X115951084Y-129853957D01*
X115646043Y-129548916D01*
X115287354Y-129309248D01*
X114888799Y-129144161D01*
X114465696Y-129060000D01*
X114034304Y-129060000D01*
X113611201Y-129144161D01*
X113212646Y-129309248D01*
X112853957Y-129548916D01*
X112548916Y-129853957D01*
X112309248Y-130212646D01*
X112144161Y-130611201D01*
X112060000Y-131034304D01*
X111910000Y-131034304D01*
X111910000Y-122515445D01*
X111934010Y-122573411D01*
X112096525Y-122816632D01*
X112303368Y-123023475D01*
X112546589Y-123185990D01*
X112816842Y-123297932D01*
X113103740Y-123355000D01*
X113396260Y-123355000D01*
X113683158Y-123297932D01*
X113953411Y-123185990D01*
X114196632Y-123023475D01*
X114363693Y-122856414D01*
X115268281Y-123761002D01*
X115292080Y-123790001D01*
X115407805Y-123884974D01*
X115539834Y-123955546D01*
X115683095Y-123999003D01*
X115794748Y-124010000D01*
X115794756Y-124010000D01*
X115832081Y-124013676D01*
X115869406Y-124010000D01*
X117685485Y-124010000D01*
X117509744Y-124082795D01*
X117340226Y-124196063D01*
X117196063Y-124340226D01*
X117082795Y-124509744D01*
X117004774Y-124698102D01*
X116965000Y-124898061D01*
X116965000Y-125101939D01*
X117004774Y-125301898D01*
X117082795Y-125490256D01*
X117196063Y-125659774D01*
X117340226Y-125803937D01*
X117509744Y-125917205D01*
X117698102Y-125995226D01*
X117898061Y-126035000D01*
X118101939Y-126035000D01*
X118301898Y-125995226D01*
X118490256Y-125917205D01*
X118659774Y-125803937D01*
X118803937Y-125659774D01*
X118904013Y-125510000D01*
X134156396Y-125510000D01*
X134072510Y-125526686D01*
X133818273Y-125631995D01*
X133589465Y-125784880D01*
X133394880Y-125979465D01*
X133241995Y-126208273D01*
X133136686Y-126462510D01*
X133083000Y-126732408D01*
X133083000Y-127007592D01*
X133136686Y-127277490D01*
X133241995Y-127531727D01*
X133394880Y-127760535D01*
X133589465Y-127955120D01*
X133818273Y-128108005D01*
X134072510Y-128213314D01*
X134342408Y-128267000D01*
X134617592Y-128267000D01*
X134887490Y-128213314D01*
X135141727Y-128108005D01*
X135370535Y-127955120D01*
X135565120Y-127760535D01*
X135718005Y-127531727D01*
X135750000Y-127454485D01*
X135781995Y-127531727D01*
X135934880Y-127760535D01*
X136129465Y-127955120D01*
X136358273Y-128108005D01*
X136612510Y-128213314D01*
X136882408Y-128267000D01*
X137157592Y-128267000D01*
X137427490Y-128213314D01*
X137681727Y-128108005D01*
X137910535Y-127955120D01*
X138105120Y-127760535D01*
X138258005Y-127531727D01*
X138290000Y-127454485D01*
X138321995Y-127531727D01*
X138474880Y-127760535D01*
X138669465Y-127955120D01*
X138898273Y-128108005D01*
X139152510Y-128213314D01*
X139422408Y-128267000D01*
X139697592Y-128267000D01*
X139967490Y-128213314D01*
X140221727Y-128108005D01*
X140450535Y-127955120D01*
X140645120Y-127760535D01*
X140798005Y-127531727D01*
X140830000Y-127454485D01*
X140861995Y-127531727D01*
X141014880Y-127760535D01*
X141209465Y-127955120D01*
X141438273Y-128108005D01*
X141692510Y-128213314D01*
X141962408Y-128267000D01*
X142237592Y-128267000D01*
X142507490Y-128213314D01*
X142761727Y-128108005D01*
X142990535Y-127955120D01*
X143185120Y-127760535D01*
X143338005Y-127531727D01*
X143370000Y-127454485D01*
X143401995Y-127531727D01*
X143554880Y-127760535D01*
X143749465Y-127955120D01*
X143978273Y-128108005D01*
X144232510Y-128213314D01*
X144502408Y-128267000D01*
X144777592Y-128267000D01*
X145047490Y-128213314D01*
X145301727Y-128108005D01*
X145530535Y-127955120D01*
X145725120Y-127760535D01*
X145878005Y-127531727D01*
X145910000Y-127454485D01*
X145941995Y-127531727D01*
X146094880Y-127760535D01*
X146289465Y-127955120D01*
X146518273Y-128108005D01*
X146772510Y-128213314D01*
X147042408Y-128267000D01*
X147317592Y-128267000D01*
X147587490Y-128213314D01*
X147841727Y-128108005D01*
X148070535Y-127955120D01*
X148265120Y-127760535D01*
X148418005Y-127531727D01*
X148450000Y-127454485D01*
X148481995Y-127531727D01*
X148634880Y-127760535D01*
X148829465Y-127955120D01*
X149058273Y-128108005D01*
X149312510Y-128213314D01*
X149582408Y-128267000D01*
X149857592Y-128267000D01*
X150127490Y-128213314D01*
X150381727Y-128108005D01*
X150610535Y-127955120D01*
X150805120Y-127760535D01*
X150958005Y-127531727D01*
X150990000Y-127454485D01*
X151021995Y-127531727D01*
X151174880Y-127760535D01*
X151369465Y-127955120D01*
X151500001Y-128042341D01*
X151500000Y-128925198D01*
X149710199Y-130715000D01*
X149648061Y-130715000D01*
X149448102Y-130754774D01*
X149259744Y-130832795D01*
X149090226Y-130946063D01*
X148946063Y-131090226D01*
X148832795Y-131259744D01*
X148754774Y-131448102D01*
X148715000Y-131648061D01*
X148715000Y-131851939D01*
X148754774Y-132051898D01*
X148832795Y-132240256D01*
X148946063Y-132409774D01*
X149090226Y-132553937D01*
X149181613Y-132615000D01*
X141305751Y-132615000D01*
X141250000Y-132609509D01*
X141194248Y-132615000D01*
X127055752Y-132615000D01*
X127000000Y-132609509D01*
X126777501Y-132631423D01*
X126563553Y-132696324D01*
X126366377Y-132801716D01*
X126236856Y-132908011D01*
X126236854Y-132908013D01*
X126193551Y-132943551D01*
X126158013Y-132986854D01*
X125510000Y-133634868D01*
X125510000Y-132203711D01*
X125553937Y-132159774D01*
X125667205Y-131990256D01*
X125745226Y-131801898D01*
X125785000Y-131601939D01*
X125785000Y-131398061D01*
X125745226Y-131198102D01*
X125667205Y-131009744D01*
X125553937Y-130840226D01*
X125409774Y-130696063D01*
X125240256Y-130582795D01*
X125051898Y-130504774D01*
X124851939Y-130465000D01*
X124648061Y-130465000D01*
X124448102Y-130504774D01*
X124259744Y-130582795D01*
X124090226Y-130696063D01*
X123946063Y-130840226D01*
X123832795Y-131009744D01*
X123754774Y-131198102D01*
X123715000Y-131398061D01*
X123715000Y-131601939D01*
X123754774Y-131801898D01*
X123832795Y-131990256D01*
X123946063Y-132159774D01*
X123990001Y-132203712D01*
X123990000Y-133435198D01*
X122988998Y-134436201D01*
X122960000Y-134459999D01*
X122936202Y-134488997D01*
X122936201Y-134488998D01*
X122865026Y-134575724D01*
X122794454Y-134707754D01*
X122750998Y-134851015D01*
X122736324Y-135000000D01*
X122740001Y-135037332D01*
X122740000Y-135796289D01*
X122696063Y-135840226D01*
X122582795Y-136009744D01*
X122504774Y-136198102D01*
X122465000Y-136398061D01*
X122465000Y-136601939D01*
X122504774Y-136801898D01*
X122530912Y-136865000D01*
X121970133Y-136865000D01*
X120885000Y-135779869D01*
X120885000Y-131470132D01*
X121400925Y-130954207D01*
X121490256Y-130917205D01*
X121659774Y-130803937D01*
X121803937Y-130659774D01*
X121917205Y-130490256D01*
X121995226Y-130301898D01*
X122035000Y-130101939D01*
X122035000Y-129898061D01*
X121995226Y-129698102D01*
X121917205Y-129509744D01*
X121803937Y-129340226D01*
X121659774Y-129196063D01*
X121490256Y-129082795D01*
X121301898Y-129004774D01*
X121292186Y-129002842D01*
X121186447Y-128946324D01*
X120972499Y-128881423D01*
X120750000Y-128859509D01*
X120527501Y-128881423D01*
X120313553Y-128946324D01*
X120116377Y-129051716D01*
X119986856Y-129158011D01*
X118986859Y-130158009D01*
X118943552Y-130193551D01*
X118801717Y-130366377D01*
X118749002Y-130465000D01*
X118696324Y-130563554D01*
X118631423Y-130777502D01*
X118609509Y-131000000D01*
X118615001Y-131055761D01*
X118615001Y-131217598D01*
X118601939Y-131215000D01*
X118398061Y-131215000D01*
X118198102Y-131254774D01*
X118009744Y-131332795D01*
X117840226Y-131446063D01*
X117696063Y-131590226D01*
X117582795Y-131759744D01*
X117504774Y-131948102D01*
X117465000Y-132148061D01*
X117465000Y-132351939D01*
X117504774Y-132551898D01*
X117582795Y-132740256D01*
X117696063Y-132909774D01*
X117740001Y-132953712D01*
X117740000Y-136712677D01*
X117736324Y-136750000D01*
X117740000Y-136787322D01*
X117740000Y-136787332D01*
X117750997Y-136898985D01*
X117780191Y-136995226D01*
X117794454Y-137042246D01*
X117865026Y-137174276D01*
X117880845Y-137193551D01*
X117959999Y-137290001D01*
X117989003Y-137313804D01*
X120686200Y-140011002D01*
X120709999Y-140040001D01*
X120825724Y-140134974D01*
X120957753Y-140205546D01*
X121101014Y-140249003D01*
X121212667Y-140260000D01*
X121212676Y-140260000D01*
X121249999Y-140263676D01*
X121287322Y-140260000D01*
X142046289Y-140260000D01*
X142090226Y-140303937D01*
X142259744Y-140417205D01*
X142448102Y-140495226D01*
X142648061Y-140535000D01*
X142851939Y-140535000D01*
X143051898Y-140495226D01*
X143240256Y-140417205D01*
X143409774Y-140303937D01*
X143453711Y-140260000D01*
X154046289Y-140260000D01*
X154090226Y-140303937D01*
X154259744Y-140417205D01*
X154448102Y-140495226D01*
X154648061Y-140535000D01*
X154851939Y-140535000D01*
X155051898Y-140495226D01*
X155240256Y-140417205D01*
X155409774Y-140303937D01*
X155453711Y-140260000D01*
X166046289Y-140260000D01*
X166090226Y-140303937D01*
X166259744Y-140417205D01*
X166448102Y-140495226D01*
X166648061Y-140535000D01*
X166851939Y-140535000D01*
X167051898Y-140495226D01*
X167240256Y-140417205D01*
X167409774Y-140303937D01*
X167453711Y-140260000D01*
X178046289Y-140260000D01*
X178090226Y-140303937D01*
X178259744Y-140417205D01*
X178448102Y-140495226D01*
X178648061Y-140535000D01*
X178851939Y-140535000D01*
X179051898Y-140495226D01*
X179240256Y-140417205D01*
X179409774Y-140303937D01*
X179453711Y-140260000D01*
X194935199Y-140260000D01*
X196936201Y-142261003D01*
X196959999Y-142290001D01*
X196988997Y-142313799D01*
X197075724Y-142384974D01*
X197207753Y-142455546D01*
X197351014Y-142499003D01*
X197500000Y-142513677D01*
X197537333Y-142510000D01*
X197546289Y-142510000D01*
X197590226Y-142553937D01*
X197759744Y-142667205D01*
X197948102Y-142745226D01*
X198148061Y-142785000D01*
X198351939Y-142785000D01*
X198551898Y-142745226D01*
X198740256Y-142667205D01*
X198909774Y-142553937D01*
X199053937Y-142409774D01*
X199167205Y-142240256D01*
X199245226Y-142051898D01*
X199285000Y-141851939D01*
X199285000Y-141648061D01*
X199245226Y-141448102D01*
X199167205Y-141259744D01*
X199053937Y-141090226D01*
X198909774Y-140946063D01*
X198740256Y-140832795D01*
X198551898Y-140754774D01*
X198351939Y-140715000D01*
X198148061Y-140715000D01*
X197948102Y-140754774D01*
X197759744Y-140832795D01*
X197698511Y-140873709D01*
X195959801Y-139135000D01*
X197944249Y-139135000D01*
X198000000Y-139140491D01*
X198055751Y-139135000D01*
X198055752Y-139135000D01*
X198222499Y-139118577D01*
X198436447Y-139053676D01*
X198633623Y-138948284D01*
X198806449Y-138806449D01*
X198841996Y-138763135D01*
X202013141Y-135591991D01*
X202056449Y-135556449D01*
X202198284Y-135383623D01*
X202303676Y-135186447D01*
X202368577Y-134972499D01*
X202385000Y-134805752D01*
X202390491Y-134750001D01*
X202385000Y-134694249D01*
X202385000Y-131034304D01*
X209810000Y-131034304D01*
X209810000Y-131465696D01*
X209894161Y-131888799D01*
X210059248Y-132287354D01*
X210298916Y-132646043D01*
X210603957Y-132951084D01*
X210962646Y-133190752D01*
X211361201Y-133355839D01*
X211784304Y-133440000D01*
X212215696Y-133440000D01*
X212638799Y-133355839D01*
X213037354Y-133190752D01*
X213396043Y-132951084D01*
X213701084Y-132646043D01*
X213940752Y-132287354D01*
X214105839Y-131888799D01*
X214190000Y-131465696D01*
X214190000Y-131034304D01*
X214105839Y-130611201D01*
X213940752Y-130212646D01*
X213701084Y-129853957D01*
X213396043Y-129548916D01*
X213037354Y-129309248D01*
X212638799Y-129144161D01*
X212215696Y-129060000D01*
X211784304Y-129060000D01*
X211361201Y-129144161D01*
X210962646Y-129309248D01*
X210603957Y-129548916D01*
X210298916Y-129853957D01*
X210059248Y-130212646D01*
X209894161Y-130611201D01*
X209810000Y-131034304D01*
X202385000Y-131034304D01*
X202385000Y-110350000D01*
X207761928Y-110350000D01*
X207774188Y-110474482D01*
X207810498Y-110594180D01*
X207869463Y-110704494D01*
X207948815Y-110801185D01*
X208045506Y-110880537D01*
X208155820Y-110939502D01*
X208228380Y-110961513D01*
X208096525Y-111093368D01*
X207934010Y-111336589D01*
X207822068Y-111606842D01*
X207765000Y-111893740D01*
X207765000Y-112186260D01*
X207822068Y-112473158D01*
X207934010Y-112743411D01*
X208096525Y-112986632D01*
X208303368Y-113193475D01*
X208477760Y-113310000D01*
X208303368Y-113426525D01*
X208096525Y-113633368D01*
X207934010Y-113876589D01*
X207822068Y-114146842D01*
X207765000Y-114433740D01*
X207765000Y-114726260D01*
X207822068Y-115013158D01*
X207934010Y-115283411D01*
X208096525Y-115526632D01*
X208303368Y-115733475D01*
X208477760Y-115850000D01*
X208303368Y-115966525D01*
X208096525Y-116173368D01*
X207934010Y-116416589D01*
X207822068Y-116686842D01*
X207765000Y-116973740D01*
X207765000Y-117266260D01*
X207822068Y-117553158D01*
X207934010Y-117823411D01*
X208096525Y-118066632D01*
X208303368Y-118273475D01*
X208477760Y-118390000D01*
X208303368Y-118506525D01*
X208096525Y-118713368D01*
X207934010Y-118956589D01*
X207822068Y-119226842D01*
X207765000Y-119513740D01*
X207765000Y-119806260D01*
X207822068Y-120093158D01*
X207934010Y-120363411D01*
X208096525Y-120606632D01*
X208303368Y-120813475D01*
X208477760Y-120930000D01*
X208303368Y-121046525D01*
X208096525Y-121253368D01*
X207934010Y-121496589D01*
X207822068Y-121766842D01*
X207765000Y-122053740D01*
X207765000Y-122346260D01*
X207822068Y-122633158D01*
X207934010Y-122903411D01*
X208096525Y-123146632D01*
X208303368Y-123353475D01*
X208477760Y-123470000D01*
X208303368Y-123586525D01*
X208096525Y-123793368D01*
X207934010Y-124036589D01*
X207822068Y-124306842D01*
X207765000Y-124593740D01*
X207765000Y-124886260D01*
X207822068Y-125173158D01*
X207934010Y-125443411D01*
X208096525Y-125686632D01*
X208303368Y-125893475D01*
X208546589Y-126055990D01*
X208816842Y-126167932D01*
X209103740Y-126225000D01*
X209396260Y-126225000D01*
X209683158Y-126167932D01*
X209953411Y-126055990D01*
X210196632Y-125893475D01*
X210403475Y-125686632D01*
X210565990Y-125443411D01*
X210677932Y-125173158D01*
X210735000Y-124886260D01*
X210735000Y-124593740D01*
X210677932Y-124306842D01*
X210565990Y-124036589D01*
X210403475Y-123793368D01*
X210196632Y-123586525D01*
X210022240Y-123470000D01*
X210196632Y-123353475D01*
X210403475Y-123146632D01*
X210565990Y-122903411D01*
X210677932Y-122633158D01*
X210735000Y-122346260D01*
X210735000Y-122053740D01*
X210677932Y-121766842D01*
X210565990Y-121496589D01*
X210403475Y-121253368D01*
X210196632Y-121046525D01*
X210022240Y-120930000D01*
X210196632Y-120813475D01*
X210403475Y-120606632D01*
X210565990Y-120363411D01*
X210677932Y-120093158D01*
X210735000Y-119806260D01*
X210735000Y-119513740D01*
X210677932Y-119226842D01*
X210565990Y-118956589D01*
X210403475Y-118713368D01*
X210196632Y-118506525D01*
X210022240Y-118390000D01*
X210196632Y-118273475D01*
X210403475Y-118066632D01*
X210565990Y-117823411D01*
X210677932Y-117553158D01*
X210735000Y-117266260D01*
X210735000Y-116973740D01*
X210677932Y-116686842D01*
X210565990Y-116416589D01*
X210403475Y-116173368D01*
X210196632Y-115966525D01*
X210022240Y-115850000D01*
X210196632Y-115733475D01*
X210403475Y-115526632D01*
X210565990Y-115283411D01*
X210677932Y-115013158D01*
X210735000Y-114726260D01*
X210735000Y-114433740D01*
X210677932Y-114146842D01*
X210565990Y-113876589D01*
X210403475Y-113633368D01*
X210196632Y-113426525D01*
X210022240Y-113310000D01*
X210196632Y-113193475D01*
X210403475Y-112986632D01*
X210565990Y-112743411D01*
X210677932Y-112473158D01*
X210735000Y-112186260D01*
X210735000Y-111893740D01*
X210677932Y-111606842D01*
X210565990Y-111336589D01*
X210403475Y-111093368D01*
X210271620Y-110961513D01*
X210344180Y-110939502D01*
X210454494Y-110880537D01*
X210551185Y-110801185D01*
X210630537Y-110704494D01*
X210689502Y-110594180D01*
X210725812Y-110474482D01*
X210738072Y-110350000D01*
X211511928Y-110350000D01*
X211524188Y-110474482D01*
X211560498Y-110594180D01*
X211619463Y-110704494D01*
X211698815Y-110801185D01*
X211795506Y-110880537D01*
X211905820Y-110939502D01*
X211978380Y-110961513D01*
X211846525Y-111093368D01*
X211684010Y-111336589D01*
X211572068Y-111606842D01*
X211515000Y-111893740D01*
X211515000Y-112186260D01*
X211572068Y-112473158D01*
X211684010Y-112743411D01*
X211846525Y-112986632D01*
X212053368Y-113193475D01*
X212227760Y-113310000D01*
X212053368Y-113426525D01*
X211846525Y-113633368D01*
X211684010Y-113876589D01*
X211572068Y-114146842D01*
X211515000Y-114433740D01*
X211515000Y-114726260D01*
X211572068Y-115013158D01*
X211684010Y-115283411D01*
X211846525Y-115526632D01*
X212053368Y-115733475D01*
X212227760Y-115850000D01*
X212053368Y-115966525D01*
X211846525Y-116173368D01*
X211684010Y-116416589D01*
X211572068Y-116686842D01*
X211515000Y-116973740D01*
X211515000Y-117266260D01*
X211572068Y-117553158D01*
X211684010Y-117823411D01*
X211846525Y-118066632D01*
X212053368Y-118273475D01*
X212227760Y-118390000D01*
X212053368Y-118506525D01*
X211846525Y-118713368D01*
X211684010Y-118956589D01*
X211572068Y-119226842D01*
X211515000Y-119513740D01*
X211515000Y-119806260D01*
X211572068Y-120093158D01*
X211684010Y-120363411D01*
X211846525Y-120606632D01*
X212053368Y-120813475D01*
X212227760Y-120930000D01*
X212053368Y-121046525D01*
X211846525Y-121253368D01*
X211684010Y-121496589D01*
X211572068Y-121766842D01*
X211515000Y-122053740D01*
X211515000Y-122346260D01*
X211572068Y-122633158D01*
X211684010Y-122903411D01*
X211846525Y-123146632D01*
X212053368Y-123353475D01*
X212227760Y-123470000D01*
X212053368Y-123586525D01*
X211846525Y-123793368D01*
X211684010Y-124036589D01*
X211572068Y-124306842D01*
X211515000Y-124593740D01*
X211515000Y-124886260D01*
X211572068Y-125173158D01*
X211684010Y-125443411D01*
X211846525Y-125686632D01*
X212053368Y-125893475D01*
X212296589Y-126055990D01*
X212566842Y-126167932D01*
X212853740Y-126225000D01*
X213146260Y-126225000D01*
X213433158Y-126167932D01*
X213703411Y-126055990D01*
X213946632Y-125893475D01*
X214153475Y-125686632D01*
X214315990Y-125443411D01*
X214427932Y-125173158D01*
X214485000Y-124886260D01*
X214485000Y-124593740D01*
X214427932Y-124306842D01*
X214315990Y-124036589D01*
X214153475Y-123793368D01*
X213946632Y-123586525D01*
X213772240Y-123470000D01*
X213946632Y-123353475D01*
X214153475Y-123146632D01*
X214315990Y-122903411D01*
X214427932Y-122633158D01*
X214485000Y-122346260D01*
X214485000Y-122053740D01*
X214427932Y-121766842D01*
X214315990Y-121496589D01*
X214153475Y-121253368D01*
X213946632Y-121046525D01*
X213772240Y-120930000D01*
X213946632Y-120813475D01*
X214153475Y-120606632D01*
X214315990Y-120363411D01*
X214427932Y-120093158D01*
X214485000Y-119806260D01*
X214485000Y-119513740D01*
X214427932Y-119226842D01*
X214315990Y-118956589D01*
X214153475Y-118713368D01*
X213946632Y-118506525D01*
X213772240Y-118390000D01*
X213946632Y-118273475D01*
X214153475Y-118066632D01*
X214315990Y-117823411D01*
X214427932Y-117553158D01*
X214485000Y-117266260D01*
X214485000Y-116973740D01*
X214427932Y-116686842D01*
X214315990Y-116416589D01*
X214153475Y-116173368D01*
X213946632Y-115966525D01*
X213772240Y-115850000D01*
X213946632Y-115733475D01*
X214153475Y-115526632D01*
X214315990Y-115283411D01*
X214427932Y-115013158D01*
X214485000Y-114726260D01*
X214485000Y-114433740D01*
X214427932Y-114146842D01*
X214315990Y-113876589D01*
X214153475Y-113633368D01*
X213946632Y-113426525D01*
X213772240Y-113310000D01*
X213946632Y-113193475D01*
X214153475Y-112986632D01*
X214315990Y-112743411D01*
X214427932Y-112473158D01*
X214485000Y-112186260D01*
X214485000Y-111893740D01*
X214427932Y-111606842D01*
X214315990Y-111336589D01*
X214153475Y-111093368D01*
X214021620Y-110961513D01*
X214094180Y-110939502D01*
X214204494Y-110880537D01*
X214301185Y-110801185D01*
X214380537Y-110704494D01*
X214439502Y-110594180D01*
X214475812Y-110474482D01*
X214488072Y-110350000D01*
X214485000Y-109785750D01*
X214326250Y-109627000D01*
X213127000Y-109627000D01*
X213127000Y-109647000D01*
X212873000Y-109647000D01*
X212873000Y-109627000D01*
X211673750Y-109627000D01*
X211515000Y-109785750D01*
X211511928Y-110350000D01*
X210738072Y-110350000D01*
X210735000Y-109785750D01*
X210576250Y-109627000D01*
X209377000Y-109627000D01*
X209377000Y-109647000D01*
X209123000Y-109647000D01*
X209123000Y-109627000D01*
X207923750Y-109627000D01*
X207765000Y-109785750D01*
X207761928Y-110350000D01*
X202385000Y-110350000D01*
X202385000Y-109120131D01*
X202855131Y-108650000D01*
X207761928Y-108650000D01*
X207765000Y-109214250D01*
X207923750Y-109373000D01*
X209123000Y-109373000D01*
X209123000Y-108173750D01*
X209377000Y-108173750D01*
X209377000Y-109373000D01*
X210576250Y-109373000D01*
X210735000Y-109214250D01*
X210738072Y-108650000D01*
X211511928Y-108650000D01*
X211515000Y-109214250D01*
X211673750Y-109373000D01*
X212873000Y-109373000D01*
X212873000Y-108173750D01*
X213127000Y-108173750D01*
X213127000Y-109373000D01*
X214326250Y-109373000D01*
X214485000Y-109214250D01*
X214488072Y-108650000D01*
X214475812Y-108525518D01*
X214439502Y-108405820D01*
X214380537Y-108295506D01*
X214301185Y-108198815D01*
X214204494Y-108119463D01*
X214094180Y-108060498D01*
X213974482Y-108024188D01*
X213850000Y-108011928D01*
X213285750Y-108015000D01*
X213127000Y-108173750D01*
X212873000Y-108173750D01*
X212714250Y-108015000D01*
X212150000Y-108011928D01*
X212025518Y-108024188D01*
X211905820Y-108060498D01*
X211795506Y-108119463D01*
X211698815Y-108198815D01*
X211619463Y-108295506D01*
X211560498Y-108405820D01*
X211524188Y-108525518D01*
X211511928Y-108650000D01*
X210738072Y-108650000D01*
X210725812Y-108525518D01*
X210689502Y-108405820D01*
X210630537Y-108295506D01*
X210551185Y-108198815D01*
X210454494Y-108119463D01*
X210344180Y-108060498D01*
X210224482Y-108024188D01*
X210100000Y-108011928D01*
X209535750Y-108015000D01*
X209377000Y-108173750D01*
X209123000Y-108173750D01*
X208964250Y-108015000D01*
X208400000Y-108011928D01*
X208275518Y-108024188D01*
X208155820Y-108060498D01*
X208045506Y-108119463D01*
X207948815Y-108198815D01*
X207869463Y-108295506D01*
X207810498Y-108405820D01*
X207774188Y-108525518D01*
X207761928Y-108650000D01*
X202855131Y-108650000D01*
X209667961Y-101837172D01*
X209767378Y-101997656D01*
X209655557Y-102165008D01*
X209562460Y-102389764D01*
X209515000Y-102628363D01*
X209515000Y-102871637D01*
X209562460Y-103110236D01*
X209655557Y-103334992D01*
X209790713Y-103537267D01*
X209962733Y-103709287D01*
X210165008Y-103844443D01*
X210389764Y-103937540D01*
X210628363Y-103985000D01*
X210871637Y-103985000D01*
X211110236Y-103937540D01*
X211334992Y-103844443D01*
X211537267Y-103709287D01*
X211709287Y-103537267D01*
X211844443Y-103334992D01*
X211937540Y-103110236D01*
X211985000Y-102871637D01*
X211985000Y-102628363D01*
X211937540Y-102389764D01*
X211844443Y-102165008D01*
X211732622Y-101997656D01*
X211858572Y-101794341D01*
X211943467Y-101567610D01*
X211819709Y-101377000D01*
X210877000Y-101377000D01*
X210877000Y-101397000D01*
X210623000Y-101397000D01*
X210623000Y-101377000D01*
X210603000Y-101377000D01*
X210603000Y-101123000D01*
X210623000Y-101123000D01*
X210623000Y-101103000D01*
X210877000Y-101103000D01*
X210877000Y-101123000D01*
X211819709Y-101123000D01*
X211943467Y-100932390D01*
X211858572Y-100705659D01*
X211827146Y-100654930D01*
X211850809Y-100626096D01*
X211926074Y-100485285D01*
X211972422Y-100332496D01*
X211988072Y-100173600D01*
X211988072Y-99326400D01*
X211972422Y-99167504D01*
X211926074Y-99014715D01*
X211850809Y-98873904D01*
X211749519Y-98750481D01*
X211626096Y-98649191D01*
X211485285Y-98573926D01*
X211332496Y-98527578D01*
X211173600Y-98511928D01*
X210326400Y-98511928D01*
X210167504Y-98527578D01*
X210014715Y-98573926D01*
X209880434Y-98645701D01*
X209713553Y-98696324D01*
X209516377Y-98801716D01*
X209386856Y-98908011D01*
X206028470Y-102266398D01*
X205948283Y-102116378D01*
X205806448Y-101943552D01*
X205633622Y-101801717D01*
X205436446Y-101696325D01*
X205222498Y-101631424D01*
X204999999Y-101609510D01*
X204777500Y-101631424D01*
X204563552Y-101696325D01*
X204366376Y-101801717D01*
X204236856Y-101908012D01*
X198999610Y-107145259D01*
X199105839Y-106888799D01*
X199190000Y-106465696D01*
X199190000Y-106034304D01*
X199105839Y-105611201D01*
X198940752Y-105212646D01*
X198701084Y-104853957D01*
X198396043Y-104548916D01*
X198037354Y-104309248D01*
X197638799Y-104144161D01*
X197215696Y-104060000D01*
X196784304Y-104060000D01*
X196361201Y-104144161D01*
X195962646Y-104309248D01*
X195603957Y-104548916D01*
X195298916Y-104853957D01*
X195059248Y-105212646D01*
X194894161Y-105611201D01*
X194810000Y-106034304D01*
X194810000Y-106465696D01*
X194894161Y-106888799D01*
X195059248Y-107287354D01*
X195298916Y-107646043D01*
X195603957Y-107951084D01*
X195962646Y-108190752D01*
X196361201Y-108355839D01*
X196784304Y-108440000D01*
X197215696Y-108440000D01*
X197638799Y-108355839D01*
X197895257Y-108249610D01*
X197236864Y-108908005D01*
X197193551Y-108943551D01*
X197051716Y-109116377D01*
X196972818Y-109263987D01*
X196946324Y-109313554D01*
X196881423Y-109527502D01*
X196859509Y-109750000D01*
X196865000Y-109805751D01*
X196865001Y-124744237D01*
X196865000Y-124744247D01*
X196865001Y-130779867D01*
X195029869Y-132615000D01*
X177305751Y-132615000D01*
X177250000Y-132609509D01*
X177194248Y-132615000D01*
X165305751Y-132615000D01*
X165250000Y-132609509D01*
X165194248Y-132615000D01*
X153305751Y-132615000D01*
X153250000Y-132609509D01*
X153194248Y-132615000D01*
X150318387Y-132615000D01*
X150409774Y-132553937D01*
X150553937Y-132409774D01*
X150667205Y-132240256D01*
X150745226Y-132051898D01*
X150785000Y-131851939D01*
X150785000Y-131789801D01*
X152771004Y-129803798D01*
X152800001Y-129780001D01*
X152826332Y-129747917D01*
X152894974Y-129664277D01*
X152965546Y-129532247D01*
X152972372Y-129509744D01*
X153009003Y-129388986D01*
X153020000Y-129277333D01*
X153020000Y-129277324D01*
X153023676Y-129240001D01*
X153020000Y-129202678D01*
X153020000Y-128042341D01*
X153150535Y-127955120D01*
X153345120Y-127760535D01*
X153498005Y-127531727D01*
X153530000Y-127454485D01*
X153561995Y-127531727D01*
X153714880Y-127760535D01*
X153909465Y-127955120D01*
X154138273Y-128108005D01*
X154392510Y-128213314D01*
X154662408Y-128267000D01*
X154937592Y-128267000D01*
X155207490Y-128213314D01*
X155461727Y-128108005D01*
X155690535Y-127955120D01*
X155810090Y-127835565D01*
X156554040Y-127835565D01*
X156621020Y-128075656D01*
X156870048Y-128192756D01*
X157137135Y-128259023D01*
X157412017Y-128271910D01*
X157684133Y-128230922D01*
X157943023Y-128137636D01*
X158058980Y-128075656D01*
X158125960Y-127835565D01*
X157340000Y-127049605D01*
X156554040Y-127835565D01*
X155810090Y-127835565D01*
X155885120Y-127760535D01*
X156038005Y-127531727D01*
X156067692Y-127460057D01*
X156072364Y-127473023D01*
X156134344Y-127588980D01*
X156374435Y-127655960D01*
X157160395Y-126870000D01*
X156374435Y-126084040D01*
X156134344Y-126151020D01*
X156070515Y-126286760D01*
X156038005Y-126208273D01*
X155885120Y-125979465D01*
X155810090Y-125904435D01*
X156554040Y-125904435D01*
X157340000Y-126690395D01*
X158125960Y-125904435D01*
X158058980Y-125664344D01*
X157809952Y-125547244D01*
X157542865Y-125480977D01*
X157267983Y-125468090D01*
X156995867Y-125509078D01*
X156736977Y-125602364D01*
X156621020Y-125664344D01*
X156554040Y-125904435D01*
X155810090Y-125904435D01*
X155690535Y-125784880D01*
X155461727Y-125631995D01*
X155207490Y-125526686D01*
X154937592Y-125473000D01*
X154662408Y-125473000D01*
X154392510Y-125526686D01*
X154138273Y-125631995D01*
X153909465Y-125784880D01*
X153714880Y-125979465D01*
X153561995Y-126208273D01*
X153530000Y-126285515D01*
X153498005Y-126208273D01*
X153345120Y-125979465D01*
X153150535Y-125784880D01*
X152921727Y-125631995D01*
X152667490Y-125526686D01*
X152397592Y-125473000D01*
X152122408Y-125473000D01*
X151852510Y-125526686D01*
X151598273Y-125631995D01*
X151369465Y-125784880D01*
X151174880Y-125979465D01*
X151021995Y-126208273D01*
X150990000Y-126285515D01*
X150958005Y-126208273D01*
X150805120Y-125979465D01*
X150610535Y-125784880D01*
X150480000Y-125697659D01*
X150480000Y-124007325D01*
X150483676Y-123970000D01*
X150480000Y-123932675D01*
X150480000Y-123932667D01*
X150469003Y-123821014D01*
X150425546Y-123677753D01*
X150354974Y-123545724D01*
X150260001Y-123429999D01*
X150231004Y-123406202D01*
X149563803Y-122739002D01*
X149540001Y-122709999D01*
X149424276Y-122615026D01*
X149292247Y-122544454D01*
X149148986Y-122500997D01*
X149037333Y-122490000D01*
X149037322Y-122490000D01*
X149000000Y-122486324D01*
X148962678Y-122490000D01*
X116146883Y-122490000D01*
X115015885Y-121359003D01*
X114992082Y-121329999D01*
X114876357Y-121235026D01*
X114744328Y-121164454D01*
X114601067Y-121120997D01*
X114530909Y-121114087D01*
X114403475Y-120923368D01*
X114196632Y-120716525D01*
X114022240Y-120600000D01*
X114196632Y-120483475D01*
X114403475Y-120276632D01*
X114528178Y-120090000D01*
X147882678Y-120090000D01*
X147920000Y-120093676D01*
X147957322Y-120090000D01*
X147957333Y-120090000D01*
X148068986Y-120079003D01*
X148212247Y-120035546D01*
X148344276Y-119964974D01*
X148460001Y-119870001D01*
X148483803Y-119840998D01*
X150231009Y-118093794D01*
X150260001Y-118070001D01*
X150283795Y-118041008D01*
X150283799Y-118041004D01*
X150354973Y-117954277D01*
X150354974Y-117954276D01*
X150425546Y-117822247D01*
X150469003Y-117678986D01*
X150480000Y-117567333D01*
X150480000Y-117567324D01*
X150483676Y-117530001D01*
X150480000Y-117492678D01*
X150480000Y-112802341D01*
X150610535Y-112715120D01*
X150805120Y-112520535D01*
X150958005Y-112291727D01*
X150990000Y-112214485D01*
X151021995Y-112291727D01*
X151174880Y-112520535D01*
X151369465Y-112715120D01*
X151598273Y-112868005D01*
X151852510Y-112973314D01*
X152122408Y-113027000D01*
X152397592Y-113027000D01*
X152667490Y-112973314D01*
X152921727Y-112868005D01*
X153150535Y-112715120D01*
X153345120Y-112520535D01*
X153498005Y-112291727D01*
X153530000Y-112214485D01*
X153561995Y-112291727D01*
X153714880Y-112520535D01*
X153909465Y-112715120D01*
X154138273Y-112868005D01*
X154392510Y-112973314D01*
X154662408Y-113027000D01*
X154937592Y-113027000D01*
X155207490Y-112973314D01*
X155461727Y-112868005D01*
X155690535Y-112715120D01*
X155885120Y-112520535D01*
X156038005Y-112291727D01*
X156070000Y-112214485D01*
X156101995Y-112291727D01*
X156254880Y-112520535D01*
X156449465Y-112715120D01*
X156678273Y-112868005D01*
X156932510Y-112973314D01*
X157202408Y-113027000D01*
X157477592Y-113027000D01*
X157747490Y-112973314D01*
X158001727Y-112868005D01*
X158230535Y-112715120D01*
X158425120Y-112520535D01*
X158578005Y-112291727D01*
X158610000Y-112214485D01*
X158641995Y-112291727D01*
X158794880Y-112520535D01*
X158989465Y-112715120D01*
X159120001Y-112802342D01*
X159120000Y-121342678D01*
X159116324Y-121380000D01*
X159120000Y-121417322D01*
X159120000Y-121417332D01*
X159130997Y-121528985D01*
X159145791Y-121577754D01*
X159174454Y-121672246D01*
X159245026Y-121804276D01*
X159274530Y-121840226D01*
X159339999Y-121920001D01*
X159369002Y-121943804D01*
X159965000Y-122539802D01*
X159965000Y-122601939D01*
X160004774Y-122801898D01*
X160082795Y-122990256D01*
X160196063Y-123159774D01*
X160340226Y-123303937D01*
X160509744Y-123417205D01*
X160698102Y-123495226D01*
X160898061Y-123535000D01*
X161101939Y-123535000D01*
X161301898Y-123495226D01*
X161490256Y-123417205D01*
X161659774Y-123303937D01*
X161803937Y-123159774D01*
X161917205Y-122990256D01*
X161995226Y-122801898D01*
X162035000Y-122601939D01*
X162035000Y-122398061D01*
X161995226Y-122198102D01*
X161917205Y-122009744D01*
X161803937Y-121840226D01*
X161659774Y-121696063D01*
X161490256Y-121582795D01*
X161301898Y-121504774D01*
X161101939Y-121465000D01*
X161039802Y-121465000D01*
X160640000Y-121065199D01*
X160640000Y-112802341D01*
X160770535Y-112715120D01*
X160965120Y-112520535D01*
X161118005Y-112291727D01*
X161150000Y-112214485D01*
X161181995Y-112291727D01*
X161334880Y-112520535D01*
X161529465Y-112715120D01*
X161740001Y-112855796D01*
X161740000Y-120296289D01*
X161696063Y-120340226D01*
X161582795Y-120509744D01*
X161504774Y-120698102D01*
X161465000Y-120898061D01*
X161465000Y-121101939D01*
X161504774Y-121301898D01*
X161582795Y-121490256D01*
X161696063Y-121659774D01*
X161840226Y-121803937D01*
X162009744Y-121917205D01*
X162198102Y-121995226D01*
X162398061Y-122035000D01*
X162601939Y-122035000D01*
X162801898Y-121995226D01*
X162990256Y-121917205D01*
X163159774Y-121803937D01*
X163303937Y-121659774D01*
X163417205Y-121490256D01*
X163495226Y-121301898D01*
X163535000Y-121101939D01*
X163535000Y-120898061D01*
X163495226Y-120698102D01*
X163417205Y-120509744D01*
X163303937Y-120340226D01*
X163260000Y-120296289D01*
X163260000Y-112748886D01*
X163310535Y-112715120D01*
X163505120Y-112520535D01*
X163658005Y-112291727D01*
X163690000Y-112214485D01*
X163721995Y-112291727D01*
X163874880Y-112520535D01*
X164069465Y-112715120D01*
X164240001Y-112829069D01*
X164240000Y-117796289D01*
X164196063Y-117840226D01*
X164082795Y-118009744D01*
X164004774Y-118198102D01*
X163965000Y-118398061D01*
X163965000Y-118601939D01*
X164004774Y-118801898D01*
X164082795Y-118990256D01*
X164196063Y-119159774D01*
X164340226Y-119303937D01*
X164509744Y-119417205D01*
X164698102Y-119495226D01*
X164898061Y-119535000D01*
X165101939Y-119535000D01*
X165287001Y-119498189D01*
X165287001Y-125379679D01*
X165283325Y-125417001D01*
X165287001Y-125454323D01*
X165287001Y-125454333D01*
X165292661Y-125511802D01*
X165097592Y-125473000D01*
X164822408Y-125473000D01*
X164552510Y-125526686D01*
X164298273Y-125631995D01*
X164069465Y-125784880D01*
X163874880Y-125979465D01*
X163721995Y-126208273D01*
X163690000Y-126285515D01*
X163658005Y-126208273D01*
X163505120Y-125979465D01*
X163310535Y-125784880D01*
X163081727Y-125631995D01*
X162827490Y-125526686D01*
X162557592Y-125473000D01*
X162282408Y-125473000D01*
X162012510Y-125526686D01*
X161758273Y-125631995D01*
X161529465Y-125784880D01*
X161334880Y-125979465D01*
X161181995Y-126208273D01*
X161150000Y-126285515D01*
X161118005Y-126208273D01*
X160965120Y-125979465D01*
X160770535Y-125784880D01*
X160541727Y-125631995D01*
X160287490Y-125526686D01*
X160017592Y-125473000D01*
X159742408Y-125473000D01*
X159472510Y-125526686D01*
X159218273Y-125631995D01*
X158989465Y-125784880D01*
X158794880Y-125979465D01*
X158641995Y-126208273D01*
X158612308Y-126279943D01*
X158607636Y-126266977D01*
X158545656Y-126151020D01*
X158305565Y-126084040D01*
X157519605Y-126870000D01*
X158305565Y-127655960D01*
X158545656Y-127588980D01*
X158609485Y-127453240D01*
X158641995Y-127531727D01*
X158794880Y-127760535D01*
X158989465Y-127955120D01*
X159218273Y-128108005D01*
X159472510Y-128213314D01*
X159742408Y-128267000D01*
X160017592Y-128267000D01*
X160287490Y-128213314D01*
X160541727Y-128108005D01*
X160770535Y-127955120D01*
X160965120Y-127760535D01*
X161118005Y-127531727D01*
X161150000Y-127454485D01*
X161181995Y-127531727D01*
X161334880Y-127760535D01*
X161529465Y-127955120D01*
X161758273Y-128108005D01*
X162012510Y-128213314D01*
X162282408Y-128267000D01*
X162557592Y-128267000D01*
X162827490Y-128213314D01*
X163081727Y-128108005D01*
X163310535Y-127955120D01*
X163505120Y-127760535D01*
X163658005Y-127531727D01*
X163690000Y-127454485D01*
X163721995Y-127531727D01*
X163874880Y-127760535D01*
X164069465Y-127955120D01*
X164298273Y-128108005D01*
X164552510Y-128213314D01*
X164822408Y-128267000D01*
X165097592Y-128267000D01*
X165367490Y-128213314D01*
X165621727Y-128108005D01*
X165850535Y-127955120D01*
X166045120Y-127760535D01*
X166198005Y-127531727D01*
X166230000Y-127454485D01*
X166261995Y-127531727D01*
X166414880Y-127760535D01*
X166609465Y-127955120D01*
X166838273Y-128108005D01*
X167092510Y-128213314D01*
X167362408Y-128267000D01*
X167637592Y-128267000D01*
X167907490Y-128213314D01*
X168161727Y-128108005D01*
X168390535Y-127955120D01*
X168585120Y-127760535D01*
X168738005Y-127531727D01*
X168770000Y-127454485D01*
X168801995Y-127531727D01*
X168954880Y-127760535D01*
X169149465Y-127955120D01*
X169378273Y-128108005D01*
X169632510Y-128213314D01*
X169902408Y-128267000D01*
X170177592Y-128267000D01*
X170447490Y-128213314D01*
X170701727Y-128108005D01*
X170930535Y-127955120D01*
X171125120Y-127760535D01*
X171278005Y-127531727D01*
X171310000Y-127454485D01*
X171341995Y-127531727D01*
X171494880Y-127760535D01*
X171689465Y-127955120D01*
X171918273Y-128108005D01*
X172172510Y-128213314D01*
X172442408Y-128267000D01*
X172717592Y-128267000D01*
X172987490Y-128213314D01*
X173241727Y-128108005D01*
X173470535Y-127955120D01*
X173665120Y-127760535D01*
X173818005Y-127531727D01*
X173850000Y-127454485D01*
X173881995Y-127531727D01*
X174034880Y-127760535D01*
X174229465Y-127955120D01*
X174458273Y-128108005D01*
X174712510Y-128213314D01*
X174982408Y-128267000D01*
X175257592Y-128267000D01*
X175527490Y-128213314D01*
X175781727Y-128108005D01*
X176010535Y-127955120D01*
X176205120Y-127760535D01*
X176358005Y-127531727D01*
X176390000Y-127454485D01*
X176421995Y-127531727D01*
X176574880Y-127760535D01*
X176769465Y-127955120D01*
X176998273Y-128108005D01*
X177252510Y-128213314D01*
X177522408Y-128267000D01*
X177797592Y-128267000D01*
X178067490Y-128213314D01*
X178321727Y-128108005D01*
X178550535Y-127955120D01*
X178745120Y-127760535D01*
X178898005Y-127531727D01*
X178930000Y-127454485D01*
X178961995Y-127531727D01*
X179114880Y-127760535D01*
X179309465Y-127955120D01*
X179538273Y-128108005D01*
X179792510Y-128213314D01*
X180062408Y-128267000D01*
X180337592Y-128267000D01*
X180607490Y-128213314D01*
X180861727Y-128108005D01*
X181090535Y-127955120D01*
X181285120Y-127760535D01*
X181438005Y-127531727D01*
X181470000Y-127454485D01*
X181501995Y-127531727D01*
X181654880Y-127760535D01*
X181849465Y-127955120D01*
X182078273Y-128108005D01*
X182332510Y-128213314D01*
X182602408Y-128267000D01*
X182877592Y-128267000D01*
X183147490Y-128213314D01*
X183401727Y-128108005D01*
X183630535Y-127955120D01*
X183825120Y-127760535D01*
X183978005Y-127531727D01*
X184010000Y-127454485D01*
X184041995Y-127531727D01*
X184194880Y-127760535D01*
X184389465Y-127955120D01*
X184618273Y-128108005D01*
X184872510Y-128213314D01*
X185142408Y-128267000D01*
X185417592Y-128267000D01*
X185687490Y-128213314D01*
X185941727Y-128108005D01*
X186170535Y-127955120D01*
X186365120Y-127760535D01*
X186518005Y-127531727D01*
X186550000Y-127454485D01*
X186581995Y-127531727D01*
X186734880Y-127760535D01*
X186929465Y-127955120D01*
X187158273Y-128108005D01*
X187412510Y-128213314D01*
X187682408Y-128267000D01*
X187957592Y-128267000D01*
X188227490Y-128213314D01*
X188481727Y-128108005D01*
X188710535Y-127955120D01*
X188830090Y-127835565D01*
X189574040Y-127835565D01*
X189641020Y-128075656D01*
X189890048Y-128192756D01*
X190157135Y-128259023D01*
X190432017Y-128271910D01*
X190704133Y-128230922D01*
X190963023Y-128137636D01*
X191078980Y-128075656D01*
X191145960Y-127835565D01*
X190360000Y-127049605D01*
X189574040Y-127835565D01*
X188830090Y-127835565D01*
X188905120Y-127760535D01*
X189058005Y-127531727D01*
X189087692Y-127460057D01*
X189092364Y-127473023D01*
X189154344Y-127588980D01*
X189394435Y-127655960D01*
X190180395Y-126870000D01*
X190539605Y-126870000D01*
X191325565Y-127655960D01*
X191565656Y-127588980D01*
X191629485Y-127453240D01*
X191661995Y-127531727D01*
X191814880Y-127760535D01*
X192009465Y-127955120D01*
X192238273Y-128108005D01*
X192492510Y-128213314D01*
X192762408Y-128267000D01*
X193037592Y-128267000D01*
X193307490Y-128213314D01*
X193561727Y-128108005D01*
X193790535Y-127955120D01*
X193985120Y-127760535D01*
X194138005Y-127531727D01*
X194243314Y-127277490D01*
X194297000Y-127007592D01*
X194297000Y-126732408D01*
X194243314Y-126462510D01*
X194138005Y-126208273D01*
X193985120Y-125979465D01*
X193790535Y-125784880D01*
X193561727Y-125631995D01*
X193307490Y-125526686D01*
X193037592Y-125473000D01*
X192762408Y-125473000D01*
X192492510Y-125526686D01*
X192238273Y-125631995D01*
X192009465Y-125784880D01*
X191814880Y-125979465D01*
X191661995Y-126208273D01*
X191632308Y-126279943D01*
X191627636Y-126266977D01*
X191565656Y-126151020D01*
X191325565Y-126084040D01*
X190539605Y-126870000D01*
X190180395Y-126870000D01*
X189394435Y-126084040D01*
X189154344Y-126151020D01*
X189090515Y-126286760D01*
X189058005Y-126208273D01*
X188905120Y-125979465D01*
X188830090Y-125904435D01*
X189574040Y-125904435D01*
X190360000Y-126690395D01*
X191145960Y-125904435D01*
X191078980Y-125664344D01*
X190829952Y-125547244D01*
X190562865Y-125480977D01*
X190287983Y-125468090D01*
X190015867Y-125509078D01*
X189756977Y-125602364D01*
X189641020Y-125664344D01*
X189574040Y-125904435D01*
X188830090Y-125904435D01*
X188710535Y-125784880D01*
X188481727Y-125631995D01*
X188227490Y-125526686D01*
X187957592Y-125473000D01*
X187682408Y-125473000D01*
X187412510Y-125526686D01*
X187158273Y-125631995D01*
X186929465Y-125784880D01*
X186734880Y-125979465D01*
X186581995Y-126208273D01*
X186550000Y-126285515D01*
X186518005Y-126208273D01*
X186365120Y-125979465D01*
X186170535Y-125784880D01*
X186035255Y-125694488D01*
X186029003Y-125631014D01*
X185985546Y-125487753D01*
X185914974Y-125355724D01*
X185820001Y-125239999D01*
X185722020Y-125159588D01*
X184587001Y-124024570D01*
X184587001Y-112847110D01*
X184618273Y-112868005D01*
X184872510Y-112973314D01*
X185142408Y-113027000D01*
X185417592Y-113027000D01*
X185687490Y-112973314D01*
X185941727Y-112868005D01*
X186170535Y-112715120D01*
X186365120Y-112520535D01*
X186518005Y-112291727D01*
X186550000Y-112214485D01*
X186581995Y-112291727D01*
X186734880Y-112520535D01*
X186929465Y-112715120D01*
X187158273Y-112868005D01*
X187412510Y-112973314D01*
X187682408Y-113027000D01*
X187957592Y-113027000D01*
X188227490Y-112973314D01*
X188481727Y-112868005D01*
X188710535Y-112715120D01*
X188905120Y-112520535D01*
X189058005Y-112291727D01*
X189090000Y-112214485D01*
X189121995Y-112291727D01*
X189274880Y-112520535D01*
X189469465Y-112715120D01*
X189698273Y-112868005D01*
X189952510Y-112973314D01*
X190222408Y-113027000D01*
X190497592Y-113027000D01*
X190767490Y-112973314D01*
X191021727Y-112868005D01*
X191250535Y-112715120D01*
X191370090Y-112595565D01*
X192114040Y-112595565D01*
X192181020Y-112835656D01*
X192430048Y-112952756D01*
X192697135Y-113019023D01*
X192972017Y-113031910D01*
X193244133Y-112990922D01*
X193503023Y-112897636D01*
X193618980Y-112835656D01*
X193685960Y-112595565D01*
X192900000Y-111809605D01*
X192114040Y-112595565D01*
X191370090Y-112595565D01*
X191445120Y-112520535D01*
X191598005Y-112291727D01*
X191627692Y-112220057D01*
X191632364Y-112233023D01*
X191694344Y-112348980D01*
X191934435Y-112415960D01*
X192720395Y-111630000D01*
X193079605Y-111630000D01*
X193865565Y-112415960D01*
X194105656Y-112348980D01*
X194222756Y-112099952D01*
X194289023Y-111832865D01*
X194301910Y-111557983D01*
X194260922Y-111285867D01*
X194167636Y-111026977D01*
X194105656Y-110911020D01*
X193865565Y-110844040D01*
X193079605Y-111630000D01*
X192720395Y-111630000D01*
X191934435Y-110844040D01*
X191694344Y-110911020D01*
X191630515Y-111046760D01*
X191598005Y-110968273D01*
X191445120Y-110739465D01*
X191370090Y-110664435D01*
X192114040Y-110664435D01*
X192900000Y-111450395D01*
X193685960Y-110664435D01*
X193618980Y-110424344D01*
X193369952Y-110307244D01*
X193102865Y-110240977D01*
X192827983Y-110228090D01*
X192555867Y-110269078D01*
X192296977Y-110362364D01*
X192181020Y-110424344D01*
X192114040Y-110664435D01*
X191370090Y-110664435D01*
X191250535Y-110544880D01*
X191021727Y-110391995D01*
X190767490Y-110286686D01*
X190497592Y-110233000D01*
X190222408Y-110233000D01*
X189952510Y-110286686D01*
X189698273Y-110391995D01*
X189469465Y-110544880D01*
X189274880Y-110739465D01*
X189121995Y-110968273D01*
X189090000Y-111045515D01*
X189058005Y-110968273D01*
X188905120Y-110739465D01*
X188710535Y-110544880D01*
X188481727Y-110391995D01*
X188227490Y-110286686D01*
X187957592Y-110233000D01*
X187682408Y-110233000D01*
X187412510Y-110286686D01*
X187158273Y-110391995D01*
X186929465Y-110544880D01*
X186734880Y-110739465D01*
X186581995Y-110968273D01*
X186550000Y-111045515D01*
X186518005Y-110968273D01*
X186365120Y-110739465D01*
X186170535Y-110544880D01*
X185941727Y-110391995D01*
X185687490Y-110286686D01*
X185417592Y-110233000D01*
X185142408Y-110233000D01*
X184872510Y-110286686D01*
X184618273Y-110391995D01*
X184389465Y-110544880D01*
X184366510Y-110567835D01*
X184338004Y-110544440D01*
X179832556Y-106038993D01*
X179808753Y-106009989D01*
X179693028Y-105915016D01*
X179560999Y-105844444D01*
X179417738Y-105800987D01*
X179306085Y-105789990D01*
X179306074Y-105789990D01*
X179268752Y-105786314D01*
X179231430Y-105789990D01*
X165638529Y-105789990D01*
X165509984Y-105750997D01*
X165398331Y-105740000D01*
X165398320Y-105740000D01*
X165360998Y-105736324D01*
X165323676Y-105740000D01*
X164064802Y-105740000D01*
X163745001Y-105420200D01*
X163745001Y-105106753D01*
X163916842Y-105177932D01*
X164203740Y-105235000D01*
X164496260Y-105235000D01*
X164783158Y-105177932D01*
X165053411Y-105065990D01*
X165296632Y-104903475D01*
X165503475Y-104696632D01*
X165620000Y-104522240D01*
X165736525Y-104696632D01*
X165943368Y-104903475D01*
X166186589Y-105065990D01*
X166456842Y-105177932D01*
X166743740Y-105235000D01*
X167036260Y-105235000D01*
X167323158Y-105177932D01*
X167593411Y-105065990D01*
X167836632Y-104903475D01*
X168043475Y-104696632D01*
X168160000Y-104522240D01*
X168276525Y-104696632D01*
X168483368Y-104903475D01*
X168726589Y-105065990D01*
X168996842Y-105177932D01*
X169283740Y-105235000D01*
X169576260Y-105235000D01*
X169863158Y-105177932D01*
X170133411Y-105065990D01*
X170376632Y-104903475D01*
X170583475Y-104696632D01*
X170705195Y-104514466D01*
X170774822Y-104631355D01*
X170969731Y-104847588D01*
X171203080Y-105021641D01*
X171465901Y-105146825D01*
X171613110Y-105191476D01*
X171843000Y-105070155D01*
X171843000Y-103877000D01*
X171823000Y-103877000D01*
X171823000Y-103623000D01*
X171843000Y-103623000D01*
X171843000Y-101337000D01*
X171823000Y-101337000D01*
X171823000Y-101083000D01*
X171843000Y-101083000D01*
X171843000Y-101063000D01*
X172097000Y-101063000D01*
X172097000Y-101083000D01*
X172117000Y-101083000D01*
X172117000Y-101337000D01*
X172097000Y-101337000D01*
X172097000Y-103623000D01*
X172117000Y-103623000D01*
X172117000Y-103877000D01*
X172097000Y-103877000D01*
X172097000Y-105070155D01*
X172326890Y-105191476D01*
X172474099Y-105146825D01*
X172736920Y-105021641D01*
X172970269Y-104847588D01*
X173165178Y-104631355D01*
X173234805Y-104514466D01*
X173356525Y-104696632D01*
X173563368Y-104903475D01*
X173806589Y-105065990D01*
X174076842Y-105177932D01*
X174363740Y-105235000D01*
X174656260Y-105235000D01*
X174943158Y-105177932D01*
X175213411Y-105065990D01*
X175456632Y-104903475D01*
X175663475Y-104696632D01*
X175780000Y-104522240D01*
X175896525Y-104696632D01*
X176103368Y-104903475D01*
X176346589Y-105065990D01*
X176616842Y-105177932D01*
X176903740Y-105235000D01*
X177196260Y-105235000D01*
X177483158Y-105177932D01*
X177753411Y-105065990D01*
X177996632Y-104903475D01*
X178203475Y-104696632D01*
X178320000Y-104522240D01*
X178436525Y-104696632D01*
X178643368Y-104903475D01*
X178886589Y-105065990D01*
X179156842Y-105177932D01*
X179443740Y-105235000D01*
X179736260Y-105235000D01*
X180023158Y-105177932D01*
X180293411Y-105065990D01*
X180536632Y-104903475D01*
X180743475Y-104696632D01*
X180860000Y-104522240D01*
X180976525Y-104696632D01*
X181183368Y-104903475D01*
X181426589Y-105065990D01*
X181696842Y-105177932D01*
X181983740Y-105235000D01*
X182276260Y-105235000D01*
X182563158Y-105177932D01*
X182833411Y-105065990D01*
X183076632Y-104903475D01*
X183283475Y-104696632D01*
X183400000Y-104522240D01*
X183516525Y-104696632D01*
X183723368Y-104903475D01*
X183966589Y-105065990D01*
X184236842Y-105177932D01*
X184523740Y-105235000D01*
X184816260Y-105235000D01*
X185103158Y-105177932D01*
X185373411Y-105065990D01*
X185616632Y-104903475D01*
X185823475Y-104696632D01*
X185940000Y-104522240D01*
X186056525Y-104696632D01*
X186263368Y-104903475D01*
X186506589Y-105065990D01*
X186776842Y-105177932D01*
X187063740Y-105235000D01*
X187356260Y-105235000D01*
X187643158Y-105177932D01*
X187913411Y-105065990D01*
X188156632Y-104903475D01*
X188363475Y-104696632D01*
X188480000Y-104522240D01*
X188596525Y-104696632D01*
X188803368Y-104903475D01*
X189046589Y-105065990D01*
X189316842Y-105177932D01*
X189603740Y-105235000D01*
X189896260Y-105235000D01*
X190183158Y-105177932D01*
X190453411Y-105065990D01*
X190696632Y-104903475D01*
X190903475Y-104696632D01*
X191065990Y-104453411D01*
X191177932Y-104183158D01*
X191235000Y-103896260D01*
X191235000Y-103603740D01*
X191177932Y-103316842D01*
X191065990Y-103046589D01*
X190903475Y-102803368D01*
X190771620Y-102671513D01*
X190844180Y-102649502D01*
X190954494Y-102590537D01*
X191051185Y-102511185D01*
X191130537Y-102414494D01*
X191189502Y-102304180D01*
X191225812Y-102184482D01*
X191238072Y-102060000D01*
X191235000Y-101495750D01*
X191076250Y-101337000D01*
X189877000Y-101337000D01*
X189877000Y-101357000D01*
X189623000Y-101357000D01*
X189623000Y-101337000D01*
X189603000Y-101337000D01*
X189603000Y-101083000D01*
X189623000Y-101083000D01*
X189623000Y-99883750D01*
X189877000Y-99883750D01*
X189877000Y-101083000D01*
X191076250Y-101083000D01*
X191235000Y-100924250D01*
X191238072Y-100360000D01*
X191225812Y-100235518D01*
X191189502Y-100115820D01*
X191130537Y-100005506D01*
X191051185Y-99908815D01*
X190954494Y-99829463D01*
X190844180Y-99770498D01*
X190724482Y-99734188D01*
X190600000Y-99721928D01*
X190035750Y-99725000D01*
X189877000Y-99883750D01*
X189623000Y-99883750D01*
X189464250Y-99725000D01*
X188900000Y-99721928D01*
X188775518Y-99734188D01*
X188655820Y-99770498D01*
X188545506Y-99829463D01*
X188448815Y-99908815D01*
X188369463Y-100005506D01*
X188310498Y-100115820D01*
X188288487Y-100188380D01*
X188156632Y-100056525D01*
X187913411Y-99894010D01*
X187643158Y-99782068D01*
X187356260Y-99725000D01*
X187063740Y-99725000D01*
X186776842Y-99782068D01*
X186506589Y-99894010D01*
X186263368Y-100056525D01*
X186056525Y-100263368D01*
X185940000Y-100437760D01*
X185823475Y-100263368D01*
X185616632Y-100056525D01*
X185373411Y-99894010D01*
X185103158Y-99782068D01*
X184816260Y-99725000D01*
X184523740Y-99725000D01*
X184236842Y-99782068D01*
X183966589Y-99894010D01*
X183723368Y-100056525D01*
X183516525Y-100263368D01*
X183400000Y-100437760D01*
X183283475Y-100263368D01*
X183076632Y-100056525D01*
X182833411Y-99894010D01*
X182563158Y-99782068D01*
X182276260Y-99725000D01*
X181983740Y-99725000D01*
X181696842Y-99782068D01*
X181426589Y-99894010D01*
X181183368Y-100056525D01*
X180976525Y-100263368D01*
X180860000Y-100437760D01*
X180743475Y-100263368D01*
X180536632Y-100056525D01*
X180293411Y-99894010D01*
X180023158Y-99782068D01*
X179736260Y-99725000D01*
X179443740Y-99725000D01*
X179156842Y-99782068D01*
X178886589Y-99894010D01*
X178643368Y-100056525D01*
X178436525Y-100263368D01*
X178320000Y-100437760D01*
X178203475Y-100263368D01*
X177996632Y-100056525D01*
X177753411Y-99894010D01*
X177483158Y-99782068D01*
X177196260Y-99725000D01*
X176903740Y-99725000D01*
X176634999Y-99778456D01*
X176634999Y-98412321D01*
X176635228Y-98410000D01*
X214590000Y-98410000D01*
X214590001Y-147340000D01*
G37*
X214590001Y-147340000D02*
X174495000Y-147340000D01*
X174495000Y-143533647D01*
X174498314Y-143500000D01*
X174485088Y-143365717D01*
X174445919Y-143236594D01*
X174382312Y-143117593D01*
X174296711Y-143013289D01*
X174192407Y-142927688D01*
X174073406Y-142864081D01*
X173944283Y-142824912D01*
X173843647Y-142815000D01*
X173810000Y-142811686D01*
X173776353Y-142815000D01*
X170343647Y-142815000D01*
X170310000Y-142811686D01*
X170276353Y-142815000D01*
X170175717Y-142824912D01*
X170046594Y-142864081D01*
X169927593Y-142927688D01*
X169823289Y-143013289D01*
X169737688Y-143117593D01*
X169674081Y-143236594D01*
X169634912Y-143365717D01*
X169621686Y-143500000D01*
X169625000Y-143533647D01*
X169625001Y-147340000D01*
X162495000Y-147340000D01*
X162495000Y-143533647D01*
X162498314Y-143500000D01*
X162485088Y-143365717D01*
X162445919Y-143236594D01*
X162382312Y-143117593D01*
X162296711Y-143013289D01*
X162192407Y-142927688D01*
X162073406Y-142864081D01*
X161944283Y-142824912D01*
X161843647Y-142815000D01*
X161810000Y-142811686D01*
X161776353Y-142815000D01*
X158343647Y-142815000D01*
X158310000Y-142811686D01*
X158276353Y-142815000D01*
X158175717Y-142824912D01*
X158046594Y-142864081D01*
X157927593Y-142927688D01*
X157823289Y-143013289D01*
X157737688Y-143117593D01*
X157674081Y-143236594D01*
X157634912Y-143365717D01*
X157621686Y-143500000D01*
X157625000Y-143533647D01*
X157625001Y-147340000D01*
X150495000Y-147340000D01*
X150495000Y-143533647D01*
X150498314Y-143500000D01*
X150485088Y-143365717D01*
X150445919Y-143236594D01*
X150382312Y-143117593D01*
X150296711Y-143013289D01*
X150192407Y-142927688D01*
X150073406Y-142864081D01*
X149944283Y-142824912D01*
X149843647Y-142815000D01*
X149810000Y-142811686D01*
X149776353Y-142815000D01*
X146343647Y-142815000D01*
X146310000Y-142811686D01*
X146276353Y-142815000D01*
X146175717Y-142824912D01*
X146046594Y-142864081D01*
X145927593Y-142927688D01*
X145823289Y-143013289D01*
X145737688Y-143117593D01*
X145674081Y-143236594D01*
X145634912Y-143365717D01*
X145621686Y-143500000D01*
X145625000Y-143533647D01*
X145625001Y-147340000D01*
X138495000Y-147340000D01*
X138495000Y-143533647D01*
X138498314Y-143500000D01*
X138485088Y-143365717D01*
X138445919Y-143236594D01*
X138382312Y-143117593D01*
X138296711Y-143013289D01*
X138192407Y-142927688D01*
X138073406Y-142864081D01*
X137944283Y-142824912D01*
X137843647Y-142815000D01*
X137810000Y-142811686D01*
X137776353Y-142815000D01*
X134343647Y-142815000D01*
X134310000Y-142811686D01*
X134276353Y-142815000D01*
X134175717Y-142824912D01*
X134046594Y-142864081D01*
X133927593Y-142927688D01*
X133823289Y-143013289D01*
X133737688Y-143117593D01*
X133674081Y-143236594D01*
X133634912Y-143365717D01*
X133621686Y-143500000D01*
X133625000Y-143533647D01*
X133625001Y-147340000D01*
X126495000Y-147340000D01*
X126495000Y-143533647D01*
X126498314Y-143500000D01*
X126485088Y-143365717D01*
X126445919Y-143236594D01*
X126382312Y-143117593D01*
X126296711Y-143013289D01*
X126192407Y-142927688D01*
X126073406Y-142864081D01*
X125944283Y-142824912D01*
X125843647Y-142815000D01*
X125810000Y-142811686D01*
X125776353Y-142815000D01*
X122343647Y-142815000D01*
X122310000Y-142811686D01*
X122276353Y-142815000D01*
X122175717Y-142824912D01*
X122046594Y-142864081D01*
X121927593Y-142927688D01*
X121823289Y-143013289D01*
X121737688Y-143117593D01*
X121674081Y-143236594D01*
X121634912Y-143365717D01*
X121621686Y-143500000D01*
X121625000Y-143533647D01*
X121625001Y-147340000D01*
X111910000Y-147340000D01*
X111910000Y-131034304D01*
X112060000Y-131034304D01*
X112060000Y-131465696D01*
X112144161Y-131888799D01*
X112309248Y-132287354D01*
X112548916Y-132646043D01*
X112853957Y-132951084D01*
X113212646Y-133190752D01*
X113611201Y-133355839D01*
X114034304Y-133440000D01*
X114465696Y-133440000D01*
X114888799Y-133355839D01*
X115287354Y-133190752D01*
X115646043Y-132951084D01*
X115951084Y-132646043D01*
X116190752Y-132287354D01*
X116355839Y-131888799D01*
X116440000Y-131465696D01*
X116440000Y-131034304D01*
X116355839Y-130611201D01*
X116190752Y-130212646D01*
X115951084Y-129853957D01*
X115646043Y-129548916D01*
X115287354Y-129309248D01*
X114888799Y-129144161D01*
X114465696Y-129060000D01*
X114034304Y-129060000D01*
X113611201Y-129144161D01*
X113212646Y-129309248D01*
X112853957Y-129548916D01*
X112548916Y-129853957D01*
X112309248Y-130212646D01*
X112144161Y-130611201D01*
X112060000Y-131034304D01*
X111910000Y-131034304D01*
X111910000Y-122515445D01*
X111934010Y-122573411D01*
X112096525Y-122816632D01*
X112303368Y-123023475D01*
X112546589Y-123185990D01*
X112816842Y-123297932D01*
X113103740Y-123355000D01*
X113396260Y-123355000D01*
X113683158Y-123297932D01*
X113953411Y-123185990D01*
X114196632Y-123023475D01*
X114363693Y-122856414D01*
X115268281Y-123761002D01*
X115292080Y-123790001D01*
X115407805Y-123884974D01*
X115539834Y-123955546D01*
X115683095Y-123999003D01*
X115794748Y-124010000D01*
X115794756Y-124010000D01*
X115832081Y-124013676D01*
X115869406Y-124010000D01*
X117685485Y-124010000D01*
X117509744Y-124082795D01*
X117340226Y-124196063D01*
X117196063Y-124340226D01*
X117082795Y-124509744D01*
X117004774Y-124698102D01*
X116965000Y-124898061D01*
X116965000Y-125101939D01*
X117004774Y-125301898D01*
X117082795Y-125490256D01*
X117196063Y-125659774D01*
X117340226Y-125803937D01*
X117509744Y-125917205D01*
X117698102Y-125995226D01*
X117898061Y-126035000D01*
X118101939Y-126035000D01*
X118301898Y-125995226D01*
X118490256Y-125917205D01*
X118659774Y-125803937D01*
X118803937Y-125659774D01*
X118904013Y-125510000D01*
X134156396Y-125510000D01*
X134072510Y-125526686D01*
X133818273Y-125631995D01*
X133589465Y-125784880D01*
X133394880Y-125979465D01*
X133241995Y-126208273D01*
X133136686Y-126462510D01*
X133083000Y-126732408D01*
X133083000Y-127007592D01*
X133136686Y-127277490D01*
X133241995Y-127531727D01*
X133394880Y-127760535D01*
X133589465Y-127955120D01*
X133818273Y-128108005D01*
X134072510Y-128213314D01*
X134342408Y-128267000D01*
X134617592Y-128267000D01*
X134887490Y-128213314D01*
X135141727Y-128108005D01*
X135370535Y-127955120D01*
X135565120Y-127760535D01*
X135718005Y-127531727D01*
X135750000Y-127454485D01*
X135781995Y-127531727D01*
X135934880Y-127760535D01*
X136129465Y-127955120D01*
X136358273Y-128108005D01*
X136612510Y-128213314D01*
X136882408Y-128267000D01*
X137157592Y-128267000D01*
X137427490Y-128213314D01*
X137681727Y-128108005D01*
X137910535Y-127955120D01*
X138105120Y-127760535D01*
X138258005Y-127531727D01*
X138290000Y-127454485D01*
X138321995Y-127531727D01*
X138474880Y-127760535D01*
X138669465Y-127955120D01*
X138898273Y-128108005D01*
X139152510Y-128213314D01*
X139422408Y-128267000D01*
X139697592Y-128267000D01*
X139967490Y-128213314D01*
X140221727Y-128108005D01*
X140450535Y-127955120D01*
X140645120Y-127760535D01*
X140798005Y-127531727D01*
X140830000Y-127454485D01*
X140861995Y-127531727D01*
X141014880Y-127760535D01*
X141209465Y-127955120D01*
X141438273Y-128108005D01*
X141692510Y-128213314D01*
X141962408Y-128267000D01*
X142237592Y-128267000D01*
X142507490Y-128213314D01*
X142761727Y-128108005D01*
X142990535Y-127955120D01*
X143185120Y-127760535D01*
X143338005Y-127531727D01*
X143370000Y-127454485D01*
X143401995Y-127531727D01*
X143554880Y-127760535D01*
X143749465Y-127955120D01*
X143978273Y-128108005D01*
X144232510Y-128213314D01*
X144502408Y-128267000D01*
X144777592Y-128267000D01*
X145047490Y-128213314D01*
X145301727Y-128108005D01*
X145530535Y-127955120D01*
X145725120Y-127760535D01*
X145878005Y-127531727D01*
X145910000Y-127454485D01*
X145941995Y-127531727D01*
X146094880Y-127760535D01*
X146289465Y-127955120D01*
X146518273Y-128108005D01*
X146772510Y-128213314D01*
X147042408Y-128267000D01*
X147317592Y-128267000D01*
X147587490Y-128213314D01*
X147841727Y-128108005D01*
X148070535Y-127955120D01*
X148265120Y-127760535D01*
X148418005Y-127531727D01*
X148450000Y-127454485D01*
X148481995Y-127531727D01*
X148634880Y-127760535D01*
X148829465Y-127955120D01*
X149058273Y-128108005D01*
X149312510Y-128213314D01*
X149582408Y-128267000D01*
X149857592Y-128267000D01*
X150127490Y-128213314D01*
X150381727Y-128108005D01*
X150610535Y-127955120D01*
X150805120Y-127760535D01*
X150958005Y-127531727D01*
X150990000Y-127454485D01*
X151021995Y-127531727D01*
X151174880Y-127760535D01*
X151369465Y-127955120D01*
X151500001Y-128042341D01*
X151500000Y-128925198D01*
X149710199Y-130715000D01*
X149648061Y-130715000D01*
X149448102Y-130754774D01*
X149259744Y-130832795D01*
X149090226Y-130946063D01*
X148946063Y-131090226D01*
X148832795Y-131259744D01*
X148754774Y-131448102D01*
X148715000Y-131648061D01*
X148715000Y-131851939D01*
X148754774Y-132051898D01*
X148832795Y-132240256D01*
X148946063Y-132409774D01*
X149090226Y-132553937D01*
X149181613Y-132615000D01*
X141305751Y-132615000D01*
X141250000Y-132609509D01*
X141194248Y-132615000D01*
X127055752Y-132615000D01*
X127000000Y-132609509D01*
X126777501Y-132631423D01*
X126563553Y-132696324D01*
X126366377Y-132801716D01*
X126236856Y-132908011D01*
X126236854Y-132908013D01*
X126193551Y-132943551D01*
X126158013Y-132986854D01*
X125510000Y-133634868D01*
X125510000Y-132203711D01*
X125553937Y-132159774D01*
X125667205Y-131990256D01*
X125745226Y-131801898D01*
X125785000Y-131601939D01*
X125785000Y-131398061D01*
X125745226Y-131198102D01*
X125667205Y-131009744D01*
X125553937Y-130840226D01*
X125409774Y-130696063D01*
X125240256Y-130582795D01*
X125051898Y-130504774D01*
X124851939Y-130465000D01*
X124648061Y-130465000D01*
X124448102Y-130504774D01*
X124259744Y-130582795D01*
X124090226Y-130696063D01*
X123946063Y-130840226D01*
X123832795Y-131009744D01*
X123754774Y-131198102D01*
X123715000Y-131398061D01*
X123715000Y-131601939D01*
X123754774Y-131801898D01*
X123832795Y-131990256D01*
X123946063Y-132159774D01*
X123990001Y-132203712D01*
X123990000Y-133435198D01*
X122988998Y-134436201D01*
X122960000Y-134459999D01*
X122936202Y-134488997D01*
X122936201Y-134488998D01*
X122865026Y-134575724D01*
X122794454Y-134707754D01*
X122750998Y-134851015D01*
X122736324Y-135000000D01*
X122740001Y-135037332D01*
X122740000Y-135796289D01*
X122696063Y-135840226D01*
X122582795Y-136009744D01*
X122504774Y-136198102D01*
X122465000Y-136398061D01*
X122465000Y-136601939D01*
X122504774Y-136801898D01*
X122530912Y-136865000D01*
X121970133Y-136865000D01*
X120885000Y-135779869D01*
X120885000Y-131470132D01*
X121400925Y-130954207D01*
X121490256Y-130917205D01*
X121659774Y-130803937D01*
X121803937Y-130659774D01*
X121917205Y-130490256D01*
X121995226Y-130301898D01*
X122035000Y-130101939D01*
X122035000Y-129898061D01*
X121995226Y-129698102D01*
X121917205Y-129509744D01*
X121803937Y-129340226D01*
X121659774Y-129196063D01*
X121490256Y-129082795D01*
X121301898Y-129004774D01*
X121292186Y-129002842D01*
X121186447Y-128946324D01*
X120972499Y-128881423D01*
X120750000Y-128859509D01*
X120527501Y-128881423D01*
X120313553Y-128946324D01*
X120116377Y-129051716D01*
X119986856Y-129158011D01*
X118986859Y-130158009D01*
X118943552Y-130193551D01*
X118801717Y-130366377D01*
X118749002Y-130465000D01*
X118696324Y-130563554D01*
X118631423Y-130777502D01*
X118609509Y-131000000D01*
X118615001Y-131055761D01*
X118615001Y-131217598D01*
X118601939Y-131215000D01*
X118398061Y-131215000D01*
X118198102Y-131254774D01*
X118009744Y-131332795D01*
X117840226Y-131446063D01*
X117696063Y-131590226D01*
X117582795Y-131759744D01*
X117504774Y-131948102D01*
X117465000Y-132148061D01*
X117465000Y-132351939D01*
X117504774Y-132551898D01*
X117582795Y-132740256D01*
X117696063Y-132909774D01*
X117740001Y-132953712D01*
X117740000Y-136712677D01*
X117736324Y-136750000D01*
X117740000Y-136787322D01*
X117740000Y-136787332D01*
X117750997Y-136898985D01*
X117780191Y-136995226D01*
X117794454Y-137042246D01*
X117865026Y-137174276D01*
X117880845Y-137193551D01*
X117959999Y-137290001D01*
X117989003Y-137313804D01*
X120686200Y-140011002D01*
X120709999Y-140040001D01*
X120825724Y-140134974D01*
X120957753Y-140205546D01*
X121101014Y-140249003D01*
X121212667Y-140260000D01*
X121212676Y-140260000D01*
X121249999Y-140263676D01*
X121287322Y-140260000D01*
X142046289Y-140260000D01*
X142090226Y-140303937D01*
X142259744Y-140417205D01*
X142448102Y-140495226D01*
X142648061Y-140535000D01*
X142851939Y-140535000D01*
X143051898Y-140495226D01*
X143240256Y-140417205D01*
X143409774Y-140303937D01*
X143453711Y-140260000D01*
X154046289Y-140260000D01*
X154090226Y-140303937D01*
X154259744Y-140417205D01*
X154448102Y-140495226D01*
X154648061Y-140535000D01*
X154851939Y-140535000D01*
X155051898Y-140495226D01*
X155240256Y-140417205D01*
X155409774Y-140303937D01*
X155453711Y-140260000D01*
X166046289Y-140260000D01*
X166090226Y-140303937D01*
X166259744Y-140417205D01*
X166448102Y-140495226D01*
X166648061Y-140535000D01*
X166851939Y-140535000D01*
X167051898Y-140495226D01*
X167240256Y-140417205D01*
X167409774Y-140303937D01*
X167453711Y-140260000D01*
X178046289Y-140260000D01*
X178090226Y-140303937D01*
X178259744Y-140417205D01*
X178448102Y-140495226D01*
X178648061Y-140535000D01*
X178851939Y-140535000D01*
X179051898Y-140495226D01*
X179240256Y-140417205D01*
X179409774Y-140303937D01*
X179453711Y-140260000D01*
X194935199Y-140260000D01*
X196936201Y-142261003D01*
X196959999Y-142290001D01*
X196988997Y-142313799D01*
X197075724Y-142384974D01*
X197207753Y-142455546D01*
X197351014Y-142499003D01*
X197500000Y-142513677D01*
X197537333Y-142510000D01*
X197546289Y-142510000D01*
X197590226Y-142553937D01*
X197759744Y-142667205D01*
X197948102Y-142745226D01*
X198148061Y-142785000D01*
X198351939Y-142785000D01*
X198551898Y-142745226D01*
X198740256Y-142667205D01*
X198909774Y-142553937D01*
X199053937Y-142409774D01*
X199167205Y-142240256D01*
X199245226Y-142051898D01*
X199285000Y-141851939D01*
X199285000Y-141648061D01*
X199245226Y-141448102D01*
X199167205Y-141259744D01*
X199053937Y-141090226D01*
X198909774Y-140946063D01*
X198740256Y-140832795D01*
X198551898Y-140754774D01*
X198351939Y-140715000D01*
X198148061Y-140715000D01*
X197948102Y-140754774D01*
X197759744Y-140832795D01*
X197698511Y-140873709D01*
X195959801Y-139135000D01*
X197944249Y-139135000D01*
X198000000Y-139140491D01*
X198055751Y-139135000D01*
X198055752Y-139135000D01*
X198222499Y-139118577D01*
X198436447Y-139053676D01*
X198633623Y-138948284D01*
X198806449Y-138806449D01*
X198841996Y-138763135D01*
X202013141Y-135591991D01*
X202056449Y-135556449D01*
X202198284Y-135383623D01*
X202303676Y-135186447D01*
X202368577Y-134972499D01*
X202385000Y-134805752D01*
X202390491Y-134750001D01*
X202385000Y-134694249D01*
X202385000Y-131034304D01*
X209810000Y-131034304D01*
X209810000Y-131465696D01*
X209894161Y-131888799D01*
X210059248Y-132287354D01*
X210298916Y-132646043D01*
X210603957Y-132951084D01*
X210962646Y-133190752D01*
X211361201Y-133355839D01*
X211784304Y-133440000D01*
X212215696Y-133440000D01*
X212638799Y-133355839D01*
X213037354Y-133190752D01*
X213396043Y-132951084D01*
X213701084Y-132646043D01*
X213940752Y-132287354D01*
X214105839Y-131888799D01*
X214190000Y-131465696D01*
X214190000Y-131034304D01*
X214105839Y-130611201D01*
X213940752Y-130212646D01*
X213701084Y-129853957D01*
X213396043Y-129548916D01*
X213037354Y-129309248D01*
X212638799Y-129144161D01*
X212215696Y-129060000D01*
X211784304Y-129060000D01*
X211361201Y-129144161D01*
X210962646Y-129309248D01*
X210603957Y-129548916D01*
X210298916Y-129853957D01*
X210059248Y-130212646D01*
X209894161Y-130611201D01*
X209810000Y-131034304D01*
X202385000Y-131034304D01*
X202385000Y-110350000D01*
X207761928Y-110350000D01*
X207774188Y-110474482D01*
X207810498Y-110594180D01*
X207869463Y-110704494D01*
X207948815Y-110801185D01*
X208045506Y-110880537D01*
X208155820Y-110939502D01*
X208228380Y-110961513D01*
X208096525Y-111093368D01*
X207934010Y-111336589D01*
X207822068Y-111606842D01*
X207765000Y-111893740D01*
X207765000Y-112186260D01*
X207822068Y-112473158D01*
X207934010Y-112743411D01*
X208096525Y-112986632D01*
X208303368Y-113193475D01*
X208477760Y-113310000D01*
X208303368Y-113426525D01*
X208096525Y-113633368D01*
X207934010Y-113876589D01*
X207822068Y-114146842D01*
X207765000Y-114433740D01*
X207765000Y-114726260D01*
X207822068Y-115013158D01*
X207934010Y-115283411D01*
X208096525Y-115526632D01*
X208303368Y-115733475D01*
X208477760Y-115850000D01*
X208303368Y-115966525D01*
X208096525Y-116173368D01*
X207934010Y-116416589D01*
X207822068Y-116686842D01*
X207765000Y-116973740D01*
X207765000Y-117266260D01*
X207822068Y-117553158D01*
X207934010Y-117823411D01*
X208096525Y-118066632D01*
X208303368Y-118273475D01*
X208477760Y-118390000D01*
X208303368Y-118506525D01*
X208096525Y-118713368D01*
X207934010Y-118956589D01*
X207822068Y-119226842D01*
X207765000Y-119513740D01*
X207765000Y-119806260D01*
X207822068Y-120093158D01*
X207934010Y-120363411D01*
X208096525Y-120606632D01*
X208303368Y-120813475D01*
X208477760Y-120930000D01*
X208303368Y-121046525D01*
X208096525Y-121253368D01*
X207934010Y-121496589D01*
X207822068Y-121766842D01*
X207765000Y-122053740D01*
X207765000Y-122346260D01*
X207822068Y-122633158D01*
X207934010Y-122903411D01*
X208096525Y-123146632D01*
X208303368Y-123353475D01*
X208477760Y-123470000D01*
X208303368Y-123586525D01*
X208096525Y-123793368D01*
X207934010Y-124036589D01*
X207822068Y-124306842D01*
X207765000Y-124593740D01*
X207765000Y-124886260D01*
X207822068Y-125173158D01*
X207934010Y-125443411D01*
X208096525Y-125686632D01*
X208303368Y-125893475D01*
X208546589Y-126055990D01*
X208816842Y-126167932D01*
X209103740Y-126225000D01*
X209396260Y-126225000D01*
X209683158Y-126167932D01*
X209953411Y-126055990D01*
X210196632Y-125893475D01*
X210403475Y-125686632D01*
X210565990Y-125443411D01*
X210677932Y-125173158D01*
X210735000Y-124886260D01*
X210735000Y-124593740D01*
X210677932Y-124306842D01*
X210565990Y-124036589D01*
X210403475Y-123793368D01*
X210196632Y-123586525D01*
X210022240Y-123470000D01*
X210196632Y-123353475D01*
X210403475Y-123146632D01*
X210565990Y-122903411D01*
X210677932Y-122633158D01*
X210735000Y-122346260D01*
X210735000Y-122053740D01*
X210677932Y-121766842D01*
X210565990Y-121496589D01*
X210403475Y-121253368D01*
X210196632Y-121046525D01*
X210022240Y-120930000D01*
X210196632Y-120813475D01*
X210403475Y-120606632D01*
X210565990Y-120363411D01*
X210677932Y-120093158D01*
X210735000Y-119806260D01*
X210735000Y-119513740D01*
X210677932Y-119226842D01*
X210565990Y-118956589D01*
X210403475Y-118713368D01*
X210196632Y-118506525D01*
X210022240Y-118390000D01*
X210196632Y-118273475D01*
X210403475Y-118066632D01*
X210565990Y-117823411D01*
X210677932Y-117553158D01*
X210735000Y-117266260D01*
X210735000Y-116973740D01*
X210677932Y-116686842D01*
X210565990Y-116416589D01*
X210403475Y-116173368D01*
X210196632Y-115966525D01*
X210022240Y-115850000D01*
X210196632Y-115733475D01*
X210403475Y-115526632D01*
X210565990Y-115283411D01*
X210677932Y-115013158D01*
X210735000Y-114726260D01*
X210735000Y-114433740D01*
X210677932Y-114146842D01*
X210565990Y-113876589D01*
X210403475Y-113633368D01*
X210196632Y-113426525D01*
X210022240Y-113310000D01*
X210196632Y-113193475D01*
X210403475Y-112986632D01*
X210565990Y-112743411D01*
X210677932Y-112473158D01*
X210735000Y-112186260D01*
X210735000Y-111893740D01*
X210677932Y-111606842D01*
X210565990Y-111336589D01*
X210403475Y-111093368D01*
X210271620Y-110961513D01*
X210344180Y-110939502D01*
X210454494Y-110880537D01*
X210551185Y-110801185D01*
X210630537Y-110704494D01*
X210689502Y-110594180D01*
X210725812Y-110474482D01*
X210738072Y-110350000D01*
X211511928Y-110350000D01*
X211524188Y-110474482D01*
X211560498Y-110594180D01*
X211619463Y-110704494D01*
X211698815Y-110801185D01*
X211795506Y-110880537D01*
X211905820Y-110939502D01*
X211978380Y-110961513D01*
X211846525Y-111093368D01*
X211684010Y-111336589D01*
X211572068Y-111606842D01*
X211515000Y-111893740D01*
X211515000Y-112186260D01*
X211572068Y-112473158D01*
X211684010Y-112743411D01*
X211846525Y-112986632D01*
X212053368Y-113193475D01*
X212227760Y-113310000D01*
X212053368Y-113426525D01*
X211846525Y-113633368D01*
X211684010Y-113876589D01*
X211572068Y-114146842D01*
X211515000Y-114433740D01*
X211515000Y-114726260D01*
X211572068Y-115013158D01*
X211684010Y-115283411D01*
X211846525Y-115526632D01*
X212053368Y-115733475D01*
X212227760Y-115850000D01*
X212053368Y-115966525D01*
X211846525Y-116173368D01*
X211684010Y-116416589D01*
X211572068Y-116686842D01*
X211515000Y-116973740D01*
X211515000Y-117266260D01*
X211572068Y-117553158D01*
X211684010Y-117823411D01*
X211846525Y-118066632D01*
X212053368Y-118273475D01*
X212227760Y-118390000D01*
X212053368Y-118506525D01*
X211846525Y-118713368D01*
X211684010Y-118956589D01*
X211572068Y-119226842D01*
X211515000Y-119513740D01*
X211515000Y-119806260D01*
X211572068Y-120093158D01*
X211684010Y-120363411D01*
X211846525Y-120606632D01*
X212053368Y-120813475D01*
X212227760Y-120930000D01*
X212053368Y-121046525D01*
X211846525Y-121253368D01*
X211684010Y-121496589D01*
X211572068Y-121766842D01*
X211515000Y-122053740D01*
X211515000Y-122346260D01*
X211572068Y-122633158D01*
X211684010Y-122903411D01*
X211846525Y-123146632D01*
X212053368Y-123353475D01*
X212227760Y-123470000D01*
X212053368Y-123586525D01*
X211846525Y-123793368D01*
X211684010Y-124036589D01*
X211572068Y-124306842D01*
X211515000Y-124593740D01*
X211515000Y-124886260D01*
X211572068Y-125173158D01*
X211684010Y-125443411D01*
X211846525Y-125686632D01*
X212053368Y-125893475D01*
X212296589Y-126055990D01*
X212566842Y-126167932D01*
X212853740Y-126225000D01*
X213146260Y-126225000D01*
X213433158Y-126167932D01*
X213703411Y-126055990D01*
X213946632Y-125893475D01*
X214153475Y-125686632D01*
X214315990Y-125443411D01*
X214427932Y-125173158D01*
X214485000Y-124886260D01*
X214485000Y-124593740D01*
X214427932Y-124306842D01*
X214315990Y-124036589D01*
X214153475Y-123793368D01*
X213946632Y-123586525D01*
X213772240Y-123470000D01*
X213946632Y-123353475D01*
X214153475Y-123146632D01*
X214315990Y-122903411D01*
X214427932Y-122633158D01*
X214485000Y-122346260D01*
X214485000Y-122053740D01*
X214427932Y-121766842D01*
X214315990Y-121496589D01*
X214153475Y-121253368D01*
X213946632Y-121046525D01*
X213772240Y-120930000D01*
X213946632Y-120813475D01*
X214153475Y-120606632D01*
X214315990Y-120363411D01*
X214427932Y-120093158D01*
X214485000Y-119806260D01*
X214485000Y-119513740D01*
X214427932Y-119226842D01*
X214315990Y-118956589D01*
X214153475Y-118713368D01*
X213946632Y-118506525D01*
X213772240Y-118390000D01*
X213946632Y-118273475D01*
X214153475Y-118066632D01*
X214315990Y-117823411D01*
X214427932Y-117553158D01*
X214485000Y-117266260D01*
X214485000Y-116973740D01*
X214427932Y-116686842D01*
X214315990Y-116416589D01*
X214153475Y-116173368D01*
X213946632Y-115966525D01*
X213772240Y-115850000D01*
X213946632Y-115733475D01*
X214153475Y-115526632D01*
X214315990Y-115283411D01*
X214427932Y-115013158D01*
X214485000Y-114726260D01*
X214485000Y-114433740D01*
X214427932Y-114146842D01*
X214315990Y-113876589D01*
X214153475Y-113633368D01*
X213946632Y-113426525D01*
X213772240Y-113310000D01*
X213946632Y-113193475D01*
X214153475Y-112986632D01*
X214315990Y-112743411D01*
X214427932Y-112473158D01*
X214485000Y-112186260D01*
X214485000Y-111893740D01*
X214427932Y-111606842D01*
X214315990Y-111336589D01*
X214153475Y-111093368D01*
X214021620Y-110961513D01*
X214094180Y-110939502D01*
X214204494Y-110880537D01*
X214301185Y-110801185D01*
X214380537Y-110704494D01*
X214439502Y-110594180D01*
X214475812Y-110474482D01*
X214488072Y-110350000D01*
X214485000Y-109785750D01*
X214326250Y-109627000D01*
X213127000Y-109627000D01*
X213127000Y-109647000D01*
X212873000Y-109647000D01*
X212873000Y-109627000D01*
X211673750Y-109627000D01*
X211515000Y-109785750D01*
X211511928Y-110350000D01*
X210738072Y-110350000D01*
X210735000Y-109785750D01*
X210576250Y-109627000D01*
X209377000Y-109627000D01*
X209377000Y-109647000D01*
X209123000Y-109647000D01*
X209123000Y-109627000D01*
X207923750Y-109627000D01*
X207765000Y-109785750D01*
X207761928Y-110350000D01*
X202385000Y-110350000D01*
X202385000Y-109120131D01*
X202855131Y-108650000D01*
X207761928Y-108650000D01*
X207765000Y-109214250D01*
X207923750Y-109373000D01*
X209123000Y-109373000D01*
X209123000Y-108173750D01*
X209377000Y-108173750D01*
X209377000Y-109373000D01*
X210576250Y-109373000D01*
X210735000Y-109214250D01*
X210738072Y-108650000D01*
X211511928Y-108650000D01*
X211515000Y-109214250D01*
X211673750Y-109373000D01*
X212873000Y-109373000D01*
X212873000Y-108173750D01*
X213127000Y-108173750D01*
X213127000Y-109373000D01*
X214326250Y-109373000D01*
X214485000Y-109214250D01*
X214488072Y-108650000D01*
X214475812Y-108525518D01*
X214439502Y-108405820D01*
X214380537Y-108295506D01*
X214301185Y-108198815D01*
X214204494Y-108119463D01*
X214094180Y-108060498D01*
X213974482Y-108024188D01*
X213850000Y-108011928D01*
X213285750Y-108015000D01*
X213127000Y-108173750D01*
X212873000Y-108173750D01*
X212714250Y-108015000D01*
X212150000Y-108011928D01*
X212025518Y-108024188D01*
X211905820Y-108060498D01*
X211795506Y-108119463D01*
X211698815Y-108198815D01*
X211619463Y-108295506D01*
X211560498Y-108405820D01*
X211524188Y-108525518D01*
X211511928Y-108650000D01*
X210738072Y-108650000D01*
X210725812Y-108525518D01*
X210689502Y-108405820D01*
X210630537Y-108295506D01*
X210551185Y-108198815D01*
X210454494Y-108119463D01*
X210344180Y-108060498D01*
X210224482Y-108024188D01*
X210100000Y-108011928D01*
X209535750Y-108015000D01*
X209377000Y-108173750D01*
X209123000Y-108173750D01*
X208964250Y-108015000D01*
X208400000Y-108011928D01*
X208275518Y-108024188D01*
X208155820Y-108060498D01*
X208045506Y-108119463D01*
X207948815Y-108198815D01*
X207869463Y-108295506D01*
X207810498Y-108405820D01*
X207774188Y-108525518D01*
X207761928Y-108650000D01*
X202855131Y-108650000D01*
X209667961Y-101837172D01*
X209767378Y-101997656D01*
X209655557Y-102165008D01*
X209562460Y-102389764D01*
X209515000Y-102628363D01*
X209515000Y-102871637D01*
X209562460Y-103110236D01*
X209655557Y-103334992D01*
X209790713Y-103537267D01*
X209962733Y-103709287D01*
X210165008Y-103844443D01*
X210389764Y-103937540D01*
X210628363Y-103985000D01*
X210871637Y-103985000D01*
X211110236Y-103937540D01*
X211334992Y-103844443D01*
X211537267Y-103709287D01*
X211709287Y-103537267D01*
X211844443Y-103334992D01*
X211937540Y-103110236D01*
X211985000Y-102871637D01*
X211985000Y-102628363D01*
X211937540Y-102389764D01*
X211844443Y-102165008D01*
X211732622Y-101997656D01*
X211858572Y-101794341D01*
X211943467Y-101567610D01*
X211819709Y-101377000D01*
X210877000Y-101377000D01*
X210877000Y-101397000D01*
X210623000Y-101397000D01*
X210623000Y-101377000D01*
X210603000Y-101377000D01*
X210603000Y-101123000D01*
X210623000Y-101123000D01*
X210623000Y-101103000D01*
X210877000Y-101103000D01*
X210877000Y-101123000D01*
X211819709Y-101123000D01*
X211943467Y-100932390D01*
X211858572Y-100705659D01*
X211827146Y-100654930D01*
X211850809Y-100626096D01*
X211926074Y-100485285D01*
X211972422Y-100332496D01*
X211988072Y-100173600D01*
X211988072Y-99326400D01*
X211972422Y-99167504D01*
X211926074Y-99014715D01*
X211850809Y-98873904D01*
X211749519Y-98750481D01*
X211626096Y-98649191D01*
X211485285Y-98573926D01*
X211332496Y-98527578D01*
X211173600Y-98511928D01*
X210326400Y-98511928D01*
X210167504Y-98527578D01*
X210014715Y-98573926D01*
X209880434Y-98645701D01*
X209713553Y-98696324D01*
X209516377Y-98801716D01*
X209386856Y-98908011D01*
X206028470Y-102266398D01*
X205948283Y-102116378D01*
X205806448Y-101943552D01*
X205633622Y-101801717D01*
X205436446Y-101696325D01*
X205222498Y-101631424D01*
X204999999Y-101609510D01*
X204777500Y-101631424D01*
X204563552Y-101696325D01*
X204366376Y-101801717D01*
X204236856Y-101908012D01*
X198999610Y-107145259D01*
X199105839Y-106888799D01*
X199190000Y-106465696D01*
X199190000Y-106034304D01*
X199105839Y-105611201D01*
X198940752Y-105212646D01*
X198701084Y-104853957D01*
X198396043Y-104548916D01*
X198037354Y-104309248D01*
X197638799Y-104144161D01*
X197215696Y-104060000D01*
X196784304Y-104060000D01*
X196361201Y-104144161D01*
X195962646Y-104309248D01*
X195603957Y-104548916D01*
X195298916Y-104853957D01*
X195059248Y-105212646D01*
X194894161Y-105611201D01*
X194810000Y-106034304D01*
X194810000Y-106465696D01*
X194894161Y-106888799D01*
X195059248Y-107287354D01*
X195298916Y-107646043D01*
X195603957Y-107951084D01*
X195962646Y-108190752D01*
X196361201Y-108355839D01*
X196784304Y-108440000D01*
X197215696Y-108440000D01*
X197638799Y-108355839D01*
X197895257Y-108249610D01*
X197236864Y-108908005D01*
X197193551Y-108943551D01*
X197051716Y-109116377D01*
X196972818Y-109263987D01*
X196946324Y-109313554D01*
X196881423Y-109527502D01*
X196859509Y-109750000D01*
X196865000Y-109805751D01*
X196865001Y-124744237D01*
X196865000Y-124744247D01*
X196865001Y-130779867D01*
X195029869Y-132615000D01*
X177305751Y-132615000D01*
X177250000Y-132609509D01*
X177194248Y-132615000D01*
X165305751Y-132615000D01*
X165250000Y-132609509D01*
X165194248Y-132615000D01*
X153305751Y-132615000D01*
X153250000Y-132609509D01*
X153194248Y-132615000D01*
X150318387Y-132615000D01*
X150409774Y-132553937D01*
X150553937Y-132409774D01*
X150667205Y-132240256D01*
X150745226Y-132051898D01*
X150785000Y-131851939D01*
X150785000Y-131789801D01*
X152771004Y-129803798D01*
X152800001Y-129780001D01*
X152826332Y-129747917D01*
X152894974Y-129664277D01*
X152965546Y-129532247D01*
X152972372Y-129509744D01*
X153009003Y-129388986D01*
X153020000Y-129277333D01*
X153020000Y-129277324D01*
X153023676Y-129240001D01*
X153020000Y-129202678D01*
X153020000Y-128042341D01*
X153150535Y-127955120D01*
X153345120Y-127760535D01*
X153498005Y-127531727D01*
X153530000Y-127454485D01*
X153561995Y-127531727D01*
X153714880Y-127760535D01*
X153909465Y-127955120D01*
X154138273Y-128108005D01*
X154392510Y-128213314D01*
X154662408Y-128267000D01*
X154937592Y-128267000D01*
X155207490Y-128213314D01*
X155461727Y-128108005D01*
X155690535Y-127955120D01*
X155810090Y-127835565D01*
X156554040Y-127835565D01*
X156621020Y-128075656D01*
X156870048Y-128192756D01*
X157137135Y-128259023D01*
X157412017Y-128271910D01*
X157684133Y-128230922D01*
X157943023Y-128137636D01*
X158058980Y-128075656D01*
X158125960Y-127835565D01*
X157340000Y-127049605D01*
X156554040Y-127835565D01*
X155810090Y-127835565D01*
X155885120Y-127760535D01*
X156038005Y-127531727D01*
X156067692Y-127460057D01*
X156072364Y-127473023D01*
X156134344Y-127588980D01*
X156374435Y-127655960D01*
X157160395Y-126870000D01*
X156374435Y-126084040D01*
X156134344Y-126151020D01*
X156070515Y-126286760D01*
X156038005Y-126208273D01*
X155885120Y-125979465D01*
X155810090Y-125904435D01*
X156554040Y-125904435D01*
X157340000Y-126690395D01*
X158125960Y-125904435D01*
X158058980Y-125664344D01*
X157809952Y-125547244D01*
X157542865Y-125480977D01*
X157267983Y-125468090D01*
X156995867Y-125509078D01*
X156736977Y-125602364D01*
X156621020Y-125664344D01*
X156554040Y-125904435D01*
X155810090Y-125904435D01*
X155690535Y-125784880D01*
X155461727Y-125631995D01*
X155207490Y-125526686D01*
X154937592Y-125473000D01*
X154662408Y-125473000D01*
X154392510Y-125526686D01*
X154138273Y-125631995D01*
X153909465Y-125784880D01*
X153714880Y-125979465D01*
X153561995Y-126208273D01*
X153530000Y-126285515D01*
X153498005Y-126208273D01*
X153345120Y-125979465D01*
X153150535Y-125784880D01*
X152921727Y-125631995D01*
X152667490Y-125526686D01*
X152397592Y-125473000D01*
X152122408Y-125473000D01*
X151852510Y-125526686D01*
X151598273Y-125631995D01*
X151369465Y-125784880D01*
X151174880Y-125979465D01*
X151021995Y-126208273D01*
X150990000Y-126285515D01*
X150958005Y-126208273D01*
X150805120Y-125979465D01*
X150610535Y-125784880D01*
X150480000Y-125697659D01*
X150480000Y-124007325D01*
X150483676Y-123970000D01*
X150480000Y-123932675D01*
X150480000Y-123932667D01*
X150469003Y-123821014D01*
X150425546Y-123677753D01*
X150354974Y-123545724D01*
X150260001Y-123429999D01*
X150231004Y-123406202D01*
X149563803Y-122739002D01*
X149540001Y-122709999D01*
X149424276Y-122615026D01*
X149292247Y-122544454D01*
X149148986Y-122500997D01*
X149037333Y-122490000D01*
X149037322Y-122490000D01*
X149000000Y-122486324D01*
X148962678Y-122490000D01*
X116146883Y-122490000D01*
X115015885Y-121359003D01*
X114992082Y-121329999D01*
X114876357Y-121235026D01*
X114744328Y-121164454D01*
X114601067Y-121120997D01*
X114530909Y-121114087D01*
X114403475Y-120923368D01*
X114196632Y-120716525D01*
X114022240Y-120600000D01*
X114196632Y-120483475D01*
X114403475Y-120276632D01*
X114528178Y-120090000D01*
X147882678Y-120090000D01*
X147920000Y-120093676D01*
X147957322Y-120090000D01*
X147957333Y-120090000D01*
X148068986Y-120079003D01*
X148212247Y-120035546D01*
X148344276Y-119964974D01*
X148460001Y-119870001D01*
X148483803Y-119840998D01*
X150231009Y-118093794D01*
X150260001Y-118070001D01*
X150283795Y-118041008D01*
X150283799Y-118041004D01*
X150354973Y-117954277D01*
X150354974Y-117954276D01*
X150425546Y-117822247D01*
X150469003Y-117678986D01*
X150480000Y-117567333D01*
X150480000Y-117567324D01*
X150483676Y-117530001D01*
X150480000Y-117492678D01*
X150480000Y-112802341D01*
X150610535Y-112715120D01*
X150805120Y-112520535D01*
X150958005Y-112291727D01*
X150990000Y-112214485D01*
X151021995Y-112291727D01*
X151174880Y-112520535D01*
X151369465Y-112715120D01*
X151598273Y-112868005D01*
X151852510Y-112973314D01*
X152122408Y-113027000D01*
X152397592Y-113027000D01*
X152667490Y-112973314D01*
X152921727Y-112868005D01*
X153150535Y-112715120D01*
X153345120Y-112520535D01*
X153498005Y-112291727D01*
X153530000Y-112214485D01*
X153561995Y-112291727D01*
X153714880Y-112520535D01*
X153909465Y-112715120D01*
X154138273Y-112868005D01*
X154392510Y-112973314D01*
X154662408Y-113027000D01*
X154937592Y-113027000D01*
X155207490Y-112973314D01*
X155461727Y-112868005D01*
X155690535Y-112715120D01*
X155885120Y-112520535D01*
X156038005Y-112291727D01*
X156070000Y-112214485D01*
X156101995Y-112291727D01*
X156254880Y-112520535D01*
X156449465Y-112715120D01*
X156678273Y-112868005D01*
X156932510Y-112973314D01*
X157202408Y-113027000D01*
X157477592Y-113027000D01*
X157747490Y-112973314D01*
X158001727Y-112868005D01*
X158230535Y-112715120D01*
X158425120Y-112520535D01*
X158578005Y-112291727D01*
X158610000Y-112214485D01*
X158641995Y-112291727D01*
X158794880Y-112520535D01*
X158989465Y-112715120D01*
X159120001Y-112802342D01*
X159120000Y-121342678D01*
X159116324Y-121380000D01*
X159120000Y-121417322D01*
X159120000Y-121417332D01*
X159130997Y-121528985D01*
X159145791Y-121577754D01*
X159174454Y-121672246D01*
X159245026Y-121804276D01*
X159274530Y-121840226D01*
X159339999Y-121920001D01*
X159369002Y-121943804D01*
X159965000Y-122539802D01*
X159965000Y-122601939D01*
X160004774Y-122801898D01*
X160082795Y-122990256D01*
X160196063Y-123159774D01*
X160340226Y-123303937D01*
X160509744Y-123417205D01*
X160698102Y-123495226D01*
X160898061Y-123535000D01*
X161101939Y-123535000D01*
X161301898Y-123495226D01*
X161490256Y-123417205D01*
X161659774Y-123303937D01*
X161803937Y-123159774D01*
X161917205Y-122990256D01*
X161995226Y-122801898D01*
X162035000Y-122601939D01*
X162035000Y-122398061D01*
X161995226Y-122198102D01*
X161917205Y-122009744D01*
X161803937Y-121840226D01*
X161659774Y-121696063D01*
X161490256Y-121582795D01*
X161301898Y-121504774D01*
X161101939Y-121465000D01*
X161039802Y-121465000D01*
X160640000Y-121065199D01*
X160640000Y-112802341D01*
X160770535Y-112715120D01*
X160965120Y-112520535D01*
X161118005Y-112291727D01*
X161150000Y-112214485D01*
X161181995Y-112291727D01*
X161334880Y-112520535D01*
X161529465Y-112715120D01*
X161740001Y-112855796D01*
X161740000Y-120296289D01*
X161696063Y-120340226D01*
X161582795Y-120509744D01*
X161504774Y-120698102D01*
X161465000Y-120898061D01*
X161465000Y-121101939D01*
X161504774Y-121301898D01*
X161582795Y-121490256D01*
X161696063Y-121659774D01*
X161840226Y-121803937D01*
X162009744Y-121917205D01*
X162198102Y-121995226D01*
X162398061Y-122035000D01*
X162601939Y-122035000D01*
X162801898Y-121995226D01*
X162990256Y-121917205D01*
X163159774Y-121803937D01*
X163303937Y-121659774D01*
X163417205Y-121490256D01*
X163495226Y-121301898D01*
X163535000Y-121101939D01*
X163535000Y-120898061D01*
X163495226Y-120698102D01*
X163417205Y-120509744D01*
X163303937Y-120340226D01*
X163260000Y-120296289D01*
X163260000Y-112748886D01*
X163310535Y-112715120D01*
X163505120Y-112520535D01*
X163658005Y-112291727D01*
X163690000Y-112214485D01*
X163721995Y-112291727D01*
X163874880Y-112520535D01*
X164069465Y-112715120D01*
X164240001Y-112829069D01*
X164240000Y-117796289D01*
X164196063Y-117840226D01*
X164082795Y-118009744D01*
X164004774Y-118198102D01*
X163965000Y-118398061D01*
X163965000Y-118601939D01*
X164004774Y-118801898D01*
X164082795Y-118990256D01*
X164196063Y-119159774D01*
X164340226Y-119303937D01*
X164509744Y-119417205D01*
X164698102Y-119495226D01*
X164898061Y-119535000D01*
X165101939Y-119535000D01*
X165287001Y-119498189D01*
X165287001Y-125379679D01*
X165283325Y-125417001D01*
X165287001Y-125454323D01*
X165287001Y-125454333D01*
X165292661Y-125511802D01*
X165097592Y-125473000D01*
X164822408Y-125473000D01*
X164552510Y-125526686D01*
X164298273Y-125631995D01*
X164069465Y-125784880D01*
X163874880Y-125979465D01*
X163721995Y-126208273D01*
X163690000Y-126285515D01*
X163658005Y-126208273D01*
X163505120Y-125979465D01*
X163310535Y-125784880D01*
X163081727Y-125631995D01*
X162827490Y-125526686D01*
X162557592Y-125473000D01*
X162282408Y-125473000D01*
X162012510Y-125526686D01*
X161758273Y-125631995D01*
X161529465Y-125784880D01*
X161334880Y-125979465D01*
X161181995Y-126208273D01*
X161150000Y-126285515D01*
X161118005Y-126208273D01*
X160965120Y-125979465D01*
X160770535Y-125784880D01*
X160541727Y-125631995D01*
X160287490Y-125526686D01*
X160017592Y-125473000D01*
X159742408Y-125473000D01*
X159472510Y-125526686D01*
X159218273Y-125631995D01*
X158989465Y-125784880D01*
X158794880Y-125979465D01*
X158641995Y-126208273D01*
X158612308Y-126279943D01*
X158607636Y-126266977D01*
X158545656Y-126151020D01*
X158305565Y-126084040D01*
X157519605Y-126870000D01*
X158305565Y-127655960D01*
X158545656Y-127588980D01*
X158609485Y-127453240D01*
X158641995Y-127531727D01*
X158794880Y-127760535D01*
X158989465Y-127955120D01*
X159218273Y-128108005D01*
X159472510Y-128213314D01*
X159742408Y-128267000D01*
X160017592Y-128267000D01*
X160287490Y-128213314D01*
X160541727Y-128108005D01*
X160770535Y-127955120D01*
X160965120Y-127760535D01*
X161118005Y-127531727D01*
X161150000Y-127454485D01*
X161181995Y-127531727D01*
X161334880Y-127760535D01*
X161529465Y-127955120D01*
X161758273Y-128108005D01*
X162012510Y-128213314D01*
X162282408Y-128267000D01*
X162557592Y-128267000D01*
X162827490Y-128213314D01*
X163081727Y-128108005D01*
X163310535Y-127955120D01*
X163505120Y-127760535D01*
X163658005Y-127531727D01*
X163690000Y-127454485D01*
X163721995Y-127531727D01*
X163874880Y-127760535D01*
X164069465Y-127955120D01*
X164298273Y-128108005D01*
X164552510Y-128213314D01*
X164822408Y-128267000D01*
X165097592Y-128267000D01*
X165367490Y-128213314D01*
X165621727Y-128108005D01*
X165850535Y-127955120D01*
X166045120Y-127760535D01*
X166198005Y-127531727D01*
X166230000Y-127454485D01*
X166261995Y-127531727D01*
X166414880Y-127760535D01*
X166609465Y-127955120D01*
X166838273Y-128108005D01*
X167092510Y-128213314D01*
X167362408Y-128267000D01*
X167637592Y-128267000D01*
X167907490Y-128213314D01*
X168161727Y-128108005D01*
X168390535Y-127955120D01*
X168585120Y-127760535D01*
X168738005Y-127531727D01*
X168770000Y-127454485D01*
X168801995Y-127531727D01*
X168954880Y-127760535D01*
X169149465Y-127955120D01*
X169378273Y-128108005D01*
X169632510Y-128213314D01*
X169902408Y-128267000D01*
X170177592Y-128267000D01*
X170447490Y-128213314D01*
X170701727Y-128108005D01*
X170930535Y-127955120D01*
X171125120Y-127760535D01*
X171278005Y-127531727D01*
X171310000Y-127454485D01*
X171341995Y-127531727D01*
X171494880Y-127760535D01*
X171689465Y-127955120D01*
X171918273Y-128108005D01*
X172172510Y-128213314D01*
X172442408Y-128267000D01*
X172717592Y-128267000D01*
X172987490Y-128213314D01*
X173241727Y-128108005D01*
X173470535Y-127955120D01*
X173665120Y-127760535D01*
X173818005Y-127531727D01*
X173850000Y-127454485D01*
X173881995Y-127531727D01*
X174034880Y-127760535D01*
X174229465Y-127955120D01*
X174458273Y-128108005D01*
X174712510Y-128213314D01*
X174982408Y-128267000D01*
X175257592Y-128267000D01*
X175527490Y-128213314D01*
X175781727Y-128108005D01*
X176010535Y-127955120D01*
X176205120Y-127760535D01*
X176358005Y-127531727D01*
X176390000Y-127454485D01*
X176421995Y-127531727D01*
X176574880Y-127760535D01*
X176769465Y-127955120D01*
X176998273Y-128108005D01*
X177252510Y-128213314D01*
X177522408Y-128267000D01*
X177797592Y-128267000D01*
X178067490Y-128213314D01*
X178321727Y-128108005D01*
X178550535Y-127955120D01*
X178745120Y-127760535D01*
X178898005Y-127531727D01*
X178930000Y-127454485D01*
X178961995Y-127531727D01*
X179114880Y-127760535D01*
X179309465Y-127955120D01*
X179538273Y-128108005D01*
X179792510Y-128213314D01*
X180062408Y-128267000D01*
X180337592Y-128267000D01*
X180607490Y-128213314D01*
X180861727Y-128108005D01*
X181090535Y-127955120D01*
X181285120Y-127760535D01*
X181438005Y-127531727D01*
X181470000Y-127454485D01*
X181501995Y-127531727D01*
X181654880Y-127760535D01*
X181849465Y-127955120D01*
X182078273Y-128108005D01*
X182332510Y-128213314D01*
X182602408Y-128267000D01*
X182877592Y-128267000D01*
X183147490Y-128213314D01*
X183401727Y-128108005D01*
X183630535Y-127955120D01*
X183825120Y-127760535D01*
X183978005Y-127531727D01*
X184010000Y-127454485D01*
X184041995Y-127531727D01*
X184194880Y-127760535D01*
X184389465Y-127955120D01*
X184618273Y-128108005D01*
X184872510Y-128213314D01*
X185142408Y-128267000D01*
X185417592Y-128267000D01*
X185687490Y-128213314D01*
X185941727Y-128108005D01*
X186170535Y-127955120D01*
X186365120Y-127760535D01*
X186518005Y-127531727D01*
X186550000Y-127454485D01*
X186581995Y-127531727D01*
X186734880Y-127760535D01*
X186929465Y-127955120D01*
X187158273Y-128108005D01*
X187412510Y-128213314D01*
X187682408Y-128267000D01*
X187957592Y-128267000D01*
X188227490Y-128213314D01*
X188481727Y-128108005D01*
X188710535Y-127955120D01*
X188830090Y-127835565D01*
X189574040Y-127835565D01*
X189641020Y-128075656D01*
X189890048Y-128192756D01*
X190157135Y-128259023D01*
X190432017Y-128271910D01*
X190704133Y-128230922D01*
X190963023Y-128137636D01*
X191078980Y-128075656D01*
X191145960Y-127835565D01*
X190360000Y-127049605D01*
X189574040Y-127835565D01*
X188830090Y-127835565D01*
X188905120Y-127760535D01*
X189058005Y-127531727D01*
X189087692Y-127460057D01*
X189092364Y-127473023D01*
X189154344Y-127588980D01*
X189394435Y-127655960D01*
X190180395Y-126870000D01*
X190539605Y-126870000D01*
X191325565Y-127655960D01*
X191565656Y-127588980D01*
X191629485Y-127453240D01*
X191661995Y-127531727D01*
X191814880Y-127760535D01*
X192009465Y-127955120D01*
X192238273Y-128108005D01*
X192492510Y-128213314D01*
X192762408Y-128267000D01*
X193037592Y-128267000D01*
X193307490Y-128213314D01*
X193561727Y-128108005D01*
X193790535Y-127955120D01*
X193985120Y-127760535D01*
X194138005Y-127531727D01*
X194243314Y-127277490D01*
X194297000Y-127007592D01*
X194297000Y-126732408D01*
X194243314Y-126462510D01*
X194138005Y-126208273D01*
X193985120Y-125979465D01*
X193790535Y-125784880D01*
X193561727Y-125631995D01*
X193307490Y-125526686D01*
X193037592Y-125473000D01*
X192762408Y-125473000D01*
X192492510Y-125526686D01*
X192238273Y-125631995D01*
X192009465Y-125784880D01*
X191814880Y-125979465D01*
X191661995Y-126208273D01*
X191632308Y-126279943D01*
X191627636Y-126266977D01*
X191565656Y-126151020D01*
X191325565Y-126084040D01*
X190539605Y-126870000D01*
X190180395Y-126870000D01*
X189394435Y-126084040D01*
X189154344Y-126151020D01*
X189090515Y-126286760D01*
X189058005Y-126208273D01*
X188905120Y-125979465D01*
X188830090Y-125904435D01*
X189574040Y-125904435D01*
X190360000Y-126690395D01*
X191145960Y-125904435D01*
X191078980Y-125664344D01*
X190829952Y-125547244D01*
X190562865Y-125480977D01*
X190287983Y-125468090D01*
X190015867Y-125509078D01*
X189756977Y-125602364D01*
X189641020Y-125664344D01*
X189574040Y-125904435D01*
X188830090Y-125904435D01*
X188710535Y-125784880D01*
X188481727Y-125631995D01*
X188227490Y-125526686D01*
X187957592Y-125473000D01*
X187682408Y-125473000D01*
X187412510Y-125526686D01*
X187158273Y-125631995D01*
X186929465Y-125784880D01*
X186734880Y-125979465D01*
X186581995Y-126208273D01*
X186550000Y-126285515D01*
X186518005Y-126208273D01*
X186365120Y-125979465D01*
X186170535Y-125784880D01*
X186035255Y-125694488D01*
X186029003Y-125631014D01*
X185985546Y-125487753D01*
X185914974Y-125355724D01*
X185820001Y-125239999D01*
X185722020Y-125159588D01*
X184587001Y-124024570D01*
X184587001Y-112847110D01*
X184618273Y-112868005D01*
X184872510Y-112973314D01*
X185142408Y-113027000D01*
X185417592Y-113027000D01*
X185687490Y-112973314D01*
X185941727Y-112868005D01*
X186170535Y-112715120D01*
X186365120Y-112520535D01*
X186518005Y-112291727D01*
X186550000Y-112214485D01*
X186581995Y-112291727D01*
X186734880Y-112520535D01*
X186929465Y-112715120D01*
X187158273Y-112868005D01*
X187412510Y-112973314D01*
X187682408Y-113027000D01*
X187957592Y-113027000D01*
X188227490Y-112973314D01*
X188481727Y-112868005D01*
X188710535Y-112715120D01*
X188905120Y-112520535D01*
X189058005Y-112291727D01*
X189090000Y-112214485D01*
X189121995Y-112291727D01*
X189274880Y-112520535D01*
X189469465Y-112715120D01*
X189698273Y-112868005D01*
X189952510Y-112973314D01*
X190222408Y-113027000D01*
X190497592Y-113027000D01*
X190767490Y-112973314D01*
X191021727Y-112868005D01*
X191250535Y-112715120D01*
X191370090Y-112595565D01*
X192114040Y-112595565D01*
X192181020Y-112835656D01*
X192430048Y-112952756D01*
X192697135Y-113019023D01*
X192972017Y-113031910D01*
X193244133Y-112990922D01*
X193503023Y-112897636D01*
X193618980Y-112835656D01*
X193685960Y-112595565D01*
X192900000Y-111809605D01*
X192114040Y-112595565D01*
X191370090Y-112595565D01*
X191445120Y-112520535D01*
X191598005Y-112291727D01*
X191627692Y-112220057D01*
X191632364Y-112233023D01*
X191694344Y-112348980D01*
X191934435Y-112415960D01*
X192720395Y-111630000D01*
X193079605Y-111630000D01*
X193865565Y-112415960D01*
X194105656Y-112348980D01*
X194222756Y-112099952D01*
X194289023Y-111832865D01*
X194301910Y-111557983D01*
X194260922Y-111285867D01*
X194167636Y-111026977D01*
X194105656Y-110911020D01*
X193865565Y-110844040D01*
X193079605Y-111630000D01*
X192720395Y-111630000D01*
X191934435Y-110844040D01*
X191694344Y-110911020D01*
X191630515Y-111046760D01*
X191598005Y-110968273D01*
X191445120Y-110739465D01*
X191370090Y-110664435D01*
X192114040Y-110664435D01*
X192900000Y-111450395D01*
X193685960Y-110664435D01*
X193618980Y-110424344D01*
X193369952Y-110307244D01*
X193102865Y-110240977D01*
X192827983Y-110228090D01*
X192555867Y-110269078D01*
X192296977Y-110362364D01*
X192181020Y-110424344D01*
X192114040Y-110664435D01*
X191370090Y-110664435D01*
X191250535Y-110544880D01*
X191021727Y-110391995D01*
X190767490Y-110286686D01*
X190497592Y-110233000D01*
X190222408Y-110233000D01*
X189952510Y-110286686D01*
X189698273Y-110391995D01*
X189469465Y-110544880D01*
X189274880Y-110739465D01*
X189121995Y-110968273D01*
X189090000Y-111045515D01*
X189058005Y-110968273D01*
X188905120Y-110739465D01*
X188710535Y-110544880D01*
X188481727Y-110391995D01*
X188227490Y-110286686D01*
X187957592Y-110233000D01*
X187682408Y-110233000D01*
X187412510Y-110286686D01*
X187158273Y-110391995D01*
X186929465Y-110544880D01*
X186734880Y-110739465D01*
X186581995Y-110968273D01*
X186550000Y-111045515D01*
X186518005Y-110968273D01*
X186365120Y-110739465D01*
X186170535Y-110544880D01*
X185941727Y-110391995D01*
X185687490Y-110286686D01*
X185417592Y-110233000D01*
X185142408Y-110233000D01*
X184872510Y-110286686D01*
X184618273Y-110391995D01*
X184389465Y-110544880D01*
X184366510Y-110567835D01*
X184338004Y-110544440D01*
X179832556Y-106038993D01*
X179808753Y-106009989D01*
X179693028Y-105915016D01*
X179560999Y-105844444D01*
X179417738Y-105800987D01*
X179306085Y-105789990D01*
X179306074Y-105789990D01*
X179268752Y-105786314D01*
X179231430Y-105789990D01*
X165638529Y-105789990D01*
X165509984Y-105750997D01*
X165398331Y-105740000D01*
X165398320Y-105740000D01*
X165360998Y-105736324D01*
X165323676Y-105740000D01*
X164064802Y-105740000D01*
X163745001Y-105420200D01*
X163745001Y-105106753D01*
X163916842Y-105177932D01*
X164203740Y-105235000D01*
X164496260Y-105235000D01*
X164783158Y-105177932D01*
X165053411Y-105065990D01*
X165296632Y-104903475D01*
X165503475Y-104696632D01*
X165620000Y-104522240D01*
X165736525Y-104696632D01*
X165943368Y-104903475D01*
X166186589Y-105065990D01*
X166456842Y-105177932D01*
X166743740Y-105235000D01*
X167036260Y-105235000D01*
X167323158Y-105177932D01*
X167593411Y-105065990D01*
X167836632Y-104903475D01*
X168043475Y-104696632D01*
X168160000Y-104522240D01*
X168276525Y-104696632D01*
X168483368Y-104903475D01*
X168726589Y-105065990D01*
X168996842Y-105177932D01*
X169283740Y-105235000D01*
X169576260Y-105235000D01*
X169863158Y-105177932D01*
X170133411Y-105065990D01*
X170376632Y-104903475D01*
X170583475Y-104696632D01*
X170705195Y-104514466D01*
X170774822Y-104631355D01*
X170969731Y-104847588D01*
X171203080Y-105021641D01*
X171465901Y-105146825D01*
X171613110Y-105191476D01*
X171843000Y-105070155D01*
X171843000Y-103877000D01*
X171823000Y-103877000D01*
X171823000Y-103623000D01*
X171843000Y-103623000D01*
X171843000Y-101337000D01*
X171823000Y-101337000D01*
X171823000Y-101083000D01*
X171843000Y-101083000D01*
X171843000Y-101063000D01*
X172097000Y-101063000D01*
X172097000Y-101083000D01*
X172117000Y-101083000D01*
X172117000Y-101337000D01*
X172097000Y-101337000D01*
X172097000Y-103623000D01*
X172117000Y-103623000D01*
X172117000Y-103877000D01*
X172097000Y-103877000D01*
X172097000Y-105070155D01*
X172326890Y-105191476D01*
X172474099Y-105146825D01*
X172736920Y-105021641D01*
X172970269Y-104847588D01*
X173165178Y-104631355D01*
X173234805Y-104514466D01*
X173356525Y-104696632D01*
X173563368Y-104903475D01*
X173806589Y-105065990D01*
X174076842Y-105177932D01*
X174363740Y-105235000D01*
X174656260Y-105235000D01*
X174943158Y-105177932D01*
X175213411Y-105065990D01*
X175456632Y-104903475D01*
X175663475Y-104696632D01*
X175780000Y-104522240D01*
X175896525Y-104696632D01*
X176103368Y-104903475D01*
X176346589Y-105065990D01*
X176616842Y-105177932D01*
X176903740Y-105235000D01*
X177196260Y-105235000D01*
X177483158Y-105177932D01*
X177753411Y-105065990D01*
X177996632Y-104903475D01*
X178203475Y-104696632D01*
X178320000Y-104522240D01*
X178436525Y-104696632D01*
X178643368Y-104903475D01*
X178886589Y-105065990D01*
X179156842Y-105177932D01*
X179443740Y-105235000D01*
X179736260Y-105235000D01*
X180023158Y-105177932D01*
X180293411Y-105065990D01*
X180536632Y-104903475D01*
X180743475Y-104696632D01*
X180860000Y-104522240D01*
X180976525Y-104696632D01*
X181183368Y-104903475D01*
X181426589Y-105065990D01*
X181696842Y-105177932D01*
X181983740Y-105235000D01*
X182276260Y-105235000D01*
X182563158Y-105177932D01*
X182833411Y-105065990D01*
X183076632Y-104903475D01*
X183283475Y-104696632D01*
X183400000Y-104522240D01*
X183516525Y-104696632D01*
X183723368Y-104903475D01*
X183966589Y-105065990D01*
X184236842Y-105177932D01*
X184523740Y-105235000D01*
X184816260Y-105235000D01*
X185103158Y-105177932D01*
X185373411Y-105065990D01*
X185616632Y-104903475D01*
X185823475Y-104696632D01*
X185940000Y-104522240D01*
X186056525Y-104696632D01*
X186263368Y-104903475D01*
X186506589Y-105065990D01*
X186776842Y-105177932D01*
X187063740Y-105235000D01*
X187356260Y-105235000D01*
X187643158Y-105177932D01*
X187913411Y-105065990D01*
X188156632Y-104903475D01*
X188363475Y-104696632D01*
X188480000Y-104522240D01*
X188596525Y-104696632D01*
X188803368Y-104903475D01*
X189046589Y-105065990D01*
X189316842Y-105177932D01*
X189603740Y-105235000D01*
X189896260Y-105235000D01*
X190183158Y-105177932D01*
X190453411Y-105065990D01*
X190696632Y-104903475D01*
X190903475Y-104696632D01*
X191065990Y-104453411D01*
X191177932Y-104183158D01*
X191235000Y-103896260D01*
X191235000Y-103603740D01*
X191177932Y-103316842D01*
X191065990Y-103046589D01*
X190903475Y-102803368D01*
X190771620Y-102671513D01*
X190844180Y-102649502D01*
X190954494Y-102590537D01*
X191051185Y-102511185D01*
X191130537Y-102414494D01*
X191189502Y-102304180D01*
X191225812Y-102184482D01*
X191238072Y-102060000D01*
X191235000Y-101495750D01*
X191076250Y-101337000D01*
X189877000Y-101337000D01*
X189877000Y-101357000D01*
X189623000Y-101357000D01*
X189623000Y-101337000D01*
X189603000Y-101337000D01*
X189603000Y-101083000D01*
X189623000Y-101083000D01*
X189623000Y-99883750D01*
X189877000Y-99883750D01*
X189877000Y-101083000D01*
X191076250Y-101083000D01*
X191235000Y-100924250D01*
X191238072Y-100360000D01*
X191225812Y-100235518D01*
X191189502Y-100115820D01*
X191130537Y-100005506D01*
X191051185Y-99908815D01*
X190954494Y-99829463D01*
X190844180Y-99770498D01*
X190724482Y-99734188D01*
X190600000Y-99721928D01*
X190035750Y-99725000D01*
X189877000Y-99883750D01*
X189623000Y-99883750D01*
X189464250Y-99725000D01*
X188900000Y-99721928D01*
X188775518Y-99734188D01*
X188655820Y-99770498D01*
X188545506Y-99829463D01*
X188448815Y-99908815D01*
X188369463Y-100005506D01*
X188310498Y-100115820D01*
X188288487Y-100188380D01*
X188156632Y-100056525D01*
X187913411Y-99894010D01*
X187643158Y-99782068D01*
X187356260Y-99725000D01*
X187063740Y-99725000D01*
X186776842Y-99782068D01*
X186506589Y-99894010D01*
X186263368Y-100056525D01*
X186056525Y-100263368D01*
X185940000Y-100437760D01*
X185823475Y-100263368D01*
X185616632Y-100056525D01*
X185373411Y-99894010D01*
X185103158Y-99782068D01*
X184816260Y-99725000D01*
X184523740Y-99725000D01*
X184236842Y-99782068D01*
X183966589Y-99894010D01*
X183723368Y-100056525D01*
X183516525Y-100263368D01*
X183400000Y-100437760D01*
X183283475Y-100263368D01*
X183076632Y-100056525D01*
X182833411Y-99894010D01*
X182563158Y-99782068D01*
X182276260Y-99725000D01*
X181983740Y-99725000D01*
X181696842Y-99782068D01*
X181426589Y-99894010D01*
X181183368Y-100056525D01*
X180976525Y-100263368D01*
X180860000Y-100437760D01*
X180743475Y-100263368D01*
X180536632Y-100056525D01*
X180293411Y-99894010D01*
X180023158Y-99782068D01*
X179736260Y-99725000D01*
X179443740Y-99725000D01*
X179156842Y-99782068D01*
X178886589Y-99894010D01*
X178643368Y-100056525D01*
X178436525Y-100263368D01*
X178320000Y-100437760D01*
X178203475Y-100263368D01*
X177996632Y-100056525D01*
X177753411Y-99894010D01*
X177483158Y-99782068D01*
X177196260Y-99725000D01*
X176903740Y-99725000D01*
X176634999Y-99778456D01*
X176634999Y-98412321D01*
X176635228Y-98410000D01*
X214590000Y-98410000D01*
X214590001Y-147340000D01*
G36*
X200115001Y-127444239D02*
G01*
X200115000Y-127444249D01*
X200115001Y-134279867D01*
X197529869Y-136865000D01*
X170627195Y-136865000D01*
X170618577Y-136777501D01*
X170553676Y-136563553D01*
X170448284Y-136366377D01*
X170306449Y-136193551D01*
X170133623Y-136051716D01*
X169936447Y-135946324D01*
X169722499Y-135881423D01*
X169500000Y-135859509D01*
X169277502Y-135881423D01*
X169063554Y-135946324D01*
X168866378Y-136051716D01*
X168693552Y-136193551D01*
X168551717Y-136366377D01*
X168446324Y-136563553D01*
X168381423Y-136777501D01*
X168372805Y-136865000D01*
X158627195Y-136865000D01*
X158618577Y-136777501D01*
X158553676Y-136563553D01*
X158448284Y-136366377D01*
X158306449Y-136193551D01*
X158133623Y-136051716D01*
X157936447Y-135946324D01*
X157722499Y-135881423D01*
X157500000Y-135859509D01*
X157277502Y-135881423D01*
X157063554Y-135946324D01*
X156866378Y-136051716D01*
X156693552Y-136193551D01*
X156551717Y-136366377D01*
X156446324Y-136563553D01*
X156381423Y-136777501D01*
X156372805Y-136865000D01*
X146627195Y-136865000D01*
X146618577Y-136777501D01*
X146553676Y-136563553D01*
X146448284Y-136366377D01*
X146306449Y-136193551D01*
X146133623Y-136051716D01*
X145936447Y-135946324D01*
X145722499Y-135881423D01*
X145500000Y-135859509D01*
X145277502Y-135881423D01*
X145063554Y-135946324D01*
X144866378Y-136051716D01*
X144693552Y-136193551D01*
X144551717Y-136366377D01*
X144446324Y-136563553D01*
X144381423Y-136777501D01*
X144372805Y-136865000D01*
X134627195Y-136865000D01*
X134618577Y-136777501D01*
X134553676Y-136563553D01*
X134448284Y-136366377D01*
X134306449Y-136193551D01*
X134133623Y-136051716D01*
X133936447Y-135946324D01*
X133722499Y-135881423D01*
X133500000Y-135859509D01*
X133277502Y-135881423D01*
X133063554Y-135946324D01*
X132866378Y-136051716D01*
X132693552Y-136193551D01*
X132551717Y-136366377D01*
X132446324Y-136563553D01*
X132381423Y-136777501D01*
X132372805Y-136865000D01*
X125485103Y-136865000D01*
X125513143Y-136841988D01*
X127470133Y-134885000D01*
X140122805Y-134885000D01*
X140131423Y-134972499D01*
X140196324Y-135186447D01*
X140301717Y-135383623D01*
X140443552Y-135556449D01*
X140616378Y-135698284D01*
X140813554Y-135803676D01*
X141027502Y-135868577D01*
X141250000Y-135890491D01*
X141472499Y-135868577D01*
X141686447Y-135803676D01*
X141883623Y-135698284D01*
X142056449Y-135556449D01*
X142198284Y-135383623D01*
X142303676Y-135186447D01*
X142368577Y-134972499D01*
X142377195Y-134885000D01*
X152122805Y-134885000D01*
X152131423Y-134972499D01*
X152196324Y-135186447D01*
X152301717Y-135383623D01*
X152443552Y-135556449D01*
X152616378Y-135698284D01*
X152813554Y-135803676D01*
X153027502Y-135868577D01*
X153250000Y-135890491D01*
X153472499Y-135868577D01*
X153686447Y-135803676D01*
X153883623Y-135698284D01*
X154056449Y-135556449D01*
X154198284Y-135383623D01*
X154303676Y-135186447D01*
X154368577Y-134972499D01*
X154377195Y-134885000D01*
X164122805Y-134885000D01*
X164131423Y-134972499D01*
X164196324Y-135186447D01*
X164301717Y-135383623D01*
X164443552Y-135556449D01*
X164616378Y-135698284D01*
X164813554Y-135803676D01*
X165027502Y-135868577D01*
X165250000Y-135890491D01*
X165472499Y-135868577D01*
X165686447Y-135803676D01*
X165883623Y-135698284D01*
X166056449Y-135556449D01*
X166198284Y-135383623D01*
X166303676Y-135186447D01*
X166368577Y-134972499D01*
X166377195Y-134885000D01*
X176122805Y-134885000D01*
X176131423Y-134972499D01*
X176196324Y-135186447D01*
X176301717Y-135383623D01*
X176443552Y-135556449D01*
X176616378Y-135698284D01*
X176813554Y-135803676D01*
X177027502Y-135868577D01*
X177250000Y-135890491D01*
X177472499Y-135868577D01*
X177686447Y-135803676D01*
X177883623Y-135698284D01*
X178056449Y-135556449D01*
X178198284Y-135383623D01*
X178303676Y-135186447D01*
X178368577Y-134972499D01*
X178377195Y-134885000D01*
X195444249Y-134885000D01*
X195500000Y-134890491D01*
X195555751Y-134885000D01*
X195555752Y-134885000D01*
X195722499Y-134868577D01*
X195936447Y-134803676D01*
X196133623Y-134698284D01*
X196306449Y-134556449D01*
X196341996Y-134513135D01*
X198763141Y-132091991D01*
X198806449Y-132056449D01*
X198948284Y-131883623D01*
X199053676Y-131686447D01*
X199118577Y-131472499D01*
X199135000Y-131305752D01*
X199140491Y-131250000D01*
X199135000Y-131194249D01*
X199135000Y-110220132D01*
X199841989Y-109513144D01*
X199841998Y-109513133D01*
X200115000Y-109240131D01*
X200115001Y-127444239D01*
G37*
X200115001Y-127444239D02*
X200115000Y-127444249D01*
X200115001Y-134279867D01*
X197529869Y-136865000D01*
X170627195Y-136865000D01*
X170618577Y-136777501D01*
X170553676Y-136563553D01*
X170448284Y-136366377D01*
X170306449Y-136193551D01*
X170133623Y-136051716D01*
X169936447Y-135946324D01*
X169722499Y-135881423D01*
X169500000Y-135859509D01*
X169277502Y-135881423D01*
X169063554Y-135946324D01*
X168866378Y-136051716D01*
X168693552Y-136193551D01*
X168551717Y-136366377D01*
X168446324Y-136563553D01*
X168381423Y-136777501D01*
X168372805Y-136865000D01*
X158627195Y-136865000D01*
X158618577Y-136777501D01*
X158553676Y-136563553D01*
X158448284Y-136366377D01*
X158306449Y-136193551D01*
X158133623Y-136051716D01*
X157936447Y-135946324D01*
X157722499Y-135881423D01*
X157500000Y-135859509D01*
X157277502Y-135881423D01*
X157063554Y-135946324D01*
X156866378Y-136051716D01*
X156693552Y-136193551D01*
X156551717Y-136366377D01*
X156446324Y-136563553D01*
X156381423Y-136777501D01*
X156372805Y-136865000D01*
X146627195Y-136865000D01*
X146618577Y-136777501D01*
X146553676Y-136563553D01*
X146448284Y-136366377D01*
X146306449Y-136193551D01*
X146133623Y-136051716D01*
X145936447Y-135946324D01*
X145722499Y-135881423D01*
X145500000Y-135859509D01*
X145277502Y-135881423D01*
X145063554Y-135946324D01*
X144866378Y-136051716D01*
X144693552Y-136193551D01*
X144551717Y-136366377D01*
X144446324Y-136563553D01*
X144381423Y-136777501D01*
X144372805Y-136865000D01*
X134627195Y-136865000D01*
X134618577Y-136777501D01*
X134553676Y-136563553D01*
X134448284Y-136366377D01*
X134306449Y-136193551D01*
X134133623Y-136051716D01*
X133936447Y-135946324D01*
X133722499Y-135881423D01*
X133500000Y-135859509D01*
X133277502Y-135881423D01*
X133063554Y-135946324D01*
X132866378Y-136051716D01*
X132693552Y-136193551D01*
X132551717Y-136366377D01*
X132446324Y-136563553D01*
X132381423Y-136777501D01*
X132372805Y-136865000D01*
X125485103Y-136865000D01*
X125513143Y-136841988D01*
X127470133Y-134885000D01*
X140122805Y-134885000D01*
X140131423Y-134972499D01*
X140196324Y-135186447D01*
X140301717Y-135383623D01*
X140443552Y-135556449D01*
X140616378Y-135698284D01*
X140813554Y-135803676D01*
X141027502Y-135868577D01*
X141250000Y-135890491D01*
X141472499Y-135868577D01*
X141686447Y-135803676D01*
X141883623Y-135698284D01*
X142056449Y-135556449D01*
X142198284Y-135383623D01*
X142303676Y-135186447D01*
X142368577Y-134972499D01*
X142377195Y-134885000D01*
X152122805Y-134885000D01*
X152131423Y-134972499D01*
X152196324Y-135186447D01*
X152301717Y-135383623D01*
X152443552Y-135556449D01*
X152616378Y-135698284D01*
X152813554Y-135803676D01*
X153027502Y-135868577D01*
X153250000Y-135890491D01*
X153472499Y-135868577D01*
X153686447Y-135803676D01*
X153883623Y-135698284D01*
X154056449Y-135556449D01*
X154198284Y-135383623D01*
X154303676Y-135186447D01*
X154368577Y-134972499D01*
X154377195Y-134885000D01*
X164122805Y-134885000D01*
X164131423Y-134972499D01*
X164196324Y-135186447D01*
X164301717Y-135383623D01*
X164443552Y-135556449D01*
X164616378Y-135698284D01*
X164813554Y-135803676D01*
X165027502Y-135868577D01*
X165250000Y-135890491D01*
X165472499Y-135868577D01*
X165686447Y-135803676D01*
X165883623Y-135698284D01*
X166056449Y-135556449D01*
X166198284Y-135383623D01*
X166303676Y-135186447D01*
X166368577Y-134972499D01*
X166377195Y-134885000D01*
X176122805Y-134885000D01*
X176131423Y-134972499D01*
X176196324Y-135186447D01*
X176301717Y-135383623D01*
X176443552Y-135556449D01*
X176616378Y-135698284D01*
X176813554Y-135803676D01*
X177027502Y-135868577D01*
X177250000Y-135890491D01*
X177472499Y-135868577D01*
X177686447Y-135803676D01*
X177883623Y-135698284D01*
X178056449Y-135556449D01*
X178198284Y-135383623D01*
X178303676Y-135186447D01*
X178368577Y-134972499D01*
X178377195Y-134885000D01*
X195444249Y-134885000D01*
X195500000Y-134890491D01*
X195555751Y-134885000D01*
X195555752Y-134885000D01*
X195722499Y-134868577D01*
X195936447Y-134803676D01*
X196133623Y-134698284D01*
X196306449Y-134556449D01*
X196341996Y-134513135D01*
X198763141Y-132091991D01*
X198806449Y-132056449D01*
X198948284Y-131883623D01*
X199053676Y-131686447D01*
X199118577Y-131472499D01*
X199135000Y-131305752D01*
X199140491Y-131250000D01*
X199135000Y-131194249D01*
X199135000Y-110220132D01*
X199841989Y-109513144D01*
X199841998Y-109513133D01*
X200115000Y-109240131D01*
X200115001Y-127444239D01*
G36*
X138715000Y-98476939D02*
G01*
X138754774Y-98676898D01*
X138832795Y-98865256D01*
X138946063Y-99034774D01*
X138990000Y-99078711D01*
X138990001Y-110354000D01*
X138898273Y-110391995D01*
X138669465Y-110544880D01*
X138474880Y-110739465D01*
X138321995Y-110968273D01*
X138290000Y-111045515D01*
X138258005Y-110968273D01*
X138105120Y-110739465D01*
X137910535Y-110544880D01*
X137681727Y-110391995D01*
X137427490Y-110286686D01*
X137157592Y-110233000D01*
X136882408Y-110233000D01*
X136612510Y-110286686D01*
X136358273Y-110391995D01*
X136129465Y-110544880D01*
X135934880Y-110739465D01*
X135781995Y-110968273D01*
X135750000Y-111045515D01*
X135718005Y-110968273D01*
X135565120Y-110739465D01*
X135370535Y-110544880D01*
X135141727Y-110391995D01*
X134887490Y-110286686D01*
X134617592Y-110233000D01*
X134342408Y-110233000D01*
X134072510Y-110286686D01*
X133818273Y-110391995D01*
X133589465Y-110544880D01*
X133394880Y-110739465D01*
X133241995Y-110968273D01*
X133136686Y-111222510D01*
X133083000Y-111492408D01*
X133083000Y-111767592D01*
X133136686Y-112037490D01*
X133241995Y-112291727D01*
X133394880Y-112520535D01*
X133589465Y-112715120D01*
X133818273Y-112868005D01*
X134072510Y-112973314D01*
X134342408Y-113027000D01*
X134617592Y-113027000D01*
X134887490Y-112973314D01*
X135141727Y-112868005D01*
X135370535Y-112715120D01*
X135565120Y-112520535D01*
X135718005Y-112291727D01*
X135750000Y-112214485D01*
X135781995Y-112291727D01*
X135934880Y-112520535D01*
X136129465Y-112715120D01*
X136358273Y-112868005D01*
X136612510Y-112973314D01*
X136882408Y-113027000D01*
X137157592Y-113027000D01*
X137427490Y-112973314D01*
X137681727Y-112868005D01*
X137910535Y-112715120D01*
X138105120Y-112520535D01*
X138258005Y-112291727D01*
X138290000Y-112214485D01*
X138321995Y-112291727D01*
X138474880Y-112520535D01*
X138669465Y-112715120D01*
X138898273Y-112868005D01*
X139152510Y-112973314D01*
X139422408Y-113027000D01*
X139697592Y-113027000D01*
X139967490Y-112973314D01*
X140090307Y-112922441D01*
X140090307Y-113812974D01*
X140086630Y-113850306D01*
X140101304Y-113999291D01*
X140144760Y-114142552D01*
X140215332Y-114274582D01*
X140257303Y-114325723D01*
X140310306Y-114390307D01*
X140339304Y-114414105D01*
X140665198Y-114740000D01*
X130703711Y-114740000D01*
X130659774Y-114696063D01*
X130490256Y-114582795D01*
X130301898Y-114504774D01*
X130101939Y-114465000D01*
X129898061Y-114465000D01*
X129698102Y-114504774D01*
X129509744Y-114582795D01*
X129340226Y-114696063D01*
X129196063Y-114840226D01*
X129082795Y-115009744D01*
X129004774Y-115198102D01*
X128965000Y-115398061D01*
X128965000Y-115601939D01*
X129004774Y-115801898D01*
X129082795Y-115990256D01*
X129109351Y-116030000D01*
X114528178Y-116030000D01*
X114403475Y-115843368D01*
X114196632Y-115636525D01*
X114022240Y-115520000D01*
X114196632Y-115403475D01*
X114403475Y-115196632D01*
X114565990Y-114953411D01*
X114677932Y-114683158D01*
X114735000Y-114396260D01*
X114735000Y-114103740D01*
X114677932Y-113816842D01*
X114565990Y-113546589D01*
X114403475Y-113303368D01*
X114271620Y-113171513D01*
X114344180Y-113149502D01*
X114454494Y-113090537D01*
X114551185Y-113011185D01*
X114630537Y-112914494D01*
X114689502Y-112804180D01*
X114725812Y-112684482D01*
X114738072Y-112560000D01*
X114735000Y-111995750D01*
X114576250Y-111837000D01*
X113377000Y-111837000D01*
X113377000Y-111857000D01*
X113123000Y-111857000D01*
X113123000Y-111837000D01*
X113103000Y-111837000D01*
X113103000Y-111583000D01*
X113123000Y-111583000D01*
X113123000Y-110383750D01*
X113377000Y-110383750D01*
X113377000Y-111583000D01*
X114576250Y-111583000D01*
X114735000Y-111424250D01*
X114738072Y-110860000D01*
X114725812Y-110735518D01*
X114689502Y-110615820D01*
X114630537Y-110505506D01*
X114551185Y-110408815D01*
X114454494Y-110329463D01*
X114344180Y-110270498D01*
X114224482Y-110234188D01*
X114100000Y-110221928D01*
X113535750Y-110225000D01*
X113377000Y-110383750D01*
X113123000Y-110383750D01*
X112964250Y-110225000D01*
X112400000Y-110221928D01*
X112275518Y-110234188D01*
X112155820Y-110270498D01*
X112045506Y-110329463D01*
X111948815Y-110408815D01*
X111910000Y-110456111D01*
X111910000Y-106034304D01*
X127060000Y-106034304D01*
X127060000Y-106465696D01*
X127144161Y-106888799D01*
X127309248Y-107287354D01*
X127548916Y-107646043D01*
X127853957Y-107951084D01*
X128212646Y-108190752D01*
X128611201Y-108355839D01*
X129034304Y-108440000D01*
X129465696Y-108440000D01*
X129888799Y-108355839D01*
X130287354Y-108190752D01*
X130646043Y-107951084D01*
X130951084Y-107646043D01*
X131190752Y-107287354D01*
X131355839Y-106888799D01*
X131440000Y-106465696D01*
X131440000Y-106034304D01*
X131355839Y-105611201D01*
X131190752Y-105212646D01*
X130951084Y-104853957D01*
X130646043Y-104548916D01*
X130287354Y-104309248D01*
X129888799Y-104144161D01*
X129465696Y-104060000D01*
X129034304Y-104060000D01*
X128611201Y-104144161D01*
X128212646Y-104309248D01*
X127853957Y-104548916D01*
X127548916Y-104853957D01*
X127309248Y-105212646D01*
X127144161Y-105611201D01*
X127060000Y-106034304D01*
X111910000Y-106034304D01*
X111910000Y-98410000D01*
X138715000Y-98410000D01*
X138715000Y-98476939D01*
G37*
X138715000Y-98476939D02*
X138754774Y-98676898D01*
X138832795Y-98865256D01*
X138946063Y-99034774D01*
X138990000Y-99078711D01*
X138990001Y-110354000D01*
X138898273Y-110391995D01*
X138669465Y-110544880D01*
X138474880Y-110739465D01*
X138321995Y-110968273D01*
X138290000Y-111045515D01*
X138258005Y-110968273D01*
X138105120Y-110739465D01*
X137910535Y-110544880D01*
X137681727Y-110391995D01*
X137427490Y-110286686D01*
X137157592Y-110233000D01*
X136882408Y-110233000D01*
X136612510Y-110286686D01*
X136358273Y-110391995D01*
X136129465Y-110544880D01*
X135934880Y-110739465D01*
X135781995Y-110968273D01*
X135750000Y-111045515D01*
X135718005Y-110968273D01*
X135565120Y-110739465D01*
X135370535Y-110544880D01*
X135141727Y-110391995D01*
X134887490Y-110286686D01*
X134617592Y-110233000D01*
X134342408Y-110233000D01*
X134072510Y-110286686D01*
X133818273Y-110391995D01*
X133589465Y-110544880D01*
X133394880Y-110739465D01*
X133241995Y-110968273D01*
X133136686Y-111222510D01*
X133083000Y-111492408D01*
X133083000Y-111767592D01*
X133136686Y-112037490D01*
X133241995Y-112291727D01*
X133394880Y-112520535D01*
X133589465Y-112715120D01*
X133818273Y-112868005D01*
X134072510Y-112973314D01*
X134342408Y-113027000D01*
X134617592Y-113027000D01*
X134887490Y-112973314D01*
X135141727Y-112868005D01*
X135370535Y-112715120D01*
X135565120Y-112520535D01*
X135718005Y-112291727D01*
X135750000Y-112214485D01*
X135781995Y-112291727D01*
X135934880Y-112520535D01*
X136129465Y-112715120D01*
X136358273Y-112868005D01*
X136612510Y-112973314D01*
X136882408Y-113027000D01*
X137157592Y-113027000D01*
X137427490Y-112973314D01*
X137681727Y-112868005D01*
X137910535Y-112715120D01*
X138105120Y-112520535D01*
X138258005Y-112291727D01*
X138290000Y-112214485D01*
X138321995Y-112291727D01*
X138474880Y-112520535D01*
X138669465Y-112715120D01*
X138898273Y-112868005D01*
X139152510Y-112973314D01*
X139422408Y-113027000D01*
X139697592Y-113027000D01*
X139967490Y-112973314D01*
X140090307Y-112922441D01*
X140090307Y-113812974D01*
X140086630Y-113850306D01*
X140101304Y-113999291D01*
X140144760Y-114142552D01*
X140215332Y-114274582D01*
X140257303Y-114325723D01*
X140310306Y-114390307D01*
X140339304Y-114414105D01*
X140665198Y-114740000D01*
X130703711Y-114740000D01*
X130659774Y-114696063D01*
X130490256Y-114582795D01*
X130301898Y-114504774D01*
X130101939Y-114465000D01*
X129898061Y-114465000D01*
X129698102Y-114504774D01*
X129509744Y-114582795D01*
X129340226Y-114696063D01*
X129196063Y-114840226D01*
X129082795Y-115009744D01*
X129004774Y-115198102D01*
X128965000Y-115398061D01*
X128965000Y-115601939D01*
X129004774Y-115801898D01*
X129082795Y-115990256D01*
X129109351Y-116030000D01*
X114528178Y-116030000D01*
X114403475Y-115843368D01*
X114196632Y-115636525D01*
X114022240Y-115520000D01*
X114196632Y-115403475D01*
X114403475Y-115196632D01*
X114565990Y-114953411D01*
X114677932Y-114683158D01*
X114735000Y-114396260D01*
X114735000Y-114103740D01*
X114677932Y-113816842D01*
X114565990Y-113546589D01*
X114403475Y-113303368D01*
X114271620Y-113171513D01*
X114344180Y-113149502D01*
X114454494Y-113090537D01*
X114551185Y-113011185D01*
X114630537Y-112914494D01*
X114689502Y-112804180D01*
X114725812Y-112684482D01*
X114738072Y-112560000D01*
X114735000Y-111995750D01*
X114576250Y-111837000D01*
X113377000Y-111837000D01*
X113377000Y-111857000D01*
X113123000Y-111857000D01*
X113123000Y-111837000D01*
X113103000Y-111837000D01*
X113103000Y-111583000D01*
X113123000Y-111583000D01*
X113123000Y-110383750D01*
X113377000Y-110383750D01*
X113377000Y-111583000D01*
X114576250Y-111583000D01*
X114735000Y-111424250D01*
X114738072Y-110860000D01*
X114725812Y-110735518D01*
X114689502Y-110615820D01*
X114630537Y-110505506D01*
X114551185Y-110408815D01*
X114454494Y-110329463D01*
X114344180Y-110270498D01*
X114224482Y-110234188D01*
X114100000Y-110221928D01*
X113535750Y-110225000D01*
X113377000Y-110383750D01*
X113123000Y-110383750D01*
X112964250Y-110225000D01*
X112400000Y-110221928D01*
X112275518Y-110234188D01*
X112155820Y-110270498D01*
X112045506Y-110329463D01*
X111948815Y-110408815D01*
X111910000Y-110456111D01*
X111910000Y-106034304D01*
X127060000Y-106034304D01*
X127060000Y-106465696D01*
X127144161Y-106888799D01*
X127309248Y-107287354D01*
X127548916Y-107646043D01*
X127853957Y-107951084D01*
X128212646Y-108190752D01*
X128611201Y-108355839D01*
X129034304Y-108440000D01*
X129465696Y-108440000D01*
X129888799Y-108355839D01*
X130287354Y-108190752D01*
X130646043Y-107951084D01*
X130951084Y-107646043D01*
X131190752Y-107287354D01*
X131355839Y-106888799D01*
X131440000Y-106465696D01*
X131440000Y-106034304D01*
X131355839Y-105611201D01*
X131190752Y-105212646D01*
X130951084Y-104853957D01*
X130646043Y-104548916D01*
X130287354Y-104309248D01*
X129888799Y-104144161D01*
X129465696Y-104060000D01*
X129034304Y-104060000D01*
X128611201Y-104144161D01*
X128212646Y-104309248D01*
X127853957Y-104548916D01*
X127548916Y-104853957D01*
X127309248Y-105212646D01*
X127144161Y-105611201D01*
X127060000Y-106034304D01*
X111910000Y-106034304D01*
X111910000Y-98410000D01*
X138715000Y-98410000D01*
X138715000Y-98476939D01*
M02*
